<?xml version="1.0" encoding="utf-8"?>
<!-- Generator: Adobe Illustrator 16.0.0, SVG Export Plug-In . SVG Version: 6.00 Build 0)  -->
<!DOCTYPE svg PUBLIC "-//W3C//DTD SVG 1.1//EN" "http://www.w3.org/Graphics/SVG/1.1/DTD/svg11.dtd">
<svg version="1.1"
	 id="svg26749" xmlns:rdf="http://www.w3.org/1999/02/22-rdf-syntax-ns#" xmlns:dc="http://purl.org/dc/elements/1.1/" xmlns:sodipodi="http://sodipodi.sourceforge.net/DTD/sodipodi-0.dtd" xmlns:inkscape="http://www.inkscape.org/namespaces/inkscape" xmlns:cc="http://web.resource.org/cc/" xmlns:svg="http://www.w3.org/2000/svg" sodipodi:docname="06_095_map.svg" inkscape:version="0.45" sodipodi:version="0.32" sodipodi:docbase="C:\Files\wikibot" inkscape:output_extension="org.inkscape.output.svg.inkscape" sodipodi:modified="true"
	 xmlns="http://www.w3.org/2000/svg" xmlns:xlink="http://www.w3.org/1999/xlink" x="0px" y="0px" width="560.14px"
	 height="451.167px" viewBox="9.636 74.868 560.14 451.167" enable-background="new 9.636 74.868 560.14 451.167"
	 xml:space="preserve">
<sodipodi:namedview  width="1000px" height="550px" bordercolor="#666666" borderopacity="1.0" inkscape:cy="275" guidetolerance="10.0" inkscape:zoom="0.664" inkscape:cx="500" pagecolor="#ffffff" objecttolerance="10.0" gridtolerance="10.0" id="base" inkscape:pageopacity="0.0" inkscape:window-x="44" inkscape:window-y="44" inkscape:current-layer="g26941" inkscape:pageshadow="2" inkscape:window-width="748" inkscape:window-height="579">
	</sodipodi:namedview>
<path id="_x30_95" fill="#FFFFFF" stroke="#000000" stroke-width="3" d="M467.042,77.227l0.9,1.2l0,0h0.3l0,0l2.3,1.3l0,0h0.4l1,0.2
	l0,0h0.399l0,0h1.801l0,0l1.899,0.8l6.2-2.2l1.4-0.1l2.399,2.1l4.9,7l2.3,0.5l1.8-0.2l0,0v2.3l-0.3,0.4l-0.1,11.4l0,0v4.9l0,0v0.3
	l0,0l-0.101,9l0,0v6.3l1.3,0.2l0,0v12.6l0,0v18.6v19l0,0v6.6l0,0v3.8l0,0v2.8l0,0l0,0l0,0l0,0l0,0v6.2l0,0v4.3l0,0l0.2,26.2l0,0
	l-0.1,14l0,0v0.2l0,0v12.6l0,0l0.1,13.4l0,0l-0.1,12.3v0.6l0,0l27,0.2l0,0h0.7l0,0h0.899l0,0h0.3l0,0l39.801,0.1l0,0l-3.301,2.1
	l-0.5,0.7l0.301,3.101l-1.2,4.3l-2.8,3.3l-0.7,1.5l0.6,6.8l2.101,6.7l0.399,2.1l-0.6,2.301l-1.601,4.5l1.7,5.899l0.9,5.7l-1.3,6.8
	l0,0l0.199,4.5l-0.5,12.7v3.9l0.5,3.699l-0.3,1.101l-2.6,4.8l0,0l-2.8,5.8l-0.601,1.8v3.9l-0.899,2.6l-1.2,2.2l-0.601,0.7l-4.1,1.9
	l-3.2,0.1l0,0l-4.899-0.4l0,0l-1.2,0.601l0,0l-4,2.399l0,0l-1.9,1.601l-1.3,2l-1.8,1l-4.5,2l-5.3,1.1l-2.301,2.9l-0.5,1.399
	l-3.199,4.101l-3,4.899l-2.801,3.5l-2.899,1.801l-0.7,1l-0.2,4.5l-0.7,2.399l-0.5,4.4l-0.3,1.3l-1.6,4.8l-1,6l-2.5,6.7l-2.8,5.6
	l-3.5,4.801l-0.9,1.699l-0.5,1.801l-0.4,4.1l-0.399,12.1l-0.7,2.301l-1,2.1l-2,1.7l-10.5,1.899l-1.7-0.199l-2.1-1l-4.4-3h-1.2
	l-8.5,5.8l-7.6,4.1l-20.1,13.4l-2.5,1.1h-3.5l-3.801-1l-11.6-4.8l-3-2.8l-3.6-4.4l-3.301-2l-10.3,4.2l-2.7,1.8l0,0l-0.6,3.4l0,0
	l-0.5,2.3l-0.9,2.2l-3.399,5.7l-4.5,3.899l0,0l-5.7,2l-8,1.7l-8.4,0.8l-8.3-0.6l-5.2-1.2l-4.8-1.5l-6.6-3.2l-3.9-1.399l0,0v-0.9
	l-7.7-5.6l-6.8-3.7l-3.6-1.101l-3.8-0.399l-21.8,3.3l-9,3.8l0,0l-5.4-0.899h-9.6l-7.4-1.7l-4.1,1.8l-6.9,5.4l-7.7,3.399l-4.8,1.5
	l-0.9,0.4l-3.9,1.8l-12,6.8l0,0l-2.4,2.101l-4.2,0.899l-6.3,2.2l-6.2,0.4l-2.5-0.4l-3-0.6l0,0l-2.1-0.5l-4.1-1.7l-1.3-1.2l0,0
	l-1.3-2.2l0,0l-3.7-6.399l-6-6.601l-7.5-2.3l-0.7-0.2l0,0l-4-1.2l-8.1-1.3l0,0l-7.9-1.3l0,0h-0.5l-4.1-0.7l-9.1-1.899l-13.6,3.5
	l-0.9-0.101l0,0l-4.2-12.6l-6.7-7.601l-12.8-19.6l-7.7-8l-1-1l-5.1-3.3l-18-11.9l-12-8l-20.4-7.6l-4.8-0.5l0,0l-2.4-4.601l0,0
	l1.8-0.1l0,0l28.5,0.4l0,0h0.4l0,0h7.1l0,0h0.3l0,0l9.4,0.199l0,0h1.9l0,0l27.6,0.301l1.2,0.1l10.2-0.1h4l3.7,0.1h0.9h1.6l2.1,0.2
	h3.4l0.6-0.101l9.8,0.101h1.5l0,0h0.8l0,0h3.7l0,0l10.6,0.1l0,0h0.4l11.5-0.1h0.8l0,0l-1.7-1.8l-0.7-2l1.7-2.7l1.4-2l-2.5-3.3h-1.1
	l-1.3,0.199l-0.9-0.3l-0.4-0.2l0.3-2.399l-1-1.2l-2.9,0.1l-1.6-1.8l-2.6-4.399l0.9-1.101l0.5-2.899l-1.7-3.601l0,0l4.1-1.3l-1.3-2
	l3.8-3.6l0.6-2l-0.5-4.5v-4.101l2.9-3l1.3,0.9l3.1-1.5l0.7-1.101l-0.5-1.399l-1.1-0.8l0.1-2.5l1.9-2l-0.1-2l-1-1.5l-0.6-4.601
	l-4-8.7l-1.7-0.699l-0.7-3.101l-2,0.3l-0.9-0.5l-0.4-2.3l0,0l0.8-3.3l0,0l1.8,0.2l1.4,1.399l2.1-0.1l1.2-1.3l2.9,0.2l0.8-1.9
	l-0.3-1.1l-0.1-0.5l0.9-1.5l-2.3-1.801l-4.2-0.699l-2.1,0.399l-1.7,0.3l-3-0.6l-2.7-2.9l0.3-3.199l2.9-6l4,1.1l4-0.4l2.1-0.6
	l1.1,1.1l5-0.1l-1.6-5.2l-2.5-2.899l-1.3-1l-4.8-9.7l-0.2-0.9l2.2-4l0.9-2.7l-0.9-0.399l0,0l-0.3-0.7l0,0l-0.3-4.6l0,0l-0.1-0.5l0,0
	l-0.2-0.301l0,0l-1.5-1.1l-1.5-4.2l0.2-0.7h4.9l0,0h0.8l0,0l0.4,0.1l0,0l2.9-0.1l0,0l1.1,0.1l0,0l7.6-0.2l10.6,0.1l0,0l20.7,0.2l0,0
	l25.3-0.2l0,0h1.6l0,0h19.9l-0.2-1.1l-2.1-1.1l1.9-4.2l1.3-1.5l0.9-0.2l0.5-2.1v-1.9l-1.1-3.4h-1.2l-3.4-8.2l-0.6-3.2l0.7-3.9
	l-2.5-6.7v-2.2l-1.9-2.5h-1l-5.6-13.8l-0.1-1l-1.9-3.2l0,0l-2.7-3.8l0,0l-4.1-4.8l-7.2-9.4l-0.2-1.3l0,0l-0.6-2.3l0,0l-4.9-4.8
	l-0.8-2.1l0,0l-0.4-1.7l-3.9-6.1l0,0l-0.6-6.9l0,0l0.4-3l0,0l1.5-9.7l2.1-5.5l5-18.5l1.4-2.1l2-7.8l2.2-4.2v-1.7l-1.5-1.5l0.6-12.2
	l1.9-3.2l0.1-1l0,0v-0.2l0,0l5.3,0.4l0,0l0,0l0,0l1.9-1.3l7.9-0.3l0,0l0.6,0.6l5.5,0.4l6.6-1.6l1.7-0.6l0.9-1.1h0.9l10.3,10.1
	l2.4,5.2l0,0l0.9,1.5l1.7,1.6l4.2,2.9l5.2,2.8l5.7,0.9l4.6-4.4l0,0l1.5-0.3l0,0h0.3l0,0l2.8-2.6l0,0l0.2-0.5l0,0l1.7-2.6l2.1-0.2
	l1.7-0.6l1.2-0.9l1.6-2.4l1.4-1.5l0,0l3.4-1.8l0.3-2.8l0,0l1-2.4l1.3-0.5l0,0l1.8-0.9l0.301-2l1.5-1.6l4.5-2.4l3.399-1l0.8-0.9l0,0
	l1.4-0.6h0.1l5.2-2.1l1.8-3.3l1.2-1.1l4.2,0.6l4,2l2.6,0.5l0,0l11.7,0.1l7.8-3l5.9-4.2l1.9-0.9l1.699-0.1l10.5,2.1l2.5-0.1l0.7-1.6
	l2.3-0.1l3.4,1.8l2.2,0.1l1.7,0.1l5.6,2l5.4,3.6l5.399,0.5l2,0.8l5.4,2l3.2-0.8l8.5-0.5l7,4l1.6-0.2l0.7-3.5l2.6-2.7l5.3-2l1.9,1.6
	l0,0l-0.1,2.8l0,0l0.8,1.5l1.399,0.3l4.601-3l3-0.6l0,0l3.6-1.1l0,0l1.9-0.9l5-5.2l0,0l0.5,0.1l0,0l0.1-0.2l0,0l0.101,0.1l0,0
	L467.042,77.227z"/>
<path id="_x31_9402" fill="#CCCCCC" stroke="#000000" d="M421.342,126.627v12.3l0,0l-5,7.7l0,0h1.601v4.2h-0.601v-1.2l-3.3,0.2l0,0
	l-2.5,3.6l0,0h3.5l0,0l0.2,6.5l0,0h0.9l0,0l-0.9,6.5h-4.5l-0.2,3.9l-1.8,0.1l0,0v2.8l0,0l-5.9,0.1l-0.1,5.7l-3.4,0.1v-1.9l-3.1,0.1
	l0,0v-1.5v-0.2l0,0l6.5-9.8l0,0l-2-0.1v0.8l-4.5,0.1l0,0v1l0,0h-6.2l-0.1-1.2h-6.101l-6.399,0.1l0,0l5-5.1l1.899-1.8l12-12.1l0,0v-2
	l0,0l2.801-0.8l0,0l4-4.1l0,0l4.8-4.8l0,0l-0.101-0.2l0,0l1-1.8l0,0l0.5,0.3l0,0l12.2-12.6l0,0h2.7v5.1H421.342z M421.143,201.427
	l-0.101,6.5l0,0l-6.399-0.1l0,0l0.199-0.2l0,0v-6.1l0,0l5.601-0.1l0,0H421.143z M421.042,207.927h6l0,0l0.101,3.4l0,0l6.399-0.1l0,0
	l-0.1,6.3l0,0h-6.3v-3.2h-3.101l0,0l-3-3l0,0V207.927z"/>
<path id="_x32_2146" fill="none" stroke="#000000" d="M345.942,236.127h6.399l0,0l-0.1,3.8l0,0l0.1,0.8l0,0l-0.1,2l0,0l6.4-0.1l0,0
	v4.6l0,0l-3,0.1l-3.4-0.9l0,0l-3.4-0.9l0,0l0.2-0.3l0,0l-0.8-0.4l0,0l-0.7-0.3l0,0l-0.3-0.3l0,0l-1.3-0.9V236.127z"/>
<path id="_x32_3182" fill="#CCCCCC" stroke="#000000" d="M279.242,285.527l-0.7,1.3l0,0l1.5,0.8l-0.3,3.7l3.2,4.1l6,3.2l2.4,0.3
	l1.9-1.2l3.8-3.6l0.2-0.6l-0.4-0.9l2.2-4.1l2.7-2.7l3.2-2.2h3.5l0,0l0.7,2.8l0.3,6.9l0,0l-2.5,1.6h-3.8v2.3l-3.8,2.4l0,0h10.1l0,0
	l-0.101,4.2l0,0l1.801-0.8l0,0l4.399,0.1l0,0v4.4l0,0l0.3-0.7l0,0l1.301-3.8l3.5,0.1l0.8,0.3l0.1,0.7l6.2-0.1l0.1-2.301l0,0v-2.199
	h5.2l1.2,0.699l0,0v1.4l0,0v0.9l0,0l1.8,3.899l0,0l2.601,0.101l0,0h7.699l0.101,5l5.6-5.4l0.601-0.4l5.6-5l1,0.101l2.6,2.899
	l-15.399,15.301l0.1,2.399l-0.5,0.5l-4.1,3.9l-1.4,0.1l-0.2,6.101l-7.6,0.1l-4.5,3.1v3l0,0l-6.9,0.101l0,0v0.899l0,0l-4.1,3.9
	l-1,0.2l0,0l-0.9,0.1l0,0l-2.1-5.1l0,0l-4-0.101l0,0l0.2-6l0,0v-3.8h-3.101l-0.899-3.2l0.2-12.899l0,0h-5.6l-3.1,0.8l0,0v6.1l0,0
	v1.101l0,0h-0.2l-2-1.101l0,0v-0.1l0,0h-8.2h-0.9l0,0l-0.5-0.2h-0.4l0,0l-4.2,3.5v0.3l0,0l-1.9,1.4l0,0v-0.4l0,0l-1.7,1.2l0,0
	l-0.2,0.101l0,0l-1.2,0.1l0,0h-0.4l0,0l0.2,0.9l0,0l-12.2,9.1l0,0l-0.4,0.3l0,0v0.601l0,0l-0.1-0.101l-1.3,0.8l-2,1.2l0,0l-0.8-0.1
	l0,0h-3.7l0,0l-0.3,2.3l0,0l-7,0.5l0,0v1l0,0l1.3,0.7v0.7l0.9,1.5l0,0h-2.2l0,0v3.3l0,0l-0.7,0.399l0,0l-2,3.301l0,0v1.5l0,0
	l-3.9,0.1l-0.3,8.4l-8.8,1.199l0,0l0.1-9.6l0,0l-19.3,10.7l-0.1,0.899l-2.7-0.6l0,0l-7.3,1.7l0,0l-0.4,1.5l-1.6-1l0,0l-0.8,0.1l0,0
	l-0.6-3l0,0l-0.8-1.1l0,0l-3.2,2.2l0,0l-0.1,9.899l0.2,10.4l1.4,4.6l0,0l1.9,4.5l0,0l2.8,6.101l7.7,11.8l0,0l-6.4-2.101l-5,2.801
	l0.5,2.1l-0.3,0.1l-3.4-1.399l-2.2-3.3l-0.7,0.699l-7.5-0.399l-0.5-5.4l0,0l2.7-5.2l2.1-4.1l0,0l0.9-3.5v-1.8l-0.3-2l-0.8-0.101
	l-0.4,4.5l-3.9,2.7l-0.3,4.5l-3.5,0.3l-2.7-6.6l2.7-1.2l0.4-2.2l-2.8-5.699l-6.5,3.399l-0.3-0.5l1.7-1.6l2.9-4.601l4.1-4.1l-1.1-6.7
	l0,0l8-0.8l0,0l1.8-1.9l0,0l-0.9,0.601l0,0l-0.1-5.2l-2-1.3l-0.4-4.8l-2.5,0.1l-1.7,0.7l0,0l-0.1-1.101l7.1-6l0,0l-1.4-4.199l0,0
	l1.7-3.601l3.3-2.399l0,0l1.5-0.801l3.2-0.3l-0.1,5.5l1.6,0.2v-1.4l4.2-1.5h2.5l0,0l-1.8,5.301l0,0l4.8,1.199h0.6l0.6-1.1l0,0
	l3.4,1.6l0,0l-7.5,4.4l0,0l1.2,0.5l0.2,3.6l1,3.9l0.9,1.6l0,0l4.2-1.1l0,0l0.5-2.1l0,0l0.2-2.2l0,0l1.4-1.3l0,0l1.7,4.8l0,0l9.6-5.3
	l0,0l-1-4.101l0,0l-0.7-8.8l0,0v-0.6l0,0l4.7-2.601l3.3-1.899l4.9-2.801l0,0h0.5l0,0v-0.1l0,0l4.5-2.6l0,0l-1.8-0.101l0,0v-2.1
	l-0.3-1.101l-0.4-0.199l-1.2-0.4l-2-3.2l-0.1-2.8l-0.6-1.1l-0.9-0.801l0,0l0.2-6l0,0l-2.3-0.5l0,0l0.5-2.1l-0.3-0.2l0,0l-0.1-0.1
	l0,0l-1.4-1l-0.8,0.1l-2.4-1.7l0,0l-1.1-0.5l0,0l1.5-5.199l-2.6-0.801l-1.2-6.199l5.2-1l4.8-3.9l10.6-0.1l3.1,5.399l0.1-11.1l7,1.5
	l4.3-0.5l6.6,0.1l0,0l0.2-6.399l0,0l6,0.1L279.242,285.527z"/>
<path id="_x37_5630" fill="#CCCCCC" stroke="#000000" d="M284.742,318.927h0.4l0.5,0.2l0,0l-0.9,0.6l0,0l0.2,0.7l-0.2,4.4l0,0
	l1.2,4.6l0,0h2l1.9-0.1l0,0l3.5,0.1l3.2,0.101h0.2l0,0l0.2-9.2l0,0v-1.101l0,0l5.5,0.2l-1.3,2.8l-0.5,6.4l3,5v4.5l0,0h-7l0,0
	l-0.1,4.4l0,0v2.3l-7.6,0.1l-1.9-2.899l-4.7-2.301l-7.4-0.3l0,0v-0.899l0,0h-5.5l-0.8-0.5l-0.1,4.1l0,0v0.4l0,0v0.199l0,0v0.7l0,0
	v0.2l0,0v0.2l0,0v1.5l-1.6,1.2l-2.4-1.2l-0.7,0.1l-0.4,0.3l-0.3,1.301l-0.6,0.3l-0.1,0.6l0.5,1.5l-3,0.4l-0.2-4l-2.1-0.3l0,0
	l0.2-0.601l0,0h-0.4l0,0l0.1-0.2l0,0l-5.1,0.101l-0.3,0.2l0,0l-0.2-0.601h0.6l0,0l-0.1,0.101l0,0h2l0,0l3.8-1.4l0,0l0.3-4.3v-1l0,0
	l0.8,0.1l0,0l2-1.2l1.3-0.8l0.1,0.101l0,0h0.5l-0.1-0.9l0,0l12.2-9.1l0,0l-0.2-0.9l0,0h0.4l0,0l1.2-0.1l0,0l0.2-0.101l0,0l1.7,1.101
	l0,0v-1.2l0,0l1.9-2.101l0,0v-0.3L284.742,318.927z M306.242,338.227l0.1-6.1l3.101,0.1l0,0l-0.2,6l0,0H306.242z"/>
<path id="_x38_1666" fill="#FF0000" stroke="#000000" d="M150.742,403.927l5.4-4.1l0.2,0.2l0.4,0.399l-3.8,3.601l0,0l-1.3,0.199
	L150.742,403.927z M90.242,415.627l10.2-0.1h4l3.7,0.1h0.9l0,0h1.6l2.1,0.2h3.4l0.6-0.101l9.8,0.101h1.5l0,0h0.8l0,0h3.7l0,0
	l10.6,0.1l0,0h0.4l0,0v2.7l10,8.4l3-1.301l-0.1-5.8l-1.5-2.5l-0.1-1.2l0.2-0.399l0,0h0.8l0,0l-1.7-1.8l-0.7-2l1.7-2.7l0,0l1,0.899
	l14-6.8l2.6,22l-0.1,2l2.1,6.601l0.1,1.6l-0.2,0.4l-0.3,0.5l-14,8l0.3,6.1l-1.2,0.6l0,0h0.9l0.4,0.301l0,0l0.4,6.399l5.5-0.399
	l-6,15.399l-3.6-3.899l-1.3-0.5h-1.4l0,0l0.4,3.199l2.2,7.101l0,0l-0.2-0.101l0,0l-4.4-0.899l0,0l-0.1,0.7l0,0l1.5,0.3l0,0l-0.1,7.7
	l0.2,2.699l2.2,8.801l0.1,0.199l-0.2,1l0,0l-3.9-1.1l-0.4-1.1l-2.7-4.101l-1.2-0.3l-1.2,0.8l-0.4,1.101l-1.8-0.5l-0.3-1.601
	l-1.1,0.8l-0.4,0.9l-7.8,0.9l-2.4-0.9l-6.6-6.3l0,0l0,0l0,0l-0.2-0.7l0,0l-1-3.4l0,0l-1.7-1.399l0,0l-0.5,3.2l0,0l-0.7,10.5l0,0
	l-13.6,3.5l-0.9-0.101l0,0l-4.2-12.6l-6.7-7.601l-12.8-19.6l-7.7-8l0,0l1,0.8l0,0l12.3-0.2l0,0l0.1-1.699l0,0v-1.5l0,0v-0.2l0,0
	h-1.1l0,0l0.1-4.101l3.8,1.5l0.7,2l0,0l3.4-1l0,0l2.4,5.101l0,0l2.5,0.1h1.3l-1.4-4.2l0,0l0.1-3.199l0,0h0.1l3.1-1.801l0,0l1.2-1.6
	l0.4-0.3l0.9-1.101l0,0l2.5,1.301l0.8-1.301l4.1-1.5l-0.1-1.6l-3.1,0.8l0,0l-1.7-0.6l0,0l1-1l0,0l-1.4-1.4l-1.7-3l-1.6,0.101l0,0
	l0.9-1.801l0,0h7.1v-0.5l-1.2-0.5l-6-0.1l0,0l-0.3-0.3l0,0l-1.7-3.101l-1.9-1.6l-3.3-3.5l-1.4-0.5h-2.7l-3.1-0.5L90.242,415.627z"/>
<path id="_x33_1099" fill="none" stroke="#000000" d="M152.042,332.627l1.2-1.3l2.9,0.2l0.8-1.9l-0.3-1.1l-0.1-0.5l0.9-1.5
	l-2.3-1.801l-4.2-0.699l-2.1,0.399l0,0l27.9-16.2l23-17l-6.8,41.101l-1.7,8.2l0,0l-3.3,2.399l-1.7,3.601l0,0l-1.1-1.9l0,0h-7l-0.1-4
	l-0.2-0.3l-3.5-1.3l-2.3-0.301l0,0l-0.8,0.7h-1l-3-1.6l-4.6,1.3l-4.2,0.6l-1.6-0.6l-4.4-5.3l0,0L152.042,332.627z"/>
<path id="_x30_5290" fill="#CCCCCC" stroke="#000000" d="M190.542,468.627l2.2-6l0.9-5.3l-0.3-2.4l5.3,3.5l-2.8,3.8l4.4,3.301
	l1.2,1.899l0.6,2.9v1.3l-0.7,1.3l0,0l4.3,1.101l2.2,1.8l3.1,0.899l1.2,0.801l0,0l4.4-6.801l0,0l1.6-0.899l0,0l-1.5,7.3l-0.8,1.8
	l-9.9,14.2l0,0l2.4,5.7l-5.9,13.5l-7.3,4.3l-7.2,0.5l-2.9,7l0,0l-3-0.6l0,0l-2.1-0.5l-4.1-1.7l-1.3-1.2l0,0l-1.3-2.2l0,0l-3.7-6.399
	l-6-6.601l-7.5-2.3l0,0l0.4-2.1l0,0l-0.5-1.301l0,0l0.2-1l-0.1-0.199l-2.2-8.801l-0.2-2.699l0.1-7.7l0,0l2.8,2.3l0,0l0.2-2.4l0,0
	l0.2,0.101l0,0l0.6,1.6l0,0l6.7-15.399l7.8,5v3.1l0.9,0.6l4-9.5l0,0l0.9-0.8l1.4,0.601l2.2,1.5l3.5,0.399L190.542,468.627z"/>
<path id="_x36_0984" fill="#CCCCCC" stroke="#000000" d="M486.842,377.627l-0.199-0.1l0,0l0.3-0.2l2.3,1v2.5l4.2-0.101l3-2.399
	l7.8-0.7l1.8,15.3l-5.3-5.5l-2.9,2.9l4.801,5.1l0,0l-2.9,2.4l0,0l3.9,4l0,0l5.5-3.9l2.5,2.4l0,0l-3,4.899l-2.801,3.5l-2.899,1.801
	l-0.7,1l-0.2,4.5l-0.7,2.399l-0.5,4.4l-0.3,1.3l0,0l-2.7-2.4l0,0l-0.5-0.5l0,0l-2.699-1.399l0,0l-5.7,1.399l0,0l-12.601-12.199
	l8.301-8.4l0,0l-9.101-9.4l-4.899-0.399l0,0v-12.8l0,0l5.899,0.1l0,0v-6.3h6.5l0,0l-0.1,8.899l0,0l0.3,0.301l0,0h3.2l-0.9-2.801
	L486.842,377.627z"/>
<path id="_x38_1554" fill="#CCCCCC" stroke="#000000" d="M333.643,185.027v6.5l0,0l5.8,0.1l0.1,6.3h-6l0,0v12.4l0,0l11.7-11.7l0,0
	l0.6-2.3l0,0v-1l0,0l0.4,0.7l0,0l6.5-6.4h-6.9l0,0v-4.5l0,0l11.301,0.1l0,0l0.899-0.6l0,0l0.4,1.2l-3.8,3.6l-0.801,3.1v5.3l0,0h-1.5
	l0,0v-6.1l-4.6,4.6l-0.4,0.7l0.7,0.7l1.8,0.1v6.5h-9.199l-5.2,6.6v7h-1.9l0,0v3.7v1.2l-0.1,0.9v3.5l-0.101,9.8l0,0l0.101,5.5
	l6.7,0.2l0.5,0.3l0,0h0.6l0,0l4.6,0.7l0,0v0.1l0,0l1.4,0.4l0,0l0.3,0.3l0,0l0.7,0.3l0,0l0.8,0.4l0,0l-0.2,0.3l0,0l-2,2.8l0,0
	l-13.399,0.3l0,0v1.9l0.1,5.1v0.6l-0.1,0.7l0,0h-2.101l-3.899,0.1l0,0l-0.101,2.3l0,0v1.4l0,0h-1.3l-1.7,1.2h-2.699l-0.801,1.8
	l0.101,10.8l-7.4-0.1h-1l-4.2-0.1l-2.1-0.1l0,0l-1.7,0.1l0,0h-9.1l-6.1,0.1l0,0h-0.6l0,0l0.8,1.4h0.9v1.2v3.1l-1.7,0.5v-0.5
	l-8.1,0.2l-4.3-0.101l-9.7-4.3l0,0l0.6-2.1l4.5-6.5l0.7-1.3l1.4-2.8l2.3-4.5l0,0l-0.2-2.8l0.2-0.4l0,0l1.3-2.4l0,0l0.5,0.7l2.2-1.9
	l0.8-0.1l0,0l0.7-0.3l0,0l-0.1-0.2l0,0l4.5-2.1l0.2-1.5l-3.1-4.4l-5.2,2.7l-0.9-2.3l2.1-1.4l-3.3-5.6l0.5-1.6l0,0h-0.6l0,0l-0.6-8.3
	l0.3-0.5l1.4,0.5l0,0l2.6,0.5l0,0h0.2l0,0l0.7,0.1l0,0v-2.9h1.5l0.4-6.7l0,0l3.4,0.6l0,0h2.7l0,0v3.3h1.1v2.4l0,0l-0.1,0.3l0,0
	l0.4,3l0,0h0.5v2.6l1.6-0.1v-2.4h1.8l0,0l-0.1-0.3l-0.2-0.5l-0.6-1.7l-0.2-0.6l0,0l2.7-1.5l0,0l0.8,1.3l0,0l0.8-2.3l0,0l-0.2,0.2
	l0,0l-2.4-2.1l0,0h-0.7l0,0l-1.4-5.3l0,0l0,0l0,0l0.7-1.1l0,0l-0.7-1.3l-0.2-9.9l3.3-0.1l0,0h8.9l1.8,0.1v-2.2h1.899l0,0v-2.3l0,0
	l0.601-0.3l0,0l1.6,1.8l0,0h4.8l0,0l0.2-1.8l1.3-6.3l0.101-5.1l0.1-1.3l0,0h0.601l9.1,0.1H333.643z M293.542,220.027l0.8,0.4l0,0
	l0.1,0.2l0,0l0.1,0.3l0,0l0.1,0.3l0,0l-2.7,1.5l0,0l-1-2.5l0,0L293.542,220.027z M352.342,246.727l-0.1-0.3l0,0l3.4,0.9l3-0.1l0,0
	l-0.101,1.2v7.1l0,0l-6.2-0.1l0,0V246.727z"/>
<path id="exclusion" fill="#FFFFFF" stroke="#000000" d="M317.042,195.127L317.042,195.127L317.042,195.127l2.9-0.1l2-2.3l2.5,0.2
	l-0.7,4.5l-4.4,0.8l-2.3-0.1V195.127z"/>
<path id="path26762" fill="#FFFFFF" stroke="#000000" d="M285.542,226.827l2.4,0.6l-2.4,2.5l0,0l-0.1-2.5L285.542,226.827z"/>
<path id="path26764" fill="#FFFFFF" stroke="#000000" d="M327.542,233.927h0.601v0.2L327.542,233.927z"/>
<path id="path26772" fill="#FFFFFF" stroke="#000000" d="M242.642,315.127v0.6h-0.7l-0.1-0.6l0,0H242.642z"/>
<path id="path26774" fill="#FFFFFF" stroke="#000000" d="M285.642,319.127h0.9h8.2l0,0v0.1l0,0l2,1.101h0.2l0,0l-0.2,9.2l0,0h-0.2
	l-3.2-0.101l-3.5-0.1l0,0l-1.9,0.1h-2l0,0l-1.2-4.6l0,0l0.2-4.4l-0.2-0.7l0,0L285.642,319.127z"/>
<path id="path26776" fill="#FFFFFF" stroke="#000000" d="M275.142,320.827l1.7-0.101v0.601h-1.7V320.827z"/>
<path id="path26778" fill="#FFFFFF" stroke="#000000" d="M278.642,324.127l1.9-1.4l0,0l-1.9,2.101l0,0v1.2l0,0l-1.7-1.101l0,0
	l1.7-1.2l0,0V324.127z"/>
<path id="path26780" fill="#FFFFFF" stroke="#000000" d="M250.642,333.927h0.6l0.2,0.7h-0.8V333.927z"/>
<path id="path26782" fill="#FFFFFF" stroke="#000000" d="M262.742,335.427l0.4-0.3l0,0l0.1,0.9h-0.5l0,0V335.427z"/>
<path id="path26784" fill="#FFFFFF" stroke="#000000" d="M145.342,457.227h0.5v1.7l-0.8,0.101v-1.801H145.342z"/>
<path id="path26786" fill="#FFFFFF" stroke="#000000" d="M126.742,467.027l1.3,0.399l0,0l4,0.8l0,0l-0.3,0.301l0,0l0.8,0.3l0,0
	v0.399l-0.1,0.101l-0.3,2l-0.1,0.399l0,0l6.3,2.301l0,0l1.7-2.801l0,0l-0.1-2.6l0,0l0.2-0.8l0,0l3.4-0.2v1.5h1.3v2.4l0.5,1.3
	l-1.4,2.399l0,0l1.3,0.7l0,0l-0.4,0.5l-0.1,0.4l0,0l0.7,0.1l0,0l-0.5,0.7l0,0l-0.8,1.3l-1.7,3.101l0,0l-3.5-0.101l-0.8-0.6l0.4-0.8
	l0.1-4.301l-1.3-0.699l0.8-1.101l0,0l0.1-0.2l0,0l-4.7-1.6l-0.3-0.2l0,0l-1.4,0.7l0,0h-0.4l-0.3-0.9l0,0h0.5l0,0l-0.5-0.699l0,0
	l-0.2,0.5l0,0l-0.1,0.1l0,0l-0.5-0.8l0,0l-1.6,0.399l0,0l-0.4-0.6l0,0l0.3-0.2l0,0l0.7-0.1l0.1-0.3l0,0l-0.2-0.101l0,0l-3.9-1.2l0,0
	l-0.5-0.699l0,0l0.5-0.5L126.742,467.027z"/>
<path id="path26788" fill="#FFFFFF" stroke="#000000" d="M152.242,478.527l0.1-0.7l0,0l4.4,0.899l0,0l-0.2,2.4l0,0l-2.8-2.3l0,0
	L152.242,478.527z"/>
<path id="path26790" fill="#FFFFFF" stroke="#000000" d="M127.442,512.227l0.3,0.101l0,0h-0.3l0,0V512.227z"/>
<path id="path26797" fill="none" stroke="#000000" stroke-width="3" d="M467.042,77.227l0.9,1.2l0,0h0.3l0,0l2.3,1.3l0,0h0.4l1,0.2
	l0,0h0.399l0,0h1.801l0,0l1.899,0.8l6.2-2.2l1.4-0.1l2.399,2.1l4.9,7l2.3,0.5l1.8-0.2l0,0v2.3l-0.3,0.4l-0.1,11.4l0,0v4.9l0,0v0.3
	l0,0l-0.101,9l0,0v6.3l1.3,0.2l0,0v12.6l0,0v18.6v19l0,0v6.6l0,0v3.8l0,0v2.8l0,0l0,0l0,0l0,0l0,0v6.2l0,0v4.3l0,0l0.2,26.2l0,0
	l-0.1,14l0,0v0.2l0,0v12.6l0,0l0.1,13.4l0,0l-0.1,12.3v0.6l0,0l27,0.2l0,0h0.7l0,0h0.899l0,0h0.3l0,0l39.801,0.1l0,0l-3.301,2.1
	l-0.5,0.7l0.301,3.101l-1.2,4.3l-2.8,3.3l-0.7,1.5l0.6,6.8l2.101,6.7l0.399,2.1l-0.6,2.301l-1.601,4.5l1.7,5.899l0.9,5.7l-1.3,6.8
	l0,0l0.199,4.5l-0.5,12.7v3.9l0.5,3.699l-0.3,1.101l-2.6,4.8l0,0l-2.8,5.8l-0.601,1.8v3.9l-0.899,2.6l-1.2,2.2l-0.601,0.7l-4.1,1.9
	l-3.2,0.1l0,0l-4.899-0.4l0,0l-1.2,0.601l0,0l-4,2.399l0,0l-1.9,1.601l-1.3,2l-1.8,1l-4.5,2l-5.3,1.1l-2.301,2.9l-0.5,1.399
	l-3.199,4.101l-3,4.899l-2.801,3.5l-2.899,1.801l-0.7,1l-0.2,4.5l-0.7,2.399l-0.5,4.4l-0.3,1.3l-1.6,4.8l-1,6l-2.5,6.7l-2.8,5.6
	l-3.5,4.801l-0.9,1.699l-0.5,1.801l-0.4,4.1l-0.399,12.1l-0.7,2.301l-1,2.1l-2,1.7l-10.5,1.899l-1.7-0.199l-2.1-1l-4.4-3h-1.2
	l-8.5,5.8l-7.6,4.1l-20.1,13.4l-2.5,1.1h-3.5l-3.801-1l-11.6-4.8l-3-2.8l-3.6-4.4l-3.301-2l-10.3,4.2l-2.7,1.8l0,0l-0.6,3.4l0,0
	l-0.5,2.3l-0.9,2.2l-3.399,5.7l-4.5,3.899l0,0l-5.7,2l-8,1.7l-8.4,0.8l-8.3-0.6l-5.2-1.2l-4.8-1.5l-6.6-3.2l-3.9-1.399l0,0v-0.9
	l-7.7-5.6l-6.8-3.7l-3.6-1.101l-3.8-0.399l-21.8,3.3l-9,3.8l0,0l-5.4-0.899h-9.6l-7.4-1.7l-4.1,1.8l-6.9,5.4l-7.7,3.399l-4.8,1.5
	l-0.9,0.4l-3.9,1.8l-12,6.8l0,0l-2.4,2.101l-4.2,0.899l-6.3,2.2l-6.2,0.4l-2.5-0.4l-3-0.6l0,0l-2.1-0.5l-4.1-1.7l-1.3-1.2l0,0
	l-1.3-2.2l0,0l-3.7-6.399l-6-6.601l-7.5-2.3l-0.7-0.2l0,0l-4-1.2l-8.1-1.3l0,0l-7.9-1.3l0,0h-0.5l-4.1-0.7l-9.1-1.899l-13.6,3.5
	l-0.9-0.101l0,0l-4.2-12.6l-6.7-7.601l-12.8-19.6l-7.7-8l-1-1l-5.1-3.3l-18-11.9l-12-8l-20.4-7.6l-4.8-0.5l0,0l-2.4-4.601l0,0
	l1.8-0.1l0,0l28.5,0.4l0,0h0.4l0,0h7.1l0,0h0.3l0,0l9.4,0.199l0,0h1.9l0,0l27.6,0.301l1.2,0.1l10.2-0.1h4l3.7,0.1h0.9h1.6l2.1,0.2
	h3.4l0.6-0.101l9.8,0.101h1.5l0,0h0.8l0,0h3.7l0,0l10.6,0.1l0,0h0.4l11.5-0.1h0.8l0,0l-1.7-1.8l-0.7-2l1.7-2.7l1.4-2l-2.5-3.3h-1.1
	l-1.3,0.199l-0.9-0.3l-0.4-0.2l0.3-2.399l-1-1.2l-2.9,0.1l-1.6-1.8l-2.6-4.399l0.9-1.101l0.5-2.899l-1.7-3.601l0,0l4.1-1.3l-1.3-2
	l3.8-3.6l0.6-2l-0.5-4.5v-4.101l2.9-3l1.3,0.9l3.1-1.5l0.7-1.101l-0.5-1.399l-1.1-0.8l0.1-2.5l1.9-2l-0.1-2l-1-1.5l-0.6-4.601
	l-4-8.7l-1.7-0.699l-0.7-3.101l-2,0.3l-0.9-0.5l-0.4-2.3l0,0l0.8-3.3l0,0l1.8,0.2l1.4,1.399l2.1-0.1l1.2-1.3l2.9,0.2l0.8-1.9
	l-0.3-1.1l-0.1-0.5l0.9-1.5l-2.3-1.801l-4.2-0.699l-2.1,0.399l-1.7,0.3l-3-0.6l-2.7-2.9l0.3-3.199l2.9-6l4,1.1l4-0.4l2.1-0.6
	l1.1,1.1l5-0.1l-1.6-5.2l-2.5-2.899l-1.3-1l-4.8-9.7l-0.2-0.9l2.2-4l0.9-2.7l-0.9-0.399l0,0l-0.3-0.7l0,0l-0.3-4.6l0,0l-0.1-0.5l0,0
	l-0.2-0.301l0,0l-1.5-1.1l-1.5-4.2l0.2-0.7h4.9l0,0h0.8l0,0l0.4,0.1l0,0l2.9-0.1l0,0l1.1,0.1l0,0l7.6-0.2l10.6,0.1l0,0l20.7,0.2l0,0
	l25.3-0.2l0,0h1.6l0,0h19.9l-0.2-1.1l-2.1-1.1l1.9-4.2l1.3-1.5l0.9-0.2l0.5-2.1v-1.9l-1.1-3.4h-1.2l-3.4-8.2l-0.6-3.2l0.7-3.9
	l-2.5-6.7v-2.2l-1.9-2.5h-1l-5.6-13.8l-0.1-1l-1.9-3.2l0,0l-2.7-3.8l0,0l-4.1-4.8l-7.2-9.4l-0.2-1.3l0,0l-0.6-2.3l0,0l-4.9-4.8
	l-0.8-2.1l0,0l-0.4-1.7l-3.9-6.1l0,0l-0.6-6.9l0,0l0.4-3l0,0l1.5-9.7l2.1-5.5l5-18.5l1.4-2.1l2-7.8l2.2-4.2v-1.7l-1.5-1.5l0.6-12.2
	l1.9-3.2l0.1-1l0,0v-0.2l0,0l5.3,0.4l0,0l0,0l0,0l1.9-1.3l7.9-0.3l0,0l0.6,0.6l5.5,0.4l6.6-1.6l1.7-0.6l0.9-1.1h0.9l10.3,10.1
	l2.4,5.2l0,0l0.9,1.5l1.7,1.6l4.2,2.9l5.2,2.8l5.7,0.9l4.6-4.4l0,0l1.5-0.3l0,0h0.3l0,0l2.8-2.6l0,0l0.2-0.5l0,0l1.7-2.6l2.1-0.2
	l1.7-0.6l1.2-0.9l1.6-2.4l1.4-1.5l0,0l3.4-1.8l0.3-2.8l0,0l1-2.4l1.3-0.5l0,0l1.8-0.9l0.301-2l1.5-1.6l4.5-2.4l3.399-1l0.8-0.9l0,0
	l1.4-0.6h0.1l5.2-2.1l1.8-3.3l1.2-1.1l4.2,0.6l4,2l2.6,0.5l0,0l11.7,0.1l7.8-3l5.9-4.2l1.9-0.9l1.699-0.1l10.5,2.1l2.5-0.1l0.7-1.6
	l2.3-0.1l3.4,1.8l2.2,0.1l1.7,0.1l5.6,2l5.4,3.6l5.399,0.5l2,0.8l5.4,2l3.2-0.8l8.5-0.5l7,4l1.6-0.2l0.7-3.5l2.6-2.7l5.3-2l1.9,1.6
	l0,0l-0.1,2.8l0,0l0.8,1.5l1.399,0.3l4.601-3l3-0.6l0,0l3.6-1.1l0,0l1.9-0.9l5-5.2l0,0l0.5,0.1l0,0l0.1-0.2l0,0l0.101,0.1l0,0
	L467.042,77.227z"/>
</svg>
