<?xml version="1.0" encoding="utf-8"?>
<!-- Generator: Adobe Illustrator 16.0.4, SVG Export Plug-In . SVG Version: 6.00 Build 0)  -->
<!DOCTYPE svg PUBLIC "-//W3C//DTD SVG 1.1//EN" "http://www.w3.org/Graphics/SVG/1.1/DTD/svg11.dtd">
<svg version="1.1"
	 id="svg3477" sodipodi:version="0.32" inkscape:output_extension="org.inkscape.output.svg.inkscape" inkscape:version="0.46" sodipodi:docname="Sonbhadra_district.svg" xmlns:cc="http://creativecommons.org/ns#" xmlns:rdf="http://www.w3.org/1999/02/22-rdf-syntax-ns#" xmlns:dc="http://purl.org/dc/elements/1.1/" xmlns:svg="http://www.w3.org/2000/svg" xmlns:inkscape="http://www.inkscape.org/namespaces/inkscape" xmlns:sodipodi="http://sodipodi.sourceforge.net/DTD/sodipodi-0.dtd"
	 xmlns="http://www.w3.org/2000/svg" xmlns:xlink="http://www.w3.org/1999/xlink" x="0px" y="0px" width="1500px" height="1500px"
	 viewBox="0 0 1500 1500" enable-background="new 0 0 1500 1500" xml:space="preserve">
<defs>
	
	
		<inkscape:perspective  id="perspective3485" inkscape:persp3d-origin="372.04724 : 350.78739 : 1" inkscape:vp_z="744.09448 : 526.18109 : 1" inkscape:vp_x="0 : 526.18109 : 1" inkscape:vp_y="0 : 1000 : 0" sodipodi:type="inkscape:persp3d">
		</inkscape:perspective>
</defs>
<sodipodi:namedview  width="750px" id="base" inkscape:window-height="845" inkscape:window-width="724" inkscape:current-layer="layer1" inkscape:pageopacity="0.0" inkscape:pageshadow="2" inkscape:document-units="px" showgrid="false" inkscape:cx="750.00002" gridtolerance="10000" inkscape:zoom="0.41866667" pagecolor="#ffffff" borderopacity="1.0" objecttolerance="10" bordercolor="#666666" inkscape:cy="750.00002" guidetolerance="10" inkscape:window-y="0" inkscape:window-x="0">
	</sodipodi:namedview>
<g id="layer1" inkscape:label="Layer 1" inkscape:groupmode="layer">
	<path id="_x36_3._Sahranpur" fill="#0000FF" stroke="#A5A7A9" stroke-width="1.0025" d="M67.991,176.117
		c7.619,0.201,16.281-3.368,22.817,1.805c1.042,0.842,11.829,8.862,11.508,9.664c4.25-9.383,17.163-6.416,25.223-6.055
		c6.175,0.281,9.343-8.542,12.11-13.273c2.486-4.21,6.616-7.338,10.707-10.466c-7.378-3.97-6.336-15.959-7.258-22.977
		c-1.844-13.594-9.022-19.85,2.125-32.08c8.782-9.583,16.641-16.842,20.892-29.593c4.411-13.233,5.494-32.721,25.263-29.152
		c-23.418-13.714-50.285-16.481-67.888-39.779c-4.01,19.368-18.406,31.318-30.476,45.834c-5.654,6.777-10.586,14.355-12.431,23.097
		c-2.045,9.704-12.832,0-17.644,8.822c-3.89,7.098-4.612,15.078-13.313,16.762c-8.822,1.724-10.226,10.867-10.466,18.366
		c-0.281,7.779,0.361,15.358-4.13,22.175c-6.055,9.143-9.584,17.884-14.877,27.348C35.711,173.149,51.109,175.716,67.991,176.117"/>
	<path id="path5244" fill="#0000FF" stroke="#A5A7A9" stroke-width="1.0025" d="M44.533,260.246
		c4.531,2.807,8.06,7.539,13.353,8.982c7.539,2.085,14.596-3.208,21.694,0.882c4.611,2.646,6.295,8.421,11.709,7.138
		c7.098-1.644,13.995-4.21,21.132-5.734c15.198-3.248,17.604,10.025,30.275,12.391c13.433,2.526,25.984-1.163,37.774-6.978
		c6.135-3.007,11.508-3.127,17.884-0.722c12.03,4.571,13.554,0.241,5.975-8.782c-10.947-13.113-7.499-29.232-8.1-45.272
		c-0.281-7.899,1.203-9.624,3.569-15.759c2.566-6.656,3.89-15.959-1.604-20.21c-4.291-3.328-7.779-8.621-12.631-11.107
		c5.774-6.175,0.922-13.834,2.366-20.932c-9.624,1.684-18.807,6.015-28.711,5.774c-4.892-0.12-7.94-4.01-11.468,0.281
		c-3.649,4.411-4.772,2.326-8.181,8.06c-6.095,10.346-7.499,13.554-19.288,12.792c-6.536-0.401-14.877-0.441-18.045,6.577
		c2.366-6.015-21.092-12.511-24.18-12.23c-18.365,1.644-36.892-0.121-54.054-7.138c-13.032-5.333-15.719,24.942-17.443,34.846
		c-3.449,19.488-0.121,35.047,3.769,54.014C21.476,252.827,34.388,254.03,44.533,260.246"/>
	<path id="path5246" fill="#0000FF" stroke="#A5A7A9" stroke-width="1.0025" d="M196.269,210.482
		c-1.403,21.173-3.248,43.949,11.188,60.59c3.288,3.81,1.684,14.677,1.524,22.175c-0.201,8.34-1.002,16.481-3.409,24.5
		c25.624,0.682,48.2,8.501,74.024,2.968c8.702-1.885,20.451-1.363,24.34-9.424c2.406-4.972,3.047-8.14,2.927-13.594
		c5.895-1.684,8.662-6.295,10.145-11.709c2.326-8.541,5.213-19.648,12.551-25.343c3.328-2.606,7.378-4.21,11.589-4.732
		c6.536-0.842,4.25-5.895,9.784-6.857c9.183-1.604,37.413-5.133,18.807-17.563c-14.476-9.664-28.912-18.406-43.147-28.631
		c-9.664-6.938-19.569-14.356-26.105-24.501c-5.895-9.143-9.022-19.97-17.283-27.508c-7.819-7.098-14.355-6.616-23.539-2.967
		c-8.742,3.448-17.563,0.361-22.696,9.543c-4.892,8.782-14.716,8.14-19.448,15.759c-3.328,5.374-6.295,19.889-15.599,15.278
		C201.763,193.68,203.006,208.116,196.269,210.482"/>
	<path id="path5248" fill="#0000FF" stroke="#A5A7A9" stroke-width="1.0025" d="M322.142,271.152
		c-3.368,10.226-7.138,17.443-11.348,25.985c9.103-0.04,10.506,11.348,10.987,18.125c0.762,10.547,6.215,16.12,8.942,25.704
		c2.927,10.426-11.95,12.15-15.879,19.087c-5.454,9.664,0.561,19.408-13.754,21.975c-9.062,1.645-18.285,1.083-27.428,1.564
		c-6.375,0.32-0.481,31.719-1.203,38.135c-0.762,6.736-4.25,12.551-5.293,19.247c-1.523,9.785-0.922,8.461,6.296,13.675
		c8.742,6.335,13.554,15.237,25.142,16.48c12.11,1.323,21.534-4.13,33.083-5.854c5.453-9.824,9.624-11.869,21.212-11.228
		c6.897,0.4,9.704,2.847,11.789-5.173c1.043-3.93,0.201-8.461-0.601-12.311c-1.805-8.502-5.133-20.291-12.391-25.904
		c-3.007-1.003-3.689-3.288-2.125-6.978c-1.524-5.854,0.642-7.819,6.496-5.935c8.341-0.08,16.521,2.285,19.929-6.296
		c5.774-14.476,3.85-24.741-5.534-36.852c-6.375-8.221-7.138-18.485-3.489-28.23c2.246-5.975,7.138-5.132,10.065-11.027
		c2.847-5.733,5.453-12.069,10.346-16.44c-3.77,0.562-8.261,1.203-11.83-0.642c-6.737-3.529-2.406-10.386-9.022-13.233
		c-5.895-2.566-9.103-8.461-12.992-13.192c-5.253-6.376-11.91-6.216-8.18-16.12C335.174,255.313,325.35,261.288,322.142,271.152"/>
	<path id="path5250" fill="#0000FF" stroke="#A5A7A9" stroke-width="1.0025" d="M374.351,320.475
		c-12.591,0.04-10.586,24.621-6.095,31.238c11.148,16.4,13.955,26.064,5.454,45.071c-8.621,1.403-23.979-3.328-24.18,6.938
		c-0.161,7.378,4.371,8.1,7.819,14.355c5.574,10.105,11.869,26.706,4.25,37.213c10.266,2.245,9.704,3.729,18.687-1.324
		c6.055-3.408,12.631-5.533,18.767-8.661c13.393-6.897,28.551-18.566,38.776-29.594c7.138-7.698,3.81-19.809,11.268-28.189
		c4.571-5.133,9.984-9.223,14.035-14.837c4.611-6.336,8.02-14.436,14.957-18.687c-3.008-11.428-17.203-11.107-25.944-15.839
		c-5.975-3.208-11.429-7.259-17.523-10.266c-9.143-4.451-13.474-0.08-14.075-11.107c-0.562-10.306-3.689-17.443-14.797-18.927
		C386.02,295.172,382.812,305.277,374.351,320.475"/>
	<path id="path5252" fill="#0000FF" stroke="#A5A7A9" stroke-width="1.0025" d="M459.603,377.096
		c-6.736,7.538-14.636,12.631-16.882,23.138c-2.365,10.906-3.568,14.556-12.711,21.974c-8.582,6.978-16.722,14.557-26.146,20.371
		c-10.025,6.135-21.974,8.741-31.037,16.48c10.707,4.933,17.323,13.273,20.049,24.661c1.965,8.181,0.241,31.278,9.985,30.476
		c13.272-1.122,20.21-0.2,29.954,9.224c7.418,7.218,19.729-3.529,29.112-0.321c13.474,4.611-3.77,17.443,4.771,24.301
		c6.376,5.133,5.414,0.882,10.947-2.808c5.774-3.85,11.99-3.81,18.687-4.01c1.123-12.471,0.682-43.428,20.852-28.149
		c0.802-5.895,3.649-17.123-3.008-20.973c-1.483-10.225,4.171-15.237,11.068-21.653c4.13-3.85,8.02-7.899,6.696-13.874
		c-0.762-3.529-1.805-6.897-2.206-10.547c-3.568-0.16-8.06-1.363-9.183-5.333c1.444-4.291-0.08-5.814-4.611-4.611
		c-3.088-0.602-5.213-2.286-6.736-4.973c-4.371-7.579-9.704-9.062-7.499-18.847c1.805-8.06,6.216-15.197,7.899-23.298
		c1.725-8.421,0.04-17.242,3.449-25.343c-7.419-1.645-15.037-1.604-22.576-1.645c-9.664-0.12-10.065,1.163-12.271-7.378
		C469.628,359.171,466.059,369.878,459.603,377.096"/>
	<path id="path5254" fill="#FF0000" stroke="#A5A7A9" stroke-width="1.0025" d="M501.146,421.485
		c5.294,2.446,5.976,7.218,9.464,11.188c2.486,2.807,6.376,3.248,9.904,3.168c-0.962,4.25,0.923,7.618,5.053,8.941
		c17.283,5.454-0.802,24.742-6.938,31.238c-5.653,5.975-5.613,11.789-1.925,18.125c4.571,7.859-5.413,22.255,7.739,19.327
		c4.812-1.082,9.824-1.162,14.717-0.962c6.897,0.28,4.611,1.483,6.938,6.938c2.727,6.456,8.221,13.874,16.24,12.189
		c-0.802-19.568-3.77-58.265,23.658-62.354c10.667-1.604,17.203,6.336,26.346-2.526c7.058-6.816,15.238-14.275,23.298-3.368
		c3.248-12.311,19.368-0.04,20.771-15.759c0.842-9.344,0.04-20.251-11.669-21.013c1.243-7.338,3.008-14.716,6.136-21.533
		c1.483-3.288,3.328-6.416,5.533-9.303c-2.406-4.291-5.013-8.461-7.979-12.391c-7.379-9.664-6.737-13.675-19.048-8.942
		c-7.739,3.007-14.917,5.333-18.927,13.112c-3.448,6.696-3.77,11.549-12.15,11.509c-3.809,0-7.578-0.201-11.348-0.521
		c0.32-2.888,0.441-6.696-1.805-9.022c-2.566-2.646-6.616-1.965-9.784-3.248c-1.283-0.481-2.165-1.363-2.687-2.606
		c-1.845-4.651-7.419-3.288-12.15-2.165c-0.24-6.456,0.321-12.912,0.08-19.368c-4.973-1.123-10.104-0.923-15.117-0.241
		c-11.309,1.524-21.093,3.649-32.48,1.163c-3.449,8.101-1.725,16.962-3.449,25.343C507.201,399.551,499.422,409.616,501.146,421.485
		"/>
	<path id="path5256" fill="#FF0000" stroke="#A5A7A9" stroke-width="1.0025" d="M655.649,454.929
		c-5.213,4.09-12.271,0.401-17.403,4.05c-5.614,3.97,1.363,10.827,2.968,15.559c3.81,11.147,2.165,26.586-1.765,37.453
		c-5.373,14.837-22.255,10.707-21.373,29.914c0.441,9.704-1.243,8.902-9.584,12.792c-4.331,2.045-12.23,4.933-14.355,9.744
		c-0.281-2.646,0.682-4.771,2.807-6.336c-7.218,3.689-15.357,8.021-19.648,15.198c-6.055,10.064,1.523,18.525,5.373,27.588
		c1.725,4.051,2.085,8.421,2.246,12.752c6.656-0.401,13.393-0.481,19.93,0.922c12.471,2.606,21.212,11.389,31.799,17.765
		c0.842-9.864,6.456-16.682,15.117-20.852c7.979-3.85,17.523-12.992,23.498-4.692c4.491,6.256,10.266,10.867,18.005,5.896
		c3.008-1.925,5.093-5.173,4.893-8.862c7.298-0.642,14.556,0.602,21.733,1.765c8.421,1.363,20.05,4.21,27.549-1.444
		c7.819-5.895,13.554-10.746,24.14-9.423c9.464,1.163,18.365,5.453,26.906,9.423c4.011,1.885,8.021,3.81,12.15,5.414
		c6.897,2.687,6.176,11.067,7.419,17.684c14.074-32.962-3.409-67.327-21.253-95.116c-8.581-13.434-19.649-26.706-22.296-42.866
		c-3.007-18.365,6.336-36.37,16.481-51.047c6.978-10.064,6.536-10.746-1.003-20.41c-4.491-5.774-9.584-11.107-15.317-15.68
		c-13.354-10.586-29.192-15.397-45.674-18.726c-18.165-3.649-37.894-5.734-55.778,0.36c-18.445,6.296-25.423,25.223-28.391,42.826
		C659.859,427.541,656.652,444.543,655.649,454.929"/>
	<path id="path5258" fill="#FF0000" stroke="#A5A7A9" stroke-width="1.0025" d="M794.073,527.95
		c15.639,23.778,32.801,52.931,28.831,82.564c-1.965,14.877-7.779,20.531,4.01,33.363c8.702,9.463,8.421,18.807,9.022,31.037
		c0.481,9.944,7.699,17.362,8.021,25.183c0.36,8.14,5.373,7.859,3.648,15.999c-1.684,8.101,1.123,7.659,7.339,9.464
		c11.508,3.408,13.554,13.272,13.152,24.06c-0.2,5.213-0.882,10.386-1.083,15.559c-0.4,9.544,9.103-4.771,12.19-6.978
		c8.461-6.055,26.827-16.802,24.821-29.473c-1.925-12.03-1.122-20.251-6.135-32.2c-3.048-7.258-13.594-25.543-8.742-33.362
		c6.256-9.985,18.727-19.088-1.644-19.89c-8.621-0.361-5.333-9.022-6.777-16.401c-1.363-6.977-3.608-13.754-6.456-20.25
		c-2.365-5.333-2.927-11.709-6.496-16.44c-3.127-4.171-8.02-6.817-8.14-12.511c-0.2-7.9,8.581-4.331,14.677-4.612
		c2.285-4.571,5.773-8.581,9.303-12.23c9.103-9.463,18.967-16.801,32.44-17.563c-10.907-33.202-27.107-64.439-45.353-94.193
		c-14.957-24.381-34.405-47.237-65.924-37.012c1.443,0.562,2.526,2.125,3.97,2.767c-14.034,17.644-30.114,36.21-34.164,59.146
		C770.896,494.828,783.286,511.549,794.073,527.95"/>
	<path id="path5260" fill="#00FF00" stroke="#A5A7A9" stroke-width="1.0025" d="M874.312,573.143
		c-7.259,0.32-17.685-3.329-14.235,7.658c1.604,5.093,7.538,8.021,9.744,13.032c3.167,7.259,5.854,15.318,8.3,22.817
		c1.645,5.052,2.808,10.225,3.489,15.519c0.922,6.937-2.406,10.786,5.935,11.107c24.741,1.002,2.566,11.107,0.922,21.733
		c-2.325,15.078,11.269,33.644,15.158,47.879c18.365-17.162,25.303,12.512,40.46,10.587c12.592-1.604,7.659-28.632,8.261-36.812
		c10.987,0,44.27,25.102,37.373-3.93c-1.604-6.857-7.98-11.067-14.075-13.594c-5.133-2.126-8.261-0.481-8.261-6.978
		c0.04-4.771,1.203-9.544,2.928-13.995c6.416-16.681,21.854-23.538,29.393-38.776c7.819-15.799,27.268-11.869,42.104-11.468
		c7.459-4.812,5.654-8.541,2.606-17.403c-3.368-9.784-9.504-18.325-17.724-24.621c-16.602-12.672-37.895-12.592-57.823-11.789
		C933.739,545.594,893.6,534.566,874.312,573.143"/>
	<path id="path5262" fill="#00FF00" stroke="#A5A7A9" stroke-width="1.0025" d="M1039.883,597.884
		c-10.546,0-26.947-3.489-35.568,4.451c-4.25,3.93-5.613,10.064-8.661,14.796c-3.85,6.016-11.107,8.822-15.639,14.316
		c-5.374,6.496-20.812,32.279-8.381,36.25c14.837,4.771,21.693,14.636,15.799,29.834c14.035,2.807,15.157,17.764,25.183,25.303
		c-23.619,14.836,6.978,23.498,15.559,31.839c6.176,6.015,13.514,8.06,21.133,2.446c6.376-4.692,5.935-18.286,11.789-18.206
		c-1.885-15.277-1.323-29.553,9.183-42.104c10.747-12.791,30.075-5.493,44.229-6.375c-2.847-4.652-2.525-10.467-1.604-15.6
		c1.363-7.498,5.935-5.935,9.584-11.949c4.571-7.499,4.571-17.483,10.987-23.939c-0.04,0.882-0.04,1.805-0.08,2.687
		c4.33-5.093,10.345-8.14,16.962-9.103c8.02-1.163,5.975-7.539,2.486-14.275c-5.734-11.067-17.925-18.245-29.313-22.335
		c-14.917-5.374-29.393-1.925-44.711-1.283c-7.138,0.28-14.195-0.883-21.333-0.843
		C1051.111,593.873,1045.537,597.884,1039.883,597.884"/>
	<path id="path5264" fill="#00FF00" stroke="#A5A7A9" stroke-width="1.0025" d="M1133.355,641.632c0-0.882,0.04-1.765,0.08-2.687
		c-6.416,6.456-6.416,16.44-10.987,23.939c-1.925,3.168-4.732,5.574-8.381,6.576c-1.725,6.576-3.409,14.717,0.4,20.973
		c-21.653,1.323-40.62-6.737-50.966,18.044c-4.491,10.747-3.85,19.208-2.446,30.436c9.944,0.161,18.606,4.531,23.218,13.514
		c2.566,4.973,0.922,9.384,7.298,8.421c5.975-0.922,10.586-2.847,16-5.373c10.826-5.053,19.327,3.568,27.909,9.103
		c9.103,5.854,20.25,6.978,29.232,13.273c4.411-2.006,9.504-2.486,14.315-2.566c6.296-0.121,8.461-4.973,15.318-5.574
		c-3.649-11.349,1.684-13.152,6.015-21.774c5.213-10.426,1.725-21.854,13.634-28.631c6.296-3.608,16.08-5.253,19.087-12.752
		c3.369-8.3,0.401-20.771-3.688-28.27C1215.8,653.662,1158.778,611.798,1133.355,641.632"/>
	<path id="path5266" fill="#FFFF00" stroke="#A5A7A9" stroke-width="1.0025" d="M1296.921,666.373
		c-23.659,0.923-63.598-11.067-62.956,26.867c0.36,22.335-13.995,16.962-25.744,30.636c-6.777,7.859-3.288,19.368-9.824,26.827
		c-2.166,2.485-10.827,19.287-3.168,18.927c-3.609-12.271,32.962-5.093,38.255-4.651c0.16,8.501-1.725,17.604,7.579,21.693
		c9.463,4.131,19.408,6.456,28.35,11.91c7.339,4.45,6.376,3.448,13.995-1.484c5.574-3.648,11.95-5.975,17.765-9.183
		c11.588-6.296,11.909-15.037,17.122-25.784c3.088-6.376,8.02-6.456,8.461-13.874c0.401-6.456,1.123-12.952,4.571-18.606
		c4.17-6.776,13.995-4.21,19.088-10.947c-16.281,0.361-17.645-19.328-18.687-31.197c-0.361-4.13-1.725-27.669-5.614-27.949
		C1315.808,658.835,1307.066,665.973,1296.921,666.373"/>
	<path id="path5268" fill="#FFFF00" stroke="#A5A7A9" stroke-width="1.0025" d="M1346.243,722.874
		c-9.704,4.771-15.438,2.526-18.365,15.519c-1.604,7.218,0.521,12.671-5.053,17.604c-4.973,4.33-6.256,10.867-8.301,16.802
		c-4.972,14.476-19.488,16.722-31.117,24.26c-4.812,3.128-11.949,5.494-4.25,9.223c3.93,1.925,4.53,8.381,4.972,12.11
		c1.243,10.586,1.443,20.13,4.091,30.596c7.418-0.602,14.837,0.161,22.215,0.682c3.649,0.321,7.258,0.481,10.907,0.481
		c8.381,0,3.97-1.885,7.298-7.458c10.787-18.045,40.501,23.778,46.234,28.911c10.105,9.062,21.373-0.16,33.885,0.441
		c9.263,0.441,38.455,7.979,43.228-4.291c2.205-5.693-4.411-10.265-9.144-10.826c-2.767-0.201-5.533-0.201-8.3,0
		c-6.697,0.24-2.086-2.246-5.614-6.176c-1.604-1.644-3.609-2.366-5.935-2.125c-1.163-3.689-1.845-7.459-2.086-11.309
		c-0.802-10.987,4.011-18.525-9.303-18.245c-12.832,0.241-30.676,0.842-33.002-15.799c-1.403-10.025,5.895-26.947-4.571-33.804
		c-10.827-7.098-12.11-4.171-12.07-18.125c0.04-12.07-12.871-20.251-11.268-32.682
		C1351.216,718.663,1346.123,722.914,1346.243,722.874"/>
	<path id="path5270" fill="#FFFF00" stroke="#A5A7A9" stroke-width="1.0025" d="M1356.148,850.149
		c-5.534-4.17-18.366-15.519-25.744-9.423c-1.524,1.403-2.526,3.087-3.008,5.133c-1.885,6.455-4.852,4.571-11.429,4.25
		c-9.223-0.441-18.485-1.765-27.748-1.043c1.884,7.339,8.38,29.112-2.206,33.243c-10.306,4.01-24.621,1.563-22.576,17.884
		c2.005,16.12,17.043,10.867,27.107,20.251c4.451,4.13,8.501,9.062,11.389,14.396c4.531,8.461-0.842,8.781-4.051,16.36
		c7.098-1.042,10.747-10.266,18.807-11.829c8.542-1.685,15.56,3.609,20.051,10.386c8.701,13.112,28.229,28.351,45.433,22.736
		c-4.491-4.21-8.301-8.982-10.386-14.797c9.543,0.762,36.25-3.048,36.37-16.12c0.04-5.253-1.965-14.556-5.294-18.807
		c-3.969-5.093-13.473-3.088-19.007-4.611c-11.829-3.288-34.405-8.501-25.503-25.383c3.528-6.656,11.027-5.413,17.162-6.857
		c5.374-1.283,6.496-5.493,10.226-8.821C1371.146,874.089,1366.935,858.29,1356.148,850.149"/>
	<path id="path5272" fill="#FFFF00" stroke="#A5A7A9" stroke-width="1.0025" d="M1362.523,971.05
		c-7.258-4.331-13.714-10.266-21.613-13.434c1.123,2.606,2.085,5.253,2.847,7.979c-6.376,0.401-11.749,0.521-15.839,5.854
		c-5.654,7.419-8.702,8.822-16.882,12.512c-4.531,2.045-6.657,12.431-2.246,15.599c5.654,4.05,14.517,0.842,15.519,10.907
		c1.243,12.23-13.874,14.155-1.604,23.979c8.341,6.696,18.365,9.864,27.789,14.556c5.413,2.687,8.221,6.176,9.383,12.11
		c2.446,12.351,6.256,24.861,8.061,37.292c6.336-2.606,14.115-2.565,17.443-9.583c2.727-5.734,1.283-13.674,7.258-17.443
		c8.421-5.334,23.298,0.16,21.493,11.428c11.147,1.323,13.914-9.423,23.258-12.551c12.03-4.09,23.778,5.614,35.488,6.656
		c21.212,1.885,26.866-21.333,7.418-29.594c-24.06-10.225-46.676-22.495-69.132-36.169c-11.428-6.978-9.022-19.689-18.205-28.912
		c-4.25-4.25-8.541-10.306-14.516-8.781C1372.909,974.899,1367.576,974.057,1362.523,971.05"/>
	<path id="path5274" fill="#0000FF" stroke="#A5A7A9" stroke-width="1.0025" d="M1343.035,1045.675
		c-9.944-4.251-19.729-9.143-26.786-17.563c-5.293,8.661-12.992,4.651-22.015,2.085c-8.381-2.366-16.16-2.205-24.741-1.523
		c-5.734,0.44-11.95,1.082-17.083,3.85c-8.661,4.651-3.007,12.029-15.639,9.223c1.403,7.579-23.338,0.521-29.232,8.581
		c15.719,9.904-14.436,24.822-24.06,23.939c0.962,5.013,2.687,22.416-3.008,22.456c4.772,4.731,3.448,6.055,10.266,4.852
		c6.416-1.122,12.992-1.363,19.328,0.241c7.178,1.844,13.072,6.336,20.33,7.939c6.978,1.523,14.235,1.523,21.213,3.048
		c29.994,6.456,23.138,29.152,26.306,52.089c14.034-7.298,25.383-16.04,40.62-21.092c17.765-5.896,19.328-19.208,29.874-32.4
		c4.531-5.654,10.988-7.259,16.401-11.229c6.296-4.651-0.963-17.523-2.606-24.901
		C1358.474,1058.867,1359.557,1052.732,1343.035,1045.675"/>
	<path id="path5276" fill="#0000FF" stroke="#A5A7A9" stroke-width="1.0025" d="M1262.074,1116.651
		c-11.428-6.336-24.901-4.011-36.892-8.341c-14.476-5.253-23.578-9.304-39.337-5.694c0.962,1.363,5.975,1.845,7.859,1.483
		c0.16,2.808,1.523,5.173,3.488,7.098c3.408,3.408,9.263,5.935,9.784,11.349c0.642,6.496-4.451,11.509-9.824,13.994
		c-7.138,3.288-9.944,13.875-15.559,14.275c8.341,6.376,30.957,43.949,12.671,45.514c-8.18,0.722-5.814,4.531-5.493,12.229
		c0.24,6.176,0.842,12.311,0.682,18.486c-0.12,4.611-1.443,9.464-0.401,14.075c1.203,5.453,6.216,9.463,6.136,15.277
		c-2.968,0.081-5.774,0.722-8.501,1.845c8.421,9.985,17.242,19.649,31.117,20.17c11.509,0.401,25.303-3.488,35.969,2.246
		c-10.666-9.704-10.546-29.754-14.836-42.786c-5.654-17.323-2.086-36.731,6.295-52.651c3.168-5.975,7.699-11.228,14.115-13.834
		c4.611-1.885,9.624-2.526,14.235-4.491c6.736-2.847,3.448-5.935,3.569-12.351
		C1277.553,1138.545,1277.753,1125.353,1262.074,1116.651"/>
	<path id="path5278" fill="#0000FF" stroke="#A5A7A9" stroke-width="1.0025" d="M1203.168,1274.282
		c-7.779-5.293-13.353-19.208-22.375-12.792c-1.604-10.386-9.264-14.355-19.128-12.952c-12.149,1.725-20.771,4.251-33.402,1.845
		c-9.584-1.845-8.582-1.323-12.712,5.774c-2.205,3.85-5.814,6.616-9.864,8.301c-9.183,3.85-21.013,3.208-29.834-1.363
		c-0.763,7.178,0.762,14.877-2.606,21.613c-2.928,5.814-6.456,9.664-6.697,16.602c9.424,0.602,25.504,2.446,31.92-6.536
		c11.789-2.086,18.887,3.488,19.729,14.756c3.85,4.812,20.731,4.732,14.315,16.802c-3.85,7.218-15.317,6.536-21.533,3.529
		c-0.682,6.616-4.691,20.852,5.774,18.927c0.24,6.096-0.281,12.23-0.08,18.325c3.448-0.08,7.619,0.521,9.664,3.689
		c7.098,10.987-8.021,29.634-11.027,40.02c-0.923,3.208-1.484,6.456-1.765,9.744c-4.531-1.003-9.424-1.363-9.584,3.97
		c-0.16,5.935,11.829,9.544,14.637,16.44c2.085,5.133-1.163,14.315,7.458,13.795c-1.123,7.819,5.093,10.666,11.709,11.789
		c4.893,0.842,12.471-0.2,13.875,4.852c1.523,5.494,6.816,8.742,11.829,10.587c12.15,4.531,27.629,4.651,40.06,1.082
		c17.604-5.092,7.939-21.132,13.554-33.402c3.087-6.817,10.626-1.645,11.107-9.143c0.481-7.699,10.266-5.694,15.358-5.975
		c-1.283-9.144-12.472-15.6-3.208-24.341c5.533-5.213,16.962-7.939,9.904-17.443c-9.424-12.712,4.01-16.682,5.895-27.669
		c1.203-7.018-15.237-24.22-0.04-26.946c21.533-3.89,27.308-28.391,13.514-44.351c-6.136-7.098-15.519-15.077-25.143-15.799
		C1231.398,1277.049,1214.797,1282.182,1203.168,1274.282"/>
	<path id="path5280" fill="#0000FF" stroke="#A5A7A9" stroke-width="1.0025" d="M1067.472,1295.254
		c1.283-3.85,3.97-6.977,5.774-10.546c3.368-6.736,1.844-14.436,2.606-21.613c7.939,4.09,18.044,4.892,26.626,2.485
		c9.463-2.686,13.754-16.681,20.571-15.999c13.272,1.363,22.375,2.285,35.447-0.481c10.667-2.245,20.451,0.281,22.296,12.391
		c4.13-2.927,9.263-5.012,14.396-5.093c0.08-9.022-7.098-14.716-6.095-24.781c0.561-5.654,0.32-11.268,0-16.962
		c-0.481-8.061-3.971-17.563,5.172-18.325c9.865-0.843,6.136-14.917,3.449-22.857c-2.085-6.095-9.424-21.935-16.922-22.616
		c0.04,5.213,3.85,9.184,4.731,14.195c-7.899,2.526-15.479-3.769-23.338-0.44c-6.256,2.646-10.747,8.821-17.483,10.506
		s-10.346-3.288-13.394-8.261c-4.05-6.536-9.744-8.461-17.202-8.621c-3.288,0.16-6.536-0.321-9.664-1.323
		c-7.739-2.848-3.088-1.885-8.02,2.285c-3.811,3.248-10.627,1.965-15.158,1.925c-7.619-0.04-15.559,2.286-23.098,0.682
		c-9.423-2.005-15.959,0-25.102-0.561c-6.416-0.361-31.358-12.592-25.544,4.531c3.328,9.784,15.519,14.436,21.373,22.535
		c9.183,12.672-3.85,21.373-12.952,28.471c-14.757,11.549-15.519,33.403-30.596,45.754c8.781-0.682,6.176,3.85,6.215,11.549
		c7.9,0.682,15.88,0.32,23.739,1.002c0.28,7.459-0.44,14.917-0.16,22.376c4.331,0.24,8.661,0.481,12.992,0.762
		c0.04,4.331,0.04,8.661,0.08,12.992c8.541-1.443,9.183,10.266,16.842,8.461c0.882-6.616-1.563-13.112-0.44-19.688
		c3.328-0.04,6.656,0.08,9.984,0.36C1063.862,1301.028,1064.584,1303.996,1067.472,1295.254"/>
	<path id="path5282" fill="#0000FF" stroke="#A5A7A9" stroke-width="1.0025" d="M1001.066,1241.561
		c3.93-8.821,6.857-18.565,14.797-24.781c6.496-5.093,15.117-9.183,16.04-18.405c1.323-12.992-15.398-19.649-22.095-28.351
		c-3.288-4.25-4.611-10.426,0.922-13.554c3.529-2.005,6.978-9.143,10.667-13.152c4.13-4.451,1.644-13.153,7.538-15.84
		c10.947-5.012-0.762-12.791-4.451-20.05c-5.092-10.024,2.206-18.405-7.458-26.906c-7.018-6.176-13.955,0.722-20.571-3.328
		c-5.453-3.328-7.418,0.521-12.029-5.654c-4.893-6.576-9.062-12.592-16.441-16.722c-7.979-4.451-17.122-4.371-25.984-4.491
		c-7.338-0.12-17.042-5.935-23.699-1.082c-6.335,4.651-10.064,13.754-13.152,20.731c-4.531,10.185-13.152,4.771-20.932,9.183
		c14.436,2.566,12.591,18.285,26.626,19.889c9.103,1.043,18.005,3.329,27.067,4.572c3.729,0.561,7.498,0.802,11.268,0.762
		c0.562,4.25,0.361,8.581-2.085,12.271c-1.283,2.807-3.408,4.29-6.416,4.45c-5.293,0.321-4.13,4.411-6.656,7.699
		c-3.529,4.611-2.687,6.737-8.982,8.261c-8.101,1.965-17.002-1.042-25.263-0.32c-10.186,0.882-21.173,2.727-31.117,5.093
		c4.05,11.188,5.493,23.297,4.29,35.127c7.9-0.883,19.729-1.604,21.053,9.062c1.002,8.26-5.213,15.559-4.371,23.738
		c14.275,1.163,19.89-4.531,27.429,9.584c5.854,10.907,22.095,5.854,31.839,6.697c6.816,0.602-3.89,31.036,10.666,36.29
		C978.932,1269.391,993.488,1258.604,1001.066,1241.561"/>
	<path id="path5284" fill="#00FF00" stroke="#A5A7A9" stroke-width="1.0025" d="M868.778,1141.954
		c-8.221,1.925-13.874,5.253-21.895,0.602c-6.336-3.689-11.709-9.584-19.208-10.907c-13.714-2.446-23.217-5.814-31.438-17.645
		c14.235-6.455-4.531-15.959-11.709-17.442c-10.947-2.286-12.632-7.739-14.396-18.045c-0.361,6.416-1.484,12.952-4.011,18.927
		c-2.887,6.736-9.623,9.664-12.471,15.519c-5.814,11.989-21.813,14.717-32.601,21.373c-11.709,7.258-11.349,18.767-10.747,31.438
		c0.321,6.616,1.443,12.029,5.734,17.402c6.176,7.699,13.193-0.2,13.995,12.271c1.684-3.128,2.085-7.178,1.805-10.666
		c4.812-0.16,9.623-0.08,14.436,0.401c-1.323,4.892-5.895,5.293-8.101,9.503c-2.045,3.93-1.443,8.581-1.684,12.792
		c-0.682,10.186-2.566,20.451-8.341,29.032c8.701,2.526,13.874-5.173,20.972-8.341c6.938-3.128,7.779,2.245,14.355,3.608
		c14.477,2.968,29.834,0.722,44.431,0.12c-5.053-11.188,4.731-18.565,8.822-27.908c2.245-5.093,1.283-10.146-2.005-14.597
		c2.165-2.005,4.731-2.927,7.698-2.727c6.938,0.16,4.291,4.491,5.734,9.944c3.97-7.098,9.664-14.235,18.887-11.549
		c0.321,8.742,7.779,17.083,17.083,16.12c-1.524-8.501,6.376-14.837,3.648-23.618
		C879.646,1177.121,871.705,1150.134,868.778,1141.954"/>
	<path id="path5286" fill="#00FF00" stroke="#A5A7A9" stroke-width="1.0025" d="M712.711,1141.593
		c8.862-15.117,33.122-12.631,40.901-28.671c3.609-7.459,11.309-10.787,14.075-19.93c1.323-4.331,6.095-23.178-3.008-23.618
		c-7.218-0.361-4.972,6.616-10.064-1.323c-2.166-3.409-4.893-6.537-8.261-8.822c-7.098-4.853-15.92-4.933-24.22-4.933
		c-17.043,0.04-42.947-1.764-51.608-19.688c-2.847-5.854,3.048-7.579,5.253-11.949c4.852-9.705-24.701-7.139-30.636-7.579
		c-8.501-0.642-15.519,7.258-21.895,13.312c-5.694,5.374,1.243,12.431,4.331,17.443c4.892,7.94,4.972,17.123-0.963,24.541
		c-2.847,3.529-6.536,6.336-10.506,8.541c-5.774,3.208-4.691,4.651-5.895,10.987c-2.085,10.827-4.893,12.23-13.193,18.847
		c-4.932,3.931-7.418,24.661-1.363,26.667c0.08-4.772,7.98-7.619,11.429-8.942c6.536-2.486,15.438-7.098,15.919,1.483
		c0.763,12.551,16.241,30.235,28.311,34.727c2.246,13.312-10.947,13.994-16.762,22.616c-5.253,7.819,6.096,7.538-0.36,15.357
		c-5.013,1.925-13.714,5.935-14.677,11.629c3.85,0.441,7.699,0.521,11.589,0.2c5.093,0.883,7.018-1.002,5.734-5.573
		c1.604-5.814,8.14-8.782,13.714-6.978c10.386,3.328,0.602,20.13,8.341,20.651c8.741,0.602,8.782-10.306,8.02-16.28
		c-0.44-3.529-1.243-7.138-2.566-10.466c4.211-3.208,12.271-4.933,14.837,1.323c5.414-11.869,8.381-8.181,13.634,1.082
		c3.93,6.897,15.8,3.209,22.015,3.81c-1.042-7.618-11.869-13.513,3.97-13.353C710.426,1175.838,705.012,1154.745,712.711,1141.593"
		/>
	<path id="path5288" fill="#0000FF" stroke="#A5A7A9" stroke-width="1.0025" d="M594.578,1111.839
		c2.445-5.213,9.103-5.694,12.391-10.386c2.165-3.088,2.566-8.1,3.248-11.629c1.203-6.336,0.12-7.739,5.895-10.987
		c5.133-2.847,9.984-6.776,12.792-12.029c6.576-12.11-2.728-20.772-7.419-31.237c-3.648-8.141,13.273-16,17.523-21.133
		c-11.147-1.363-19.007-5.494-25.623-14.797c-2.968,8.301-5.414,13.112-12.512,4.852c-4.21-4.932-6.576-11.388-8.3-17.563
		c-2.126-7.659,0.28-13.192-8.141-13.513c-8.741-0.321-17.042-3.529-22.776-10.266c-1.885,3.769-5.414,2.485-9.304,2.566
		c1.925,11.188,6.256,24.741,0.161,35.407c-8.982,15.72-21.053,8.341-33.925,4.531c-6.978-2.045-14.396-2.085-21.613-1.885
		c-3.649,0.12-7.338,0.201-10.987,0.281c-8.902,0.08-4.852,4.01-5.935,11.428c-1.323,9.184-26.506,15.198-35.488,13.835
		c-0.28,8.781-1.604,17.443-1.563,26.265c0.04,5.854,0.24,11.709,0.08,17.523c-0.201,8.421,1.243,5.614,8.301,7.98
		c18.646,6.175,35.889,14.917,56.139,9.944c19.81-4.852,28.912-12.23,47.919,0.642c12.11,8.221,28.752,24.22,23.619,40.581
		c4.972,0.2,9.984,1.162,14.756,2.606C592.653,1127.639,591.37,1118.736,594.578,1111.839"/>
	<path id="path5290" fill="#0000FF" stroke="#A5A7A9" stroke-width="1.0025" d="M577.736,1116.41
		c-8.782-19.93-33.563-38.856-55.578-30.636c-13.834,5.173-25.864,8.181-40.741,5.373c-13.394-2.526-25.183-10.104-38.576-12.271
		c-0.842,11.629-8.06,18.326-11.428,28.832c-2.566,8.02-15.318,5.935-13.153,18.365c1.725,9.784,19.288,6.897,20.211,15.438
		c1.122,10.506,13.834,7.458,21.172,8.101c2.005,11.588-45.553,43.668-13.393,48.801c1.122-5.854-5.494-13.394,1.965-17.203
		c7.058-3.608,15.317,0.682,22.656,0.401c-0.562-4.893,0.722-13.794,7.779-9.824c2.687,1.523,4.731,4.13,6.095,6.856
		c2.606,5.213,5.975,4.01,11.749,4.251c11.188,0.441,22.376-0.2,33.523-0.682c7.859-0.361,5.253-3.649,5.493-10.587
		c0.481-12.791,1.243-20.09,14.075-16.32c10.827,3.168,30.877-10.626,23.619-22.776
		C582.228,1131.007,581.425,1124.831,577.736,1116.41"/>
	<path id="path5292" fill="#0000FF" stroke="#A5A7A9" stroke-width="1.0025" d="M430.53,1112.08
		c0.923-8.902,7.819-15.158,10.667-23.298c4.21-11.95,1.563-26.506,1.885-38.937c0.24-9.705,6.616-19.77-4.812-21.534
		c-12.791-1.965-26.345-0.521-38.856-2.967c-16.24-3.208-11.989-24.862-24.861-29.313c-8.942-3.087-19.729,1.645-27.027-5.613
		c-5.213,3.408-12.551,23.057-13.473,29.633c-3.489-3.207-7.418-3.889-8.982,1.243c-1.684,5.454,1.765,12.993-4.411,13.514
		c-0.361,8.061,10.186,13.193,8.902,21.373c-1.805,11.829-19.368,4.732-26.426,10.426c-9.664,7.779-18.486,7.779-30.476,6.136
		c-9.463-1.323-23.338-3.529-25.062,9.143c-1.002,7.539,4.01,18.445-6.978,16.28c-15.839-3.128-12.992,8.661-13.714,20.491
		c-0.441,7.138-1.363,14.917,1.042,21.813c1.283,3.689,3.89,6.697,7.94,7.339c5.293,0.842,6.977,7.619,8.22,13.272
		c12.631,0.923,23.859,1.363,36.009-2.767c-0.16-11.869-3.007-21.533-16.04-22.696c-5.654-0.481-19.328-4.933-6.978-8.101
		c13.073-3.328,12.752-18.887,25.624-21.894c8.421-2.005,12.712,2.727,13.834,10.746c0.922,6.536,14.716,7.94,17.724,0.562
		c1.243-3.088,1.523-6.696,1.845-9.944c10.265,1.202,10.466-0.321,10.827-9.704c0.281-7.419,5.895-4.732,11.468-8.942
		c4.652-3.489,8.662-7.779,14.195-9.985c4.973,8.101-5.093,12.752-5.614,20.291c-0.562,8.18,7.098,14.235,7.338,22.255
		c-6.697,0.281-15.158,0.321-20.451,5.133c-8.982,8.141-2.326,15.037,5.013,19.93c1.684-6.938-0.602-13.434,7.899-14.275
		c8.461-0.882,6.817,5.133,5.253,11.348c-1.203,4.772-4.491,8.061-8.862,10.146c-1.804,5.333-0.481,12.992,6.295,7.499
		c4.772-3.89,3.208-5.694,9.704-8.381c3.569-1.484,10.065-3.97,12.19,1.122c1.444,3.489-1.002,7.139,0.04,10.667
		c1.404,4.771,5.895,2.687,4.772,9.624c5.734,0.24,10.266-3.729,15.879-4.131c6.496-0.521,12.591,3.85,18.887,4.812
		c9.864,1.563,11.87-1.805,11.228-11.107c4.371-0.441,4.131-5.534,3.649-8.702C423.674,1141.513,406.672,1114.325,430.53,1112.08"/>
	<path id="path5294" fill="#0000FF" stroke="#A5A7A9" stroke-width="1.0025" d="M244.068,1161.121
		c0.08,1.765,0.12,3.489,0.201,5.253c-6.617-1.403-9.022,2.848-11.99,7.739c-1.203,1.965-2.767,3.81-5.173,4.251
		c-5.013,0.882-3.168,4.411-3.449,9.384c-0.802,13.754-16.601,39.618-34.165,35.207c-1.323,12.872,11.429,30.476,15.639,42.265
		c2.606,7.258,5.333,15.479,4.371,23.298c-0.962,7.899-10.426,9.103-10.065,15.238c0.602,9.984,12.391,8.18,19.047,11.468
		c8.622,4.251,8.381,14.477,7.338,22.656c-0.602,4.571-1.524,9.062-2.005,13.634c-0.802,7.699,3.048,6.656,10.186,7.619
		c8.662,1.123,5.454-6.978,7.539-13.232c1.845-5.534,5.614-9.704,10.386-12.953c2.486,13.273,20.852,5.574,26.506,16.602
		c4.972,9.704,2.526,25.343,16.802,27.067c-2.807-16.36,21.453-11.067,20.491,1.885c10.546-3.048,17.965-12.03,27.829-16.4
		c8.982-3.971,3.248-18.406,14.516-23.859c-3.689-4.451-6.616-9.664-11.067-13.474c-3.328-2.847-12.952-5.013-6.737-10.907
		c1.845-1.483,3.97-2.005,6.336-1.563c0.561-3.569,1.042-7.138,1.403-10.707c0.201-6.256-3.007-8.341-6.576-12.591
		c-4.291-5.133-1.524-7.379-10.306-5.333c-5.895,1.403-11.549,3.85-17.684,3.93c-8.501,0.16-4.291-9.945-3.127-15.88
		c1.724-8.821,4.21-17.644,4.491-26.666c0.481-14.917-5.173-14.035-15.919-18.967c-8.1-3.729-6.255-15.078-5.935-22.176
		c0.361-7.699,1.403-16.36-1.083-23.819c-0.842-2.605-2.406-5.092-5.173-5.975c-1.524-0.44-3.088-0.44-4.612-0.12
		c-2.165-4.852-1.965-10.466-2.045-15.639C267.927,1162.484,256.699,1162.044,244.068,1161.121"/>
	<path id="path5296" fill="#0000FF" stroke="#A5A7A9" stroke-width="1.0025" d="M370.782,994.949
		c13.273,3.408,11.188,17.443,20.09,26.145c6.256,6.096,15.398,4.571,23.298,4.731c9.984,0.201,20.611,1.243,30.355,3.449
		c9.223,1.403,16.602-2.606,24.901-5.814c6.056-2.326,9.504-0.241,10.627-8.021c1.083-7.418-2.968-11.348,5.935-11.428
		c10.787-0.08,22.055-1.484,32.601,1.604c7.579,2.246,14.997,8.261,23.178,4.812c13.915-5.895,21.293-44.15,5.293-44.792
		c-22.536-0.922-26.506-19.448-43.468-29.272c-13.032-7.578-26.906-17.282-27.348-32.962c-13.152-1.082-26.104-3.81-38.937-6.696
		c-6.015-1.363-12.03-2.847-18.125-3.77c-4.211-0.602-12.552,1.965-11.107-3.528c-8.181,0.12-17.484-3.609-17.965,5.774
		c-0.401,7.338-1.965,14.516-2.446,21.854c-0.601,9.344-3.689,2.888-8.982,8.461c-2.887,3.048-3.048,7.299-4.852,10.867
		c-2.486,4.853-5.293,1.123-6.577,7.9c-1.243,6.496,1.203,12.391-3.569,17.002c-8.14,7.859-6.335,22.736-16.2,29.152
		C354.342,997.234,362.562,992.823,370.782,994.949"/>
	<path id="path5298" fill="#0000FF" stroke="#A5A7A9" stroke-width="1.0025" d="M431.733,856.285
		c2.326-19.048,12.552-35.77,16.2-54.455c0.923-4.732,1.003-9.464,1.564-14.195c0.602-5.133-3.248-3.048-7.339-4.732
		c-3.408-1.403-6.095-3.85-8.381-6.696c-4.651,1.645-8.461,1.523-12.872-0.762c-6.896-3.569-11.909-6.616-19.408-2.246
		c-7.338,4.291-13.112,10.306-22.375,8.181c-7.619-1.765-15.719-7.018-23.619-3.368c-10.145,4.691-13.714-3.008-23.298-1.765
		c3.128,1.043,4.411,0.12,3.81-2.847c-8.06,1.804-18.727,3.087-14.556,12.471c1.925,4.371,17.083,20.812,17.042,20.932
		c3.488,2.486,6.777,5.253,10.225,7.819c-0.922,5.574,3.288,8.622,7.94,10.226c6.977,2.406,16,2.807,17.403,11.709
		c1.564,9.904-0.561,17.885,4.893,27.147c2.205,3.77,4.771,7.338,6.897,11.188c4.21,7.739,0.642,14.757,10.185,14.517
		c5.654-0.12,11.549,2.767,12.952-3.77c0.963-4.451,1.483-9.022,2.606-13.474C414.21,862.14,421.709,857.729,431.733,856.285"/>
	<path id="path5300" fill="#0000FF" stroke="#A5A7A9" stroke-width="1.0025" d="M481.777,895.061
		c6.897-13.794,7.419-31.518,14.837-44.751c1.123-2.165,2.848-3.568,5.173-4.29c1.203-3.93,1.604-7.899,2.246-11.91
		c1.363-8.941,8.1-12.871,15.959-15.999c-0.922-4.251-12.791-13.795-16.561-17.043c-4.812-4.13-10.306-4.731-16.36-5.493
		c-10.025-1.323-17.885-6.616-27.429-9.263c-13.874-3.81-9.623,4.611-11.749,15.559c-1.965,10.104-5.895,19.608-9.463,29.232
		c-3.008,8.14-3.649,24.14-11.509,26.145c-17.363,4.411-15.238,21.053-19.609,34.887c23.178-0.24,45.834,9.343,68.932,11.268
		C476.164,899.151,476.766,895.502,481.777,895.061"/>
	<path id="path5302" fill="#0000FF" stroke="#A5A7A9" stroke-width="1.0025" d="M319.495,781.139
		c-16.401,0.642-29.874,0.4-43.869-8.982c-4.691-3.168-10.907-6.777-12.431-12.712c-1.724-6.656-0.281-13.232-7.298-17.202
		c-11.589-6.537-25.303,2.205-33.042-12.23c-4.612-8.582-10.506-34.847,0.682-38.856c-8.662-8.742-12.03-15.8-25.904-11.99
		c-9.263,2.566-20.892,9.223-23.819,19.088c-3.529,0.16-8.862,1.162-11.87-1.484c-3.609-3.208-10.345,2.126-15.157,3.529
		c-13.434,3.93-25.945-0.401-39.418-0.12c13.674,4.13-3.729,16.721-2.246,24.581c-15.679-3.89-18.005,19.608-10.586,19.929
		c11.95,0.562,31.117-0.762,33.924,14.757c-7.058-0.36-20.371-2.366-23.779,6.095c-2.526,6.256-13.193,3.249-19.89,3.209
		c-6.737-0.041-7.138,2.285-13.032,4.932c-10.065,4.491-25.183,35.688-5.053,34.405C65.184,785.068,87.6,787.313,104,788.717
		c4.491,0.401,9.022,0.762,13.554,0.602c-0.441-6.656-1.443-15.317,5.694-15.639c4.732-0.2,9.744-0.481,14.275,1.363
		c4.651,1.925,7.058,7.338,11.428,8.982c7.779,2.928,17.002-7.859,24.621-8.781c7.018-0.843,0.642,19.127,14.476,15.879
		c0.201-6.055,2.125-12.07,5.133-17.283c8.702,0.361,5.213-1.965,9.784-6.937c6.095-6.697,6.897,1.082,9.503,5.573
		c2.767,4.812,6.978,8.942,12.672,9.864c-7.258,2.888-6.978,13.955,0.922,15.72c7.539,1.684,14.877-1.403,22.295-1.965
		c7.138-0.562,13.875,2.205,20.331,4.812c13.474,5.413,25.944,5.534,40.3,4.651c9.905-0.602,4.812-6.776,16.241-4.731
		c4.932,0.882,9.263,3.048,13.273,5.935c0.802-2.967-7.258-5.734-9.825-8.741C324.507,793.208,321.821,787.113,319.495,781.139"/>
	<path id="path5304" fill="#0000FF" stroke="#A5A7A9" stroke-width="1.0025" d="M115.028,700.578
		c16.681,2.326,29.914,1.604,45.312-5.694c-5.534-8.26-7.138-19.087-8.02-28.751c-0.722-8.301,6.095-17.724,2.887-25.543
		c-2.166-5.213-1.083-12.19-7.298-17.163c-8.381-6.696-13.193-12.391-10.185-23.298c3.167-11.428,0.401-16.922-6.657-25.503
		c-5.854-7.098-0.562-18.406-11.589-21.093c-8.3-2.005-17.483-1.243-25.864-0.36c-6.375,0.642-12.751,1.243-19.167,1.804
		c-7.539,0.682-13.674-1.202-11.629,6.617c2.085,7.979-11.268,15.599-13.834,22.937c-3.088,8.782-1.484,18.446,0.922,27.147
		c2.647,9.624,6.577,18.807,9.785,28.23c2.526,7.458,1.925,17.644,5.494,24.38c6.656,12.431,37.934,7.258,40.581,20.531
		c1.203,6.055-11.107,3.89-11.228,6.095C93.895,701.1,108.572,699.656,115.028,700.578"/>
	<path id="path5306" fill="#0000FF" stroke="#A5A7A9" stroke-width="1.0025" d="M124.411,555.739
		c6.055,5.213,2.606,15.157,9.263,21.653c6.576,6.416,6.376,14.355,4.05,22.736c-4.772,17.082,13.393,20.491,16.761,35.288
		c11.79-12.432,25.704-9.304,28.15-28.311c1.925-14.957,9.584-30.075,27.268-19.608c6.456,3.809,6.816,11.589,9.704,17.764
		c4.852,10.426,15.278,14.396,26.064,15.88c4.611-9.464,15.278-9.825,15.959-22.095c0.241-4.411-0.241-8.822,0.201-13.233
		c5.734-2.566,12.19-3.81,18.486-3.008c0.12-8.661-1.283-19.608,8.22-23.458c8.742-3.568,1.725-17.363,8.782-16.842
		c-2.927-4.21-6.456-8.14-11.027-10.546c-2.406-1.283-4.972-2.045-7.699-2.366c-7.178-0.882-4.371-2.646-5.013-9.183
		c-11.869,4.731-15.959,6.216-28.19,1.885c-11.147-3.93-21.614,1.845-32.521,3.488c-10.867,1.645-19.408-6.335-29.714-8.821
		c-11.709-2.848-24.1-5.814-36.25-4.732c-10.105,0.883-14.797,7.82-25.103,6.938c-6.295-0.521-12.23-2.566-18.325-4.01
		c-3.93-0.963-8.18-2.205-12.23-2.326c-6.496-0.2-4.732,6.336-4.531,10.627c0.161,3.77-1.724,7.138-0.762,10.947
		c0.922,3.77,3.729,6.576,3.248,10.666c-0.401,3.408-2.727,8.061,2.446,8.341c6.135,0.28,11.87-1.685,17.885-2.205
		C114.386,550.847,120.722,552.531,124.411,555.739"/>
	<path id="path5308" fill="#00FF00" stroke="#A5A7A9" stroke-width="1.0025" d="M107.609,517.484
		c4.371-1.283,12.19,2.245,18.285,1.764c13.554-1.122,8.662-10.506,2.807-18.045c-11.549-14.796-19.488-37.172-21.654-56.019
		c-0.962-8.341-0.241-17.563,0.401-25.904c-5.052-2.165-5.814,0.842-6.456-5.093c-0.321-3.008-1.804-5.614-4.25-7.418
		c-4.932-3.729-11.789-4.291-17.724-5.013c-13.473-1.685-24.06-17.323-38.896-9.904c-9.303,4.651,12.03,14.275,0.682,20.41
		c8.702,5.253,6.175,16.24,8.341,24.821c2.326,9.184,10.145,15.398,15.358,22.938c1.885,2.727,3.689,5.533,5.454,8.381
		c4.21,6.776,8.181,13.874,11.148,21.253c1.443,3.608,2.727,7.338,3.529,11.107c0.361,1.684,0.561,3.408,0.561,5.133
		c0.041,1.925-0.561,4.21-0.28,6.095c0.16,1.123,0.682,1.965,0.521,3.208C91.689,511.469,101.995,513.715,107.609,517.484"/>
	<path id="path5310" fill="#0000FF" stroke="#A5A7A9" stroke-width="1.0025" d="M82.026,402.077
		c5.012,0.682,10.586,1.524,14.716,4.652c2.406,1.844,3.93,4.41,4.25,7.418c0.642,5.935,1.404,2.927,6.456,5.093
		c0.521-6.696,12.671,0.36,18.646,0.16c3.729-0.12,7.499-0.441,11.067-1.523c2.687-0.843,5.133-2.206,7.418-3.81
		c1.764-1.203,3.448-2.486,5.093-3.81c1.403-1.123,3.568-1.083,5.373-1.203c2.927-0.24,5.854-0.2,8.782-0.32
		c0.161-3.85,0.602-8.021,2.326-11.509c2.968-6.096,9.143-5.574,14.556-3.168c12.07,5.333,24.982,14.637,36.09,21.774
		c-0.401-13.835-2.526-27.188-7.9-39.979c-1.925-4.571-4.01-9.103-5.774-13.754c-5.975,0.602-12.03,0.08-18.005,0.602
		c-10.787,0.962-23.699-4.131-32.08,5.253c-5.534,6.215-9.704,17.242-20.21,14.516c-7.86-2.045-7.258-12.711-7.459-18.967
		c-0.32-10.586-12.671-7.739-21.533-8.982c-9.503-1.323-17.804-5.053-21.574-14.476c-13.513,4.932-11.268,14.074-12.751,26.185
		c-6.095-3.168-10.867-8.02-18.285-6.776c-9.022,1.483-15.318,3.568-23.819-1.404c0,0,8.461,11.71,9.062,13.675
		c1.403,0.36,3.97-1.645,5.854-1.484c0.161,2.166-0.16,21.493,2.085,20.09c5.374-0.08,10.386-0.32,15.278,2.246
		c1.403,0.722,2.807,1.283,4.13,2.085C69.194,397.867,75.61,401.235,82.026,402.077z"/>
	<path id="path5312" fill="#0000FF" stroke="#A5A7A9" stroke-width="1.0025" d="M55.881,359.291
		c5.173,0.682,9.223,4.652,13.634,6.978c1.042-8.741-1.524-19.568,8.14-24.26c6.857-3.369,1.805-12.472,1.323-20.371
		c-0.682-10.426-4.05-39.137,9.343-43.508c-6.095-7.178-11.468-10.707-21.012-8.702c-12.15,2.566-17.523-7.258-27.428-11.589
		c-9.263-4.05-20.049-4.331-29.473-0.722c2.767,13.514,3.449,27.308,3.93,41.022c0.401,11.669,0.601,22.896,3.85,34.205
		c0.2,0.722,2.606,10.226,3.208,10.104c2.085-0.44,5.534,5.976,5.494,7.499c-0.08,3.689-9.022,2.807,1.243,7.098
		C28.974,366.309,50.066,358.529,55.881,359.291"/>
	<path id="path5314" fill="#0000FF" stroke="#A5A7A9" stroke-width="1.0025" d="M201.522,317.708
		c7.779-0.16,6.897-12.792,7.258-19.448c0.521-9.864,3.489-17.283-5.895-20.371c-10.586-3.448-16.361-4.331-26.466,1.163
		c-8.381,4.531-16.481,4.972-25.824,5.173c-18.044,0.401-23.217-17.042-42.786-11.589c-17.644,4.932-27.067,5.614-28.711,25.784
		c-1.163,14.195-3.168,37.333,7.619,48.761c5.454,5.774,13.674,7.017,21.213,7.779c8.38,0.882,17.163-1.283,17.443,8.501
		c0.481,15.317,10.867,28.27,23.018,10.786c12.872-18.445,35.007-10.225,54.736-12.229
		C197.512,347.262,198.154,332.986,201.522,317.708"/>
	<path id="path5316" fill="#0000FF" stroke="#A5A7A9" stroke-width="1.0025" d="M223.657,425.856
		c3.449,8.782,7.539,17.123,13.594,24.421c1.524,1.845,22.576-1.725,28.711,0.481c1.083-10.065,5.333-19.168,6.416-28.992
		c1.203-10.907-1.844-21.694-1.764-32.602c0.08-11.989,29.834-2.205,38.776-10.305c6.215-5.614,1.123-15.398,7.499-21.494
		c4.531-4.33,13.634-5.935,14.155-13.554c0.441-6.616-6.456-12.27-8.261-18.405c-2.286-7.779,0.161-16.36-4.25-23.739
		c-1.684-2.847-4.371-4.571-7.739-4.531c-6.255,0-3.81,4.21-4.371,9.022c-1.043,8.381-3.81,9.464-11.148,11.027
		c-25.784,5.574-46.235,6.416-72.379,2.326c-5.734-0.882-11.509-1.645-17.323-1.805c-6.777-0.2-5.414,5.814-6.215,11.469
		c-1.604,11.228-0.241,22.255,3.77,32.842c3.689,9.824,8.581,19.047,10.907,29.312c1.363,5.975,2.125,12.109,2.486,18.245
		C217,417.355,220.85,418.679,223.657,425.856"/>
	<path id="path5318" fill="#00FF00" stroke="#A5A7A9" stroke-width="1.0025" d="M262.313,502.526
		c-8.501-7.458-17.724-12.189-28.872-14.275c-0.602-12.591,0.722-22.495,4.21-33.724c1.684-5.493-11.228-21.653-13.955-28.671
		c-4.25-10.827-12.711-11.869-21.533-17.885c-7.138-4.852-28.952-25.062-35.97-10.746c-3.448,7.018,1.444,11.348-8.1,11.709
		c-8.341,0.32-8.461,3.208-14.877,7.018c-11.027,6.536-24.1,2.325-35.448-0.281c-2.366,20.01,2.045,34.646,6.416,53.653
		c1.925,8.341,3.128,16.562,8.22,23.739c4.852,6.816,12.391,13.434,13.634,22.135c12.311-6.817,29.995-2.165,42.787,0.762
		c13.152,3.008,24.26,12.311,37.894,9.103c6.657-1.563,13.193-4.09,20.13-4.13c7.138-0.04,12.992,4.09,19.889,4.933
		c5.975,0.762,11.589-3.329,16.842-5.414C272.779,512.432,268.127,507.619,262.313,502.526"/>
	<path id="path5320" fill="#FF0000" stroke="#A5A7A9" stroke-width="1.0025" d="M346.522,569.895
		c8.822,7.859,13.754,12.069,25.904,13.353c9.985,1.083,20.491,2.606,29.633,6.978c3.81,1.805,8.141,4.531,9.344,8.862
		c1.965,6.896-5.975,4.852-5.854,11.789c0.12,7.859,8.14,1.403,13.232,1.443c6.978,0.04,12.712,4.691,18.887,7.338
		c-0.2-3.729-0.04-7.418,0.361-11.107c0.842-8.581,2.887-5.293,7.218-11.308c4.291-5.936,5.895-11.87,12.23-16.12
		c3.448-2.286,11.909-7.619,6.897-12.471c-4.451-4.331-3.89-7.219-3.008-13.795c3.128-1.805,7.178-1.965,10.146-4.13
		c-8.501-7.258-6.416-8.581-4.171-18.927c2.526-11.79-15.117-9.945-21.132-7.539c-9.464,3.77-14.677-1.243-21.413-7.338
		c-4.812-4.331-10.707-4.251-16.802-3.409c-9.785,1.323-10.667,1.323-12.03-8.3c-3.288-24.021-7.218-43.989-34.485-49.924
		c-6.496-1.444-19.288-3.77-24.702,1.684c-4.691,4.731-3.127,7.539-10.265,9.424c-5.895,1.563-11.429,4.09-17.524,4.852
		c-25.423,3.008-34.205-23.578-59.828-22.496c-12.551,0.562-11.99,7.699-13.033,18.165c-4.611,0.803-2.967,12.07-2.927,16.16
		c0.041,8.341,7.138,6.256,13.915,9.304c8.662,3.85,18.526,11.067,23.659,19.167c2.486,3.89,2.807,8.502,3.008,12.992
		c0.361,8.301,5.935,4.051,12.471,7.499c3.409,1.805,6.256,4.451,8.702,7.419c4.05,4.972,10.987,4.37,17.002,6.856
		C324.949,551.608,336.176,560.631,346.522,569.895"/>
	<path id="path5322" fill="#FF0000" stroke="#A5A7A9" stroke-width="1.0025" d="M461.447,554.816
		c-0.481,3.85-0.562,7.699-0.32,11.589c2.445,1.203,5.693,3.448,4.651,6.696c-1.685,5.294-8.421,7.299-12.15,10.747
		c-6.095,5.574-6.456,15.198-14.917,18.606c-0.642,5.694-1.443,11.428-1.043,17.162c4.732,2.045,10.065,3.529,14.195,6.777
		c11.309,8.861,22.095,16.36,37.734,15.438c7.618-0.441,12.311-8.021,20.29-3.931c8.14,4.171,9.584,14.797,9.904,22.897
		c2.326-8.501,0.12-17.483-1.243-25.944c-0.882-5.614-1.563-11.349-1.042-17.043c4.611-0.2,9.463-0.722,13.954,0.763
		c6.096,2.005,6.376,6.536,9.784,10.987c7.499,9.904,9.224-6.456,10.787-10.787c2.526-6.978,19.688-4.211,26.947-4.771
		c11.508-0.923,3.809-13.033-0.081-20.171c-9.583-17.644,2.848-28.069,18.005-35.769c-2.165,1.564-3.088,3.689-2.807,6.336
		c3.248-7.298,17.443-11.188,24.18-14.035c0.923-13.433-2.566-21.493,11.589-27.989c17.483-7.979,15.799-41.102,8.101-55.337
		c-5.774-10.667-14.877-11.79-23.018-3.048c-9.062,9.744-12.912,5.854-24.18,5.053c-31.398-2.326-29.232,42.906-28.431,62.515
		c-15.117,3.168-12.992-18.687-23.178-19.127c-6.776-0.281-17.122,3.77-22.055,0c-3.408-2.606-9.103-6.416-13.514-3.609
		c-7.659,4.893-6.496,20.852-7.058,28.551c-0.36,5.133-13.674,3.689-18.927,7.218C471.793,548.48,467.663,551.248,461.447,554.816"
		/>
	<path id="path5324" fill="#00FF00" stroke="#A5A7A9" stroke-width="1.0025" d="M553.917,614.806
		c-2.687,4.611-2.366,17.844-8.381,17.323c-5.935-0.521-5.975-8.381-10.025-11.429c-3.809-2.847-8.581-3.128-13.152-3.008
		c-7.819,0.201-5.333,5.133-4.571,11.669c1.163,10.306,4.853,21.173,2.005,31.479c0.321,8.421,3.89,61.473-2.526,62.636
		c6.456,9.704,11.95,17.202,24.301,19.287c11.989,2.046,19.97,4.772,26.986,15.559c2.286,3.529,3.85,7.419,4.531,11.549
		c1.404,8.541-1.122,8.742,7.9,10.105c6.736-2.928,14.114-3.448,21.373-3.368c7.658,0.08,14.957,3.208,17.082-4.011
		c5.614-19.127,31.197,13.354,42.064,10.667c5.013-1.243,3.328-4.973,6.336-8.461c3.408-3.93,8.781-5.373,13.754-5.734
		c6.536-0.481,9.183-5.614,16.04-6.296c6.536-0.642,12.069-0.722,16.561-6.095c2.366-2.848,4.411-6.256,8.021-7.779
		c4.21-1.765,13.914,0.722,14.396-4.331c1.002-9.864-13.714-13.714-20.17-17.403c-9.304-5.373-18.887-8.982-29.554-10.426
		c-7.098-0.962-14.195,1.604-14.877-6.215c-0.521-6.056-2.566-11.87-5.333-17.243c-5.013-9.784-12.19-18.245-18.325-27.308
		c-3.689-5.414-6.978-11.107-9.224-17.323c-2.646-7.298-0.28-14.797-6.736-19.007c-10.706-6.978-19.288-14.477-32.561-15.92
		C584.633,612.039,569.275,615.929,553.917,614.806"/>
	<path id="path5326" fill="#FF0000" stroke="#A5A7A9" stroke-width="1.0025" d="M641.454,654.022
		c5.333,11.349,13.834,20.853,20.651,31.318c3.328,5.093,6.336,10.506,8.18,16.32c2.326,7.338-1.282,13.272,7.339,14.075
		c11.469,1.082,66.444,12.871,58.305,31.518c3.85,0.04,7.659,0.201,11.509,0.481c7.699,0.521,4.892-1.403,6.375-7.819
		c1.123-4.812,3.289-9.624,8.021-11.749c4.771-2.125,10.506-1.885,15.599-1.965c7.939-0.16,8.822-7.94,18.967-5.213
		c13.474,3.608,22.816,4.731,24.822-11.107c2.165-17.043,21.252,6.215,25.583,11.869c0.2-3.81,1.043-7.499,2.526-11.027
		c-3.488-2.486-5.213-6.456-5.373-10.586c-0.241-5.976-5.053-7.98-6.657-14.276c-2.807-11.107,1.163-25.021-4.892-35.167
		c-3.93-6.616-10.867-10.827-13.193-18.485c-2.245-7.419-0.601-19.528-8.581-22.656c-14.676-5.734-30.957-17.685-47.518-14.757
		c-6.696,1.203-10.546,5.453-15.639,9.303c-6.136,4.611-14.997,3.248-22.055,2.286c-9.022-1.243-18.045-3.408-27.188-2.566
		c0.32,6.336-5.854,10.827-11.709,10.947c-7.259,0.16-9.304-6.536-13.594-10.907c-3.81-3.85-12.552,3.81-17.363,5.895
		C636.201,618.174,632.713,635.457,641.454,654.022"/>
	<path id="path5328" fill="#FF0000" stroke="#A5A7A9" stroke-width="1.0025" d="M894.843,779.534
		c2.606,6.376,7.579,10.186,14.557,12.552c6.296,2.125,5.694,4.37,10.987,8.42c7.298,5.574,19.488,9.062,23.258,18.166
		c9.623-0.923,17.002,7.498,26.626,4.25c12.551-4.25,25.303-17.323,37.773-4.932c1.765-10.306-0.04-20.411,11.469-23.058
		c9.143-2.125,18.646-1.203,27.949-1.483c10.867-0.321,19.208-6.336,28.271-11.549c2.646-5.774,1.082-11.709-0.923-17.323
		c4.171-1.523,8.541-2.366,12.872-3.088c-3.328-11.348-9.904-20.691-22.496-22.255c-9.463-1.163-6.816,0.481-9.183,8.02
		c-1.644,5.213-5.213,9.865-10.426,11.91c-12.992,5.173-16.642-7.299-26.907-11.469c-11.668-4.731-22.135-14.757-6.175-24.781
		c-9.223-6.978-10.546-20.17-22.296-24.541c-4.972-1.845-10.466-0.963-15.438-2.767c-7.619-2.808-13.995-8.862-22.576-8.862
		c-0.762,10.226,1.845,21.253-2.045,31.077c-5.574,14.075-17.765-0.802-23.379-5.935c-10.385-9.544-29.111-0.762-23.858,13.393
		c7.578,20.371-26.626,28.592-33.042,43.469C880.447,769.188,890.151,768.146,894.843,779.534"/>
	<path id="path5330" fill="#FF0000" stroke="#A5A7A9" stroke-width="1.0025" d="M1074.85,764.537
		c4.251,11.949,2.246,16.722-8.221,22.776c-7.538,4.371-14.836,6.136-23.538,6.176c-7.819,0-15.839-0.361-23.538,1.443
		c-10.306,2.406-8.782,7.939-10.467,17.243c-1.964,10.826,14.758,30.836,25.504,34.846c11.228,4.211,24.982,6.857,31.519,18.606
		c7.578-7.779,21.132-2.526,28.27,4.13c7.579,7.058,21.694,4.291,31.237,5.774c5.294,0.843,10.387,2.446,15.198,4.812
		c5.213,2.566,4.09-0.281,8.02-3.689c5.574-4.892,13.795-8.741,16.722-16c4.171-10.546-6.376-14.436-13.072-19.287
		c-6.857-4.933-10.987-18.286-10.707-26.546c0.281-8.381,8.622-9.624,15.479-9.384c2.486-9.022-3.248-22.696,7.539-27.629
		c-6.296-4.41-13.754-7.017-21.053-9.183c-9.103-2.727-15.397-10.746-24.22-13.994c-7.499-2.768-12.792,1.925-19.448,4.41
		C1091.932,762.051,1082.99,761.609,1074.85,764.537"/>
	<path id="path5332" fill="#FF0000" stroke="#A5A7A9" stroke-width="1.0025" d="M1183.399,775.284
		c-18.566-0.683-25.464,4.33-25.544,22.415c-0.04,10.667-3.568,5.694-11.228,9.183c-5.814,2.646-5.413,9.264-4.171,14.517
		c1.564,6.696,4.051,15.719,9.905,19.97c6.175,4.45,14.837,6.977,13.834,16.32c-1.283,11.709-16.762,14.877-21.895,24.22
		c14.275,5.935,29.474,7.459,41.784,17.725c-0.762-14.998,3.528-29.674,1.123-44.631c-0.843-5.334,0.16-7.619,4.972-10.386
		c7.299-4.171,4.853-11.83,2.446-18.326c-2.406-6.536-5.093-12.149,1.523-15.639c6.296-3.288,6.136-16.36,5.976-23.819
		C1201.965,778.812,1191.539,758.121,1183.399,775.284"/>
	<path id="path5334" fill="#0000FF" stroke="#A5A7A9" stroke-width="1.0025" d="M1201.203,776.366
		c2.406,6.416,0.923,15.118-0.04,21.654c-0.642,3.688-1.042,7.418-1.163,11.147c-5.213,0.802-8.461,2.205-7.899,7.819
		c0.722,7.499,6.737,14.797,4.691,22.496c-1.483,5.734-10.346,5.573-9.984,12.069c0.882,16.08-1.523,32-0.682,48.039
		c4.973,4.131,0.521,11.148,6.978,12.15c6.816,1.083,13.634,2.366,20.41,3.649c11.549,2.165,23.298,3.81,33.403,10.346
		c7.498,4.852,10.104,14.155,18.525,13.434c6.938-0.602,18.326,0.12,23.058,6.215c8.742,11.228,19.007-0.32,13.474-10.666
		c-6.015-11.147-14.877-18.767-27.107-22.055c-6.536-1.765-8.381-1.363-10.546-8.662c-1.725-5.895-1.564-13.353,3.93-17.282
		c8.381-5.976,20.972,0.12,22.816-13.033c2.045-14.556-5.373-27.788-6.096-42.104c-0.24-5.254,1.043-26.025-7.818-25.784
		c-3.409-9.344-21.253-14.155-29.594-16.962c-14.075-4.732-13.795-10.266-14.075-23.98c-9.183-0.762-18.245-2.807-27.548-2.445
		c-3.289,0.12-9.144,0.4-10.627,4.13C1193.344,771.435,1199.88,772.838,1201.203,776.366"/>
	<path id="path5336" fill="#FFFF00" stroke="#A5A7A9" stroke-width="1.0025" d="M1285.733,943.101
		c-7.899-4.251-17.043-4.853-25.704-3.128c3.208,6.776,3.048,14.396,0.16,21.293c-3.93,9.383-11.669,1.563-11.268,12.471
		c0.32,9.664-5.975,5.975-12.07,9.984c-5.935,3.89-7.619,11.229-7.979,17.845c-0.521,9.624,5.293,7.098,4.771,15.96
		c-0.521,9.223,1.564,15.479,3.128,24.22c11.589,2.526,6.777-2.125,13.112-7.539c5.173-4.411,13.153-5.013,19.609-5.533
		c6.576-0.521,13.152-1.203,19.688,0.24c8.02,1.765,16.24,5.774,24.621,4.251c3.609-10.907,20.611-28.591-0.842-32.24
		c-13.113-2.246-4.09-17.563,4.771-19.85c5.053-1.323,7.218-5.533,10.266-9.584c4.05-5.333,9.464-5.453,15.839-5.854
		c-3.448-11.869-11.869-29.353-27.106-26.345c-7.82,1.523-9.905,6.616-15.68,10.586
		C1293.352,955.09,1290.906,945.867,1285.733,943.101"/>
	<path id="path5338" fill="#0000FF" stroke="#A5A7A9" stroke-width="1.0025" d="M1233.724,1011.43
		c-11.829-2.005-3.127-27.669,7.299-29.072c8.341-1.122,8.06-4.812,7.739-12.15c-0.201-4.17,5.373-4.37,8.982-4.13
		c2.525-4.21,4.37-8.942,4.691-13.914c2.205-33.684-49.122-37.533-72.58-40.861c0.48,7.017-0.08,14.034-0.722,21.012
		c-0.843,9.624-11.79,3.729-18.406,0.802c-5.614-2.486-10.987-5.533-16.882-7.338c-11.589-3.569-13.354-0.762-13.032,10.546
		c0.24,7.579,0.962,15.118,0.28,22.696c-5.975,0.241-12.029-0.562-16.32-5.133c-7.699-8.26-16.721-23.498-29.754-13.914
		c9.344,11.549,12.792,29.874,17.645,43.708c2.646,7.539,16.4,45.192,5.253,45.954c5.213,8.261,2.807,11.87,13.754,14.917
		c13.674,3.85,29.072,9.945,41.783,16.16c10.627,5.173,8.742,20.21,23.979,11.829c7.459-4.09,20.812-15.438,10.065-22.255
		c6.256-8.501,20.611-4.09,29.353-4.411c0.602-4.17-1.283-8.02-2.486-11.869C1232.12,1026.588,1234.125,1019.009,1233.724,1011.43"
		/>
	<path id="path5340" fill="#0000FF" stroke="#A5A7A9" stroke-width="1.0025" d="M1121.887,1092.872
		c-0.401,3.77,1.845,10.024-0.762,13.272c-4.732,5.895-11.67-2.165-13.273,9.544c-0.481,3.328,0.562,12.592-4.01,12.511
		c2.767,9.424,0.521,18.005-4.09,26.386c7.458,4.772,15.197,2.005,22.977,4.731c7.779,2.768,8.221,11.349,14.837,14.958
		c7.779,4.25,15.197-3.97,21.093-7.739c9.303-5.975,17.402,1.563,26.866-1.484c-0.842-5.012-4.691-8.982-4.731-14.195
		c7.258,0.682,4.691-3.368,7.619-7.979c2.605-4.13,7.097-5.253,11.107-7.538c11.268-6.336,7.498-16-0.361-22.376
		c-2.807-2.286-5.253-5.053-5.453-8.902c-7.299,1.283-8.742-2.847-13.273-7.338
		C1160.863,1097.002,1141.535,1092.15,1121.887,1092.872"/>
	<path id="path5342" fill="#0000FF" stroke="#A5A7A9" stroke-width="1.0025" d="M1103.842,1128.199
		c-6.015-0.12-9.744-3.328-13.394-7.658c-5.734-6.737-11.789-9.865-20.33-11.99c-14.275-3.568-37.774-7.939-46.796-20.25
		c-0.883,9.864-0.963,17.403,5.493,25.263c2.165,2.646,4.691,5.614,4.973,9.183c0.521,6.176-4.251,2.928-7.218,6.536
		c-3.971,4.812-1.363,11.469-7.178,15.92c-9.544,7.258-5.013,11.348,4.09,14.155c9.864,3.007,18.365-1.645,27.829,0.642
		c8.862,2.125,15.799,1.844,24.861,1.283c5.654-0.361,15.398,2.005,20.17-2.046
		C1104.523,1152.26,1106.648,1137.863,1103.842,1128.199"/>
	<path id="path5344" fill="#0000FF" stroke="#A5A7A9" stroke-width="1.0025" d="M1169.404,1059.188
		c-14.195-4.251-27.789-10.947-41.824-15.839c-9.423-3.289-5.092-14.195-14.876-13.193c-14.997,1.523-25.143-1.323-33.684-14.195
		c-7.379-11.107-13.915-18.687-27.789-20.531c0.24,8.782-14.035-3.89-14.517,7.659c-0.521,13.113-3.729,7.539-13.754,11.389
		c-9.223,3.568-10.506,26.145-15.759,34.124c-3.93,6.016-7.058,11.99-7.379,19.288c-11.629,6.016-2.566,10.987,5.734,9.624
		c10.546-1.764,14.557,7.619,20.411,14.235c6.896,7.779,19.328,8.301,28.591,11.549c8.22,2.888,17.483,4.771,25.343,8.421
		c7.779,3.609,11.147,13.273,19.328,15.84c11.188,3.488,6.896-8.942,9.503-15.96c3.249-8.702,13.715,0.24,13.313-11.749
		c-0.361-10.907,7.819-7.178,17.203-6.376c11.749,1.002,23.418,2.847,35.207,3.248c7.939,0.24,8.541,2.245,9.183-6.015
		c0.401-5.414,0.802-11.027-0.24-16.401C1181.996,1066.566,1176.943,1061.394,1169.404,1059.188"/>
	<path id="path5346" fill="#00FF00" stroke="#A5A7A9" stroke-width="1.0025" d="M999.863,1067.85
		c0.401-8.902,5.013-15.357,9.504-22.656c4.893-7.939,5.373-16.601,8.461-25.143c2.205-6.175,8.221-6.736,14.035-7.218
		c6.938-0.562,4.611-3.729,4.892-9.864c0.321-8.1,8.061-4.571,14.757-4.771c-0.882-4.571-21.573-7.339-27.388-10.266
		c-12.391-6.256-23.458-7.859-37.333-7.539c-14.556,0.321-29.072,2.045-43.628,1.685c-12.19-0.321-26.346,3.649-37.173-3.77
		c-3.288-2.245-18.245-14.597-20.29-8.221c-0.16,0.521-7.699,5.414-8.461,6.096c-3.85,3.608-7.539,8.741-8.501,13.994
		c-0.762,4.211,0.481,8.542,1.323,12.592c-5.814,1.684-10.306,6.616-14.476,10.666c-6.657,6.496-14.957,10.867-23.218,13.714
		c9.463,1.685,8.14,9.344,9.784,16.441c0.802,3.368,3.128,5.293,6.496,6.055c1.163,6.416-2.767,11.95-2.767,18.245
		c9.583-0.842,17.604,6.697,26.385,9.144c8.341,2.325,19.93,3.007,28.07-0.883c12.029-5.774,8.581-31.357,27.106-28.271
		c16.883,2.808,35.008,0.803,48.602,12.832c4.01,3.529,6.977,8.902,10.145,13.153
		C991.322,1080.802,995.453,1070.136,999.863,1067.85"/>
	<path id="path5348" fill="#00FF00" stroke="#A5A7A9" stroke-width="1.0025" d="M845.801,1067.89c0-4.691,2.246-8.861,2.848-13.433
		c1.002-7.619-5.053-4.411-6.576-10.867c-2.206-9.504-1.283-15.278-13.072-16.28c0.882,5.453,2.085,10.826,3.608,16.16
		c-17.604,1.604-32.561,6.896-22.456,27.268c3.81,7.659,7.219,14.355,5.574,23.057c-1.363,7.299-4.01,20.171-14.275,12.431
		c0.481,4.411-1.243,6.978-5.213,7.74c6.015,8.661,12.952,13.874,23.298,16.119c5.734,1.243,11.228,1.725,16.32,4.893
		c6.056,3.77,11.629,9.664,19.128,10.386c11.188,1.083,27.869-6.095,39.097-7.779c7.178-1.083,33.925,4.251,37.413-3.85
		c1.403-3.288,3.528-9.022,5.975-11.549c4.01-4.17,9.062-1.203,11.429-9.022c3.167-10.546-2.848-8.301-10.907-9.423
		c-9.062-1.243-17.965-3.489-27.067-4.571c-13.313-1.564-10.867-15.88-22.496-19.008c-6.776-1.845-13.874-1.764-20.41-4.611
		C861.039,1072.541,853.781,1067.208,845.801,1067.89"/>
	<path id="path5350" fill="#00FF00" stroke="#A5A7A9" stroke-width="1.0025" d="M810.554,1107.789
		c13.714-7.979,0.923-32.682-2.325-41.383c-6.897-18.486,10.024-21.654,24.38-22.937c-1.483-5.334-2.687-10.707-3.608-16.16
		c-3.85-0.401-7.339-2.166-10.266-4.651c-6.576-5.574-10.907-14.998-10.547-23.659c-24.3,2.888-33.603-19.85-55.898-21.093
		c-12.19-0.682-24.06,2.366-35.648-3.007c-4.812-2.246-9.143-5.574-11.909-10.146c-4.732,1.443-8.141-2.165-10.346-5.854
		c-3.729-6.216-5.734-19.89-14.355-17.684c-12.632,3.248-22.216,13.353-34.085,18.445c-16.802,7.218-45.914,33.845-22.938,49.764
		c9.504,6.576,23.699,5.694,34.687,6.176c12.431,0.521,24.14-0.321,13.474,12.109c-13.995,16.401,38.896,26.466,46.916,26.466
		c8.381,0,17.443-0.602,25.223,3.168c4.772,2.326,8.461,6.176,11.269,10.586c5.814,9.104,5.814-2.967,12.311,2.166
		c6.776,5.373,1.162,18.285,9.062,23.578c5.253,3.529,12.351,2.406,17.724,5.854
		C798.323,1102.616,803.897,1111.679,810.554,1107.789"/>
	<path id="path5352" fill="#00FF00" stroke="#A5A7A9" stroke-width="1.0025" d="M636.883,963.711
		c14.637-6.856,31.719-21.894,47.919-23.217c-9.343-15.438-7.659-30.315-22.696-42.064c-15.158-11.83-16.16-32.48-32.882-42.586
		c-15.839-9.544-30.516-13.875-29.914-35.368c0.28-9.503-0.842-16.962-8.782-22.937c-4.01-3.008-19.127-13.434-9.543-17.604
		c-2.486-0.361-4.973-0.682-7.459-0.923c-0.2,4.411-3.568,4.491-7.859,3.489c-0.802,5.493-2.406,10.907-4.491,16.039
		c-1.685,4.211-3.77,8.301-6.416,12.03c-0.722,1.003-8.821,8.221-8.821,8.501c13.433-0.24,21.292,10.025,25.944,21.373
		c3.328,8.101,2.606,9.424,10.024,12.832c5.253,2.406,9.424,7.418,12.912,11.829c15.719,19.81,24.982,58.225-8.461,62.916
		c-10.506,1.484-28.832,31.759-21.935,37.935c5.534,4.933,12.712,7.138,20.01,7.418c8.461,0.321,6.015,5.895,8.141,13.514
		c1.724,6.176,4.09,12.632,8.3,17.563c7.058,8.261,9.504,3.449,12.512-4.852C618.518,985.405,621.886,970.769,636.883,963.711"/>
	<path id="path5354" fill="#00FF00" stroke="#A5A7A9" stroke-width="1.0025" d="M574.448,936.523
		c4.05-8.02,10.786-8.14,18.646-9.183c10.467-1.403,15.038-12.029,16-21.493c1.845-18.445-8.301-37.212-22.055-49.122
		c-6.857-5.895-10.226-3.208-13.594-12.431c-3.088-8.421-7.298-17.644-15.479-22.335c-10.105-5.734-17.403,1.042-27.789-1.003
		c-9.664-1.885-17.965-4.25-24.22,7.138c-3.85,6.978-0.963,14.235-7.138,19.568c-5.654,4.853-7.218,19.168-9.824,26.105
		c-1.965,5.293-3.128,10.826-4.973,16.12c-1.925,5.493-7.218,5.172-7.659,10.506c-0.682,8.22,0.481,11.749,5.293,17.844
		c6.056,7.619,13.634,13.313,22.015,18.165c9.544,5.534,12.872,13.273,20.451,20.651c8.741,8.501,20.892,8.982,32.36,8.581
		C565.386,965.235,570.639,944.143,574.448,936.523"/>
	<path id="path5356" fill="#0000FF" stroke="#A5A7A9" stroke-width="1.0025" d="M482.86,794.973
		c6.015,0.962,12.872,0.802,18.125,4.251c7.178,4.691,11.469,12.631,18.727,17.442c20.651,13.554,36.651-3.448,43.026-22.335
		c1.283-3.85,2.326-7.779,2.928-11.789c4.251,1.042,7.659,0.962,7.859-3.489c0.521-11.348-3.328-20.17-11.188-28.35
		c-7.058-7.379-16.2-6.336-25.263-8.902c-5.454-1.564-19.408-18.365-20.892-18.125c2.606,13.474-16.963,11.549-24.822,9.824
		c-15.077-3.288-27.066-17.323-43.388-10.024c5.854,2.405,2.606,9.343,2.646,15.117c0.04,5.654,3.008,9.744,3.93,15.077
		c1.925,11.147-11.989,19.408-20.812,22.536c5.454,6.736,12.432,8.341,20.771,9.143C464.735,786.312,472.876,793.409,482.86,794.973
		"/>
	<path id="path5358" fill="#0000FF" stroke="#A5A7A9" stroke-width="1.0025" d="M328.197,754.953
		c-5.574-1.283,2.847-24.541-0.762-30.917c-1.123-1.925-2.687-3.368-4.691-4.37c-5.534-2.968-4.25-5.053-4.09-11.389
		c0.161-6.816,1.364-14.035,8.341-17.042c-2.486-4.491-5.494-7.339-9.624-10.226c-7.458-5.213-8.22-10.947-10.947-19.047
		c-11.108-1.003-24.18,0.32-31.438,9.864c-3.368,4.491-4.932,10.024-5.453,15.559c-8.942,0.36-16.521-2.005-24.541,3.088
		c-4.411,2.807-12.271,4.17-17.203,3.288c-2.767-3.288-5.774-3.489-9.022-0.562c-0.602,4.531-0.922,9.143-0.842,13.754
		c0.161,12.19,3.088,30.636,18.005,32.601c6.616,0.883,13.875-0.722,20.01,2.728c7.017,3.97,5.614,10.546,7.298,17.202
		c3.128,12.15,24.02,20.531,35.047,21.654c7.499,0.762,15.078,0.24,22.576,0c1.484-6.857,9.905-6.496,15.238-7.699
		C335.655,766.382,328.197,762.171,328.197,754.953"/>
	<path id="path5360" fill="#0000FF" stroke="#A5A7A9" stroke-width="1.0025" d="M232.92,692.479
		c-5.494-3.449-2.166-12.351-7.018-16.562c-5.454-4.771-8.06,1.765-9.824-6.456c-1.083-5.093-4.09-10.266-0.722-15.197
		c13.193-19.448,56.019-12.15,58.706-38.416c0.722-6.977-3.529-26.305,6.055-28.671c0.722-7.779-8.18-4.731-13.634-3.088
		c-8.341,2.486-3.85,11.99-5.373,19.288c-1.203,5.774-5.694,8.541-10.065,11.789c-6.496,4.812-5.534,6.777-14.516,4.011
		c-14.957-4.571-15.158-15.398-21.854-26.947c-4.291-7.419-18.205-11.107-25.022-5.133c-6.175,5.413-6.496,15.759-7.418,23.258
		c-1.042,8.341-6.817,14.115-15.238,17.885c-4.291,1.925-9.183,3.608-12.511,7.097c-1.764,1.845,1.524,11.629,0.121,16.281
		c-3.288,10.866-2.286,20.731,0.722,31.719c1.885,6.776,12.751,24.621,19.729,11.789c4.972-9.143,16.4-15.318,26.466-16.882
		c4.691-0.722,10.065-0.562,13.714,2.887C219.888,685.541,224.66,697.731,232.92,692.479"/>
	<path id="path5362" fill="#0000FF" stroke="#A5A7A9" stroke-width="1.0025" d="M280.117,587.177
		c-8.22,2.005-5.494,13.554-5.654,19.448c-0.241,8.742-0.762,15.92-6.215,23.098c-10.346,2.365-20.21,6.696-29.714,11.308
		c-6.336,3.048-19.087,7.138-23.218,13.233c-4.09,6.015-0.24,19.087,5.333,19.648c7.499,0.762,7.859,7.138,9.103,13.072
		c1.243,5.694,6.416,8.341,11.869,5.494c3.529-1.845,6.617-4.732,10.707-5.334c7.699-1.122,16,4.211,17.845-4.41
		c2.566-11.99,33.122-33.604,37.493-16.12c2.446,9.824,8.261,11.869,14.837,18.405c3.77,3.77,2.125,6.536,7.779,5.173
		c7.458-1.765,7.779,0.2,11.148-6.536c3.288-6.576,8.18-13.554,14.556-17.483c8.621-5.293,12.631,3.729,19.568,6.897
		c6.376,2.887,12.751,2.446,18.526,6.776c9.584,7.138,22.295,7.98,31.357,15.358c0.923-6.256-0.962-11.749-6.295-15.438
		c13.714-2.045,3.047-28.831-2.606-35.207c-4.651-5.253-9.864-10.065-13.674-16.04c-5.614-8.782-4.011-10.546,4.812-13.554
		c-5.734-1.123,8.261-14.797-0.642-21.693c-8.782-6.817-21.814-8.462-32.521-9.704c-31.519-3.729-46.596-41.904-80.761-41.062
		c-0.882,9.904,1.604,13.112-8.02,18.125C277.711,564.721,280.799,579.959,280.117,587.177"/>
	<path id="path5364" fill="#0000FF" stroke="#A5A7A9" stroke-width="1.0025" d="M519.632,673.23
		c0.36-9.624,1.283-21.093-3.89-29.714c-6.416-10.626-13.754-5.493-22.336-2.446c-19.969,7.058-34.726-12.751-50.324-19.207
		c-8.582-3.529-18.125-11.067-27.789-9.264c-10.947,2.086-19.85,4.051-12.351,15.84c5.453,8.541,14.396,14.596,19.007,23.658
		c3.448,6.737,7.178,26.105-2.727,27.589c3.85,2.687,6.336,6.496,6.576,11.228c0.281,6.256,4.411,8.942,7.218,14.797
		c4.571,9.584,8.461,18.646,20.21,16c17.443-3.89,32.762,13.994,51.127,12.952c6.576-0.361,13.354-3.288,11.87-11.027
		c4.01-0.682,3.448-3.77,3.688-7.499C520.675,701.861,519.07,687.546,519.632,673.23"/>
	<path id="path5366" fill="#0000FF" stroke="#A5A7A9" stroke-width="1.0025" d="M454.631,757.881
		c0.802-5.574-2.646-9.624-3.609-14.837c-1.163-6.376,3.368-16.922-3.008-19.568c-14.396-5.936-13.232-24.141-26.706-31.037
		c-6.175-3.168-13.192-4.211-19.368-7.299c-5.253-2.606-9.103-7.458-14.836-9.143c-6.256-1.804-11.79-2.165-16.722-6.816
		c-4.331-4.091-8.862-6.416-14.355-3.048c-9.062,5.574-12.792,22.376-21.614,23.338c-16.32,1.805-16.16,15.198-15.599,28.631
		c14.476,4.171,9.303,18.285,7.619,29.192c-0.922,6.096,1.043,9.985,4.371,15.398c2.406,3.93,9.824,13.313,1.403,13.514
		c5.975-0.762,9.945,4.21,15.679,4.491c5.774,0.24,9.704-4.491,16-3.729c11.468,1.443,19.368,8.461,30.476,1.003
		c13.995-9.384,16.08-4.772,30.556-0.923C434.741,779.694,453.106,768.065,454.631,757.881"/>
	<path id="path5368" fill="#FF0000" stroke="#A5A7A9" stroke-width="1.0025" d="M838.223,709.922
		c-4.411-3.409-10.907-6.096-16.602-5.173c0.441,7.258-3.368,9.223-4.33,14.636c-1.845,10.466-17.965,1.805-24.301,0.803
		c-5.133-0.843-9.223,0.922-11.349,5.854c-4.812,0.16-9.704,0-14.516,0.682c-11.308,1.604-13.434,11.468-14.597,21.373
		c6.497,0.48,21.133,2.807,22.416,11.107c1.283,8.421-7.579,1.644-2.085,12.391c4.731,9.303,8.821,18.927,12.792,28.551
		c4.571,11.027,8.461,22.255,16.521,31.277c6.216,6.938,14.597,26.226,4.933,32.722c7.498,2.125,15.639,5.373,21.052,11.228
		c4.772,5.173,10.266,2.928,17.243,2.286c6.616-0.642,13.834-1.283,20.29,0.762c8.101,2.606,6.697,2.646,14.597-2.888
		c5.975-4.17-1.805-19.608-2.768-26.385c-1.323-9.144,0.121-16.963,3.77-25.303c3.409-7.9,3.369-15.118,3.649-23.539
		c0.28-8.661,0.24-22.696,11.388-15.959c-2.767-12.512-10.626-15.358-22.255-15.519c-7.218-0.121-7.338,0-6.816-7.178
		c0.4-5.334,1.002-10.667,0.882-16c-0.24-10.867-4.691-18.606-15.96-20.651C844.719,723.596,843.636,714.132,838.223,709.922"/>
	<path id="path5370" fill="#FF0000" stroke="#A5A7A9" stroke-width="1.0025" d="M891.956,856.485
		c11.308,0.441,10.746,8.461,11.107,17.363c0.32,7.899,31.519,5.854,39.538,6.616c14.195,1.363,27.308,4.25,40.1,10.707
		c8.661,4.37,25.583,18.044,34.365,10.024c3.168-2.888,6.456-5.975,7.819-10.186c1.123-3.528-1.243-8.821,1.323-11.789
		c5.574-6.456,17.805,3.248,26.186-2.286c3.809-2.525,7.378-5.373,10.746-8.42c5.734-5.214-2.366-8.021-6.616-11.589
		c-8.06-6.737-17.122-6.777-26.104-11.749c-21.334-11.83-19.85-44.23-51.207-26.707c-9.544,5.334-14.877,6.296-24.702,2.045
		c-5.052-2.165-9.303-0.44-12.471-4.651c-2.968-3.97-7.538-6.616-11.749-9.103c-7.539-4.451-13.714-12.23-20.892-14.636
		c-6.136-2.086-10.667-7.098-16.602-9.584c-6.856-2.888-7.138,7.979-7.579,12.952c-1.122,11.989-1.203,21.132-5.653,32.48
		c-5.854,14.837-0.241,30.436,3.769,45.031C889.79,864.826,874.191,855.764,891.956,856.485"/>
	<path id="path5372" fill="#0000FF" stroke="#A5A7A9" stroke-width="1.0025" d="M1104.483,873.809
		c-10.306-0.963-14.957-10.827-25.624-11.469c-13.553-0.842-18.445,10.466-29.834,16.602c-7.338,3.97-17.042-6.456-22.856,0.28
		c-2.566,2.968-0.16,8.261-1.323,11.789c-1.845,5.694-7.018,9.183-11.027,13.233c15.839,2.646,21.413,13.192,33.523,21.895
		c13.353,9.583,32.159,2.365,44.55,10.946c6.056,4.171,10.907-2.687,18.888,2.286c5.213,3.248,8.541,7.699,12.189,12.431
		c3.409,4.411,7.579,6.696,13.193,7.178c9.303,0.762,4.852-15.559,4.611-22.616c-0.281-8.741-1.443-13.312,8.781-11.589
		c7.499,1.283,14.236,5.294,21.093,8.381c6.616,2.968,17.563,8.862,18.405-0.802c0.682-7.458,1.243-14.957,0.682-22.416
		c-1.443-16.32-22.055-20.771-35.327-24.54C1136.844,880.345,1122.969,875.572,1104.483,873.809"/>
	<path id="path5374" fill="#00FF00" stroke="#A5A7A9" stroke-width="1.0025" d="M1074.85,933.837
		c-15.759-1.162-26.506-5.733-37.533-16.922c-11.027-11.188-21.895-10.185-35.488-15.599c-16.039-6.416-28.751-16.24-46.274-19.167
		c-10.747-1.805-21.653-2.406-32.561-2.968c-10.466-0.562-19.89,2.928-20.01-9.143c-0.04-3.89,0.16-8.902-3.409-11.469
		c-3.087-2.205-14.234-4.25-16.842-0.32c-1.684,2.526,1.725,7.819,1.725,10.626c0,6.216-7.178,7.859-11.067,11.308
		c-2.526,2.286,2.406,9.424,2.526,13.875c0.24,8.301-1.965,16.561-1.043,24.901c2.006,17.443,11.349,31.318,10.867,49.604
		c12.792,0.562,19.528,12.712,32.12,13.955c16.16,1.563,33.884-0.201,50.044-1.163c17.162-1.043,35.688-3.408,51.648,4.371
		c7.739,3.769,14.917,7.378,23.538,8.621c6.817,1.002,14.035,1.123,20.331,4.33c12.951,6.657,15.237,24.101,28.711,29.955
		c8.26,3.608,17.202,1.563,25.784,1.002c7.698-0.521,3.608-13.794,2.365-19.849c-3.168-15.479-9.263-30.155-14.355-45.032
		C1099.511,945.947,1095.781,935.401,1074.85,933.837"/>
	<path id="path5376" fill="#00FF00" stroke="#A5A7A9" stroke-width="1.0025" d="M875.836,923.411
		c-4.05-12.431,6.175-31.397-4.171-41.583c-9.143-8.982-26.706-3.649-37.894-3.168c-5.133,0.201-11.749-8.621-17.243-11.107
		c-8.821-4.01-12.711-2.085-20.892,2.526c-12.511,7.018-13.754,27.228-32.36,17.684c-0.28,4.05,6.416,3.409,9.424,7.339
		c3.128,4.09,4.651,9.343,5.613,14.315c-14.556,5.975-28.951,1.243-43.989,1.965c5.254,11.107,6.176,22.095-4.611,30.114
		c-4.21,3.168-9.784,4.09-13.514,7.939c-4.771,4.933-3.729,13.033-11.428,15.358c11.669,19.288,34.807,10.306,52.65,13.714
		c20.411,3.89,27.508,23.258,50.807,20.491c-0.481,11.749,8.18,27.228,21.012,28.311c4.01,0.36,8.541-3.649,13.072-4.371
		c8.02-1.203,14.315-11.228,20.33-16c2.206-1.885,4.692-3.248,7.419-4.17c-0.842-4.05-2.085-8.421-1.323-12.592
		c1.323-7.178,8.421-15.999,14.917-19.368C894.081,965.355,878.482,931.632,875.836,923.411"/>
	<path id="path5378" fill="#00FF00" stroke="#A5A7A9" stroke-width="1.0025" d="M716.199,949.477
		c5.976-6.176,14.957-6.617,19.81-14.557c4.611-7.499,1.725-16.24-1.725-23.538c6.978-0.321,46.114,5.653,43.188-5.534
		c-3.85-14.757-15.679-16.561-25.223-26.104c-8.501-8.501-13.714-18.967-21.733-27.388c-4.973-5.254-10.547-8.021-16.201-12.19
		c-5.573-4.131-6.375-14.797,2.968-12.632c-2.325-12.271-12.792-27.789-21.213-37.052c-1.523-1.765-3.408-2.927-5.653-3.569
		c-5.734-1.483-2.768-2.125-7.94-5.012c-5.453-3.048,0.843-10.386,3.369-12.952c-6.256-0.2-13.634,0.762-17.965,5.814
		c-4.973,5.774-5.534,11.949-15.238,7.178c-7.098-3.489-28.069-26.786-33.162-9.424c-1.925,6.616-4.331,4.371-11.549,4.131
		c-5.453-0.161-10.947-0.321-16.36,0.4c-9.504,1.283-18.566,4.692-9.343,13.955c5.012,5.013,12.351,7.659,15.397,14.436
		c4.291,9.504-0.962,20.531,3.81,29.954c7.379,14.597,26.867,16.281,37.293,27.95c6.376,7.097,8.14,16.922,13.353,24.781
		c4.853,7.298,12.552,11.067,18.446,17.242c6.336,6.657,5.493,15.358,8.341,23.499c2.486,7.138,7.458,13.032,10.626,19.849
		c2.446,5.213,5.253,15.238,12.07,16.28C711.388,966.599,711.428,954.368,716.199,949.477"/>
	<path id="path5380" fill="#00FF00" stroke="#A5A7A9" stroke-width="1.0025" d="M686.205,782.942
		c0.401,3.288,12.15,10.507,15.559,16.401c5.614,9.664,13.394,16.721,15.559,28.189c-7.458-1.724-9.263,5.414-5.133,10.587
		c4.611,5.774,13.072,8.621,18.366,14.194c9.663,10.186,15.559,23.98,27.708,32.4c23.098,16.08,22.656-9.423,39.819-15.679
		c21.373-7.779,11.829-27.628,1.203-41.021c-11.429-14.396-15.84-34.445-23.699-50.847c-2.887-6.015-7.298-8.621-2.526-13.433
		c1.885-1.925,2.526-4.331,1.003-6.697c-3.128-4.892-10.546-7.338-15.96-8.421c-8.701-1.684-18.687-1.804-27.468-1.283
		c-10.466,0.602-11.87,6.136-19.088,11.99c-7.739,6.296-18.045,1.725-25.743,9.584C681.714,773.198,676.501,781.86,686.205,782.942"
		/>
	<path id="path5460" fill="#808080" stroke="#A5A7A9" stroke-width="1.0025" d="M43.25,389.888c-0.802,1.443-2.967,1.162-3.81,2.445
		c1.283-1.283,4.291-0.842,4.692-2.887c0.28-1.403-0.321-2.446-1.083-3.448C43.49,387.361,43.891,388.725,43.25,389.888z"/>
	<path id="path5464" fill="#808080" stroke="#A5A7A9" stroke-width="1.0025" d="M40.683,382.269c0.04,0.12,0.12,0.24,0.201,0.36
		c-0.081-0.32-0.081-0.682-0.041-1.042c0.201-1.243,0.922-2.486,0.682-3.609c-0.361,0.642-0.722,1.203-0.962,1.805
		C40.482,380.624,40.442,381.507,40.683,382.269z"/>
	<path id="path5468" fill="#808080" stroke="#A5A7A9" stroke-width="1.0025" d="M39.079,398.509l-0.401-1.163
		C38.678,397.747,38.838,398.147,39.079,398.509z"/>
	<path id="path5480" fill="#808080" stroke="#A5A7A9" stroke-width="1.0025" d="M42.648,384.394c0.04,0.321,0.161,0.682,0.281,1.003
		c0.08,0.12,0.16,0.24,0.2,0.36L42.648,384.394z"/>
</g>
</svg>
