<?xml version="1.0" encoding="utf-8"?>
<!-- Generator: Adobe Illustrator 16.0.0, SVG Export Plug-In . SVG Version: 6.00 Build 0)  -->
<!DOCTYPE svg PUBLIC "-//W3C//DTD SVG 1.1//EN" "http://www.w3.org/Graphics/SVG/1.1/DTD/svg11.dtd">
<svg version="1.1" id="svg2" xmlns:svg="http://www.w3.org/2000/svg"
	 xmlns="http://www.w3.org/2000/svg" xmlns:xlink="http://www.w3.org/1999/xlink" x="0px" y="0px" width="950px" height="780px"
	 viewBox="0 0 950 780" enable-background="new 0 0 950 780" xml:space="preserve">
<g id="LA_county_base_map">
	<path id="path4333" opacity="0.98" fill="#00FF00" enable-background="new    " d="M917.631,21.069v170.676h5.055v73.674
		l7.581,101.084l-16.911,79.506l-26.179,83.574l-1.62,9.929l-3.896,1.673l-16.9-3.229v12.209l-9.067,0.27l-9.367,18.739l0.104,4.954
		h4.631l-0.053,8.939l5.601,5.271l-68.438,0.484l-4.737-1.188v0.915l-31.017,0.217v27.946h-4.577v4.415H743.1v4.954h-4.846v4.687
		h-4.577v4.688h-9.37v4.846h-4.17L707.88,654.2v6.298l-2.048,2.369v7.593l-3.852,2.366l-1.591,0.703l-6.085,7.377l-1.729,6.469
		l-6.241,10.655l3.555,7.539l-0.127,12.679l-4.231,8.461l-5.832,5.637l-16.066,4.066l-55.854,10.318l-15.273-4.849l-3.623,2.129
		l-1.812-1.979l-3.224,1.991l-3.672-0.021l-1.943-2.722l-9.329-2.722l-4.082-2.916l-15.354-5.831l-5.641-6.609l-6.414,0.777
		l-2.916-3.894l-10.105,4.082l-3.5-3.104L517,721.648l-1.942-8.747l-4.666-8.558l1.167-2.523l-2.916-1.749l2.143-6.026l9.33-5.638
		l-0.775-3.307l3.691-3.497l3.497-1.169l1.56-7.39l-0.195-15.552l-13.021-33.824L503.2,596.071L489,570.612l-14.771-20.605
		l-10.688-11.08l-14.97-10.104l-10.106-0.778l-7.772-2.138l-6.414,2.521l-7.974-0.972l-6.605,1.556l-13.605,0.194l-14.969-1.556
		l-6.222,0.771l-2.333,4.083l-8.165-0.584l-5.054,1.562l-17.884-2.145l-6.223,0.979l-3.499,3.688l-9.523,0.393l-6.026,2.14
		l-4.857,8.355l-6.609,4.274l-18.854-16.718l-10.312-5.05l-16.523-2.916l-14.968-2.527l-6.221-1.749l-3.11,1.36l-4.859-1.561
		l2.523-18.855l82.28-59.663h65.102l0.271-46.312h19.116l-0.218-20.407l-1.613-12.867L260.585,20.875h8.555L267,26.707l4.473,4.859
		h11.856V21.069H917.631z"/>
	<path id="path4335" fill="#00FF00" d="M308.519,598.284l19.1,3.383l17.188-1.842l11.495,12.396l7.229,3.564l2.137,5.572
		l2.365,1.999l9.312-4.604l20.358,12.688l27.521,6.957l4.096,5.423l5.628-0.518l2.763,2.864l-1.323,10.061l19.438,21.048
		l3.479,8.287l4.397,1.433l5.46,8.137l2.623,6.802l-1.021,7.979l-11.562,6.139l-16.438-10.438l-11.974-2.778l-15.146-0.255
		l-17.174,0.204l-13.856-4.229l-13.71-21.07l3.479-6.957l-2.149-3.377l3.684-1.739l-0.921-2.354l4.194-1.842l-0.819-2.864
		l-2.046,0.517L372.97,645.1l-1.006-6.136l-3.125-2.836L362.065,633l2.495-6.572l-5.071,3.023l-1.58,5.979l-1.891-1.818
		l-4.262-4.264l-5.614,0.971l-0.205-2.454l-7.859-1.438l-3.771,1.409l-4.229-0.995l-6.019-3.438l1.595-2.689l-0.896-2.364
		l-2.346-0.442l-9.318-12.648l-3.376-1.125L308.519,598.284z"/>
	<path id="path6275" fill="#00FF00" d="M371.755,722.588l-13.185-13.656l-31.625-25.553l-18.841-19.27l-7.074-3.938l-11.973-8.856
		l-9.654-17.636l-5.439-3.817l-7.562-10.642l-2.667-8.104l-6.139-4.092l-4.098-9.896l0.626-1.979l-5.684-5.093l-6.021,2.404
		l-5.18-3.27l-4.792,2.208l-0.298,10.043l4.708,0.51l4.26,1.617l2.983,7.12l2.817,6.539l0.757,7.615l4.146,8.058l2.499,3.036
		l8.157,9.49l1.544,9.101l2.298,3.318l-0.816,4.163l3.093,3.896l0.71,3.101l4.396,2.842l6.516,9.645l-0.006,2.271l7.561,4.902
		l4.417,15.911l13.322,7.375l2.125,3.452l6.479,4.116l5.573,4.828l2.369,0.377l2.479,3.283l4.801,0.03l1.742,7.217l1.758,0.145
		l4.868-5.195l5.188-0.983l5.292-6.24l7.312-1.45l5.21,1.68l5.036-0.582l5.531,3.396l0.814-1.751L371.755,722.588z"/>
</g>
<g id="LA_county_outlines">
	<path id="path2374" fill="none" stroke="#000000" stroke-width="2.5" d="M589.623,742.404l0.433,0.694l-1.187,0.915l-0.162-1.292
		l-2.312-0.97l-1.455,0.916l-0.807,1.347l-3.717,0.106l-0.699-1.669l-1.238-0.97l-1.988-0.06l-6.52-3.177l-1.725,0.593l-2.424-2.208
		h-0.646l-0.054-1.072l-1.832-0.059l-5.763-2.585l-2.369-1.021l-0.812-1.075l-1.938-0.059l-1.188-0.857l-1.235,0.479l-0.859-0.158
		l-0.161-1.613l-0.916-0.594l-0.216-1.237l-3.607-3.556l-1.938-0.646l-1.509,0.539l-0.595,1.186l-0.482,0.059l0.105-1.131
		l-1.021-0.599l-1.188,0.976v0.479l-1.186-1.021l0.271-0.812l-0.754-0.969l-2.479-0.862l-2.1,0.323l-1.938,1.348l-2.047,0.106
		l-0.322,0.539l-1.076,0.215l-1.348,1.454l-1.562-0.7l-0.218-0.808l-0.86-0.161l-0.056-1.131l-0.756-0.646l-3.932,0.323
		l-0.161-1.616l-0.698-0.856l-0.162-0.757l-0.537-0.695l0.646-1.132l0.161-0.757l-0.812-0.697l-1.075-0.271l1.075-0.538l0.538-0.27
		l-0.699-0.915l-0.696-0.162l-0.377-0.592l0.592-0.436l-0.859-0.646l-0.433-0.916l-0.812-1.615l0.594-0.809l-1.613-0.377
		l-0.971-0.755l0.594-0.435l0.055-1.021l-1.131-0.058l-0.483-0.593l1.188-0.916l0.481-1.077l-0.696-1.186l-1.132-0.483l-1.615-0.322
		l-0.161-0.696l1.237-1.188l0.48-1.075l0.217-2.15l2.208-2.266l2.584-2.368l4.577-1.887l0.377-0.538l-0.32-1.669l0.104-2.047
		l2.369-2.312l2.746-0.916l0.481-0.434l1.397-0.321l0.915-3.933l0.646-3.067l0.217-7.81l-0.056-5.386l0.056-1.991l-0.433-1.616
		l-0.482-0.858l-0.434-1.075l-0.916-0.646l-1.186-1.021l-0.861-1.453l0.435-0.056l0.646,1.291l1.35,0.859l-0.057-0.97l-1.236-1.454
		l-0.216-1.021l-0.595-0.105l-1.346,1.021l0.969,3.5l2.424,1.888l-0.216,0.27l-2.314-1.83l-1.186-3.932l1.397-1.077l-0.973-4.954
		l-2.262-7.377l-3.396-8.347l-3.658-8.077l-2.908-6.785l-3.446-8.292l-1.773-2.747l-0.914-2.477l-1.188-4.039l-2.1-4.688
		l-1.454-1.452l-3.718-8.075l-1.021-2.368l-0.915-1.077l-1.562-1.398l-1.236,0.812l-0.055-0.162l1.186-0.754l-0.646-0.861
		l-0.271-0.538l-1.075,0.699l-0.104-0.161l1.186-0.754v-1.4l-2.369-3.769l-1.99-3.181l-3.282-3.981l-1.07-1.073l-0.321-1.562
		l-3.067-4.199l-2.528-3.556l-3.5-4.47l-2.425-1.831l-1.075-0.755l-0.973-2.207l-4.415-4.634l-3.444-2.585l-2.479-2.479
		l-3.178-1.885l-3.661-1.889l-3.556-1.884l-2.046-0.916l-3.935-0.104l-1.562,0.809l-1.562-0.432l-4.687-1.889l-2.425-0.161
		l-1.775,0.538l-1.077,0.915l-1.396-0.377l-1.188,0.323l-1.021,0.86l-2.584-0.162l-2.641-1.021l-2.586,0.162l-3.395,0.215
		l-3.444,1.776l-4.2-0.377l-3.395-0.593l-1.508,0.81l-4.473-0.104l-0.697,0.432l-3.554-0.97l-2.101-0.271l-0.378-0.432l-0.754,0.699
		l-7.539-0.974l-4.036-0.215l-2.747,0.699l-1.886,1.562l-0.321,1.726l-0.323,0.859l-1.346,0.483l-1.777-0.218l-2.746-0.646
		l-3.931-0.104l-2.908,1.349l-2.154,0.435l-1.723-0.756l-2.208-0.538h-4.039l-5.116-0.914l-2.423-0.219l-2.962,0.322l-3.017,0.271
		l-2.101,1.021l-1.616,1.397l-0.969,1.67L327.541,536l-4.47,0.539l-5.062,1.509l-2.369,0.592l-1.454,2.208l-1.4,2.154l-0.916,1.884
		l-0.377,0.377v1.993l-2.313,0.86l-2.423,0.754l-1.133,1.292l-0.054,1.831h-1.238l-1.237-1.562l-2.479-2.53l-1.077-1.772
		l-2.746-2.53l-5.438-5.273l-4.954-3.983l-4.687-2.962l-3.5-1.562l-2.477-0.754l-0.811,0.754l-7.057-2.367l-6.031-0.32l-3.606-0.812
		h-2.531l-2.262-1.233l-2.584-0.162l-1.725-0.538l-3.5,0.104l-2.1-1.348l-2.208-0.7l-2.369-0.479l-2.152,0.479l-1.133,1.077
		l-5.331-1.131l2.048-19.225l48.946-35.485l33.333-24.179h65.103l0.27-46.312h19.116l-0.218-20.408l-1.612-12.868L260.585,20.875
		h8.555l-1.75,3.693L267,26.707l0.974,1.555l2.722,3.305h12.635V21.069h634.301v170.676h5.056v73.674l7.581,101.084l-16.911,79.506
		l-26.24,83.783l-1.559,9.72l-3.499,1.749l-17.301-3.305v12.209l-9.067,0.27l-9.371,18.739l0.108,4.954h4.631l-0.055,9.154
		l5.601,5.062l-68.438,0.484l-4.737-1.188v0.915h-25.577l-5.438,0.222v27.941h-4.577v4.415h-4.736v4.954h-4.848v4.688h-4.576v4.685
		h-9.369v4.846h-4.688v2.531h-2.424v2.154h-2.425l-0.161,3.604H712.4v2.154h-2.423v2.639h-2.103v7.107l-1.131,0.857l-0.915,1.512
		v7.593l-4.474,2.746l-0.969,0.322l-3.822,4.734l-2.264,2.644l-1.725,6.462l-1.992,2.854l-4.254,7.812l3.555,7.538l0.106,4.309"/>
	<path id="path2376" fill="none" stroke="#444444" stroke-width="2" d="M591.223,742.679l1.271-0.788l15.275,4.85l6.805-1.361
		l48.984-8.939l16.137-4.084l5.832-5.638l4.231-8.461l0.409-6.211l-0.025-2.218"/>
	<path id="path3365" fill="none" stroke="#000000" stroke-width="2.5" d="M489.09,575.421l0.483,2.8l1.396,1.939l0.539,0.484"/>
	<path id="path5305" fill="none" stroke="#000000" stroke-width="2.5" d="M307.976,598.188l19.644,3.479l17.188-1.842l11.254,12.271
		l7.469,3.688l2.354,6.139l2.146,1.438l9.312-4.604l20.358,12.688l19.746,5.729l7.771,1.229l4.096,5.424l5.628-0.518l2.763,2.864
		l-1.842,9.413l8.799,10.947l11.15,10.742l3.479,8.288l4.397,1.432l5.317,7.775l2.767,7.158l-1.022,7.979l-11.562,6.139
		l-15.854-10.229l-7.161-2.562l-15.449-1.228l-14.319,1.534l-10.334-1.022l-11.458-3.989l-6.037-8.082l-7.673-12.99l3.479-6.956
		l-2.149-3.378l3.685-1.738l-0.923-2.354l4.195-1.843l-0.819-2.861l-2.046,0.514l-1.229-7.161l-2.046-4.812l-0.309-6.551
		l-2.147-3.783l-4.604-1.125l-4.297-2.658l2.865-6.347l-5.32,3.174l-1.33,5.831l-1.841-0.408l-0.103-2.97l-4.297-2.764l-5.525,1.021
		l-0.205-2.455l-8.39-1.533l-2.25,1.737l-5.22-1.229l-0.102-1.433l-6.037-2.048l1.944-2.048l-1.125-2.969l-2.251-0.308l-5.627-8.394
		l-1.944-0.309l-1.842-4.094l-3.376-1.125l-0.205-2.766L307.976,598.188z"/>
	<path id="path6276" fill="none" stroke="#000000" stroke-width="2.5" d="M342.3,729.804l1.938-1.885l0.646-1.992l2.962-2.8
		l4.521-1.831l4.092,0.323l4.2,1.615l3.5-1.077l2.641,0.808l4.469,3.069l0.861-1.508l-0.376-1.938l-12.01-12.654l-7.321-6.246
		l-4.9-3.77l-7.485-6.785l-7.592-5.977l-5.385-3.662l-11.147-11.312l-7.808-8.071l-4.038-1.616l-7.054-5.385l-8.133-5.929
		l-2.208-3.393l-7.27-14.108l-5.439-3.817l-1.885-3.396l-5.492-6.677l-2.854-8.67l-2.639-2.8l-3.5-1.292l-0.433-2.154l-3.877-7.323
		l1.023-1.991l-0.971-2.102l-4.898-3.393l-6.731,2.688l-2.585-1.562l-1.884-1.992l-4.792,2.208l-0.377,6.677l-0.539,2.692
		l1.185,1.293l1.51-0.437l4.846,0.598l2.046,1.347l2.639,5.223l0.971,5.331l2.854,4.039l-0.162,6.246l4.146,7.054l0.538,3.021
		l4.254,2.801l2.585,3.5l2.69,2.854l2.048,4.356l-0.271,5.654l2.908,4.2l-0.969,1.562l0.159,2.746l3.069,2.962l0.054,3.285
		l1.726,1.562l2.423,0.812l2.854,3.339l1.4,3.5l3.662,4.469l-0.593,1.616l5.978,3.661l1.562,1.077l1.346,2.478l-0.431,2.584
		l1.454,4.476l1.613,2.147l0.433,2.316l-0.594,1.83l2.479,1.077l3.984,3.279l2.478,1.238l2.639,0.811l2.424,1.235l1.132,1.131
		l0.646,2.208l1.615,0.646l1.993,0.7l1.776,1.938l2.424,1.615l2.584,2.477l2.046,1.729l2.369,0.377l1.775,2.262l0.7,1.022
		l2.479-0.759l2.854,0.975l1.077,3.77l0.054,3.23l1.4,0.539l2.262-1.89l2.908-3.659L342.3,729.804z"/>
</g>
<g id="Cities">
	<path id="Malibu" fill="#00FF00" stroke="#000000" d="M242.094,522.807l0.163-2.228l2.048-5.218v-4.297l1.637-3.069l24.657,9.515
		l0.103,2.046h0.204v4.399h4.707v-1.943l0.512-1.33l1.023,0.921v-1.529l5.013,2.455l7.878,2.047l9.517,1.938l10.229,0.409
		l-0.511,1.023l3.479,1.228l-1.229-2.046l7.264-1.842l7.062-0.512h19.951l1.637-0.409l4.706-0.104l0.817,1.74v2.558l1.434,1.438
		h1.433l-1.626-1.384l0.108-2.369l0.431-0.437l1.831,1.077l1.507,1.777l-0.646,1.185h3.339v-1.938l0.646-1.131l2.153-1.136v-2.688
		h6.623l1.454-1.131h17.285l6.893,1.453h27.519l1.939,5.335l-4.479-1.131l-6.319,0.575l-3.456,1.532l-7.005-0.896l-7.326,0.971
		l-7.25-0.961l-10.753-1.034l-4.329,2.078l-0.832,2.738l-1.507,0.466l-7.85-0.938l-5.506,1.771l-4.038-1.293l-10.643-1.062
		l-6.954,0.59l-2.854,1.733l-1.683,2.288l-9.322,0.836l-7.278,2.205l-3.862,6.273l-0.16,2.149l-4.738,1.615l-1.51,3.123l-3.022-2.45
		l-10.819-11.179l-10.632-7.416l-5.141-1.794l-0.668,0.623l-6.857-2.269l-12.396-1.207l-3.011-1.282l-7.061-0.549L242.094,522.807z"
		/>
	<path id="Santa_Clarita" fill="#00FF00" stroke="#000000" d="M483.971,316.284v4.739l-7.216-0.758v-1.021h-4.038v-0.969h-3.877
		l-1.238,2.312l1.399,7.435l-1.187,4.308l-2.313-0.107v-2.585h-2.264v-1.396h-2.423v-2.104l-3.123-1.885h-4.2v-1.938h-9.854
		l-1.615-1.889l-0.855,0.597v0.377l0.215,0.161v0.913h-2.746l-0.594-1.074l-1.291,0.319l-0.595,0.06v-1.889l2.047,0.323l1.292,0.484
		l1.562-1.131l0.915-0.377l-6.729-11.954l-1.938-6.3l-1.725-10.07l-5.924-14.539l-6.19-7.215l-6.141-3.985l-2.479-2.8l1.398-1.454
		l0.916,1.562l1.293-0.592l0.97,2.1l1.35-0.108l0.971-0.862l1.67,0.539l0.322,0.7l3.229-1.346l1.349,0.754h3.395l-0.914-2.262
		l-0.106-1.238l-1.562-1.831l-0.377-0.269l3.177-3.231l2.103-0.377l1.188,1.615l-0.861,1.938l1.35,1.508v2.262l-0.859,0.592
		l0.539,2.154l1.077-0.054l2.262-1.292l1.021,1.508l1.075,0.808l1.613-0.269v1.292h1.993v-1.938h0.432v-1.885l0.537-3.177
		l1.509-3.715l0.86-1.4l0.7-0.162l0.915-2.423l2.047-0.7l0.915,1.077l0.97,0.269l0.216-1.454l1.237,1.615l0.217,0.539v-5.062
		l0.646-1.292l1.83-0.162v-0.861h1.396v-0.916h2.643v2.746l0.646,0.485v3.069h-2.688v4.254h3.441l1.399,1.131l0.809-1.131h3.878
		v2.477l0.812,0.539v2.315h1.771v-1.562h1.076l0.7,1.454h0.969v-5.708h2.37v-1.669h2.907v2.208h1.396v2.585l-0.914,1.4v2.692
		l0.859,1.454v1.4l-5.17,0.323v4.792l5.062-0.216v-2.208h4.521v2.531h7.916v-2.369h1.775v7.108h3.716l0.161,2.262h4.576v-1.616
		l0.972-1.023v-2.208h4.685v-2.369h2.962v0.592h1.615v2.046h7.594v-2.531h-2.424v-1.131h2.479v-3.985h4.472v-0.7h1.614v-1.238h2.047
		l0.378,0.054v1.508l2.1,0.215v-2.315h-1.613v-2.262h2.207l0.271-0.969h-0.861l0.216-1.346l0.975-0.215v-2.1h2.688v3.931
		l-1.075,1.185v2.638l-1.188,3.339l-0.161,1.454v3.015h0.538v1.185l-8.131,4.254h-4.849v2.046h5.764v1.723l0.916-0.215v4.2h2.8
		v10.77H525.4l-0.857-1.454l0.271-1.077l-2.312-2.423l-2.266,1.077v1.346l1.776,1.831h1.077v3.984h3.178v5.816h-4.848v2.583h-1.291
		l-0.862,1.076h-1.187v-1.396h-5.062v-7.324l-0.483-0.915v-10.771h0.972l-1.397-1.723l1.188-1.938h-3.229v-4.685l-5.331,3.016
		l-2.208,1.292l-1.076,1.562h-3.281v1.346h-4.097l-1.452,1.939l0.756,0.215v2.046h-2.265l2.423,1.454l0.7,0.754l-1.077,1.238v4.308
		h12.012v2.369h4.952v3.554h-1.829v7.107h-1.188v-1.83h-1.507l-0.539-0.539h-1.4v1.992h-1.072v-2.854h-0.86l-0.646-0.855h-1.991
		v-2.693h-7.646v-4.685h-4.521l-1.398-1.023l-7.323,6.354l-6.244,6.3l-0.859,1.831h1.886v2.688H476v-1.724h1.399v-1.077h2.152v3.123
		L483.971,316.284z"/>
	<path id="Avalon" fill="#00FF00" stroke="#000000" d="M446.926,702.968h11.199v-8.131l4.847-6.192v6.192l1.077,2.154l2.639-2.37
		l2.104-0.054l-4.575-7.222L459.744,686l-3.339-8.396l-2.907,0.157l-0.321,0.757l0.646,0.811h1.396l-0.055,0.592l-6.191,8.562
		l-1.885,12.01L446.926,702.968z"/>
	<path id="Lancaster" fill="#00FF00" stroke="#000000" d="M627.53,144.778V135.3h5.062v-9.747h-2.423v-2.908h2.8v-4.2l-1.724-3.123
		l-2.479-2.479l-1.511,1.454v5.115h-1.885v1.616h-1.991v-4.9h-2.369v9.047h-2.263v4.469h-1.886v2.8h2.688v2.477h-3.178v-2.208
		l-2.64,0.162v2.8h-4.577V133.2l1.021-0.431v-0.431h1.988v-0.862l0.861-0.861h0.915v-2.369h-2.423v2.638h-2.369v2.154h-1.509v-1.292
		h-0.86v1.292h-2.369v2.639l-0.432-1.562l-1.132-1.131l-1.452,1.454v1.292h-25.359l0.161-4.469l-3.5-2.692l-1.398,0.592
		l-0.698-0.592l-0.159-1.077l-1.562-1.077l-0.972-0.27h-1.292v-0.861h1.292v-2.262h-1.186v-6.246h2.424v-2.854h-2.479v-6.677h4.849
		v-7.162h2.207v-2.692h2.368V92.76h-4.625v-4.469h-2.689V86.03h2.585v-2.531h-2.585V81.13h2.689v-1.938h2.207v2.154h2.585
		l-0.377-9.423H574v2.423h-2.207v-0.969h-2.312V75.8h-1.348v-1.454h-1.396l-0.271-1.723h3.339v-2.854h-1.237v-2.262H566.2v-1.023
		h2.366v-6.247h4.634v-4.792h2.641v4.792H573.2v6.247h-2.208v3.069h9.312v4.687h3.396v1.398h-3.605v0.969h2.69v1.346h-1.131v0.916
		h1.073v4.846h2.369v-4.846h2.313v2.262h-1.021v2.746h3.501V81.13h2.312v2.638h2.315v-1.292h2.205v2.208h-2.15v5.87h3.771V88.13
		h5.924v-2.477h-2.745v-1.077h0.86v-1.185h1.775V60.075h42.271v18.578h23.805v9.639h38.179v13.947h9.641v4.954h3.822v-2.423h1.021
		v2.315h6.841v2.262h1.396v-2.477h20.624v7.108h4.737v-2.369h2.312v-2.37h1.133v-2.208h1.132v4.631h4.849l0.017,0.895h2.354v3.628
		h4.736v9.585h-4.688v-4.9h-2.312v-4.523h-9.53v9.208h-2.152v0.377h-7.104v-2.477h-5.011v-2.531h2.367v-12.062h-2.312v1.562
		l-0.539,0.754l0.433,1.023v3.931h-2.64v2.046l-2.047,0.646l-0.012-0.593h-1.229v0.539h-1.291v-2.585h-2.369v5.062h4.953v2.423
		h-16.584v-2.747h4.685v-2.046h-7.377v7.054h-4.953v-3.877h2.104v-1.131h-3.122v2.692h-1.077v-2.746h-2.369v4.954H679.88v9.531
		h-37.748l0.054,9.424H627.53z"/>
	<path id="Palmdale" fill="#00FF00" stroke="#000000" d="M784.82,125.931H679.816v9.37h-21.701v10.447h0.646v3.931h1.831v3.608
		h0.754v1.239H660.7l-0.754,4.092l-3.605,0.215v3.016h-14.7v-11.793l-11.146,0.215h-2.962v-5.115h-7.055v-4.631h-6.784l0.055-4.847
		l-18.523,0.054v14.916l-0.377,1.131v2.208h6.785l1.131,0.431h15.188l1.021-0.754h1.67l0.7,0.592l0.754,0.646l1.131,0.539v1.239
		l-0.698-0.7l-1.236-0.162l-1.67-1.185l-1.076,0.862v3.446h4.471v4.846h-4.521v4.954h-4.312l-0.646-0.7v-1.023l0.81-0.592
		l-0.105-0.592l-3.878-1.508l-0.971,0.161l-9.746-5.546h-1.67v1.723h1.562v1.562h-4.36v8.292h2.585v2.746h2.423v2.37h-7.055v-2.423
		h-4.737v2.315h-2.212v16.693h17.396v12.547h18.521v-2.316h11.688v-2.315h2.312v-7.054h-3.018v-0.808h18.578v-5.762l1.992,2.315
		l1.83-0.646h1.186l1.67,1.669h0.809v-2.262h4.737v4.792h7.217l-1.724,1.723l0.432,1.616l1.236-0.323l-0.159-1.077l1.291-1.508
		l1.562,0.27v-0.754h5.273v3.608l4.254,6.946l-0.161,0.754l1.83,2.8l1.831-0.646l1.775,1.238l1.773-1.562l3.284,0.485l1.237,0.969
		l1.348-0.969l1.188,1.4v13.678h10.662v2.692h3.395v-2.585h4.414v-5.384l-6.245-3.985h-8.077v-3.877l-1.562-0.916h6.518v1.831
		l0.7,0.162l0.479-0.431h1.237l1.077,0.539h0.969l1.131,0.916l1.293-0.592v-3.123l0.758-0.754l-0.86-0.916v-2.369h8.508v1.185h3.662
		l0.216,3.662H730l3.066,2.746l1.938,4.039h4.578v-2.154h2.207v-4.577h1.077v-1.615h1.453l2.102-2.1v-2.1h1.237v-1.616h1.077v-0.969
		h1.453v-4.146h1.187v-2.208h0.537l-0.215-2.1h-4.521V173.32h37.691L784.82,125.931z"/>
	<path id="Pasadena" fill="#00FF00" stroke="#000000" d="M649.699,473.756l1.094-1.204l-2.047-0.7l-1.131,0.7v0.915l-2.746,1.077
		l0.433-2.315h-1.938l-0.538-1.825h-1.075v-1.292l-1.562-1.615l0.318-0.916l-0.48-0.969l0.857-0.76l-0.695-0.808h1.45l1.511-1.396
		l-2.153-2.806v-2.131l1.287-0.199l-0.938-7.022l-0.904-1.846l-1.812-1.812l0.537-0.991l-1.22-1.645l-0.396-2.692l1.279-3.03
		l2.812-1.136l1.074,0.539l1.021-1.131l1.508,0.104l0.538-0.972l0.81-0.104l-0.81-1.615h-1.236l-1.509-1.131l1.348-1.132v-3.606
		l1.992-2.747h0.971v0.812h0.595l2.312-2.806v-1.989l-1.348-0.104l-2.53-0.916l-0.809-1.346l0.698-1.729l-1.728-0.754v-1.131
		l-3.065-1.346V412.3l1.453,0.7v-0.593l-0.699-0.915l-1.075-0.162v-0.915h-1.562v-0.938h4.134v4.961h8.104l-0.312,1.188l-1.307,1.53
		l0.651,0.879v1.672l0.68,1.134l0.539,0.597l0.854,0.196v1.077l1.271,1.53l-0.595,0.879l-1.077-0.767v-0.6L651.8,423.9l-0.562,2.489
		l-1.358,2.188l-0.256,0.991l-1.05,0.453l-0.453,1.271l1.273,0.793v2.069h-0.623v1.587l0.623,1.049h0.733v-1.021h1.898v1.072h11.677
		l5.557,3.032h1.784v0.992l6.659-0.229v3.714h1.561v-0.601h1.188v1.275h7.026v-0.511h1.588l-0.963-1.394l1.271-2.577h-1.757
		l-1.307-2.894v-2.062l-1.021-0.937l-0.229-0.907l-0.651-0.708l-0.112-0.735l-0.396-1.221l-0.907-1.896h0.794v-2.64h2.408v3.57
		l0.146,1.417v2.69l1.188,1.698l0.564,1.136l-0.564,0.709v0.709h4.278l-1.245,2.099v1.104l1.979,2.235v1.247l2.469,2.126
		l-0.026-0.904l-0.624-0.709l0.682-0.733l0.65-0.453l0.086-1.504l0.538-1.928h1.757v0.879l-0.904,2.041l-0.368,2.521l-0.145,2.187
		l1.759-0.368l0.085-1.188h-0.597v-1.758h0.709v-1.561h-0.396l1.188-1.698l-0.682-0.938v-1.896l2.125,0.793v-1.19h1.05v1.417h1.93
		l1.104,0.539v1.932l-1.358-0.709v10.347h0.284v4.421h-2.979v1.644h-2.125l-1.021,0.97v1.304l-1.529-1.134h-1.699l-0.991,0.623
		v0.193h1.812v1.53h2.722v1.981h-1.673v-0.877H695.1v5.043h-1.246v1.051H693.4v-1.418h-1.223v-1.562h-7.596v-0.937l4.252-0.113
		l-0.173-2.919h-1.758L686.537,463l-1.049-1.048h-1.136l-1.416,0.963l-0.683-0.562h-1.53v2.856h-1.843v2.638h-2.323l-7.025,2.237
		v2.016l1.357,2.383v1.104l0.479,0.566v1.104l-0.648,0.482h-2.382l-3.176-0.822h-1.188l-3.628-4.138l-1.076,0.905L649.699,473.756z"
		/>
	<g id="Long_Beach_1_" transform="translate(40.533333,-10.133333)">
		<path id="Small_hole_N" fill="#CCCCCC" stroke="#000000" d="M613.058,725.298h1.075l0.38-0.646l-0.862-0.808l-0.7,1.077
			L613.058,725.298z"/>
		<path id="Small_hole_SW" fill="#CCCCCC" stroke="#000000" d="M612.197,731.06l0.7,0.699l-0.482,1.454l-1.187-0.221L612.197,731.06
			z"/>
		<path id="Small_hole_E" fill="#CCCCCC" stroke="#000000" d="M623.506,733.321l1.237,1.239l1.022-1.293l-1.077-1.022
			L623.506,733.321z"/>
		<path id="Hole_near_port" fill="#00FF00" stroke="#000000" d="M566.764,717.37l2.248,3.378l-4.688,2.208l1.188,3.345l-0.162,0.269
			l3.295,9.758l-9.492,3.458l-1.332,2.862l1.646,4.646l5.644,1.359l1.077-1.104l-1.871-4.079l6.888-2.3l-4.336-11.424l1.929,1.701
			l5.896,1.219l7.085-2.636l-1.048-0.851l-1.932,0.794l-0.057-1.247h-0.597v1.441l-0.6,0.281v-1.389h-0.707l-0.341,1.587
			l-1.896,0.822l-5.979-1.247l-1.646-2.979l-0.479-1.271l11.421-4.055l1.051,3.028l2.152-1.247v-2.941l-1.104-1.729v-1.955
			l-2.102-2.976L566.764,717.37z"/>
		<path id="Long_Beach" fill="#00FF00" stroke="#000000" d="M598.668,638.399l-0.199,2.707h-11.311v3.77l1.777,0.599v2.901h-0.539
			l1.441,5.588h1.273l-1.87,4.646l-0.964,4.875l-0.645,4.653h-1.988l-1.237,3.229h-1.077l-0.755,1.239v2.638l0.434,1.353h-2.479
			l-1.508,1.021l-0.438,0.108l-0.215,3.188l1.188,4.135v5.812l-2.854,9.316l3.66,4.846l-10.605,9.154l0.554,0.434l7.109-2.067
			l8.358-4.338l0.539,0.965l-6.207,3.315l0.342,1.218l1.39,0.028l4.935-2.664l0.453,0.737l-1.416,1.672l-1.138-0.51l-3.482,1.672
			l-0.538,0.312l1.955,6.235h0.682v-3.202h0.879v4.308h1.188v-4.336h0.596v3.435h0.651v-3.52h0.938v4.937l-4.337,2.551l0.026,3.43
			l4.562,3.604v-1.53l-3.346-2.692v-0.396l3.74-2.126l-0.061,3.854l1.7,0.652h2.126v-4.562h1.247v3.854h2.493v1.332l-1.673,1.502
			h-3.854l-1.162,1.162l0.146,0.396l1.051,1.275h3.062v2.268h6.181v-2.806l-5.188,0.085l0.258-1.359h4.445l-2.21-6.888l1.359-1.162
			l-1.445-1.021l-1.587-0.396l-1.021-1.247h-1.478l-0.11-1.439l-2.016-0.968l-1.646-1.979l-0.82-2.211h1.358v1.134l1.646,1.417
			v-1.247h1.562v2.015l1.331,0.514l1.248-0.028l0.143-0.425l-0.938-0.513l-0.879-0.026l0.283-1.134l1.246,0.596l1.646,0.144v0.564
			l-0.966,0.229l-0.059,0.428l0.793,0.17l1.562-0.283l2.663-2.211l1.048-0.113l6.404,1.162l0.342-0.511l7.479,1.928l5.02,1.929
			l3.062,1.16l1.561,1.616l3.971,1.7l3.517,1.646l2.297,1.982l0.196,0.229l-2.099,4.251l0.17,0.111l2.979-5.271l-0.427-0.685
			l-0.905-0.255l-0.283-0.623l-2.099-1.442l-1.982-1.021l-1.843-0.34l-0.879-1.247l0.426-1.956l1.333-1.7l1.161-0.479h0.367v0.312
			l-0.735,0.283l-0.705,1.071l-0.427,0.732l1.135,0.938l1.104,0.709l1.104,0.681l1.078,0.684l1.188-0.146l0.905-0.905l0.938,0.512
			l1.306,0.026l0.312-0.597l-2.148-1.417l0.021-0.879l-1.502-1.392l-2.688-0.171l-0.795-0.17v-0.229l1.646-0.028l0.453-0.085
			l-1.927-1.389l-0.368-1.104l-2.041-2.319l0.991,0.022l3.969,3.971l0.854-0.598l-2.724-2.722l-0.282-0.027l1.273-0.171l4.762,5.646
			l-0.365,0.171l-2.438-2.522l-0.567,0.566l1.077,1.526l1.871,1.729l1.104,0.143l2.126,2.384l-1.76,1.021l-0.479-0.595l-0.479,0.479
			l0.598,0.709l-0.965,0.771l-0.564-0.513l-0.312,0.365l1.053,1.562l6.146-4.194l4.647-3.061l1.104-0.992l-0.192-4.211l-3.558-7.539
			l4.604-8.303l1.646-2.359l1.729-6.462l6.084-7.377l0.938-0.312l4.502-2.758v-3.123h-1.396l-0.435,1.238h-0.969v-1.238h-1.938
			v0.971h-2.049l-2.744-1.187l-1.187-3.067l0.646-0.537V673l-23.33-0.989v-8.394h-9.521v9.271h-4.166l-0.736,2.098h-1.389v0.821
			h-0.851v1.7h-1.114l-1.417-1.274h-1.842v4.449h-1.616v-5.045h1.417v-12.303h-2.211v-4.899h6.772v-2.017h-0.879v-1.812h5.979
			v-5.386h-2.552v-8.729h-14.229v-2.097L598.668,638.399z"/>
	</g>
	<path id="Hawaiian_Gardens" fill="#00FF00" stroke="#000000" d="M707.143,661.595l-0.938,1.525v4.6l-1.398-0.13l-0.432,1.238h-0.97
		v-1.238h-1.938v0.969h-2.048l-2.745-1.185l-1.187-3.069l0.646-0.538v-0.921v-1.502h1.354v-1.304l0.396-0.511v-1.247h3.229v0.879
		h2.664v1.077l-0.624,1.247L707.143,661.595z"/>
	<path id="Cerritos" fill="#00FF00" stroke="#000000" d="M681.531,641.193v4.646h3.004l2.409,7.567h6.547v-2.104h2.579v2.104
		l14.274,0.229V651h2.427v-2.154h2.207l0.158-3.604h2.428v-2.154h2.423v-2.531h4.685l-0.146-10.758l-4.532-2.806h-9.75v0.283h-4.506
		v-0.431h-2.354v1.36h-2.151v3.313l-1.358,0.087v2.403h-2.552v2.324h4.9v1.417l-0.99,1.021h1.246v5.754h-0.427v1.246h1.162v3.175
		h-0.991l-1.021-0.368v-1.646h-2.187l-2.773-2.521v2.979h-2.605v-3.007h-1.896l-0.685-0.562v-9.438h1.672v-2.749h-1.612v0.822
		l-0.513,0.595h-1.928v-5.895h-7.171v6.062l1.135,3.006h-1.021L681.531,641.193z"/>
	<path id="Artesia" fill="#00FF00" stroke="#000000" d="M692.727,631.642l7.146-0.022v2.409h-2.551v2.318h4.899v1.417l-0.992,1.021
		h1.248v5.753h-0.427v1.247h1.162v3.174h-0.991l-1.021-0.368v-1.644h-2.187l-2.773-2.522v2.979h-2.607V644.4h-1.896l-0.684-0.567
		v-9.438h1.673L692.727,631.642L692.727,631.642z"/>
	<path id="Signal_Hill" fill="#00FF00" stroke="#000000" d="M640.238,670.688l7,0.22v2.312h-1.4v0.916h-2.312v1.453h-1.021v4.688
		h2.047v-4.9h7.322v2.046h1.021v-0.754h1.35v5.224l1.886-1.562h2.207v4.521h-4.359v0.599h2.425v2.046h1.398l1.075,1.771h-8.67
		l-8.67-6.729v-2.207h-1.397L640.238,670.688z"/>
	<path id="Montebello" fill="#00FF00" stroke="#000000" d="M674.145,570.805l-6.132-7.408l0.684-1.134l1.104,1.162h1.077
		l1.982-3.458l-2.409-1.219l0.682-5.838l-0.708-0.481l1.104-2.189l0.058-1.461l0.34-3.01l-2.185-0.794l0.198-1.049l-6.915-5.385
		v-6.263h15.222l4.053,4.053l2.21-2.664h2.041l1.273-2.354h2.69l-6.121-1.587l-0.172-1.188l-0.793-0.602l2.689-2.097v-0.766
		l2.014-0.113l0.684,0.511l0.682-1.271l1.135,0.85l-0.964,1.134l2.04,1.615l0.145,0.771l3.854,0.851l0.512,1.983l1.981-0.906
		l2.322,2.834l0.229,2.892l-6.377,5.3l-4.311,3.457l0.649,0.968l-1.785,1.952l-0.623,2.493l-0.256,2.896l-3.005,1.05l-0.708,0.624
		l-0.538,1.358l-2.065,2.099l-0.564-0.113l-2.409,2.895l-0.818,2.065l-0.258,2.467l-1.271,2.663l-0.82,1.587L674.145,570.805z"/>
	<path id="Pico_Rivera" fill="#00FF00" stroke="#000000" d="M692.477,575.854l1.043,2.967l-0.142,1.842l-3.769,5.454l-9.388-7.354
		l-6.245-8.146l1.602-0.642l2.099-4.249l0.271-2.494l0.812-2.041l2.407-2.891l0.563,0.113l2.067-2.103l0.539-1.354l0.707-0.624
		l3.006-1.051l0.237-2.709l0.641-2.68l1.786-1.955l-0.651-0.964l3.882-3.108l4.45,1.153l1.846-1.697l2.466-0.904l0.795,0.73
		l3.739-0.312l0.479-0.651l2.551-0.086v-1.417l-1.049-0.935l1.135-1.729l-0.452-2.097l1.418,2.182l0.989,0.062l-1.159,0.991
		l-0.259,1.416v1.441l1.223,0.114v-2.324l1.896-2.183l1.05-0.396l3.263,2.494l-2.102,1.646l0.17,1.075l-1.757,0.479l-0.197,1.53
		l-1.305,1.188l-1.162-0.904l-1.021,0.854l-0.735-0.854l-0.709,0.882l0.651,0.766l-0.796,0.906l0.312,0.648l-3.117,0.366
		l-1.134,1.615l1.273,1.304l1.53-0.396l-1.614,1.896l-2.408,2.812l-1.021-0.053l0.104,1.613l-0.646,0.162l-0.16,1.292l-1.67,2.802
		v1.89l-1.562,3.279l-3.395,5.39l-2.854,4.146l-0.433,0.594L692.477,575.854z"/>
	<path id="Whittier" fill="#00FF00" stroke="#000000" d="M758.436,588.81l-5.65,0.222v11.953l-2.314-0.322l-4.254-2.369
		l-5.925,1.454v-3.608h-1.668v-1.992l-16.479-9.525l-4.951-1.352l-1.293-0.216l1.235,1.351l-1.348,1.45l-1.95-1.627l1.311-1.323
		l-3.312-0.599l0.963-1.672l-2.354-1.896l0.009-2.604l0.476-1.226l1.417,0.192l0.479-1.354l-1.189-1.332l0.566-0.511l-0.65-1.275
		l0.735-0.793l-0.595-1.275l0.732-0.539l-0.562-0.878l1.16-0.901l-0.854-0.771l-0.852,1.189l-0.821-0.821l0.479-1.162l-3.284-2.494
		l-1.983,2.211l-1.503-1.783l1.757-1.98l-1.502-0.907l-0.229-1.587l-3.006,0.542l1.261-2.107l1.209,0.806l0.28-0.061l-0.025-1.561
		l0.708-0.026l0.026-0.966l-0.479-1.218l2.729-3.186l2.938,2.357l0.454-1.021l4.192,1.39l5.522,0.426v-1.503h4.765v8.673h2.521
		h2.185v2.522h7.256v2.296h7.061v4.506h9.406v6.745h-4.446l1.356,2.689l-1.049,0.938l1.188,1.134l-3.543,3.117l-2.324,2.066h1.729
		l1.104-0.649l0.769,0.425h11.422L758.436,588.81z"/>
	<path id="La_Mirada" fill="#00FF00" stroke="#000000" d="M752.781,607.926v9.047h-4.578v4.415h-4.736v4.954h-4.848v4.688h-4.576
		v4.685l-9.438-0.008l-0.193-18.46h-2.637v-1.218h-0.854v-0.709h-0.768l0.021-6.125l0.352-0.06v-1.354h11.952v-1.037l-4.039-3.56
		l8.938-2.423l0.916,3.183l5.062-0.484v3.338l1.076,0.271v0.808L752.781,607.926z"/>
	<path id="La_Habra_Heights" fill="#00FF00" stroke="#000000" d="M759.352,586.466H748.02l-0.762-0.423l-1.109,0.65h-1.729
		l5.867-5.188l-1.188-1.134l1.048-0.936l-1.354-2.692h4.446v-6.729l3.425,1.993h6.404l4.475-1.396l0.054-1.238l17.558,5.115
		l-4.414,13.354h-1.512l-0.481,0.974H765.34v-2.05h-3.66L759.352,586.466z"/>
	<path id="Rosemead" fill="#00FF00" stroke="#000000" d="M698.22,530.521l-2.008,0.878l-0.513-1.984l-3.854-0.85l-0.145-0.771
		l0.907-1.785l1.389,0.94l0.396-0.992l1.243,0.425l0.709-0.68l-0.098-0.358h-1.062v-2.221h-1.162v-1.389h-1.393v-0.602H691.9v-0.815
		h-1.052c0,0,0.65-1.225,0.48-1.19c-0.171,0.028-4.986-0.879-4.986-0.879l-1.812,1.812l-1.077-1.762l-0.945-0.204l0.054-9.795
		l4.271-0.396v-0.566h6.659v-1.445h-0.907v-1.389h0.598v-2.381h2.101l-2.151-3.486v-3.627h0.595v-2.149l6.888,2.489l6.438,2.522
		l-0.197,2.153l-0.312,1.156h1.812l0.197-0.878l1.358-0.562v6.229l0.454,0.821l-9.555,0.256l0.48,2.018l2.664,2.834l-1.332,1.672
		h1.188l-1.272,1.271v2.324h-2.809v2.354h-1.896l-0.623,0.646v1.531h-0.795v3.627l2.27,2.067l-0.563,1.104l-1.159-0.229
		L698.22,530.521z"/>
	<path id="Temple_City" fill="#00FF00" stroke="#000000" d="M709.847,498.881l-2.811-1.009l-6.404-2.512l-0.084-4.446l-2.119-2.379
		l0.021-2.575h-2.153l-0.27-4.308v-1.4h4.469v-2.585l3.123-0.969v-0.915l2.479,0.322v1.825l3.661-0.808l0.539,3.177l0.537,0.485
		l0.537,1.669l0.7,0.808l-0.433,1.454l1.021,1.992l6.517-1.347l0.699,0.699l1.727-0.812l0.646,0.593l1.774-0.754l0.216,1.669
		l0.755,0.437l-0.594,0.856l0.377,2.104l0.433,1.021l-2.528,0.484v1.615l-0.379,0.754l-0.593-0.595l-0.646,0.972l-3.719,0.431
		l-0.159-0.431l-0.271,0.808l-6.566,0.916L709.847,498.881z"/>
	<path id="Sierra_Madre" fill="#00FF00" stroke="#000000" d="M703.864,452.521l-0.284-0.107v-10.345l1.361,0.708v-1.932
		l-0.031-2.485h14l5.115-0.222v6.684l0.593,0.646v0.862h-4.954c0,2.028,0,4.057,0,6.085L703.864,452.521z"/>
	<path id="Arcadia" fill="#00FF00" stroke="#000000" d="M730.703,483.752l-2.529,0.862l-3.284,0.161l-0.858,0.317l-1.774,0.754
		l-0.646-0.593l-1.725,0.812l-0.7-0.7l-6.516,1.347l-1.022-1.992l0.435-1.454l-0.699-0.808l-0.538-1.669l-0.538-0.485l-0.539-3.177
		l-0.698-1.938l-2.586-1.777l-2.207,0.916l-0.646-0.646l0.431-0.694l0.057-2.806l-0.972-0.808l0.7-0.593l0.031-11.948v-4.312
		l15.8-0.106v-6.085h4.954v-0.862l-0.595-0.646v-6.684l2.209-0.156h4.574l0.057,1.072l0.809,0.975l-3.338,0.646l1.131,29.239h7.754
		l-1.612,2.369v4.631l-2.151-1.076v1.669l-1.615,1.831l-0.593,4.415l0.754,2.315l0.054,1.562l4.096-1.562v0.694l6.896,2.746
		l-0.7,2.208l2.047,0.861l-3.555,5.331l-1.396-0.7l2.264-5.6l-0.436-0.218l0.646-1.135l-1.562-0.695l-0.317,1.187l-4.793-1.777
		l-3.183,2.585h-2.312l-0.484-1.396l0.861-2.315l0.916-0.161l0.754-1.396L730.703,483.752z"/>
	<path id="Monrovia" fill="#00FF00" stroke="#000000" d="M736.143,486.067l-4.094,1.562l-0.055-1.533l1.294-0.352l3.177-2.854
		l1.346-0.215l0.22-3.555l-0.435-0.161l-1.234,1.238l-0.323-1.292l1.131-1.239l1.188,0.27v-8.021h-1.135h-7.754l-1.132-29.239
		l3.339-0.646l-0.81-0.975l-0.058-1.071h-1.938v-9.208l32.899-0.107v9.208h9.586v8.077l-0.86,1.076h-9.963h-3.178l-2.643,0.696
		h-2.584v5.868l-1.989-1.233l-1.511,0.16l-0.696,1.073l0.319,2.53l1.829,0.754v1.454h1.132v0.969h2.479v1.831h-1.292v0.754h-1.022
		l-0.432,2.049h-3.395v4.85l-0.916,1.771h-0.756v-0.97h-2.64l-0.593,2.692l-1.776-0.861l-0.216,1.831h-1.885l-0.161,4.686
		l1.396-0.695l1.076,0.808l0.437-1.131l0.914,0.97l-2.69,0.861l-1.293-0.435l-0.215,4.415l1.346,1.829l-0.104,1.831l-2.366-1.075
		L736.143,486.067z"/>
	<path id="Bradbury" fill="#00FF00" stroke="#000000" d="M758.703,461.219l7.973,0.133l-0.056-4.521l-4.521-1.238l-0.216-8.562
		h-4.523l-2.639,0.694h-2.584v5.87l-1.992-1.233l-1.508,0.157l-0.699,1.076l0.322,2.53l1.83,0.754v1.454h1.131v0.969h2.479
		l0.01,1.831l3.224,0.06l0.057-1.729l1.188-1.185L758.703,461.219z"/>
	<path id="El_Monte" fill="#00FF00" stroke="#000000" d="M703.949,511.9l-2.664-2.834l-0.48-2.018l9.553-0.256l-0.451-0.821v-6.229
		l-1.359,0.562l-0.197,0.878h-1.812l0.335-1.406l0.042-1.956l2.946,1.021l0.494-2.709l6.567-0.916l0.271-0.808l0.157,0.431
		l3.72-0.431l0.646-0.971l0.593,0.594l0.377-0.754v-1.615l2.53-0.484l1.398-0.161v1.022l2.646-1.896l0.479,1.411h2.312l3.178-2.585
		l4.796,1.777l0.319-1.188l1.562,0.698l-0.646,1.132l0.402,0.279l-2.233,5.535l1.397,0.7l-1.021,3.819l-0.217,2.643l-1.938,6.944
		l-0.16,1.187l-1.562,0.862l-0.646,0.914l-0.646-1.399l-1.133,1.616l2.587,1.991l0.105,1.075l-1.992,4.735l-1.562,2.208
		l-4.309,2.369l-1.078-1.348l-0.699,0.594l-0.969-1.237l0.859-0.698l-1.454-0.697l-3.282-2.692v-3.123h-1.832v-1.454h-3.338v-0.27
		h-5.062v0.916h-0.594v0.754h-1.021v-1.293h-0.755v-1.776l1.236-0.97l-1.021-1.131l-3.556,0.539l-0.698-0.06L703.949,511.9z"/>
	<path id="South_El_Monte" fill="#00FF00" stroke="#000000" d="M725.651,524.974l0.798-0.775l-1.271-0.612l-3.468-2.78v-3.123h-1.83
		v-1.452h-3.341v-0.271h-5.062v0.916h-0.593v0.754h-1.021v-1.293h-0.754v-1.776l1.235-0.97l-1.021-1.131l-3.557,0.539l-0.697-0.055
		l-1.038-0.959l-1.236,1.492l1.134-0.009l-1.396,1.38v2.324l0.17,2.336l1.396,1.399l1.351,0.216v0.161l1.773,0.054v1.729l0.915,1.61
		l1.188,0.161l0.971,1.239l1.562-0.054l1.452,2.312l-2.745,1.399l0.377,1.131l1.349-0.107l1.396-1.562l0.106,1.185h0.859
		l0.857-0.593l0.483,0.7l-1.562,2.047l1.611-0.216l0.699-1.077l3.016,0.104l5.229-2.638l-1.454-2.101l0.916-0.597l-0.595-0.695
		l1.021-0.812L725.651,524.974z"/>
	<path id="Industry" fill="#00FF00" stroke="#000000" d="M718.318,537.72l-2.102,1.646l0.17,1.077l-1.758,0.479l-0.204,1.537
		l-1.298,1.184l-1.161-0.901l-1.021,0.851l-0.735-0.851l-0.709,0.879l0.651,0.766l-0.797,0.906l1.097,1.576l12.708-10.231
		l1.454-0.32l1.021-0.595l1.453,0.915l2.961-0.915l1.938,0.755l2.688-1.072h2.479l0.592-1.514l1.993,0.484l4.358,2.585l1.726,0.107
		l0.216,1.233l4.038,1.776l0.7-0.646l0.646,0.537l-0.218,0.812l1.938,1.077l0.539-0.861l-0.646-0.539l1.077-1.186l1.508,1.348
		l-1.774,3.229l0.105,0.646l4.848,1.885l0.972-2.152l3.123,1.512l-0.698,1.988l6.14,2.209l0.16,2.689l9.209,3.229v4.095l9.908,0.754
		l0.377-2.64l2.906,0.217v0.538h1.938v-1.238h4.472l0.321-1.885l4.576,0.856l0.105-1.132l-1.727-0.104l0.218-1.454l1.509,0.104
		l1.726,1.888v1.396l4.093,1.077v-1.186h0.916v1.347l1.238,0.216l1.991-1.67l-0.812-2.046l2.639,2.046l1.993-1.938l-0.972-1.614
		l1.077-0.484l0.699,0.861l0.593-1.131l8.078-4.954l1.938,1.508l-1.669,1.188l1.022,2.904l2.689-0.431l5.651-5.604l-0.482-0.756
		l0.482-0.593l0.86,0.812l1.132-2.049l0.271-10.065l-2.529-2.586l-2.691,2.209l-3.716,1.562l-1.292,3.937l-0.861,0.914l-0.431,2.15
		l-1.776-0.055l-1.614,1.021l-1.67,1.727l-0.055,0.859l-0.916,0.056l0.057-1.349l-6.189,4.358l-4.631,3.068l1.075,2.368
		l-3.444,0.377l-1.188-0.971l2.313-1.67l-4.199,0.104l-9.153-1.724l-4.572-0.646l-1.077-1.348l-0.435,0.915l-2.479-0.216v-1.56
		h-0.81l-0.058-1.293l-3.177-0.7l1.347-3.395l1.349-4.471l-2.689-0.218l-2.312-1.187l-2.64-1.132h-1.832l0.271-4.953h-2.854
		l-0.377,1.187h1.668v1.077h-0.646v2.745H770.6l-0.162,3.284l4.312-0.105l-0.812,3.5l3.021,0.971l-0.056-1.236l6.027,0.972
		l-1.131,3.066l-1.396,2.103l-3.019-0.81l-3.981-0.699l-3.606-1.399l-2.53-1.99l-1.99-2.528l0.482-1.51L745.4,521.604l2.047-2.312
		l-1.293-1.131l0.754-0.754l1.021,0.97l1.562-1.562l-1.398-1.236l2.047-2.046l-1.773-0.107l-0.972,0.271l-1.773,1.348l-0.811-0.538
		l-2.53,1.186l-1.668,0.106l-0.483,2.153l-0.916,0.432l-1.724-0.7l-0.973-1.131l-0.056-1.885l0.755-0.971l0.271-1.188l-1.562,0.862
		l-0.646,0.915l-0.646-1.4l-1.131,1.616l2.586,1.992l0.104,1.075l-1.979,4.692l-1.576,2.25l-4.311,2.369l1.076,1.347l-1.992,0.861
		l2.153,1.992l1.562-1.293l1.615,0.432v-1.772l3.443-1.352l-0.104-1.562l-1.021-2.804l1.293-2.365l0.646-2.267l1.831,1.453
		l1.293,0.057l4.633,4.197l-0.7,0.323l-0.433,0.97l0.756,1.614l0.646-0.646l-0.433-0.86l0.811-0.754l3.716,3.066l-1.454,1.888
		l0.483,0.479l1.348-1.562l1.077,0.319l9.312,7.755l-0.972,1.075l-1.725-1.725l-0.812,0.915l-3.981-3.068l0.646-0.755v-1.508
		l-1.187-1.021l-1.076,1.562l-1.292-1.021l-1.725,1.775l1.132,1.292l-1.562,1.727l-1.726-1.35l-0.646,0.436l0.697,1.021
		l-3.229-0.271l-3.018-1.614l-1.021-0.915l-12.062,1.724l-0.055-1.67l-1.188-0.216l-2.641,2.104l-1.021-1.612h-0.974v2.8
		L718.318,537.72z"/>
	<path id="La_Puente" fill="#00FF00" stroke="#000000" d="M772.705,530.869l-0.483,1.185h1.669v1.077h-0.646v2.746h-2.64
		l-0.16,3.285l4.31-0.107l-0.81,3.5l3.017,0.975l-0.056-1.238l5.957,0.998l-1.09,3.09l-1.366,2.051l-2.812-0.752l-4.188-0.756
		l-3.605-1.396l-2.566-2.037l-1.955-2.483l0.482-1.508l-17.727-15.568l1.896-2.256l0.216-1.021l0.812-0.271l2.744-3.177l2.424,1.991
		l-0.755,1.234l1.938,2.049h0.646l2.425,2.365l-2.692,2.963l4.85,4.312l2.907-2.854l-0.595-1.132l2.745-1.562l-1.131-1.188
		l0.86-1.508l-0.698-0.809l1.186-1.614l0.646,0.592l2.312-2.53l0.646,0.974l-3.396,3.717l0.811,0.592v2.208l1.562-0.271l2.104,0.812
		L772.705,530.869z"/>
	<path id="Baldwin_Park" fill="#00FF00" stroke="#000000" d="M738.479,518.079l-1.052-0.474l-0.916-1.327l0.001-1.683l0.707-0.904
		l0.387-2.041l1.981-7.274l10.179-3.016v-6.73h-1.131v-4.686h3.444v-4.792h18.954v4.254h-6.085v2.688h0.432v2.104l-0.377,0.592
		v1.238l2.64-1.729l0.436,0.06l0.055,1.83l1.885-0.538l0.106,1.071l-0.377,0.107v1.077h0.646v2.746h-1.021v1.771h-0.812l-3.5,4.146
		l-1.453-0.974l-0.594,0.974l1.077,1.185l-2.153,1.992l-0.916-0.482l-1.131,0.756l1.293,0.971l-0.539,0.97l-1.076-0.216
		l-1.132,1.293l0.378,0.431l-0.755,0.646l-1.508-1.239l0.593-0.915l-0.808-0.97l-0.972,1.396l-1.614,0.271l-0.593-0.7l-0.971,1.131
		l-1.453,0.217l-4.256,0.106l-6.141,0.538L738.479,518.079z"/>
	<path id="Irwindale" fill="#00FF00" stroke="#000000" d="M768.074,494.36l-0.436-0.06L765,496.029v-1.238l0.377-0.592v-2.104
		h-0.431v-2.688h6.085v-4.254h-18.954v4.792h-3.444v4.686h1.131v6.73l-10.23,3.22l0.264-2.722l1.238-4.261l3.35-5.021l-2.022-0.926
		l0.682-2.146l-6.896-2.746l0.159-0.818l0.812-0.629l2.364,1.07l0.104-1.831l-1.333-2.104l0.19-3.933l1.305,0.224l2.688-0.861
		l0.22,0.538l2.103-0.377v-1.346l1.021,0.215l0.08-1.438l1.371,0.095l1.135-2.806l3.443-0.432l0.811,0.862h1.509l2.586-2.586v-2.209
		h5.062v-2.313h6.405l1.076-1.292l1.724-0.323l1.777,2.369l0.432-1.131l2.906-3.017l2.208,0.537v12.172h-4.735v4.686h5.386v3.823
		h0.538v-1.188h0.859v6.73l-2.263,1.235v1.075h-3.823v1.729h1.776v1.396h-1.83l-1.077-0.592L768.074,494.36z"/>
	<path id="Diamond_Bar" fill="#00FF00" stroke="#000000" d="M814.195,556.96l1.91-1.859l-0.973-1.609l1.076-0.484l0.699,0.861
		l0.604-1.145l8.062-4.94l1.938,1.508l-1.669,1.186l1.021,2.907l2.691-0.431l5.65-5.604l-0.48-0.754l0.48-0.592l0.86,0.808
		l1.131-2.047l0.271-10.063l-0.938-0.952l1.955-1.901l4.094,3.069l4.688-8.562l2.367,1.616l0.859,1.399l5.604,3.555l0.378,3.5
		l8.638,5.115v8.885l-9.066,0.271l-9.367,18.735l-7.483,0.107l-7.433,8.021l-4.146-0.27v1.724h-8.774v-0.97h1.021l0.216-1.346
		l0.916-1.562v-3.178l-1.347-1.508h-1.077v-9.854L814.195,556.96z"/>
	<path id="Azusa" fill="#00FF00" stroke="#000000" d="M780.352,484.938v-2.202h-1.396v-2.645h-5.388v-4.685h4.735v-12.17
		l-2.208-0.539l-2.906,3.016l-0.432,1.131l-1.671-2.479l6.742-7.326l0.148-0.796l-2.479-1.939l-1.832,0.916v-1.293H771.3
		l0.057-6.945h9.424l0.322,0.271h8.828v-2.046h4.851v1.938h4.737v20.731h1.938l0.539,1.938h2.422v1.729h-2.744v1.562h-1.938v2.531
		h2.8v4.738l-1.507,1.234h-1.455l-0.323-1.451l0.483-0.646v-2.53l-1.131-0.697l-4.039-0.218v7.596l0.646,0.48l4.095-1.723v1.562
		h1.774v0.972h-8.669l0.056-0.377l1.886-1.074v-3.231h-0.646v2.531l-1.021-0.377v-1.777l-0.434-0.479h-0.859v4.686h-2.266v-2.528
		h-1.129v-1.294h2.206v-1.291h-2.368l-1.347,1.562v2.854h-1.021l-0.218,0.812h-0.698v-1.775l1.075-1.076v-1.887h-2.688v2.209
		l-1.887,0.215v1.293h0.698l0.271-0.432l1.021,0.271l-0.539,1.132L780.352,484.938z"/>
	<path id="West_Covina" fill="#00FF00" stroke="#000000" d="M774.266,494.898l-1.285-0.596l-4.979,0.043l0.128,1.846l1.885-0.539
		l0.106,1.071l-0.377,0.107v1.077h0.646v2.746h-1.021v1.771l-0.817,0.019l-3.427,4.06l-1.52-0.896l-0.595,0.97l1.077,1.185
		l-2.15,1.992l-0.916-0.479l-1.134,0.754l1.293,0.969l-0.536,0.97l-1.078-0.216l-1.111,1.273l0.357,0.444l1.293,1.137l-0.646,0.808
		l0.916,0.7l0.646-0.646l1.725,1.729l-2.641,2.854l3.718,3.396l2.64-2.908l1.492,1.05l0.5,0.458l2.312-2.53l0.646,0.973l1.992-0.105
		l0.434,1.077l2.584-0.539l1.938-0.105l-0.056,0.756l-1.992,0.157l0.161,1.239l3.984-0.216l-0.106-2.208l2.104-0.161l0.698,0.754
		h4.952l-1.829,0.538l0.434,2.047l-1.938,0.058l-3.5,1.772l-0.217,1.188l-0.695-1.076l-0.916-0.057l0.271,5.489l3.444,0.271
		l2.046,2.747l-0.754,2.8l1.076,0.481l1.562-0.434l1.293,8.239h10.771l0.434,0.697l0.215-0.755h1.508l-0.055,2.209l1.398,0.056
		l2.15-1.022v4.635h-1.236l-0.271-1.672l-1.832-0.379l-0.698,0.916l-1.452,0.379l0.191,1.734l4.223,0.794l4.199-0.104l0.754-0.058
		l-0.432-6.245l2.586-0.055l0.537-2.479l-1.188-1.075l-2.262,2.208l-3.179,1.185v-1.076h-1.562l-0.377-1.886l-1.294,0.862
		l-4.631-7.001l-0.217-0.861l3.34-1.614l0.215-8.671l2.691-0.269l5.438-3.124l3.605,1.293l2.209-2.962l-1.348-2.369l-1.832-0.056
		l-0.271-0.916l-1.021-0.377l-1.727-1.774l2.69,0.271l0.594-2.747l-1.614-3.02l2.53,0.108l0.81-0.598l0.699,1.352l1.131-0.323
		l0.539,1.021l1.938,0.319l-0.81-1.771l-4.199-2.369l0.216-0.916l-1.132-0.215l-1.131-1.4l-1.775,1.454h-4.309v-1.775h-4.521v-0.857
		h-1.188v2.477h-3.605v-1.234h-2.102v-6.84h-2.641v1.021h-4.736v-2.046l-2.641-0.595l-1.133,1.292h-1.396v1.396l-4.256,0.271v-2.367
		l-0.916-0.108l-0.271,0.862h-1.077l-0.538,1.13l-1.67-0.054l0.754-3.123h2.104L774.266,494.898z"/>
	<path id="Covina" fill="#00FF00" stroke="#000000" d="M816.521,510.062l-4.238-2.454l0.215-0.916l-1.131-0.221l-1.131-1.396
		l-1.774,1.454h-4.31v-1.777h-4.521v-0.861h-1.187v2.479h-3.606v-1.238h-2.102v-6.839h-2.639v1.023h-4.738v-2.046l-2.639-0.599
		l-1.135,1.292h-1.396l-0.754-0.377l0.48-1.346h0.812v-2.104h1.076l0.593,0.598l2.639-0.437l1.67,0.107v-4.415h-1.186v-0.862
		l2.905-1.771h-1.727l0.106-2.43h16.587l0.81,1.077h4.469v1.353h-2.479v2.423h2.641v2.477h-1.887l-0.16,1.508h2.479v-0.855h1.234
		v-3.021h0.859v-1.447h0.916v-0.916h2.479v2.363h2.69v1.188h1.021v-3.554h3.341l-0.107-1.4h1.022l0.271,0.593l-0.809,0.7
		l1.453,1.023l-1.615,1.507h1.992l0.159,1.885l-0.811,0.162l-1.293,1.238h-0.914l0.057,2.148l-0.859,0.107l0.104,2.639l-1.293-0.054
		v2.423h2.104l1.021-0.271l3.446,1.349l-1.186,1.992l-0.646-0.323l-0.859,2.153l-3.819-2.745l1.234-0.862l-2.906-0.646l-0.271,0.757
		l-0.729,0.189v0.989h-0.99l-0.538-0.485l-0.057-0.914h-1.074l-0.219-0.755l-2.312-0.054l-0.755-1.021h-1.613v0.756l-1.238,0.27
		v1.615l-0.857,0.808l-0.059,1.132h1.399v-0.97l0.971-0.323v-1.347l3.068,0.162l-1.078,1.669l0.378,0.646h1.293l1.991-1.612
		l0.916,0.696v1.727l0.809,0.754l-0.646,0.484l0.159,1.021l0.539-0.054v1.396l1.35,0.861L816.521,510.062z"/>
	<path id="Glendora" fill="#00FF00" stroke="#000000" d="M804.367,469.806h-2.369l-0.539-1.938h-1.938v-17.07h2.423v-3.554h2.312
		v-4.631h9.208l-0.056-4.361h6.839l0.483,6.677v2.854h2.15v4.521h2.801v-2.584l1.135-0.055l0.377,1.239l1.234,1.723l5.766-2.746
		v-1.131l-1.889,0.216h-4.357l-0.178,0.656h-0.576l0.514-0.888v-5.746h-4.604l-0.32-3.717h1.396v-1.291h26.709v9.101l-4.575-0.108
		v4.853h-4.521v21.27l-4.849-1.396v6.563h-1.292v1.023h-1.398v1.346h-6.518v4.523h-16.479v0.915l-2.585-0.06l-4.415-1.45v-9.313
		h0.592v-1.292h1.939v-0.916h-1.023v-1.346h-1.396v-0.916h2.153v-1.188l-1.478-0.395L804.367,469.806z"/>
	<path id="Walnut" fill="#00FF00" stroke="#000000" d="M814.168,520.854l-2.206,2.968l-3.608-1.293l-5.438,3.118l-2.691,0.271
		l-0.215,8.67l-3.34,1.615l0.229,0.881l4.618,6.979l1.292-0.856l0.377,1.885h1.562v1.077l3.235-1.243l2.201-2.146l1.187,1.071
		l-0.537,2.479l-2.586,0.054l0.432,6.246l0.695-0.192l10.611-7.291l2.854-2.64l3.554-1.831l0.862-0.857l1.292-3.936l3.716-1.562
		l2.69-2.208l-0.054-2.315h-2.208l1.346-2.854l-0.807-1.188l-2.693,0.915l-1.885-7.271l3.981-1.562l-0.48-1.185l2.639-1.352
		l-0.646-1.508l-3.981,1.188l-2.103,1.347l-4.521,0.216v-1.615l-0.916-1.233l-2.047,0.916l0.809,0.855l-0.809,0.484l-0.86-0.592
		l-1.021,0.694l1.348,3.284l-5.009,0.377L814.168,520.854z"/>
	<path id="Pomona" fill="#00FF00" stroke="#000000" d="M834.036,526.941l-1.345,2.851h2.208l-0.044,2.396l1.773,1.642l1.874-1.984
		l4.097,3.069l4.685-8.562l2.369,1.616l0.862,1.399l5.6,3.555l0.377,3.5l8.64,5.115v-3.324l17.302,3.305l3.498-1.749l1.576-9.788
		l8.656-27.641l-9.354,0.104v-7.271h-2.045v-5.546h-2.424v-2.962h-1.51v-1.351h1.562v-3.556h-1.454v2.154h-1.237v-0.646h-0.755
		v-1.071h-1.562v1.508h-0.432v-1.188h-0.972v-1.991h-1.237v2.854l-0.699,0.054l-2.479-1.13l-0.106,13.3l-0.857,0.323l-1.831-1.885
		l-1.35,1.938l-1.611-3.229l-1.454-0.862l-3.557,6.142l-4.146-1.45l-1.239-0.162l0.811,2.746h1.454l0.81,0.694l-1.453,1.562
		l1.938,1.454v0.97l-2.367,1.022l-3.821,2.585h-1.399l-3.933,3.177l-2.152,0.27l-3.284,1.992l1.562,0.485l0.971,0.479l0.646,1.615
		l-1.077,0.861l-2.529-1.776l-4.2,3.771l2.642,1.562l-0.971,1.562l-2.102-0.862L834.036,526.941z"/>
	<path id="San_Dimas" fill="#00FF00" stroke="#000000" d="M855.418,496.412l0.807,2.74h1.454l0.812,0.694l-1.453,1.562l1.938,1.454
		v0.97l-2.367,1.022l-3.819,2.585h-1.399l-3.933,3.177l-2.152,0.27l-3.285,1.992l-6.462-0.054l-2.478-0.437l-3.021-2.1l-0.537-1.67
		l-1.294-0.055l-0.808-1.134l-1.886-0.056l-1.136-0.646l-1.562,0.48l-0.483-1.021l0.699-0.812l0.86-2.149l0.646,0.318l1.188-1.989
		l-1.871-0.729l0.418-1.101h2.906l1.187-1.453l8.938-3.069v-0.969H830l-0.321,1.346l-2.263,0.973l-0.321,0.972l-2.153,0.377
		l-0.594-0.861l-2.801,1.885l-0.12,1.522l-2.248,0.039v-2.423l1.292,0.054l3.02-2.047v-1.669l2.103-1.992v-3.716h1.075v2.962
		l0.939-0.942l0.137-10.097h6.518v-1.346h1.398v-1.023h1.292v-6.568l4.849,1.398v-21.271h4.521v-4.85l4.576,0.107l7.377,0.055
		v11.146l2.691,0.32l-0.216,1.562l0.754,0.81l0.646-0.646l0.914,1.612l-1.396,1.188h-1.188l-2.149,3.819l-1.455,0.539l-0.055,2.151
		l-1.134,0.861h-1.233l-2.047,1.612l-1.351,0.218v1.508h1.131v0.811l-0.97,0.482v1.831l1.131-0.058v2.151h-1.021l-0.216,3.557v2.312
		h1.611v2.321h-1.234v0.698h-1.237l-0.145,0.526h-2.93v1.031h3.229v2.69h4.631l-1.99,1.187l-1.131,0.162l-0.646,0.915l-0.271,0.97
		h4.361l0.809,0.595L855.418,496.412z"/>
	<path id="La_Verne" fill="#00FF00" stroke="#000000" d="M860.961,458.608l-0.215,1.559l0.754,0.808l0.646-0.646l0.914,1.615
		l-1.398,1.186h-1.186l-2.153,3.822l-1.454,0.539l-0.055,2.148l-1.131,0.861h-1.237l-2.046,1.615l-1.351,0.215v1.508h1.131v0.812
		l1.977,0.743l1.417,0.144l-2.637,0.17l-0.596,1.204v1.092h1.561l0.085,2.153l1.271,0.426l1.104-0.341l0.597,0.851l-0.767,1.395
		l-2.067,0.596l-0.427-0.454H851.1v2.312h1.612v2.312h-1.235v0.7h-1.236l-0.146,0.529h-2.926v1.026l3.201,0.06l0.028,2.639h4.631
		l-1.992,1.186l-1.131,0.161l-0.646,0.915l-0.271,0.976h4.361l1.393,1.166l4.047,1.419l3.557-6.146l1.455,0.862l1.613,3.229
		l1.348-1.938l1.83,1.885l0.859-0.322l0.107-13.301l2.477,1.13l0.7-0.054v-2.854l-0.325-4.674h-4.394v-5.756h4.359l0.197-2.126
		h0.854l0.646-4.393l-1.021-0.538l-0.027-1.219l-1.219-0.062l-0.029-0.537l-1.104-0.172V460h-0.966l0.087-0.963l1.525-2.75h1.445
		v-5.129h-2.295v-4.76l-2.607-0.113v4.79h-4.361v4.789h-3.654v1.441L860.961,458.608z"/>
	<path id="Claremont" fill="#00FF00" stroke="#000000" d="M874.423,475.851l0.325,4.733l1.237-0.062v1.988h1.396v-0.317h1.562v1.071
		h0.754v0.646h1.235v-2.154h1.453l-0.037,7.862h2.406v5.546h2.047v7.27l9.327-0.016l17.567-56.093h-10.573v3.845h-0.567v1.445h7.881
		v0.708l-0.965,1.304h-9.211v-2.664h-6.855v-4.619h-4.764v4.768h-2.406v4.812l-0.794,0.198h-1.392v2.068h-4.533v15.504l0.966,1.16
		l-6.011,0.086L874.423,475.851z"/>
	<path id="Uninc_near_Claremont" fill="#00FF00" stroke="#000000" d="M753.696,461.136h-1.292v0.754h-1.021l-0.433,2.048h-3.396
		v4.851l-0.915,1.771l-1.074,4.9l1.67,0.107l1.131-2.806l3.442-0.432l0.812,0.862h1.509l2.585-2.585V468.4h5.062v-2.315h6.408
		l1.076-1.292l1.725-0.323l6.842-7.377l0.158-0.855l-2.478-1.939l-1.831,0.916v-1.293h-2.369v-6.946h9.479l-0.376-18.194
		l-18.635-0.107v9.208h9.588v8.077l-0.859,1.076h-8.616l0.216,8.562l4.523,1.238l0.054,4.521L753.696,461.136z"/>
	<path id="Uninc_near_port" fill="#00FF00" stroke="#000000" d="M607.229,707.222l2.312,3.395l-4.686,2.208l1.186,3.343
		l-0.156,0.269l-1.615-0.646l-1.615,3.557l0.861,0.593l-0.377,1.938l1.723,4.093l-6.354,2.802l-1.729-0.056l0.699-1.076l0.105-1.67
		l-1.236-0.271l0.32-0.538l-0.757-1.562l-2.208,1.292l1.239,1.938l-0.271,2.531l0.646,0.056l1.454,3.878l-1.725,1.132l-1.352-3.982
		l-0.695-2.91l-1.133-1.773v-4.473l0.699-1.611l3.124-2.266h-2.101l2.262-1.885l3.339-3.341l1.454-2.102L607.229,707.222z"/>
	<g>
		<path id="Westlake_Village" fill="#FF0000" stroke="#000000" d="M278.788,470.045l36.102-26.193l0.42,1.841l-2.046,11.767
			l-8.801,9.104L301.7,468l-0.614,0.921l-1.637,0.716l-3.581,2.864l-4.297,2.047l-4.604,3.172l-3.479,2.764l-2.046-0.921
			l-1.33-0.309l0.104-0.674h0.794v-1.672l0.793-0.771l0.057-1.076l-2.012-2.353l-0.879-0.907L278.788,470.045z"/>
		<path id="Agoura_Hills" fill="#FF0000" stroke="#000000" d="M309.604,461.238l3.658-3.785l2.046-11.771l-0.329-1.893l32.218-0.051
			l-2.423,8.724h-2.315v7.592l4.633,3.184h2.529v0.969h2.747v2.154l-0.593,0.754l0.162,1.021l0.431,0.646v2.208h-2.262v-2.104h0.431
			v-1.508l-2.69-0.271l-0.048-0.578h-3.614l-0.969,0.634l-7.916-5.277l-1.562-0.215l-1.238-1.293l-2.962,2.154l-3.715,2.208
			l-10.931-1.352L309.604,461.238z"/>
		<path id="Calabasas" fill="#FF0000" stroke="#000000" d="M352.366,466.306v-2.101h2.046v-1.992h-2.152l-0.217-0.754h1.938v-4.038
			h2.315l0.592,1.938v1.938l1.993-0.754v1.186l1.508-0.271l1.669-1.777h-1.562v-0.693l1.67-0.7l1.291-1.562v-2.367h0.7v-0.858
			h-3.015v-0.972h1.507l-1.022-1.295l0.593-0.533l-0.97-1.831v-5.115h4.146v1.131l0.861,0.484v1.075l-0.646,0.48v7.646l2.154,0.916
			l1.292,0.215l2.531-0.437l1.723-0.431l3.338,1.292h4.792l4.416-1.831l2.154-0.215l2.477-1.293l1.885-1.723l2.102-0.7l0.754,0.808
			l1.185-0.861l3.179,4.637h1.131l0.435,0.539l0.377,1.986h7.271v-1.562l2.263,1.292v2.369h-2.424v1.453l1.188,0.104l0.48,0.485
			v0.538l3.285-0.221v7.221h-2.531v2.525h-2.688l-1.938-0.593h-13.63v-1.938h-2.8v2.047h-0.484v4.734h-20.73v2.266h-9.479v4.521
			l-2.262,0.161v2.104h-0.539l0.108-3.72l2.477-8.293l0.431-1.831l-7.271-0.156v-2.154h2.584v-2.584L352.366,466.306z"/>
		<path id="Hidden_Hills" fill="#FF0000" stroke="#000000" d="M376.598,443.743h3.554l0.032-5.547h5.46v4.47h2.154v2.531h3.444
			l1.349,0.161v2.046h1.613l1.4,2.047l-1.131,0.915l-2.003,0.668l-0.205-1.26l-1.292,1.185l-1.725-1.777v0.539h-2.046V448.7h-0.483
			v1.454h-1.885v2.423h-3.823v1.615h-1.077v-1.729h-3.339L376.598,443.743L376.598,443.743z"/>
		<path id="Los_Angeles" fill="#FF0000" stroke="#000000" d="M606.529,705.66l-0.7-1.021l-3.339,0.107l-2.423,3.77l-0.431-3.178
			l-1.454,0.055l-0.593,0.699l1.293,1.239v2.688l-2.967,3.878h-0.533v-3.818l1.449-1.615v-1.293l-2.526,2.908v3.393l-1.615-0.646
			l-0.97-1.562l1.83-4.793l0.378-1.508l-2.907,0.216l-1.239-1.831l-0.858,1.022l2.104,3.5l-0.484,1.293l0.271,1.186l-1.188,1.021
			l0.159,1.396l2.37,1.292l-0.161,1.615h0.483l-0.432,1.508l-2.368-0.699l1.771,1.671l-1.611,3.02v4.846l1.773,1.887l0.107,1.188
			l-1.42-0.714l0.278,0.681l1.562,1.53l2.151,6.802l-0.88,0.255l-1.98-6.034l-0.481,0.17l1.93,6.635l-0.733,0.793l-1.729-1.699
			l0.99-1.562L590.273,733l-0.538,1.441l-0.907-2.492l-1.048,0.732l1.076,2.467l-0.198,1.161l1.247,3.261l0.511,1.359l-0.426,0.736
			l-0.744,2.604l-0.823-1.567l-1.649-0.689l-1.454,0.916l-0.807,1.348l-3.717,0.105l-0.699-1.669l-1.238-0.97l-1.992-0.06
			l-6.516-3.177l-1.725,0.592l-3.068-2.206l-0.055-1.076l-1.847-0.062l-3.733-1.676l2.616-4.834h3.82v-1.023l1.562-0.377v-2.208
			l-0.916-0.538l0.857-1.077v-1.938l-1.021-0.484v-1.131h1.187v-2.639h3.181v-0.974h0.97v0.698h0.859v-6.784h4.577l-0.646-1.562
			h-3.985v-1.728h-1.612l1.938-5.01v-2.478h1.351l-0.646-1.938l-0.271-0.915h-0.808l-0.483-1.771h1.076l-0.104-4.899v-49.541h5.009
			l0.377-3.064h2.369v2.366h-1.776v1.021h3.123l0.7-0.861v-3.77l-0.538-0.861V608.19l0.104-28.002h-4.575v5.815h-1.454v3.066h-1.349
			v2.744h-1.777v2.052h-2.643v-4.688h-2.263V573.08H564.1v2.478h-3.823v-3.981h-0.754v-5.706h-18.954v8.396h-1.075l-0.482,0.812
			l0.756,0.592v1.938l-1.938,1.131l-1.993,2.369v3.5h4.474l0.32,5.062v9.046h0.7v0.862h-5.549V598.5h-11.959l-0.754-0.377H510.68
			l-0.377,0.377h-1.352v2.207l0.22,0.159v2.312h0.911v1.188H511v1.188h1.398v2.103l-4.146-0.021l-0.682-1.464l-1.33-2.061
			l-2.352-6.9l-2.104-4.688l-1.451-1.453l-4.737-10.442l-2.461-2.463l-1.039-2.275v-0.86l-4.488-7.102l-4.231-4.908l-0.32-1.562
			l-3.646-5.01l16.729-10.983l4.521-3.178l-4.358-6.303l-2.528-1.672v-1.291l-0.916,0.699l-4.415-4.847l-5.438-5.604l-3.719,3.396
			l-5.812-5.653l-4.633,6.03l-2.152,0.431l-0.646,1.454l0.698,1.292l-0.539,1.131l-0.593,1.132l-2.182,2.187l-1.856,2.504
			c-0.377-0.377-2.424-2.425-2.424-2.425l-2.947-1.749l-9.488-4.819l-3.934-0.105l-1.562,0.812l-1.562-0.435l-4.338-1.742
			l-0.95-0.184l-1.551-4.431v-14.271l-15.67-3.659l18.2-35.22l-24.285-11.735l-2.263-1.292v1.562h-7.271l-0.377-1.991l-0.432-0.539
			h-1.133l-3.18-4.631l-1.185,0.859l-0.668-0.876l1.045-0.848l-1.4-2.05h-1.614v-2.047l-1.348-0.16h-3.445v-2.528h-2.153v-4.474
			l-5.46,0.016l0.055-9.43l3.628,1.66h0.916l0.81-0.537l0.698-4.416l-1.13-0.271l-0.484,1.131l-4.423,0.013l0.053-8.83h2.917v-2.812
			h5.275l0.594-2.854h-3.608l0.162-3.935h2.423v-2.639h2.102l1.669-7.107h6.028v0.861h2.479l0.535-1.67l-1.396,0.055l-0.153-19.701
			l2.522-1.515l1.613-1.132l10.503-1.509l5.385,1.938l2.584-3.716v-4.632l2.585-10.23l8.021,3.339l1.397,2.692l1.83-0.161
			l2.37-2.854l1.991-0.215l2.263,2.103l6.944-2.314l-1.613-3.284l0.646-1.396l-2.046-3.983l0.594-2.801l5.389,1.938l16.745-14.271
			l6.943,4.899h38.609v2.366l1.886,1.077l1.938-1.185l-1.022-1.132v-1.133h4.688v4.521l2.366,1.398h2.905v1.725h-2.8v4.899h-1.347
			l-1.75,1.75v4.438h2.825v2.104h-1.775v2.312h-2.691l-1.074,1.454l2.425,3.554h2.801l0.646-1.612v-3.18h2.049v-2.473h1.613v-1.344
			h3.067v1.611h3.123v2.587h-2.423l0.215,0.859l1.509,0.538v2.37l-1.021,0.754l6.246,1.021v-1.725h1.723v2.692l10.285,2.639v-2.424
			h13.354v-1.938h14.973v-5.008h6.565v10.18h6.841v-2.479l1.51,0.216h9.264l8.348-0.321v8.774h-9.906v9.962h-4.039v1.507h-0.755
			v6.246l-0.698,0.7v10.985l-13.246,0.215h-15.133l-9.264-0.161l1.349,4.415l-1.888,2.262v0.436h-0.808v1.612l-0.538,0.812h-11.793
			l0.159,3.821h-4.472v3.394l5.17,1.293l1.991,15.022l1.188,3.122l0.159,0.972h-1.294v2.423h2.479l2.585,7.377l1.076,3.662
			l-1.021,0.809l-6.354-1.021l-1.348,0.216l0.433,0.915l-0.971,2.154l2.206-0.539l5.549,5.547l0.054-1.4l1.886-1.723v-1.021
			l0.862-0.646l-0.862-2.907l1.889-1.398l1.612,0.378l3.936-2.15l3.123-3.02l2.149-1.83l1.938-0.159l1.454,1.293l1.021,0.054
			l1.022-1.938l0.808-2.688l1.132-0.054l1.885,1.669l3.229,0.754l0.185-0.684l1.324-0.021l1.938,1.938h3.065l1.728-0.754
			l1.454,0.377l0.593,0.916v1.237h1.83l7.916,18.199l3.661,3.933l1.509-1.396l-1.35-1.35v-0.755l10.229-1.453l-0.754-2.312v-2.746
			h1.396v-0.646h3.123v-1.669h-0.914v-0.916l0.537-0.857v-4.097l1.131-1.611l3.823,1.021v0.435h3.933l0.916,0.915l1.511-1.188
			l1.186,0.055l1.615-1.938l2.045-0.7v1.725h7.539v2.314l2.154,2.801l-1.513,1.398h-1.451l0.697,0.81l-0.858,0.754l0.481,0.973
			l-0.322,0.916l1.562,1.611v1.292h1.076l0.538,1.831h1.938l-0.432,2.313l2.746-1.077v-0.914l1.131-0.699l2.047,0.699l-1.131,1.237
			l0.808,1.831l-1.347,1.131l0.433,1.077l-2.528,3.123h-1.562v0.377h-0.593v1.021h-0.539v8.076h12.387v0.698l-3.065,2.689v10.396
			h0.593v1.292h-1.075v2.423l-1.777,4.2l-0.104,1.831h-0.377l-1.51-0.7l-12.765,0.862l0.107,29.347v1.562l-7.485-1.131v1.021h-0.754
			l-0.97-1.399h-2.047l-0.378,0.646l-1.991-0.974l-0.81,0.699h-3.934l-0.482-0.538l-1.133,0.378h-6.085l0.812,16.963h-9.426v24.068
			l1.237,1.132v5.227h2.423v-3.123h0.271v-3.718h0.81l0.017-0.479h1.652v0.479l5.389-0.057v3.18l2.047,0.159v0.539l-2.584,0.436
			v0.695h2.367l0.32,0.646l0.538,0.81l0.106,4.688l-0.915,2.208l0.271,2.262l-3.717,0.056h-3.445l-5.272-0.16v3.982h-15.455v24.285
			l-0.271,14.755l-4.847,2.53v2.312h2.104v5.227h-5.228v-7.435l-1.344,0.217v25.311l0.216,13.569h5.33l0.916,0.535l0.32,0.161h1.671
			V684.5l10.395-0.483v-3.556h4.094l-0.972,3.229l11.255-0.217l3.935,4.688l1.455-5.011l1.61-2.802l-0.104-2.854l-1.991-10.445
			l1.021-2.854l0.698,2.907l0.537,0.538v3.178l1.188,4.096v5.812l-1.672,5.276l-1.187,4.039l3.661,4.847l-10.606,9.153
			L606.529,705.66z"/>
		<path id="Santa_Monica" fill="#FF0000" stroke="#000000" d="M493.564,533.181l-0.709,0.543l-4.918-5.357L483,523.278l-3.716,3.393
			l-5.813-5.651l-4.631,6.028l-2.153,0.437l-0.646,1.449l0.7,1.298l-1.132,2.261l-2.184,2.182l-1.854,2.504l3.584,2.729l4.331,4.543
			l0.97,2.207l3.5,2.585l5.515,7.294l3.278-2.271l17.916-11.976l-4.195-6.062l-2.695-1.907L493.564,533.181z"/>
		<path id="Culver_City" fill="#FF0000" stroke="#000000" d="M498.297,557.686l0.697,1.514l5.547-2.962l3.34,3.555l-0.377-4.47
			l4.632-0.538l1.884-0.162l1.728-1.831l0.7-2.207l2.423,1.992l0.81-0.162l1.398,1.077l1.887-2.645l1.453,0.976l-0.755,1.185
			l0.433,0.646l-1.131,2.147l-1.454,1.023l-0.858,1.396l1.074,1.237l-0.481,0.646l2.264,1.507l1.508-0.592l1.886,2.423l-1.612,0.916
			l6.464,3.818l3.877-7.217l-0.057-2.801l-1.727,1.022v0.856h-3.066l2.151-1.723l-0.97-0.916v-1.938h1.131l0.539-2.584l-4.523-0.856
			l3.396-6.839l3.66,0.535h1.83v-3.065l1.348-1.292l-1.396-0.485l-1.397,0.862l-2.265-2.208h2.151l0.915-3.178l-0.479-0.756
			l1.671-1.938h1.508l0.914-3.339L538,531.828l-5.114,1.669l-0.972,1.131l-0.754-0.537l-5.548,3.822v1.131l-1.562,0.271v0.856
			l-2.691,2.104l-0.697-1.023l-7.596,5.116l0.271,0.969l0.754,0.22l0.809,1.348l-1.989,1.238l1.508,2.207l-0.972,1.611l-2.962,0.377
			l-1.509-2.424l-7.699,4.9l-0.48-0.646L498.297,557.686z"/>
		<path id="West_Hollywood" fill="#FF0000" stroke="#000000" d="M555.104,492.26v3.339h-5.008v1.023h-5.547v-1.023h-1.886v1.137
			h-2.047v1.021h-1.236v-3.016l-2.531,1.232v3.56h3.771v1.67h-2.152v-0.812h-0.698v0.7h-1.021v2.692H535.4l-0.7-0.593l-0.435,0.593
			h-4.254v-7.862l-2.688-1.454h4.896v-1.346l1.237-0.646l1.076,0.323l0.646,0.861l2.529-2.046l1.614-0.323l2.103-1.615l0.435,1.077
			h0.916v-0.485h2.526v1.676h6.568l1.131,0.377L555.104,492.26z"/>
		<path id="Beverly_Hills" fill="#FF0000" stroke="#000000" d="M533.298,506.691v1.232h4.413l0.595,1.454l1.237,1.885l-0.055,1.188
			l-1.885,2.312h-0.7v-2.262h-3.339l-0.219,0.754l-0.055,2.802h-11.848l-0.646,2.314l-1.938-3.393l-1.615-1.777l-0.16-1.562
			l-2.102-2.902l0.808-0.485l-1.075-1.771l-0.857-0.221l-0.758-1.771l-1.074,0.055l-0.218-1.993l-0.48-1.131h0.857v-1.992h-2.366
			v-4.735h2.641v-2.642h4.736l1.075,1.238l1.453-1.615l0.378-4.416h1.614v3.339l1.886,1.938l1.133-1.292l-0.539-0.646v-7.646h1.562
			l-1.021-1.831l2.1-0.437l0.756-0.431h1.292l0.86,0.811v1.774l-0.86,1.726v4.473l-2.479,2.423l0.81,0.7v2.148l0.267,0.247
			l2.534,1.368v7.862l-0.377,0.592v2.315L533.298,506.691L533.298,506.691z"/>
		<path id="San_Fernando" fill="#FF0000" stroke="#000000" d="M494.688,368.895l6.518,7.646l4.521-4.093l1.075,1.346l8.831-8.238
			l-0.81-0.97l1.453-1.562l-1.453-1.669l-1.236,1.346l-5.926-6.784l-6.729,7.054l-0.481-0.377l-2.8,2.531l0.377,0.754
			L494.688,368.895z"/>
		<path id="Burbank" fill="#FF0000" stroke="#000000" d="M554.153,460.479l-1.13-3.796l-2.496-7.124h-2.479v-2.423h1.293
			l-0.162-0.97l-1.202-3.27l-1.975-14.883l-5.171-1.293v-3.392h4.471l-0.159-3.823h11.793l0.537-0.808v-1.616h0.811l0.115-0.568
			l1.771-2.124l-1.348-4.409l8.307,0.145l16.134,0.016l6.312,9.371v11.254l-2.104,2.479l-1.83-0.915l-5.547,6.785l0.812,0.754
			l-1.562,1.723l1.077,1.351l-5.708,6.518l-1.132,0.054l-0.811,2.692l-1.021,1.938l-1.021-0.055l-1.452-1.293l-1.938,0.162
			l-2.825,2.479l-2.45,2.368l-3.933,2.153l-1.616-0.377l-1.797,1.336L554.153,460.479z"/>
		<path id="Glendale" fill="#FF0000" stroke="#000000" d="M633.453,457.528V455.8l-2.046,0.7l-1.614,1.938l-1.186-0.058
			l-1.512,1.188l-0.916-0.915h-3.933v-0.437l-3.821-1.021l-1.131,1.614v4.094l-0.539,0.856v0.916h0.916v1.67h-3.123v0.646h-1.396
			v2.746l0.754,2.312l-10.229,1.452v0.755l1.346,1.35l-1.508,1.396l-3.662-3.932l-7.914-18.2h-1.829v-1.236l-0.595-0.916
			l-1.453-0.379l-1.725,0.758h-3.068l-1.938-1.938l-1.324,0.021l-0.185,0.683l-3.229-0.754l-1.9-1.669l5.729-6.521l-1.077-1.347
			l1.562-1.725l-0.812-0.755l5.548-6.784l1.83,0.916l2.104-2.479v-11.254l-6.257-9.371l13.146-0.214v-10.983l0.698-0.697v-6.246
			h0.756v-1.507h4.037v-9.964h9.907v9.733h-2.568v3.771h-1.356l-1.646,1.645v14.879l2.296,0.709l0.312,2.323l2.296,0.256
			l2.324,2.521l0.229,2.895l3.259,1.529v0.426h1.479v0.538h1.305v-0.481h1.049v-0.879l1.076,0.709l2.605-0.766l0.365,1.645
			l-1.611,0.736l0.427,3.118l2.407,1.842l-0.426,1.247h0.965l1.896,1.729l-0.025,2.068h0.734l5.188,4.847l3.09-0.341l1.273,1.222
			l-1.246,3.062l0.396,2.69l1.222,1.646l-0.539,0.991l1.812,1.812l0.905,1.848l0.938,7.022L633.453,457.528z"/>
		<path id="El_Segundo" fill="#FF0000" stroke="#000000" d="M535.771,599.58v-1.077h-11.953l-0.754-0.377h-12.389l-0.377,0.377
			h-1.349v2.207l0.218,0.162v2.312h0.913v1.188H511v1.185h1.396v2.104l-4.146-0.022l3.322,7.975l1.956-1.162l1.562,2.801h20.896
			v-8.725h2.1v-0.975h-0.808v-1.723h-1.831v-2.424l0.811-0.161v-0.969l-0.594-0.599L535.771,599.58z"/>
		<path id="Manhattan_Beach" fill="#FF0000" stroke="#000000" d="M519.388,633.438l-7.812-17.848l1.961-1.146l1.562,2.801h20.896
			l0.161,4.685l-0.322,9.531h-0.755v4.577h-8.562v-2.747h-3.393l-0.264-0.372l-1.027,0.566l-0.312-0.558l-0.908,0.627l-0.402-0.642
			L519.388,633.438z"/>
		<path id="Hermosa_Beach" fill="#FF0000" stroke="#000000" d="M528.744,636.035h-2.231v-2.747h-3.395l-0.263-0.372l-1.028,0.566
			l-0.312-0.558l-0.908,0.627l-0.398-0.642l-0.812,0.521l4.064,11.979l1.039,4.197l1.021-0.146l6.72-2.749l-0.312-5.188
			L528.744,636.035z"/>
		<path id="Redondo_Beach" fill="#FF0000" stroke="#000000" d="M535.826,631.458h-0.754v4.577h-6.084l2.93,5.498l0.312,5.187
			l-6.721,2.749l-1.021,0.146l0.024,0.878l-1.526,1.162l1.271,3.77l2.186,1.701l0.171-0.086l-2.126-1.729l-1.247-3.601l1.443-1.161
			l0.649,0.028l0.312,1.104l0.68,0.687l0.48,1.304l-0.77,0.255l-1.077-1.332l-0.227-0.595l-0.198,0.028l0.198,0.68l1.161,1.672
			l0.767,0.567l0.938,0.34l0.023,0.964l0.686,0.453l-0.062,1.049l0.651,1.105l-0.513,3.061l-0.06,12.385h2.438l1.133-1.133v-1.928
			h1.076l0.795,0.652l1.188,1.02h2.554v-7.085h1.271l-2.946-17.854l1.646-0.768v-1.445h11.619v-0.936l-2.607-2.182v-1.899h3.288
			v-4.874h-4.677V622.01h-8.984L535.826,631.458z"/>
		<path id="Inglewood" fill="#FF0000" stroke="#000000" d="M568.729,573.086h-4.632v2.479h-3.819v-3.985h-0.758v-5.707h-18.955v8.4
			h-1.073l-0.482,0.808l0.754,0.592v1.938l-1.938,1.131l-1.991,2.369v3.5h4.47l0.312,4.918h0.549v1.559l0.562,0.595l0.854-1.812
			l2.723-0.425l2.211,0.935l0.283-0.595h1.134v1.729h1.417v-0.646h4.022v2.806l-0.599,0.821l0.48,0.737v1.694l-0.709,0.709
			l0.906,0.963h4.396v0.97h-0.794v1.729l1.134,0.793h3.826l1.39-1.104v-1.19h1.699v-1.219h2.637L568.729,573.086z"/>
		<path id="Lawndale" fill="#FF0000" stroke="#000000" d="M549.802,635.865h-4.678v-13.859h-2.237l-1.477-1.502h3.771v-2.806h1.418
			v-0.709h2.664l0.906,0.794l0.312-0.34v-0.482h4.055v4.138l-0.257,0.256v1.247l0.198,0.283v10.854L549.802,635.865z"/>
		<path id="Hawthorne" fill="#FF0000" stroke="#000000" d="M554.47,622.873l-0.188-0.271v-1.241l0.256-0.262v-4.138h-4.056v0.482
			l-0.312,0.34l-0.904-0.794H546.6v0.709h-1.418v2.806h-3.771l1.443,1.502h-6.719l-0.15-4.897v-8.584h2.103h0.974v-0.57h1.222v8.104
			h0.512v1.104h1.929l0.143-1.189l0.515,1.021h1.843l0.196-1.928l-0.512-2.691l0.564-0.425v-2.019l-0.853-0.362l0.768-0.794v-0.798
			h-3.458l1.021-1.072v-3.373l-1.248-0.821v-2.154l0.479-0.731v-0.312h-0.793v-0.646h3.771l0.479-1.224l0.734,0.197l1.896-0.596
			v-1.048h1.478l1.929,1.16l0.853-0.709l1.021,0.988l0.903,0.965h4.396v0.968h-0.794v1.729l1.134,0.793h3.826l1.389-1.104v-1.19h1.7
			v-1.219h5.045v4.96l-2.211,1.247v2.409l1.332-0.515v1.444h-6.403v2.125h-4.763v1.39h0.963v1.331h3.808v4.79l-2.56,2.469
			l-0.709,0.145v-0.879h-1.271v2.551h-3.8L554.47,622.873z"/>
		<path id="Gardena" fill="#FF0000" stroke="#000000" d="M573.412,640.935h5.008l0.379-3.063h2.369v2.37h-1.776v1.021h3.123
			l0.7-0.857v-3.771l-0.538-0.861v-27.729l-18.812,0.086l0.109,21.562l6.963-2.588v9.209h2.531L573.412,640.935z"/>
		<path id="Torrance" fill="#FF0000" stroke="#000000" d="M570.936,627.149l-6.963,2.525l-9.494,4.062l-4.677,2.296v4.704h-3.288
			v1.896l2.605,2.188v0.936h-11.618v1.445l-1.646,0.766l2.942,17.854h-1.271v7.085h-2.554l-1.98-1.672h-1.077v1.928l-1.133,1.133
			l-2.438-0.104l-1.244,6.592h17.716l9.804,10.017l5.032,5.034H562v-2.504l1.021-0.161v-0.916h-0.646v-1.562h1.453v-1.075h-0.916
			v-6.683h1.188v-1.609h-1.292v-2.208h4.254v-0.538h4.738v3.715h1.612l0.058-45.986h-2.531L570.936,627.149L570.936,627.149z"/>
		<path id="Lomita" fill="#FF0000" stroke="#000000" d="M563.02,692.252h-0.646v-1.562h1.452v-1.077h-0.916v-6.683h1.187v-1.609
			h-1.292v-2.208h4.254v-0.538h4.738v3.715l1.613-0.001l0.107,13.086h-1.076l0.48,1.777h0.811l0.916,2.854h-1.35l-1.396-1.536
			h-1.077v1.161h-2.725l1.222-1.644v-1.36l-1.332-1.417l0.966-1.104l-2.638-1.224h-2.186v-0.68L563.02,692.252z"/>
		<path id="Rancho_Palos_Verdes" fill="#FF0000" stroke="#000000" d="M559.918,734.08l2.617-4.834h3.822v-1.023l1.562-0.377v-2.208
			l-0.915-0.538l0.859-1.071v-1.938l-1.021-0.482v-1.133h1.188v-2.639h3.18v-0.969h0.969l0.131,0.693h0.729v-6.778h4.577
			l-0.646-1.562h-3.983v-1.724h-1.611l1.938-5.008l0.105-2.479l-1.503-1.536h-1.077v1.161h-2.723v6.32h-1.527l-1.223-1.898
			l-1.672-0.085l-0.453,0.623h-2.438l0.854-1.049l-0.514-0.708l-1.562,1.91l-1.348,0.104l-0.973-0.161l-0.217,1.399l2.102,2.315
			l0.916,0.156l2.153,1.238l-1.348,0.861v2.149l1.075,1.672l-1.021,0.319h-0.755l-1.613,2.369l-1.187,0.162l0.432,1.131
			l-1.397,1.615l-2.689-1.4l-0.811,2.047l-2.047-0.479l-1.295-1.669l-1.285,1.086l-0.88-0.709l-0.057-1.562l1.672-1.844
			l-1.444-3.854l-4.394-2.238l0.396-0.854h-1.188l0.453-3.062l-0.539-1.162l-1.049-0.058l-0.736-0.565h-0.821l-2.295-2.184
			l-1.418,1.418l-1.502,0.194l0.767,3.543l0.062,3.031h-2.81l-1.476,1.021h-1.22l-0.991-1.477l-1.332-0.853l1.56-1.87l-0.279-0.964
			l0.904-0.027l1.613-2.041l2.919-0.396l-0.396-2.238H532.6v-1.048h1.188l0.938-0.992l0.342-0.624l2.664-0.396l0.341-1.93
			l0.819-2.041l1.393,1.247v0.684l-0.651,1.074l-0.88,0.966l-0.9,0.24l-0.457,1.74l1.646,1.247h0.819l0.938,0.878h1.528l0.367,1.051
			l0.819-0.171l0.396-1.391l-0.112-2.125l-0.562-1.844l0.143-1.306l-0.596-3.884l-0.854,0.769h-1.587v-0.396h-1.417v-1.646
			l2.295-2.153v-1.698l-0.596-0.367h-4.193l-0.794-0.428l-1.134,1.273h-2.066l-1.529,7.427h-8.785v11.423l-8.475,1.358l0.271,1.979
			l2.258,5.265l0.309,3.022l1.151,3.399l4.188-0.104l2.224,2.792l0.969,0.437l2.547-1.878l4.75-1.87l2.764,0.188l3.031,2.656
			l2.006,0.655l2.279-1.484l2.689,1.007l3.312,4.104l1.491,2.511l3.319,0.479l2.104,0.812L559.918,734.08z"/>
		<path id="Rolling_Hills_Estates" fill="#FF0000" stroke="#000000" d="M542.203,704.389c-0.112-0.006-0.961-0.052-0.961-0.052
			l-0.734-0.565h-0.822l-2.295-2.184l-1.418,1.417l-1.479,0.195l0.744,3.546l0.06,3.032h-2.808l-1.478,1.021h-1.221l-0.991-1.474
			l-1.331-0.854l1.562-1.87l-0.282-0.964l0.906-0.022l1.609-2.038l2.921-0.399l-0.396-2.239h-1.189v-1.048h1.189l0.955-1.024
			l0.317-0.587l2.516-0.373l0.464-1.805l0.851-2.188l1.393,1.247v0.681l-0.65,1.076l-0.88,0.964l-0.896,0.24l-0.464,1.744
			l1.646,1.247h0.818l0.938,0.878h1.529l0.369,1.049l0.817-0.17l0.396-1.395l-0.113-2.125l-0.562-1.843l0.145-1.304l-0.597-3.883
			l-0.854,0.766h-1.589v-0.396h-1.416v-1.646l2.296-2.154v-1.694l0.659-0.531l8.683-0.016l4.144,4.229l-1.199,1.483l-3.416,0.521
			l2.235,2.062l2.597,0.788l1.188-3.45l3.559,3.557h2.345v-2.504l1.021-0.161l0.026-0.917l1.096-0.044v0.68h2.184l2.638,1.225
			l-0.965,1.104l1.331,1.417v1.36l-1.219,1.644v6.32h-1.528l-1.22-1.898l-1.674-0.085l-0.453,0.623h-2.438l0.854-1.049l-0.514-0.708
			l-1.562,1.91l-1.487,0.084l-0.628-0.396l0.497-1.021l1.343-0.626l0.836,0.104v-1.433h-3.015l-5.675-4.802l-2.775-2.811
			l-1.359,0.771l-0.682,0.731l-1.529,0.085L544,696.374l-0.367,0.936l0.367,0.991l0.198,1.275l1.047,0.906l-0.366,0.88l-0.65,0.107
			l-0.396,1.761l-0.709,0.88L542.203,704.389z"/>
		<path id="Rolling_Hills" fill="#FF0000" stroke="#000000" d="M551.75,696.914l5.369,4.543h3.016v1.432l-0.836-0.104l-1.344,0.626
			l-0.697,1.3l-0.215,1.381l2.102,2.315l0.916,0.162l2.153,1.232l-1.348,0.861v2.154l1.077,1.669l-1.021,0.318h-0.755l-1.614,2.368
			l-1.186,0.162l0.432,1.131l-1.4,1.615l-2.688-1.399l-0.812,2.051l-2.045-0.484l-1.293-1.669l-1.287,1.086l-0.879-0.709
			l-0.058-1.562l1.673-1.846l-1.445-3.854l-4.394-2.239l0.396-0.852h-1.188l0.452-3.062l-0.707-1.171l0.99-0.273l0.746-1.049
			l1.721,0.906l5.018-4.763L551.75,696.914z"/>
		<path id="Palos_Verdes_Estates" fill="#FF0000" stroke="#000000" d="M544.844,680.808l5.604,5.729l-8.573,0.124l-0.637,0.512
			l-0.619-0.349h-4.192l-0.794-0.426l-1.135,1.271h-2.067l-1.53,7.426h-8.782v11.428l-8.603,1.256l-1.973-1.196l-0.654-2.354
			l1.11-1.631l-0.938-1.254l-2.212-0.64l1.164-2.729l0.348-2.438l4.79-4.631l4.78-2.182l-0.081-3.233l2.354-2.983l5.229-1.726
			L544.844,680.808z"/>
		<path id="Carson" fill="#FF0000" stroke="#000000" d="M618.914,667.644l-0.537-0.538l-0.699-2.902l-0.994,3.007l1.963,10.294
			l0.107,2.854l-1.614,2.804l-1.454,5.008l-3.934-4.688l-11.254,0.22l0.972-3.23h-4.095v3.556l-10.393,0.482v0.7h-1.672
			l-1.236-1.562v-4.31l0.859-1.508v-18.255l1.349-5.923v-5.768h0.104l-0.02-4.348l1.473-0.771l0.271-14.916h13.086l0.054,1.238
			l-2.263,2.047l0.378,0.7h4.094l-0.377-1.131l0.594-0.485h2.312v1.077h0.377v1.131h-0.646v6.307h3.396v0.912h3.771l1.077,13.842
			h14.646l-0.435,4.521h-1.99l-1.235,3.23h-1.077l-0.755,1.233v2.645l0.434,1.346h-2.479l-1.509,1.022L618.914,667.644z"/>
		<path id="Compton" fill="#FF0000" stroke="#000000" d="M638.302,618.104v3.56l0.401,0.403h1.268l0.435-0.679h1.45l0.597,2.154
			h1.021l-2.149,2.315l-0.539-2.268l-1.562,0.06l-0.215,4.093h0.215l-0.215,3.229h-11.312v3.771l1.774,0.593v2.907h-0.539
			l-0.646-2.262h-4.311v2.424h-2.208v0.915h-3.716v3.554h-2.208v-1.507h-0.86v-0.97h-1.132v-0.7l-0.97-0.06h-3.771v-0.915h-3.396
			v-6.301h0.646v-1.131h-0.377v-1.077h-2.312l-0.595,0.485l0.378,1.131h-4.094l-0.378-0.7l2.26-2.125l-0.055-1.16h-1.569
			l-0.281-2.755h1.188l-0.682-3.372l4.193-0.681l-0.598-3.771l4.509-0.143v-2.749h-4.962l0.453,2.806h-5.412v-2.232h1.135v-4.512
			h3.911v-2.552h4.899v-0.73h3.117v1.242h0.709v1.784h1.16V615l5.642-2.041l1.646-0.17l-0.794-6.887h-2.21l-0.369-1.898h4.562
			l1.049,0.85l0.795,6.015l1.897-0.482l2.834,1.502h1.358v-1.417l3.744,1.44l-0.754,2.8l1.562,0.054l0.97-3.016l0.971,0.104
			l-1.074,2.962l2.8,0.161l0.646-0.97h1.188v1.454H638.4v1.185h0.646v0.538L638.302,618.104z"/>
		<path id="La_Canada_Flintridge" fill="#FF0000" stroke="#000000" d="M638.771,438.492l-1.258-1.271l-3.09,0.34l-5.188-4.846H628.5
			l0.028-2.063l-1.896-1.729h-0.966l0.427-1.247l-2.404-1.842l-0.43-3.118l1.614-0.734l-0.367-1.646l-2.604,0.766l-1.076-0.709
			v-4.375l-2.396-0.916v-1.396l-1.186-0.753l-1.509-0.271l-0.271-0.431l1.188-0.754l0.812-0.216l0.43-1.776v-2.37l-0.592-0.538
			l1.188-0.915l-0.596-2.639l1.562-2.645v-1.938l1.021-1.293h0.756v5.762h2.104v-2.477l11.847,0.431v-9.854h4.415v19.388h1.562
			v0.915l1.078,0.162l0.696,0.915V413l-1.452-0.7v1.938l2.151,0.969l0.916,0.377v1.131l1.726,0.754l-0.699,1.729l0.811,1.346
			l2.53,0.916l1.347,0.104v1.99l-2.312,2.803h-0.596v-0.811h-0.969L645.36,427l-0.97,1.293v3.604l-1.348,1.137l1.509,1.131h1.236
			l0.81,1.615l-0.81,0.104l-0.536,0.971l-1.51-0.104l-1.021,1.131l-1.076-0.539L638.771,438.492z"/>
		<path id="Lakewood" fill="#FF0000" stroke="#000000" d="M708.259,653.644l-0.011,7.107l-1.145,0.903l-3.948-0.169l0.624-1.247
			v-1.077h-2.664v-0.879h-3.229v1.247l-0.396,0.511v1.304h-1.354v1.53l-23.331-1.021v-8.389h-9.521v9.271h-4.166l-0.734,2.097
			h-1.391v0.822h-0.854v1.694h-1.104l-1.417-1.271h-1.845v4.45h-1.614v-5.045h1.417V653.18h-2.21v-4.897h6.771v-2.019h-0.879v-1.812
			h5.979v-5.385h17.459v2.126h2.834v4.646h3.004l2.407,7.567h6.549v-2.104h2.578v2.104L708.259,653.644z"/>
		<path id="Bellflower" fill="#FF0000" stroke="#000000" d="M658.688,631.942v7.125H678.7v2.126l2.834-0.021l0.085-4.938h1.021
			l-1.134-3.01v-6.062h0.468v-12.13l-1.021-2.585H666.68l-1.235,0.808l-2.152-1.185l-0.055,5.271v8.353h-2.531v6.243
			L658.688,631.942L658.688,631.942z"/>
		<path id="Paramount" fill="#FF0000" stroke="#000000" d="M663.232,617.188l-0.002,8.515h-2.53v6.246h-2.013v-1.604h-14.229v-2.097
			l-5.285,0.095l0.039-0.594h-0.217l0.217-4.093l1.562-0.06l0.537,2.267l2.153-2.314h-1.021l-0.596-2.154h-1.451l-0.436,0.677H638.7
			l-0.401-0.401l0.021-3.575l0.732-0.951l0.137-0.538l3.996-4.104l0.854-6.66l1.356,0.396l-0.086,0.99l3.57,2.188l-0.427,0.646
			l-1.644,0.17l-0.089,1.021h2.64l0.17-1.36l4.761,2.467l1.051-2.212l-0.708-0.365l1.219-1.931l3.771,2.239l-2.013,3.854
			L663.232,617.188z"/>
		<path id="Lynwood" fill="#FF0000" stroke="#000000" d="M644.036,605.823l-0.851,6.66l-4.062,4.376l-0.716-0.211v-1.188h1.021
			v-1.454h-1.187l-0.756,0.963l-5.111-0.262l0.744-2.804l-3.736-1.438v1.417h-1.357l-2.834-1.502l-1.898,0.482l-0.793-6.012
			l-1.049-0.853h-4.562l-0.878-4.161h2.664l-0.624-4.795l-1.402-0.134l-0.093-3.924h0.957l0.283,2.13h2.013v0.82l5.072,0.966
			l-1.561-5.526l1.956,0.283l-0.062,3.146l1.529,0.514l-0.026,1.39l14.992,1.87l0.196,2.354l2.775,0.062L644.036,605.823z"/>
		<path id="South_Gate" fill="#FF0000" stroke="#000000" d="M617.51,590.996l0.282,2.13h2.014v0.822l5.07,0.964l-1.559-5.526
			l1.955,0.283l-0.061,3.146l1.529,0.51l-0.026,1.39l14.991,1.87l0.197,2.354l2.773,0.057h1.701l-0.992,7.227l-0.085,0.992
			l3.569,2.188l-0.426,0.646l-1.646,0.17l-0.085,1.021h2.638l0.172-1.36l4.761,2.466l1.049-2.211l-0.706-0.367l1.219-1.929
			l-7.538-4.138l1.222-1.389l0.365-1.591l0.709,0.229l0.938,0.879l1.7-1.645l-1.077-2.606l-1.188-0.256l-0.34-0.938v-2.521
			l3.602-5.158l1.56-2.976l-3.115-0.992l-4.678-0.992l-1.134-0.085v-1.389h-2.521v-1.021l-0.905,0.146l-0.257,0.538l0.709,0.73
			l-0.479,0.907c0,0-1.358-0.623-1.502-0.623c-0.146,0-1.502,0.17-1.502,0.17l-4.142-4.223l-10.229-1.36l-6.207-0.822l-0.708-0.731
			l-0.735,0.681v1.219l1.53,2.834l-0.88,0.146l-2.407-1.562l-1.306-0.057L617.51,590.996z"/>
		<path id="Vernon" fill="#FF0000" stroke="#000000" d="M611.482,560.701l-0.811-16.962h6.085l1.13-0.377l0.486,0.538h3.931
			l0.812-0.7l1.991,0.97l0.378-0.646h2.047l0.971,1.396h0.754v-1.02l7.483,1.131l-0.751,2.834l8.077,3.713l4.532,2.891l-0.682,1.275
			l-1.812-0.793l-1.698,1.188l0.283,1.562l0.733,0.878l-0.512,1.219l1.418,1.105l0.735,1.524l-0.821,0.369l-5.017-4.986
			l-11.058-1.589v8.445l-4.617-0.312v-3.629h-1.477v-1.271h-4.252v-2.777h-3.373v2.896h-0.396v1.332L611.482,560.701z"/>
		<path id="Huntington_Park" fill="#FF0000" stroke="#000000" d="M630.177,561.101v3.571l-4.619-0.312v-3.628h-1.475v-1.275h-4.252
			v-2.777h-3.371v2.896h-0.396v1.332l-4.596-0.201v8.104l0.709,0.368v1.394h2.639l3.345,0.023l4.729,0.709v0.737h4.081l-1.086,5.479
			l10.383,1.386l-4.618-5.441l0.682-0.596v-0.601h-1.104l-0.817-1.243v-1.562l-1.444-0.312v-1.933l2.211-0.17v-1.812l4.901,0.396
			h1.162l0.851-1.104l0.086-1.53l-0.991-0.879L630.177,561.101z"/>
		<path id="Maywood" fill="#FF0000" stroke="#000000" d="M647.068,562.433l-0.822,0.369l-5.016-4.982l-11.058-1.593v4.959
			l7.001,0.938l0.989,0.879l-0.085,1.53l-0.854,1.104l11.277,1.445l-0.281-2.466L647.068,562.433z"/>
		<path id="Bell" fill="#FF0000" stroke="#000000" d="M648.599,554.469l-0.68,1.275l-1.813-0.793l-1.697,1.188l0.279,1.562
			l0.737,0.878l-0.513,1.219l1.419,1.105l1.897,3.713l0.279,2.466l-11.026-1.414l-1.411-0.031l-4.901-0.396v1.812l-2.211,0.17v1.933
			l1.444,0.312v1.562l0.818,1.244h1.104v0.599l1.729,0.34h1.562l1.589,1.358l1.021-0.706l0.649-0.062l0.257-0.312h1.104l0.732,1.02
			l3.604,0.284l1.104,0.566l0.854-0.516l0.68,0.427l0.396,0.622h0.903l0.623,0.736l1.982-1.896l-1.075-1.274v-3.6l0.396-2.438
			l-0.988-3.287l-0.795-2.32l4.679,0.45l0.426-2.354h3.771l0.341,0.17l0.312-0.34l-0.025-0.736l-4.021-1.247l-2.125-1.812
			L648.599,554.469z"/>
		<path id="Cudahy" fill="#FF0000" stroke="#000000" d="M649.115,576.606l-0.604-0.712h-0.903l-0.396-0.623l-0.682-0.431
			l-0.854,0.516l-1.104-0.566l-3.603-0.284l-0.733-1.02h-1.104l-0.255,0.312l-0.65,0.062l-1.021,0.708l-1.588-1.36h-1.562
			l-1.729-0.51l-0.683,0.766l4.448,5.241l4.362,4.416l1.443-0.163l1.504,0.623l0.479-0.907l-0.709-0.73l0.256-0.538l0.904-0.146
			v1.021h2.521v1.389l1.385,0.139v-2.854l0.602-0.771v-3.146L649.115,576.606z"/>
		<path id="Bell_Gardens" fill="#FF0000" stroke="#000000" d="M654.92,585.446l-2.238-0.709l-4.271-0.905l-0.146-2.907l0.59-0.75
			v-3.033l2.271-2.403l-1.076-1.274v-3.401l0.396-2.636l8.812,1.332v1.842l8.444,1.31l1.303,0.17l0.822-0.623l0.396,1.474h-1.561
			l-1.05,0.598l-2.405,4.227l-7.029,4.986l-1.219,0.229l-1.615,1.955L654.92,585.446z"/>
		<path id="Downey" fill="#FF0000" stroke="#000000" d="M670.223,572.919h-1.474l-1.141,0.604l-2.402,4.214l-7.028,4.982
			l-1.22,0.229l-2.039,2.498l0.878,0.275l-1.561,2.979l-3.603,5.158v2.521l0.343,0.938l1.188,0.256l1.076,2.604l-1.699,1.646
			l-0.937-0.879l-0.709-0.229l-0.368,1.587l-1.22,1.395l7.539,4.138l3.771,2.239l-2.013,3.854l5.623,3.142l0.051-4.992l2.152,1.185
			l1.236-0.808h14.271l-0.493-2.913v-5.328l2.834-6.688l0.368,0.598h7.539l-3.911-7.198l0.198-1.359l2.098-3.396l-9.354-7.396
			l-5.413-7.144l-2.553,1.304h-2.039v-0.005h0.005v-0.005h0.004L670.223,572.919L670.223,572.919z"/>
		<path id="Norwalk" fill="#FF0000" stroke="#000000" d="M710.24,627.277h-4.506v-0.431h-2.354v1.36h-2.151v3.314l-1.785,0.088
			l-8.331,0.021v0.822l-0.513,0.595h-1.929v-5.895h-6.688l-0.017-12.132l-1.051-2.744l-0.468-2.753V604.2l2.834-6.688l0.367,0.601
			h7.539l1.076,0.766l0.084,0.906l2.127-2.556l1.332,0.146v1.271h5.301v1.847h2.295v-0.907h2.408v8.332h1.981l0.537,1.871
			l4.422,2.749v2.183h-0.851v1.587h-0.795v1.05h5.07v2.187h1.646v2.438h-2.605v1.31l-7.991-5.841h-1.33v4.616h4.449L710.24,627.277z
			"/>
		<path id="Santa_Fe_Springs" fill="#FF0000" stroke="#000000" d="M724.523,629.8l-4.533-2.806l-9.74-0.112l0.104-4.819h-4.449
			v-4.613h1.332l7.988,5.838v-1.309h2.606v-2.438h-1.646v-2.182h-5.07v-1.055h0.794v-1.587h0.853v-2.183l-4.423-2.749l-0.537-1.871
			h-1.981v-8.332h-2.408v0.907h-2.295v-1.843h-5.301v-1.274l-1.332-0.143l-2.125,2.551l-0.115-0.93l-1.174-0.979l-3.688-6.791
			l0.248-1.769l1.951-3.166l3.799-5.498l0.143-1.845l-1.049-2.979l6.353,2.409l1.729,1.612h1.417l1.562-1.357v-0.963l-1.332-0.514
			h2.065l0.567-0.598l-0.086-0.99h-0.77l0.598-0.768l-0.111-0.991l-0.822-0.227l-1.355,0.312l-0.538-0.511l-0.48,0.479l-1.356-0.964
			l0.817-0.769l-1.02-1.729l1.474,0.396l1.076,1.701l3.09,0.765l5.583,1.759l-0.479,1.247v2.577l2.354,1.898l-0.963,1.673
			l3.313,0.596l-3.854,3.911l1.531,1.247l1.243-1.162l1.272,1.189l-0.904,1.475l-0.648-0.511l-0.736,0.936l-0.852,0.171l2.493,1.898
			l1.074-0.454l1.674,1.134l-0.854,0.771l-1.104-0.6l-0.396,0.736l0.112,1.87l-1.307,0.479v1.845l1.248,0.281l0.145,4.106
			l-0.992-0.562l-0.084-3.146h-1.844v1.162l-1.673-0.198l0.059,8.308h1.927l0.566,0.623l0.991-0.649l6.291,0.026v1.356l-0.366,0.061
			v6.122h0.766v0.709h0.854v1.219h2.637L724.523,629.8z"/>
		<path id="Commerce" fill="#FF0000" stroke="#000000" d="M674.814,571.615l-2.555,1.304h-2.041l-0.396-1.474l-0.939,0.604
			l-9.631-1.458v-1.842l-8.824-1.371l-1.771-5.572l4.678,0.453l0.426-2.353l3.812,0.021l0.295,0.146l0.312-0.34L658.152,559
			l-4.023-1.247l-2.125-1.812l-3.463-1.357l-4.521-3.029l-8.023-3.688l0.751-2.834v-1.53h2.339v0.651h3.286v2.488h3.007v-4.676
			l9.125,5.045l3.031-5.584l3.908,1.19l-0.622,5.354l10.771,0.794l-0.059,1.506l-1.104,2.15l0.708,0.481l-0.682,5.838l2.409,1.219
			l-1.982,3.458h-1.077l-1.104-1.162l-0.684,1.134L674.814,571.615z"/>
		<path id="Monterrey_Park" fill="#FF0000" stroke="#000000" d="M686.123,525.079l-0.054,0.807l-2.644,2.062l0.801,0.615
			l0.166,1.165l5.676,1.477l-2.277,0.176l-1.241,2.293h-2.041l-2.21,2.664l-4.055-4.053h-15.221l-2.7-0.87l-2.8-0.485h-2.691v-3.015
			l0.971-2.639h-6.729l0.646-1.239v-1.453h-0.916l0.321-4.688h0.271l-0.02-4.633l1.521,0.699h0.38h6.893l2.369,0.162l1.454,1.238
			h0.81l2.151-1.729h2.264l0.434-1.346l-0.537-3.178h14l0.271-1.352l0.811-0.054l0.378,0.592v9.693l-0.218,0.431v5.277l1.075,0.322
			l1.188-0.646L686.123,525.079z"/>
		<path id="Alhambra" fill="#FF0000" stroke="#000000" d="M682.025,507.726l-0.646,0.044l-0.271,1.351h-14.001l0.538,3.178
			l-0.435,1.347h-2.264l-2.151,1.729h-0.81l-1.453-1.238l-2.368-0.162h-6.785v-1.83l1.775-4.198v-2.424h1.076v-1.294h-0.596V493.83
			l3.068-2.692l0.077-0.697l7.354-0.105l-0.432-3.554h3.877v-1.831l4.094-2.692l3.285,3.936l2.479-1.452l2.208,3.77l0.215,4.954
			l2.103-1.021v14.755L682.025,507.726z"/>
		<path id="South_Pasadena" fill="#FF0000" stroke="#000000" d="M656.718,490.43H644.33v-8.076h0.539v-1.021h0.592v-0.377h1.562
			l2.526-3.123l-0.433-1.077l1.348-1.131l-0.748-1.695l9.562-0.229l1.076-0.907l3.629,4.138l1.826,3.917l-0.595,0.812l2.369,3.282
			v1.828h-3.877l0.431,3.559L656.718,490.43z"/>
		<path id="San_Marino" fill="#FF0000" stroke="#000000" d="M675.361,485.946l-0.395,0.229l-3.281-3.932l-4.162,2.597l-2.304-3.188
			l0.597-0.812l-1.616-3.917h0.979l3.175,0.822l2.408-0.021l0.623-0.461v-1.104l-0.479-0.566v-1.104l-1.359-2.381v-2.018
			l6.925-2.206l2.432-0.027v-2.642l5.693,0.062v0.899h4.975l1.773,6.478l1.293-0.915l0.271,1.131l-1.131,0.538v1.239l-0.482,0.479
			v4.472h-3.771l-0.914,0.915l-4.361,0.219l-0.055-0.596l-3.338,0.378l-1.729,1.188l-1.186,2.208l-0.538,1.346L675.361,485.946z"/>
		<path id="San_Gabriel" fill="#FF0000" stroke="#000000" d="M693.719,492.855v2.148h-0.597v3.627l2.153,3.486h-2.101v2.381h-0.597
			v1.389h0.906v1.445h-6.66v0.566l-4.215,0.396l-0.646-1.094l-0.004-14.786l-2.102,1.023l-0.216-4.954l-2.207-3.771l-2.026,1.189
			l0.053-0.827l1.65-3.378l1.726-1.188l3.338-0.377l0.059,0.598l4.357-0.221l0.915-0.915l3.771-0.104l0.754,0.754l-0.482,0.539
			v3.392h2.208v0.976h-0.916v0.754l-1.187-0.107l0.056,0.699h1.293v-0.484h1.669v0.484l0.812-0.054v-4.79h0.539v4.308h2.423v2.315
			l-0.106,1.449l-1.187-0.217v1.938h-0.323v-2.104h-0.807v0.86l-1.133-0.323v-0.592l-1.398-0.162l-1.613,0.485l0.646,0.646
			l-0.058,1.4L693.719,492.855z"/>
	</g>
</g>
<g id="Holes_in_Cities">
	<path id="Innerhole_Lancaster_W" fill="#00FF00" stroke="#000000" d="M598.832,92.511v7.323h2.691v7.162h2.746V92.457
		L598.832,92.511z"/>
	<path id="Borderhole_Lancaster_W" fill="#00FF00" stroke="#000000" d="M600.607,106.942v1.885h-5.979v0.861h-1.887l-0.433-0.431
		h-3.396v0.808l1.131,0.592v2.854h-2.64v1.023l2.423,0.27v1.454h-4.898v-8.239h-1.348v-1.185h-10.123v-4.9h4.523v-1.131
		l-0.484-0.323v-3.23h0.594v-9.262h5.009v2.154h0.916v1.346h-1.294v1.021h2.529v9.37h2.642v2.585h1.938v-7.162h-2.64V90.41h5.008
		v11.685h4.688v4.847H600.607L600.607,106.942z"/>
	<path id="Innerhole_Palmdale_W" fill="#00FF00" stroke="#000000" d="M660.58,167.674l0.17,4.081l0.312,1.559h-1.36v1.275
		l-1.528,1.048l-1.162-0.907l-0.964-0.028v-1.445h-2.978v-0.907l2.637-1.984v-0.793l1.021-0.907l-0.396-0.114l-1.021,0.794
		l-0.623-0.142l-0.793,0.396l-0.113-0.198l2.15-1.814l0.174-0.454h1.158l1.87-1.19l0.736,0.397L658,167.673l0.938,1.304
		L660.58,167.674z"/>
	<path id="Innerhole_Palmdale_ctr_tiny" fill="none" stroke="#000000" d="M673.25,171.982l0.229,1.275l0.197-0.028l-0.197-1.275
		L673.25,171.982z"/>
	<path id="Innerhole_Palmdale_ctr" fill="#00FF00" stroke="#000000" d="M676.084,168.439l0.651,4.591h3.229v-4.875L676.084,168.439z
		"/>
	<path id="Innerhole_Palmdale_E_big" fill="#00FF00" stroke="#000000" d="M684.843,163.508v7.114h33.046l0.396,2.267h9.27
		l0.198,5.016h14.312v-9.354h23.522v-28.738h-9.383v-4.79h-42.938V146.9h-4.646v2.551h-5.812l-0.595,0.68v3.911h-0.853v6.49
		l-0.938-0.229v-0.652h-1.188l-1.871-1.36h-1.134l0.937,1.19v3.968L684.843,163.508z"/>
	<path id="Innerhole_Palmdale_E_tiny" fill="#00FF00" stroke="#000000" d="M696.432,154.297v2.466l1.104,0.482l0.312-0.596v-0.878
		h0.938v-1.19l-0.536-0.822L696.432,154.297z"/>
	<path id="Innerhole_port" fill="#FF0000" stroke="#000000" d="M572.385,720.496v2.521h7.086v-3.735h-0.938v-0.601h-1.021v0.516
		h-1.021v2.892l-1.358-0.114v-1.439L572.385,720.496z"/>
	<path id="Tinyhole_near_Marina_Del_Ray" fill="#FF0000" stroke="#000000" d="M515.785,563.401l1.531,2.353l1.587-0.992
		l-2.126-2.147L515.785,563.401z"/>
	<path id="Hole_Marina_Del_Ray" fill="#FF0000" stroke="#000000" d="M489.854,565.301l6.268,10.604l10.517-6.944l-4.899-5.328
		l-8.138-2.097L489.854,565.301z"/>
	<path id="Hole_Baldwin_Hills" fill="#FF0000" stroke="#000000" d="M534.803,568.305l1.417-0.731l2.775-0.113v-1.646l-1.443,0.025
		l-1.502-2.04l2.976,0.793v-0.851l0.685,0.341h4.705l5.157-0.17v-3.798h5.045l0.479,0.562h2.749v-5.237h2.895l0.195-1.14v-2.437
		l-2.381-4.082l-3.26,2.126h-2.606l-1.357-0.368l-1.613,0.255v0.822l-2.066,2.153v1.843l-0.768,0.51l-0.938-2.381l-0.111-1.644
		v-0.737l1.246-1.161v-2.069h-0.77l-1.697,0.737v0.963l-1.417,0.567l-1.331-1.134v-5.498h-3.031v2.21h-0.683l-0.541,0.502h-1.831
		l-3.66-0.538l-3.396,6.838l4.522,0.862l-0.539,2.584h-1.131v1.938l0.971,0.916l-2.152,1.729h3.067v-0.861l1.726-1.022l0.057,2.806
		l-3.853,7.045l1.118,0.312L534.803,568.305z"/>
	<path id="Hole_Veteran_x27_s_Administration" fill="#FF0000" stroke="#000000" d="M487.365,513.604l6.188,8.353l1.236-0.812
		l1.133,1.136l2.313-1.453l-0.699-1.777h0.433l-0.319-0.808l1.988-1.4l-5.111-7.104l-2.104,0.646l-0.377,0.271l2.313,2.963
		l-2.047,1.508l-1.35-1.562l-0.755-2.854l-1.886-1.776l-1.346,1.188L487.365,513.604z"/>
	<path id="Hole_Beverly_Crest" fill="#FF0000" stroke="#000000" d="M514.567,480.107v4.646h4.445v-2.126h-1.304v-1.445h-0.822
		v-0.623h-1.219v-0.709L514.567,480.107z"/>
	<path id="Hole_Compton-Paramount" fill="#FF0000" stroke="#000000" d="M633.486,625.837l4.021-0.51l-0.085-7.284l-1.729,0.057v1.36
		h-0.454v-1.502l1.05-0.028l-0.027-2.097l1.077-0.028v-0.511l-2.065-0.17v1.757h-0.539l-0.025-1.87l-2.692-0.227l0.028,1.049
		l0.936,0.028v0.708l-0.964,0.454l0.283,3.904l0.565,0.539l-0.027,1.7l0.511,0.17L633.486,625.837z"/>
	<path id="Hole_Rancho_Dominguez" fill="#FF0000" stroke="#000000" d="M629.719,630.372l-0.964-2.579v-1.814h1.812v1.275h0.879
		l-0.084-1.474h1.219v2.438h0.964v2.069L629.719,630.372z"/>
	<path id="Hole_S_Lakewood" fill="#00FF00" stroke="#000000" d="M681.596,663.032l-3.395,0.215v1.077h-1.562v2.312h3.284v-1.723
		h1.131v1.615h0.593L681.596,663.032z"/>
	<path id="Tinyhole_Vernon" fill="#FF0000" stroke="#000000" d="M627.762,547.448h1.715v1.179l-0.115,0.521l-1.536-0.238
		L627.762,547.448z"/>
	<path id="Tinyhole_San_Gabriel" fill="#FFFFFF" stroke="#000000" d="M693.442,487.11l-1.454,0.104l0.161,0.812l1.508-0.107
		L693.442,487.11z"/>
	<path id="Hole_Monrovia-Azusa" fill="#00FF00" stroke="#000000" d="M789.184,451.14v4.738h5.012v-4.36l-1.075-0.432L789.184,451.14
		z"/>
	<path id="Hole_Irwindale-Covina" fill="#00FF00" stroke="#000000" d="M798.984,489.104v2.267h-2.531v-2.479h-0.969v2.37h-0.646
		v2.153h-2.423v-2.262h-1.726v-1.992h1.235l0.646-0.915l4.358-0.216v1.185L798.984,489.104z"/>
	<path id="Hole_San_Dimas-La_Verne" fill="#FFFFFF" stroke="#000000" d="M834.793,451.247l-0.159,2.639l0.915-0.054l0.322-2.531
		L834.793,451.247z"/>
	<path id="Hole_Azusa-Glendora" fill="#00FF00" stroke="#000000" d="M800.707,464.171l2.479-0.7v-2.208H802v-1.131h-0.754v-1.615
		h2.479v1.562h-1.396v0.86h1.077l0.318-0.22v-0.431h0.377v0.215h1.077v-2.262l0.377-0.434l-0.104-0.914h-1.075v-1.351l-2.586,0.06
		l-0.216,1.347l1.187,0.161v1.021h-1.508l-0.539-0.592l-0.699,1.723l0.105,0.915h1.077l0.056,0.976h-1.133l0.7,1.131
		L800.707,464.171z"/>
	<path id="Hole_La_Verna-Claremont" fill="#00FF00" stroke="#000000" d="M897.654,461.146l1.561,1.354l1.646-3.429l0.17-1.76
		l-0.793-0.536l-0.967,1.075l0.256,0.988h-0.733v1.479l-1.021,0.227L897.654,461.146z"/>
	<path id="Hole_San_Dimas-Walnut" fill="#00FF00" stroke="#000000" d="M885.354,474.979h1.531l0.112-4.898h-5.84l-0.058,2.688h0.767
		v1.417l-0.565,0.396v0.369h2.721l0.029-1.786l-0.794-0.146v-1.156h1.162l0.964-0.651L885.354,474.979z"/>
</g>
</svg>
