<?xml version="1.0" encoding="utf-8"?>
<!-- Generator: Adobe Illustrator 16.0.0, SVG Export Plug-In . SVG Version: 6.00 Build 0)  -->
<!DOCTYPE svg PUBLIC "-//W3C//DTD SVG 1.1//EN" "http://www.w3.org/Graphics/SVG/1.1/DTD/svg11.dtd">
<svg version="1.1" id="svg2" xmlns:svg="http://www.w3.org/2000/svg"
	 xmlns="http://www.w3.org/2000/svg" xmlns:xlink="http://www.w3.org/1999/xlink" x="0px" y="0px" width="950px" height="780px"
	 viewBox="0 0 950 780" enable-background="new 0 0 950 780" xml:space="preserve">
<g id="LA_county_base_map">
	<path id="path4333" opacity="0.98" fill="#00FF00" enable-background="new    " d="M917.629,21.069v170.676h5.055v73.674
		l7.581,101.084l-16.911,79.506l-26.179,83.574l-1.62,9.929l-3.896,1.673l-16.902-3.229v12.209l-9.067,0.27l-9.367,18.739
		l0.104,4.954h4.631l-0.053,8.939l5.601,5.272l-68.438,0.484l-4.739-1.188v0.915l-31.016,0.217v27.946h-4.578v4.415h-4.738v4.954
		h-4.846v4.687h-4.577v4.688h-9.37v4.846h-4.17L707.878,654.2v6.298l-2.046,2.369v7.593l-3.852,2.366l-1.591,0.703l-6.085,7.377
		l-1.728,6.469l-6.242,10.655l3.554,7.539l-0.127,12.679l-4.231,8.461l-5.832,5.637l-16.068,4.066l-55.854,10.318l-15.274-4.847
		l-3.623,2.129l-1.812-1.979l-3.224,1.991l-3.671-0.02l-1.944-2.722l-9.329-2.722l-4.082-2.916l-15.354-5.831l-5.639-6.609
		l-6.414,0.777l-2.916-3.892l-10.107,4.082l-3.5-3.106l-3.888,0.583l-1.943-8.747l-4.666-8.556l1.167-2.525l-2.916-1.749
		l2.143-6.026l9.33-5.638l-0.777-3.305l3.693-3.498l3.497-1.168l1.558-7.39l-0.195-15.552l-13.021-33.824L503.2,596.071L489,570.612
		l-14.773-20.605l-10.688-11.08l-14.969-10.104l-10.108-0.778l-7.772-2.138l-6.414,2.522l-7.974-0.972l-6.605,1.556l-13.607,0.194
		l-14.968-1.556l-6.221,0.773l-2.333,4.083l-8.165-0.584l-5.054,1.56l-17.884-2.143l-6.221,0.977l-3.499,3.689l-9.525,0.392
		l-6.026,2.139l-4.859,8.357l-6.609,4.274l-18.854-16.718L275.56,529.4l-16.523-2.916l-14.968-2.527l-6.221-1.749l-3.11,1.36
		l-4.859-1.559l2.523-18.856l82.28-59.664h65.102l0.27-46.312h19.116l-0.216-20.407l-1.615-12.867L260.585,20.875h8.553L267,26.707
		l4.471,4.859h11.858V21.069H917.629z"/>
	<path id="path4335" fill="#00FF00" d="M308.519,598.284l19.1,3.383l17.188-1.842l11.495,12.396l7.229,3.564l2.136,5.572
		l2.366,1.999l9.311-4.604l20.36,12.688l27.521,6.957l4.096,5.423l5.628-0.516l2.762,2.864l-1.324,10.06l19.438,21.047l3.479,8.288
		l4.399,1.432l5.46,8.137l2.623,6.802l-1.023,7.979l-11.562,6.139l-16.438-10.438l-11.972-2.778l-15.146-0.255l-17.174,0.204
		l-13.856-4.229l-13.71-21.072l3.479-6.957l-2.149-3.377l3.683-1.739l-0.921-2.354l4.195-1.842l-0.819-2.864l-2.046,0.515
		l-3.357-13.766l-1.006-6.136l-3.125-2.836L362.065,633l2.495-6.572l-5.071,3.023l-1.58,5.979l-1.891-1.82l-4.262-4.262
		l-5.614,0.969l-0.205-2.454l-7.859-1.438l-3.771,1.409l-4.227-0.995l-6.019-3.438l1.595-2.689l-0.896-2.364l-2.345-0.444
		l-9.319-12.648l-3.376-1.125L308.519,598.284z"/>
	<path id="path6275" fill="#00FF00" d="M371.753,722.588l-13.183-13.656l-31.625-25.553l-18.841-19.27l-7.074-3.937l-11.973-8.858
		l-9.654-17.634l-5.439-3.819l-7.563-10.64l-2.667-8.104l-6.139-4.092l-4.096-9.894l0.626-1.979l-5.684-5.092l-6.02,2.405
		l-5.18-3.27l-4.792,2.208l-0.298,10.043l4.708,0.51l4.26,1.617l2.983,7.12l2.819,6.539l0.755,7.616l4.146,8.057l2.499,3.036
		l8.157,9.491l1.544,9.1l2.298,3.319l-0.816,4.163l3.091,3.897l0.71,3.101l4.398,2.841l6.514,9.644l-0.004,2.271l7.559,4.903
		l4.417,15.911l13.322,7.375l2.125,3.452l6.479,4.116l5.573,4.828l2.369,0.377l2.479,3.284l4.799,0.031l1.744,7.216l1.756,0.144
		l4.87-5.195l5.188-0.984l5.292-6.241l7.314-1.45l5.209,1.68l5.037-0.582l5.531,3.396l0.814-1.751L371.753,722.588z"/>
</g>
<g id="LA_county_outlines">
	<path id="path2374" fill="none" stroke="#000000" stroke-width="2.5" d="M589.623,742.404l0.431,0.696l-1.185,0.915l-0.162-1.292
		l-2.314-0.97l-1.455,0.916l-0.807,1.347l-3.716,0.106l-0.7-1.669l-1.238-0.97l-1.988-0.058l-6.52-3.177l-1.724,0.593l-2.423-2.208
		h-0.646l-0.054-1.073l-1.831-0.058l-5.762-2.585l-2.369-1.021l-0.812-1.076l-1.938-0.057l-1.188-0.859l-1.235,0.481l-0.861-0.159
		l-0.161-1.614l-0.916-0.593l-0.215-1.238l-3.608-3.555l-1.938-0.646l-1.508,0.539l-0.595,1.186l-0.482,0.057l0.105-1.131
		l-1.021-0.597l-1.188,0.974v0.48l-1.185-1.021l0.271-0.812l-0.754-0.969l-2.479-0.862l-2.1,0.323l-1.938,1.348l-2.047,0.106
		l-0.323,0.539l-1.076,0.215l-1.347,1.454l-1.562-0.7l-0.218-0.808l-0.86-0.161l-0.056-1.131l-0.755-0.646l-3.931,0.323
		l-0.161-1.616l-0.7-0.857l-0.162-0.756l-0.537-0.697l0.646-1.131l0.161-0.756l-0.812-0.698l-1.075-0.271l1.075-0.538l0.538-0.27
		l-0.699-0.915l-0.696-0.162l-0.377-0.592l0.592-0.434l-0.861-0.646l-0.431-0.916l-0.812-1.615l0.594-0.808l-1.613-0.377
		l-0.971-0.755l0.594-0.434l0.054-1.021l-1.131-0.057l-0.484-0.593l1.188-0.916l0.481-1.077l-0.696-1.185l-1.132-0.484l-1.615-0.322
		l-0.161-0.697l1.237-1.188l0.481-1.075l0.216-2.151l2.208-2.265l2.584-2.368l4.578-1.887l0.377-0.538l-0.321-1.669l0.105-2.047
		l2.369-2.312l2.746-0.916l0.481-0.434l1.399-0.321l0.915-3.933l0.646-3.067l0.217-7.81l-0.056-5.385l0.056-1.992l-0.433-1.616
		l-0.482-0.858l-0.434-1.076l-0.915-0.646l-1.185-1.021l-0.861-1.453l0.433-0.055l0.646,1.291l1.348,0.86l-0.055-0.97l-1.238-1.454
		l-0.216-1.021l-0.593-0.107l-1.346,1.022l0.969,3.5l2.424,1.886l-0.216,0.27l-2.315-1.83l-1.185-3.932l1.397-1.077l-0.971-4.954
		l-2.262-7.377l-3.395-8.347l-3.659-8.077l-2.908-6.785l-3.446-8.292l-1.775-2.747l-0.914-2.477l-1.188-4.039l-2.1-4.688
		l-1.454-1.452l-3.718-8.076l-1.021-2.369l-0.915-1.077l-1.562-1.398l-1.236,0.811l-0.055-0.162l1.186-0.754l-0.646-0.861
		l-0.271-0.538l-1.076,0.699l-0.104-0.161l1.185-0.754v-1.4l-2.369-3.769l-1.991-3.179l-3.282-3.983L483,562.766l-0.323-1.562
		l-3.067-4.199l-2.529-3.555l-3.5-4.47l-2.424-1.831l-1.076-0.755l-0.972-2.207l-4.415-4.633l-3.444-2.585l-2.479-2.479
		l-3.178-1.885l-3.661-1.888l-3.555-1.884l-2.046-0.916l-3.934-0.104l-1.562,0.808l-1.562-0.431l-4.687-1.888l-2.423-0.161
		l-1.777,0.538l-1.077,0.915l-1.396-0.377l-1.188,0.323l-1.021,0.861l-2.584-0.162l-2.641-1.022l-2.586,0.162l-3.393,0.215
		l-3.446,1.776l-4.2-0.377l-3.393-0.592l-1.508,0.809l-4.473-0.105l-0.697,0.431l-3.554-0.969l-2.1-0.271l-0.377-0.432l-0.754,0.7
		l-7.539-0.973l-4.038-0.215l-2.747,0.699l-1.884,1.562l-0.323,1.725l-0.323,0.86l-1.346,0.483l-1.777-0.217l-2.746-0.646
		l-3.931-0.104l-2.908,1.348l-2.154,0.434l-1.723-0.755l-2.208-0.539h-4.039l-5.116-0.914l-2.423-0.218l-2.962,0.322l-3.016,0.271
		l-2.1,1.021l-1.616,1.398l-0.969,1.67L327.54,536l-4.469,0.539l-5.062,1.509l-2.369,0.592l-1.454,2.208l-1.4,2.154l-0.916,1.884
		l-0.377,0.377v1.993l-2.315,0.86l-2.423,0.754l-1.131,1.292l-0.054,1.831h-1.238l-1.239-1.562l-2.477-2.53l-1.077-1.774
		l-2.746-2.53l-5.439-5.275l-4.954-3.983l-4.685-2.962l-3.5-1.562l-2.477-0.754l-0.811,0.754l-7.055-2.369l-6.031-0.32l-3.608-0.811
		h-2.531l-2.262-1.235l-2.584-0.162l-1.723-0.538l-3.5,0.104l-2.1-1.346l-2.208-0.7l-2.369-0.481l-2.154,0.481l-1.131,1.077
		l-5.331-1.131l2.046-19.225l48.948-35.485l33.332-24.179h65.102l0.27-46.312h19.116l-0.218-20.408l-1.612-12.868L260.585,20.875
		h8.553l-1.75,3.693L267,26.707l0.972,1.555l2.722,3.305h12.635V21.069h634.3v170.676h5.055v73.674l7.581,101.084l-16.911,79.506
		l-26.24,83.783l-1.559,9.72l-3.499,1.749l-17.301-3.305v12.209l-9.067,0.27l-9.371,18.739l0.108,4.954h4.631l-0.054,9.154
		l5.6,5.062l-68.438,0.484l-4.739-1.188v0.915h-25.577l-5.438,0.22v27.943h-4.577v4.415h-4.738v4.954h-4.846v4.688h-4.577v4.685
		h-9.37v4.846h-4.687v2.531h-2.424v2.154h-2.425l-0.161,3.604h-2.208v2.154h-2.423v2.639h-2.101v7.107l-1.131,0.859l-0.915,1.51
		v7.593l-4.474,2.746l-0.969,0.322l-3.822,4.736l-2.263,2.642l-1.724,6.462l-1.992,2.854l-4.254,7.812l3.554,7.538l0.107,4.309"/>
	<path id="path2376" fill="none" stroke="#444444" stroke-width="2" d="M591.223,742.679l1.271-0.788l15.275,4.848l6.805-1.361
		l48.984-8.941l16.137-4.083l5.832-5.637l4.231-8.461l0.409-6.211l-0.025-2.218"/>
	<path id="path3365" fill="none" stroke="#000000" stroke-width="2.5" d="M489.088,575.421l0.485,2.8l1.396,1.939l0.539,0.484"/>
	<path id="path5305" fill="none" stroke="#000000" stroke-width="2.5" d="M307.976,598.188l19.644,3.479l17.188-1.842l11.254,12.273
		l7.469,3.687l2.353,6.139l2.148,1.437l9.311-4.604l20.36,12.688l19.746,5.729l7.771,1.229l4.096,5.424l5.628-0.516l2.762,2.864
		l-1.841,9.413l8.799,10.947l11.15,10.742l3.479,8.288l4.398,1.432l5.317,7.775l2.767,7.16l-1.023,7.979l-11.562,6.139
		l-15.854-10.229l-7.162-2.562l-15.449-1.228l-14.319,1.534l-10.334-1.022l-11.458-3.989l-6.037-8.082l-7.673-12.992l3.479-6.956
		l-2.149-3.378l3.683-1.738l-0.921-2.354l4.195-1.843l-0.819-2.862l-2.046,0.513l-1.229-7.161l-2.046-4.811l-0.307-6.55
		l-2.149-3.784l-4.604-1.125l-4.297-2.659l2.865-6.345l-5.32,3.173l-1.33,5.831l-1.841-0.408l-0.103-2.969l-4.297-2.764
		l-5.525,1.021l-0.205-2.455l-8.39-1.534l-2.25,1.738l-5.218-1.229l-0.102-1.433l-6.037-2.047l1.944-2.047l-1.125-2.969
		l-2.251-0.308l-5.627-8.392l-1.944-0.309l-1.842-4.093l-3.376-1.125l-0.205-2.765L307.976,598.188z"/>
	<path id="path6276" fill="none" stroke="#000000" stroke-width="2.5" d="M342.298,729.804l1.938-1.885l0.646-1.992l2.962-2.8
		l4.523-1.831l4.092,0.323l4.2,1.615l3.5-1.077l2.639,0.808l4.469,3.069l0.861-1.508l-0.376-1.938l-12.008-12.654l-7.323-6.246
		l-4.9-3.77l-7.485-6.785l-7.592-5.977l-5.385-3.662l-11.147-11.312l-7.808-8.073l-4.038-1.616l-7.054-5.385l-8.131-5.927
		l-2.208-3.393l-7.27-14.108l-5.439-3.819l-1.885-3.396l-5.492-6.677l-2.854-8.67l-2.639-2.8l-3.5-1.292l-0.431-2.154l-3.877-7.323
		l1.023-1.991l-0.969-2.102l-4.9-3.393l-6.731,2.688l-2.585-1.562l-1.884-1.992l-4.792,2.208l-0.377,6.677l-0.539,2.692l1.185,1.293
		l1.508-0.435l4.846,0.596l2.046,1.347l2.639,5.223l0.969,5.331l2.854,4.039l-0.162,6.246l4.146,7.054l0.538,3.02l4.254,2.801
		l2.585,3.5l2.692,2.854l2.046,4.358l-0.27,5.654l2.908,4.2l-0.969,1.562l0.161,2.746l3.069,2.962l0.054,3.285l1.724,1.562
		l2.423,0.811l2.854,3.339l1.4,3.5l3.662,4.469l-0.593,1.616l5.978,3.661l1.562,1.077l1.346,2.478l-0.431,2.584l1.454,4.474
		l1.615,2.149l0.431,2.316l-0.592,1.83l2.477,1.077l3.985,3.281l2.477,1.238l2.639,0.811l2.423,1.235l1.131,1.131l0.646,2.208
		l1.615,0.646l1.993,0.7l1.777,1.938l2.423,1.615l2.584,2.477l2.046,1.728l2.369,0.377l1.777,2.262l0.7,1.022l2.477-0.757
		l2.854,0.973l1.077,3.77l0.054,3.23l1.4,0.539l2.262-1.888l2.908-3.661L342.298,729.804z"/>
</g>
<g id="Cities">
	<path id="Malibu" fill="#00FF00" stroke="#000000" d="M242.093,522.807l0.165-2.228l2.046-5.218v-4.297l1.637-3.069l24.657,9.515
		l0.103,2.046h0.204v4.399h4.707v-1.943l0.512-1.33l1.023,0.921v-1.531l5.013,2.455l7.878,2.047l9.515,1.939l10.231,0.409
		l-0.511,1.023l3.479,1.228l-1.228-2.046l7.264-1.842l7.06-0.512h19.951l1.637-0.409l4.706-0.104l0.818,1.74v2.558l1.433,1.436
		h1.433l-1.626-1.384l0.108-2.369l0.431-0.435l1.831,1.077l1.507,1.777l-0.646,1.185h3.339v-1.938l0.646-1.131l2.154-1.134v-2.689
		h6.623l1.454-1.131h17.285l6.893,1.453h27.517l1.941,5.335l-4.479-1.131l-6.319,0.577l-3.456,1.532l-7.005-0.897l-7.326,0.971
		l-7.25-0.961l-10.753-1.034l-4.329,2.078l-0.832,2.738l-1.507,0.466l-7.85-0.938l-5.506,1.769l-4.038-1.293l-10.641-1.061
		l-6.954,0.59l-2.854,1.733l-1.683,2.288l-9.322,0.836l-7.278,2.205l-3.862,6.273l-0.162,2.151l-4.738,1.615l-1.508,3.123
		l-3.024-2.45l-10.819-11.179l-10.632-7.416l-5.141-1.794l-0.668,0.623l-6.857-2.267l-12.396-1.207l-3.009-1.282l-7.061-0.549
		L242.093,522.807z"/>
	<path id="Westlake_Village" fill="#FF0000" stroke="#000000" d="M278.788,470.045l36.1-26.194l0.42,1.84l-2.046,11.767
		l-8.799,9.104l-2.763,1.437l-0.614,0.921l-1.637,0.716l-3.581,2.864l-4.297,2.047l-4.604,3.172l-3.479,2.762l-2.046-0.921
		l-1.33-0.307l0.104-0.674h0.794v-1.672l0.793-0.77l0.057-1.076l-2.012-2.353l-0.879-0.907L278.788,470.045z"/>
	<path id="Agoura_Hills" fill="#FF0000" stroke="#000000" d="M309.604,461.238l3.658-3.785l2.046-11.771l-0.329-1.893l32.218-0.051
		l-2.423,8.724h-2.315v7.592l4.631,3.182h2.531v0.969h2.747v2.154l-0.593,0.754l0.162,1.021l0.431,0.646v2.208h-2.262v-2.104h0.431
		v-1.508l-2.692-0.27l-0.048-0.58h-3.614l-0.969,0.634l-7.916-5.277l-1.562-0.215l-1.238-1.293l-2.962,2.154l-3.715,2.208
		l-10.931-1.35L309.604,461.238z"/>
	<path id="Calabasas" fill="#FF0000" stroke="#000000" d="M352.366,466.306v-2.101h2.046v-1.992h-2.154l-0.215-0.754h1.938v-4.038
		h2.315l0.592,1.938v1.938l1.993-0.754v1.185l1.508-0.27l1.669-1.777h-1.562v-0.695l1.669-0.7l1.292-1.562v-2.369h0.7v-0.858h-3.015
		v-0.972h1.507l-1.023-1.294l0.592-0.534l-0.969-1.831v-5.115h4.146v1.131l0.861,0.484v1.075l-0.646,0.482v7.646l2.154,0.916
		l1.292,0.215l2.531-0.435l1.723-0.431l3.338,1.292h4.792l4.416-1.831l2.154-0.215l2.477-1.293l1.885-1.723l2.1-0.7l0.754,0.808
		l1.185-0.861l3.177,4.635h1.131l0.435,0.539l0.377,1.988h7.27v-1.562l2.263,1.292v2.369h-2.424v1.454l1.188,0.104l0.48,0.485v0.538
		l3.285-0.219v7.219h-2.531v2.527h-2.688l-1.938-0.593H392.81v-1.938h-2.8v2.047h-0.484v4.736h-20.732v2.264h-9.477v4.521
		l-2.262,0.161v2.104h-0.539l0.108-3.719l2.477-8.293l0.431-1.831l-7.271-0.158v-2.154h2.584v-2.584L352.366,466.306z"/>
	<path id="Hidden_Hills" fill="#FF0000" stroke="#000000" d="M376.598,443.743h3.554l0.032-5.547h5.46v4.47h2.154v2.531h3.446
		l1.347,0.161v2.046h1.615l1.4,2.047l-1.131,0.915l-2.003,0.668l-0.205-1.26l-1.292,1.185l-1.723-1.777v0.539h-2.046V448.7h-0.485
		v1.454h-1.885v2.423h-3.823v1.615h-1.077v-1.727h-3.339L376.598,443.743L376.598,443.743z"/>
	<path id="Santa_Clarita" fill="#00FF00" stroke="#000000" d="M483.971,316.284v4.739l-7.216-0.758v-1.021h-4.038v-0.969h-3.877
		l-1.238,2.312l1.399,7.435l-1.185,4.308l-2.315-0.107v-2.585h-2.262v-1.396h-2.423v-2.104l-3.123-1.885h-4.2v-1.938h-9.854
		l-1.615-1.889l-0.857,0.597v0.377l0.215,0.161v0.913h-2.746l-0.593-1.074l-1.292,0.319l-0.593,0.058v-1.889l2.047,0.323
		l1.292,0.484l1.562-1.131l0.915-0.377l-6.729-11.954l-1.938-6.3l-1.724-10.07l-5.923-14.539l-6.192-7.215l-6.139-3.985l-2.479-2.8
		l1.4-1.454l0.915,1.562l1.293-0.592l0.969,2.1l1.35-0.108l0.97-0.862l1.67,0.539l0.323,0.7l3.229-1.346l1.349,0.754h3.394
		l-0.915-2.262l-0.106-1.238l-1.562-1.831l-0.377-0.269l3.177-3.231l2.103-0.377l1.186,1.615l-0.861,1.938l1.35,1.508v2.262
		l-0.861,0.592l0.539,2.154l1.077-0.054l2.262-1.292l1.022,1.508l1.075,0.808l1.613-0.269v1.292h1.993v-1.938h0.432v-1.885
		l0.537-3.177l1.509-3.715l0.86-1.4l0.7-0.162l0.915-2.423l2.047-0.7l0.915,1.077l0.97,0.269l0.216-1.454l1.237,1.615l0.217,0.539
		v-5.062l0.646-1.292l1.831-0.162v-0.861h1.396v-0.916h2.642v2.746l0.646,0.485v3.069h-2.689v4.254h3.443l1.399,1.131l0.809-1.131
		h3.878v2.477l0.811,0.539v2.315h1.773v-1.562h1.076l0.7,1.454h0.969v-5.708h2.37v-1.669h2.907v2.208h1.397v2.585l-0.914,1.4v2.692
		l0.859,1.454v1.4l-5.17,0.323v4.792l5.062-0.216v-2.208h4.521v2.531h7.916v-2.369h1.777v7.108h3.715l0.162,2.262h4.576v-1.616
		l0.97-1.023v-2.208h4.685v-2.369h2.962v0.592h1.615v2.046h7.594v-2.531h-2.424v-1.131h2.479v-3.985h4.47v-0.7h1.615v-1.238h2.047
		l0.377,0.054v1.508l2.1,0.215v-2.315h-1.613v-2.262h2.207l0.271-0.969h-0.861l0.216-1.346l0.973-0.215v-2.1h2.689v3.931
		l-1.075,1.185v2.638l-1.188,3.339l-0.161,1.454v3.015h0.538v1.185l-8.131,4.254h-4.847v2.046h5.762v1.723l0.916-0.215v4.2h2.8
		v10.77h-1.077l-0.858-1.454l0.271-1.077l-2.313-2.423l-2.264,1.077v1.346l1.776,1.831h1.077v3.984h3.178v5.816h-4.848v2.583h-1.291
		l-0.862,1.076h-1.185v-1.396h-5.062v-7.324l-0.483-0.915v-10.77h0.97l-1.397-1.723l1.187-1.938h-3.229v-4.685l-5.331,3.016
		l-2.208,1.292l-1.076,1.562h-3.283v1.346h-4.095l-1.452,1.939l0.754,0.215v2.046h-2.263l2.423,1.454l0.7,0.754l-1.077,1.238v4.308
		h12.01v2.369h4.953v3.554h-1.83v7.107h-1.187v-1.83h-1.507l-0.539-0.539h-1.4v1.992h-1.074v-2.854h-0.86l-0.646-0.857h-1.992
		v-2.693h-7.646v-4.685h-4.521l-1.398-1.023l-7.323,6.354l-6.245,6.3l-0.86,1.831h1.886v2.688h3.016v-1.724h1.4v-1.077h2.152v3.123
		L483.971,316.284z"/>
	<path id="Avalon" fill="#00FF00" stroke="#000000" d="M446.924,702.968h11.2v-8.131l4.846-6.192v6.192l1.077,2.154l2.639-2.37
		l2.104-0.054l-4.576-7.22l-4.47-1.346l-3.339-8.396l-2.907,0.158l-0.323,0.756l0.646,0.81h1.396l-0.054,0.592l-6.192,8.562
		l-1.885,12.01L446.924,702.968z"/>
	<path id="Lancaster" fill="#00FF00" stroke="#000000" d="M627.53,144.778V135.3h5.062v-9.747h-2.423v-2.908h2.8v-4.2l-1.723-3.123
		l-2.479-2.477l-1.511,1.454v5.115h-1.884v1.616h-1.992v-4.9h-2.369v9.047h-2.262v4.469h-1.885v2.8h2.688v2.477h-3.177v-2.208
		l-2.639,0.162v2.8h-4.577V133.2l1.021-0.431v-0.431h1.99v-0.862l0.861-0.861h0.915v-2.369h-2.423v2.638h-2.369v2.154h-1.509v-1.292
		h-0.86v1.292h-2.369v2.639l-0.432-1.562l-1.132-1.131l-1.452,1.454v1.292H576.04l0.162-4.469l-3.5-2.692l-1.4,0.592l-0.698-0.592
		l-0.159-1.077l-1.562-1.077l-0.97-0.27h-1.292v-0.861h1.292v-2.262h-1.186v-6.246h2.424v-2.854h-2.479v-6.677h4.849v-7.162h2.207
		v-2.692h2.368V92.76h-4.625v-4.469h-2.689V86.03h2.585v-2.531h-2.585V81.13h2.689v-1.938h2.207v2.154h2.585l-0.377-9.423H574v2.423
		h-2.208v-0.969h-2.313V75.8h-1.348v-1.454h-1.396l-0.271-1.723h3.339v-2.854h-1.237v-2.262h-2.366v-1.023h2.366v-6.247h4.634
		v-4.792h2.639v4.792h-2.639v6.247h-2.208v3.069h9.312v4.685h3.396v1.4h-3.607v0.969h2.692v1.346h-1.131v0.916h1.073v4.846h2.369
		v-4.846h2.315v2.262h-1.023v2.746h3.501V81.13h2.314v2.638h2.315v-1.292h2.205v2.208h-2.15v5.87h3.769V88.13h5.924v-2.477h-2.745
		v-1.077h0.86v-1.185h1.777V60.075h42.271v18.578h23.805v9.639h38.179v13.947h9.639v4.954h3.823v-2.423h1.021v2.315h6.841v2.262
		h1.396v-2.477h20.624v7.108h4.738v-2.369h2.312v-2.37h1.133v-2.208h1.132v4.631h4.847l0.017,0.895h2.354v3.628h4.738v9.585h-4.688
		v-4.9h-2.312v-4.523h-9.531v9.208h-2.153v0.377h-7.104v-2.477h-5.01v-2.531h2.367v-12.062h-2.312v1.562l-0.538,0.754l0.431,1.023
		v3.931h-2.639v2.046l-2.046,0.646l-0.012-0.593h-1.229v0.539h-1.292v-2.585h-2.369v5.062h4.954v2.423H720.96v-2.747h4.685v-2.046
		h-7.377v7.054h-4.953v-3.877h2.103v-1.131h-3.123v2.692h-1.077v-2.746h-2.369v4.954h-28.971v9.531H642.13l0.054,9.424H627.53z"/>
	<path id="Palmdale" fill="#00FF00" stroke="#000000" d="M784.82,125.931H679.816v9.37h-21.701v10.447h0.646v3.931h1.831v3.608
		h0.754v1.239H660.7l-0.754,4.092l-3.607,0.215v3.016h-14.7v-11.793l-11.146,0.215h-2.962v-5.115h-7.055v-4.631h-6.784l0.054-4.847
		l-18.524,0.054v14.916l-0.377,1.131v2.208h6.785l1.131,0.431h15.188l1.021-0.754h1.67l0.7,0.592l0.754,0.646l1.131,0.539v1.239
		l-0.698-0.7l-1.237-0.162l-1.669-1.185l-1.077,0.862v3.446h4.47v4.846h-4.521v4.954h-4.312l-0.646-0.7v-1.023l0.808-0.592
		l-0.105-0.592l-3.878-1.508l-0.971,0.161l-9.746-5.546h-1.67v1.723h1.562v1.562h-4.362v8.292h2.585v2.746h2.423v2.37h-7.054v-2.423
		h-4.738v2.315h-2.212v16.693h17.396v12.547h18.521v-2.316h11.688v-2.315h2.312v-7.054h-3.016v-0.808h18.578v-5.762l1.992,2.315
		l1.83-0.646h1.186l1.669,1.669h0.808v-2.262h4.738v4.792h7.216l-1.723,1.723l0.431,1.616l1.238-0.323l-0.161-1.077l1.292-1.508
		l1.562,0.27v-0.754h5.273v3.608l4.254,6.946l-0.161,0.754l1.83,2.8l1.831-0.646l1.777,1.238l1.773-1.562l3.284,0.485l1.238,0.969
		l1.347-0.969l1.188,1.4v13.678h10.662v2.692h3.393v-2.585h4.415v-5.384l-6.246-3.985h-8.077v-3.877l-1.562-0.916h6.516v1.831
		l0.7,0.162l0.481-0.431h1.237l1.077,0.539h0.969l1.131,0.916l1.293-0.592v-3.123l0.758-0.754l-0.862-0.916v-2.369h8.508v1.185
		h3.662l0.216,3.662h4.361l3.066,2.746l1.938,4.039h4.577v-2.154h2.208v-4.577h1.077v-1.615h1.453l2.101-2.1v-2.1h1.238v-1.616
		h1.077v-0.969h1.453v-4.146h1.186v-2.208h0.538l-0.215-2.1h-4.523V173.32h37.693L784.82,125.931z"/>
	<path id="Los_Angeles" fill="#FF0000" stroke="#000000" d="M606.529,705.66l-0.7-1.021l-3.339,0.107l-2.423,3.77l-0.431-3.178
		l-1.454,0.055l-0.593,0.699l1.293,1.239v2.688l-2.966,3.877h-0.534v-3.819l1.45-1.615v-1.293l-2.527,2.908v3.393l-1.615-0.646
		l-0.97-1.562l1.83-4.793l0.378-1.508l-2.907,0.216l-1.239-1.831l-0.86,1.022l2.104,3.5l-0.485,1.293l0.271,1.186l-1.188,1.021
		l0.161,1.397l2.37,1.292l-0.162,1.615h0.484l-0.432,1.508l-2.368-0.699l1.772,1.669l-1.613,3.02v4.846l1.775,1.885l0.107,1.188
		l-1.42-0.714l0.279,0.681l1.562,1.53l2.152,6.802l-0.88,0.255l-1.981-6.036l-0.481,0.17l1.929,6.635l-0.734,0.793l-1.729-1.699
		l0.991-1.562L590.273,733l-0.538,1.441l-0.907-2.492l-1.048,0.734l1.076,2.466l-0.198,1.162l1.247,3.259l0.511,1.361l-0.426,0.736
		l-0.744,2.604l-0.825-1.568l-1.649-0.689l-1.454,0.916l-0.807,1.346l-3.717,0.107l-0.699-1.669l-1.238-0.97l-1.992-0.058
		l-6.516-3.177l-1.725,0.592l-3.068-2.207l-0.055-1.077l-1.845-0.06l-3.735-1.676l2.617-4.834h3.821v-1.023l1.562-0.377v-2.208
		l-0.916-0.538l0.859-1.077v-1.938l-1.021-0.484v-1.131h1.187v-2.639h3.179v-0.973h0.97v0.699h0.859v-6.784h4.578l-0.646-1.562
		h-3.985v-1.727h-1.613l1.938-5.009v-2.478h1.349l-0.646-1.938l-0.271-0.915h-0.808l-0.483-1.773h1.076l-0.105-4.899v-49.541h5.009
		l0.377-3.066h2.369v2.367h-1.776v1.022h3.123l0.7-0.861v-3.77l-0.538-0.861v-27.57l0.104-28.001h-4.575v5.815h-1.454v3.067h-1.349
		v2.744h-1.777v2.051h-2.642v-4.688h-2.262v-16.101h-4.631v2.478h-3.823v-3.983h-0.754v-5.706h-18.954v8.396h-1.076l-0.483,0.812
		l0.756,0.592v1.938l-1.938,1.131l-1.993,2.369v3.5h4.473l0.32,5.062v9.046h0.7v0.862h-5.548v-1.077h-11.959l-0.754-0.377H510.68
		l-0.377,0.377h-1.35v2.207l0.218,0.159v2.314h0.913v1.186H511v1.188h1.398v2.101l-4.146-0.021l-0.68-1.464l-1.33-2.061l-2.352-6.9
		l-2.103-4.688l-1.453-1.454l-4.737-10.442l-2.461-2.463l-1.039-2.275v-0.862l-4.488-7.1l-4.233-4.908l-0.32-1.562l-3.646-5.01
		l16.729-10.983l4.521-3.178l-4.36-6.303l-2.528-1.67v-1.292l-0.916,0.7l-4.415-4.847l-5.438-5.604l-3.717,3.396l-5.812-5.653
		l-4.633,6.03l-2.152,0.431l-0.646,1.454l0.7,1.292l-0.539,1.131l-0.593,1.131l-2.182,2.186l-1.856,2.504
		c-0.377-0.377-2.424-2.425-2.424-2.425l-2.947-1.749l-9.49-4.819l-3.932-0.107l-1.562,0.812l-1.562-0.435l-4.338-1.742l-0.95-0.183
		l-1.551-4.43v-14.271l-15.67-3.659l18.2-35.219l-24.285-11.736l-2.263-1.292v1.562h-7.271l-0.377-1.992l-0.432-0.539h-1.132
		l-3.179-4.631l-1.185,0.861l-0.668-0.876l1.045-0.848l-1.4-2.05h-1.615v-2.046l-1.347-0.161h-3.446v-2.528h-2.154v-4.473
		l-5.46,0.015l0.055-9.43l3.628,1.661h0.916l0.808-0.538l0.7-4.416l-1.13-0.269l-0.485,1.13l-4.422,0.012l0.051-8.83h2.917v-2.812
		h5.277l0.592-2.854h-3.608l0.162-3.933h2.423v-2.639h2.101l1.669-7.107h6.029v0.861h2.479l0.536-1.67l-1.396,0.055l-0.153-19.701
		l2.522-1.515l1.614-1.132l10.502-1.509l5.385,1.938l2.584-3.716v-4.632l2.585-10.23l8.021,3.339l1.398,2.692l1.83-0.161l2.37-2.854
		l1.992-0.215l2.262,2.103l6.945-2.314l-1.614-3.284l0.646-1.396l-2.046-3.984l0.593-2.801l5.388,1.938l16.745-14.271l6.945,4.899
		h38.609v2.366l1.886,1.077l1.938-1.185l-1.022-1.132v-1.133h4.688v4.522l2.366,1.398h2.907v1.725h-2.8v4.899h-1.347l-1.75,1.75
		v4.439h2.826v2.103h-1.776v2.312h-2.691l-1.075,1.454l2.424,3.554h2.801l0.646-1.612v-3.18h2.048v-2.473h1.614v-1.344h3.068v1.611
		h3.123v2.587h-2.423l0.215,0.859l1.509,0.538v2.37l-1.021,0.754l6.246,1.021v-1.725h1.723v2.692l10.285,2.639v-2.424h13.354v-1.938
		h14.971v-5.008h6.567v10.18h6.84v-2.479l1.509,0.216h9.264l8.348-0.321v8.775h-9.908v9.962h-4.038v1.508h-0.754v6.246l-0.7,0.7
		v10.985l-13.246,0.215h-15.132l-9.263-0.161l1.347,4.415l-1.886,2.262v0.434h-0.808v1.613l-0.538,0.812h-11.793l0.159,3.821h-4.471
		v3.394l5.17,1.293l1.992,15.022l1.188,3.122l0.159,0.972h-1.293v2.423h2.479l2.585,7.377l1.076,3.662l-1.021,0.808l-6.354-1.021
		l-1.348,0.216l0.433,0.915l-0.971,2.154l2.207-0.539l5.548,5.547l0.054-1.4l1.886-1.723v-1.023l0.862-0.646l-0.862-2.907l1.888-1.4
		l1.613,0.378l3.934-2.15l3.123-3.02l2.151-1.83l1.938-0.159l1.454,1.293l1.021,0.054l1.022-1.938l0.808-2.688l1.132-0.054
		l1.885,1.669l3.229,0.754l0.185-0.684l1.324-0.021l1.938,1.938h3.067l1.726-0.754l1.455,0.377l0.592,0.916v1.238h1.83l7.916,18.2
		l3.661,3.932l1.509-1.396l-1.349-1.35v-0.754l10.229-1.454l-0.754-2.312v-2.746h1.397v-0.646h3.123v-1.669h-0.914v-0.916
		l0.537-0.857v-4.097l1.131-1.611l3.823,1.021v0.435h3.932l0.916,0.915l1.51-1.188l1.186,0.054l1.615-1.938l2.045-0.7v1.724h7.539
		v2.315l2.154,2.8l-1.511,1.4h-1.452l0.698,0.808l-0.86,0.754l0.483,0.973l-0.322,0.916l1.562,1.611v1.292h1.076l0.538,1.831h1.938
		l-0.432,2.315l2.746-1.077v-0.915l1.131-0.7l2.047,0.7l-1.131,1.238l0.808,1.831l-1.347,1.131l0.433,1.077l-2.529,3.123h-1.562
		v0.377h-0.593v1.021h-0.539v8.077h12.387v0.699l-3.067,2.689v10.396h0.593v1.292h-1.075v2.423l-1.777,4.2l-0.104,1.831h-0.377
		l-1.509-0.7l-12.764,0.862l0.107,29.347v1.562l-7.485-1.131v1.023h-0.754l-0.97-1.4h-2.047l-0.377,0.646l-1.992-0.974l-0.809,0.7
		h-3.933l-0.483-0.538l-1.132,0.377h-6.085l0.811,16.963h-9.426v24.069l1.238,1.131v5.227h2.423v-3.123h0.271v-3.718h0.81
		l0.016-0.479h1.653v0.479l5.388-0.056v3.179l2.046,0.16v0.539l-2.584,0.435v0.695h2.368l0.321,0.646l0.538,0.808l0.106,4.688
		l-0.915,2.208l0.271,2.262l-3.717,0.054h-3.445l-5.274-0.16v3.983h-15.455v24.286l-0.271,14.754l-4.847,2.531v2.312h2.102v5.227
		h-5.226v-7.435l-1.344,0.217v25.311l0.216,13.569h5.33l0.916,0.535l0.321,0.161h1.67v-0.696l10.395-0.484v-3.555h4.094
		l-0.972,3.229l11.255-0.216l3.933,4.688l1.455-5.01l1.612-2.801l-0.105-2.854l-1.991-10.445l1.021-2.854l0.7,2.908l0.537,0.538
		v3.177l1.188,4.096v5.812l-1.67,5.277l-1.187,4.039l3.661,4.846l-10.606,9.154L606.529,705.66z"/>
	<path id="Santa_Monica" fill="#FF0000" stroke="#000000" d="M493.564,533.181l-0.709,0.543l-4.918-5.359L483,523.278l-3.716,3.393
		l-5.815-5.651l-4.631,6.028l-2.153,0.435l-0.646,1.451l0.7,1.296l-1.132,2.261l-2.184,2.182l-1.854,2.504l3.584,2.729l4.331,4.543
		l0.97,2.207l3.5,2.585l5.513,7.294l3.279-2.269l17.917-11.976l-4.197-6.062l-2.695-1.907L493.564,533.181z"/>
	<path id="Culver_City" fill="#FF0000" stroke="#000000" d="M498.295,557.686l0.699,1.512l5.547-2.962l3.338,3.555l-0.377-4.47
		l4.632-0.538l1.884-0.162l1.728-1.831l0.7-2.207l2.423,1.992l0.808-0.162l1.4,1.077l1.885-2.643l1.454,0.974l-0.754,1.185
		l0.431,0.646l-1.131,2.149l-1.454,1.023l-0.858,1.397l1.074,1.237l-0.481,0.646l2.262,1.507l1.508-0.592l1.886,2.423l-1.612,0.916
		l6.462,3.82l3.877-7.217l-0.055-2.801l-1.727,1.023v0.857h-3.066l2.151-1.723l-0.97-0.916v-1.938h1.131l0.539-2.584l-4.523-0.858
		l3.396-6.838l3.661,0.536h1.831v-3.067l1.346-1.292l-1.396-0.485l-1.399,0.862l-2.263-2.208h2.151l0.915-3.177l-0.48-0.755
		l1.67-1.938h1.508l0.915-3.339l-2.962,1.508l-5.115,1.669l-0.97,1.131l-0.755-0.537l-5.547,3.822v1.131l-1.562,0.271v0.858
		l-2.691,2.104l-0.698-1.023l-7.595,5.116l0.271,0.969l0.754,0.22l0.809,1.346l-1.99,1.239l1.507,2.207l-0.97,1.612l-2.962,0.377
		l-1.509-2.424l-7.699,4.9l-0.482-0.646L498.295,557.686z"/>
	<path id="West_Hollywood" fill="#FF0000" stroke="#000000" d="M555.104,492.26v3.339h-5.008v1.023h-5.547v-1.023h-1.885v1.135
		h-2.046v1.021h-1.238v-3.016l-2.531,1.234v3.558h3.771v1.67h-2.154v-0.812h-0.698v0.7h-1.021v2.692H535.4l-0.7-0.593l-0.435,0.593
		h-4.254v-7.862l-2.688-1.454h4.896v-1.346l1.238-0.646l1.077,0.323l0.646,0.861l2.53-2.046l1.615-0.323l2.101-1.615l0.435,1.077
		h0.916v-0.485h2.526v1.674h6.569l1.131,0.377L555.104,492.26z"/>
	<path id="Beverly_Hills" fill="#FF0000" stroke="#000000" d="M533.296,506.691v1.234h4.415l0.593,1.454l1.238,1.885l-0.054,1.188
		l-1.885,2.312h-0.7v-2.262h-3.339l-0.219,0.754l-0.054,2.802h-11.847l-0.646,2.314l-1.938-3.393l-1.615-1.777l-0.161-1.562
		l-2.101-2.904l0.808-0.485l-1.077-1.773l-0.857-0.219l-0.758-1.773l-1.074,0.055l-0.218-1.993l-0.48-1.131h0.857v-1.992h-2.366
		v-4.737h2.64v-2.64h4.737l1.075,1.238l1.453-1.615l0.378-4.416h1.614v3.339l1.886,1.938l1.133-1.292l-0.539-0.646v-7.646h1.562
		l-1.021-1.831l2.1-0.435l0.754-0.431h1.292l0.862,0.81v1.775l-0.862,1.725v4.472l-2.478,2.423l0.809,0.7v2.15l0.266,0.247
		l2.534,1.368v7.862l-0.377,0.592v2.315L533.296,506.691L533.296,506.691z"/>
	<path id="San_Fernando" fill="#FF0000" stroke="#000000" d="M494.688,368.895l6.518,7.646l4.521-4.093l1.075,1.346l8.831-8.238
		l-0.808-0.97l1.453-1.562l-1.453-1.669l-1.238,1.346l-5.924-6.784l-6.73,7.054l-0.481-0.377l-2.8,2.531l0.377,0.754
		L494.688,368.895z"/>
	<path id="Burbank" fill="#FF0000" stroke="#000000" d="M554.153,460.478l-1.13-3.795l-2.496-7.124h-2.479v-2.423h1.293l-0.162-0.97
		l-1.202-3.27l-1.975-14.881l-5.17-1.293v-3.392h4.47l-0.159-3.823h11.793l0.537-0.808v-1.616h0.811l0.115-0.568l1.77-2.124
		l-1.346-4.411l8.305,0.145l16.134,0.016l6.312,9.371v11.254l-2.104,2.479l-1.83-0.915l-5.547,6.785l0.812,0.754l-1.562,1.723
		l1.077,1.349l-5.708,6.518l-1.131,0.054l-0.81,2.692l-1.021,1.938l-1.021-0.054l-1.452-1.293l-1.938,0.162l-2.825,2.479
		l-2.45,2.368l-3.933,2.153l-1.616-0.377l-1.797,1.336L554.153,460.478z"/>
	<path id="Glendale" fill="#FF0000" stroke="#000000" d="M633.453,457.528v-1.728l-2.046,0.7l-1.615,1.938l-1.185-0.058
		l-1.512,1.188l-0.916-0.915h-3.931v-0.435l-3.823-1.021l-1.131,1.615v4.093l-0.538,0.858v0.916h0.915v1.67h-3.123v0.646h-1.396
		v2.746l0.754,2.313l-10.23,1.452v0.755l1.346,1.349l-1.508,1.396l-3.662-3.932l-7.914-18.2h-1.829v-1.236l-0.595-0.916
		l-1.453-0.379l-1.725,0.758h-3.068l-1.938-1.938l-1.325,0.021l-0.183,0.681l-3.23-0.754l-1.9-1.668l5.728-6.521l-1.077-1.347
		l1.562-1.723l-0.812-0.755l5.548-6.784l1.83,0.915l2.104-2.479v-11.254l-6.257-9.371l13.146-0.214v-10.983l0.7-0.698v-6.246h0.754
		v-1.508h4.038v-9.964h9.908v9.733h-2.57v3.771h-1.356l-1.646,1.645v14.879l2.296,0.709l0.312,2.323l2.296,0.256l2.324,2.521
		l0.227,2.893l3.259,1.53v0.425h1.479v0.538h1.303v-0.481h1.049v-0.879l1.077,0.709l2.606-0.766l0.365,1.645l-1.611,0.736
		l0.426,3.118l2.408,1.842l-0.426,1.247h0.965l1.896,1.729l-0.025,2.068h0.734l5.188,4.847l3.09-0.341l1.273,1.222l-1.246,3.062
		l0.396,2.692l1.22,1.645l-0.539,0.991l1.813,1.812l0.905,1.846l0.938,7.024L633.453,457.528z"/>
	<path id="El_Segundo" fill="#FF0000" stroke="#000000" d="M535.771,599.58v-1.077h-11.953l-0.754-0.377h-12.389l-0.377,0.377
		h-1.347v2.207l0.216,0.162v2.312h0.915v1.188H511v1.185h1.396v2.104l-4.146-0.022l3.322,7.973l1.956-1.162l1.562,2.801h20.896
		v-8.725h2.1v-0.973h-0.808v-1.723h-1.831v-2.424l0.809-0.161v-0.969l-0.593-0.597L535.771,599.58z"/>
	<path id="Manhattan_Beach" fill="#FF0000" stroke="#000000" d="M519.388,633.438l-7.812-17.848l1.961-1.146l1.562,2.801h20.896
		l0.161,4.685l-0.323,9.531h-0.754v4.577h-8.562v-2.747h-3.393l-0.262-0.372l-1.029,0.566l-0.312-0.556l-0.908,0.627l-0.402-0.642
		L519.388,633.438z"/>
	<path id="Hermosa_Beach" fill="#FF0000" stroke="#000000" d="M528.744,636.035h-2.233v-2.747h-3.393l-0.263-0.372l-1.028,0.566
		l-0.313-0.556l-0.908,0.627l-0.4-0.642l-0.812,0.521l4.064,11.979l1.04,4.198l1.021-0.145l6.72-2.749l-0.312-5.187L528.744,636.035
		z"/>
	<path id="Redondo_Beach" fill="#FF0000" stroke="#000000" d="M535.826,631.458h-0.754v4.577h-6.084l2.93,5.498l0.312,5.187
		l-6.721,2.749l-1.021,0.146l0.024,0.878l-1.526,1.162l1.271,3.77l2.186,1.701l0.171-0.086l-2.126-1.729l-1.247-3.601l1.443-1.161
		l0.65,0.028l0.312,1.104l0.68,0.685l0.48,1.304l-0.768,0.255l-1.077-1.332l-0.227-0.595l-0.198,0.028l0.198,0.68l1.161,1.672
		l0.767,0.567l0.938,0.34l0.024,0.964l0.685,0.453l-0.061,1.049l0.651,1.105l-0.513,3.061l-0.058,12.385h2.438l1.133-1.133v-1.928
		h1.076l0.795,0.652l1.188,1.02h2.553v-7.085h1.273l-2.947-17.854l1.646-0.767v-1.445h11.619v-0.936l-2.607-2.182v-1.899h3.288
		v-4.874h-4.677V622.01h-8.984L535.826,631.458z"/>
	<path id="Inglewood" fill="#FF0000" stroke="#000000" d="M568.729,573.086h-4.632v2.479h-3.819v-3.985h-0.758v-5.707h-18.955v8.4
		h-1.073l-0.484,0.808l0.754,0.592v1.938l-1.938,1.131l-1.993,2.369v3.5h4.47l0.313,4.918h0.548v1.559l0.563,0.595l0.854-1.812
		l2.721-0.425l2.211,0.935l0.283-0.595h1.134v1.729h1.417v-0.647h4.024v2.806l-0.599,0.821l0.481,0.737v1.696l-0.708,0.709
		l0.906,0.963h4.394v0.968h-0.794v1.729l1.134,0.793h3.826l1.39-1.104v-1.19h1.699v-1.219h2.637L568.729,573.086z"/>
	<path id="Lawndale" fill="#FF0000" stroke="#000000" d="M549.802,635.865h-4.677v-13.859h-2.238l-1.475-1.502h3.77v-2.806h1.418
		v-0.709h2.664l0.906,0.794l0.312-0.34v-0.482h4.054v4.138l-0.256,0.256v1.247l0.198,0.283v10.854L549.802,635.865z"/>
	<path id="Hawthorne" fill="#FF0000" stroke="#000000" d="M554.47,622.873l-0.188-0.271v-1.243l0.256-0.26v-4.138h-4.056v0.482
		l-0.312,0.34l-0.906-0.794H546.6v0.709h-1.418v2.806h-3.77l1.443,1.502h-6.719l-0.15-4.899v-8.584h2.102h0.973v-0.57h1.222v8.104
		h0.511v1.104h1.928l0.143-1.189l0.513,1.021h1.843l0.197-1.928l-0.511-2.691l0.564-0.425v-2.017l-0.851-0.364l0.766-0.794v-0.797
		h-3.458l1.021-1.073v-3.373l-1.248-0.821v-2.154l0.479-0.733v-0.312h-0.793v-0.647h3.771l0.479-1.223l0.736,0.198l1.896-0.596
		v-1.048h1.478l1.927,1.16l0.853-0.709l1.021,0.99l0.905,0.963h4.395v0.968h-0.794v1.729l1.134,0.793h3.826l1.389-1.104v-1.19h1.7
		v-1.219h5.045v4.96l-2.211,1.247v2.409l1.332-0.514v1.445h-6.403v2.125h-4.763v1.389h0.963v1.332h3.808v4.79l-2.56,2.467
		l-0.709,0.145v-0.879h-1.272v2.551h-3.799L554.47,622.873z"/>
	<path id="Gardena" fill="#FF0000" stroke="#000000" d="M573.412,640.935h5.008l0.377-3.065h2.37v2.37h-1.777v1.021h3.123l0.7-0.859
		v-3.771l-0.538-0.861v-27.729l-18.812,0.086l0.109,21.562l6.963-2.586v9.208h2.531L573.412,640.935z"/>
	<path id="Torrance" fill="#FF0000" stroke="#000000" d="M570.936,627.149l-6.963,2.527l-9.494,4.062l-4.677,2.296v4.704h-3.288
		v1.896l2.607,2.186v0.936h-11.619v1.445l-1.645,0.766l2.944,17.854h-1.272v7.085h-2.554l-1.98-1.672h-1.077v1.928l-1.133,1.133
		l-2.438-0.104l-1.244,6.592h17.716l9.804,10.017l5.032,5.034H562v-2.504l1.021-0.161v-0.916h-0.646v-1.562h1.453v-1.076h-0.916
		v-6.681h1.186v-1.611h-1.292v-2.208h4.254v-0.538h4.738v3.715h1.614l0.056-45.986h-2.531L570.936,627.149L570.936,627.149z"/>
	<path id="Lomita" fill="#FF0000" stroke="#000000" d="M563.02,692.252h-0.646v-1.562h1.454v-1.077h-0.916v-6.681h1.185v-1.611
		h-1.292v-2.208h4.254v-0.538h4.738v3.715l1.615-0.001l0.107,13.086h-1.076l0.48,1.777h0.811l0.916,2.854h-1.35l-1.396-1.536h-1.077
		v1.161h-2.725l1.222-1.644v-1.36l-1.332-1.417l0.964-1.104l-2.636-1.223h-2.186v-0.68L563.02,692.252z"/>
	<path id="Rancho_Palos_Verdes" fill="#FF0000" stroke="#000000" d="M559.917,734.08l2.618-4.834h3.822v-1.023l1.562-0.377v-2.208
		l-0.915-0.538l0.861-1.073v-1.938l-1.023-0.484v-1.131h1.188v-2.639h3.178v-0.969h0.969l0.131,0.695h0.73v-6.78h4.578l-0.646-1.562
		h-3.983v-1.724h-1.613l1.938-5.008l0.105-2.479l-1.502-1.536h-1.077v1.161h-2.722v6.32h-1.529l-1.221-1.898l-1.672-0.085
		l-0.453,0.623h-2.44l0.854-1.049l-0.514-0.708l-1.562,1.91l-1.348,0.104l-0.973-0.161l-0.215,1.399l2.1,2.315l0.916,0.158
		l2.153,1.238l-1.346,0.861v2.151l1.075,1.671l-1.021,0.32h-0.754l-1.615,2.369l-1.185,0.162l0.431,1.131l-1.398,1.615l-2.69-1.4
		l-0.81,2.047l-2.047-0.479l-1.295-1.669l-1.285,1.086l-0.88-0.709l-0.057-1.562l1.672-1.844l-1.444-3.854l-4.394-2.239l0.396-0.854
		h-1.189l0.454-3.062l-0.539-1.162l-1.049-0.057l-0.736-0.566h-0.822l-2.295-2.183l-1.418,1.417l-1.502,0.196l0.767,3.543
		l0.06,3.031h-2.808l-1.476,1.021h-1.219l-0.992-1.476l-1.332-0.853l1.56-1.87l-0.28-0.964l0.905-0.027l1.613-2.041l2.919-0.396
		l-0.396-2.239h-1.19v-1.048h1.19l0.936-0.992l0.342-0.624l2.664-0.396l0.341-1.93l0.819-2.041l1.393,1.247v0.684l-0.652,1.074
		l-0.879,0.966l-0.902,0.24l-0.457,1.74l1.646,1.247h0.82l0.937,0.878h1.53l0.367,1.051l0.819-0.171l0.396-1.39l-0.113-2.126
		l-0.563-1.842l0.143-1.306l-0.596-3.884l-0.854,0.769h-1.587v-0.396h-1.417v-1.645l2.295-2.154v-1.699l-0.595-0.367h-4.194
		l-0.794-0.428l-1.134,1.275h-2.066l-1.529,7.426h-8.785v11.422l-8.475,1.36l0.271,1.978l2.258,5.265l0.309,3.022l1.151,3.401
		l4.188-0.104l2.222,2.792l0.969,0.437l2.547-1.878l4.75-1.871l2.764,0.188l3.031,2.656l2.006,0.657l2.279-1.486l2.691,1.007
		l3.312,4.104l1.491,2.509l3.319,0.479l2.104,0.81L559.917,734.08z"/>
	<path id="Rolling_Hills_Estates" fill="#FF0000" stroke="#000000" d="M542.203,704.389c-0.114-0.006-0.961-0.052-0.961-0.052
		l-0.736-0.565h-0.822l-2.295-2.184l-1.418,1.417l-1.479,0.195l0.744,3.546l0.058,3.032h-2.806l-1.478,1.021h-1.219l-0.992-1.474
		l-1.332-0.854l1.562-1.87l-0.283-0.964l0.907-0.024l1.609-2.038l2.921-0.399l-0.396-2.239h-1.19v-1.048h1.19l0.956-1.026
		l0.317-0.587l2.516-0.373l0.464-1.803l0.849-2.188l1.393,1.247v0.681l-0.652,1.076l-0.879,0.964l-0.896,0.24l-0.464,1.744
		l1.646,1.247h0.819l0.938,0.878h1.53l0.369,1.049l0.817-0.17l0.396-1.393l-0.113-2.125l-0.564-1.843l0.144-1.304l-0.596-3.883
		l-0.854,0.766h-1.587v-0.396h-1.417v-1.646l2.295-2.154v-1.696l0.661-0.531l8.681-0.016l4.144,4.229l-1.2,1.483l-3.416,0.521
		l2.236,2.062l2.597,0.788l1.188-3.45l3.559,3.557h2.343v-2.504l1.021-0.161l0.026-0.917l1.096-0.044v0.68h2.184l2.636,1.223
		l-0.964,1.104l1.332,1.417v1.36l-1.219,1.644v6.32h-1.529l-1.219-1.898l-1.674-0.085l-0.453,0.623h-2.438l0.854-1.049l-0.514-0.708
		l-1.562,1.91l-1.489,0.084l-0.628-0.396l0.498-1.022l1.342-0.626l0.836,0.104v-1.432h-3.014l-5.674-4.802l-2.777-2.809l-1.359,0.77
		l-0.682,0.732l-1.529,0.085L544,696.374l-0.369,0.936l0.369,0.991l0.198,1.275l1.047,0.906l-0.367,0.88l-0.651,0.109l-0.396,1.759
		l-0.708,0.88L542.203,704.389z"/>
	<path id="Rolling_Hills" fill="#FF0000" stroke="#000000" d="M551.75,696.914l5.369,4.543h3.014v1.432l-0.836-0.104l-1.342,0.626
		l-0.699,1.3l-0.213,1.381l2.1,2.315l0.916,0.162l2.153,1.234l-1.346,0.861v2.154l1.077,1.669l-1.023,0.32h-0.754l-1.615,2.368
		l-1.185,0.162l0.431,1.131l-1.4,1.615l-2.688-1.399l-0.812,2.05l-2.045-0.485l-1.293-1.669l-1.287,1.086l-0.879-0.709l-0.057-1.56
		l1.672-1.846l-1.445-3.854l-4.393-2.239l0.396-0.851h-1.19l0.454-3.062l-0.707-1.171l0.99-0.273l0.746-1.049l1.72,0.906
		l5.017-4.762L551.75,696.914z"/>
	<path id="Palos_Verdes_Estates" fill="#FF0000" stroke="#000000" d="M544.844,680.808l5.604,5.729l-8.573,0.124l-0.637,0.512
		l-0.619-0.349h-4.194l-0.794-0.426l-1.134,1.271h-2.068l-1.53,7.426h-8.782v11.426l-8.603,1.256l-1.971-1.196l-0.656-2.354
		l1.112-1.63l-0.938-1.254l-2.212-0.64l1.164-2.729l0.348-2.438l4.79-4.631l4.78-2.18l-0.081-3.235l2.354-2.983l5.227-1.726
		L544.844,680.808z"/>
	<path id="Carson" fill="#FF0000" stroke="#000000" d="M618.914,667.644l-0.538-0.538l-0.7-2.904l-0.994,3.007l1.963,10.294
		l0.108,2.854l-1.615,2.804l-1.454,5.008l-3.932-4.688l-11.254,0.22l0.97-3.23h-4.093v3.554l-10.393,0.484v0.7h-1.672l-1.236-1.562
		v-4.308l0.859-1.508v-18.255l1.349-5.923v-5.766h0.104l-0.018-4.348l1.472-0.771l0.271-14.916h13.086l0.054,1.238l-2.263,2.047
		l0.378,0.7h4.093l-0.377-1.131l0.593-0.485h2.314v1.077h0.377v1.131h-0.646v6.305h3.396v0.913h3.769l1.077,13.841h14.646
		l-0.434,4.521h-1.991l-1.235,3.23h-1.077l-0.755,1.235v2.643l0.432,1.346h-2.479l-1.509,1.022L618.914,667.644z"/>
	<path id="Compton" fill="#FF0000" stroke="#000000" d="M638.3,618.104v3.558l0.403,0.403h1.266l0.435-0.677h1.45l0.597,2.154h1.021
		l-2.149,2.315l-0.539-2.266l-1.562,0.058l-0.215,4.093h0.215l-0.215,3.229h-11.31v3.771l1.774,0.593v2.907h-0.539l-0.646-2.262
		h-4.311v2.424h-2.208v0.915h-3.716v3.554h-2.208v-1.507h-0.86v-0.97h-1.132v-0.7l-0.97-0.058h-3.769v-0.915h-3.396v-6.301h0.646
		v-1.131h-0.377v-1.077h-2.314l-0.593,0.485l0.377,1.131h-4.093l-0.378-0.7l2.26-2.125l-0.055-1.16h-1.569l-0.283-2.755h1.188
		l-0.682-3.372l4.195-0.681l-0.598-3.771l4.509-0.143v-2.749h-4.962l0.453,2.806h-5.412v-2.234h1.135v-4.51h3.911v-2.552h4.899
		v-0.732h3.117v1.244h0.709v1.784h1.161V615l5.641-2.041l1.646-0.17l-0.794-6.887h-2.21l-0.369-1.898h4.562l1.049,0.85l0.795,6.013
		l1.897-0.482l2.834,1.502h1.36v-1.417l3.744,1.44l-0.754,2.8l1.562,0.054l0.97-3.016l0.971,0.104l-1.074,2.961l2.8,0.162
		l0.646-0.97h1.188v1.454H638.4v1.185h0.646v0.538L638.3,618.104z"/>
	<path id="La_Canada_Flintridge" fill="#00FF00" stroke="#000000" d="M638.771,438.492l-1.258-1.271l-3.09,0.34l-5.186-4.846h-0.737
		l0.028-2.065l-1.898-1.729h-0.964l0.425-1.247l-2.404-1.842l-0.43-3.118l1.615-0.736l-0.368-1.645l-2.604,0.766l-1.076-0.709
		v-4.375l-2.396-0.916v-1.396l-1.185-0.753l-1.508-0.271l-0.271-0.431l1.188-0.754l0.81-0.216l0.43-1.776v-2.37l-0.592-0.538
		l1.188-0.915l-0.596-2.639l1.562-2.643v-1.938l1.021-1.293h0.756v5.762h2.102v-2.477l11.847,0.431v-9.854h4.415v19.386h1.562v0.915
		l1.078,0.162l0.696,0.915v0.593l-1.452-0.7v1.938l2.152,0.969l0.915,0.377v1.131l1.726,0.754l-0.699,1.728l0.809,1.346l2.531,0.916
		l1.346,0.104v1.992l-2.312,2.801h-0.596v-0.809h-0.969l-1.022,1.454l-0.97,1.293v3.604l-1.347,1.135l1.508,1.131h1.238l0.808,1.615
		l-0.808,0.104l-0.538,0.97l-1.508-0.104l-1.023,1.131l-1.076-0.539L638.771,438.492z"/>
	<path id="Pasadena" fill="#00FF00" stroke="#000000" d="M649.699,473.756l1.094-1.204l-2.047-0.7l-1.131,0.7v0.915l-2.746,1.077
		l0.431-2.315h-1.938l-0.538-1.827h-1.077v-1.292l-1.562-1.615l0.319-0.916l-0.481-0.969l0.858-0.758l-0.696-0.808h1.45l1.511-1.396
		l-2.153-2.804v-2.131l1.287-0.199l-0.938-7.024l-0.904-1.845l-1.812-1.812l0.538-0.991l-1.219-1.645l-0.396-2.692l1.281-3.03
		l2.812-1.136l1.074,0.539l1.023-1.131l1.508,0.104l0.538-0.971l0.808-0.104l-0.808-1.615h-1.238l-1.508-1.131l1.347-1.131v-3.607
		l1.992-2.747h0.971v0.812h0.595l2.312-2.804v-1.99l-1.346-0.105l-2.531-0.916l-0.808-1.346l0.698-1.728l-1.726-0.754v-1.131
		l-3.067-1.346V412.3l1.453,0.7v-0.593l-0.699-0.915l-1.075-0.162v-0.915h-1.562v-0.938h4.134v4.961h8.104l-0.312,1.188l-1.306,1.53
		l0.652,0.879v1.672l0.68,1.134l0.539,0.597l0.853,0.196v1.077l1.272,1.53l-0.595,0.879l-1.077-0.767v-0.598l-0.737,0.146
		l-0.562,2.491l-1.36,2.186l-0.255,0.991l-1.049,0.454l-0.453,1.271l1.273,0.793v2.069h-0.623v1.587l0.623,1.049h0.734v-1.021h1.899
		v1.073h11.677l5.555,3.032h1.785v0.992l6.66-0.227v3.712h1.559v-0.599h1.19v1.275h7.026v-0.51h1.588l-0.963-1.393l1.272-2.577
		h-1.757l-1.307-2.894v-2.06l-1.021-0.937l-0.228-0.907l-0.651-0.708l-0.113-0.735l-0.396-1.221l-0.907-1.896h0.794v-2.639h2.408
		v3.57l0.145,1.417v2.692l1.188,1.698l0.564,1.136l-0.564,0.709v0.708h4.278l-1.245,2.098v1.104l1.98,2.235v1.247l2.467,2.126
		l-0.026-0.904l-0.624-0.709l0.681-0.735l0.651-0.453l0.086-1.503l0.538-1.927h1.757v0.879l-0.905,2.04l-0.369,2.521l-0.143,2.187
		l1.758-0.369l0.085-1.189h-0.596v-1.758h0.709v-1.559h-0.396l1.188-1.7l-0.682-0.938v-1.896l2.125,0.793v-1.19h1.05v1.417h1.929
		l1.104,0.539v1.931l-1.358-0.708v10.345h0.284v4.421h-2.979v1.644h-2.125l-1.021,0.968v1.304l-1.529-1.134h-1.7l-0.992,0.623v0.195
		h1.813v1.53h2.721v1.983h-1.672v-0.878H695.1v5.044h-1.246v1.049H693.4v-1.417h-1.223v-1.562h-7.596v-0.937l4.252-0.113
		l-0.171-2.919h-1.758l-0.367,0.793l-1.049-1.048h-1.136l-1.416,0.963l-0.683-0.562h-1.53v2.858h-1.843v2.638h-2.323l-7.025,2.237
		v2.016l1.357,2.381v1.104l0.48,0.566v1.104l-0.65,0.482h-2.382l-3.174-0.822h-1.189l-3.628-4.138l-1.076,0.907L649.699,473.756z"/>
	<g id="Long_Beach_1_" transform="translate(40.533333,-10.133333)">
		<path id="Small_hole_N" fill="#CCCCCC" stroke="#000000" d="M613.058,725.298h1.075l0.38-0.646l-0.862-0.808l-0.7,1.077
			L613.058,725.298z"/>
		<path id="Small_hole_SW" fill="#CCCCCC" stroke="#000000" d="M612.197,731.06l0.7,0.699l-0.484,1.454l-1.185-0.219L612.197,731.06
			z"/>
		<path id="Small_hole_E" fill="#CCCCCC" stroke="#000000" d="M623.506,733.321l1.238,1.239l1.023-1.293l-1.077-1.022
			L623.506,733.321z"/>
		<path id="Hole_near_port" fill="#00FF00" stroke="#000000" d="M566.764,717.37l2.248,3.378l-4.686,2.208l1.186,3.343l-0.162,0.269
			l3.295,9.758l-9.492,3.458l-1.332,2.862l1.645,4.646l5.644,1.36l1.077-1.104l-1.871-4.079l6.887-2.3l-4.336-11.422l1.928,1.701
			l5.896,1.219l7.085-2.636l-1.048-0.851l-1.932,0.794l-0.057-1.247h-0.595v1.441l-0.6,0.283v-1.389h-0.707l-0.341,1.587
			l-1.896,0.822l-5.979-1.247l-1.645-2.979l-0.481-1.271l11.421-4.054l1.051,3.029l2.152-1.247v-2.943l-1.104-1.729v-1.955
			l-2.102-2.976L566.764,717.37z"/>
		<path id="Long_Beach" fill="#00FF00" stroke="#000000" d="M598.666,638.399l-0.199,2.707h-11.309v3.77l1.777,0.597v2.903h-0.539
			l1.441,5.586h1.275l-1.87,4.648l-0.964,4.875l-0.645,4.653h-1.988l-1.238,3.229h-1.077l-0.754,1.239v2.638l0.432,1.351h-2.478
			l-1.508,1.021l-0.438,0.108l-0.213,3.188l1.186,4.133v5.814l-2.854,9.316l3.661,4.846l-10.607,9.154l0.554,0.434l7.109-2.068
			l8.36-4.337l0.539,0.964l-6.207,3.316l0.34,1.218l1.39,0.028l4.935-2.664l0.453,0.737l-1.416,1.672l-1.138-0.51l-3.482,1.672
			l-0.538,0.312l1.955,6.235h0.68v-3.202h0.879v4.308h1.19v-4.336h0.595v3.433h0.652v-3.518h0.936v4.935l-4.336,2.551l0.027,3.43
			l4.562,3.603v-1.53l-3.345-2.692v-0.396l3.741-2.126l-0.061,3.854l1.7,0.652h2.126v-4.563h1.247v3.854h2.494v1.332l-1.672,1.502
			h-3.854l-1.162,1.162l0.146,0.396l1.049,1.275h3.062v2.268h6.18v-2.806l-5.188,0.085l0.258-1.36h4.445l-2.21-6.887l1.36-1.162
			l-1.446-1.021l-1.587-0.396l-1.02-1.247h-1.478l-0.11-1.441l-2.016-0.968l-1.644-1.979l-0.822-2.211h1.36v1.134l1.644,1.417
			v-1.247h1.562v2.013l1.331,0.514l1.248-0.028l0.143-0.425l-0.938-0.513l-0.879-0.026l0.283-1.134l1.247,0.596l1.646,0.142v0.566
			l-0.966,0.229l-0.057,0.428l0.793,0.17l1.562-0.283l2.663-2.211l1.048-0.113l6.404,1.162l0.342-0.511l7.48,1.928l5.018,1.927
			l3.062,1.162l1.559,1.616l3.971,1.7l3.516,1.644l2.296,1.984l0.198,0.227l-2.099,4.251l0.17,0.113l2.978-5.271l-0.426-0.683
			l-0.906-0.255l-0.284-0.623l-2.097-1.444l-1.984-1.021l-1.842-0.34l-0.879-1.247l0.425-1.956l1.333-1.7l1.161-0.479h0.369v0.312
			l-0.737,0.283l-0.708,1.077l-0.426,0.732l1.134,0.938l1.105,0.709l1.104,0.68l1.077,0.683l1.188-0.144l0.905-0.907l0.938,0.512
			l1.305,0.026l0.312-0.595l-2.15-1.417l0.023-0.879l-1.502-1.392l-2.688-0.171l-0.794-0.17v-0.227l1.644-0.028l0.453-0.085
			l-1.927-1.389l-0.368-1.105l-2.041-2.32l0.992,0.024l3.968,3.969l0.854-0.596l-2.724-2.722l-0.282-0.027l1.273-0.171l4.762,5.644
			l-0.365,0.171l-2.438-2.522l-0.567,0.566l1.077,1.526l1.871,1.729l1.104,0.142l2.126,2.383l-1.76,1.021l-0.479-0.595l-0.479,0.479
			l0.597,0.709l-0.964,0.769l-0.566-0.513l-0.312,0.367l1.051,1.562l6.146-4.194l4.648-3.061l1.104-0.992l-0.192-4.211l-3.558-7.539
			l4.603-8.303l1.646-2.359l1.728-6.462l6.084-7.377l0.938-0.312l4.502-2.757v-3.123h-1.397l-0.434,1.238h-0.969v-1.238h-1.938
			v0.969h-2.049l-2.744-1.185l-1.187-3.069l0.646-0.537v-0.922l-23.33-0.989v-8.392h-9.521v9.271h-4.166l-0.736,2.098h-1.389v0.821
			h-0.851v1.7H614.5l-1.417-1.274h-1.842v4.449h-1.616v-5.045h1.417v-12.303h-2.21v-4.899h6.773v-2.017h-0.879v-1.812h5.979v-5.386
			h-2.551v-8.729h-14.229v-2.097L598.666,638.399z"/>
	</g>
	<path id="Hawaiian_Gardens" fill="#00FF00" stroke="#000000" d="M707.143,661.595l-0.938,1.525v4.6l-1.4-0.13l-0.431,1.238h-0.969
		v-1.238h-1.938v0.969h-2.047l-2.746-1.185l-1.185-3.069l0.646-0.538v-0.921v-1.502h1.354v-1.304l0.396-0.511v-1.247h3.231v0.879
		h2.664v1.077l-0.624,1.247L707.143,661.595z"/>
	<path id="Lakewood" fill="#00FF00" stroke="#000000" d="M708.257,653.644l-0.009,7.107l-1.145,0.903l-3.948-0.169l0.624-1.247
		v-1.077h-2.664v-0.879h-3.231v1.247l-0.396,0.511v1.304h-1.354v1.53l-23.331-1.021v-8.389h-9.521v9.271h-4.166l-0.736,2.097h-1.389
		v0.822h-0.854v1.696h-1.104l-1.417-1.271h-1.845v4.45h-1.614v-5.045h1.417v-12.304h-2.21v-4.899h6.771v-2.017h-0.879v-1.812h5.979
		v-5.385h17.459v2.126h2.834v4.646h3.004l2.407,7.567h6.549v-2.102h2.578v2.102L708.257,653.644z"/>
	<path id="Cerritos" fill="#00FF00" stroke="#000000" d="M681.531,641.193v4.646h3.004l2.409,7.567h6.547v-2.102h2.579v2.102
		l14.274,0.231V651h2.427v-2.154h2.207l0.158-3.604h2.428v-2.154h2.423v-2.531h4.685l-0.146-10.758l-4.532-2.806h-9.75v0.283h-4.506
		v-0.429h-2.354v1.36h-2.151v3.315l-1.358,0.085v2.405h-2.552v2.324h4.9v1.417l-0.99,1.021h1.246v5.753h-0.427v1.247h1.162v3.174
		h-0.991l-1.021-0.368v-1.644h-2.187l-2.773-2.522v2.979h-2.607v-3.007h-1.896l-0.685-0.564v-9.438h1.672v-2.749h-1.612v0.822
		l-0.513,0.595h-1.928v-5.895h-7.17v6.062l1.134,3.006h-1.021L681.531,641.193z"/>
	<path id="Artesia" fill="#00FF00" stroke="#000000" d="M692.727,631.642l7.146-0.024v2.409h-2.551v2.32h4.899v1.417l-0.992,1.021
		h1.248v5.753h-0.427v1.247h1.162v3.174h-0.991l-1.021-0.368v-1.644h-2.187l-2.773-2.522v2.979h-2.607V644.4h-1.896l-0.684-0.567
		v-9.438h1.673V631.642L692.727,631.642z"/>
	<path id="Bellflower" fill="#FF0000" stroke="#000000" d="M658.688,631.942v7.125h20.012v2.126l2.834-0.02l0.085-4.94h1.021
		l-1.134-3.008v-6.062h0.468v-12.13l-1.021-2.585H666.68l-1.235,0.808l-2.153-1.185l-0.054,5.273v8.351h-2.531v6.245
		L658.688,631.942L658.688,631.942z"/>
	<path id="Paramount" fill="#FF0000" stroke="#000000" d="M663.232,617.188l-0.002,8.513h-2.53v6.246h-2.013v-1.604h-14.229v-2.097
		l-5.285,0.095l0.039-0.594h-0.215l0.215-4.093l1.562-0.058l0.537,2.265l2.153-2.314h-1.021l-0.596-2.154h-1.451l-0.435,0.675H638.7
		l-0.403-0.401l0.021-3.575l0.732-0.951l0.137-0.538l3.996-4.105l0.854-6.66l1.357,0.396l-0.086,0.992l3.57,2.186l-0.425,0.648
		l-1.644,0.17l-0.089,1.021h2.64l0.17-1.36l4.761,2.466l1.049-2.211l-0.708-0.367l1.219-1.929l3.771,2.239l-2.012,3.854
		L663.232,617.188z"/>
	<path id="Lynwood" fill="#FF0000" stroke="#000000" d="M644.036,605.823l-0.851,6.66l-4.063,4.376l-0.715-0.211v-1.188h1.021
		v-1.454h-1.185l-0.756,0.963l-5.113-0.262l0.746-2.804l-3.738-1.438v1.417h-1.357l-2.834-1.502l-1.898,0.482l-0.794-6.01
		l-1.048-0.853h-4.563l-0.878-4.161h2.664l-0.624-4.795l-1.402-0.134l-0.093-3.924h0.957l0.283,2.13h2.013v0.822l5.072,0.964
		l-1.559-5.526l1.956,0.283l-0.062,3.146l1.531,0.512l-0.028,1.39l14.992,1.87l0.198,2.354l2.775,0.06L644.036,605.823z"/>
	<path id="South_Gate" fill="#FF0000" stroke="#000000" d="M617.509,590.996l0.283,2.13h2.013v0.822l5.072,0.964l-1.559-5.526
		l1.955,0.283l-0.061,3.146l1.531,0.51l-0.028,1.39l14.992,1.87l0.198,2.354l2.773,0.057h1.701l-0.992,7.227l-0.085,0.992
		l3.57,2.187l-0.425,0.647l-1.646,0.17l-0.085,1.021h2.638l0.172-1.36l4.761,2.466l1.049-2.211l-0.708-0.367l1.219-1.929
		l-7.538-4.138l1.222-1.389l0.365-1.589l0.709,0.229l0.938,0.879l1.701-1.644l-1.077-2.607l-1.19-0.256l-0.34-0.937v-2.521
		l3.602-5.158l1.56-2.976l-3.117-0.992l-4.676-0.992l-1.134-0.085v-1.389h-2.522v-1.021l-0.905,0.146l-0.257,0.538l0.709,0.732
		l-0.479,0.907c0,0-1.36-0.623-1.502-0.623c-0.146,0-1.502,0.17-1.502,0.17l-4.142-4.223l-10.229-1.36l-6.207-0.822l-0.708-0.733
		l-0.737,0.681v1.219l1.531,2.834l-0.879,0.146l-2.409-1.562l-1.304-0.057L617.509,590.996z"/>
	<path id="Vernon" fill="#FF0000" stroke="#000000" d="M611.482,560.701l-0.811-16.962h6.085l1.13-0.377l0.486,0.538h3.931
		l0.812-0.7l1.991,0.97l0.378-0.646h2.047l0.969,1.396h0.754V543.9l7.485,1.131l-0.751,2.834l8.077,3.713l4.532,2.891l-0.682,1.275
		l-1.812-0.793l-1.698,1.188l0.283,1.562l0.733,0.878l-0.511,1.219l1.418,1.105l0.736,1.526l-0.822,0.369l-5.016-4.986
		l-11.058-1.589v8.445l-4.617-0.312v-3.629h-1.476v-1.272h-4.252v-2.777h-3.372v2.895h-0.396v1.332L611.482,560.701z"/>
	<path id="Huntington_Park" fill="#FF0000" stroke="#000000" d="M630.177,561.101v3.571l-4.619-0.312v-3.628h-1.474v-1.275h-4.252
		v-2.777h-3.372v2.895h-0.396v1.332l-4.596-0.201v8.104l0.709,0.368v1.392h2.639l3.345,0.025l4.729,0.709v0.737h4.081l-1.086,5.478
		l10.383,1.385l-4.618-5.441l0.682-0.596v-0.599h-1.105l-0.817-1.245v-1.561l-1.446-0.312v-1.931l2.211-0.17v-1.812l4.903,0.396
		h1.162l0.85-1.104l0.085-1.53l-0.991-0.879L630.177,561.101z"/>
	<path id="Maywood" fill="#FF0000" stroke="#000000" d="M647.068,562.433l-0.822,0.369l-5.016-4.984l-11.058-1.591v4.959
		l7.001,0.938l0.991,0.879l-0.085,1.53l-0.854,1.104l11.279,1.445l-0.283-2.466L647.068,562.433z"/>
	<path id="Bell" fill="#FF0000" stroke="#000000" d="M648.599,554.469l-0.68,1.275l-1.813-0.793l-1.697,1.188l0.279,1.562
		l0.737,0.878l-0.511,1.219l1.418,1.105l1.898,3.713l0.279,2.466l-11.026-1.414l-1.411-0.031l-4.903-0.396v1.812l-2.211,0.17v1.931
		l1.446,0.312v1.562l0.818,1.244h1.104v0.599l1.729,0.34h1.562l1.588,1.358l1.021-0.706l0.651-0.061l0.255-0.312h1.105l0.732,1.02
		l3.604,0.284l1.104,0.566l0.854-0.514l0.68,0.426l0.396,0.622h0.903l0.623,0.737l1.984-1.896l-1.077-1.274v-3.6l0.396-2.438
		l-0.988-3.287l-0.795-2.322l4.678,0.451l0.425-2.353h3.771l0.341,0.17l0.312-0.34l-0.025-0.736l-4.023-1.247l-2.125-1.812
		L648.599,554.469z"/>
	<path id="Cudahy" fill="#FF0000" stroke="#000000" d="M649.115,576.606l-0.604-0.712h-0.903l-0.396-0.623l-0.68-0.429l-0.854,0.514
		l-1.104-0.566l-3.603-0.284l-0.733-1.02h-1.105l-0.255,0.312l-0.65,0.061l-1.021,0.708l-1.588-1.36h-1.562l-1.729-0.51
		l-0.683,0.766l4.448,5.241l4.364,4.416l1.443-0.163l1.504,0.623l0.479-0.907l-0.709-0.732l0.256-0.538l0.906-0.146v1.021h2.521
		v1.389l1.385,0.139v-2.855l0.6-0.769v-3.146L649.115,576.606z"/>
	<path id="Bell_Gardens" fill="#FF0000" stroke="#000000" d="M654.919,585.446l-2.239-0.709l-4.27-0.905l-0.146-2.907l0.59-0.75
		v-3.033l2.27-2.405l-1.077-1.274v-3.401l0.396-2.636l8.812,1.332v1.842l8.446,1.308l1.303,0.17l0.822-0.623l0.396,1.474h-1.559
		l-1.05,0.597l-2.407,4.226l-7.029,4.986l-1.219,0.229l-1.615,1.955L654.919,585.446z"/>
	<path id="Signal_Hill" fill="#00FF00" stroke="#000000" d="M640.238,670.688l7,0.218v2.312h-1.4v0.916h-2.314v1.453h-1.021v4.688
		h2.046v-4.9h7.323v2.046h1.021v-0.754h1.35v5.224l1.885-1.562h2.208v4.521h-4.361v0.597h2.425v2.046h1.398l1.076,1.773h-8.669
		l-8.67-6.729v-2.207h-1.399L640.238,670.688z"/>
	<path id="Downey" fill="#FF0000" stroke="#000000" d="M670.223,572.919h-1.474l-1.139,0.604l-2.403,4.214l-7.029,4.984
		l-1.219,0.229l-2.039,2.498l0.877,0.277l-1.559,2.978l-3.603,5.158v2.521l0.343,0.938l1.188,0.256l1.077,2.604l-1.701,1.646
		l-0.935-0.879l-0.709-0.229l-0.368,1.587l-1.22,1.393l7.539,4.138l3.77,2.239l-2.012,3.854l5.623,3.14l0.051-4.992l2.152,1.185
		l1.236-0.808h14.271l-0.493-2.913v-5.328l2.834-6.688l0.368,0.597h7.539l-3.911-7.198l0.198-1.36l2.098-3.397l-9.354-7.396
		l-5.413-7.143l-2.553,1.304h-2.039v-0.005h0.005v-0.005H670.223z"/>
	<path id="Norwalk" fill="#FF0000" stroke="#000000" d="M710.24,627.277h-4.506v-0.429h-2.354v1.36h-2.151v3.315l-1.785,0.087
		l-8.331,0.022v0.822l-0.513,0.595h-1.929v-5.895h-6.688l-0.017-12.13l-1.051-2.746l-0.466-2.752V604.2l2.834-6.688l0.367,0.599
		h7.539l1.076,0.766l0.084,0.906l2.127-2.554l1.332,0.146v1.271h5.301v1.847h2.295v-0.907h2.408v8.332h1.982l0.538,1.871
		l4.422,2.749v2.183h-0.851v1.587h-0.795v1.05h5.07v2.185h1.646v2.438h-2.607v1.308l-7.991-5.841h-1.33v4.618h4.449L710.24,627.277z
		"/>
	<path id="Santa_Fe_Springs" fill="#00FF00" stroke="#000000" d="M724.523,629.8l-4.533-2.806l-9.741-0.112l0.104-4.819h-4.449
		v-4.615h1.332l7.988,5.838v-1.307h2.607v-2.438h-1.646v-2.182h-5.07v-1.053h0.794v-1.587h0.851v-2.183l-4.422-2.749l-0.538-1.871
		h-1.981v-8.332h-2.408v0.907h-2.295v-1.843h-5.301v-1.274l-1.332-0.143l-2.125,2.551l-0.115-0.93l-1.174-0.979l-3.689-6.791
		l0.249-1.769l1.952-3.166l3.798-5.498l0.142-1.843l-1.049-2.979l6.353,2.409l1.729,1.614h1.417l1.562-1.359v-0.963l-1.332-0.512
		h2.065l0.567-0.598l-0.086-0.99h-0.768l0.598-0.768l-0.113-0.991l-0.822-0.227l-1.355,0.312l-0.539-0.511l-0.481,0.481
		l-1.357-0.964l0.818-0.769l-1.02-1.729l1.474,0.396l1.076,1.701l3.09,0.765l5.583,1.759l-0.479,1.247v2.577l2.353,1.899
		l-0.963,1.672l3.314,0.596l-3.854,3.911l1.531,1.247l1.245-1.162l1.272,1.19l-0.904,1.474l-0.65-0.511l-0.736,0.936l-0.851,0.171
		l2.494,1.898l1.074-0.454l1.674,1.134l-0.854,0.77l-1.104-0.599l-0.397,0.736l0.113,1.87l-1.306,0.48v1.844l1.248,0.282
		l0.143,4.106l-0.992-0.562l-0.084-3.146h-1.843v1.162l-1.672-0.198l0.057,8.308h1.927l0.567,0.623l0.991-0.651l6.292,0.028v1.356
		l-0.368,0.061v6.122h0.766v0.709h0.854v1.218h2.636L724.523,629.8z"/>
	<path id="Commerce" fill="#FF0000" stroke="#000000" d="M674.814,571.615l-2.555,1.304h-2.041l-0.396-1.474l-0.941,0.604
		l-9.63-1.458v-1.842l-8.825-1.371l-1.771-5.572l4.677,0.453l0.425-2.353l3.814,0.021l0.295,0.146l0.312-0.34L658.152,559
		l-4.024-1.247l-2.125-1.812l-3.463-1.357l-4.522-3.029l-8.023-3.688l0.751-2.834v-1.53h2.338v0.651h3.287v2.49h3.005v-4.676
		l9.126,5.045l3.032-5.584l3.908,1.19l-0.622,5.354l10.771,0.794l-0.057,1.505l-1.105,2.151l0.708,0.481l-0.68,5.838l2.409,1.219
		l-1.984,3.458h-1.077l-1.104-1.162l-0.684,1.134L674.814,571.615z"/>
	<path id="Montebello" fill="#00FF00" stroke="#000000" d="M674.145,570.805l-6.132-7.408l0.684-1.134l1.104,1.162h1.077
		l1.984-3.458l-2.409-1.219l0.68-5.838l-0.708-0.481l1.106-2.191l0.056-1.461l0.34-3.008l-2.183-0.794l0.198-1.049l-6.915-5.385
		v-6.263h15.22l4.053,4.053l2.21-2.664h2.041l1.275-2.354h2.69l-6.121-1.587l-0.172-1.188l-0.793-0.6l2.69-2.097v-0.766l2.013-0.113
		l0.684,0.511l0.681-1.271l1.134,0.85l-0.964,1.134l2.04,1.615l0.145,0.769l3.854,0.851l0.511,1.983l1.983-0.906l2.322,2.834
		l0.229,2.892l-6.377,5.3l-4.309,3.457l0.649,0.966l-1.785,1.953l-0.623,2.494l-0.256,2.894l-3.005,1.05l-0.708,0.624l-0.538,1.358
		l-2.065,2.099l-0.566-0.113l-2.409,2.893l-0.818,2.067l-0.258,2.466l-1.272,2.664l-0.821,1.587L674.145,570.805z"/>
	<path id="Pico_Rivera" fill="#00FF00" stroke="#000000" d="M692.477,575.854l1.043,2.965l-0.142,1.842l-3.767,5.454l-9.388-7.354
		l-6.245-8.148l1.602-0.64l2.097-4.249l0.271-2.494l0.811-2.041l2.409-2.891l0.563,0.113l2.068-2.101l0.538-1.356l0.708-0.624
		l3.005-1.051l0.239-2.709l0.639-2.678l1.786-1.955l-0.651-0.964l3.882-3.11l4.45,1.155l1.846-1.699l2.466-0.904l0.794,0.732
		l3.74-0.312l0.479-0.651l2.551-0.086v-1.417l-1.049-0.935l1.135-1.729l-0.452-2.097l1.418,2.182l0.989,0.061l-1.159,0.991
		l-0.259,1.416v1.443l1.223,0.114v-2.324l1.896-2.183l1.05-0.396l3.263,2.494l-2.102,1.646l0.17,1.075l-1.757,0.479l-0.197,1.53
		l-1.305,1.188l-1.162-0.906l-1.021,0.854l-0.736-0.854l-0.709,0.882l0.652,0.766l-0.795,0.906l0.312,0.649l-3.117,0.367
		l-1.134,1.615l1.275,1.304l1.53-0.396l-1.615,1.896l-2.409,2.81l-1.019-0.052l0.104,1.614l-0.646,0.162l-0.16,1.292l-1.67,2.802
		v1.888l-1.562,3.281l-3.393,5.388l-2.854,4.146l-0.432,0.593L692.477,575.854z"/>
	<path id="Whittier" fill="#00FF00" stroke="#000000" d="M758.436,588.81l-5.65,0.22v11.953l-2.316-0.322l-4.254-2.369l-5.923,1.454
		v-3.608h-1.669v-1.992l-16.479-9.527l-4.951-1.35l-1.293-0.216l1.235,1.349l-1.346,1.452l-1.951-1.627l1.31-1.325l-3.313-0.597
		l0.963-1.672l-2.353-1.897l0.009-2.602l0.474-1.226l1.417,0.194l0.481-1.356l-1.19-1.332l0.567-0.511l-0.651-1.275l0.736-0.793
		l-0.595-1.275l0.732-0.539l-0.562-0.878l1.16-0.903l-0.853-0.769l-0.851,1.189l-0.821-0.821l0.479-1.162l-3.284-2.494l-1.984,2.211
		l-1.502-1.785l1.757-1.98l-1.502-0.907l-0.229-1.587l-3.006,0.542l1.261-2.109l1.209,0.806l0.28-0.061l-0.025-1.559l0.708-0.028
		l0.026-0.964l-0.479-1.218l2.729-3.186l2.938,2.359l0.454-1.021l4.192,1.39l5.524,0.426v-1.503h4.763v8.673h2.521h2.183v2.522
		h7.256v2.296h7.061v4.506h9.406v6.745h-4.446l1.356,2.689l-1.049,0.938l1.19,1.134l-3.543,3.117l-2.324,2.066h1.729l1.104-0.649
		l0.767,0.425h11.422L758.436,588.81z"/>
	<path id="La_Mirada" fill="#00FF00" stroke="#000000" d="M752.781,607.926v9.047h-4.578v4.415h-4.738v4.954h-4.846v4.688h-4.577
		v4.685l-9.437-0.008l-0.194-18.46h-2.636v-1.218h-0.854v-0.709h-0.766l0.021-6.125l0.352-0.058v-1.356h11.952v-1.037l-4.039-3.558
		l8.938-2.423l0.916,3.181l5.062-0.484v3.338l1.076,0.271v0.808L752.781,607.926z"/>
	<path id="La_Habra_Heights" fill="#00FF00" stroke="#000000" d="M759.352,586.466H748.02l-0.762-0.423l-1.109,0.65h-1.729
		l5.867-5.188l-1.19-1.134l1.048-0.936l-1.355-2.692h4.448v-6.729l3.425,1.993h6.404l4.473-1.396l0.054-1.238l17.558,5.115
		l-4.414,13.354h-1.512l-0.481,0.972h-13.408v-2.049h-3.661L759.352,586.466z"/>
	<path id="Monterrey_Park" fill="#FF0000" stroke="#000000" d="M686.122,525.079l-0.053,0.807l-2.644,2.06l0.801,0.617l0.166,1.165
		l5.676,1.475l-2.278,0.176l-1.242,2.293h-2.041l-2.21,2.664l-4.053-4.053h-15.221l-2.7-0.87l-2.8-0.485h-2.692v-3.015l0.97-2.639
		h-6.729l0.646-1.239v-1.453h-0.916l0.323-4.688h0.271l-0.02-4.631l1.521,0.699h0.38h6.893l2.369,0.162l1.454,1.238h0.808
		l2.153-1.728h2.262l0.434-1.346l-0.537-3.178h14l0.27-1.35l0.811-0.054l0.378,0.592v9.693l-0.218,0.431v5.277l1.075,0.322
		l1.188-0.646L686.122,525.079z"/>
	<path id="Rosemead" fill="#00FF00" stroke="#000000" d="M698.22,530.521l-2.008,0.878l-0.511-1.984l-3.854-0.85l-0.143-0.77
		l0.907-1.785L694,526.95l0.396-0.992l1.243,0.425l0.709-0.68l-0.096-0.358h-1.063v-2.221h-1.162v-1.389h-1.392v-0.6h-0.733v-0.817
		h-1.052c0,0,0.652-1.223,0.481-1.19c-0.17,0.028-4.987-0.879-4.987-0.879l-1.812,1.813l-1.077-1.761l-0.946-0.204l0.053-9.795
		l4.271-0.398v-0.566h6.66v-1.445h-0.907v-1.389h0.596v-2.381h2.101l-2.153-3.486v-3.627h0.595v-2.151l6.888,2.491l6.437,2.522
		l-0.198,2.153l-0.312,1.158h1.812l0.198-0.878l1.359-0.563v6.231l0.454,0.821l-9.555,0.256l0.482,2.016l2.664,2.834l-1.332,1.672
		h1.188l-1.272,1.271v2.324h-2.809v2.354h-1.896l-0.623,0.647v1.531h-0.794v3.627l2.268,2.069l-0.563,1.104l-1.161-0.227
		L698.22,530.521z"/>
	<path id="South_Pasadena" fill="#00FF00" stroke="#000000" d="M656.716,490.43H644.33v-8.077h0.539v-1.021h0.592v-0.377h1.562
		l2.526-3.123l-0.431-1.077l1.346-1.131l-0.748-1.695l9.562-0.229l1.076-0.907l3.629,4.138l1.826,3.917l-0.595,0.812l2.369,3.282
		v1.829h-3.877l0.431,3.558L656.716,490.43z"/>
	<path id="Alhambra" fill="#FF0000" stroke="#000000" d="M682.025,507.726l-0.647,0.043l-0.269,1.35h-14.001l0.538,3.178
		l-0.435,1.346h-2.262l-2.153,1.728h-0.808l-1.454-1.238l-2.369-0.162h-6.785v-1.831l1.777-4.199v-2.424h1.076v-1.292h-0.596V493.83
		l3.069-2.692l0.078-0.699l7.353-0.105l-0.431-3.554h3.877v-1.831l4.093-2.692l3.285,3.934l2.479-1.452l2.208,3.77l0.215,4.954
		l2.101-1.022v14.755L682.025,507.726z"/>
	<path id="San_Marino" fill="#00FF00" stroke="#000000" d="M675.361,485.946l-0.395,0.229l-3.281-3.932l-4.162,2.597l-2.304-3.188
		l0.597-0.812l-1.616-3.917h0.979l3.175,0.822l2.408-0.021l0.623-0.461v-1.104l-0.479-0.566v-1.104l-1.36-2.381v-2.016l6.924-2.206
		l2.432-0.029v-2.64l5.693,0.062v0.901h4.975l1.773,6.476l1.293-0.915l0.271,1.131l-1.131,0.538v1.239l-0.484,0.48v4.472h-3.771
		l-0.914,0.915l-4.361,0.217l-0.055-0.594l-3.338,0.378l-1.728,1.186l-1.185,2.208l-0.538,1.346L675.361,485.946z"/>
	<path id="San_Gabriel" fill="#00FF00" stroke="#000000" d="M693.718,492.855v2.15h-0.595v3.627l2.153,3.486h-2.101v2.381h-0.596
		v1.389h0.907v1.445h-6.66v0.566l-4.215,0.396l-0.646-1.094l-0.003-14.786l-2.101,1.023l-0.216-4.954l-2.207-3.771l-2.027,1.189
		l0.052-0.827l1.652-3.378l1.724-1.188l3.338-0.377l0.059,0.596l4.357-0.219l0.915-0.915l3.771-0.104l0.754,0.754l-0.484,0.539
		v3.392h2.208v0.974h-0.916v0.754l-1.185-0.107l0.054,0.699h1.293v-0.484h1.669v0.484l0.812-0.054v-4.79h0.539v4.308h2.423v2.315
		l-0.108,1.451l-1.185-0.217v1.938h-0.323v-2.103h-0.807v0.86l-1.133-0.323v-0.592l-1.398-0.162l-1.615,0.485l0.646,0.646
		l-0.058,1.4L693.718,492.855z"/>
	<path id="Temple_City" fill="#00FF00" stroke="#000000" d="M709.847,498.881l-2.809-1.009l-6.406-2.512l-0.084-4.446l-2.119-2.379
		l0.021-2.575h-2.154l-0.269-4.308v-1.4h4.469v-2.585l3.123-0.969v-0.915l2.478,0.322v1.827l3.661-0.808l0.539,3.177l0.538,0.485
		l0.538,1.669l0.7,0.808l-0.433,1.454l1.021,1.992l6.516-1.347l0.7,0.7l1.726-0.812l0.646,0.593l1.776-0.754l0.216,1.669
		l0.754,0.435l-0.593,0.858l0.377,2.104l0.432,1.021l-2.529,0.484v1.615l-0.379,0.754l-0.592-0.593l-0.646,0.97l-3.719,0.431
		l-0.159-0.431l-0.271,0.808l-6.567,0.916L709.847,498.881z"/>
	<path id="Sierra_Madre" fill="#00FF00" stroke="#000000" d="M703.864,452.521l-0.284-0.107v-10.345l1.361,0.708v-1.93l-0.031-2.487
		h14l5.115-0.22v6.682l0.593,0.646v0.862h-4.954c0,2.028,0,4.057,0,6.085L703.864,452.521z"/>
	<path id="Arcadia" fill="#00FF00" stroke="#000000" d="M730.703,483.752l-2.531,0.862l-3.284,0.161l-0.858,0.319l-1.776,0.754
		l-0.646-0.593l-1.725,0.812l-0.7-0.7l-6.516,1.347l-1.022-1.992l0.434-1.454l-0.7-0.808l-0.538-1.669l-0.538-0.485l-0.539-3.177
		l-0.698-1.938l-2.586-1.777l-2.207,0.916l-0.646-0.646l0.431-0.696l0.057-2.804l-0.972-0.808l0.7-0.593l0.031-11.948v-4.312
		l15.8-0.107v-6.085h4.954v-0.862l-0.593-0.646v-6.682l2.208-0.157h4.575l0.056,1.073l0.808,0.973l-3.338,0.646l1.131,29.239h7.754
		l-1.612,2.369v4.631l-2.153-1.076v1.669l-1.615,1.831l-0.593,4.415l0.754,2.315l0.054,1.562l4.096-1.562v0.696l6.894,2.746
		l-0.7,2.208l2.047,0.861l-3.555,5.331l-1.397-0.7l2.263-5.6l-0.434-0.216l0.646-1.135l-1.562-0.696l-0.319,1.186l-4.793-1.777
		l-3.181,2.585h-2.312l-0.484-1.396l0.861-2.315l0.916-0.161l0.754-1.396L730.703,483.752z"/>
	<path id="Monrovia" fill="#00FF00" stroke="#000000" d="M736.143,486.067l-4.094,1.562l-0.053-1.533l1.292-0.352l3.177-2.854
		l1.346-0.215l0.22-3.555l-0.435-0.161l-1.234,1.238l-0.323-1.292l1.131-1.239l1.188,0.27v-8.021h-1.135h-7.754l-1.131-29.239
		l3.338-0.646l-0.808-0.973l-0.058-1.073h-1.938v-9.208l32.9-0.107v9.208h9.586v8.077l-0.861,1.076h-9.962h-3.178l-2.643,0.696
		h-2.584v5.87l-1.989-1.235l-1.511,0.16l-0.696,1.075l0.319,2.53l1.83,0.754v1.454h1.131v0.969h2.479v1.831h-1.292v0.754h-1.023
		l-0.431,2.047h-3.395v4.85l-0.916,1.773h-0.755v-0.97h-2.639l-0.593,2.692l-1.776-0.861l-0.216,1.831h-1.885l-0.161,4.685
		l1.396-0.696l1.077,0.808l0.435-1.131l0.914,0.97l-2.69,0.861l-1.293-0.434l-0.215,4.415l1.346,1.83l-0.106,1.831l-2.366-1.077
		L736.143,486.067z"/>
	<path id="Bradbury" fill="#00FF00" stroke="#000000" d="M758.703,461.219l7.971,0.133l-0.054-4.521l-4.523-1.238l-0.216-8.562
		h-4.523l-2.639,0.696h-2.584v5.87l-1.992-1.235l-1.508,0.158l-0.699,1.077l0.322,2.53l1.83,0.754v1.454h1.131v0.969h2.479
		l0.009,1.831l3.223,0.058l0.057-1.727l1.186-1.185L758.703,461.219z"/>
	<path id="El_Monte" fill="#00FF00" stroke="#000000" d="M703.949,511.9l-2.664-2.834l-0.482-2.016l9.553-0.256l-0.451-0.821v-6.231
		l-1.36,0.563l-0.198,0.878h-1.812l0.335-1.408l0.042-1.956l2.946,1.023l0.494-2.709l6.568-0.916l0.271-0.808l0.157,0.431
		l3.72-0.431l0.646-0.969l0.592,0.592l0.377-0.754v-1.615l2.531-0.484l1.399-0.161v1.022l2.644-1.896l0.479,1.411h2.312l3.178-2.585
		l4.796,1.777l0.319-1.188l1.562,0.698l-0.646,1.132l0.404,0.279l-2.235,5.535l1.399,0.7l-1.022,3.821l-0.216,2.641l-1.938,6.945
		l-0.16,1.186l-1.562,0.862l-0.646,0.915l-0.646-1.4l-1.131,1.616l2.585,1.992l0.107,1.076l-1.992,4.735l-1.562,2.208l-4.309,2.369
		l-1.077-1.347l-0.7,0.593l-0.969-1.237l0.861-0.698l-1.454-0.699l-3.284-2.692v-3.123h-1.831v-1.454h-3.339v-0.27h-5.062v0.916
		h-0.594v0.754h-1.021v-1.293h-0.755v-1.776l1.236-0.97l-1.021-1.131l-3.556,0.539l-0.698-0.058L703.949,511.9z"/>
	<path id="South_El_Monte" fill="#00FF00" stroke="#000000" d="M725.651,524.974l0.798-0.777l-1.271-0.612l-3.467-2.78v-3.123
		h-1.831v-1.454h-3.339v-0.27h-5.062v0.916h-0.593v0.754h-1.021v-1.293h-0.754v-1.776l1.235-0.97l-1.021-1.131l-3.557,0.539
		l-0.697-0.055l-1.038-0.959l-1.236,1.494l1.132-0.009l-1.396,1.38v2.324l0.17,2.336l1.396,1.399l1.351,0.216v0.161l1.773,0.054
		v1.727l0.915,1.612l1.188,0.161l0.97,1.239l1.562-0.054l1.452,2.312l-2.745,1.399l0.377,1.131l1.349-0.107l1.396-1.562l0.107,1.185
		h0.86l0.858-0.593l0.484,0.7l-1.562,2.047l1.613-0.216l0.699-1.077l3.016,0.104l5.228-2.638l-1.454-2.101l0.916-0.595l-0.595-0.697
		l1.021-0.812L725.651,524.974z"/>
	<path id="Industry" fill="#00FF00" stroke="#000000" d="M718.318,537.72l-2.102,1.646l0.17,1.077l-1.757,0.479l-0.205,1.537
		l-1.297,1.184l-1.162-0.903l-1.021,0.851l-0.736-0.851l-0.709,0.879l0.652,0.766l-0.797,0.906l1.097,1.576l12.708-10.231
		l1.454-0.322l1.021-0.593l1.454,0.915l2.961-0.915l1.938,0.754l2.688-1.073h2.479l0.592-1.512l1.993,0.484l4.358,2.585l1.726,0.107
		l0.216,1.235l4.038,1.776l0.7-0.646l0.646,0.537l-0.216,0.812l1.938,1.077l0.539-0.861l-0.646-0.539l1.077-1.185l1.508,1.347
		l-1.776,3.229l0.107,0.646l4.846,1.885l0.972-2.153l3.123,1.511l-0.698,1.989l6.139,2.209l0.161,2.69l9.209,3.229v4.094
		l9.908,0.754l0.377-2.639l2.906,0.216v0.538h1.938v-1.238h4.47l0.323-1.885l4.576,0.858l0.105-1.132l-1.725-0.104l0.216-1.454
		l1.509,0.105l1.726,1.887v1.396l4.093,1.077v-1.185h0.915v1.346l1.239,0.216l1.991-1.67l-0.811-2.046l2.638,2.046l1.993-1.938
		l-0.97-1.615l1.077-0.484l0.699,0.861l0.593-1.131l8.078-4.954l1.938,1.508l-1.669,1.188l1.023,2.904l2.689-0.431l5.653-5.602
		l-0.484-0.756l0.484-0.593l0.86,0.812l1.132-2.049l0.271-10.067l-2.529-2.585l-2.691,2.208l-3.716,1.562l-1.292,3.936l-0.862,0.915
		l-0.43,2.15l-1.777-0.055l-1.615,1.022l-1.67,1.725l-0.054,0.861l-0.915,0.054l0.055-1.347l-6.189,4.358l-4.631,3.069l1.075,2.369
		l-3.444,0.377l-1.188-0.971l2.315-1.67l-4.2,0.105l-9.154-1.723l-4.572-0.646l-1.077-1.346l-0.435,0.915l-2.478-0.216v-1.56h-0.81
		l-0.056-1.293l-3.177-0.7l1.346-3.393l1.348-4.471l-2.689-0.218l-2.314-1.185l-2.64-1.132h-1.831l0.271-4.953h-2.854l-0.377,1.185
		h1.669v1.077h-0.646v2.746H770.6l-0.162,3.285l4.312-0.107l-0.812,3.5l3.02,0.971l-0.055-1.236l6.027,0.97l-1.131,3.068
		l-1.396,2.101l-3.019-0.808l-3.981-0.7l-3.607-1.4l-2.531-1.99l-1.99-2.528l0.482-1.51L745.4,521.604l2.047-2.314l-1.293-1.131
		l0.754-0.754l1.021,0.97l1.562-1.562l-1.4-1.237l2.047-2.046l-1.773-0.107l-0.972,0.271l-1.774,1.348l-0.81-0.538l-2.53,1.185
		l-1.668,0.107l-0.484,2.153l-0.916,0.432l-1.723-0.7l-0.973-1.131l-0.055-1.885l0.754-0.971l0.271-1.188l-1.562,0.862l-0.646,0.915
		l-0.646-1.4l-1.131,1.616l2.585,1.992l0.106,1.076l-1.978,4.693l-1.578,2.25l-4.309,2.369l1.076,1.347l-1.992,0.861l2.153,1.992
		l1.562-1.293l1.615,0.432v-1.774l3.443-1.35l-0.104-1.562l-1.022-2.802l1.293-2.367l0.646-2.265l1.831,1.453l1.293,0.056
		l4.631,4.198l-0.7,0.323l-0.431,0.97l0.754,1.614l0.646-0.646l-0.433-0.86l0.811-0.754l3.716,3.068l-1.454,1.886l0.483,0.481
		l1.348-1.562l1.077,0.321l9.312,7.755l-0.97,1.075l-1.725-1.725l-0.811,0.915l-3.982-3.068l0.646-0.755v-1.508l-1.186-1.021
		l-1.076,1.562l-1.292-1.021l-1.725,1.775l1.132,1.292l-1.562,1.727l-1.724-1.35l-0.646,0.434l0.699,1.021l-3.229-0.271
		l-3.018-1.614l-1.021-0.915l-12.062,1.724l-0.055-1.67l-1.188-0.216l-2.639,2.103l-1.021-1.613h-0.972v2.8L718.318,537.72z"/>
	<path id="La_Puente" fill="#00FF00" stroke="#000000" d="M772.705,530.869l-0.485,1.185h1.669v1.077h-0.646v2.746h-2.64
		l-0.16,3.285l4.308-0.107l-0.808,3.5l3.016,0.973l-0.055-1.238l5.957,0.998l-1.09,3.09l-1.366,2.051l-2.812-0.752l-4.188-0.756
		l-3.607-1.398l-2.566-2.037l-1.955-2.483l0.482-1.508l-17.725-15.568l1.894-2.256l0.216-1.021l0.812-0.271l2.746-3.177l2.423,1.991
		l-0.754,1.235l1.938,2.048h0.646l2.423,2.367l-2.692,2.962l4.85,4.312l2.907-2.854l-0.595-1.131l2.746-1.562l-1.131-1.188
		l0.861-1.508l-0.699-0.809l1.185-1.614l0.646,0.592l2.312-2.53l0.646,0.972l-3.396,3.717l0.811,0.592v2.208l1.562-0.271
		l2.104,0.812L772.705,530.869z"/>
	<path id="Baldwin_Park" fill="#00FF00" stroke="#000000" d="M738.479,518.079l-1.052-0.474l-0.916-1.327l0.001-1.681l0.707-0.906
		l0.387-2.04l1.982-7.275l10.178-3.016v-6.73h-1.131v-4.686h3.446v-4.792h18.954v4.254h-6.085v2.688h0.431v2.104l-0.377,0.592v1.238
		l2.639-1.727l0.436,0.058l0.053,1.831l1.885-0.539l0.108,1.073l-0.377,0.107v1.077h0.646v2.746h-1.021v1.773h-0.812l-3.5,4.146
		l-1.453-0.972l-0.594,0.972l1.077,1.185l-2.153,1.992l-0.916-0.482l-1.131,0.756l1.293,0.969l-0.539,0.97l-1.076-0.216
		l-1.132,1.293l0.378,0.431l-0.755,0.646l-1.508-1.239l0.593-0.915l-0.808-0.97l-0.97,1.397l-1.615,0.271l-0.592-0.7l-0.971,1.131
		l-1.453,0.217l-4.256,0.106l-6.141,0.538L738.479,518.079z"/>
	<path id="Irwindale" fill="#00FF00" stroke="#000000" d="M768.074,494.36l-0.436-0.058L765,496.029v-1.238l0.377-0.592v-2.104
		h-0.431v-2.688h6.085v-4.254h-18.954v4.792h-3.446v4.686h1.131v6.73l-10.23,3.22l0.262-2.722l1.24-4.259l3.348-5.021l-2.022-0.926
		l0.68-2.146l-6.896-2.746l0.159-0.82l0.813-0.628l2.365,1.071l0.104-1.831l-1.333-2.104l0.192-3.931l1.303,0.222l2.688-0.861
		l0.22,0.538l2.101-0.377v-1.346l1.021,0.215l0.08-1.438l1.371,0.093l1.135-2.804l3.443-0.432l0.811,0.862h1.508l2.585-2.585v-2.208
		h5.062v-2.315h6.405l1.076-1.292l1.724-0.323l1.777,2.369l0.432-1.131l2.906-3.016l2.208,0.538v12.171h-4.735v4.685h5.386v3.823
		h0.538v-1.188h0.859v6.73l-2.263,1.237v1.075h-3.823v1.727h1.776v1.396h-1.83l-1.077-0.592L768.074,494.36z"/>
	<path id="Diamond_Bar" fill="#00FF00" stroke="#000000" d="M814.195,556.96l1.91-1.859l-0.973-1.611l1.077-0.484l0.7,0.861
		l0.604-1.143l8.064-4.942l1.938,1.508l-1.669,1.185l1.022,2.908l2.691-0.431l5.651-5.604l-0.481-0.754l0.481-0.592l0.861,0.808
		l1.131-2.047l0.271-10.065l-0.936-0.952l1.955-1.901l4.094,3.069l4.688-8.562l2.367,1.616l0.861,1.399l5.602,3.555l0.378,3.5
		l8.638,5.115v8.885l-9.067,0.271l-9.368,18.737l-7.483,0.107l-7.433,8.021l-4.146-0.27v1.724h-8.776v-0.97h1.021l0.216-1.346
		l0.915-1.562v-3.178l-1.346-1.508h-1.077v-9.854L814.195,556.96z"/>
	<path id="Azusa" fill="#00FF00" stroke="#000000" d="M780.352,484.938v-2.204h-1.396v-2.643h-5.386v-4.685h4.735v-12.17
		l-2.208-0.539l-2.906,3.016l-0.432,1.131l-1.67-2.481l6.743-7.326l0.148-0.796l-2.479-1.939l-1.831,0.916v-1.293h-2.369
		l0.057-6.946h9.424l0.322,0.271h8.828v-2.046h4.851v1.938h4.737v20.731h1.938l0.539,1.938h2.423v1.727h-2.745v1.562h-1.938v2.531
		h2.8v4.738l-1.507,1.235h-1.455l-0.323-1.452l0.483-0.646v-2.53l-1.131-0.699l-4.039-0.217v7.595l0.646,0.482l4.093-1.723v1.562
		h1.776v0.971h-8.669l0.054-0.377l1.886-1.074v-3.231h-0.646v2.531l-1.021-0.377v-1.777l-0.433-0.481h-0.86v4.686h-2.264v-2.53
		h-1.13v-1.293h2.207v-1.292h-2.369l-1.346,1.562v2.854h-1.023l-0.216,0.812h-0.7v-1.776l1.077-1.077v-1.885h-2.69v2.208
		l-1.887,0.215v1.293h0.7l0.271-0.431l1.021,0.27l-0.538,1.132L780.352,484.938z"/>
	<path id="West_Covina" fill="#00FF00" stroke="#000000" d="M774.266,494.898l-1.285-0.594l-4.979,0.043l0.126,1.844l1.885-0.539
		l0.108,1.073l-0.377,0.107v1.077h0.646v2.746h-1.021v1.773l-0.819,0.017l-3.426,4.06l-1.519-0.896l-0.595,0.97l1.077,1.185
		l-2.15,1.992l-0.916-0.48l-1.134,0.754l1.293,0.969l-0.536,0.97l-1.078-0.216l-1.112,1.273l0.358,0.446l1.293,1.135l-0.646,0.808
		l0.915,0.7l0.646-0.646l1.725,1.728l-2.641,2.854l3.718,3.396l2.639-2.908l1.493,1.05l0.499,0.458l2.312-2.53l0.646,0.971
		l1.992-0.105l0.432,1.077l2.584-0.539l1.938-0.107l-0.056,0.756l-1.992,0.159l0.161,1.239l3.985-0.216l-0.107-2.208l2.104-0.161
		l0.698,0.754h4.952l-1.829,0.538l0.433,2.047l-1.938,0.056l-3.5,1.774l-0.217,1.188l-0.695-1.076l-0.916-0.057l0.27,5.491
		l3.446,0.271l2.046,2.747l-0.754,2.8l1.076,0.481l1.562-0.432l1.292,8.239h10.771l0.432,0.697l0.215-0.755h1.508l-0.054,2.209
		l1.399,0.056l2.15-1.022v4.633h-1.236l-0.271-1.672l-1.831-0.377l-0.699,0.916l-1.452,0.377l0.191,1.736l4.223,0.794l4.199-0.105
		l0.754-0.056l-0.431-6.246l2.585-0.054l0.538-2.479l-1.188-1.075l-2.262,2.208l-3.177,1.185v-1.077h-1.562l-0.377-1.885
		l-1.294,0.862l-4.631-7.001l-0.216-0.861l3.339-1.615l0.215-8.67l2.692-0.269l5.438-3.124l3.607,1.293l2.208-2.962l-1.347-2.369
		l-1.832-0.056l-0.271-0.916l-1.021-0.377l-1.727-1.774l2.692,0.271l0.592-2.747l-1.614-3.018l2.53,0.108l0.81-0.596l0.699,1.35
		l1.131-0.323l0.539,1.021l1.938,0.321l-0.81-1.772l-4.199-2.369l0.216-0.916l-1.132-0.215l-1.131-1.4l-1.775,1.454h-4.309v-1.776
		h-4.522v-0.858h-1.187v2.477h-3.606v-1.236h-2.101v-6.84h-2.64v1.022h-4.737v-2.046l-2.64-0.595l-1.132,1.292h-1.398v1.398
		l-4.255,0.271v-2.367l-0.916-0.108l-0.271,0.862h-1.077l-0.538,1.13l-1.67-0.054l0.754-3.123h2.104L774.266,494.898z"/>
	<path id="Covina" fill="#00FF00" stroke="#000000" d="M816.521,510.062l-4.238-2.454l0.215-0.916l-1.131-0.219l-1.131-1.396
		l-1.776,1.454h-4.308v-1.777h-4.523v-0.861h-1.185v2.479h-3.608v-1.238h-2.1v-6.839h-2.639v1.023h-4.738v-2.046l-2.639-0.597
		l-1.135,1.292h-1.396l-0.754-0.377l0.48-1.346h0.812v-2.104h1.076l0.593,0.596l2.639-0.435l1.669,0.107v-4.415h-1.185v-0.862
		l2.905-1.772h-1.725l0.106-2.428h16.587l0.808,1.077h4.469v1.351h-2.477v2.423h2.639v2.477h-1.885l-0.161,1.508h2.479v-0.857h1.234
		v-3.02h0.861v-1.449h0.916v-0.916h2.477v2.365h2.692v1.188h1.021v-3.554h3.341l-0.108-1.4h1.023l0.27,0.593l-0.808,0.7l1.453,1.023
		l-1.615,1.507h1.992l0.159,1.885l-0.809,0.162l-1.293,1.238h-0.915l0.056,2.15l-0.859,0.107l0.104,2.639l-1.292-0.054v2.423h2.104
		l1.021-0.27l3.446,1.347l-1.185,1.992l-0.646-0.323l-0.861,2.154l-3.819-2.746l1.234-0.862l-2.906-0.646l-0.271,0.755l-0.729,0.191
		v0.989h-0.99l-0.538-0.485l-0.057-0.914h-1.074l-0.219-0.755l-2.312-0.054l-0.754-1.021h-1.615v0.755l-1.238,0.27v1.615
		l-0.857,0.808l-0.059,1.132h1.4v-0.97l0.97-0.323v-1.347l3.069,0.162l-1.077,1.669l0.377,0.646h1.292l1.992-1.614l0.916,0.698
		v1.725l0.808,0.754l-0.646,0.484l0.159,1.021l0.539-0.054v1.396l1.349,0.861L816.521,510.062z"/>
	<path id="Glendora" fill="#00FF00" stroke="#000000" d="M804.367,469.806h-2.369l-0.539-1.938h-1.938v-17.07h2.423v-3.554h2.312
		v-4.631h9.208l-0.054-4.361h6.838l0.484,6.677v2.854h2.15v4.521h2.801v-2.584l1.135-0.055l0.377,1.239l1.234,1.723l5.766-2.746
		v-1.131l-1.889,0.216h-4.357l-0.178,0.656h-0.576l0.512-0.888v-5.746h-4.604l-0.321-3.716h1.396v-1.292h26.709v9.101l-4.575-0.108
		v4.851h-4.521v21.27l-4.847-1.396v6.565h-1.292v1.023h-1.4v1.346h-6.516v4.523h-16.479v0.915l-2.585-0.058l-4.415-1.452v-9.313
		h0.592v-1.292h1.939v-0.916h-1.023v-1.346h-1.396v-0.916h2.153v-1.188l-1.478-0.395L804.367,469.806z"/>
	<path id="Walnut" fill="#00FF00" stroke="#000000" d="M814.168,520.854l-2.208,2.966l-3.608-1.293l-5.438,3.12l-2.692,0.271
		l-0.215,8.67l-3.339,1.615l0.229,0.881l4.618,6.979l1.292-0.858l0.377,1.885h1.562v1.077l3.236-1.243l2.201-2.146l1.186,1.073
		l-0.538,2.479l-2.585,0.054l0.431,6.246l0.696-0.193l10.612-7.291l2.854-2.639l3.554-1.831l0.862-0.859l1.292-3.934l3.716-1.562
		l2.692-2.208l-0.054-2.315h-2.208l1.346-2.854l-0.807-1.188l-2.693,0.915l-1.885-7.271l3.981-1.562l-0.48-1.185l2.638-1.35
		l-0.646-1.508l-3.981,1.188l-2.103,1.347l-4.521,0.216v-1.615l-0.915-1.235l-2.047,0.916l0.808,0.857l-0.808,0.484l-0.861-0.592
		l-1.021,0.696l1.346,3.284l-5.008,0.377L814.168,520.854z"/>
	<path id="Pomona" fill="#00FF00" stroke="#000000" d="M834.036,526.941l-1.345,2.851h2.208l-0.044,2.396l1.773,1.64l1.874-1.984
		l4.097,3.069l4.685-8.562l2.369,1.616l0.862,1.399l5.6,3.555l0.377,3.5l8.638,5.115v-3.324l17.302,3.305l3.498-1.749l1.576-9.788
		l8.658-27.641l-9.355,0.104v-7.271h-2.045v-5.546h-2.424v-2.962h-1.508v-1.35h1.562v-3.555h-1.454v2.154h-1.238v-0.646h-0.754
		v-1.073h-1.562v1.508h-0.432v-1.188h-0.97v-1.992h-1.238v2.854l-0.7,0.054l-2.477-1.13l-0.108,13.3l-0.857,0.323l-1.831-1.885
		l-1.35,1.938l-1.611-3.229l-1.454-0.862l-3.557,6.141l-4.146-1.451l-1.239-0.162l0.81,2.746h1.454l0.81,0.696l-1.453,1.562
		l1.938,1.454v0.97l-2.367,1.022l-3.822,2.585h-1.4l-3.932,3.177l-2.153,0.27l-3.284,1.992l1.562,0.485l0.97,0.48l0.646,1.615
		l-1.077,0.861l-2.531-1.776l-4.2,3.771l2.642,1.562l-0.971,1.562l-2.102-0.862L834.036,526.941z"/>
	<path id="San_Dimas" fill="#00FF00" stroke="#000000" d="M855.417,496.412l0.806,2.74h1.454l0.812,0.696l-1.453,1.562l1.938,1.454
		v0.97l-2.367,1.022l-3.82,2.585h-1.4l-3.932,3.177l-2.153,0.27l-3.285,1.992l-6.462-0.054l-2.477-0.435l-3.02-2.1l-0.537-1.67
		l-1.294-0.054l-0.808-1.133l-1.885-0.056l-1.135-0.646l-1.562,0.481l-0.483-1.021l0.699-0.812l0.861-2.15l0.646,0.319l1.188-1.989
		l-1.872-0.73l0.418-1.1h2.908l1.185-1.454l8.938-3.069v-0.969H830l-0.323,1.346l-2.262,0.973l-0.322,0.97l-2.153,0.377
		l-0.594-0.861l-2.8,1.885l-0.121,1.522l-2.248,0.039v-2.423l1.292,0.054l3.02-2.047v-1.669l2.101-1.992v-3.716h1.076v2.962
		l0.94-0.942l0.137-10.097h6.516v-1.346h1.4v-1.023h1.292v-6.568l4.847,1.398v-21.271h4.521v-4.85l4.576,0.108l7.377,0.054v11.146
		l2.691,0.32l-0.216,1.562l0.754,0.808l0.646-0.646l0.914,1.613l-1.396,1.188h-1.188l-2.15,3.821l-1.454,0.539l-0.055,2.151
		l-1.134,0.861h-1.234l-2.046,1.614l-1.351,0.216v1.508h1.131v0.811l-0.97,0.482v1.831l1.131-0.056v2.151h-1.021l-0.216,3.557v2.312
		h1.611v2.321h-1.234v0.7h-1.238l-0.144,0.526h-2.93v1.031h3.23v2.692h4.631l-1.992,1.185l-1.131,0.162l-0.646,0.915l-0.271,0.97
		h4.361l0.808,0.595L855.417,496.412z"/>
	<path id="La_Verne" fill="#00FF00" stroke="#000000" d="M860.961,458.608l-0.215,1.559l0.754,0.808l0.646-0.646l0.914,1.615
		l-1.398,1.186h-1.186l-2.153,3.822l-1.454,0.539l-0.055,2.15l-1.131,0.861h-1.237l-2.046,1.615l-1.351,0.215v1.508h1.131v0.812
		l1.977,0.745l1.417,0.142l-2.637,0.17l-0.596,1.204v1.092h1.561l0.085,2.153l1.271,0.426l1.104-0.341l0.596,0.851l-0.766,1.393
		l-2.068,0.596l-0.426-0.454h-2.598v2.312h1.613v2.312h-1.236v0.7h-1.236l-0.146,0.529h-2.925v1.028l3.202,0.058l0.028,2.639h4.631
		l-1.992,1.185l-1.131,0.162l-0.646,0.915l-0.271,0.974h4.361l1.393,1.166l4.046,1.419l3.556-6.144l1.455,0.862l1.613,3.229
		l1.348-1.938l1.83,1.885l0.86-0.323l0.108-13.3l2.477,1.13l0.7-0.054v-2.854l-0.326-4.673h-4.393v-5.755h4.36l0.198-2.126h0.854
		l0.647-4.393l-1.021-0.538l-0.027-1.219l-1.219-0.061l-0.029-0.537l-1.104-0.172V460h-0.966l0.087-0.963l1.527-2.75h1.445v-5.129
		h-2.295v-4.76l-2.607-0.113v4.79h-4.363v4.789h-3.654v1.443L860.961,458.608z"/>
	<path id="Claremont" fill="#00FF00" stroke="#000000" d="M874.421,475.851l0.326,4.733l1.238-0.062v1.988h1.396v-0.319h1.562v1.073
		h0.754v0.646h1.235v-2.154h1.453l-0.037,7.862h2.406v5.546h2.047v7.27l9.327-0.016l17.569-56.093h-10.575v3.845h-0.567v1.445h7.881
		v0.708l-0.965,1.304h-9.211v-2.664h-6.855v-4.619h-4.764v4.766h-2.406v4.813l-0.794,0.198h-1.392v2.069h-4.533v15.503l0.966,1.161
		l-6.011,0.085L874.421,475.851z"/>
	<path id="Uninc_near_Claremont" fill="#00FF00" stroke="#000000" d="M753.696,461.136h-1.292v0.754h-1.023l-0.431,2.047h-3.396
		v4.85l-0.915,1.773l-1.074,4.9l1.67,0.107l1.131-2.804l3.442-0.432l0.812,0.862h1.508l2.585-2.585v-2.208h5.062v-2.315h6.408
		l1.076-1.292l1.725-0.323l6.842-7.377l0.158-0.857l-2.478-1.939l-1.831,0.916v-1.293h-2.369v-6.946h9.479l-0.376-18.196
		l-18.635-0.107v9.208h9.588v8.077l-0.861,1.076h-8.616l0.216,8.562l4.523,1.238l0.054,4.521L753.696,461.136z"/>
	<path id="Uninc_near_port" fill="#00FF00" stroke="#000000" d="M607.229,707.222l2.312,3.393l-4.686,2.208l1.186,3.343
		l-0.158,0.269l-1.615-0.646l-1.615,3.557l0.861,0.592l-0.377,1.938l1.723,4.093l-6.354,2.801l-1.727-0.055l0.699-1.076l0.105-1.67
		l-1.236-0.271l0.32-0.538l-0.755-1.562l-2.208,1.292l1.239,1.938l-0.271,2.531l0.646,0.056l1.454,3.878l-1.725,1.132l-1.35-3.984
		l-0.698-2.908l-1.132-1.773v-4.473l0.699-1.611l3.124-2.266h-2.101l2.262-1.885l3.339-3.339l1.454-2.102L607.229,707.222z"/>
</g>
<g id="Holes_in_Cities">
	<path id="Innerhole_Lancaster_W" fill="#00FF00" stroke="#000000" d="M598.831,92.511v7.323h2.692v7.162h2.746V92.457
		L598.831,92.511z"/>
	<path id="Borderhole_Lancaster_W" fill="#00FF00" stroke="#000000" d="M600.607,106.942v1.885h-5.979v0.861h-1.885l-0.433-0.431
		h-3.395v0.808l1.131,0.592v2.854h-2.639v1.023l2.423,0.27v1.454h-4.9v-8.239h-1.346v-1.185h-10.123v-4.9h4.523v-1.131l-0.485-0.323
		v-3.23h0.593v-9.262h5.009v2.154h0.916v1.346h-1.294v1.021h2.531v9.37h2.64v2.585h1.938v-7.162h-2.639V90.41h5.008v11.685h4.686
		v4.847H600.607L600.607,106.942z"/>
	<path id="Innerhole_Palmdale_W" fill="#00FF00" stroke="#000000" d="M660.58,167.674l0.17,4.081l0.312,1.559h-1.36v1.275
		l-1.53,1.048l-1.162-0.907l-0.964-0.028v-1.445h-2.976v-0.907l2.636-1.984v-0.793l1.021-0.907l-0.396-0.114l-1.021,0.794
		l-0.623-0.142l-0.793,0.396l-0.113-0.198l2.15-1.814l0.174-0.454h1.158l1.87-1.19l0.737,0.397l-1.87,1.332l0.938,1.304
		L660.58,167.674z"/>
	<path id="Innerhole_Palmdale_ctr_tiny" fill="none" stroke="#000000" d="M673.249,171.982l0.228,1.275l0.197-0.028l-0.197-1.275
		L673.249,171.982z"/>
	<path id="Innerhole_Palmdale_ctr" fill="#00FF00" stroke="#000000" d="M676.083,168.439l0.652,4.591h3.229v-4.875L676.083,168.439z
		"/>
	<path id="Innerhole_Palmdale_E_big" fill="#00FF00" stroke="#000000" d="M684.841,163.508v7.114h33.046l0.396,2.267h9.268
		l0.198,5.016h14.312v-9.354h23.522v-28.738h-9.381v-4.79h-42.938V146.9h-4.646v2.551h-5.812l-0.595,0.68v3.911h-0.851v6.49
		l-0.938-0.227v-0.652h-1.188l-1.871-1.36h-1.134l0.936,1.19v3.968L684.841,163.508z"/>
	<path id="Innerhole_Palmdale_E_tiny" fill="#00FF00" stroke="#000000" d="M696.432,154.297v2.466l1.105,0.482l0.312-0.596v-0.878
		h0.938v-1.19l-0.538-0.822L696.432,154.297z"/>
	<path id="Innerhole_port" fill="#FF0000" stroke="#000000" d="M572.383,720.496v2.521h7.086v-3.737h-0.936v-0.599h-1.021v0.514
		h-1.021v2.892l-1.36-0.114v-1.441L572.383,720.496z"/>
	<path id="Tinyhole_near_Marina_Del_Ray" fill="#FF0000" stroke="#000000" d="M515.785,563.401l1.531,2.353l1.587-0.992
		l-2.126-2.149L515.785,563.401z"/>
	<path id="Hole_Marina_Del_Ray" fill="#FF0000" stroke="#000000" d="M489.854,565.301l6.268,10.604l10.515-6.944l-4.899-5.328
		l-8.138-2.097L489.854,565.301z"/>
	<path id="Hole_Baldwin_Hills" fill="#FF0000" stroke="#000000" d="M534.803,568.305l1.417-0.733l2.777-0.113v-1.646l-1.445,0.027
		l-1.502-2.04l2.976,0.793v-0.851l0.684,0.341h4.705l5.158-0.17v-3.798h5.045l0.479,0.562h2.749v-5.239h2.895l0.195-1.138v-2.437
		l-2.381-4.082l-3.26,2.126h-2.606l-1.357-0.368l-1.615,0.255v0.822l-2.066,2.153v1.843l-0.768,0.51l-0.936-2.381l-0.113-1.644
		v-0.737l1.247-1.161v-2.069h-0.769l-1.697,0.737v0.963l-1.417,0.567l-1.332-1.134v-5.498h-3.032v2.21h-0.681l-0.541,0.502h-1.831
		l-3.661-0.538l-3.396,6.838l4.523,0.862l-0.539,2.584h-1.131v1.938l0.97,0.916l-2.152,1.727h3.067v-0.861l1.726-1.023l0.056,2.805
		l-3.852,7.045l1.118,0.312L534.803,568.305z"/>
	<path id="Hole_Veteran_x27_s_Administration" fill="#FF0000" stroke="#000000" d="M487.365,513.604l6.188,8.351l1.238-0.812
		l1.131,1.134l2.315-1.453l-0.699-1.777h0.431l-0.319-0.808l1.988-1.4l-5.111-7.104l-2.104,0.646l-0.377,0.271l2.315,2.963
		l-2.047,1.508l-1.35-1.562l-0.754-2.854l-1.885-1.776l-1.346,1.188L487.365,513.604z"/>
	<path id="Hole_Beverly_Crest" fill="#FF0000" stroke="#000000" d="M514.567,480.107v4.646h4.445v-2.126h-1.304v-1.445h-0.822
		v-0.623h-1.219v-0.709L514.567,480.107z"/>
	<path id="Hole_Compton-Paramount" fill="#FF0000" stroke="#000000" d="M633.486,625.837l4.021-0.51l-0.085-7.284l-1.729,0.057v1.36
		h-0.454v-1.502l1.049-0.028l-0.028-2.097l1.077-0.028v-0.511l-2.065-0.17v1.757h-0.539l-0.027-1.87l-2.692-0.227l0.028,1.049
		l0.936,0.028v0.708l-0.964,0.454l0.283,3.906l0.567,0.539l-0.029,1.7l0.511,0.17L633.486,625.837z"/>
	<path id="Hole_Rancho_Dominguez" fill="#FF0000" stroke="#000000" d="M629.717,630.372l-0.963-2.579v-1.814h1.812v1.275h0.879
		l-0.084-1.474h1.218v2.438h0.964v2.069L629.717,630.372z"/>
	<path id="Hole_S_Lakewood" fill="#00FF00" stroke="#000000" d="M681.596,663.032l-3.393,0.215v1.077h-1.562v2.312h3.284v-1.723
		h1.131v1.615h0.593L681.596,663.032z"/>
	<path id="Tinyhole_Vernon" fill="#FF0000" stroke="#000000" d="M627.762,547.448h1.715v1.179l-0.115,0.521l-1.536-0.238
		L627.762,547.448z"/>
	<path id="Tinyhole_San_Gabriel" fill="#FFFFFF" stroke="#000000" d="M693.442,487.11l-1.454,0.104l0.161,0.812l1.508-0.107
		L693.442,487.11z"/>
	<path id="Hole_Monrovia-Azusa" fill="#00FF00" stroke="#000000" d="M789.184,451.14v4.738h5.012v-4.361l-1.076-0.431
		L789.184,451.14z"/>
	<path id="Hole_Irwindale-Covina" fill="#00FF00" stroke="#000000" d="M798.984,489.103v2.266h-2.531v-2.479h-0.969v2.37h-0.646
		v2.153h-2.423v-2.262h-1.724v-1.992h1.235l0.646-0.915l4.358-0.216v1.185L798.984,489.103z"/>
	<path id="Hole_San_Dimas-La_Verne" fill="#FFFFFF" stroke="#000000" d="M834.793,451.247l-0.161,2.639l0.915-0.054l0.323-2.531
		L834.793,451.247z"/>
	<path id="Hole_Azusa-Glendora" fill="#00FF00" stroke="#000000" d="M800.707,464.171l2.479-0.7v-2.208H802v-1.131h-0.754v-1.615
		h2.477v1.562h-1.396v0.861h1.077l0.318-0.219v-0.431h0.377v0.215h1.077v-2.262l0.377-0.432l-0.104-0.914h-1.077v-1.351
		l-2.585,0.059l-0.215,1.346l1.185,0.161v1.021h-1.508l-0.539-0.592l-0.699,1.723l0.107,0.915h1.077l0.054,0.974h-1.131l0.7,1.131
		L800.707,464.171z"/>
	<path id="Hole_La_Verna-Claremont" fill="#00FF00" stroke="#000000" d="M897.654,461.146l1.559,1.356l1.646-3.429l0.17-1.758
		l-0.793-0.538l-0.967,1.077l0.256,0.988h-0.734v1.478l-1.021,0.227L897.654,461.146z"/>
	<path id="Hole_San_Dimas-Walnut" fill="#00FF00" stroke="#000000" d="M885.354,474.978h1.531l0.113-4.899h-5.839l-0.058,2.688
		h0.767v1.417l-0.567,0.396v0.369h2.721l0.029-1.786l-0.794-0.146v-1.158h1.162l0.964-0.651L885.354,474.978z"/>
</g>
</svg>
