<?xml version="1.0" encoding="utf-8"?>
<!-- Generator: Adobe Illustrator 16.0.0, SVG Export Plug-In . SVG Version: 6.00 Build 0)  -->
<!DOCTYPE svg PUBLIC "-//W3C//DTD SVG 1.1//EN" "http://www.w3.org/Graphics/SVG/1.1/DTD/svg11.dtd">
<svg version="1.1"
	 id="svg19965" xmlns:dc="http://purl.org/dc/elements/1.1/" xmlns:cc="http://web.resource.org/cc/" xmlns:rdf="http://www.w3.org/1999/02/22-rdf-syntax-ns#" xmlns:svg="http://www.w3.org/2000/svg" xmlns:sodipodi="http://sodipodi.sourceforge.net/DTD/sodipodi-0.dtd" xmlns:inkscape="http://www.inkscape.org/namespaces/inkscape" sodipodi:docbase="C:\Files\wikibot" inkscape:output_extension="org.inkscape.output.svg.inkscape" sodipodi:docname="outputmap.svg" inkscape:version="0.45" sodipodi:version="0.32"
	 xmlns="http://www.w3.org/2000/svg" xmlns:xlink="http://www.w3.org/1999/xlink" x="0px" y="0px" width="2333.303px"
	 height="587.635px" viewBox="29.587 26.949 2333.303 587.635" enable-background="new 29.587 26.949 2333.303 587.635"
	 xml:space="preserve">
<g id="Expanded_Riverside">
	
		<sodipodi:namedview  width="2400px" height="1700px" inkscape:cy="850" inkscape:cx="1200" inkscape:zoom="0.22235294" pagecolor="#ffffff" bordercolor="#666666" borderopacity="1.0" gridtolerance="10.0" guidetolerance="10.0" objecttolerance="10.0" id="base" inkscape:current-layer="svg19965" inkscape:window-y="44" inkscape:window-x="44" inkscape:pageopacity="0.0" inkscape:pageshadow="2" inkscape:window-width="748" inkscape:window-height="579">
		</sodipodi:namedview>
	<path id="_x30_65" fill="#FFFFFF" stroke="#000000" stroke-width="3" d="M2327.482,28.984l18.5-0.3l0,0h3.8l10.6-0.2l0,0l-1.5,6.9
		l-1,12.4v3.6l0.7,3.1l2.3,6.7l0.5,4.2l-0.8,8.5l-1.4,4.9l-1.6,2.9l-2.3,2.8l-4.5,3.3l-3.3,1.4l-2.9,0.2l-1.6,0.7l-1.2,1.5l-0.2,1.5
		l0.3,1.9l1,2.6l0.8,2l0.101,2.3l-0.601,1.7l-0.899,0.8l-2.7,0.3l-1.2,0.6l-2.3,4.3l-3.3,3.2l-4,2.9l-0.601,0.9l-0.5,2.2l-1.199,1.9
		l-7.2,7.8l-3.4,4.5l-6.7,3.9l-0.199,0.2l-1.2,0.2l-3.3-0.9l-4.4,2.3l-0.3,0.3l-4.4,6.6l-4.2,10.5l-0.5,1.2v0.4l0.4,5l1,2.1l3.8,2
		l2.2,1.2l0.3,0.3l3.3,2.6l1.5,1.2l1.101,1.2l3.899,4.4l1.601,3.1l0.6,1.2l0.2,0.7l0.2,0.9l0.1,0.5v0.3v1.4l-0.5,1l-0.399,0.4
		l-0.801,0.7l-0.399,0.3l-1.9,1.1l-1.899,1.5l-1,1.2l-0.7,1.5l-0.101,1.3l0.301,1.7l0.5,1.4l0.6,1.2l0.4,0.8l3,2.6l5.899,5.2
		l0.7,1.6l0.4,6.2l-0.101,0.2l-0.5,1.8l-1.3,1.3l-0.1,0.1l-3.301,2.6l-3,2.3l-0.399,0.2l-0.601,0.2l-0.5,0.1l-5.6-0.2l-1.6,1l-1,1.9
		l-0.101,0.3l-0.7,2.8l-0.1,3.2l3.1,8.3l1.601,2.8l2.2,6.6l0.399,2.1l-0.5,3l-1.399,2.7l-3.2,2.5l-0.601,1.1l6,13.5l2.5,9.7
		l7.301,17.9v0.2l1.699,6.3l0.4,3.6v4.7l-1,4.1l-1.6,4.2l-2.5,5.9l-0.301,0.7l1.5,1.8l2.5,1.4l1.9,2.1l1.2,3l1.399,2.1l3.101,2.6
		l1.2,4.2l0.6,5.7l-0.9,8.3l-0.6,1.4l-6,3.5l-3.5,1.1l-1.9,0.5l-4.8,2.6l-3.399,2.3l-2.7,2.8l-1.8,3.1l-0.5,2.1l0,0l-0.301,1.5
		l0.101,0.7l0.3,2.9l1,2.6l1,1.8l1,1.5h0.1l0.7,1.2l0.101,0.3l0.399,0.899l0.2,1.7l-0.1,1.3l-0.4,0.9l-0.8,1.4l-0.101,0.1
		l-0.899,2.1l-1.3,2.601l0.1,2.2l0.8,3l0.3,0.8v0.1l0.601,1.5l0.5,2.3l0.2,1.101l0.1,3.899l-1.1,2.601l-0.2,0.6l-0.7,1.8l0.2,4.101
		l1.3,3.5l1.6,1.899l0.801,2l-0.101,2.601l-1.399,2.2l-1.7,2l-0.7,1.199l-0.4,0.601l-6.899,11.7l0.2,5.3l0.199,4.2l3.301,10l0,0
		l0.199,0.3l0,0l6.5,9.9l1.9,3.3l-0.2,1.2l-12.399,8.8l-12.101,9.6l-0.399,0.9l-0.9,5.7l0.3,5.3l-0.2,1.3l-6.1,6.8l-3.1,1.5
		l-4.801,1l-5.6,3.601l-0.2,0.199l-2.1,2.5l-4,7.801l-1,3.399l-0.7,2.2l-1.4,2.6l-4.399,5.801l-3.2,3.6l-7.4,12.6l-0.3,1.801
		l0.9,6.1l-3.3,12.4l0,0h-1.2l0,0h-0.9l0,0l-19,0.199l0,0l-7.899,0.101l0,0l-17.301,0.2l0,0h-0.399l0,0l-13,0.3l0,0h-1.101l0,0
		l-4.8,0.1l-11.3,0.101l0,0h-0.6h-0.9l0,0l-22.4,0.199l-46.6,0.7l0.1,3.2l-52.3,0.6l-19.3,0.4l0,0l-4.5,0.1l0,0l-10.1,0.2l0,0h-0.5
		l0,0l-36.301,0.7l-33.1,1.2l0,0l-6.5,0.1l0,0l-5.5,0.4l-26.6,0.1l-18.7-0.5l-14.5,0.3l0,0l-16.3,0.2l0,0l-39.601,0.7l0,0l-0.3-0.1
		l0,0l-12.8,0.1l0,0l-10.9,0.4l0,0l-150.6,0.899l-2.101,1.3l-43.3,0.301l0,0l-108.5,0.1l0,0h-4l0,0l-2.2,0.2l0,0l-4.6,0.1l0,0h-3
		l0,0l-2.4,0.101l0,0l-100.6,0.3l-45.7,0.6h-54.5h-15.2l-12.5,0.101l-7.8,0.1h-4.399h-2.101l0,0l-4.3,0.1l0,0h-1.9h-3.1l0,0
		l-1.4,0.101l-6.699,0.1l0,0h-1.2h-4.7h-7.9h-4.8l0,0h-19.8l-12.5-0.1l-49-2.5l-74.5,0.8l-167.5,0.1l-61.9-0.699h-3.699l-42.9-0.2
		l-100.7-0.4l0,0l-10.8-0.1l0,0h-0.3l-16.601,0.1l-17.399-0.5l0,0l-8.4-0.1l0,0l-30.6-0.601l0,0l-32.101-0.6l0,0l-14.3,0.5l-21-0.2
		v-2.8h-0.399l-15.101-0.2l0,0l-14.399-0.2l0,0l-5.4-0.1l0,0h-2.3l-4.4-0.1l0,0l-7-0.301l0,0l-13.3-0.699l0,0h-0.4l0,0
		l-12.699-1.101l0,0l-2.301-0.2l0,0l-2.8-0.1l0,0h-0.2l0,0h-0.1l0,0l-0.3-0.1l0,0h-0.3h-0.101l0,0h-0.5l0,0l-31.7,0.1h-2.699l0,0
		l-2.5-0.1l0,0h-3.4l0,0l-18.1-0.101l0,0h-1.2l0,0l-0.8-0.1l0,0h-8.2l0,0h-1.7l0.1-11.4l0,0l-0.1-3.5l-6.4-2.6l-14.3-5.9l0,0
		l-8.899-3.6l0,0l-0.9-0.4l-57-23.3l-5.3-2.2l4.899-12.5l-82.3-1.2l0,0h-3.3l0,0l-15.101-0.199l0,0l-4.399-0.101l0,0v-3.6l4.3,0.2
		l0.4-5.9l0,0l0,0l0,0l0.199-4.1l-4.5-0.301l0,0v0.101l0,0h-0.3l-0.1-11.9l6.7-10.3l3.3-5.9l28.5-42.899l33.3-49.7l-7.9-7.1
		l-25.399-22.1l-10.5-10.8l-16.2-1.7l-26.6-4.7v-1.7l-0.5-20.9l-0.601-19l-23.399-6.5l-7.9-3.1l-2.4-3.8l-17-22.7l-20.899-29.3
		l-11.2-15.3l0,0l-0.5-0.8l0,0l-5.7-7.7l0,0l-8.7-0.6l-0.199-4.3l-0.2-4.6l1.8-1.2l0,0l-0.3-0.6l-0.101-0.1l-0.5-0.5l0,0l1.5-3.5
		l0,0l-0.899-0.7l3-4.6l-0.7-2l-1-1.2l-3.4-3.8l15.4,0.2l0.1-14.9l0,0l0.101-17l21.2,0.4l0,0l10.699,0.1l0,0l0.601-20.7l0,0v-0.7
		l0,0v-2.5l0,0l0.1-1.4l0,0v-0.1l0,0l0.101-5.3l0,0l0.3-10.1l0,0l2.8-1.1l0,0l0.1-0.1l0,0l3.301-1.3l0,0l0.899-0.4l0,0l0.7-0.3
		l4.6-1.6l0,0l12.601-4.9l0,0l12.8-4.6l0,0v-7.4l0.2-19.4l0,0l0.1-2.5l0,0v-1.8l0.101-8.6l0,0h5.1l0,0h0.5l0,0l6.3,0.1l0,0l12.4,0.4
		l0,0l0.3-0.1l0,0l12.3,0.4l5.8-0.1l0,0l5,0.1h2.601l0,0l5,0.1l7.2,0.1l0,0h4.1l23.8,0.1l0,0l11.5-0.1h1.4l0,0l2.6,0.1l0,0l6.8,0.3
		l0,0h0.2l0,0l5.4,0.1l0,0h2l0,0h3.8l0,0h1.5l5.8,0.2l0,0l-0.3,12.8l0,0h5.1l0,0l0.5,0.1h0.101l0,0h0.8l0,0h0.8l0,0l2-0.1l0,0h0.101
		l0,0l2.3,0.1l6.899,0.1l0,0l0.101,0.5l0,0l0.7,0.5l0,0l0.5-0.9l0,0h0.3l0,0h5.399l0,0h0.101l0,0h0.3l0.4,0.1l0,0h1.6h2.2l0,0h0.8
		l0,0h0.8l0,0h0.4l0,0l5.899,0.2l0.9-0.1l0,0l4.2,0.2l0,0l1.1-0.1l0,0h3.601h2.1l0,0l6.8,0.2l7.101,0.3l0,0l1.399,0.1l2.4,0.1l0,0
		l4.2,0.2l0,0h0.2l0,0l1.1,0.1l0,0h1.9l0,0h0.1l0,0h0.1l0,0l19.2,0.3l0,0l13.2,0.1l0,0l-0.2,12.7l9.4,0.2l0,0l31.6,0.4l5-0.1l0,0
		l13.7,0.3l0,0l12.5,0.4h1.9l12.5,0.1l27.699,0.3l0.9-0.1l0,0l4.1-0.3l0,0l3.7-0.1l0,0h4.8l6.2-0.3l0,0l9.4,0.1l3.2,0.2l0,0
		l5.399,0.1l0,0l8.9,0.6l4.899-0.2h0.9l14.1-0.1l7.4,0.1h0.9l11.3,0.1h6.1l0,0h3.101h2.399h0.4l0.3-25.6l0,0l16.8,0.1l8.3,0.2
		l12.7,0.1l26.8,0.4l59.2,0.3l0,0l26.8,0.3l0,0l2.4,0.1l72.3,0.9l1.7,0.4l7.1,0.3h9.2h56.2l38.9,0.2l112.899,0.7l0.101-1.6
		l52.399,0.1l22.7,0.7l107.5-0.5l17.6-0.1h14.801l0,0l0.1-0.1l0,0l12.2,0.1l16.2-0.7l156.399-0.5l0,0l23.101-0.1l0,0h11.199l0,0
		l21-0.1l0,0l118.801-0.5l132.5,0.1l-0.2-33.9v-4.6l88.7-0.6v-1.5l47.699-0.8l105.5-1l0,0l83.301-1l0,0l7.6-0.1l13.5-0.1l0,0
		l28.6-0.4l0,0l41.2-0.2l0,0h0.4l0,0L2327.482,28.984z"/>
	<path id="_x33_6203" fill="none" stroke="#000000" d="M719.882,299.184l0.7-0.3l0,0l0.1,7.8l0,0l2.101,2.8h0.2v2.8l2.899,0.1v3.1
		h-2.8v3.2l6-0.1l0.1-3.1h2.9v-9.2l0,0l0.6-1.2l11.5,0.2h0.4v25.6l0,0l-1.1,2.5l-2.2,1.9l-2.5,1.3l-1.4-0.2l-0.3,3.4l0,0l-2.4-0.7
		l0,0l-1,3.4l-0.8,1l-1.399,1.2l-3,1.6l-1.101,1.3l-0.8,0.6l0,0l-7,6.8l0,0l-1.1-1l-2.801-0.1l0.601-3.9l2-4.1l1.1-0.1l0,0l-2.1-0.7
		l0,0l-1.5,2.8l-2.5,3.1l-2.5,1.3l-1.4,1.8l-0.3,2l-1.1,1.8l-7.5,7.9l-3.301-1.4l0,0l-3.6-0.1l0,0l-0.5-0.5l-6.4-2.2l-2.1,0.4
		l-0.7-1.5l0,0l4.5-5.5l2.2-7.4l3.9-1.8l2.199-0.6l1.301,0.6l3.199-1.3l1.301-2.2l1.8-0.1l0,0l-3.2,0.2l0,0l-0.8-0.1l0,0l-2.101-2
		l-0.8,0.1l0,0l-0.899,0.1l0,0l-1.4-3.3l-2.2,0.3l-1.899-1.1l0,0l-1.101-4.6l2-7.7l2.2-2.8l2-0.7l1.4-1.3l0,0v-0.7l0.699-0.7
		l3.4-0.8l0.6-1.3l0,0l2-1.6l0,0l2.5-0.6l0,0l-1.6-1.2l-0.4-2v-2.2l1.101-2.9l2.3-1.8l0,0l3.4,0.4l5-2.4L719.882,299.184z"/>
	<path id="_x38_6244" fill="none" stroke="#000000" d="M281.082,176.284l0.2,0.5l0,0l-0.2,10.9l0,0l-1.101-0.1l0,0l0.2-3.6
		l-1.899-1.8l-3.301,0.1l0,0l-0.1,6.4l0,0l6.2,0.2l0,0l-0.101,12.8l-0.1,0.9l0,0l-3.1-0.8l0,0l-3-0.1l0,0l-0.101,1.3h1.601l1.3,1.1
		v2.2l3.2,0.1l0,0l-0.101,1.6l0,0l0.101,3.1l0,0l-5.2,0.1l0,0l-1.101,1.2l0,0l-0.1,14.8l0,0l-27.5-0.2l0,0l-1.8-4.1l-0.7-1.9l-2-2.7
		l-3.9-4.1l-6.6-4.5l-3.6-5.5l0,0l-1.7-1.9l-2-0.5l-0.7-0.9l0,0l17.6,0.5l0,0h1.2l0,0v-0.9l0,0l0.9-12.2l0,0h1.3l0,0l5.1,0.1l0,0h6
		l12.5,0.2l0,0l0.2-12.4L281.082,176.284z"/>
	<path id="_x34_5680" fill="none" stroke="#000000" d="M311.582,163.084h0.2l0,0l0.899,2.6l0,0l1.2,3.8l2.2,6.6l0.7,2l0,0l1,3.7l0,0
		h1.3l0,0l-0.2,0.4l0,0l12.5,0.1l6.5,0.2l0,0l6.4,0.1l0,0v3.1v3.1v3.7l-0.2,9l-0.1,4.9l0,0l-0.101,0.6l0,0v0.4l0,0l-0.2,13.2
		l0.101,6v0.3l0,0v0.2l0,0l-0.601,0.2l0,0h-3.1l0,0l-2.8-5.4l0,0l-0.101-1.2l0,0l-1.399-3.1l-5.4-0.1l0,0l0.5,2.3l0,0v0.7l0,0
		l0.101,0.3l0,0h-0.4l0,0l-6.6-19.4l0,0l-6.2,0.1l-8,2.6l0,0l2.399-3.6l-0.399-10.9l-1.7-3.8v-3.6l0,0h4.4l0,0l0.3-0.7l0,0l2.3,0.4
		l0,0h0.1l0,0l-0.199-0.6l0,0l-5-5.3l0,0l3.199,0.1l0,0l-3.6-11.2l-0.1-0.3l0,0l-0.601-1.5l0,0H311.582z"/>
	<path id="_x38_5894" fill="none" stroke="#000000" d="M481.782,329.884l7.899,0.1l0,0l-4.1,13l0,0l-3.9-0.1l0,0l-0.199,25.5l0,0
		l-18.801-0.1l-26.899-0.1h-4.4l0,0v-6.5l0.101-6.1l0,0l18.1-0.1l0,0l3.5,1.5l0,0v-1.5l0,0h3.3l0,0l0.101,1.6l0,0h0.6l0,0l2.6-1.1
		l2.9-2.4l0.2-4.5l0,0h1.6l0,0l0.101-6.5l0,0h0.6l0,0l-0.4-6l0,0l1.301-0.3l0,0l-0.101-1.4l0,0l3.3-0.7l0,0v-1.2l0,0l3-1.9l0,0
		l1.9-1.1L481.782,329.884z"/>
	<path id="_x31_2916" fill="none" stroke="#000000" d="M539.181,101.084l7.4,0.1h0.9l0,0l11.3,0.1l0,0l-0.5,2l-0.7,1.1l-4.2,5.5
		l-0.6,2.1l-0.2,6l0,0h0.3l0,0l0.3-0.5l0.4,1.1l0,0l1.6-0.2l0,0l3.5-2.4l0,0h3.4l-0.2,1.3l0.9,1.2l0,0l-1.4,1.6l0,0l-2.3,2l0,0
		l-1.9,3.4l0,0l3.101,2.1l0.6,1.2l1.4,4.6l0,0l2.1-0.5l0,0l-0.1,6.4l-3-0.1v1.6h-3.2l0,0v1.7l0,0l-3.4-0.1l0,0l0.101-1.6l0,0l-1-0.1
		l0,0l0.1-1.3l0,0v-0.2l0,0l-8.399-0.1l0,0l-0.101,6.4l0,0h-1l0,0l-0.6-0.8l0,0l0.1-1.5l0,0l-1.8-4.1l0,0h-6l0,0h-0.9h-7l0,0
		l-8.399-0.1l0,0l-0.601,0.5l0,0l0.2-10.1l0,0h1.5l0,0l0.101-3.1l0,0l1.699-0.1l0,0l-1.6-4.1l0,0l0.1-0.1l0,0l0.9-1.7l4.3-4.7
		l0.9-2.1l0,0l0.2-6.8l0,0l5.1-0.9l1.5-0.5l0.9-1.2l0,0L539.181,101.084z"/>
	<path id="_x35_2624" fill="none" stroke="#000000" d="M448.582,260.984l2,1.7l0,0l1.4,0.8l0,0l-3.7,6.5l-1.4,2.5l0,0l-6.6-0.3l0,0
		l-0.101,1.1l0,0h-2l0,0l-0.1,0.9l0,0l-1.5,0.5l0,0l-2.1,1.4l0,0v3.6v1.1l0,0h-0.2l-5.5-0.8l-3.5-1.1l-6.7-0.1l0,0l-0.2,2.9l0,0
		l-0.6,0.5l0,0l-2.4-0.3l0,0l-0.1,3.1l0,0l2.5,0.1l0,0v1.5l0,0l-2.3,4.7l0,0h-3.601l-12.3-0.1l0,0l0.1-12.6l0,0l-1.5-0.1l0,0
		l13.4-19.9l0,0l14.8,7l2.8,1.3l0,0l1.301-2.6l0,0h0.399l0,0h2.2l0,0l7,0.1h2l0,0h4.1l0,0L448.582,260.984z"/>
	<path id="Riverside_County_Boundary" fill="#F06BA8" stroke="#000000" stroke-width="3" d="M2327.482,28.984l18.5-0.3l0,0h3.8
		l10.6-0.2l0,0l-1.5,6.9l-1,12.4v3.6l0.7,3.1l2.3,6.7l0.5,4.2l-0.8,8.5l-1.4,4.9l-1.6,2.9l-2.3,2.8l-4.5,3.3l-3.3,1.4l-2.9,0.2
		l-1.6,0.7l-1.2,1.5l-0.2,1.5l0.3,1.9l1,2.6l0.8,2l0.101,2.3l-0.601,1.7l-0.899,0.8l-2.7,0.3l-1.2,0.6l-2.3,4.3l-3.3,3.2l-4,2.9
		l-0.601,0.9l-0.5,2.2l-1.199,1.9l-7.2,7.8l-3.4,4.5l-6.7,3.9l-0.199,0.2l-1.2,0.2l-3.3-0.9l-4.4,2.3l-0.3,0.3l-4.4,6.6l-4.2,10.5
		l-0.5,1.2v0.4l0.4,5l1,2.1l3.8,2l2.2,1.2l0.3,0.3l3.3,2.6l1.5,1.2l1.101,1.2l3.899,4.4l1.601,3.1l0.6,1.2l0.2,0.7l0.2,0.9l0.1,0.5
		v0.3v1.4l-0.5,1l-0.399,0.4l-0.801,0.7l-0.399,0.3l-1.9,1.1l-1.899,1.5l-1,1.2l-0.7,1.5l-0.101,1.3l0.301,1.7l0.5,1.4l0.6,1.2
		l0.4,0.8l3,2.6l5.899,5.2l0.7,1.6l0.4,6.2l-0.101,0.2l-0.5,1.8l-1.3,1.3l-0.1,0.1l-3.301,2.6l-3,2.3l-0.399,0.2l-0.601,0.2
		l-0.5,0.1l-5.6-0.2l-1.6,1l-1,1.9l-0.101,0.3l-0.7,2.8l-0.1,3.2l3.1,8.3l1.601,2.8l2.2,6.6l0.399,2.1l-0.5,3l-1.399,2.7l-3.2,2.5
		l-0.601,1.1l6,13.5l2.5,9.7l7.301,17.9v0.2l1.699,6.3l0.4,3.6v4.7l-1,4.1l-1.6,4.2l-2.5,5.9l-0.301,0.7l1.5,1.8l2.5,1.4l1.9,2.1
		l1.2,3l1.399,2.1l3.101,2.6l1.2,4.2l0.6,5.7l-0.9,8.3l-0.6,1.4l-6,3.5l-3.5,1.1l-1.9,0.5l-4.8,2.6l-3.399,2.3l-2.7,2.8l-1.8,3.1
		l-0.5,2.1l0,0l-0.301,1.5l0.101,0.7l0.3,2.9l1,2.6l1,1.8l1,1.5h0.1l0.7,1.2l0.101,0.3l0.399,0.899l0.2,1.7l-0.1,1.3l-0.4,0.9
		l-0.8,1.4l-0.101,0.1l-0.899,2.1l-1.3,2.601l0.1,2.2l0.8,3l0.3,0.8v0.1l0.601,1.5l0.5,2.3l0.2,1.101l0.1,3.899l-1.1,2.601l-0.2,0.6
		l-0.7,1.8l0.2,4.101l1.3,3.5l1.6,1.899l0.801,2l-0.101,2.601l-1.399,2.2l-1.7,2l-0.7,1.199l-0.4,0.601l-6.899,11.7l0.2,5.3
		l0.199,4.2l3.301,10l0,0l0.199,0.3l0,0l6.5,9.9l1.9,3.3l-0.2,1.2l-12.399,8.8l-12.101,9.6l-0.399,0.9l-0.9,5.7l0.3,5.3l-0.2,1.3
		l-6.1,6.8l-3.1,1.5l-4.801,1l-5.6,3.601l-0.2,0.199l-2.1,2.5l-4,7.801l-1,3.399l-0.7,2.2l-1.4,2.6l-4.399,5.801l-3.2,3.6l-7.4,12.6
		l-0.3,1.801l0.9,6.1l-3.3,12.4l0,0h-1.2l0,0h-0.9l0,0l-19,0.199l0,0l-7.899,0.101l0,0l-17.301,0.2l0,0h-0.399l0,0l-13,0.3l0,0
		h-1.101l0,0l-4.8,0.1l-11.3,0.101l0,0h-0.6h-0.9l0,0l-22.4,0.199l-46.6,0.7l0.1,3.2l-52.3,0.6l-19.3,0.4l0,0l-4.5,0.1l0,0
		l-10.1,0.2l0,0h-0.5l0,0l-36.301,0.7l-33.1,1.2l0,0l-6.5,0.1l0,0l-5.5,0.4l-26.6,0.1l-18.7-0.5l-14.5,0.3l0,0l-16.3,0.2l0,0
		l-39.601,0.7l0,0l-0.3-0.1l0,0l-12.8,0.1l0,0l-10.9,0.4l0,0l-150.6,0.899l-2.101,1.3l-43.3,0.301l0,0l-108.5,0.1l0,0h-4l0,0
		l-2.2,0.2l0,0l-4.6,0.1l0,0h-3l0,0l-2.4,0.101l0,0l-100.6,0.3l-45.7,0.6h-54.5h-15.2l-12.5,0.101l-7.8,0.1h-4.399h-2.101l0,0
		l-4.3,0.1l0,0h-1.9h-3.1l0,0l-1.4,0.101l-6.699,0.1l0,0h-1.2h-4.7h-7.9h-4.8l0,0h-19.8l-12.5-0.1l-49-2.5l-74.5,0.8l-167.5,0.1
		l-61.9-0.699h-3.699l-42.9-0.2l-100.7-0.4l0,0l-10.8-0.1l0,0h-0.3l-16.601,0.1l-17.399-0.5l0,0l-8.4-0.1l0,0l-30.6-0.601l0,0
		l-32.101-0.6l0,0l-14.3,0.5l-21-0.2v-2.8h-0.399l-15.101-0.2l0,0l-14.399-0.2l0,0l-5.4-0.1l0,0h-2.3l-4.4-0.1l0,0l-7-0.301l0,0
		l-13.3-0.699l0,0h-0.4l0,0l-12.699-1.101l0,0l-2.301-0.2l0,0l-2.8-0.1l0,0h-0.2l0,0h-0.1l0,0l-0.3-0.1l0,0h-0.3h-0.101l0,0h-0.5
		l0,0l-31.7,0.1h-2.699l0,0l-2.5-0.1l0,0h-3.4l0,0l-18.1-0.101l0,0h-1.2l0,0l-0.8-0.1l0,0h-8.2l0,0h-1.7l0.1-11.4l0,0l-0.1-3.5
		l-6.4-2.6l-14.3-5.9l0,0l-8.899-3.6l0,0l-0.9-0.4l-57-23.3l-5.3-2.2l4.899-12.5l-82.3-1.2l0,0h-3.3l0,0l-15.101-0.199l0,0
		l-4.399-0.101l0,0v-3.6l4.3,0.2l0.4-5.9l0,0l0,0l0,0l0.199-4.1l-4.5-0.301l0,0v0.101l0,0h-0.3l-0.1-11.9l6.7-10.3l3.3-5.9
		l28.5-42.899l33.3-49.7l-7.9-7.1l-25.399-22.1l-10.5-10.8l-16.2-1.7l-26.6-4.7v-1.7l-0.5-20.9l-0.601-19l-23.399-6.5l-7.9-3.1
		l-2.4-3.8l-17-22.7l-20.899-29.3l-11.2-15.3l0,0l-0.5-0.8l0,0l-5.7-7.7l0,0l-8.7-0.6l-0.199-4.3l-0.2-4.6l1.8-1.2l0,0l-0.3-0.6
		l-0.101-0.1l-0.5-0.5l0,0l1.5-3.5l0,0l-0.899-0.7l3-4.6l-0.7-2l-1-1.2l-3.4-3.8l15.4,0.2l0.1-14.9l0,0l0.101-17l21.2,0.4l0,0
		l10.699,0.1l0,0l0.601-20.7l0,0v-0.7l0,0v-2.5l0,0l0.1-1.4l0,0v-0.1l0,0l0.101-5.3l0,0l0.3-10.1l0,0l2.8-1.1l0,0l0.1-0.1l0,0
		l3.301-1.3l0,0l0.899-0.4l0,0l0.7-0.3l4.6-1.6l0,0l12.601-4.9l0,0l12.8-4.6l0,0v-7.4l0.2-19.4l0,0l0.1-2.5l0,0v-1.8l0.101-8.6l0,0
		h5.1l0,0h0.5l0,0l6.3,0.1l0,0l12.4,0.4l0,0l0.3-0.1l0,0l12.3,0.4l5.8-0.1l0,0l5,0.1h2.601l0,0l5,0.1l7.2,0.1l0,0h4.1l23.8,0.1l0,0
		l11.5-0.1h1.4l0,0l2.6,0.1l0,0l6.8,0.3l0,0h0.2l0,0l5.4,0.1l0,0h2l0,0h3.8l0,0h1.5l5.8,0.2l0,0l-0.3,12.8l0,0h5.1l0,0l0.5,0.1
		h0.101l0,0h0.8l0,0h0.8l0,0l2-0.1l0,0h0.101l0,0l2.3,0.1l6.899,0.1l0,0l0.101,0.5l0,0l0.7,0.5l0,0l0.5-0.9l0,0h0.3l0,0h5.399l0,0
		h0.101l0,0h0.3l0.4,0.1l0,0h1.6h2.2l0,0h0.8l0,0h0.8l0,0h0.4l0,0l5.899,0.2l0.9-0.1l0,0l4.2,0.2l0,0l1.1-0.1l0,0h3.601h2.1l0,0
		l6.8,0.2l7.101,0.3l0,0l1.399,0.1l2.4,0.1l0,0l4.2,0.2l0,0h0.2l0,0l1.1,0.1l0,0h1.9l0,0h0.1l0,0h0.1l0,0l19.2,0.3l0,0l13.2,0.1l0,0
		l-0.2,12.7l9.4,0.2l0,0l31.6,0.4l5-0.1l0,0l13.7,0.3l0,0l12.5,0.4h1.9l12.5,0.1l27.699,0.3l0.9-0.1l0,0l4.1-0.3l0,0l3.7-0.1l0,0
		h4.8l6.2-0.3l0,0l9.4,0.1l3.2,0.2l0,0l5.399,0.1l0,0l8.9,0.6l4.899-0.2h0.9l14.1-0.1l7.4,0.1h0.9l11.3,0.1h6.1l0,0h3.101h2.399h0.4
		l0.3-25.6l0,0l16.8,0.1l8.3,0.2l12.7,0.1l26.8,0.4l59.2,0.3l0,0l26.8,0.3l0,0l2.4,0.1l72.3,0.9l1.7,0.4l7.1,0.3h9.2h56.2l38.9,0.2
		l112.899,0.7l0.101-1.6l52.399,0.1l22.7,0.7l107.5-0.5l17.6-0.1h14.801l0,0l0.1-0.1l0,0l12.2,0.1l16.2-0.7l156.399-0.5l0,0
		l23.101-0.1l0,0h11.199l0,0l21-0.1l0,0l118.801-0.5l132.5,0.1l-0.2-33.9v-4.6l88.7-0.6v-1.5l47.699-0.8l105.5-1l0,0l83.301-1l0,0
		l7.6-0.1l13.5-0.1l0,0l28.6-0.4l0,0l41.2-0.2l0,0h0.4l0,0L2327.482,28.984z"/>
	<path id="_x33_9598" fill="none" stroke="#000000" d="M249.981,405.284l-1.699-1.3l0,0l2-2.601l2.8,4.101l2.3,1.899l19.3,13.8
		l2.2-3.1l2.3,1.7l-3.8,5.2l0,0l0.6,0.5l0,0l3.801-5.2l2.3,1.7l7,5.399l0,0l0.3,0.2l0,0l-1.3,1.9l0,0l-2.5,3.399l-1,1.3l0,0
		l-6.601-5l0,0l-2.8-2l0,0l-0.6,0.101l0,0l0,0l0,0l-0.101,0.399l0,0l-2-0.1l0,0l-0.199-0.3l0,0l-1.301-1.4l0,0l-0.199,0.3l0,0
		l-0.801-0.6l-0.3-0.3l0,0l-1.8-1.4l0,0h-4.6l0,0l-0.801,2.7l0,0v0.4l0,0l-0.8,0.399l0,0l-0.5,0.7l0,0l-2-1l0,0l-1,0.1l0,0l-2.5-2.6
		l0,0l2.2-1.7l0,0l-0.1-0.3l0,0l2.1-1.3l-0.1-1.8l0,0l0.199-1.801l0,0v-0.1l0,0h-0.6l0,0l-3.2-4.9l0,0l-0.7,0.801l0,0l-0.899-0.2
		l0,0l-0.8,0.5l0,0l-0.7-0.3l0,0h-0.3l0,0l-2-0.2l0,0l-0.301-0.8l-5.399-1.2l-1.7-4.5l0,0v-0.2l0,0l1.7-2.5l0,0l1.8,5.8l0,0l0.8-1
		l0,0L249.981,405.284z"/>
	<path id="_x35_6350" fill="#8CCCF0" stroke="#000000" d="M191.382,97.784v3.6l0,0l0.4,2.1l0,0l2.3,12.8l0,0h0.5l0,0l1.2,3.8l0,0
		l0.399,1.4l0,0l0.3,1.1l0,0l-0.1,0.2l0,0l1.6,6l0,0l-4,1.3l0,0v-1.1l-4.8,2.4l-0.899,1.7l-3,0.8l0,0l-0.301-1.9l0,0l-3.399,1
		l-1.7-1.4l-2.9,0.4h-0.3l-1.8-1.6l-3.1-1.9l-5.7-1l-0.5,0.9l-0.2,0.7l-3.7,0.2l-0.399-0.8l-2.101-2.5l-0.399-0.2l-1.4-0.2l-0.6-0.6
		l0,0l-0.101-2.8l0,0l8-0.1l0,0l0.101-4.7l0,0h1.5l5-2.8l1-1.8l2.699-2.2l0,0l-3.399-7.3l0,0l7.3-2L191.382,97.784z"/>
	<path id="_x30_9360" fill="none" stroke="#000000" d="M658.681,175.484l2.7,1.5l2.101,0.6l7.399,0.2h12.4l12.5-1.8l0,0v1.3l0,0
		l-0.101,1.4v4.1v0.3l-0.1,7.8v0.2v0.4l0,0h0.7l0,0h1.5l0,0h0.7l0,0l0.899,0.1l0,0l8.7,0.1l0,0v2.2l0,0l-0.3,0.2l0,0h-3.101l0,0
		l-3.5,2.8l0,0v0.8l0,0l-5.6-0.2l0,0l0.1,0.7l0,0l-6.3,0.2l0,0l-0.1-2.5l0,0v-2l0,0l-4.4-1.3l-1.5-1.2h-17.3l0,0l-0.1,0.4l0,0
		l-1.2-0.4l-7-6.8l-2-2.8l-1.2-2.7l0,0l0.4-0.4l0,0l3.1-1.8l0,0l0.1-0.4L658.681,175.484z"/>
	<path id="_x37_8596" fill="none" stroke="#000000" d="M946.082,248.484l12.9,4.1l9.1,3.1l3.2,1.6l0,0l-1.601-0.1l0,0l-0.199,12.3
		l0,0h1.8l0,0l-0.2,3.7l0.1,5.9v1.8l0,0v1.5l0,0l0.101,3.3l0,0v1.9l0,0v0.4l0,0l0.1,0.4l0,0l-13.6-9.9l0,0l-5-3.7l0,0l-6.5-4.7l0,0
		l-0.601-0.5l0,0h0.601l3.399,0.1l0,0l-3.699-5.5l0,0l0.1-7.4V248.484z"/>
	<path id="path20010" fill="#F06BA8" stroke="#000000" stroke-width="3" d="M527.282,113.484l-0.9,2.1l-4.3,4.7l-0.9,1.7l0,0
		l-0.1,0.1l0,0l1.6,4.1l0,0l-1.699,0.1l0,0l-0.101,3.1l0,0h-1.5l0,0l-0.2,10.1l0,0l-1.199,2.7l0,0l-2.2-0.9l0,0l0.1-1.4l0,0l-1-0.9
		l0,0l-11-0.1l-1,0.4l0,0l-3.7-2.5l-0.8-0.5l0,0l-1.399-1.1l0,0l-0.7-1l0,0l-0.9-0.4l0,0l-1.7-0.5l0,0l0.5-0.3l5-0.3l0,0l0.801-6.5
		l0,0h2.1l0.1-6.1l12.5-0.1h0.601l5.7,0.1v-6.4L527.282,113.484z"/>
	<path id="path20012" fill="#F06BA8" stroke="#000000" stroke-width="3" d="M221.681,71.384l-2.3,2.5l0,0l0.2,0.7l0,0l-5.3,2.7l0,0
		l-2-0.3l0,0l-0.5,0.5l0,0l0.699,0.8l0.5,1.4l-0.3,1.9l-2.6,0.3l-0.601,0.9l0,0l-2.199,1.8l-4.4,2.4l0,0l0.7,2.6l0,0l5.2,1.3l4.5,2
		l0.5,0.2l0,0l-1.601,0.4l0,0l-1.3,3.8l0,0l-0.2-0.1l-0.7-0.1l0,0h-1.699l0,0l-0.301-0.3l0,0l-0.3-0.5l-1-2.6l0,0l-1,0.2l-1,0.2l0,0
		l0.2-0.3l0,0l-0.8-0.8l-2.8,0.8h-2.101l-1.7-1.1l-0.1-1.2l-1-0.8l0,0h-8.1l0,0v-4.3l0,0l-0.301-0.1l0,0v-2l-1.8-3.3l-0.2-1.2
		l0.4-8.4l0,0l23.8,0.1l0,0L221.681,71.384z"/>
	<path id="_x38_1708" fill="none" stroke="#000000" d="M594.982,313.184l1.1,1l0,0l2.5,0.1l0,0l11.8,9.9l0,0l0.5,0.6l0,0l-0.1,0.5
		l0,0l-0.101,2.2l0,0h-3.199l0,0l-0.101,3.3v1.6l0,0l-0.899,0.2l-3.2-1.3l-3.7-0.2l-0.6,1l0.1,1.8l0,0h-5.6h-0.4l-17.1-0.1l0,0
		l0.1-3.1v-3.3l0,0h7.7l0,0l-0.101-1.4l0,0v-0.1v-1.2l0,0v-0.4l0,0h-1l0,0v-3.1l0,0l-3.399-0.1l0,0l-0.101-3.2v-1.6v-1.8l0,0h1.4
		h0.9l0,0l2.5,0.1l0,0l-2.4-3.4l1.5,0.4l2.7-0.5l2.5,0.1l2.3,0.4l3.3,1.6H594.982z"/>
	<path id="_x33_9836" fill="none" stroke="#000000" d="M421.282,244.284l5.7,2.2l2.8,0.4l3.8-0.9l4.6-0.9h7.9l0,0v3.5l-4.2,7l0,0
		l2.601,1.9l0,0l-1.601,1.4l0,0v2.1l0,0h-0.899l0,0v1.9l0.1,1.5l0,0h-2l-7-0.1l0,0h-2.2l0,0h-0.399l0,0l-1.301,2.6l0,0l-2.8-1.3
		l-14.8-7l0,0l9.2-13.1L421.282,244.284z"/>
	<path id="_x32_1810" fill="none" stroke="#000000" d="M142.582,224.784l0.7,0.9l0,0l0.8,1l0.1,1.4l0.601,0.9l3.5,1l1.899-0.5
		l1.101,0.9l0.3,2.7v1.1l1.899,2.2l-0.899,5l1.7,4.3l-1.301,5.4l3.5,3l0,0l-3.8,0.8l-3.8,2.3l0,0l-5.5-4l0,0l-0.7-0.1l0,0
		l-0.399,1.3l0,0l-2.7-0.1l0,0h-0.9l0,0h-2.5l0,0h-1.5l0,0h-1.5l0,0v-1.1l0.101-3.7l0,0v-0.9l0,0l0.8-5.8l0,0l0.3-0.4l0,0l0.5-0.9
		l0,0l0.5-0.9l0.3-0.6l0,0l0.8-1.5l0,0l-2.899-2.9l0,0l-0.101-7.2l0,0h0.4l0.9-0.5l0,0l0.3-0.2l0,0l1.399-0.2v1.6h3.801l0.199-4.3
		H142.582z"/>
	<path id="_x33_4316" fill="#8CCCF0" stroke="#000000" d="M435.382,320.884l2.601-5.2l0,0l-0.4,3l0.2,2l1.7-3.2l1.6-0.9l8.9,2.3
		l2.6,2.1l0.6,1.2l0,0h0.2l0,0l0.4,2.9l1.5,1.9l-0.2,3.1l0,0v3.9l0,0l-5.4-0.1l0,0l-0.3,2.6l-2.2,0.3l-1.8,1.3l0,0l-2.899,1.4
		l-9.2,0.9l-4.3-2.8l-0.5-1.2l0,0l-2.801-0.2l0,0l0.2-6.2l0.2-9.7l0,0l1.7,0.6H435.382z"/>
	<path id="_x30_6028" fill="#8CCCF0" stroke="#000000" d="M1020.382,321.284l5.4,0.6l0,0l6.399,2.5l11.5,5.6l2.9,2l0.9,1.5l0,0
		l-2.9,0.3l0,0l0.3,4.9l0,0h1.4l0,0l-1.7,7.7l0,0l-12.5,0.2l0,0l-0.1-3.2l-9.2-0.2l0.1-3.2h-3.399l0,0v-6.2l0.1-10.2
		L1020.382,321.284z"/>
	<path id="_x36_2756" fill="#8CCCF0" stroke="#000000" d="M407.082,316.984v12.9l-0.2,8.8l0,0l-11.6-8.8l0,0h-0.7l0,0l-0.3-0.2l0,0
		l0.1,0.2l-0.1,3.4l0,0l-0.2,2.9l0,0v6.2l0,0l-12.1-0.1l0,0l-0.601-0.1l0,0l0.101-6.3l0,0h3.399l0,0v-6.2l0,0l3.2,0.1l0,0v-3.1l0,0
		l-1.5-0.1l0,0l0,0l0,0l-1.6,0.7l0,0v-4.2l0,0h-3.4l0,0l0.2-3.4l0,0l1.7,1.2l0,0l0.899,0.8l0,0l0.7-2.8v-2.1l0,0h3.1l0,0
		L407.082,316.984z"/>
	<path id="_x32_0697" fill="none" stroke="#000000" d="M557.181,327.284l3.2,0.1h6.3h3.101h6.3l0,0v3.3l-0.1,3.1l0,0v9.3l0,0
		l-3.101,0.4l0,0v3l0,0l-6.3,0.1h-7.3l0,0l-2.101-0.5l-3.199-0.2l0,0v0.6l0,0h-3.101l0,0h-3.1h-1.5l0,0l-1.601-0.5l0,0v-0.4l0,0
		v-0.6l0,0v-1.6l0,0h1.4l0,0l1.7-1.7l0,0v-3.3l0,0l2.1,0.1l0,0v-1.6l0,0h-2.1l0,0l0.1-3.2v-1.7v-0.3v-0.6l0,0l0.7-0.6v-2l0,0h1.1
		l0,0l1.301,0.4l0,0v-0.1l0,0h1.6l0.1,0.7l1.5,0.3l0,0v-0.1l0,0l0.9,0.9l0,0h0.2h2l0,0v-0.7l-0.101-2.4l0,0V327.284z"/>
	<path id="path20028" fill="#FFFFFF" stroke="#000000" d="M238.181,110.684l-0.3,0.6l0,0l-4.4,5.8l-1.699,4.1l-3.9,1.7l-5.8,1.9
		l-5.601,2.9l-3.199,1l0,0l1.5-1.2l3.399-1.2l2.8-2.9l0.601-0.1l0,0l2.2-0.4l0,0h0.5l0,0l1.8-0.4l0,0l2.3-0.6l0,0h0.5l1.4-1.2
		l1.6-2.1l0.6-1.8l0,0l5.301-6.4l0,0L238.181,110.684z"/>
	<path id="_x37_0784" fill="none" stroke="#000000" d="M305.782,407.084l0.5-0.3l0.3-0.2l0,0l4,7.1l0,0l2.1-1.5l0,0l3.601-2.699l0,0
		l2.1,2.8l0,0l0.8-0.4l1,0.601l0.5,3.6l-0.199,1.3l-0.9,1.4l-1.6,1.5l-1.101,0.399l-1-0.1l-0.6,0.5v1.4l0,0l1.2,1.899l0,0
		l3.899,0.101l0,0v1.1l0,0l1.2,1.7l0,0l-0.1,3.6l0,0l-1-0.1h-5.2l-7.8-0.101l0,0l-0.2-5.5l0,0v-1l-0.101-6.399l-3.8-9.7l0,0
		L305.782,407.084z"/>
	<path id="_x33_4302" fill="none" stroke="#000000" d="M159.582,197.284l0.2,0.3l0,0l-1.101,0.5l0,0l3.3,4.9l0,0l-3.199,2.2l0,0
		l-2.101,2.1l-2.2-0.2l-1.1,1.1l0,0l-0.2,0.2l0,0l-4.8,3.5l0,0h-0.5l-0.4-0.2l0,0l-2.399-1l0,0l-0.3-0.2l0,0l-2.301,2l0,0l-1.8-2.6
		l0,0l-1.399,0.9l-2.101,0.3l0,0l-0.899-1.4l1.399-1l-1.6-2.3l0,0h0.2l6.6-2l5.4-2.2l0,0l1.1,1.8l0,0l2.6-1.6l0,0l-0.6-1.4l0,0
		l3.8-1.5l3-1.2l0,0L159.582,197.284z"/>
	<path id="_x35_0090" fill="none" stroke="#000000" d="M399.482,482.784l0.199,0.2l0,0h1.9l0,0h0.9l0,0h3h0.6l0,0l11.9-0.101l0,0
		l-3.301,15.601l0,0l-3.199-2.8l-5.301-1.801l-3.199-0.3l-2.301-0.3l-2.699,1.7l-1.5,0.5l0,0l0.3-0.8l0.3-0.301l2.2-2.399l0.7-2.101
		l0.399-2.6l-0.8-2.5l-1.5-1.3l0.6-1.8l0,0L399.482,482.784z"/>
	<path id="_x35_8982" fill="none" stroke="#000000" d="M331.782,354.284h5.1l0,0v0.2h7.2l0,0h0.1l0,0l1.4-0.1l0,0l2.1,4.9l0.101,2.1
		l-0.601,1.8l-0.899,1.5l-1.8,0.9l0,0h-0.301l0,0v0.5l0,0v1.1l0,0h-1.3l0,0l-1.5,0.5l-0.7-0.1v-0.7l-1.3-0.6l-1.7-0.1l-0.899,0.4
		l-4.601,4.5l-0.699,1.6l0,0L331.782,354.284z"/>
	<path id="_x34_6660" fill="none" stroke="#000000" d="M1181.382,474.384h3.101l9.5-0.1l0,0l-0.101,12.8l0,0h-9.399h-0.9l0,0
		l-1.5-2.1l0,0l-1.1,0.6l0,0l-8.2-11.3l0,0L1181.382,474.384z"/>
	<path id="_x33_3574" fill="none" stroke="#000000" d="M276.481,85.184h0.101l0,0h0.3l0.4,0.1l0,0h1.6l0,0h2.2l0,0h0.8l0,0h0.8l0,0
		h0.4l0,0l5.899,0.2l0.9-0.1l0,0l4.2,0.2l0,0l1.1-0.1l0,0v6.5v2.7l0,0l-0.1,0.9l0,0l-5.4,0.3l0,0l-0.7-0.1l0,0v-0.5l-2.899-1.9
		l-1.601,0.5v0.7v0.2l-1.699-0.1l0,0h-0.4l-1.9-0.5l0,0l0.101-3.6l0,0h-1l0,0l-1,1l0,0h-2.3l0,0l-3-0.3l0,0l-0.2,0.3l0,0l-0.2-0.1
		l0,0l1.5-2.5L276.481,85.184z"/>
	<path id="path20042" fill="#F06BA8" stroke="#000000" stroke-width="3" d="M1010.982,346.584h2.199h6.301l0,0l0.699,2.5l4.601,4.8
		l1,2.4v0.8l0,0l-3.3-0.2l0,0l-4.2-0.7l-8.5-3.7l0,0l0.2-0.4l1.1-0.7l0,0v-3.6l0,0L1010.982,346.584z"/>
	<path id="path20044" fill="#FFFFFF" stroke="#000000" d="M319.082,181.784l12.3-0.1l6.5,0.2l6.4,0.2l0,0v0.5l0,0l-6.4-0.1l0,0
		l-6.5-0.2l-12.5-0.1l0,0L319.082,181.784z"/>
	<path id="path20046" fill="#F06BA8" stroke="#000000" stroke-width="3" d="M958.782,307.984h7.399l0,0v6.3h3l0,0v6.6l0,0h-9.8h-3
		l0,0l-0.1-3.5l0,0v-0.1l0,0l0.1-9.2l0,0L958.782,307.984z"/>
	<path id="path20050" fill="#F06BA8" stroke="#000000" stroke-width="3" d="M528.181,139.084h7h0.9l0,0v11.2l0,0l-3.2,1.5l-0.1,2.4
		l0,0l-1.7,1.2l0,0l0.2-1.1l-0.5-2.5l0,0h-3.601l0,0l2.4-5.2l0,0h-0.7L528.181,139.084z"/>
	<path id="path20052" fill="#FFFFFF" stroke="#000000" d="M271.082,85.184h5.399l0,0l-2.1,3.8l-1.5,2.5l0,0h-0.3l0,0l0.2-0.2l0,0
		l-4.4,3l0,0l1.9,1.4l0,0l-1.4,2.4l0,0l-3.9-2.2l1.601-2.4l0,0l0.7-1.6l0,0l0.6-1.5l0,0v-0.1l0,0l0.1-0.3l0,0l0.101-0.4l0,0
		l3.399-2.7l0,0l-1.199-0.8l0,0l0.5-0.9l0,0H271.082z"/>
	<path id="path20054" fill="#FFFFFF" stroke="#000000" d="M204.681,94.084l0.101,0.3l-3.101,2.5l-2.6,1.8l-1.2,0.2l-3.1,2.9l-3,1.7
		l0,0l-0.4-2.1l0,0v-3.6l0,0L204.681,94.084z"/>
	<path id="path20056" fill="#F06BA8" stroke="#000000" stroke-width="3" d="M1063.482,343.784l2.1,2.5l0,0l-2.1,0.1l0,0v6.3l0.1,2.8
		l0,0h-3.1l0,0l-0.101-2.7l0,0h-3.1l0,0l0.1-2l-1.1-1.3l0,0l0,0l0,0l-1.7-3.1l0,0h2.5l0,0h1.2l0,0h1.1l0,0l3.3-1.3l0,0l0.801-0.1
		l0,0V343.784z"/>
	<path id="path20058" fill="#F06BA8" stroke="#000000" stroke-width="3" d="M524.181,101.184h0.9l14.1-0.1l0,0l-4.199,3l0,0
		l-0.9,1.2l-1.5,0.5l-5.1,0.9l0,0v-1l0,0v-1.3h-3.2L524.181,101.184z"/>
	<path id="_x32_0536" fill="none" stroke="#000000" d="M2257.582,454.384v-2.2l0,0l5.7-0.199l0.1,3.1l3.9-0.1l0.2,6.6l0,0l-9.7,0.3
		l0,0L2257.582,454.384z"/>
	<path id="path20061" fill="#8CCCF0" stroke="#000000" d="M1097.282,365.284l0.8-3.2h3.6l4.2,4.9l1.3,1.7h-2.8l-0.2,3.2l0,0h-3l0,0
		v-0.2v-5.5h-3.3l0,0L1097.282,365.284z"/>
	<path id="path20063" fill="#FFFFFF" stroke="#000000" d="M339.982,462.584l3,3.7l2.899,0.2l0,0l2,3.7l0,0l-4.6,4.1l0,0l-1.101-1.4
		l0.2-1.3l-0.3-0.899l-1.8-1.7l0,0l1.2-2.2l0,0l-1.601-1.601l0,0L339.982,462.584z"/>
	<path id="path20067" fill="#FFFFFF" stroke="#000000" d="M335.482,468.384l3.699,5.9l0,0l2.2,1.7l0,0l-0.7,0.6l-8.699-6.7l0,0
		l0.6-0.8l0,0l1.4-1.9l0,0L335.482,468.384z"/>
	<path id="path20071" fill="#8CCCF0" stroke="#000000" d="M1100.982,352.784l6.5,0.1l0,0v6l0,0l-2.5-0.2l-2.601-0.8l-2-1.2
		l-2.399-2.4v-1.5h1.699l0,0H1100.982L1100.982,352.784z"/>
	<path id="path20075" fill="#FFFFFF" stroke="#000000" d="M312.681,377.184v4.1h2.2l2.2,3.1l0.4,2.5l0,0l-5.101-0.1L312.681,377.184
		z"/>
	<path id="path20083" fill="#FFFFFF" stroke="#000000" d="M260.282,84.884l2.3,0.1l0,0l-0.101,0.1l0,0l-1.699,4l0,0h1.899l0,0
		l0.101,0.6l0,0l-1.601,2.3l0,0l-0.7,1.1l0,0l-0.899-0.4l0,0l0.399-5.7l0.2-2.1l0,0H260.282z"/>
	<path id="path20085" fill="#8CCCF0" stroke="#000000" d="M1107.482,363.784v0.5l0,0l-5.2-5.1h2h3.2l0,0V363.784z"/>
	<path id="path20089" fill="#FFFFFF" stroke="#000000" d="M870.181,128.784l-0.1,1.7l0,0h0.7l0,0v1.5l0,0h0.8l0,0v3.3l0,0l0,0
		l-3.1-0.1l0,0v-6.4l0,0H870.181z"/>
	<path id="path20093" fill="#FFFFFF" stroke="#000000" d="M344.082,354.484h-7.2v-0.2l0,0L344.082,354.484z"/>
	<path id="path20097" fill="#FFFFFF" stroke="#000000" d="M197.981,128.784l0.301,1.3l0,0h-1.4l-0.1,0.8l-0.2,0.1l-2.601-0.1v-0.8
		l0,0L197.981,128.784z"/>
	<path id="path20099" fill="#8CCCF0" stroke="#000000" d="M1094.882,368.684l2,0.1l0,0l1.101,1.1l0,0l0.1,2l0,0h-3.2l0,0V368.684z"
		/>
	<path id="path20105" fill="#FFFFFF" stroke="#000000" d="M282.782,94.684v0.6l0,0v1l0,0l-2.4-0.1l0,0l0.1-2l0,0l1.9,0.5H282.782z"
		/>
	<path id="path20113" fill="#FFFFFF" stroke="#000000" d="M888.782,292.084h0.8l0,0l0.1,0.6l0,0L888.782,292.084z"/>
	<path id="Wildomar" fill="#8CCCF0" stroke="#000000" d="M307.482,430.684l7.8,0.101h5.2l1,0.1l0,0h3.6l5.6-0.399l4.601,1.399
		l1.7-0.3l5.699-7.1l2.801-1.601l2-3.399l1.1-1h7.3l0,0l-0.1,3.5v9.699l0,0l1.8,5.101l0,0l4.5-0.101l0,0l-0.3,1.5l1.399,3.301
		l0.301,0.6l1.5,0.6l0.6,0.7l-0.2,3.7l-0.8,1.3l0,0l-2.8,6.3l-0.101,2.4l0,0l-0.6,1.8l0,0l-11.4,9.7l-1.8,1.601l0,0l-2-3.7l0,0
		l-2.899-0.2l-3-3.7l0,0l-0.101,2.6l0,0l1.601,1.601l0,0l-1.2,2.2l0,0l1.8,1.7l0.3,0.899l-0.2,1.3l1.101,1.4l0,0l-1.9,1.7l0,0
		l-2.2-1.7l0,0l-3.699-5.9l0,0l-1.5-1.2l0,0l-1.4,1.9l0,0l-1.3-0.9l-0.7-0.6l-1.4-1.1l0,0l-2.899-2.2l-9.5-7.3l-0.7-0.7l-1.3-0.9
		l0,0l-0.5,0.7l0,0l-1.2-0.9l0,0l-0.6,0.7l0,0l-2.2-1.8l0,0l-0.4-0.3l0,0l1.101-1.3l0,0l-2.601-2l0,0l-1,1.3l0,0l-4.6-3.4l0,0
		l-0.101,0.101l0,0l-3.1-2.5l-4.601-3.4l0,0l-0.5-0.4l0,0l1.2-1.6l1.9-2.6l0,0l3.8-5.101l5.9-7.7l0,0L307.482,430.684z"/>
	<path id="Temecula" fill="#8CCCF0" stroke="#000000" d="M414.582,498.884l-0.9,2.4l-0.899,2.7l0,0l0.5,1.8l0,0l-0.4,0.6l0,0
		l2.3,1.7l2.5,1l0,0l0.601,0.2l5.399-4.3l2.601,2.6l0.5,0.601l0,0l0.399-0.2l0,0v-0.9l0,0l0.101-0.1l0,0v-1.5l-0.7-3.5l1.6-2.3h2.9
		v-4.101l12.9,0.2l-0.2,12.4l0,0v0.399l0,0l-0.2,8.3l0,0v2.601l0.5,1.899l0.9,1.9l3.199,3.7l1.801,3.399l0.699,2.2l-0.1,3.4l0,0
		l7.6-3l0,0l0.301,1l0,0l-0.7,2.8l1.1,1.3l0.601,1.9l0,0l2.3,4.1l0,0l1.2,4l0,0l-2.7,1.8l0,0l0.3,0.9l1.4,4.1l-0.4,0.4l0,0l-2.1,0.6
		l0,0l-0.101-0.199l0,0l-17.3,5.3l0,0v0.2l0,0l1.4,1.3l0,0l-1.801,1.6l0.7,2.7l2.601,0.5l3.6-0.2l0,0l-0.1,0.9l0,0v1l-3,0.7h-2.801
		l-0.399-0.5l-1.5,0.1l-1.3,0.6l0,0l-0.2,0.2l0,0l-0.5,1.5l0,0l3.1,2l0,0l0.7,0.8l0,0l0.9,1.301l0,0l3.1,3l2.4,4l0,0h0.1l0,0
		l-3,4.899l0,0l-1.9-1.899l0,0l-3.5,1.199l2.7-2.1l0,0l-5.8-5.4l0,0l-3.5,3.7l0,0l-2.2,2.3l-6.8-5.8l-3.4,6l-5.3-7.7l-7.1-8.699l0,0
		l2.2-1.7l0,0l-0.7-0.8l-2.601-3.7l0.301-0.2l-0.2-1.9l-10.5-10.6l-1.601-3.8l0.7-0.601l0,0l-6.7-0.399l0,0l-11.699-13.8l0.3-0.301
		l0,0l1.5-1.3l0,0l5.7-5.5l0,0l2.899-2.6l0,0l2.9-2.8l0,0l2.899-2.4l0.301-0.2l-2.801-5.1l4.5-4.3l0,0l2.5-2.4l2.301,2.1l2.6-3.3
		l0,0l0.5-0.6l0,0l3.4,2.6l0,0l1.5-1.8l1.6-1.9l0,0L414.582,498.884z"/>
	<path id="San_Jacinto" fill="#8CCCF0" stroke="#000000" d="M502.082,260.084l-0.1-7.8l9-4.2l2,1.3l2.699,1.2l0,0l-0.1,9.7l0,0
		l13.6,0.2l0.101,6.2l0,0l-0.101,0.1l0,0h9.301l0,0l0.1,3.4l0,0h1.6l0,0h2.5l0,0l3.7,0.1l0,0v-0.6l0,0v-2.7l-3.3-3.3l0,0l0,0l0,0
		l0.8-2.8h-0.3l-0.2-0.8l6.8-0.2v7.3l6.5,0.3v1.9l-3.899-0.1l-2.9-1.1l0,0l-0.1,0.3l0,0v0.8l-2.7,6l1.9,1.9l0,0l2.1,2.3l0,0h-3l0,0
		l-0.1,0.3v10.5l0,0l0.6,0.4h1l0,0h1.5l0,0v-0.6l0,0l3.2-1.1v-7.9l0,0l1,0.5l0,0l3.5-3.7l4.7,3.9l0.5,0.3l0,0l-0.4-2.1l0,0l0.5-0.7
		l0,0l4.8,3.5l0,0l0.9-0.1l0,0l3.399-0.2l0.301-1l-0.301-0.5l0.5-0.7l4,0.1l-0.1,2h-1.8l-0.3,6.9h1.899v3.3l-3.1-0.1l-4.601,6.5
		l-0.1,0.1l0,0l-0.2,0.4l-0.3-0.5l0,0l-2-0.1l0,0l3.1,4.7l4.9,5.5l0,0l0.9-0.9l1.199,3.9h-3.399l0,0l-0.8-0.8l0,0l-0.101,0.8l0,0
		l-3.1-0.1l0,0v2.6l0,0l-3.7,0.2l0,0l-0.5-0.3l0,0v1.8l0,0l4.4,3.6l0,0l-3.4,1.5l-4.4,0.1l-1.3,0.8l-0.1,1.9l0,0l-0.4-0.4
		l-3.399-2.8l-3.101-3.2l-0.399-3.9l0,0l0.1-0.9l0,0l-2.6,0.3l0,0v0.8l0,0l-0.801,1.9l-1.5,1.6h-3.899l0,0l0.1-9.3l0,0h-4.1l0,0
		l-0.7,0.8l0,0v0.2l0,0h-1.5l0,0v-4.4l0,0h-6.2l-3.2-0.1h-16l-9.3-0.1l-9.8-0.3l0,0l0,0l0,0v-1.2l0,0v-5.2l0,0h-3.2l0,0v-6.1
		l-1.6-2.7l-1.601-0.4l-1.699,1l-5-0.1l0.3-8l-5.2-13.2l-0.5-2.3l-0.3-17.9l1.1-1.1l0,0l16.601,12.7l1.399,0.2H502.082z"/>
	<path id="Riverside" fill="#8CCCF0" stroke="#000000" d="M269.481,85.084l0.101,0.5l0,0l0.7,0.5l0,0l1.199,0.8l0,0l-3.399,2.7l0,0
		l-0.101,0.4l0,0l-0.1,0.3l0,0v0.1l0,0l-0.6,1.5l0,0l-0.7,1.6l0,0l-1.601,2.4l3.9,2.2l0,0l1.4-2.4l0,0l-1.9-1.4l0,0l4.4-3l0,0
		l-0.2,0.2l0,0h0.3l0,0l0.2,0.1l0,0l0.2-0.3l0,0l3,0.3l0,0h2.3l0,0l1-1l0,0h1l0,0l-0.101,3.6l0,0l-0.1,2l0,0l2.4,0.1l0,0v-1l0,0
		v-0.6l0,0l1.699,0.1v-0.2v-0.7l1.601-0.5l2.899,1.9v0.5l0,0l0.7,0.1l0,0l5.4,0.6l0,0v1.7l0,0h0.1l0,0l-3.6,4.4l0,0l-0.2,0.2l0,0
		l-2.1,0.2l0,0l-0.101,1.7l0,0l-2.2-0.1l0,0l-3.8,1.2l0,0l-0.6-0.1l0,0l0.1,1.5l15.101,0.2l1.3,2.7l0.1,2.9l-1.399,4.4v2.1l0,0v0.3
		l0,0v0.4l0,0l0.199,4l-1,5.8l-0.5,1.2l-0.199,4.4l0.8,1.6l0,0h-0.101l0,0h-1.6l0,0h-0.1l0,0l-0.2,3.3l1,3l0,0v1l0,0l1.6,0.4l0,0
		l0.4-0.4l0,0l0.7,0.3l0,0l0.1-0.1l0,0l2.5,0.2l0,0l0.2,0.6l0,0l0.2,0.2l0,0l1.1,2.4l3.7,2l0,0v-0.1l0,0l1.9,0.2l7.6,2.3l3,0.1
		l0.1-1.2l0.101,0.6l0,0l2.7,1.9l0,0l-1.4-0.1l0,0l-0.6,0.1l0,0l-0.9,0.8l0,0l-0.2,8.5l0,0h-1.399l0,0v-1.8h-1.601l-0.1,1.2
		l-1.9,0.3l0,0v0.1l0,0l-0.899,0.1l0,0h-1.2l0,0h-0.2l0,0h-0.7l0,0l0.601,1.5l0,0l0.1,0.3l3.6,11.2l0,0l-3.199-0.1l0,0l-5.801-0.2
		l-5.899,0.2l0,0v0.5l0,0l-0.601,2.6l0,0v0.1h-1.3l0,0v-2.9l-4.5,0.1l0,0l-0.1,2.9l0,0l0.1,0.9h-2.2l-2.3,1.6l-0.2,7.2l1.9-0.1
		l2.399,0.2v3l0,0l5,0.1l0,0l0.101-0.9l1.8-0.1h0.7v-0.7l0.1-1.2l0.8,0.1h4.2v-0.5v-1.5l3.101-0.2v14.4h-6.9l-8.8-0.1l0,0
		l-0.101-0.6l0,0l-3.6-0.9l0,0v7.8l0,0h-2.8l-6.4,0.2l0,0l0.101-1.6l0,0l-3.2-0.1v-2.2l-1.3-1.1h-1.601l0.101-1.3l0,0l3,0.1l0,0
		l3.1,0.8l0,0l0.1-0.9l0.101-12.8l0,0l-6.2-0.2l0,0l0.1-6.4l0,0l3.301-0.1l1.899,1.8l-0.2,3.6l0,0l1.101,0.1l0,0l0.2-10.9l0,0
		l-0.2-0.5l0,0l-12.4-0.1l-0.2,12.4l0,0l-12.5-0.2h-6l0,0l-5.1-0.1l0,0h-1.3l0,0l-0.9,12.2l0,0v0.9l0,0h-1.2l0,0l-17.6-0.5l0,0
		l-15.6-0.2h-4.7l-5.4-0.1l-5.399-0.2v-0.9l0,0l-4.801,3.4l0,0l-0.5-0.8l0,0l-0.1-0.2l0,0l-1.3-2l-1-1.6l0,0l-5.7,3.3l0,0l0.8,1.2
		l0,0l0.3-0.2l0,0l-0.3,2.2l0,0l-0.399-0.2l0,0l-1.301-0.4l-1.3,1l-0.899-0.5l0.199-1.5l-0.3-0.7l-2.7-1.9l-3.199-1l1-2.3
		l-5.101,1.3l-2.2,2.5l0,0l-2,1.9l0,0l-3.3-4.9l0,0l1.101-0.5l0,0l-0.2-0.3l0,0l-1.601-2.6l0,0l1.4-0.8l0,0l-3.6-5.2l-2-2.3h-0.301
		l0,0l-2.399,0.8l0.1-7.6h-1.3l0,0l0.3-21.3v-10.3h-1.399l0,0l-5.4-0.1v-4.7l0,0l0.1-2l0,0l0.801-0.2l0,0v-1.2l0,0l2.6-2l0,0
		l3.4,0.1l0,0h1.399l1.8-0.9l0.101-1.6l15.1,0.7l2-0.6l-0.1-1.2l1.899-0.8l4.5-0.7h3.4l1.3,1l3.2,0.1h0.4l0,0l3-0.8l0.899-1.7
		l4.8-2.4v1.1l0,0v0.8l2.601,0.1l0.2-0.1l0.1-0.8h1.4l0,0l0.6-0.4l7.8,0.1l0.101-0.8l0.1-0.4l0,0l0.5,0.4l0,0l4.3,0.3l0,0l1.601-0.6
		l0,0l3.199-1l5.601-2.9l5.8-1.9l3.9-1.7l1.699-4.1l4.4-5.8l0,0l0.3-0.6l0,0l-0.399-0.3l0,0l-0.4-0.2l0,0h0.1l0,0l1.5-3.4l0,0
		l0.301-1.3l0,0l-0.101,0.4l0,0l3.3-5.4l0,0l0.2-0.2l0,0l1.3-2.1l0,0l0.2-0.3l0,0l1.7-1.8l0,0l0.1-0.1l0,0l0.9-1.1l0,0l0.5,0.6
		l0.5,0.8l0,0l1.2-0.3l4-4.5l2.8-5.4l0,0l0.6-1.1l0,0h0.101l0,0h0.8l0,0h0.8l0,0l2-0.1l0,0l-0.2,2.1l-0.399,5.7l0,0l0.899,0.4l0,0
		l0.7-1.1l0,0l1.601-2.3l0,0l-0.101-0.6l0,0h-1.899l0,0l1.699-4l0,0l0.101-0.1l0,0L269.481,85.084z"/>
	<path id="Rancho_Mirage" display="none" fill="#8CCCF0" stroke="#000000" d="M921.082,260.884h3.4v2.5h2.699v6.3l0,0h6.601l0,0
		l-0.3,12.7l0,0l12.699,0.1l0,0l-0.1-3.5l0,0l0.2-6.7v-2.2l0,0l6.5,4.7l0,0l-0.2,7.8l0,0l6.3,0.1l0,0l-0.1,12.7v9.8l0,0v2.8l0,0
		l-2.4,0.1l0,0l-0.1,9.2l0,0v0.1l0,0l0.1,3.5l0,0v14.4v5.9l0,0l-3.1,2l0,0l-2.9,0.2h-2.8l0,0l-1.5,0.1l0,0l-0.5-1l0,0l-1,0.8
		l-0.2,15.7l0,0l-37.6,0.7l0,0v-5.5l-0.101-20.2l-12.3-0.1l-0.2-13.4l0,0l1.101,1.8l0.399-0.1l1.4-2l0.9-2.5l0.199-1.9l4.601-5.3
		l4.1-2.6h1.4h3.2v-3.4l4.699,0.1l3.101,2.5l-0.101-5.5h1.601l0,0v-0.3v-6.1l0,0h-6.3l0,0v-6.3v-6.4l0,0h5.8h0.7l0,0l0.199-12.8
		v-0.1l0,0l-0.1-3.9l0,0V260.884z"/>
	<path id="Perris" fill="#8CCCF0" stroke="#000000" d="M330.382,217.484l5.4,0.1l1.399,3.1l0,0l0.101,1.2l0,0l2.8,5.4l0,0h3.1l0,0
		l0.601-0.2l0,0l12.6,0.1l0,0l9.8,0.2l0,0h0.4h6l0,0l-0.1,6.2l0,0l-0.101,6.3l0,0l5.3,0.1l0,0l3.5,2l0,0l8.2,10.5l0,0l-0.5,0.5l0,0
		v3.1h-7.8l0,0h-1.6l-1-0.1l0,0l0.1-3.2l0,0h-3.8l0,0v6.4l0,0l-4.9,0.2l0,0l0.5,2.5v3.6l0,0l9.9,0.1l0,0l0.7,0.5l0,0l-0.101,12.3
		l-0.2,12.7l0,0l-0.1,8.9l0,0l0.6-0.4l0,0l-0.1,1l0,0v3.3l0,0l7.5,0.1l0,0l-0.4,12.8l0,0h-3.1l0,0v2.1l-0.7,2.8l0,0l-0.899-0.8l0,0
		l-1.7-1.2l0,0l-0.2,3.4l0,0h3.4l0,0v4.2l0,0l1.6-0.7l0,0l0,0l0,0l1.5,0.1l0,0v3.1l0,0l-3.2-0.1l0,0v6.2l0,0h-3.399l0,0l-3.101-0.1
		l0,0l0.101-6.3l0,0l-21.5-0.2l0,0v5.6l0.8,2.8l-0.3,3.5l-0.601,1.1l0,0l-0.1,10.3l0,0v1.7l0,0v0.3h-0.2l0,0l-9.9-0.1l0.5-0.8
		l3.5-0.5l0.7-1.7v-2.4h-2.399l0,0l0.199-1.3l0,0l-5.199,0.6l0,0l0.1,6.1l0,0l-7.2-0.2l0,0h-5.1l0,0v-0.4v-11.9l0,0v-2.4l0,0
		l0.1-1.4l-2.899-2.7l0,0l0.1-6.4l0,0h5.9l3.1,0.1l0,0l1.3-2.6l0,0l0.101-21.6l0,0v-1.6l0,0l3.1,0.1l0,0l0.2-2.5l0,0v-1.2l0,0v-0.5
		v-2.1l0,0h-0.601l0,0h-3l0,0l-2.399,3l-4,2l-1.2,1.1l0,0l0.3-9.4h-1.899l0,0l0.199-3.3l0,0l1.601,0.1l0,0l0.1-3.3l0,0h1.2l0,0v-3.2
		l0,0h-2.8l0,0l0.1-5.9l0.101-4.6l0,0v-2.1l6.199,0.2l-0.199,3.1h3.399l-0.1,3.1h3.399l0,0l3,0.1h3.2h1.3h0.301l0,0l-12.801-37.7
		l0,0l2-0.7l0,0l-2.399-0.4l-6.9-19.5l0,0L330.382,217.484z"/>
	<path id="Palm_Springs" fill="#8CCCF0" stroke="#000000" d="M827.782,173.684h12.3l0,0l-0.2,5.8l0,0h6.4l0,0l-0.101,12l0,0
		l3.301,0.8l9,4.4l0,0l3.899,3.1l12,12.3l0,0l1.601,1.6l7.3,7.5l0,0v0.9l0,0l0.1,2.2v7.1v12.9l0.101,12.6l0,0v9.3l0,0l3.1,0.1l0,0
		v3.4l0,0h7.8h1.601l0,0v2.3l0,0v0.6l0,0l-0.101,9.9l0.101,4.8l2.899,3.1l0,0l3.2,2.9l0,0v0.4v1.4l0,0h-1.5l-4.6,0.2v-0.3h-0.2l0,0
		h-1.101l0,0l-0.699,0.1l0,0l-1.2-0.1l-0.101-6.2h-2.1v1.6l0,0h-0.8l0,0h-0.101l-0.1,1.7l0,0h-0.8l0,0l-0.101,3.1h1.101h0.7v1.3
		l1.6,0.1l-0.1,1h1.199l0.101,1.9h2.5l-0.101,8.2l-0.199,0.1h-0.9v1.1l-1.6,2.9l-1.601,5.7l0.101,0.6l3.3,1.4l-0.601,1l0,0l0.2,13.4
		l12.3,0.1l0.101,20.2v5.5l0,0v13.3l0,0l0.1,0.2h-0.1l0,0l-0.7,37.2l12.7-0.1v12.5l-12.3-0.101l-0.301,12.9l-0.199,14.2l-12.101-0.4
		l-0.2-13.8h-12.199l-0.4-22h-12.3l0.1-28.9h-12.899l0.199-13v-12.7h12.601l-0.101-12.8l0.2-12.9l0.101-12.9l0.1-12.7h-5.8l-0.2,9.7
		h-6.4v-3.9l0,0v-5.7l0,0h-11.399h-1.3h-11.2l0.1-12.8l0.101-12.8l-0.101-0.2l0.4-12.5l-0.101-6.2l-6.3-0.3l0.2-6.5l-6.3-0.1
		l-12.601,0.1l-12.6-0.3l0.1-12.6l0.2-12.8l-12.399,0.1l-0.101-12.4l-24.899-0.1l-0.301,12.5h-12.3l-0.1-25.4h0.7l12.1,0.2l0.1-23
		l-3.5-1.9l-4.3-5.6l0,0l15.9,0.7l9.899-1.6l4.801,1l1.699,0.7l0,0l0.4,16.3v3.1v0.3l-0.1,10l12.5-0.1v12.1l21.6,0.2l0.8-0.5l0,0
		l0.601,0.4l0,0l-4.301-4l-19.1-14.1l0.1-6.4l8.601,1.8l0,0h5.1l0,0l11.9-0.1v-0.7v-0.5l0,0v-6.2l0,0v-0.5v-0.4l0,0v-7.3l0,0
		l-2.5-0.1l0.2-5.6l0,0h2.399l0,0v-6.4l0,0l6.2-0.1L827.782,173.684z"/>
	<path id="Palm_Desert" fill="#8CCCF0" stroke="#000000" d="M952.782,274.784l5,3.7l0,0v0.1l0,0l13.6,10.4l25,18.1l0,0l1.3,0.8l0,0
		l4.601,3.6l0,0l3.5,2.4l3.8,2l11.2,4.2l0,0l-0.4,1.2l0,0l-0.8,2.3l-0.1,10.2v6.2l0,0v6.6l0,0h-6.301h-2.199l0,0h-10.101l0,0h-0.2
		l0,0l-0.6-12.9l0,0l-5.4,0.1l0,0l-5.699-0.1l0,0l-0.2,11.1l-0.101,1.6l0,0l-7.1,0.1h-2.4l0,0v6.5l0.2,4.8l0,0l0.101,0.1l0,0h1.6
		l0,0l0.1-0.1l0,0h0.301l0,0l0.1,1.1l0,0l-3.4,0.1l0,0v0.3l-0.1,0.4l0,0h-2.9l0,0v1l-0.1,0.1l-0.8-0.3l0,0l-3.3-0.1l0,0v0.1l0,0v0.5
		l0.199,0.4l0,0l-2.1,0.2l0,0v0.3v0.7l-0.1,5.9l0,0l0.199,2.2l0.101,2.9l0,0v0.1l0,0v11.6l0,0l-15.8-0.3l-0.2,3.2l-7.5,0.2l0,0
		l-1.7,5.1l-0.8,4.1l0,0h-0.601l0,0l-11.199-0.1v-12.5l11.3-0.1l0,0l1.3,0.1l0,0h0.1l0,0l-1.6-4.8l0,0v-0.8l0,0l1.6,0.1l0.2-20.5
		l0,0l0.2-15.7l1-0.8l0,0l0.5,1l0,0l1.5-0.1l0,0h2.8l2.9-0.2l0,0l3.1-2l0,0v-5.9v-14.4l0,0h3h9.8l0,0v-6.6l0,0h-3v-6.3l0,0h-7.399
		l0,0v-2.8l0,0v-9.8l0.1-12.7l0,0l-6.3-0.1l0,0L952.782,274.784z"/>
	<path id="Norco" fill="#8CCCF0" stroke="#000000" d="M143.882,136.584h1.1v1.2h-0.6l-0.1,2l0,0v1.2l0,0l-0.801,0.2l0,0l-0.1,2l0,0
		v4.7l5.4,0.1l0,0h1.399v10.3l-0.3,21.3l0,0l-0.1,4.9h-6.601l-0.6-0.6l0.1-1.7l-0.8-1.3l0,0l-3.2,2.5l-4.5,1.5l-2.5,1.5l-0.5,0.8
		l-0.2,1.5l0.601,1.5l0,0l-1.101,0.4l0,0l-1.899-0.8l-1.2-0.7l-1.2,0.1l-1.5,2.3l-1.399,0.1l-2.4-3.4l0,0v-0.9v-1.1v-0.1l0,0h-1.7
		l0,0v0.1l-0.7,2l0,0l-1.899,0.6l0,0l1.399,3.9l0,0l-0.6,0.4l0,0l-0.7-1.4l0,0l-2.3-0.3l0,0l0,0l0,0l-1.4,1l0,0l-1.1,0.7l0,0
		l-0.2-2.6l0,0l-0.399-0.5l0,0l-2.101-2.8l0,0l-0.5-0.9l-3.8-5.5l0,0l-2.6,1.9l0,0l-1.601-2.1l-4.6-6.3l0,0l-0.601,0.8l0,0l-0.3,0.4
		l0,0l-2.1-2l-7.3,8l-0.5-0.3l0,0l-2.101-1.3l0,0l-0.3-0.1l0,0l0.2-0.3l0,0l0.8-0.8l0,0l4.4-5.3l0,0l-1-0.9l0.199-0.8l1.601-2.2
		l1.399,2l0,0l1.801-1.4l0,0l-2.2-3.4l0,0l1.1-2.9l4-2.6l1.9-3l3.7-0.1l0,0l0.399-3.2l0,0l0.101-0.8l0.199-0.1l0,0l0.801-0.2l0,0
		l2.899-0.8l-0.3-1.3l-0.1-0.6l0.899-1.2l2.2-0.1l2.4-2.3l0,0l3.699-1.5l3.9,1.8l0.5-0.2l0.2-0.5l0,0l0.1-1.5l0,0l1.8,0.1v-1.7
		l4.7-0.3l0.2,0.4l0,0l-0.3,0.1l0,0l3.6-1.7l0.101-1.5v-1.2l1.699-1.7l1.101-0.5l4.399-0.5v-1.1l0.4-0.6h1.5v1.7l0,0h0.9l0,0
		l1.899-0.3l0,0l0.2,0.1l0,0l3-2.8l0,0V136.584z"/>
	<path id="Murrieta" fill="#8CCCF0" stroke="#000000" d="M393.782,418.884h0.899l0,0l2.601,0.101l0,0l-0.101,3.899l0.801,2.7
		l10.899,0.1l0,0l0.101,6.301l0,0l-2.601-0.101l0,0l-0.399,15.2l0,0v4l0,0v6.2l0,0l0.1,25.7l0,0h-0.6h-3l0,0h-0.9l0,0h-1.9l0,0
		l-0.199-0.2l0,0l-0.801-1.1l0,0l-0.6,1.8l1.5,1.3l0.8,2.5l-0.399,2.6l-0.7,2.101l-2.2,2.399l-0.3,0.301l-0.3,0.8l0,0l-1.301-0.101
		l0,0l4.101,5l-4.9,4l2.3,2.801l0,0l-4.5,4.3l2.801,5.1l-0.301,0.2l-2.899,2.4l0,0l-2.9,2.8l0,0l-2.899,2.6l0,0l-5.7,5.5l0,0
		l-1.5,1.3l0,0l-11.2-11l-1.5,0.2l-1-1.5l-0.1-1.2l-1-1.1l-7.2-7.4l-0.7,0.7l-2.4-2.8l0,0l0.5-0.5l0,0l-6.3-5.7l-5.399,4.9l-0.9-1.9
		l0,0l0.3-0.399l0,0l0.4-0.4l-1.8-5.9l-1.801-1.699l-0.899-2.7l1.1-2.5l-1-1.7l-4.1,0.3l0,0v0.7l0,0l-0.7,5.5h-1.6l0.199-11.7
		l-3.199-0.1l-2.101,1.899l-0.899,6.101l-1.4-0.101v-3.199l-4.5-4.7l-2.8,2.7l-1.5-0.301l1.2-9.1l8-5.7l1.899-1.5l-0.8-0.1l0,0
		l3.4-2.7l0,0l0,0l0,0l0.199-0.3l0,0l1.4,1.1l0.7,0.6l1.3,0.9l0,0l-0.6,0.8l0,0l8.699,6.7l0.7-0.6l0,0l1.9-1.7l0,0l4.6-4.1l0,0
		l1.8-1.601l11.4-9.7l0,0l2.1-1.8l5.101-4.2l0.2-8.6l24.899,0.399l0,0L393.782,418.884z"/>
	<path id="Moreno_Valley" fill="#8CCCF0" stroke="#000000" d="M321.882,116.584h8.4l0,0l1.5,1.8l0,0l0.1-1.1l21.101,0.2h4.399
		l-0.3,19.2l11.6,0.3l16.101,0.4l21,0.5l7.899,0.1v6.9h2.9v3.3l3,0.1v4.1l0,0h-0.1l0,0v5.1l0,0l6,1.3h3l0,0l2.399,5.3l0,0h2.3v3.7
		l0,0l3.7,2.4l0,0l0.101,4.9l0,0l8.1,0.1l0,0l2.9,2.4l8.1,11.3l0,0h-5l-5.2,4.7l0.101-4.6l-12.2-0.1l-1.101,0.8l-0.1,6.3h-6.8l0,0
		l0.1,6.2l0,0l-3.8-1l-6-8.3l-2.5-5.3l-2.6,4.4l-4.5,2.4l-1,2.8l-6.4,0.2l-5.6,1.9l-0.9,1.1l-6.5,8l-3.3-0.7l-1.7,1.9l-0.7,1.7
		l-2.6,3.3l-4.601,5.3l-1.6,0.3l-2.1-1.6l-0.2,0.7l2.1,4.4l0,0l0.4,0.9l0,0l0.7,1.7l0,0l0.3,0.4l0,0l-0.2,0.7l0,0h-6h-0.4l0,0
		l-9.8-0.2l0,0l-12.6-0.1l0,0v-0.2l0,0v-0.3l-0.101-6l0.2-13.2l0,0v-0.4l0,0l0.101-0.6l0,0l0.1-4.9l0.2-9v-3.7v-3.1v-3.1l0,0v-0.5
		l0,0l-6.4-0.2l-6.5-0.2l-12.3,0.1l0,0h-1.3l0,0l-1-3.7l0,0l-0.7-2l-2.2-6.6l-1.2-3.8l0,0l-0.899-2.6l0,0h1.2l0,0l0.899-0.1l0,0
		v-0.1l0,0l1.9-0.3l0.1-1.2h1.601v1.8l0,0h1.399l0,0l0.2-8.5l0,0l0.9-0.8l0,0l0.6-0.1l0,0l1.4,0.1l0,0l-2.7-1.9l0,0l-0.101-0.6
		l-0.1,1.2l-3-0.1l-7.6-2.3l-1.9-0.2l0,0l-0.1-0.4l0,0l0.3-8.2v-1l0,0l0.8-3.6l0,0h3.6l0.101,2.7h4.8v3.4h3.3l0.101,3.3l0,0l6.3,0.1
		l6.1-2.9l0,0l-7.399-0.2l0.1-6.2l5.4,0.1l0,0h2l0,0v-1.6v-4.6l0,0h-8.2l0.1-5.9l0,0l-0.1-2.8l0,0l-0.9-0.8l0,0l-1.8-0.6l-2.1-2.8
		v-1.4H321.882z"/>
	<path id="Menifee" fill="#8CCCF0" stroke="#000000" d="M378.482,329.484l-0.101,6.3l0,0l3.101,0.1l0,0l-0.101,6.3l0,0v6.2
		l0.101,5.8l0.899,4.4l6.4,11.7l2.7,4.9l2.5,5.4l0,0h-17l-8-0.2l0,0v-7.9l0.1-5l0,0l-10.5-0.3l-1.9-1.7l0,0l-2.8-1.6l1.5-7.4
		l1.2-1.9l0,0h0.2v-0.3l0,0v-1.7l0,0l0.1-10.3l0,0l0.601-1.1l0.3-3.5l-0.8-2.8v-5.6l0,0L378.482,329.484z"/>
	<path id="La_Quinta" display="none" fill="#8CCCF0" stroke="#000000" d="M1032.082,346.584l12.5-0.2l0,0v6.4l0,0h-6.2l0,0v6.4l0,0
		l6.2,0.1h2.3l0,0l-0.2,2.6l0,0l0.2-0.2l0,0l-2.3,2.3l0,0v1.6l0,0h-1.2l0,0l-0.1,3.2l-0.4,0.1l-0.3,0.8h2l0,0v2.5l0.1,12.7l0,0
		h12.601l0,0l-0.101,2.4l0,0v0.1l0,0v10.2l0,0h2.7l0,0v6.4l0,0h9.8l0,0l0.4,18.899l0,0h-6.4l0,0l0.2,9.8l2.8-0.199l0.2,3.399l0,0
		h-14.399l0,0l-0.101,2.9l-4.3-0.101l0,0v2.2v1.3l0,0l1.3,3.4l0,0l1.4-0.1l0,0l0.1,2.199l0,0l0.101,0.101l0,0l1.899,0.6l0,0l2.9,0.4
		h1.8l0,0v25.5l0,0l-25.3-0.3l-0.101-12.9l12.5-0.1l0,0l0.2-12.801l0,0l-40.2-0.399l0.4-22.8l0.4-2l0.1-26.101l0,0l0.2-25.3l7.7-0.2
		l9.5-5.6l-0.2-8.1l0,0l-0.601-0.1l0,0l-0.1,0.2l0,0h-0.2v-0.2l0.601-0.7l0,0l3.3,0.2l0,0v-0.8l-1-2.4l-4.601-4.8l-0.699-2.5l0,0
		v-6.6l0,0h3.399l-0.1,3.2l9.2,0.2L1032.082,346.584z"/>
	<path id="Lake_Elsinore" fill="#8CCCF0" stroke="#000000" d="M233.981,338.884l-3-0.1l0,0l0.4-9.6l12.4,0.3l-0.301,11.6l0,0
		l2.301,0.7l0,0l10.3,0.2l-0.101,7.9l0,0l1.7,5.1l0,0l10.601,0.3l-0.101,4.3l-0.6,2h-5.5l7.6,6.8l0,0l-0.1,0.2l0,0l5.1-0.8l0,0
		l1.101-1.1l0,0l2.199,2.3l0,0l-1.1,1.2l0,0l1.7,1.7l0,0l-2.7,1.7l0,0l3.2,3.1l0,0l0.6-0.9l-0.399-0.9l1-1.1l1,0.9l0.1,0.7l-3.2,3.3
		l1.101,1.5l5.8,0.1l-0.101-12.7l-3.199-0.1l-1-1.7l0.5-0.7l1.8-1.1l0.8-2.7l2.7-2.4v-4.3l-4.101-0.1l0,0l-0.3-0.2l0.3-2l-0.399-1
		l-2-1.7l-2.7-1l0,0l-0.3-1.4l0.3-3.3l2.1-4l-0.199-1.4l-1.101-3.1l0,0h3.9l0.3-17.6l-5.1-0.1l-0.101-3l18.4,0.2l-0.7,40.1h-3.4
		l-0.699,2.3l0,0l-2.9,0.9l0,0v3l0,0h7l0.1-3.2l0,0h4.5l0,0l1-3.3l0,0l1-0.1l0,0h2.9l0,0l0.1,3.3l0,0l-2.6,0.1l0,0v1.3l0,0v0.8l0,0
		h-0.2l0,0l-1.3,0.3l0,0v2.5l0,0h8.2l0,0l2.5,4.5l0,0l8.1,0.3l0,0v0.6v2.4h-3l-0.1,5.9h-3.3l-0.101,0.6l0,0l-0.3,9.6l5.101,0.1l0,0
		v3.3l1.199,0.8h3.801v-0.4l1.699-0.5h2.301l-0.101,2.7h1.7h5l0,0l3.3,0.1l0,0l7.601-0.1l0,0l13.5,0.1l0,0h1.5l0,0l-1.4,3.4l0,0
		l-0.1,1l0,0v1.899h-1.4l-0.2,6.4l0,0l0.101,0.3l0,0l-13.801-0.3l-10.8-0.2l-22.3-0.2l-0.4,0.7l0,0l-2.1,0.7l0,0l-0.3,0.2l-0.5,0.3
		l0,0l-2.4,1l0,0l3.8,9.7l0.101,6.399v1l0,0l-5.9,7.7l-3.8,5.101l0,0l-5.2-3.9l0,0l-1.7,2.5l0,0l-1.2-0.9l0,0l1.7-2.5l0,0
		l-1.3-0.899l0,0l0.4-0.601l0,0h0.1l0,0l-2.3-2.199l0,0l1.3-1.9l0,0l-0.3-0.2l0,0l-7-5.399l-2.3-1.7l-3.801,5.2l0,0l-0.6-0.5l0,0
		l3.8-5.2l-2.3-1.7l-2.2,3.1l-19.3-13.8l-2.3-1.899l-2.8-4.101l-2,2.601l0,0l1.699,1.3l0,0l-2.3,3.6l0,0l-0.8,1l0,0l-1.8-5.8l0,0
		l-1.7,2.5l0,0v0.2l0,0l-0.2,4.1l-2.899,0.101l0.1-6.801l0,0l2.9-4l0,0l-2.801-2.1l0,0l-0.899-0.8l0,0l-4.5-3.4l0,0l3.3-5.6l0.3-0.6
		l0,0l-1.899-1.4l1.6-2.7l-6.8,0.1l-0.3-0.1v-2.3l0,0l0.199-1.5l0,0l-13.8-0.2l0.101-12.9l9.6,0.2v-3.2l1.4,0.1l0,0l1.1-1.2l0,0
		l0.7,1.2l0,0h1.8l0,0h1.5l0,0l2.7,0.2l0,0l1.2-4.2l3.399-5.7l0.3-0.9l-0.5-0.6l-2.1-2.5l-2.4-2l-1.899-4.9L233.981,338.884z"/>
	<g id="Jurupa_Valley">
		<path id="_x36_3260" fill="#8CCCF0" stroke="#000000" d="M240.981,84.384l0.101,0.4l0,0l1.1,0.2l1.5,1.8l1.9,5.8l1.3,2.3l0,0
			l-0.9,1.1l0,0l-0.1,0.1l0,0l-1.7,1.8l0,0l-0.2,0.3l0,0l-1.3,2.1l0,0l-0.2,0.2l0,0l-3.3,5.4l0,0l0.101-0.4l0,0l-0.301,1.3l0,0
			l-1.5,3.4l0,0h-0.1l0,0l0.4,0.2l0,0l-5.301,6.4l0,0l-0.6,1.8l-1.6,2.1l-1.4,1.2h-0.5l0,0l-2.3,0.6l0,0l-1.8,0.4l0,0h-0.5l0,0
			l-2.2,0.4l0,0l-0.601,0.1l-2.8,2.9l-3.399,1.2l-1.5,1.2l0,0l-1.601,0.6l0,0l-4.3-0.3l0,0l-0.5-0.4l0,0l-0.1,0.4l-0.101,0.8
			l-7.8-0.1l-0.6,0.4l0,0l-0.301-1.3l0,0l-1.6-6l0,0l0.1-0.2l0,0l-0.3-1.1l0,0l-0.399-1.4l0,0l-1.2-3.8l0,0h-0.5l0,0l-2.3-12.8l0,0
			l3-1.7l3.1-2.9l1.2-0.2l2.6-1.8l3.101-2.5l-0.101-0.3l0,0l1-0.2l1-0.2l0,0l1,2.6l0.3,0.5l0,0l0.301,0.3l0,0h1.699l0,0l0.7,0.1
			l0.2,0.1l0,0l1.3-3.8l0,0l1.601-0.4l0,0l5.699-0.7l0,0l0.101-0.1l0,0l1.8,1.9l0,0l0.9-1.4l0,0l1.699,0.9l0,0l1-1.2l0,0l1,1.5l0,0
			l-0.8,2.1l0,0l-0.8-0.4l0,0l-0.2,0.3v0.2l0,0l1.601,0.9l2,0.4l1.6-1.4l0,0v-0.1l0,0l-1-0.7l2-3l0.7-4.1l2-3.6l0,0l1.8,1l0,0
			l1.4-2.1l0,0l3.1,0.9H240.981z"/>
		<path id="_x32_9644" fill="#8CCCF0" stroke="#000000" d="M186.382,71.384l-0.4,8.4l0.2,1.2l1.8,3.3v2l0,0l0.301,0.1l0,0v4.3l0,0
			h8.1l0,0l1,0.8l0.1,1.2l1.7,1.1h2.101l2.8-0.8l0.8,0.8l0,0l-0.2,0.3l0,0l-13.3,3.7l0,0l-12.5,3.5l-7.3,2l0,0l-3.601-2.9l-5.1-3.2
			l-3.5-2l0,0l-15.5-9.1l0,0l0.2-15.2l0,0l0.3-0.1l0,0l12.3,0.4l5.8-0.1l0,0l5,0.1h2.601l0,0l5,0.1l7.2,0.1l0,0H186.382z"/>
		<path id="path20014" fill="#8CCCF0" stroke="#000000" d="M156.782,125.684v-0.7l0,0l0.6,0.6l1.4,0.2l0.399,0.2l2.101,2.5
			l0.399,0.8l3.7-0.2l0.2-0.7l0.5-0.9l5.7,1l3.1,1.9l1.8,1.6h0.3l2.9-0.4l1.7,1.4l3.399-1l0,0l0.301,1.9l0,0h-0.4l-3.2-0.1l-1.3-1
			h-3.4l-4.5,0.7l-1.899,0.8l0.1,1.2l-2,0.6l-15.1-0.7l-0.101,1.6l-1.8,0.9h-1.399l0,0l-3.4-0.1l0,0l-2.6,2l0,0l0.1-2h0.6v-1.2h-1.1
			l0,0v-2.5l0,0l-3,2.8l0,0l1.3-5.3l1.601-1.5l0,0l0.399-0.3l0,0l4.7-3.5l3.1-1.3L156.782,125.684z"/>
		<path id="_x37_6022" fill="#8CCCF0" stroke="#000000" d="M223.082,71.384l-0.8,1.2l0,0l0.6,0.5l0,0l0.8-1.2l0,0l1.3,1l0,0
			l-4.899,13.4l0,0l-0.2,3.3l0,0l0.4,0.2l0,0l-0.7,2.5l0,0l-0.101,0.1l0,0l-5.699,0.7l0,0l-0.5-0.2l-4.5-2l-5.2-1.3l0,0l-0.7-2.6
			l0,0l4.4-2.4l2.199-1.8l0,0l0.601-0.9l2.6-0.3l0.3-1.9l-0.5-1.4l-0.699-0.8l0,0l0.5-0.5l0,0l2,0.3l0,0l5.3-2.7l0,0l-0.2-0.7l0,0
			l2.3-2.5l0,0H223.082z"/>
	</g>
	<path id="Indio" display="none" fill="#8CCCF0" stroke="#000000" d="M1040.681,300.984h2.301l0,0l3.899,2.6l5.3-0.1l1.2,0.6v3.8
		l0,0h4.2l0,0v0.1l0,0l0.6,0.5l0,0l6.301,6.5l5.1,3.2l0,0h4.1l-0.1,2.6l12.3-0.1l3,2.4l2.9,3.7l3.1,0.5l3.3,2.6l4.601-0.4l1.399,0.4
		l1.4,0.8l1.7,2.7l5.899,7.1l2.7,1.4l2.2,0.3l2,1.7l0,0v4.8l0,0v0.4l0,0l-6-2.9h-6.6l0,0v6.5v0.2l0,0l-6.5-0.1l0,0l0,0h-1.301l0,0
		h-1.699v1.5l2.399,2.4l2,1.2l2.601,0.8l2.5,0.2l0,0v0.1l0,0v0.2l0,0h-3.2h-2l5.2,5.1l0,0v1.1v2.1v1.2v3.2l0,0h-3.301l0,0l0.2-3.2
		h2.8l-1.3-1.7l-4.2-4.9h-3.6l-0.8,3.2l0,0l0.6,0.9l0,0h3.3v5.5v0.2l0,0h-0.199h-0.5h-2.4l0,0l-0.1-2l0,0l-1.101-1.1l0,0l-2-0.1l0,0
		v3.2l0,0l-12.399,0.1l0,0l-0.101,5.6l0,0l3,0.1v7.3l0,0l-3,0.1l0,0l-0.1,12.6l0,0h-12.601l-9.8-0.1l0,0h-2.7l0,0v-10.2l0,0v-0.1
		l0,0l0.101-2.4l0,0h-12.601l0,0l-0.1-12.7v-2.5l0,0h-2l0.3-0.8l0.4-0.1l0.1-3.2l0,0h1.2l0,0v-1.6l0,0l2.3-2.3l0,0l-0.2,0.2l0,0
		l0.2-2.6l0,0h-2.3l-6.2-0.1l0,0v-6.4l0,0h6.2l0,0v-6.4l0,0l1.7-7.7l0,0h-1.4l0,0l-0.3-4.9l0,0l2.9-0.3l0,0l-0.9-1.5l-2.9-2
		l-11.5-5.6l-6.399-2.5l0,0l1-1.2h5.399l0,0v-6.4l0,0h3.2l0,0h2.601l0,0v6.4l0,0h-2.7l0,0v2.9l0,0v0.5l0,0h6.2l0,0h3.1l0,0v-9.9l0,0
		h0.8l0,0l1.8,0.1l0,0h0.9l0,0l0.2-6.4l0,0h-7.7l0,0L1040.681,300.984z"/>
	<path id="Indian_Wells" fill="#8CCCF0" stroke="#000000" d="M1000.082,333.684l0.6,12.9l0,0h0.2l0,0h10.101l0,0l0.1,1.2l0,0v3.6
		l0,0l-1.1,0.7l-0.2,0.4l0,0l8.5,3.7l4.2,0.7l0,0l-0.601,0.7v0.2h0.2l0,0l0.1-0.2l0,0l0.601,0.1l0,0l0.2,8.1l-9.5,5.6l-7.7,0.2
		l-0.2,25.3l0,0l-36,0.2v-10.1l-0.3-1.7l0,0v-11.6l0,0v-0.1l0,0l-0.101-2.9l-0.199-2.2l0,0l0.1-5.9v-0.7v-0.3l0,0l2.1-0.2l0,0
		l-0.199-0.4v-0.5l0,0v-0.1l0,0l3.3,0.1l0,0l0.8,0.3l0.1-0.1v-1l0,0h2.9l0,0l0.1-0.4v-0.3l0,0l3.4-0.1l0,0l-0.1-1.1l0,0h-0.301l0,0
		l-0.1,0.1l0,0h-1.6l0,0l-0.101-0.1l0,0l-0.2-4.8v-6.5l0,0h2.4l7.1-0.1l0,0l0.101-1.6l0.2-11.1l0,0l5.699,0.1l0,0L1000.082,333.684z
		"/>
	<path id="Hemet" fill="#8CCCF0" stroke="#000000" d="M490.882,297.984h3.2l0,0v5.2l0,0l-6.2-0.1v-2l2.9,0.1L490.882,297.984z
		 M494.082,304.384L494.082,304.384L494.082,304.384l9.8,0.3l9.3,0.1h16l3.2,0.1h6.2l0,0v4.4l0,0h1.5l0,0v-0.2l0,0l0.7-0.8l0,0h4.1
		l0,0l-0.1,9.3l0,0h3.899l1.5-1.6l0.801-1.9l0,0v-0.8l0,0l2.6-0.3l0,0l-0.1,0.9l0,0l0.399,3.9l3.101,3.2l3.399,2.8l0.4,0.4l0,0
		l0.1-1.9l1.3-0.8l4.4-0.1l3.4-1.5l0,0l-4.4-3.6l0,0v-1.8l0,0l0.5,0.3l0,0l3.7-0.2l0,0v-2.6l0,0l3.1,0.1l0,0v3.9l0,0h3.101l0,0v-1.4
		l0,0l0.699-0.1l0,0h2.5l0,0v1.8v1.6l0.101,3.2l0,0l3.399,0.1l0,0v3.1l0,0h1l0,0v0.4l0,0v1.2v0.1l0,0l0.101,1.4l0,0h-7.7l0,0h-6.3
		h-3.101h-6.3l-3.2-0.1l0,0v0.2l0,0l0.101,2.4v0.7l0,0h-2h-0.2l0,0l-0.9-0.9l0,0v0.1l0,0l-1.5-0.3l-0.1-0.7h-1.6l0,0v0.1l0,0
		l-1.301-0.4l0,0h-1.1l0,0v2l-0.7,0.6l0,0v0.6v0.3v1.7l-0.1,3.2l0,0h2.1l0,0v1.6l0,0l-2.1-0.1l0,0v3.3l0,0l-1.7,1.7l0,0h-1.4l0,0
		v1.6l0,0v0.6l0,0v0.4l0,0l1.601,0.5l0,0v0.3l0,0v1l0,0l-1.601,0.6l0,0l-3.199,0.4l0,0v7.4l2.399,1.4h2.5l-0.1,3.2h-2.4v5.5h-1.399
		l-0.301-0.8l-0.6-0.4v1.3l0,0h-3.3l0,0l-0.2,15.2v0.2l0,0h-6.1h-5.9l0,0l0.2-11.6l0,0l-7-0.1v-7.9h-12.9l-0.1,2.9l-3.7-0.1v-2.9
		l0,0h-1.1l0,0l1.1-0.9v-3.5h-2.1l0,0h-6.301l0,0l0.101-1.8l0,0l-9.8-0.3l0,0l0.199-9.2l0.9-3.4l0,0l4.1-13l0,0l-7.899-0.1l0,0
		l-7.7,0.1l-1.9,1.1l0,0l-3.3-1.2l0,0h-1.8l0,0l-0.7-2l0.101-0.9h2.3l0.2-9.8h9.699l0,0h3.101v6.4l0,0h10.1l0,0v-6.3l2.101-8.3
		L494.082,304.384z"/>
	<path id="Eastvale" display="none" fill="#8CCCF0" stroke="#000000" d="M171.582,103.284l3.399,7.3l0,0l-2.699,2.2l-1,1.8l-5,2.8
		h-1.5l0,0l-0.101,4.7l0,0l-8,0.1l0,0l0.101,2.8l0,0v0.7l0,0l-4.801-0.7l-3.1,1.3l-4.7,3.5l0,0l-0.399,0.3l0,0l-1.601,1.5l-1.3,5.3
		l0,0l-0.2-0.1l0,0l-1.899,0.3l0,0l0.1-5.7l0,0l-1-0.1l0,0l-6.2-0.1l0,0l0.3-9.5l0,0v-8l-0.1-8.3l0,0l8-2.9l4.1-1.6l7.601-2.6
		l5.5-2.4l2.3-0.7l0,0l3.5,2l5.1,3.2L171.582,103.284z"/>
	<path id="Desert_Hot_Springs" fill="#8CCCF0" stroke="#000000" d="M842.282,115.584l3.3,2.8l1,2.9l0,0l0.1,7.3l0,0l10.5,0.1l0,0
		v0.1l0,0h2.101l0,0v-0.1l-0.101-8.8l0,0v-0.5l0,0l0.2-3.7h5.7v6.8h2.4l0,0h3.1l0,0h3.7v1.4l1.3,1.1h1v-2.5l0.9,0.1l0,0h1.5v0.2l0,0
		l2.1,2.3l0,0l0.5-0.5l0,0l-0.3-0.5l0,0l2-1.2l0,0l-1.101,1.2l0,0l1.601,2l0,0l0.399,0.4v2.3v0.1l0,0h0.9l12.2,0.1l-0.2,12.8h2.4
		l0,0l2.899,0.1l0,0l7.101,0.1l-0.101,11.9l0,0l0.101,0.8l0,0l-12.801-0.2l0,0l-0.1,6.7l0,0l-7.4-0.1l0,0l-5.3-0.1h-2.8l0,0
		l-0.4,6.4l0,0l-3.1,0.1l0,0l0.2-7.6l0,0l-1.601,1l0,0h-10.8l0,0l0.101,6.6l0,0h-3.101l0,0v-1.5l0,0v-0.9l0,0h-3.1l0,0l-0.101-10.7
		l-0.1-12.8l0,0h-3l-9.6-0.1l-31.5-0.1l-6.2,0.4l0,0l0.1,6.2l0,0v6.6l0,0h-3.3l0,0l-7.3-0.3l-2.3-0.5l-12.601-0.2l0.3-37.9l12.5,0.5
		l27-1l9.101,0.2l0,0L842.282,115.584z"/>
	<path id="Cathedral_City" fill="#8CCCF0" stroke="#000000" d="M896.082,208.184l1-2.2l0,0l2.4,3.2l0,0l3.899,5.6l0,0h4.9v-9.2
		l12.899-0.1v26.1l-0.1,12.8l0.1,7.4v4.9l0,0v0.2l-0.1,4l0,0v4.8l0,0l0.1,3.9l0,0v0.1l-0.199,12.8l0,0h-0.7h-5.8l0,0v6.4v6.3l0,0
		h6.3l0,0v6.1v0.3l0,0h-1.601l0.101,5.5l-3.101-2.5l-4.699-0.1v3.4h-3.2h-1.4l-4.1,2.6l-4.601,5.3l-0.199,1.9l-0.9,2.5l-1.4,2
		l-0.399,0.1l-1.101-1.8l0,0l0.601-1l-3.3-1.4l-0.101-0.6l1.601-5.7l1.6-2.9v-1.1h0.9l0.199-0.1l0.101-8.2h-2.5l-0.101-1.9h-1.199
		l0.1-1l-1.6-0.1v-1.3h-0.7h-1.101l0.101-3.1l0,0l0.899,0.6l0,0l-0.1-0.6l0,0l0.1-1.7h0.101l0,0h0.8l0,0v-1.6h2.1l0.101,6.2l1.2,0.1
		l0,0l0.699-0.1l0,0h1.101l0,0h0.2v0.3l4.6-0.2h1.5l0,0v-1.4v-0.4l0,0l-3.2-2.9l0,0l-2.899-3.1l-0.101-4.8l0.101-9.9l0,0v-0.6l0,0
		v-2.3l0,0h-1.601h-7.8l0,0v-3.4l0,0l-3.1-0.1l0,0v-9.3l0,0l-0.101-12.6v-12.9v-7.1l-0.1-2.2l0,0l3.2,2.9l9.399,6.7l0.4-0.2l0,0
		h-0.101l0,0v-12.9h-9.399l0.1-6.4h4.5l-0.1-5.2l0,0L896.082,208.184z"/>
	<path id="Canyon_Lake" fill="#8CCCF0" stroke="#000000" d="M327.681,353.684l0.601,0.2l0,0l2,0.4l0,0h1h0.5l0,0l-0.3,18.4l0,0
		l0.5,7.3l2.5-3.2l0,0h9l0,0h0.6l0,0v3.2l3.5,0.1l0,0l0.5,3.6v2.1l0,0l0.1,0.9l0,0l-0.399-0.2l0,0h-3.7l0,0l-0.1,6.3l0,0l-7.601,0.1
		l0,0l-3.3-0.1l0,0h-5h-1.7l0.101-2.7h-2.301l-1.699,0.5v0.4h-3.801l-1.199-0.8v-3.3l0,0l-0.4-2.5l-2.2-3.1h-2.2v-4.1l0,0l0.101-0.6
		h3.3l0.1-5.9h3v-2.4v-0.6l0,0l0.101-13.6l8.399,0.2l0,0V353.684z"/>
	<path id="Calimesa" fill="#8CCCF0" stroke="#000000" d="M492.382,100.384l9.4,0.1l3.2,0.2l0,0l5.399,0.1l0,0l8.9,0.6l4.899-0.2l0,0
		l0.101,3.2h3.2v1.3l0,0v1l0,0l-0.2,6.8l0,0l-6.3,0.2v6.4l-5.7-0.1h-0.601l-12.5,0.1l-0.1,6.1h-2.1l0,0l-0.801,6.5l0,0l-5,0.3
		l-0.5,0.3l0,0l1.7,0.5l0,0l0.9,0.4l0,0l0.7,1l0,0l1.399,1.1l0,0l0.8,0.5l3.7,2.5l0,0l6,5.3l0,0v0.3l-0.1,0.4l0,0l-6.7,0.5l0,0
		l-11.5-0.1l0.1-7.6l-21.899-1.8l0,0l-3.5-3.7l-3.4-2.5l-2.8-1.7l0,0l-1.5-0.9l0,0l0.1-0.3l0,0l-6.6-0.5l0,0v-1.6l6.5-5.7l0.1-5.9
		l-17.6-0.3v3.6l-8-0.1l0.1-3.6l-6.8-0.1l0.101-6.4l6.8,0.1l0.2-5.9l0,0l12.5,0.1l0,0l27.699,0.3l0.9-0.1l0,0l4.1-0.3l0,0l3.7-0.1
		l0,0h4.8L492.382,100.384z"/>
	<path id="Corona" fill="#8CCCF0" stroke="#000000" d="M95.481,175.084l0.601-0.8l0,0l4.6,6.3l1.601,2.1l0,0l2.6-1.9l0,0l3.8,5.5
		l0.5,0.9l0,0l2.101,2.8l0,0l0.399,0.5l0,0l0.2,2.6l0,0l1.1-0.7l0,0l1.4-1l0,0l0,0l0,0l2.3,0.3l0,0l0.7,1.4l0,0l0.6-0.4l0,0
		l-1.399-3.9l0,0l1.899-0.6l0,0l0.7-2v-0.1l0,0h1.7l0,0v0.1v1.1v0.9l0,0l2.4,3.4l1.399-0.1l1.5-2.3l1.2-0.1l1.2,0.7l1.899,0.8l0,0
		l1.101-0.4l0,0l-0.601-1.5l0.2-1.5l0.5-0.8l2.5-1.5l4.5-1.5l3.2-2.5l0,0l0.8,1.3l-0.1,1.7l0.6,0.6h6.601l0.1-4.9l0,0h1.3l-0.1,7.6
		l2.399-0.8l0,0h0.301l2,2.3l3.6,5.2l0,0l-1.4,0.8l0,0l1.601,2.6l0,0l-1.4,1l0,0l-3,1.2l-3.8,1.5l0,0l0.6,1.4l0,0l-2.6,1.6l0,0
		l-1.1-1.8l0,0l-5.4,2.2l-6.6,2h-0.2l0,0l1.6,2.3l-1.399,1l0.899,1.4l0,0l2.101-0.3l1.399-0.9l0,0l1.8,2.6l0,0l2.301-2l0,0l0.3,0.2
		l0,0l2.399,1l0,0l0.4,0.2h0.5l0,0l0.4,0.2l0.6,2.3l4.3,1.7l1.5-0.2l3.3-2.7h5.801l-0.101,4.6l5.4,0.3l-0.7,1.1l-1.3,0.3l-0.7,5.5
		l-0.8,1.8l2.6,2l1.601,3.6l-0.301,12.8l-5.5-0.1l-6.3,3.9l0.601-4l3.399,0.1l0.2-8.5l-4.2-0.1l0.101-4.5l-3.101-3.2l-6.2-0.1v-2.7
		l-5.3-0.1l-0.399-0.5l0,0v0.3l0,0l-0.7-0.9l0,0h-2.101l-0.199,4.3h-3.801v-1.6l-1.399,0.2l0,0l-0.3,0.2l0,0l-0.9,0.5h-0.4l0,0
		l0.101,7.2l0,0l2.899,2.9l0,0l-0.8,1.5l0,0l-0.3,0.6l-0.5,0.9l0,0l-0.5,0.9l0,0l-0.3,0.4l0,0l-0.8,5.8l0,0v0.9l0,0l-0.101,3.7v1.1
		l0,0h1.5l0,0h1.5l0,0h2.5l0,0h0.9l0,0l2.7,0.1l0,0l1.199-0.7l2.5,3l-1.399,1.5l-0.3,5l-3.801,4.2l-0.1,5.7l-20,0.4l0.2-8.1
		l-16.5-10l-1.3-1.6l-10.601-12l-3.1-3.3l-0.101,1v4.1l-4.6-0.2l-0.8-2.2l0.2-2.5l2.1-1.6l-1.1-2.7l-3.301-3l-4.3-4.4l0.8-4.4
		l-15.899-6.1l-0.2,6.1l-6.1-0.1l0.1-8.3l-4-0.9l0,0l-0.1-7.5l0,0l-0.801-0.3v-0.8l3-0.1l6.801-2.1l7.3,0.3l-1.101,1.8l0,0l6.7,6.9
		l0,0l-0.1,0.4l-0.5,0.5l0,0l4.899,5l-0.5,2l2-2l-0.6-1.2l-0.7-1.4l-2.1-1.4l2.5-2.8l3.8,1.6l0,0l-2.1,2.3l0,0l0.8,1.1l0,0l6.3-6.4
		l-0.5-0.4l0,0l0.8-0.7l0.3-0.5l0,0l-1.5-0.6l0,0l0.101-0.4l0,0l-2.5-0.7l0,0l0.2-0.6l0,0l-0.2-0.1l0,0l-6.7-1l-11-2.4l0,0l10.4-1.8
		l0,0l-2-1.7l0,0l1.399,0.1l1.8-0.7l1.301-2.9l-2.7-2.7l-5.5-0.1l-0.8-5.5l2.3-0.6l0.899,1.8l2.101-0.8l-1.5-3.9l0,0l-0.5-1.1
		l2.5-1.1l0.6,2l0.9-1.1l0.1-0.1l0,0l4,1.8l0,0l1.5-3.5l0,0l2.101,1.3l0,0l0.5,0.3l7.3-8l2.1,2l0,0L95.481,175.084z"/>
	<path id="Coachella" fill="#8CCCF0" stroke="#000000" d="M1120.082,348.684l2.2,1.9l2.399,2.8l2.5,5.6l0,0h-1.1l0,0v3.2l0.1,3.3
		l0,0h-3.8l0,0l-2.3,3.1l0,0v3.3l0,0l6.2,0.1l0,0l0.1,6.5l18.601,0.1v-9.6l0,0l2.699,1.1l14.7,3.4l3.8,0.3l3.7-0.5l0,0v24l-9.5,0.1
		l-0.899,0.101l0,0l-0.5-0.101l0,0l-19.5,0.2l0,0l-7-0.1v1.399l0,0l1,2l0,0h5.3l0.1,3h2.7l0,0h0.5l0,0l3,3.3l0,0v3.101l0,0l9.1,0.1
		l0,0l0.101,3.101l-3,2.899l-3.101,0.101l-1.399,3v1l0,0v2.699l0,0l-7.3-0.1h-0.5l0,0l-2-2.4l-1-3.6l-3.101,0.1l0,0l-4.899-6.899
		l0,0h-0.5l-4.9,0.1h-2.6l-12.7-0.1l0,0l0.3,12.8l0,0h-12.6h-3.301l0,0l0.101-6.3l0,0h3.1l0,0l-0.3-6.5l0.3-12.5v-6.4v-4.6l0,0h-1.5
		l0,0l-1.7-1.8l0,0h-3.1l0,0v3.3l0,0h-3.1v-0.9l0.699-0.1l0.4-0.6v-1.7l0,0h-1.2l0,0v-7.3l-3-0.1l0,0l0.101-5.6l0,0l12.399-0.1l0,0
		h3.2l0,0h2.4h0.5h0.199l0,0h3l0,0h3.301l0,0v-3.2v-1.2v-2.1v-1.1l0,0v-0.5l0,0v-4.6l0,0v-0.2l0,0v-0.1l0,0v-6l0,0v-0.2v-6.5l0,0
		h6.6l6,2.9l0,0V348.684z"/>
	<path id="Blythe" fill="#CCCCCC" stroke="#000000" d="M2034.082,481.685h3.6l0.4,12.699l0,0l-16.3,0.5l0.3,6.5l-2.9,0.2l-0.199-6.6
		l-13.101,0.2l-0.1-10l-2.8,0.1v-3.2L2034.082,481.685z M2217.282,373.984v-0.1l0,0l4.1,1.7l0,0l3,1.2l11.601-0.1v1.2l0.399,20.9
		l0,0l-2.6,0.1l0,0v0.101l0,0l0.2,6.199l0,0l3.3-0.1l0,0l0.2,6l0,0v0.4l0,0l6.199-0.301l6.4-0.1l0,0l0.3,7.9l-1.399,4.8l0,0
		l1.3-0.101l18.899-0.6l12.5-0.4l0,0l-0.399-12.699l0,0h0.1l0,0l-0.1-0.101l0,0l-0.101-12.899l0,0l20.301-0.7l0,0l0.399,0.899
		l0.2,1.7l-0.1,1.3l-0.4,0.9l-0.8,1.4l-0.101,0.1l-0.899,2.1l-1.3,2.601l0.1,2.2l0.8,3l0.3,0.8v0.1l0,0l-0.399,0.2l0,0l-6.101,2.3
		l-4.699-1l-1.601,0.8l0,0l-0.3,0.301l0,0l0.1,1.3l14.101-0.101l0,0l0.2,1.101l0.1,3.899l-1.1,2.601l-0.2,0.6l-0.7,1.8l0.2,4.101
		l1.3,3.5l1.6,1.899l0.801,2l-0.101,2.601l-1.399,2.2l-1.7,2l-0.7,1.199l-0.4,0.601l-6.899,11.7l0.2,5.3l0.199,4.2l3.301,10l0,0
		l0.199,0.3l0,0l-7.399,0.3l0.2-2.5l-1.5-2l-0.101-0.899l0.2-1.101l1.3-1.899l0.2-1.2l-0.9-4.2l0.101-2l1.1-2.4l-2.1,0.101l0,0h-0.3
		l0,0l-16,0.5l-3,0.1l0,0l-0.2-6.6l-3.9,0.1l-0.1-3.1l-5.7,0.199l0,0l-0.1-1.3l0,0l-11,0.3l0,0l-1.2,0.601l0,0h-0.2l0,0v1.2l0,0
		l-1.5-0.801l0,0l-0.2-5.3l0,0h-1.8l0,0l-9.3,0.101l0,0v-0.301l0,0l-17.101,0.101l0,0l1.601-3l0,0l15.399-0.101l6.301-0.199l0,0
		l-0.101-3l0,0l-0.2-3.4l0,0l4.9-0.2l0,0l-0.1-0.2l0,0l-1.5-1.5l0,0h-0.101l0,0l-0.1-4.5l0,0v-0.5l0,0l-0.2-6.199l0,0l-9.7,0.3h-2.1
		l0,0l-1.101-6l0,0h-0.199l0,0l-0.301-19.2l0,0l-3.5,0.1l0,0h-0.1l0,0l-6.1,0.2l0,0l-12.4,0.3l0,0l-0.2-5.399l6.101-0.1l-0.2-7.6
		l0,0h4l0,0l-0.101-6.5h2.301l0,0L2217.282,373.984z"/>
	<path id="Beaumont" display="none" fill="#8CCCF0" stroke="#000000" d="M545.482,139.084l8.399,0.1l0,0v0.2l0,0l-0.1,1.3l0,0l1,0.1
		l0,0l-0.101,1.6l0,0l3.4,0.1l0,0l-0.3,9.4v0.2l-0.101,17.6v0.9l0,0v3.7l0,0v10.2l0.101,3.9l0,0l4.399,1.7l0,0l-0.1,9.4l8.1,0.2
		l-0.1,6l12.7,0.1h0.399v3.9l-4.199,2.7l-5.601,0.2l-0.2,12.4l3.7-0.1l-0.2,7.9l-3.399,2.6l-4,1h-9l-0.101,7.6l-3.3-0.1l-0.399,13.1
		h-1.7l0,0l0.1,0.1l0,0l-10.2-0.2l0.4-6.8l0.4-6.5l-9.7-0.2h-2.101l0,0h-0.3l0,0l-9-0.2l-0.1-2.9l0,0l0.1-0.7l0,0l-6.399-0.1
		l0.199-8.6v-2.1l-2.1-0.1v-7.9l0,0l2.3-0.1l3.8-2.2l1.9-2.5l0,0l3,0.2l0.3-5.1l4.101-0.1l0.5-7.5l17.6-0.1l0.1-13.8l-4.5-0.1v-4.5
		l-3.1,0.1l0,0l-0.1-2.1v-0.6l0,0v-5.6l-12.601-0.2l-0.1,2.6l-2.7,0.1v-5.8h-3.1l-0.101,3.1h-3.2l0.2-4.1l0,0l-1.5-2.7l0,0l-5.1-0.1
		v-6.2l0,0l-7.8-0.1l-4.7,0.8l0.3,5.7l-6.9-0.2l-0.3-7.4l0,0l-0.3-10.5l22.3,0.2l0.101-0.7l0,0l-6-5.3l0,0l-1.601-1.4l0,0l-6-5.3
		l0,0l1-0.4l11,0.1l0,0l1,0.9l0,0l-0.1,1.4l0,0l2.2,0.9l0,0l1.199-2.7l0,0l0.601-0.5l0,0l8.399,0.1l0,0l0.7,7.5h0.7l0,0l-2.4,5.2
		l0,0h3.601l0,0l0.5,2.5l-0.2,1.1l0,0l1.7-1.2l0,0l0.1-2.4l3.2-1.5l0,0v-11.2l0,0h6l0,0l1.8,4.1l0,0l-0.1,1.5l0,0l0.6,0.8l0,0h1l0,0
		L545.482,139.084z"/>
	<path id="Banning" fill="#8CCCF0" stroke="#000000" d="M596.181,75.984l12.7,0.1l0,0l-0.1,12.2l-10.101-0.2h-2.6v2.3l-3.3,0.1v2.2
		l-3.101-0.1l-0.1,13.9h1.9v6.6h-2.2l-0.101,6.7l6.2,0.2l-0.1,0.8l0.399,0.7l0,0l-0.1,13l2.8,0.1v5.4l7.7,5.3l0,0l2.2,0.1
		l-0.101,7.2l12.9,0.1v0.4l-0.2,5.2l0,0v5.4l-0.1,1.8l0,0l12.3,0.1l0.3-6.8l12.3,0.1l0,0v0.3v6.1v0.3l0.101,0.3l0,0l-0.101,0.4
		l-2.5,0.7l-10.199,2.7v3.4l0,0v1.6l0,0l-0.101,3.7l-0.1,9.7l-6.2-0.1v-2.9l0,0v-0.7l-6.2,0.1l0,0l-8.399-0.1l0,0h-3.601l-0.399-0.1
		l0,0l0.1,3.2l0,0l-0.1,3.4l-6.7-0.1l0,0h-0.5l0,0h-5l0,0h-0.3v-6.4l-6.5-0.1l0,0l-6-0.1l0,0v-6.4l0,0l0,0l-12.801-0.2l0,0l-0.1,6.2
		l0,0l-0.2,6.4l-7.7-0.1l0,0l-4.399-1.7l0,0l-0.101-3.9v-10.2l0,0v-3.7l0,0v-0.9l0.101-17.6v-0.2l0.3-9.4l0,0v-1.7l0,0h3.2v-1.6
		l3,0.1l0.1-6.4l0,0h6.3l0,0l-0.1,6.5l0,0l-0.1,4.2h3.1l2.5,7.1v1.3l0.4,0.2l-0.101,8.4l6.101,0.1l0,0l0.3-0.4l1-1.8l0.399-4
		l-0.199-2.4l0,0l-0.101-0.1l-0.2-2.7l0.101-3.4l0.3-1.1l1.6,0.3l0,0l0.4-2.4l0,0l4.8-2.3l1.601,1.1l0,0l0.899,0.3l0,0l0.4-1.4l0,0
		l-0.9-1l0,0l-1-1.5l0,0l-1-3.1l0,0l-0.1-2.6l0,0l-0.9-0.9l0,0l-3.7,0.1l0,0l-2.3-7.5l0.2-1.7l0,0l-0.3-0.6l0,0l-3.101,0.1l0,0
		l0.101,1.2l0,0l-3.9,0.3l0,0l-3.1,3.5l0,0h-2.7l-0.3-3.4l0,0v-0.2l0,0h-0.7v-9.1l-0.5-1.7l-0.3-4.5l-1.3-0.1v-6.4l0,0h2.399h0.4
		l0,0v0.8v2.2h6.399l0.101-3h2.7l0.6,1.4h1l0,0l-1.4,12.3l0.2,1.4l0,0l0.3,0.3l0,0l1.801-0.3l0,0v-0.9l0,0l1.199-4.6l0,0l0.7-0.6
		l0.5-3.1l-0.899-4.4l0.399-3.7l0,0l-1-0.6l0.101-5.9l3-0.1l0.1-2.2h3.2v-2.2h3.1l0.101-2.4h3.1L596.181,75.984z"/>
	<rect x="407.082" y="316.984" fill="#8CCCF0" stroke="#000000" width="86.6" height="25.4"/>
	<rect x="783.382" y="75.984" fill="#8CCCF0" stroke="#000000" width="62.2" height="42.4"/>
	<rect x="783.382" y="153.584" fill="#8CCCF0" stroke="#000000" width="48.9" height="63.9"/>
	<rect x="914.482" y="295.184" fill="#8CCCF0" stroke="#000000" width="51.699" height="12.8"/>
	<rect x="1022.181" y="357.584" fill="#8CCCF0" stroke="#000000" width="94.318" height="18.916"/>
</g>
</svg>
