<?xml version="1.0" encoding="utf-8" standalone="no"?>
<!DOCTYPE svg PUBLIC "-//W3C//DTD SVG 1.1//EN"
  "http://www.w3.org/Graphics/SVG/1.1/DTD/svg11.dtd">
<!-- Created with matplotlib (https://matplotlib.org/) -->
<svg height="1440pt" version="1.1" viewBox="0 0 1728 1440" width="1728pt" xmlns="http://www.w3.org/2000/svg" xmlns:xlink="http://www.w3.org/1999/xlink">
 <metadata>
  <rdf:RDF xmlns:cc="http://creativecommons.org/ns#" xmlns:dc="http://purl.org/dc/elements/1.1/" xmlns:rdf="http://www.w3.org/1999/02/22-rdf-syntax-ns#">
   <cc:Work>
    <dc:type rdf:resource="http://purl.org/dc/dcmitype/StillImage"/>
    <dc:date>2021-08-16T16:44:37.930825</dc:date>
    <dc:format>image/svg+xml</dc:format>
    <dc:creator>
     <cc:Agent>
      <dc:title>Matplotlib v3.3.2, https://matplotlib.org/</dc:title>
     </cc:Agent>
    </dc:creator>
   </cc:Work>
  </rdf:RDF>
 </metadata>
 <defs>
  <style type="text/css">*{stroke-linecap:butt;stroke-linejoin:round;}</style>
 </defs>
 <g id="figure_1">
  <g id="patch_1">
   <path d="M 0 1440 
L 1728 1440 
L 1728 0 
L 0 0 
z
" style="fill:none;"/>
  </g>
  <g id="axes_1">
   <g id="patch_2">
    <path d="M 216 1226.617366 
L 1555.2 1226.617366 
L 1555.2 206.182634 
L 216 206.182634 
z
" style="fill:#ffffff;"/>
   </g>
   <g id="PatchCollection_1">
    <path clip-path="url(#p6264abff46)" d="M 1486.02061 381.168839 
L 1485.112205 380.583262 
L 1481.793034 373.566885 
L 1481.234016 372.778202 
L 1479.888878 372.609387 
L 1478.866922 373.318938 
L 1477.984722 374.392496 
L 1476.071831 376.085922 
L 1475.617628 376.328594 
L 1473.931839 376.502685 
L 1473.538779 376.993304 
L 1473.25927 377.652737 
L 1472.158703 378.681454 
L 1471.59095 379.446398 
L 1470.892177 379.694345 
L 1470.385566 379.509703 
L 1469.328672 378.43087 
L 1468.778389 378.164458 
L 1467.590475 378.288432 
L 1463.895713 379.30396 
L 1461.179234 379.36199 
L 1460.096135 379.942292 
L 1459.196465 381.5645 
L 1458.43655 383.619296 
L 1457.510676 384.906511 
L 1456.235415 385.597598 
L 1454.436075 385.85082 
L 1451.22172 385.444609 
L 1450.042541 385.953692 
L 1449.859113 387.924081 
L 1451.247924 390.087024 
L 1453.938199 391.999382 
L 1459.196465 394.521058 
L 1460.672623 396.222397 
L 1461.65964 398.205975 
L 1462.795146 399.920503 
L 1464.75171 400.796231 
L 1465.179708 401.408186 
L 1465.336932 402.096635 
L 1465.240851 402.840476 
L 1464.908934 403.618609 
L 1464.332446 406.863024 
L 1462.978574 407.245495 
L 1461.318988 405.823756 
L 1459.510913 403.323182 
L 1459.196465 403.077873 
L 1457.53688 402.560877 
L 1455.728805 402.679575 
L 1452.217471 403.618609 
L 1450.025071 405.380616 
L 1442.967465 409.722329 
L 1438.83597 412.995759 
L 1436.809529 413.713224 
L 1431.254284 413.043239 
L 1429.874208 413.378231 
L 1428.66009 414.285612 
L 1428.109806 415.704714 
L 1427.699277 419.207627 
L 1426.886954 420.236344 
L 1421.899462 421.834812 
L 1419.453757 421.818986 
L 1416.946909 420.890503 
L 1414.431327 420.273272 
L 1407.513475 416.015967 
L 1404.893077 414.966148 
L 1399.722157 414.03239 
L 1388.498118 413.560235 
L 1377.448771 415.393461 
L 1372.085689 414.596865 
L 1366.495506 415.335431 
L 1362.442624 415.04528 
L 1358.223782 416.485484 
L 1357.009664 416.633197 
L 1355.760608 416.480208 
L 1353.288699 415.836601 
L 1350.615892 415.562276 
L 1337.994307 416.865318 
L 1336.622965 417.355937 
L 1334.596524 418.717008 
L 1333.600772 419.18125 
L 1332.439062 419.128495 
L 1329.827399 418.094503 
L 1327.73108 418.590397 
L 1325.687169 419.650767 
L 1323.223995 420.320752 
L 1315.755859 420.690035 
L 1308.698253 419.677144 
L 1303.099335 420.062254 
L 1297.657641 421.323091 
L 1293.561085 423.364699 
L 1288.267881 427.716963 
L 1286.494744 428.181204 
L 1282.62529 427.938533 
L 1279.148894 429.051657 
L 1275.410459 429.273227 
L 1267.942324 430.935 
L 1264.230093 432.475438 
L 1262.858751 433.419748 
L 1262.535569 434.722789 
L 1263.802095 436.69054 
L 1264.396052 438.36814 
L 1262.919894 439.201665 
L 1258.011014 439.871649 
L 1255.879757 440.54691 
L 1254.884006 441.074457 
L 1254.150294 441.939634 
L 1254.298783 442.78371 
L 1254.64817 443.648887 
L 1254.534619 444.572094 
L 1253.172012 445.838208 
L 1249.704352 446.655906 
L 1247.948685 447.616042 
L 1246.586078 448.987664 
L 1242.576868 451.235015 
L 1241.415158 452.179325 
L 1240.393203 453.234419 
L 1239.30137 454.147076 
L 1237.938763 454.648245 
L 1232.46213 454.996426 
L 1230.723933 456.088449 
L 1230.837483 459.317038 
L 1232.269968 462.08666 
L 1232.514538 463.48466 
L 1231.518787 464.613611 
L 1230.191118 465.093679 
L 1228.845981 465.167536 
L 1227.605659 464.676917 
L 1225.11628 462.070834 
L 1220.251074 458.873898 
L 1218.547815 458.182811 
L 1216.966841 458.346351 
L 1216.145783 459.227355 
L 1215.132563 462.376811 
L 1214.425055 464.022758 
L 1213.743751 465.109505 
L 1211.621229 467.156388 
L 1211.201965 468.712652 
L 1212.084166 470.284743 
L 1212.564572 471.624713 
L 1210.922456 472.500441 
L 1208.86981 472.917203 
L 1207.280102 473.486954 
L 1205.865087 474.415437 
L 1199.41454 481.474018 
L 1197.698179 482.782335 
L 1192.348199 484.618199 
L 1191.911466 485.288184 
L 1191.492202 487.461679 
L 1190.90698 488.421814 
L 1190.112126 488.975739 
L 1187.544135 490.178546 
L 1184.229331 492.29401 
L 1183.775129 493.043127 
L 1183.347131 495.211346 
L 1182.923499 496.15038 
L 1180.198285 498.851422 
L 1179.399064 500.428788 
L 1179.822695 502.338508 
L 1180.748569 503.172033 
L 1183.788231 504.81798 
L 1184.976145 505.709535 
L 1187.133606 507.999089 
L 1189.404618 508.927572 
L 1191.789181 509.444569 
L 1194.24362 510.478561 
L 1195.497044 511.929316 
L 1195.859533 515.273965 
L 1196.759203 516.819678 
L 1200.593719 519.504893 
L 1201.80347 521.050606 
L 1204.624765 526.051753 
L 1205.175049 527.560538 
L 1205.27113 528.578704 
L 1205.192518 530.382915 
L 1205.568109 531.532968 
L 1206.05725 532.239881 
L 1207.865324 533.775044 
L 1208.930953 535.568704 
L 1209.306544 537.378191 
L 1208.817403 539.235157 
L 1207.288837 541.171255 
L 1206.223208 543.218138 
L 1207.018062 544.953768 
L 1208.712587 546.309564 
L 1213.368161 548.56219 
L 1214.748238 549.585632 
L 1215.534357 551.099692 
L 1215.481949 553.056892 
L 1214.905461 554.903307 
L 1214.538606 556.839405 
L 1215.053951 559.107858 
L 1216.145783 560.685224 
L 1217.26382 561.935511 
L 1217.980062 563.32296 
L 1217.849042 565.311813 
L 1217.019249 566.810047 
L 1212.896489 570.37099 
L 1210.302295 573.705088 
L 1210.153806 576.46416 
L 1211.673637 579.043865 
L 1216.355415 584.377367 
L 1218.93214 586.445352 
L 1219.290261 587.816974 
L 1218.55655 589.816378 
L 1216.434027 593.07662 
L 1210.590539 597.117631 
L 1208.389404 599.829223 
L 1208.267119 604.302823 
L 1208.730056 605.33154 
L 1208.590301 606.291676 
L 1207.996344 607.119925 
L 1207.07047 607.78991 
L 1206.397901 608.866106 
L 1205.66419 611.234793 
L 1205.061498 612.316264 
L 1204.249175 613.033729 
L 1192.83734 617.639215 
L 1189.841351 619.939321 
L 1188.264745 623.078227 
L 1186.98075 626.554762 
L 1182.539174 632.890604 
L 1181.394934 634.02483 
L 1178.132538 635.734083 
L 1172.188601 640.57169 
L 1171.3064 641.763947 
L 1171.188482 643.325486 
L 1171.821745 645.60449 
L 1172.127458 647.719954 
L 1171.847949 650.209977 
L 1170.939544 652.25686 
L 1169.393509 653.005977 
L 1165.965155 652.473154 
L 1163.970092 652.583953 
L 1162.728963 653.148415 
L 1161.741946 654.957901 
L 1161.628395 657.202614 
L 1162.100067 659.489531 
L 1162.912391 661.40189 
L 1164.659323 664.036988 
L 1167.05262 666.959599 
L 1169.681753 669.475999 
L 1175.6912 672.84175 
L 1176.058056 675.352875 
L 1173.581779 682.474761 
L 1173.56431 684.323814 
L 1174.381001 687.89267 
L 1174.629939 689.952742 
L 1174.512021 692.400561 
L 1173.979206 693.769546 
L 1171.620848 696.481138 
L 1170.681872 698.51747 
L 1170.773586 700.189795 
L 1171.06183 701.81464 
L 1170.66877 703.729636 
L 1169.323632 704.993112 
L 1165.183403 705.866202 
L 1163.445205 706.470244 
L 1162.480025 707.857693 
L 1161.488641 708.775625 
L 1160.283258 709.173923 
L 1158.719753 709.039398 
L 1156.444374 708.311383 
L 1155.601479 708.548779 
L 1155.234623 709.854459 
L 1153.732262 712.864115 
L 1147.740284 714.008892 
L 1136.319715 713.887557 
L 1124.977757 715.525591 
L 1122.401032 715.43327 
L 1115.426405 713.921847 
L 1108.600267 713.629059 
L 1107.054232 713.180643 
L 1104.154325 711.700874 
L 1099.358996 711.23927 
L 1081.103554 704.797919 
L 1078.251687 704.600089 
L 1073.766439 705.299089 
L 1071.504161 706.082496 
L 1070.097881 707.509512 
L 1069.914453 709.131719 
L 1070.202697 710.664244 
L 1070.045473 712.175666 
L 1068.543111 713.724017 
L 1067.433809 715.209062 
L 1067.949154 716.72576 
L 1070.425431 719.215783 
L 1071.180979 720.553115 
L 1072.30775 724.427949 
L 1073.050196 726.050156 
L 1075.059168 729.02816 
L 1075.801615 730.555409 
L 1076.404306 732.5469 
L 1077.273405 734.514651 
L 1078.553033 735.316522 
L 1081.86347 735.778126 
L 1086.405493 737.748515 
L 1090.004174 737.107545 
L 1090.847069 738.207481 
L 1091.558943 742.245854 
L 1092.065554 743.831133 
L 1092.43241 744.356043 
L 1093.20106 745.010201 
L 1094.598605 745.688099 
L 1095.249338 746.154979 
L 1095.576888 746.824964 
L 1095.52448 749.29916 
L 1093.795017 755.743148 
L 1093.655262 757.671333 
L 1093.960975 759.636446 
L 1094.703421 761.469673 
L 1095.873866 763.025937 
L 1096.5377 763.479627 
L 1098.896059 764.257759 
L 1099.494383 764.801133 
L 1100.118911 766.441805 
L 1100.555644 767.190922 
L 1105.010322 772.268563 
L 1106.351092 775.441759 
L 1105.748401 778.794321 
L 1091.410454 791.036053 
L 1089.768338 791.977725 
L 1087.934059 791.827374 
L 1085.916352 791.136287 
L 1084.920601 791.542498 
L 1082.090571 796.984147 
L 1081.444206 797.899442 
L 1080.417883 798.35577 
L 1077.967811 798.144751 
L 1077.129283 798.318842 
L 1070.801021 802.243792 
L 1067.232912 802.507566 
L 1061.581586 799.63771 
L 1058.297354 800.19691 
L 1054.32745 803.10897 
L 1052.785782 803.494079 
L 1052.025867 803.349004 
L 1051.30089 802.998185 
L 1050.497301 802.755513 
L 1047.763352 803.28306 
L 1046.025155 803.235581 
L 1042.623004 803.697185 
L 1039.806076 805.56734 
L 1037.570003 808.458298 
L 1035.945356 811.937471 
L 1037.526329 823.005411 
L 1036.687802 825.970226 
L 1036.194294 826.439743 
L 1034.006261 828.130532 
L 1031.936146 831.076882 
L 1029.071177 833.268841 
L 1028.154038 834.643101 
L 1028.302527 836.639867 
L 1028.73926 837.441739 
L 1029.346319 838.111724 
L 1030.084398 838.615531 
L 1030.809375 838.924146 
L 1031.394597 839.369924 
L 1031.612964 840.14278 
L 1031.770188 841.933803 
L 1032.61745 845.312742 
L 1032.35541 846.565667 
L 1031.333455 848.567708 
L 1026.878777 855.407357 
L 1025.38515 856.676108 
L 1021.882551 857.929033 
L 1020.179292 859.050071 
L 1017.611302 862.341965 
L 1016.030328 866.208885 
L 1015.619799 870.4319 
L 1016.510735 874.823731 
L 1018.698767 880.531791 
L 1019.008848 882.678908 
L 1018.912766 884.899881 
L 1018.323177 889.265334 
L 1018.283871 893.583308 
L 1017.637506 897.898643 
L 1017.567628 900.10379 
L 1019.222847 909.768454 
L 1021.886918 917.533949 
L 1022.109652 918.858092 
L 1021.607409 919.802401 
L 1017.558894 922.930756 
L 1015.261678 925.494635 
L 1006.011672 940.213201 
L 1004.806289 941.616476 
L 1003.513559 942.455276 
L 1002.404257 944.285865 
L 999.740185 946.812816 
L 996.691788 949.060167 
L 994.429511 950.041404 
L 991.363645 949.819835 
L 988.489941 950.774695 
L 983.126859 953.612899 
L 979.77275 954.013835 
L 977.527942 952.378438 
L 973.632283 946.564869 
L 971.457352 943.937684 
L 970.819722 942.43945 
L 970.566417 938.314031 
L 970.007398 937.063744 
L 968.950504 936.441239 
L 964.190114 935.544408 
L 959.25503 932.65345 
L 956.416266 931.513948 
L 954.525211 931.545601 
L 952.529341 932.25779 
L 948.869518 934.262469 
L 947.227402 935.591888 
L 947.520013 936.599503 
L 948.987436 937.269488 
L 950.834817 937.575465 
L 955.892186 937.454129 
L 957.525568 937.68625 
L 958.302952 938.604182 
L 957.206752 939.880846 
L 955.376841 941.009797 
L 953.926887 941.489865 
L 950.795511 940.957042 
L 941.92983 937.68625 
L 938.588822 937.411925 
L 935.243447 937.575465 
L 933.391699 937.29059 
L 932.343539 936.214393 
L 931.470073 934.863873 
L 929.316979 933.054386 
L 927.452129 931.999292 
L 925.285933 931.213246 
L 923.547736 931.339858 
L 922.464638 932.685103 
L 920.14876 938.03163 
L 919.739423 938.80465 
L 916.948699 941.458212 
L 916.533803 942.376144 
L 916.254293 944.533812 
L 915.773887 945.251276 
L 911.336679 947.799329 
L 909.921664 948.981035 
L 908.969586 950.373759 
L 908.052447 950.88548 
L 904.628459 951.075397 
L 902.060469 950.637533 
L 900.907494 950.685012 
L 898.544768 951.877269 
L 893.343277 957.93351 
L 888.740111 961.278159 
L 886.17212 962.359631 
L 883.564824 962.633955 
L 878.075089 961.373117 
L 875.411018 961.436423 
L 874.323552 963.240634 
L 874.939346 964.765246 
L 876.179668 966.310959 
L 877.280235 968.078242 
L 877.778111 972.071774 
L 879.000963 973.59111 
L 880.686753 974.683132 
L 882.355073 975.173751 
L 889.382108 974.20834 
L 892.430505 975.237057 
L 892.827932 979.515464 
L 891.954466 981.425185 
L 890.661736 982.042415 
L 887.246484 981.910528 
L 885.875142 982.327291 
L 884.704697 983.208294 
L 883.60413 984.263389 
L 878.214844 987.850709 
L 876.65134 988.452113 
L 872.13552 989.327841 
L 869.017246 990.725841 
L 863.994816 991.427479 
L 858.138225 994.017736 
L 856.583456 994.318437 
L 851.172333 993.806717 
L 846.787533 994.028287 
L 845.389987 993.859471 
L 843.65179 993.221139 
L 840.568454 991.443305 
L 838.882665 990.915758 
L 837.201242 990.99489 
L 833.956316 991.838966 
L 832.244322 991.807313 
L 830.305227 991.443305 
L 829.257068 991.089849 
L 828.61507 990.551751 
L 828.497153 989.734053 
L 829.519108 987.655517 
L 829.344415 985.381789 
L 828.74609 983.967962 
L 827.501401 983.282151 
L 822.531379 983.398211 
L 819.373799 984.337245 
L 813.674432 987.249306 
L 811.150115 989.523034 
L 809.180449 991.865343 
L 807.001151 993.600973 
L 803.769327 994.059939 
L 801.716681 995.537071 
L 798.851712 1007.042875 
L 797.2358 1009.385184 
L 789.295993 1017.878694 
L 787.391837 1018.759697 
L 775.9669 1021.181139 
L 774.534416 1021.988286 
L 773.765766 1023.402112 
L 765.459103 1056.220821 
L 765.20143 1060.668044 
L 766.638282 1064.719606 
L 768.682193 1067.478677 
L 769.328558 1068.786994 
L 769.804597 1070.876081 
L 770.009861 1072.965168 
L 768.420153 1086.449273 
L 768.612315 1092.62685 
L 768.241092 1094.58405 
L 762.786296 1106.221741 
L 761.550342 1110.088661 
L 761.345077 1111.708231 
L 761.84732 1113.079854 
L 764.821472 1115.253348 
L 768.297868 1118.96728 
L 770.900797 1121.077469 
L 771.590835 1122.048156 
L 771.276387 1122.512397 
L 770.56888 1122.76562 
L 770.062269 1123.071597 
L 768.315337 1126.221053 
L 766.070529 1129.338857 
L 759.34484 1134.424412 
L 661.372513 1164.557906 
L 657.166773 1164.415468 
L 643.112704 1161.727615 
L 614.157302 1161.474392 
L 591.342367 1168.659585 
L 588.372582 1170.26069 
L 586.442222 1172.898426 
L 583.367621 1179.244818 
L 581.06167 1180.233969 
L 571.418604 1175.847415 
L 537.327222 1168.915445 
L 445.115404 1178.068388 
L 436.406946 1176.327483 
L 309.767461 1133.385144 
L 307.094655 1132.092653 
L 318.423511 1118.18651 
L 368.944791 1054.944157 
L 386.606276 1032.739697 
L 388.047495 1031.141229 
L 387.724312 1030.487071 
L 387.846598 1028.645931 
L 388.056229 1027.928467 
L 388.56284 1027.63304 
L 388.239657 1020.658867 
L 387.872802 1019.466611 
L 389.488714 1016.148339 
L 390.091406 1014.001222 
L 390.082671 1011.996543 
L 389.672142 1009.965486 
L 388.641452 1006.631388 
L 387.165294 1003.386973 
L 386.955662 1002.326603 
L 386.815908 999.335411 
L 386.099665 997.040581 
L 383.837388 993.157834 
L 383.01633 991.074022 
L 382.981391 989.042966 
L 383.566614 984.659049 
L 382.981391 982.77043 
L 379.959199 978.792725 
L 378.299613 977.431653 
L 376.124682 976.540098 
L 307.994325 966.247653 
L 305.181764 965.029019 
L 304.186013 955.464589 
L 302.919487 950.532023 
L 302.71859 948.142235 
L 303.792953 940.59831 
L 302.622508 931.149941 
L 302.439081 926.206824 
L 303.067976 919.89736 
L 302.919487 917.681662 
L 301.993613 914.537481 
L 302.71859 912.29013 
L 302.220714 911.715103 
L 301.513206 911.293066 
L 301.224963 910.665285 
L 301.880062 909.09847 
L 304.089932 906.175858 
L 304.596542 904.471881 
L 305.732048 896.347655 
L 305.906741 888.033511 
L 299.312072 862.951282 
L 284.54176 811.932196 
L 283.310173 805.406438 
L 283.187887 797.337604 
L 283.703232 795.910589 
L 299.713866 773.956714 
L 302.150837 771.767393 
L 304.919724 770.021212 
L 305.801925 768.857971 
L 306.273597 766.819001 
L 306.116373 765.062269 
L 305.819394 763.360929 
L 306.063965 761.894348 
L 307.557592 760.886733 
L 311.566802 760.615046 
L 312.815858 760.15608 
L 313.558304 758.871503 
L 312.807123 757.40756 
L 311.383374 756.112431 
L 310.073175 755.339575 
L 307.23441 754.616835 
L 303.967646 754.374163 
L 297.757302 754.711793 
L 291.136429 754.197435 
L 284.314659 751.34868 
L 278.986515 746.183994 
L 276.881462 738.73239 
L 277.562766 735.390379 
L 280.174429 729.466024 
L 280.357857 725.454028 
L 277.938356 709.854459 
L 276.872727 699.643783 
L 277.379338 695.075225 
L 279.755166 690.266633 
L 282.419237 686.803286 
L 285.380287 683.719772 
L 289.398231 681.580569 
L 290.717165 680.137727 
L 290.131943 677.964233 
L 310.990314 676.711308 
L 310.029501 674.79895 
L 303.758014 666.648346 
L 302.421611 663.994784 
L 301.600553 662.810441 
L 300.578598 661.884596 
L 298.508483 660.935011 
L 297.757302 660.222822 
L 297.032325 657.788192 
L 296.490776 657.086554 
L 295.765799 656.680343 
L 294.866129 656.551094 
L 296.106451 654.403977 
L 298.211505 653.322505 
L 302.840875 652.699999 
L 304.945928 652.109147 
L 306.596779 650.985471 
L 310.431296 646.617381 
L 310.859294 645.804958 
L 311.409578 645.124422 
L 312.545084 644.475539 
L 313.724263 644.285622 
L 314.82483 644.375305 
L 315.811847 644.137909 
L 316.694048 642.97203 
L 317.034699 640.487283 
L 316.75519 637.849547 
L 316.860006 635.438656 
L 318.388572 633.660823 
L 321.061378 631.582287 
L 322.703495 628.649124 
L 323.183901 626.960974 
L 325.778095 626.095796 
L 326.450664 622.730045 
L 326.81752 619.121623 
L 326.756377 618.235344 
L 326.380787 616.336174 
L 326.29344 615.29163 
L 326.564215 614.009691 
L 327.760863 612.089419 
L 328.022903 611.113457 
L 328.302412 609.119329 
L 329.534 605.289336 
L 330.04061 601.068959 
L 330.652036 599.607653 
L 332.695947 596.758899 
L 331.805011 595.830416 
L 331.673992 594.991616 
L 331.901093 594.084235 
L 332.067051 592.923631 
L 331.831216 592.491042 
L 328.826492 588.476408 
L 328.389759 587.458242 
L 328.896369 586.999276 
L 329.743631 586.556137 
L 329.77857 585.574899 
L 329.368041 584.593661 
L 328.896369 584.150522 
L 328.835227 583.158733 
L 328.905104 580.979963 
L 329.40298 578.806469 
L 330.617098 577.81468 
L 332.416438 577.772477 
L 334.434145 577.434846 
L 336.058792 576.516914 
L 336.73136 574.707428 
L 336.338301 569.453058 
L 336.73136 567.358696 
L 337.220501 566.229745 
L 338.993638 563.871609 
L 339.456575 562.827066 
L 340.190286 559.624854 
L 341.124895 557.662379 
L 343.107663 555.277866 
L 344.234434 553.352319 
L 344.758514 551.231579 
L 344.548882 549.16887 
L 343.657947 544.990696 
L 343.037786 544.041111 
L 344.190761 543.619073 
L 348.619234 542.774998 
L 349.335477 542.774998 
L 349.955638 543.091526 
L 350.750492 543.782613 
L 350.680614 544.051662 
L 349.955638 545.201715 
L 351.134817 546.082719 
L 351.318245 546.135473 
L 352.654648 547.311904 
L 352.689586 547.755043 
L 352.357669 548.857617 
L 352.383873 549.263828 
L 353.475706 550.667104 
L 354.157009 551.052213 
L 355.117822 551.205202 
L 356.393083 551.764402 
L 361.887185 556.733896 
L 365.774109 561.007028 
L 371.355557 563.222726 
L 382.75429 564.94253 
L 387.77672 564.562696 
L 397.943866 561.054507 
L 402.87895 561.149466 
L 405.390165 562.373375 
L 407.617503 563.897986 
L 416.282287 572.333465 
L 418.610074 573.884454 
L 423.270016 575.915511 
L 424.510338 577.192175 
L 425.410008 578.795918 
L 425.990863 580.600129 
L 426.108781 582.39379 
L 425.969026 586.524484 
L 426.466902 588.075473 
L 428.060978 591.763027 
L 428.947546 592.823397 
L 430.283949 592.121759 
L 438.507633 581.05382 
L 441.259051 578.532145 
L 443.543165 578.405533 
L 449.094042 583.480537 
L 450.015549 583.971156 
L 450.862811 583.902575 
L 451.701338 583.659903 
L 452.609743 583.622975 
L 455.099121 584.662242 
L 455.850302 584.783578 
L 457.247848 584.445948 
L 463.37958 581.824039 
L 464.646106 581.043269 
L 465.746673 579.982899 
L 466.812302 578.521594 
L 469.030906 576.305895 
L 474.699701 573.56265 
L 482.359999 567.553888 
L 488.028794 564.858122 
L 489.740788 564.467737 
L 493.252122 564.167035 
L 494.920442 563.734447 
L 496.05158 562.563292 
L 496.562558 560.664122 
L 496.920679 556.797201 
L 497.785411 553.589715 
L 497.488432 552.518794 
L 496.082152 551.389843 
L 495.811377 550.139556 
L 495.606113 544.92739 
L 495.750235 543.408055 
L 497.990675 541.229285 
L 504.476161 539.145474 
L 506.825785 537.436221 
L 507.323661 536.507738 
L 507.393538 535.795549 
L 506.96554 535.262727 
L 504.816813 534.460855 
L 504.253427 533.996613 
L 503.069881 532.424523 
L 498.741856 528.58398 
L 498.204674 527.259836 
L 497.833451 525.455625 
L 496.990556 524.152583 
L 496.405334 522.849542 
L 496.763455 521.082259 
L 498.069287 519.747565 
L 499.859893 519.362455 
L 518.255089 519.768666 
L 525.631511 518.259882 
L 532.466383 515.115701 
L 533.719807 514.007851 
L 535.720044 511.317361 
L 536.890489 510.135655 
L 538.467095 509.275753 
L 540.174721 508.90647 
L 550.603907 508.273414 
L 554.00169 507.413512 
L 561.941497 502.839678 
L 564.474549 502.069459 
L 567.191028 501.652697 
L 569.558122 502.148591 
L 577.598377 505.224191 
L 577.637683 503.942252 
L 576.860298 499.115195 
L 576.847196 497.295158 
L 577.559071 495.670312 
L 578.6247 494.351444 
L 584.210516 490.183822 
L 587.19777 488.733067 
L 590.342248 488.158041 
L 593.827378 488.717241 
L 595.229291 489.286992 
L 596.27745 489.529663 
L 597.115978 488.838577 
L 598.452381 484.73426 
L 599.448132 483.499799 
L 600.740862 482.660999 
L 602.286897 482.027943 
L 608.510343 480.608841 
L 611.357843 479.574849 
L 614.157302 477.364426 
L 615.886765 475.34392 
L 622.52074 465.320524 
L 624.018734 461.791234 
L 624.988282 458.024547 
L 625.381341 453.957159 
L 625.149873 451.841694 
L 623.961959 447.943121 
L 623.564532 445.85931 
L 623.547063 443.7966 
L 623.817837 441.691687 
L 624.900935 437.661227 
L 626.298481 434.390434 
L 638.457129 412.745174 
L 639.60137 409.289741 
L 639.251983 405.296209 
L 637.644806 397.533352 
L 638.029131 393.553009 
L 639.60137 390.957477 
L 642.064544 389.174367 
L 657.376405 381.195217 
L 663.630423 379.198451 
L 700.674121 378.275243 
L 703.670109 376.761183 
L 707.583238 371.559568 
L 709.959066 369.211983 
L 711.042164 367.774417 
L 711.496366 365.703794 
L 711.448325 363.445893 
L 710.780124 359.069889 
L 711.181918 356.782972 
L 712.02918 354.609478 
L 713.968275 350.916647 
L 714.824272 349.866829 
L 715.854962 349.2707 
L 717.31365 348.962085 
L 720.790045 348.999014 
L 721.908082 348.099546 
L 722.650528 343.963576 
L 723.925789 344.522776 
L 725.611578 344.886783 
L 726.275413 345.29827 
L 727.690428 348.37387 
L 728.956954 350.009266 
L 730.572866 351.154044 
L 749.54455 358.001606 
L 751.08185 359.272994 
L 753.427107 362.306391 
L 754.890163 363.699115 
L 756.593422 364.53264 
L 757.571704 364.675077 
L 760.366795 364.53264 
L 761.2752 364.746296 
L 762.463114 365.703794 
L 763.253601 365.920089 
L 764.594371 366.579523 
L 766.000652 367.964334 
L 767.695176 369.196157 
L 769.91378 369.407175 
L 775.739799 367.566036 
L 777.757506 367.315451 
L 778.613502 367.719024 
L 779.884396 369.533787 
L 780.932555 370.040232 
L 781.810388 369.887243 
L 782.526631 369.34387 
L 783.819361 367.951145 
L 785.312988 366.700858 
L 786.723635 365.830406 
L 788.365752 365.329236 
L 790.52758 365.165696 
L 792.554022 365.392542 
L 798.139838 367.671545 
L 799.18363 367.858825 
L 801.472111 367.951145 
L 802.371781 367.631979 
L 804.035734 366.241892 
L 804.926669 365.920089 
L 815.980383 365.447934 
L 823.745497 363.683289 
L 827.824584 363.767696 
L 829.361884 364.471972 
L 832.742198 366.811643 
L 834.515334 367.315451 
L 835.554759 368.238658 
L 836.952305 372.670055 
L 837.747159 374.223681 
L 839.450418 375.255036 
L 843.197587 376.645122 
L 844.900846 378.153907 
L 845.748108 379.910639 
L 846.363902 381.804534 
L 847.333449 383.366073 
L 849.224503 384.107277 
L 851.11119 383.748545 
L 854.33428 381.730677 
L 856.500476 381.26116 
L 858.553122 381.092345 
L 860.383033 380.591175 
L 862.081925 379.741824 
L 863.75898 378.531103 
L 866.536602 375.824787 
L 868.091372 374.693198 
L 869.847039 374.223681 
L 871.790501 375.149526 
L 873.384576 379.372541 
L 874.76902 380.559522 
L 875.681792 380.227168 
L 876.336892 379.256481 
L 876.852237 378.240953 
L 877.380684 377.774073 
L 878.262885 377.663288 
L 879.87443 377.188496 
L 880.835242 377.072436 
L 881.80479 377.362587 
L 883.647803 378.710469 
L 884.582412 379.166798 
L 885.652408 379.298685 
L 888.670233 379.166798 
L 890.421533 379.588835 
L 891.91516 380.459288 
L 892.906544 381.82036 
L 893.290869 383.727443 
L 892.565892 390.250564 
L 892.657606 391.78045 
L 893.697031 393.152073 
L 895.614289 394.510507 
L 897.714975 395.547137 
L 901.536389 396.430779 
L 902.706834 397.696892 
L 903.597769 399.498465 
L 904.942907 401.598103 
L 905.860047 402.37096 
L 907.860284 403.391763 
L 908.611465 404.035371 
L 911.51574 407.522458 
L 912.009248 408.369171 
L 912.3499 409.268639 
L 912.777898 410.065235 
L 913.546549 410.59542 
L 914.603442 410.640261 
L 915.616663 410.23405 
L 916.481395 409.680126 
L 922.071578 405.021884 
L 923.111002 404.383552 
L 924.683242 403.74522 
L 926.032747 402.386786 
L 927.591884 401.139137 
L 929.801753 400.838435 
L 933.282515 401.964748 
L 935.313324 401.980575 
L 936.20426 400.516631 
L 935.636507 396.222397 
L 935.566629 394.162326 
L 936.20426 392.471537 
L 937.80707 391.347862 
L 939.444819 391.469198 
L 941.086935 392.094341 
L 942.755255 392.471537 
L 944.95639 392.244692 
L 946.611608 391.434907 
L 947.166259 389.912933 
L 945.956509 387.52842 
L 951.201673 387.148586 
L 955.219617 386.267583 
L 956.110552 386.199002 
L 956.861733 385.755862 
L 958.027811 383.793386 
L 958.442707 383.344971 
L 960.128497 383.131315 
L 963.290444 382.173817 
L 964.81901 381.952247 
L 965.146559 381.17939 
L 965.622598 379.536081 
L 966.653288 378.061587 
L 968.566179 377.774073 
L 967.841202 376.085922 
L 967.408837 375.682349 
L 968.365282 374.598239 
L 969.893848 374.524383 
L 973.186815 374.983349 
L 974.92938 374.809258 
L 976.034315 374.909492 
L 977.021331 375.371096 
L 980.165809 377.320383 
L 981.170295 377.394239 
L 981.528417 376.402451 
L 981.31005 374.223681 
L 980.309931 371.148081 
L 980.615644 369.992753 
L 982.476127 369.407175 
L 984.244896 369.839764 
L 985.196974 371.142805 
L 985.95689 372.780839 
L 987.079294 374.223681 
L 988.297779 374.761779 
L 989.236755 374.519107 
L 989.68659 373.611726 
L 989.389612 372.134594 
L 988.996552 371.691455 
L 987.62521 370.699666 
L 987.079294 370.040232 
L 986.638193 368.826874 
L 986.874029 368.489243 
L 987.660149 368.710813 
L 993.429392 369.407175 
L 995.10208 370.304006 
L 996.814074 371.818066 
L 998.12864 373.611726 
L 999.373329 377.325658 
L 1001.050384 378.80279 
L 1002.976377 380.021424 
L 1004.500575 381.26116 
L 1006.011672 384.890684 
L 1006.797791 385.73476 
L 1009.112477 387.180239 
L 1017.113426 392.402956 
L 1018.812318 392.24733 
L 1020.489373 391.479748 
L 1022.725446 391.015507 
L 1023.725565 390.656775 
L 1024.642704 389.833801 
L 1026.000944 388.293364 
L 1029.411829 386.199002 
L 1030.809375 384.890684 
L 1033.718017 380.179688 
L 1033.97569 378.874009 
L 1032.425287 378.562756 
L 1030.988435 377.9297 
L 1031.669739 375.682349 
L 1030.975333 374.756504 
L 1030.416315 371.24304 
L 1029.010035 368.1437 
L 1028.844076 366.241892 
L 1028.957627 365.935915 
L 1029.385625 365.714345 
L 1029.411829 365.165696 
L 1029.167259 364.714643 
L 1028.376772 364.5089 
L 1028.215181 364.14753 
L 1028.154038 360.248957 
L 1028.328731 358.355062 
L 1028.844076 356.735493 
L 1029.280809 356.171017 
L 1030.494927 355.348044 
L 1031.145659 354.770379 
L 1031.473209 354.261296 
L 1032.303002 352.552044 
L 1036.050172 349.909032 
L 1037.88445 348.189229 
L 1039.338771 343.902908 
L 1041.028928 343.182806 
L 1052.549947 344.190421 
L 1054.436633 343.839602 
L 1058.00911 342.359832 
L 1060.096694 342.096059 
L 1060.769263 342.185742 
L 1062.647215 342.734391 
L 1063.271743 343.174893 
L 1064.149577 343.64441 
L 1065.031777 343.20127 
L 1065.905244 342.475893 
L 1066.743771 342.096059 
L 1068.464499 341.631818 
L 1072.010772 339.901463 
L 1074.002274 340.006972 
L 1075.391086 341.178127 
L 1076.177205 342.808248 
L 1077.094345 344.259002 
L 1078.88495 344.886783 
L 1079.976783 345.092527 
L 1080.413516 345.609523 
L 1080.736698 346.290059 
L 1081.505348 346.978508 
L 1082.291468 347.271297 
L 1084.920601 347.735538 
L 1084.387787 346.978508 
L 1086.711207 347.350429 
L 1089.235524 348.231432 
L 1091.77731 348.669297 
L 1094.205546 347.735538 
L 1097.149127 344.20361 
L 1097.71688 343.871255 
L 1097.930879 342.982338 
L 1099.158099 340.006972 
L 1099.324057 339.975319 
L 1100.948704 339.906738 
L 1101.228213 340.006972 
L 1101.848374 339.373916 
L 1102.324413 338.61161 
L 1102.433597 337.931074 
L 1102.293842 336.184893 
L 1103.053758 335.541286 
L 1104.115019 334.050965 
L 1104.27661 332.774301 
L 1104.787588 331.054497 
L 1104.687139 329.550988 
L 1103.831142 326.575622 
L 1103.647715 325.153882 
L 1104.115019 323.974814 
L 1103.307063 323.25735 
L 1102.54278 322.175878 
L 1101.979394 320.841184 
L 1101.752293 319.382516 
L 1101.175805 318.525252 
L 1098.398183 317.702278 
L 1097.428636 317.264414 
L 1096.004886 315.133124 
L 1094.825707 312.160395 
L 1094.42828 309.02149 
L 1095.410929 306.425958 
L 1097.109821 307.773841 
L 1099.009609 308.143124 
L 1100.98801 307.826596 
L 1102.966411 307.119682 
L 1102.302577 306.291433 
L 1102.005598 305.452633 
L 1102.027435 304.582181 
L 1102.324413 303.637871 
L 1102.914003 303.323981 
L 1103.909754 303.14989 
L 1104.844363 302.772694 
L 1105.263627 301.860037 
L 1105.691625 301.319301 
L 1107.735536 300.277396 
L 1108.438676 299.77095 
L 1112.233886 294.970271 
L 1115.967954 291.272166 
L 1116.863257 290.647022 
L 1119.745695 289.462679 
L 1120.610427 288.618604 
L 1121.649851 286.8988 
L 1123.842251 281.269872 
L 1126.327262 276.619543 
L 1127.109014 274.108419 
L 1128.139704 273.543943 
L 1129.29268 273.251155 
L 1130.139942 272.839668 
L 1131.284183 269.357857 
L 1131.214305 266.398317 
L 1131.572426 265.490936 
L 1132.358546 265.068898 
L 1134.284539 265.179683 
L 1135.066291 264.762921 
L 1138.053545 262.647457 
L 1138.734848 261.449925 
L 1137.053426 260.226016 
L 1137.053426 259.534929 
L 1138.612563 258.598532 
L 1143.556382 258.102638 
L 1144.604541 256.36437 
L 1145.185396 255.644268 
L 1146.55237 255.343567 
L 1149.225177 255.354117 
L 1149.993827 255.493917 
L 1151.356434 255.942333 
L 1152.111982 255.987174 
L 1152.684102 255.715487 
L 1153.002918 255.24597 
L 1153.487691 254.813382 
L 1154.474708 254.655117 
L 1157.959838 256.243034 
L 1159.986279 256.717827 
L 1160.877215 255.673283 
L 1160.597705 253.354714 
L 1161.213499 252.629336 
L 1163.183165 252.566031 
L 1164.261896 252.848268 
L 1165.227076 253.383729 
L 1166.100542 254.106468 
L 1166.952172 255.000661 
L 1167.454414 255.807808 
L 1168.161922 257.672687 
L 1168.712206 258.522038 
L 1169.585672 259.202574 
L 1170.205833 259.165646 
L 1170.8653 258.88077 
L 1171.882888 258.843842 
L 1172.931047 259.081238 
L 1175.29814 260.226016 
L 1178.556169 262.51557 
L 1183.775129 267.659155 
L 1190.741021 270.428778 
L 1193.636561 272.269917 
L 1195.645533 275.27166 
L 1196.182715 279.808566 
L 1195.724145 282.127136 
L 1194.191212 286.534792 
L 1193.649663 289.520709 
L 1192.086159 292.419581 
L 1190.933184 296.600392 
L 1188.417601 301.126747 
L 1187.849848 303.724916 
L 1186.993852 306.038211 
L 1186.889036 307.119682 
L 1187.203483 308.427999 
L 1187.648951 308.644294 
L 1188.295316 308.457014 
L 1189.194986 308.57835 
L 1192.400607 311.071011 
L 1194.208682 311.814852 
L 1195.885737 310.923297 
L 1197.423037 309.810173 
L 1207.734305 306.412769 
L 1210.765232 306.592135 
L 1213.324488 308.26446 
L 1215.892478 311.297856 
L 1215.263583 312.004769 
L 1215.525622 313.239229 
L 1215.665377 315.465478 
L 1215.5955 317.892195 
L 1215.263583 319.733335 
L 1213.944649 321.542822 
L 1210.826375 323.47892 
L 1210.127602 325.306871 
L 1210.267356 326.264369 
L 1211.036006 328.432588 
L 1211.228169 329.550988 
L 1211.088414 330.555965 
L 1210.127602 333.734437 
L 1209.498706 337.915248 
L 1209.088177 338.772512 
L 1207.760509 340.700697 
L 1207.393653 345.171659 
L 1208.581567 353.40667 
L 1207.760509 357.500436 
L 1206.808431 359.787353 
L 1206.546391 361.246021 
L 1207.184021 365.165696 
L 1207.341245 369.470481 
L 1207.114144 371.612323 
L 1206.607533 372.894262 
L 1206.537656 375.745654 
L 1203.419382 380.889239 
L 1203.725095 383.344971 
L 1203.139873 384.265541 
L 1202.650732 385.813892 
L 1201.986897 390.007892 
L 1201.812204 396.169643 
L 1201.986897 397.419929 
L 1202.493508 398.506677 
L 1203.952196 400.706548 
L 1204.249175 401.911994 
L 1204.249175 406.092805 
L 1204.511215 408.308503 
L 1205.244926 410.149642 
L 1210.040255 417.693567 
L 1210.887517 419.74045 
L 1211.464005 424.44617 
L 1212.101635 426.529982 
L 1213.036244 428.460804 
L 1214.17175 430.238638 
L 1217.019249 433.140148 
L 1220.565522 434.960185 
L 1224.531058 435.814812 
L 1228.636349 435.814812 
L 1232.785313 435.055144 
L 1236.07828 433.72045 
L 1260.596474 416.00014 
L 1262.806343 413.655193 
L 1265.680047 412.054088 
L 1266.448697 411.278593 
L 1267.67155 409.479658 
L 1268.510077 408.567001 
L 1271.846718 406.346027 
L 1280.397951 402.980277 
L 1284.197529 402.225884 
L 1290.032282 403.265152 
L 1292.879782 401.877703 
L 1305.475163 400.065579 
L 1306.226344 399.094892 
L 1306.741689 397.127141 
L 1310.261758 391.78045 
L 1314.20109 383.867243 
L 1316.716672 380.522594 
L 1320.079517 378.531103 
L 1324.045053 377.805726 
L 1326.141372 377.098813 
L 1328.001854 374.951696 
L 1334.028771 371.432956 
L 1340.108095 370.844741 
L 1341.820088 369.721066 
L 1342.789636 368.312515 
L 1344.239589 365.331874 
L 1345.567258 363.767696 
L 1348.790348 361.330428 
L 1349.532794 361.077206 
L 1351.358338 361.747191 
L 1352.275478 361.330428 
L 1356.398238 357.06521 
L 1357.734641 356.102436 
L 1359.446635 355.543236 
L 1361.551688 355.332217 
L 1363.56066 355.590715 
L 1364.98441 356.416327 
L 1366.381956 356.809349 
L 1371.640222 354.013349 
L 1375.413595 353.90784 
L 1385.537068 357.500436 
L 1391.40676 359.003945 
L 1395.066583 358.924813 
L 1398.080041 359.275632 
L 1397.442411 362.694138 
L 1397.424942 366.985734 
L 1396.865923 368.468141 
L 1395.442173 370.090349 
L 1393.983485 371.264141 
L 1392.751898 371.849719 
L 1389.502604 372.171523 
L 1387.729468 372.79139 
L 1385.947597 374.281711 
L 1384.881968 376.281115 
L 1385.248824 378.417681 
L 1386.602696 379.203726 
L 1390.175173 378.124892 
L 1391.91337 378.256779 
L 1392.551001 378.823892 
L 1393.765118 380.430273 
L 1394.341606 380.854949 
L 1395.250011 380.799556 
L 1396.621353 379.768202 
L 1397.45988 379.472775 
L 1399.364036 379.64159 
L 1400.656766 379.947568 
L 1401.862149 379.678519 
L 1405.076505 376.798111 
L 1406.779764 376.304855 
L 1410.404648 375.906556 
L 1415.165038 373.733062 
L 1416.946909 373.37433 
L 1423.323212 371.132255 
L 1432.712973 369.312217 
L 1434.774353 368.462866 
L 1436.329122 366.700858 
L 1436.468877 363.203221 
L 1437.840219 361.831598 
L 1440.076292 361.797308 
L 1442.530732 362.427726 
L 1444.592112 362.15604 
L 1445.587863 359.425983 
L 1446.033331 360.755402 
L 1447.011613 360.095968 
L 1447.972426 360.030025 
L 1448.802219 360.549659 
L 1450.033806 362.543787 
L 1450.872333 362.810198 
L 1451.824411 362.847126 
L 1454.270117 363.277077 
L 1455.755009 362.955274 
L 1457.353452 362.823387 
L 1459.196465 363.593606 
L 1462.961104 364.664526 
L 1463.694816 364.6487 
L 1472.280988 364.105326 
L 1474.726693 362.789096 
L 1485.557673 369.201432 
L 1487.95097 371.675628 
L 1491.820425 378.037847 
L 1494.327273 379.414745 
L 1487.636522 381.015851 
L 1486.02061 381.168839 
L 1486.02061 381.168839 
" style="fill:none;stroke:#000000;"/>
   </g>
   <g id="PathCollection_1">
    <defs>
     <path d="M 0 3 
C 0.795609 3 1.55874 2.683901 2.12132 2.12132 
C 2.683901 1.55874 3 0.795609 3 0 
C 3 -0.795609 2.683901 -1.55874 2.12132 -2.12132 
C 1.55874 -2.683901 0.795609 -3 0 -3 
C -0.795609 -3 -1.55874 -2.683901 -2.12132 -2.12132 
C -2.683901 -1.55874 -3 -0.795609 -3 0 
C -3 0.795609 -2.683901 1.55874 -2.12132 2.12132 
C -1.55874 2.683901 -0.795609 3 0 3 
z
" id="mcaceeecda6" style="stroke:#000000;"/>
    </defs>
    <g clip-path="url(#p6264abff46)">
     <use style="stroke:#000000;" x="679.427004" xlink:href="#mcaceeecda6" y="656.519903"/>
     <use style="stroke:#000000;" x="604.210338" xlink:href="#mcaceeecda6" y="956.011693"/>
     <use style="stroke:#000000;" x="395.209504" xlink:href="#mcaceeecda6" y="1004.094173"/>
     <use style="stroke:#000000;" x="1178.054069" xlink:href="#mcaceeecda6" y="620.86116"/>
     <use style="stroke:#000000;" x="1041.988051" xlink:href="#mcaceeecda6" y="430.571828"/>
     <use style="stroke:#000000;" x="1094.952087" xlink:href="#mcaceeecda6" y="642.91187"/>
     <use style="stroke:#000000;" x="993.536737" xlink:href="#mcaceeecda6" y="712.667435"/>
     <use style="stroke:#000000;" x="915.218278" xlink:href="#mcaceeecda6" y="478.450333"/>
     <use style="stroke:#000000;" x="979.447834" xlink:href="#mcaceeecda6" y="663.328979"/>
     <use style="stroke:#000000;" x="720.694851" xlink:href="#mcaceeecda6" y="437.923929"/>
     <use style="stroke:#000000;" x="971.091383" xlink:href="#mcaceeecda6" y="510.089742"/>
     <use style="stroke:#000000;" x="818.850606" xlink:href="#mcaceeecda6" y="428.517763"/>
     <use style="stroke:#000000;" x="638.868545" xlink:href="#mcaceeecda6" y="512.218395"/>
     <use style="stroke:#000000;" x="666.876236" xlink:href="#mcaceeecda6" y="409.985031"/>
     <use style="stroke:#000000;" x="947.149677" xlink:href="#mcaceeecda6" y="753.848182"/>
     <use style="stroke:#000000;" x="1129.817647" xlink:href="#mcaceeecda6" y="389.761511"/>
     <use style="stroke:#000000;" x="985.577819" xlink:href="#mcaceeecda6" y="430.78094"/>
     <use style="stroke:#000000;" x="1117.720141" xlink:href="#mcaceeecda6" y="664.19418"/>
     <use style="stroke:#000000;" x="1010.541481" xlink:href="#mcaceeecda6" y="605.31728"/>
     <use style="stroke:#000000;" x="1014.489548" xlink:href="#mcaceeecda6" y="750.097322"/>
     <use style="stroke:#000000;" x="871.359022" xlink:href="#mcaceeecda6" y="625.448479"/>
     <use style="stroke:#000000;" x="970.93416" xlink:href="#mcaceeecda6" y="490.871199"/>
     <use style="stroke:#000000;" x="412.942166" xlink:href="#mcaceeecda6" y="873.451036"/>
     <use style="stroke:#000000;" x="419.126306" xlink:href="#mcaceeecda6" y="675.578648"/>
     <use style="stroke:#000000;" x="835.77838" xlink:href="#mcaceeecda6" y="433.63497"/>
     <use style="stroke:#000000;" x="717.030661" xlink:href="#mcaceeecda6" y="953.253095"/>
     <use style="stroke:#000000;" x="1011.674128" xlink:href="#mcaceeecda6" y="656.322361"/>
    </g>
   </g>
   <g id="matplotlib.axis_1"/>
   <g id="matplotlib.axis_2"/>
   <g id="patch_3">
    <path d="M 216 1226.617366 
L 216 206.182634 
" style="fill:none;stroke:#000000;stroke-linecap:square;stroke-linejoin:miter;stroke-width:0.8;"/>
   </g>
   <g id="patch_4">
    <path d="M 1555.2 1226.617366 
L 1555.2 206.182634 
" style="fill:none;stroke:#000000;stroke-linecap:square;stroke-linejoin:miter;stroke-width:0.8;"/>
   </g>
   <g id="patch_5">
    <path d="M 216 1226.617366 
L 1555.2 1226.617366 
" style="fill:none;stroke:#000000;stroke-linecap:square;stroke-linejoin:miter;stroke-width:0.8;"/>
   </g>
   <g id="patch_6">
    <path d="M 216 206.182634 
L 1555.2 206.182634 
" style="fill:none;stroke:#000000;stroke-linecap:square;stroke-linejoin:miter;stroke-width:0.8;"/>
   </g>
   <g id="text_1">
    <g id="patch_7">
     <path d="M 622.087004 652.949412 
L 736.767004 652.949412 
L 736.767004 629.464412 
L 622.087004 629.464412 
z
" style="fill:#ffffff;stroke:#ffffff;stroke-linejoin:miter;"/>
    </g>
    <!-- Chaghcharan -->
    <g transform="translate(626.087004 645.621912)scale(0.16 -0.16)">
     <defs>
      <path d="M 64.40625 67.28125 
L 64.40625 56.890625 
Q 59.421875 61.53125 53.78125 63.8125 
Q 48.140625 66.109375 41.796875 66.109375 
Q 29.296875 66.109375 22.65625 58.46875 
Q 16.015625 50.828125 16.015625 36.375 
Q 16.015625 21.96875 22.65625 14.328125 
Q 29.296875 6.6875 41.796875 6.6875 
Q 48.140625 6.6875 53.78125 8.984375 
Q 59.421875 11.28125 64.40625 15.921875 
L 64.40625 5.609375 
Q 59.234375 2.09375 53.4375 0.328125 
Q 47.65625 -1.421875 41.21875 -1.421875 
Q 24.65625 -1.421875 15.125 8.703125 
Q 5.609375 18.84375 5.609375 36.375 
Q 5.609375 53.953125 15.125 64.078125 
Q 24.65625 74.21875 41.21875 74.21875 
Q 47.75 74.21875 53.53125 72.484375 
Q 59.328125 70.75 64.40625 67.28125 
z
" id="DejaVuSans-67"/>
      <path d="M 54.890625 33.015625 
L 54.890625 0 
L 45.90625 0 
L 45.90625 32.71875 
Q 45.90625 40.484375 42.875 44.328125 
Q 39.84375 48.1875 33.796875 48.1875 
Q 26.515625 48.1875 22.3125 43.546875 
Q 18.109375 38.921875 18.109375 30.90625 
L 18.109375 0 
L 9.078125 0 
L 9.078125 75.984375 
L 18.109375 75.984375 
L 18.109375 46.1875 
Q 21.34375 51.125 25.703125 53.5625 
Q 30.078125 56 35.796875 56 
Q 45.21875 56 50.046875 50.171875 
Q 54.890625 44.34375 54.890625 33.015625 
z
" id="DejaVuSans-104"/>
      <path d="M 34.28125 27.484375 
Q 23.390625 27.484375 19.1875 25 
Q 14.984375 22.515625 14.984375 16.5 
Q 14.984375 11.71875 18.140625 8.90625 
Q 21.296875 6.109375 26.703125 6.109375 
Q 34.1875 6.109375 38.703125 11.40625 
Q 43.21875 16.703125 43.21875 25.484375 
L 43.21875 27.484375 
z
M 52.203125 31.203125 
L 52.203125 0 
L 43.21875 0 
L 43.21875 8.296875 
Q 40.140625 3.328125 35.546875 0.953125 
Q 30.953125 -1.421875 24.3125 -1.421875 
Q 15.921875 -1.421875 10.953125 3.296875 
Q 6 8.015625 6 15.921875 
Q 6 25.140625 12.171875 29.828125 
Q 18.359375 34.515625 30.609375 34.515625 
L 43.21875 34.515625 
L 43.21875 35.40625 
Q 43.21875 41.609375 39.140625 45 
Q 35.0625 48.390625 27.6875 48.390625 
Q 23 48.390625 18.546875 47.265625 
Q 14.109375 46.140625 10.015625 43.890625 
L 10.015625 52.203125 
Q 14.9375 54.109375 19.578125 55.046875 
Q 24.21875 56 28.609375 56 
Q 40.484375 56 46.34375 49.84375 
Q 52.203125 43.703125 52.203125 31.203125 
z
" id="DejaVuSans-97"/>
      <path d="M 45.40625 27.984375 
Q 45.40625 37.75 41.375 43.109375 
Q 37.359375 48.484375 30.078125 48.484375 
Q 22.859375 48.484375 18.828125 43.109375 
Q 14.796875 37.75 14.796875 27.984375 
Q 14.796875 18.265625 18.828125 12.890625 
Q 22.859375 7.515625 30.078125 7.515625 
Q 37.359375 7.515625 41.375 12.890625 
Q 45.40625 18.265625 45.40625 27.984375 
z
M 54.390625 6.78125 
Q 54.390625 -7.171875 48.1875 -13.984375 
Q 42 -20.796875 29.203125 -20.796875 
Q 24.46875 -20.796875 20.265625 -20.09375 
Q 16.0625 -19.390625 12.109375 -17.921875 
L 12.109375 -9.1875 
Q 16.0625 -11.328125 19.921875 -12.34375 
Q 23.78125 -13.375 27.78125 -13.375 
Q 36.625 -13.375 41.015625 -8.765625 
Q 45.40625 -4.15625 45.40625 5.171875 
L 45.40625 9.625 
Q 42.625 4.78125 38.28125 2.390625 
Q 33.9375 0 27.875 0 
Q 17.828125 0 11.671875 7.65625 
Q 5.515625 15.328125 5.515625 27.984375 
Q 5.515625 40.671875 11.671875 48.328125 
Q 17.828125 56 27.875 56 
Q 33.9375 56 38.28125 53.609375 
Q 42.625 51.21875 45.40625 46.390625 
L 45.40625 54.6875 
L 54.390625 54.6875 
z
" id="DejaVuSans-103"/>
      <path d="M 48.78125 52.59375 
L 48.78125 44.1875 
Q 44.96875 46.296875 41.140625 47.34375 
Q 37.3125 48.390625 33.40625 48.390625 
Q 24.65625 48.390625 19.8125 42.84375 
Q 14.984375 37.3125 14.984375 27.296875 
Q 14.984375 17.28125 19.8125 11.734375 
Q 24.65625 6.203125 33.40625 6.203125 
Q 37.3125 6.203125 41.140625 7.25 
Q 44.96875 8.296875 48.78125 10.40625 
L 48.78125 2.09375 
Q 45.015625 0.34375 40.984375 -0.53125 
Q 36.96875 -1.421875 32.421875 -1.421875 
Q 20.0625 -1.421875 12.78125 6.34375 
Q 5.515625 14.109375 5.515625 27.296875 
Q 5.515625 40.671875 12.859375 48.328125 
Q 20.21875 56 33.015625 56 
Q 37.15625 56 41.109375 55.140625 
Q 45.0625 54.296875 48.78125 52.59375 
z
" id="DejaVuSans-99"/>
      <path d="M 41.109375 46.296875 
Q 39.59375 47.171875 37.8125 47.578125 
Q 36.03125 48 33.890625 48 
Q 26.265625 48 22.1875 43.046875 
Q 18.109375 38.09375 18.109375 28.8125 
L 18.109375 0 
L 9.078125 0 
L 9.078125 54.6875 
L 18.109375 54.6875 
L 18.109375 46.1875 
Q 20.953125 51.171875 25.484375 53.578125 
Q 30.03125 56 36.53125 56 
Q 37.453125 56 38.578125 55.875 
Q 39.703125 55.765625 41.0625 55.515625 
z
" id="DejaVuSans-114"/>
      <path d="M 54.890625 33.015625 
L 54.890625 0 
L 45.90625 0 
L 45.90625 32.71875 
Q 45.90625 40.484375 42.875 44.328125 
Q 39.84375 48.1875 33.796875 48.1875 
Q 26.515625 48.1875 22.3125 43.546875 
Q 18.109375 38.921875 18.109375 30.90625 
L 18.109375 0 
L 9.078125 0 
L 9.078125 54.6875 
L 18.109375 54.6875 
L 18.109375 46.1875 
Q 21.34375 51.125 25.703125 53.5625 
Q 30.078125 56 35.796875 56 
Q 45.21875 56 50.046875 50.171875 
Q 54.890625 44.34375 54.890625 33.015625 
z
" id="DejaVuSans-110"/>
     </defs>
     <use xlink:href="#DejaVuSans-67"/>
     <use x="69.824219" xlink:href="#DejaVuSans-104"/>
     <use x="133.203125" xlink:href="#DejaVuSans-97"/>
     <use x="194.482422" xlink:href="#DejaVuSans-103"/>
     <use x="257.958984" xlink:href="#DejaVuSans-104"/>
     <use x="321.337891" xlink:href="#DejaVuSans-99"/>
     <use x="376.318359" xlink:href="#DejaVuSans-104"/>
     <use x="439.697266" xlink:href="#DejaVuSans-97"/>
     <use x="500.976562" xlink:href="#DejaVuSans-114"/>
     <use x="542.089844" xlink:href="#DejaVuSans-97"/>
     <use x="603.369141" xlink:href="#DejaVuSans-110"/>
    </g>
   </g>
   <g id="text_2">
    <g id="patch_8">
     <path d="M 550.215338 952.441203 
L 658.205338 952.441203 
L 658.205338 928.956203 
L 550.215338 928.956203 
z
" style="fill:#ffffff;stroke:#ffffff;stroke-linejoin:miter;"/>
    </g>
    <!-- Lashkar Gah -->
    <g transform="translate(554.215338 945.113703)scale(0.16 -0.16)">
     <defs>
      <path d="M 9.8125 72.90625 
L 19.671875 72.90625 
L 19.671875 8.296875 
L 55.171875 8.296875 
L 55.171875 0 
L 9.8125 0 
z
" id="DejaVuSans-76"/>
      <path d="M 44.28125 53.078125 
L 44.28125 44.578125 
Q 40.484375 46.53125 36.375 47.5 
Q 32.28125 48.484375 27.875 48.484375 
Q 21.1875 48.484375 17.84375 46.4375 
Q 14.5 44.390625 14.5 40.28125 
Q 14.5 37.15625 16.890625 35.375 
Q 19.28125 33.59375 26.515625 31.984375 
L 29.59375 31.296875 
Q 39.15625 29.25 43.1875 25.515625 
Q 47.21875 21.78125 47.21875 15.09375 
Q 47.21875 7.46875 41.1875 3.015625 
Q 35.15625 -1.421875 24.609375 -1.421875 
Q 20.21875 -1.421875 15.453125 -0.5625 
Q 10.6875 0.296875 5.421875 2 
L 5.421875 11.28125 
Q 10.40625 8.6875 15.234375 7.390625 
Q 20.0625 6.109375 24.8125 6.109375 
Q 31.15625 6.109375 34.5625 8.28125 
Q 37.984375 10.453125 37.984375 14.40625 
Q 37.984375 18.0625 35.515625 20.015625 
Q 33.0625 21.96875 24.703125 23.78125 
L 21.578125 24.515625 
Q 13.234375 26.265625 9.515625 29.90625 
Q 5.8125 33.546875 5.8125 39.890625 
Q 5.8125 47.609375 11.28125 51.796875 
Q 16.75 56 26.8125 56 
Q 31.78125 56 36.171875 55.265625 
Q 40.578125 54.546875 44.28125 53.078125 
z
" id="DejaVuSans-115"/>
      <path d="M 9.078125 75.984375 
L 18.109375 75.984375 
L 18.109375 31.109375 
L 44.921875 54.6875 
L 56.390625 54.6875 
L 27.390625 29.109375 
L 57.625 0 
L 45.90625 0 
L 18.109375 26.703125 
L 18.109375 0 
L 9.078125 0 
z
" id="DejaVuSans-107"/>
      <path id="DejaVuSans-32"/>
      <path d="M 59.515625 10.40625 
L 59.515625 29.984375 
L 43.40625 29.984375 
L 43.40625 38.09375 
L 69.28125 38.09375 
L 69.28125 6.78125 
Q 63.578125 2.734375 56.6875 0.65625 
Q 49.8125 -1.421875 42 -1.421875 
Q 24.90625 -1.421875 15.25 8.5625 
Q 5.609375 18.5625 5.609375 36.375 
Q 5.609375 54.25 15.25 64.234375 
Q 24.90625 74.21875 42 74.21875 
Q 49.125 74.21875 55.546875 72.453125 
Q 61.96875 70.703125 67.390625 67.28125 
L 67.390625 56.78125 
Q 61.921875 61.421875 55.765625 63.765625 
Q 49.609375 66.109375 42.828125 66.109375 
Q 29.4375 66.109375 22.71875 58.640625 
Q 16.015625 51.171875 16.015625 36.375 
Q 16.015625 21.625 22.71875 14.15625 
Q 29.4375 6.6875 42.828125 6.6875 
Q 48.046875 6.6875 52.140625 7.59375 
Q 56.25 8.5 59.515625 10.40625 
z
" id="DejaVuSans-71"/>
     </defs>
     <use xlink:href="#DejaVuSans-76"/>
     <use x="55.712891" xlink:href="#DejaVuSans-97"/>
     <use x="116.992188" xlink:href="#DejaVuSans-115"/>
     <use x="169.091797" xlink:href="#DejaVuSans-104"/>
     <use x="232.470703" xlink:href="#DejaVuSans-107"/>
     <use x="288.630859" xlink:href="#DejaVuSans-97"/>
     <use x="349.910156" xlink:href="#DejaVuSans-114"/>
     <use x="391.023438" xlink:href="#DejaVuSans-32"/>
     <use x="422.810547" xlink:href="#DejaVuSans-71"/>
     <use x="500.300781" xlink:href="#DejaVuSans-97"/>
     <use x="561.580078" xlink:href="#DejaVuSans-104"/>
    </g>
   </g>
   <g id="text_3">
    <g id="patch_9">
     <path d="M 365.343254 1000.523682 
L 425.075754 1000.523682 
L 425.075754 977.038682 
L 365.343254 977.038682 
z
" style="fill:#ffffff;stroke:#ffffff;stroke-linejoin:miter;"/>
    </g>
    <!-- Zaranj -->
    <g transform="translate(369.343254 993.196182)scale(0.16 -0.16)">
     <defs>
      <path d="M 5.609375 72.90625 
L 62.890625 72.90625 
L 62.890625 65.375 
L 16.796875 8.296875 
L 64.015625 8.296875 
L 64.015625 0 
L 4.5 0 
L 4.5 7.515625 
L 50.59375 64.59375 
L 5.609375 64.59375 
z
" id="DejaVuSans-90"/>
      <path d="M 9.421875 54.6875 
L 18.40625 54.6875 
L 18.40625 -0.984375 
Q 18.40625 -11.421875 14.421875 -16.109375 
Q 10.453125 -20.796875 1.609375 -20.796875 
L -1.8125 -20.796875 
L -1.8125 -13.1875 
L 0.59375 -13.1875 
Q 5.71875 -13.1875 7.5625 -10.8125 
Q 9.421875 -8.453125 9.421875 -0.984375 
z
M 9.421875 75.984375 
L 18.40625 75.984375 
L 18.40625 64.59375 
L 9.421875 64.59375 
z
" id="DejaVuSans-106"/>
     </defs>
     <use xlink:href="#DejaVuSans-90"/>
     <use x="68.505859" xlink:href="#DejaVuSans-97"/>
     <use x="129.785156" xlink:href="#DejaVuSans-114"/>
     <use x="170.898438" xlink:href="#DejaVuSans-97"/>
     <use x="232.177734" xlink:href="#DejaVuSans-110"/>
     <use x="295.556641" xlink:href="#DejaVuSans-106"/>
    </g>
   </g>
   <g id="text_4">
    <g id="patch_10">
     <path d="M 1134.470319 617.290669 
L 1221.637819 617.290669 
L 1221.637819 593.805669 
L 1134.470319 593.805669 
z
" style="fill:#ffffff;stroke:#ffffff;stroke-linejoin:miter;"/>
    </g>
    <!-- Asadabad -->
    <g transform="translate(1138.470319 609.963169)scale(0.16 -0.16)">
     <defs>
      <path d="M 34.1875 63.1875 
L 20.796875 26.90625 
L 47.609375 26.90625 
z
M 28.609375 72.90625 
L 39.796875 72.90625 
L 67.578125 0 
L 57.328125 0 
L 50.6875 18.703125 
L 17.828125 18.703125 
L 11.1875 0 
L 0.78125 0 
z
" id="DejaVuSans-65"/>
      <path d="M 45.40625 46.390625 
L 45.40625 75.984375 
L 54.390625 75.984375 
L 54.390625 0 
L 45.40625 0 
L 45.40625 8.203125 
Q 42.578125 3.328125 38.25 0.953125 
Q 33.9375 -1.421875 27.875 -1.421875 
Q 17.96875 -1.421875 11.734375 6.484375 
Q 5.515625 14.40625 5.515625 27.296875 
Q 5.515625 40.1875 11.734375 48.09375 
Q 17.96875 56 27.875 56 
Q 33.9375 56 38.25 53.625 
Q 42.578125 51.265625 45.40625 46.390625 
z
M 14.796875 27.296875 
Q 14.796875 17.390625 18.875 11.75 
Q 22.953125 6.109375 30.078125 6.109375 
Q 37.203125 6.109375 41.296875 11.75 
Q 45.40625 17.390625 45.40625 27.296875 
Q 45.40625 37.203125 41.296875 42.84375 
Q 37.203125 48.484375 30.078125 48.484375 
Q 22.953125 48.484375 18.875 42.84375 
Q 14.796875 37.203125 14.796875 27.296875 
z
" id="DejaVuSans-100"/>
      <path d="M 48.6875 27.296875 
Q 48.6875 37.203125 44.609375 42.84375 
Q 40.53125 48.484375 33.40625 48.484375 
Q 26.265625 48.484375 22.1875 42.84375 
Q 18.109375 37.203125 18.109375 27.296875 
Q 18.109375 17.390625 22.1875 11.75 
Q 26.265625 6.109375 33.40625 6.109375 
Q 40.53125 6.109375 44.609375 11.75 
Q 48.6875 17.390625 48.6875 27.296875 
z
M 18.109375 46.390625 
Q 20.953125 51.265625 25.265625 53.625 
Q 29.59375 56 35.59375 56 
Q 45.5625 56 51.78125 48.09375 
Q 58.015625 40.1875 58.015625 27.296875 
Q 58.015625 14.40625 51.78125 6.484375 
Q 45.5625 -1.421875 35.59375 -1.421875 
Q 29.59375 -1.421875 25.265625 0.953125 
Q 20.953125 3.328125 18.109375 8.203125 
L 18.109375 0 
L 9.078125 0 
L 9.078125 75.984375 
L 18.109375 75.984375 
z
" id="DejaVuSans-98"/>
     </defs>
     <use xlink:href="#DejaVuSans-65"/>
     <use x="68.408203" xlink:href="#DejaVuSans-115"/>
     <use x="120.507812" xlink:href="#DejaVuSans-97"/>
     <use x="181.787109" xlink:href="#DejaVuSans-100"/>
     <use x="245.263672" xlink:href="#DejaVuSans-97"/>
     <use x="306.542969" xlink:href="#DejaVuSans-98"/>
     <use x="370.019531" xlink:href="#DejaVuSans-97"/>
     <use x="431.298828" xlink:href="#DejaVuSans-100"/>
    </g>
   </g>
   <g id="text_5">
    <g id="patch_11">
     <path d="M 1037.988051 462.731649 
L 1107.263051 462.731649 
L 1107.263051 439.246649 
L 1037.988051 439.246649 
z
" style="fill:#ffffff;stroke:#ffffff;stroke-linejoin:miter;"/>
    </g>
    <!-- Taloqan -->
    <g transform="translate(1041.988051 455.404149)scale(0.16 -0.16)">
     <defs>
      <path d="M -0.296875 72.90625 
L 61.375 72.90625 
L 61.375 64.59375 
L 35.5 64.59375 
L 35.5 0 
L 25.59375 0 
L 25.59375 64.59375 
L -0.296875 64.59375 
z
" id="DejaVuSans-84"/>
      <path d="M 9.421875 75.984375 
L 18.40625 75.984375 
L 18.40625 0 
L 9.421875 0 
z
" id="DejaVuSans-108"/>
      <path d="M 30.609375 48.390625 
Q 23.390625 48.390625 19.1875 42.75 
Q 14.984375 37.109375 14.984375 27.296875 
Q 14.984375 17.484375 19.15625 11.84375 
Q 23.34375 6.203125 30.609375 6.203125 
Q 37.796875 6.203125 41.984375 11.859375 
Q 46.1875 17.53125 46.1875 27.296875 
Q 46.1875 37.015625 41.984375 42.703125 
Q 37.796875 48.390625 30.609375 48.390625 
z
M 30.609375 56 
Q 42.328125 56 49.015625 48.375 
Q 55.71875 40.765625 55.71875 27.296875 
Q 55.71875 13.875 49.015625 6.21875 
Q 42.328125 -1.421875 30.609375 -1.421875 
Q 18.84375 -1.421875 12.171875 6.21875 
Q 5.515625 13.875 5.515625 27.296875 
Q 5.515625 40.765625 12.171875 48.375 
Q 18.84375 56 30.609375 56 
z
" id="DejaVuSans-111"/>
      <path d="M 14.796875 27.296875 
Q 14.796875 17.390625 18.875 11.75 
Q 22.953125 6.109375 30.078125 6.109375 
Q 37.203125 6.109375 41.296875 11.75 
Q 45.40625 17.390625 45.40625 27.296875 
Q 45.40625 37.203125 41.296875 42.84375 
Q 37.203125 48.484375 30.078125 48.484375 
Q 22.953125 48.484375 18.875 42.84375 
Q 14.796875 37.203125 14.796875 27.296875 
z
M 45.40625 8.203125 
Q 42.578125 3.328125 38.25 0.953125 
Q 33.9375 -1.421875 27.875 -1.421875 
Q 17.96875 -1.421875 11.734375 6.484375 
Q 5.515625 14.40625 5.515625 27.296875 
Q 5.515625 40.1875 11.734375 48.09375 
Q 17.96875 56 27.875 56 
Q 33.9375 56 38.25 53.625 
Q 42.578125 51.265625 45.40625 46.390625 
L 45.40625 54.6875 
L 54.390625 54.6875 
L 54.390625 -20.796875 
L 45.40625 -20.796875 
z
" id="DejaVuSans-113"/>
     </defs>
     <use xlink:href="#DejaVuSans-84"/>
     <use x="44.583984" xlink:href="#DejaVuSans-97"/>
     <use x="105.863281" xlink:href="#DejaVuSans-108"/>
     <use x="133.646484" xlink:href="#DejaVuSans-111"/>
     <use x="194.828125" xlink:href="#DejaVuSans-113"/>
     <use x="258.304688" xlink:href="#DejaVuSans-97"/>
     <use x="319.583984" xlink:href="#DejaVuSans-110"/>
    </g>
   </g>
   <g id="text_6">
    <g id="patch_12">
     <path d="M 986.665787 644.445709 
L 1090.500787 644.445709 
L 1090.500787 620.960709 
L 986.665787 620.960709 
z
" style="fill:#ffffff;stroke:#ffffff;stroke-linejoin:miter;"/>
    </g>
    <!-- Mehtar Lam -->
    <g transform="translate(990.665787 637.118209)scale(0.16 -0.16)">
     <defs>
      <path d="M 9.8125 72.90625 
L 24.515625 72.90625 
L 43.109375 23.296875 
L 61.8125 72.90625 
L 76.515625 72.90625 
L 76.515625 0 
L 66.890625 0 
L 66.890625 64.015625 
L 48.09375 14.015625 
L 38.1875 14.015625 
L 19.390625 64.015625 
L 19.390625 0 
L 9.8125 0 
z
" id="DejaVuSans-77"/>
      <path d="M 56.203125 29.59375 
L 56.203125 25.203125 
L 14.890625 25.203125 
Q 15.484375 15.921875 20.484375 11.0625 
Q 25.484375 6.203125 34.421875 6.203125 
Q 39.59375 6.203125 44.453125 7.46875 
Q 49.3125 8.734375 54.109375 11.28125 
L 54.109375 2.78125 
Q 49.265625 0.734375 44.1875 -0.34375 
Q 39.109375 -1.421875 33.890625 -1.421875 
Q 20.796875 -1.421875 13.15625 6.1875 
Q 5.515625 13.8125 5.515625 26.8125 
Q 5.515625 40.234375 12.765625 48.109375 
Q 20.015625 56 32.328125 56 
Q 43.359375 56 49.78125 48.890625 
Q 56.203125 41.796875 56.203125 29.59375 
z
M 47.21875 32.234375 
Q 47.125 39.59375 43.09375 43.984375 
Q 39.0625 48.390625 32.421875 48.390625 
Q 24.90625 48.390625 20.390625 44.140625 
Q 15.875 39.890625 15.1875 32.171875 
z
" id="DejaVuSans-101"/>
      <path d="M 18.3125 70.21875 
L 18.3125 54.6875 
L 36.8125 54.6875 
L 36.8125 47.703125 
L 18.3125 47.703125 
L 18.3125 18.015625 
Q 18.3125 11.328125 20.140625 9.421875 
Q 21.96875 7.515625 27.59375 7.515625 
L 36.8125 7.515625 
L 36.8125 0 
L 27.59375 0 
Q 17.1875 0 13.234375 3.875 
Q 9.28125 7.765625 9.28125 18.015625 
L 9.28125 47.703125 
L 2.6875 47.703125 
L 2.6875 54.6875 
L 9.28125 54.6875 
L 9.28125 70.21875 
z
" id="DejaVuSans-116"/>
      <path d="M 52 44.1875 
Q 55.375 50.25 60.0625 53.125 
Q 64.75 56 71.09375 56 
Q 79.640625 56 84.28125 50.015625 
Q 88.921875 44.046875 88.921875 33.015625 
L 88.921875 0 
L 79.890625 0 
L 79.890625 32.71875 
Q 79.890625 40.578125 77.09375 44.375 
Q 74.3125 48.1875 68.609375 48.1875 
Q 61.625 48.1875 57.5625 43.546875 
Q 53.515625 38.921875 53.515625 30.90625 
L 53.515625 0 
L 44.484375 0 
L 44.484375 32.71875 
Q 44.484375 40.625 41.703125 44.40625 
Q 38.921875 48.1875 33.109375 48.1875 
Q 26.21875 48.1875 22.15625 43.53125 
Q 18.109375 38.875 18.109375 30.90625 
L 18.109375 0 
L 9.078125 0 
L 9.078125 54.6875 
L 18.109375 54.6875 
L 18.109375 46.1875 
Q 21.1875 51.21875 25.484375 53.609375 
Q 29.78125 56 35.6875 56 
Q 41.65625 56 45.828125 52.96875 
Q 50 49.953125 52 44.1875 
z
" id="DejaVuSans-109"/>
     </defs>
     <use xlink:href="#DejaVuSans-77"/>
     <use x="86.279297" xlink:href="#DejaVuSans-101"/>
     <use x="147.802734" xlink:href="#DejaVuSans-104"/>
     <use x="211.181641" xlink:href="#DejaVuSans-116"/>
     <use x="250.390625" xlink:href="#DejaVuSans-97"/>
     <use x="311.669922" xlink:href="#DejaVuSans-114"/>
     <use x="352.783203" xlink:href="#DejaVuSans-32"/>
     <use x="384.570312" xlink:href="#DejaVuSans-76"/>
     <use x="440.283203" xlink:href="#DejaVuSans-97"/>
     <use x="501.5625" xlink:href="#DejaVuSans-109"/>
    </g>
   </g>
   <g id="text_7">
    <g id="patch_13">
     <path d="M 878.695436 724.409935 
L 989.085436 724.409935 
L 989.085436 700.924935 
L 878.695436 700.924935 
z
" style="fill:#ffffff;stroke:#ffffff;stroke-linejoin:miter;"/>
    </g>
    <!-- Baraki Barak -->
    <g transform="translate(882.695436 717.082435)scale(0.16 -0.16)">
     <defs>
      <path d="M 19.671875 34.8125 
L 19.671875 8.109375 
L 35.5 8.109375 
Q 43.453125 8.109375 47.28125 11.40625 
Q 51.125 14.703125 51.125 21.484375 
Q 51.125 28.328125 47.28125 31.5625 
Q 43.453125 34.8125 35.5 34.8125 
z
M 19.671875 64.796875 
L 19.671875 42.828125 
L 34.28125 42.828125 
Q 41.5 42.828125 45.03125 45.53125 
Q 48.578125 48.25 48.578125 53.8125 
Q 48.578125 59.328125 45.03125 62.0625 
Q 41.5 64.796875 34.28125 64.796875 
z
M 9.8125 72.90625 
L 35.015625 72.90625 
Q 46.296875 72.90625 52.390625 68.21875 
Q 58.5 63.53125 58.5 54.890625 
Q 58.5 48.1875 55.375 44.234375 
Q 52.25 40.28125 46.1875 39.3125 
Q 53.46875 37.75 57.5 32.78125 
Q 61.53125 27.828125 61.53125 20.40625 
Q 61.53125 10.640625 54.890625 5.3125 
Q 48.25 0 35.984375 0 
L 9.8125 0 
z
" id="DejaVuSans-66"/>
      <path d="M 9.421875 54.6875 
L 18.40625 54.6875 
L 18.40625 0 
L 9.421875 0 
z
M 9.421875 75.984375 
L 18.40625 75.984375 
L 18.40625 64.59375 
L 9.421875 64.59375 
z
" id="DejaVuSans-105"/>
     </defs>
     <use xlink:href="#DejaVuSans-66"/>
     <use x="68.603516" xlink:href="#DejaVuSans-97"/>
     <use x="129.882812" xlink:href="#DejaVuSans-114"/>
     <use x="170.996094" xlink:href="#DejaVuSans-97"/>
     <use x="232.275391" xlink:href="#DejaVuSans-107"/>
     <use x="290.185547" xlink:href="#DejaVuSans-105"/>
     <use x="317.96875" xlink:href="#DejaVuSans-32"/>
     <use x="349.755859" xlink:href="#DejaVuSans-66"/>
     <use x="418.359375" xlink:href="#DejaVuSans-97"/>
     <use x="479.638672" xlink:href="#DejaVuSans-114"/>
     <use x="520.751953" xlink:href="#DejaVuSans-97"/>
     <use x="582.03125" xlink:href="#DejaVuSans-107"/>
    </g>
   </g>
   <g id="text_8">
    <g id="patch_14">
     <path d="M 854.204478 490.192833 
L 910.766978 490.192833 
L 910.766978 466.707833 
L 854.204478 466.707833 
z
" style="fill:#ffffff;stroke:#ffffff;stroke-linejoin:miter;"/>
    </g>
    <!-- Aybak -->
    <g transform="translate(858.204478 482.865333)scale(0.16 -0.16)">
     <defs>
      <path d="M 32.171875 -5.078125 
Q 28.375 -14.84375 24.75 -17.8125 
Q 21.140625 -20.796875 15.09375 -20.796875 
L 7.90625 -20.796875 
L 7.90625 -13.28125 
L 13.1875 -13.28125 
Q 16.890625 -13.28125 18.9375 -11.515625 
Q 21 -9.765625 23.484375 -3.21875 
L 25.09375 0.875 
L 2.984375 54.6875 
L 12.5 54.6875 
L 29.59375 11.921875 
L 46.6875 54.6875 
L 56.203125 54.6875 
z
" id="DejaVuSans-121"/>
     </defs>
     <use xlink:href="#DejaVuSans-65"/>
     <use x="61.658203" xlink:href="#DejaVuSans-121"/>
     <use x="120.837891" xlink:href="#DejaVuSans-98"/>
     <use x="184.314453" xlink:href="#DejaVuSans-97"/>
     <use x="245.59375" xlink:href="#DejaVuSans-107"/>
    </g>
   </g>
   <g id="text_9">
    <g id="patch_15">
     <path d="M 862.049034 675.071479 
L 974.996534 675.071479 
L 974.996534 651.586479 
L 862.049034 651.586479 
z
" style="fill:#ffffff;stroke:#ffffff;stroke-linejoin:miter;"/>
    </g>
    <!-- Mayda Shahr -->
    <g transform="translate(866.049034 667.743979)scale(0.16 -0.16)">
     <defs>
      <path d="M 53.515625 70.515625 
L 53.515625 60.890625 
Q 47.90625 63.578125 42.921875 64.890625 
Q 37.9375 66.21875 33.296875 66.21875 
Q 25.25 66.21875 20.875 63.09375 
Q 16.5 59.96875 16.5 54.203125 
Q 16.5 49.359375 19.40625 46.890625 
Q 22.3125 44.4375 30.421875 42.921875 
L 36.375 41.703125 
Q 47.40625 39.59375 52.65625 34.296875 
Q 57.90625 29 57.90625 20.125 
Q 57.90625 9.515625 50.796875 4.046875 
Q 43.703125 -1.421875 29.984375 -1.421875 
Q 24.8125 -1.421875 18.96875 -0.25 
Q 13.140625 0.921875 6.890625 3.21875 
L 6.890625 13.375 
Q 12.890625 10.015625 18.65625 8.296875 
Q 24.421875 6.59375 29.984375 6.59375 
Q 38.421875 6.59375 43.015625 9.90625 
Q 47.609375 13.234375 47.609375 19.390625 
Q 47.609375 24.75 44.3125 27.78125 
Q 41.015625 30.8125 33.5 32.328125 
L 27.484375 33.5 
Q 16.453125 35.6875 11.515625 40.375 
Q 6.59375 45.0625 6.59375 53.421875 
Q 6.59375 63.09375 13.40625 68.65625 
Q 20.21875 74.21875 32.171875 74.21875 
Q 37.3125 74.21875 42.625 73.28125 
Q 47.953125 72.359375 53.515625 70.515625 
z
" id="DejaVuSans-83"/>
     </defs>
     <use xlink:href="#DejaVuSans-77"/>
     <use x="86.279297" xlink:href="#DejaVuSans-97"/>
     <use x="147.558594" xlink:href="#DejaVuSans-121"/>
     <use x="206.738281" xlink:href="#DejaVuSans-100"/>
     <use x="270.214844" xlink:href="#DejaVuSans-97"/>
     <use x="331.494141" xlink:href="#DejaVuSans-32"/>
     <use x="363.28125" xlink:href="#DejaVuSans-83"/>
     <use x="426.757812" xlink:href="#DejaVuSans-104"/>
     <use x="490.136719" xlink:href="#DejaVuSans-97"/>
     <use x="551.416016" xlink:href="#DejaVuSans-104"/>
     <use x="614.794922" xlink:href="#DejaVuSans-114"/>
    </g>
   </g>
   <g id="text_10">
    <g id="patch_16">
     <path d="M 659.901051 464.97942 
L 764.586051 464.97942 
L 764.586051 441.49442 
L 659.901051 441.49442 
z
" style="fill:#ffffff;stroke:#ffffff;stroke-linejoin:miter;"/>
    </g>
    <!-- Sheberghan -->
    <g transform="translate(663.901051 457.65192)scale(0.16 -0.16)">
     <use xlink:href="#DejaVuSans-83"/>
     <use x="63.476562" xlink:href="#DejaVuSans-104"/>
     <use x="126.855469" xlink:href="#DejaVuSans-101"/>
     <use x="188.378906" xlink:href="#DejaVuSans-98"/>
     <use x="251.855469" xlink:href="#DejaVuSans-101"/>
     <use x="313.378906" xlink:href="#DejaVuSans-114"/>
     <use x="352.742188" xlink:href="#DejaVuSans-103"/>
     <use x="416.21875" xlink:href="#DejaVuSans-104"/>
     <use x="479.597656" xlink:href="#DejaVuSans-97"/>
     <use x="540.876953" xlink:href="#DejaVuSans-110"/>
    </g>
   </g>
   <g id="text_11">
    <g id="patch_17">
     <path d="M 916.573883 537.145233 
L 1025.608883 537.145233 
L 1025.608883 513.660233 
L 916.573883 513.660233 
z
" style="fill:#ffffff;stroke:#ffffff;stroke-linejoin:miter;"/>
    </g>
    <!-- Pol-e Khomri -->
    <g transform="translate(920.573883 529.817733)scale(0.16 -0.16)">
     <defs>
      <path d="M 19.671875 64.796875 
L 19.671875 37.40625 
L 32.078125 37.40625 
Q 38.96875 37.40625 42.71875 40.96875 
Q 46.484375 44.53125 46.484375 51.125 
Q 46.484375 57.671875 42.71875 61.234375 
Q 38.96875 64.796875 32.078125 64.796875 
z
M 9.8125 72.90625 
L 32.078125 72.90625 
Q 44.34375 72.90625 50.609375 67.359375 
Q 56.890625 61.8125 56.890625 51.125 
Q 56.890625 40.328125 50.609375 34.8125 
Q 44.34375 29.296875 32.078125 29.296875 
L 19.671875 29.296875 
L 19.671875 0 
L 9.8125 0 
z
" id="DejaVuSans-80"/>
      <path d="M 4.890625 31.390625 
L 31.203125 31.390625 
L 31.203125 23.390625 
L 4.890625 23.390625 
z
" id="DejaVuSans-45"/>
      <path d="M 9.8125 72.90625 
L 19.671875 72.90625 
L 19.671875 42.09375 
L 52.390625 72.90625 
L 65.09375 72.90625 
L 28.90625 38.921875 
L 67.671875 0 
L 54.6875 0 
L 19.671875 35.109375 
L 19.671875 0 
L 9.8125 0 
z
" id="DejaVuSans-75"/>
     </defs>
     <use xlink:href="#DejaVuSans-80"/>
     <use x="56.677734" xlink:href="#DejaVuSans-111"/>
     <use x="117.859375" xlink:href="#DejaVuSans-108"/>
     <use x="145.642578" xlink:href="#DejaVuSans-45"/>
     <use x="181.726562" xlink:href="#DejaVuSans-101"/>
     <use x="243.25" xlink:href="#DejaVuSans-32"/>
     <use x="275.037109" xlink:href="#DejaVuSans-75"/>
     <use x="340.613281" xlink:href="#DejaVuSans-104"/>
     <use x="403.992188" xlink:href="#DejaVuSans-111"/>
     <use x="465.173828" xlink:href="#DejaVuSans-109"/>
     <use x="562.585938" xlink:href="#DejaVuSans-114"/>
     <use x="603.699219" xlink:href="#DejaVuSans-105"/>
    </g>
   </g>
   <g id="text_12">
    <g id="patch_18">
     <path d="M 840.204508 460.677584 
L 892.837008 460.677584 
L 892.837008 437.192584 
L 840.204508 437.192584 
z
" style="fill:#ffffff;stroke:#ffffff;stroke-linejoin:miter;"/>
    </g>
    <!-- Balkh -->
    <g transform="translate(844.204508 453.350084)scale(0.16 -0.16)">
     <use xlink:href="#DejaVuSans-66"/>
     <use x="68.603516" xlink:href="#DejaVuSans-97"/>
     <use x="129.882812" xlink:href="#DejaVuSans-108"/>
     <use x="157.666016" xlink:href="#DejaVuSans-107"/>
     <use x="215.576172" xlink:href="#DejaVuSans-104"/>
    </g>
   </g>
   <g id="text_13">
    <g id="patch_19">
     <path d="M 643.319846 523.960895 
L 739.954846 523.960895 
L 739.954846 500.475895 
L 643.319846 500.475895 
z
" style="fill:#ffffff;stroke:#ffffff;stroke-linejoin:miter;"/>
    </g>
    <!-- Meymaneh -->
    <g transform="translate(647.319846 516.633395)scale(0.16 -0.16)">
     <use xlink:href="#DejaVuSans-77"/>
     <use x="86.279297" xlink:href="#DejaVuSans-101"/>
     <use x="147.802734" xlink:href="#DejaVuSans-121"/>
     <use x="206.982422" xlink:href="#DejaVuSans-109"/>
     <use x="304.394531" xlink:href="#DejaVuSans-97"/>
     <use x="365.673828" xlink:href="#DejaVuSans-110"/>
     <use x="429.052734" xlink:href="#DejaVuSans-101"/>
     <use x="490.576172" xlink:href="#DejaVuSans-104"/>
    </g>
   </g>
   <g id="text_14">
    <g id="patch_20">
     <path d="M 575.047436 421.727531 
L 662.424936 421.727531 
L 662.424936 398.242531 
L 575.047436 398.242531 
z
" style="fill:#ffffff;stroke:#ffffff;stroke-linejoin:miter;"/>
    </g>
    <!-- Andkhvoy -->
    <g transform="translate(579.047436 414.400031)scale(0.16 -0.16)">
     <defs>
      <path d="M 2.984375 54.6875 
L 12.5 54.6875 
L 29.59375 8.796875 
L 46.6875 54.6875 
L 56.203125 54.6875 
L 35.6875 0 
L 23.484375 0 
z
" id="DejaVuSans-118"/>
     </defs>
     <use xlink:href="#DejaVuSans-65"/>
     <use x="68.408203" xlink:href="#DejaVuSans-110"/>
     <use x="131.787109" xlink:href="#DejaVuSans-100"/>
     <use x="195.263672" xlink:href="#DejaVuSans-107"/>
     <use x="253.173828" xlink:href="#DejaVuSans-104"/>
     <use x="316.552734" xlink:href="#DejaVuSans-118"/>
     <use x="375.732422" xlink:href="#DejaVuSans-111"/>
     <use x="436.914062" xlink:href="#DejaVuSans-121"/>
    </g>
   </g>
   <g id="text_15">
    <g id="patch_21">
     <path d="M 915.487177 780.903673 
L 978.812177 780.903673 
L 978.812177 757.418673 
L 915.487177 757.418673 
z
" style="fill:#ffffff;stroke:#ffffff;stroke-linejoin:miter;"/>
    </g>
    <!-- Ghazni -->
    <g transform="translate(919.487177 773.576173)scale(0.16 -0.16)">
     <defs>
      <path d="M 5.515625 54.6875 
L 48.1875 54.6875 
L 48.1875 46.484375 
L 14.40625 7.171875 
L 48.1875 7.171875 
L 48.1875 0 
L 4.296875 0 
L 4.296875 8.203125 
L 38.09375 47.515625 
L 5.515625 47.515625 
z
" id="DejaVuSans-122"/>
     </defs>
     <use xlink:href="#DejaVuSans-71"/>
     <use x="77.490234" xlink:href="#DejaVuSans-104"/>
     <use x="140.869141" xlink:href="#DejaVuSans-97"/>
     <use x="202.148438" xlink:href="#DejaVuSans-122"/>
     <use x="254.638672" xlink:href="#DejaVuSans-110"/>
     <use x="318.017578" xlink:href="#DejaVuSans-105"/>
    </g>
   </g>
   <g id="text_16">
    <g id="patch_22">
     <path d="M 1087.837647 386.19102 
L 1171.797647 386.19102 
L 1171.797647 362.70602 
L 1087.837647 362.70602 
z
" style="fill:#ffffff;stroke:#ffffff;stroke-linejoin:miter;"/>
    </g>
    <!-- Feyzabad -->
    <g transform="translate(1091.837647 378.86352)scale(0.16 -0.16)">
     <defs>
      <path d="M 9.8125 72.90625 
L 51.703125 72.90625 
L 51.703125 64.59375 
L 19.671875 64.59375 
L 19.671875 43.109375 
L 48.578125 43.109375 
L 48.578125 34.8125 
L 19.671875 34.8125 
L 19.671875 0 
L 9.8125 0 
z
" id="DejaVuSans-70"/>
     </defs>
     <use xlink:href="#DejaVuSans-70"/>
     <use x="52.019531" xlink:href="#DejaVuSans-101"/>
     <use x="113.542969" xlink:href="#DejaVuSans-121"/>
     <use x="172.722656" xlink:href="#DejaVuSans-122"/>
     <use x="225.212891" xlink:href="#DejaVuSans-97"/>
     <use x="286.492188" xlink:href="#DejaVuSans-98"/>
     <use x="349.96875" xlink:href="#DejaVuSans-97"/>
     <use x="411.248047" xlink:href="#DejaVuSans-100"/>
    </g>
   </g>
   <g id="text_17">
    <g id="patch_23">
     <path d="M 981.577819 424.658284 
L 1047.545319 424.658284 
L 1047.545319 401.173284 
L 981.577819 401.173284 
z
" style="fill:#ffffff;stroke:#ffffff;stroke-linejoin:miter;"/>
    </g>
    <!-- Kondoz -->
    <g transform="translate(985.577819 417.330784)scale(0.16 -0.16)">
     <use xlink:href="#DejaVuSans-75"/>
     <use x="60.576172" xlink:href="#DejaVuSans-111"/>
     <use x="121.757812" xlink:href="#DejaVuSans-110"/>
     <use x="185.136719" xlink:href="#DejaVuSans-100"/>
     <use x="248.613281" xlink:href="#DejaVuSans-111"/>
     <use x="309.794922" xlink:href="#DejaVuSans-122"/>
    </g>
   </g>
   <g id="text_18">
    <g id="patch_24">
     <path d="M 1113.720141 658.071524 
L 1194.865141 658.071524 
L 1194.865141 634.586524 
L 1113.720141 634.586524 
z
" style="fill:#ffffff;stroke:#ffffff;stroke-linejoin:miter;"/>
    </g>
    <!-- Jalalabad -->
    <g transform="translate(1117.720141 650.744024)scale(0.16 -0.16)">
     <defs>
      <path d="M 9.8125 72.90625 
L 19.671875 72.90625 
L 19.671875 5.078125 
Q 19.671875 -8.109375 14.671875 -14.0625 
Q 9.671875 -20.015625 -1.421875 -20.015625 
L -5.171875 -20.015625 
L -5.171875 -11.71875 
L -2.09375 -11.71875 
Q 4.4375 -11.71875 7.125 -8.046875 
Q 9.8125 -4.390625 9.8125 5.078125 
z
" id="DejaVuSans-74"/>
     </defs>
     <use xlink:href="#DejaVuSans-74"/>
     <use x="29.492188" xlink:href="#DejaVuSans-97"/>
     <use x="90.771484" xlink:href="#DejaVuSans-108"/>
     <use x="118.554688" xlink:href="#DejaVuSans-97"/>
     <use x="179.833984" xlink:href="#DejaVuSans-108"/>
     <use x="207.617188" xlink:href="#DejaVuSans-97"/>
     <use x="268.896484" xlink:href="#DejaVuSans-98"/>
     <use x="332.373047" xlink:href="#DejaVuSans-97"/>
     <use x="393.652344" xlink:href="#DejaVuSans-100"/>
    </g>
   </g>
   <g id="text_19">
    <g id="patch_25">
     <path d="M 972.787731 601.746789 
L 1048.295231 601.746789 
L 1048.295231 578.261789 
L 972.787731 578.261789 
z
" style="fill:#ffffff;stroke:#ffffff;stroke-linejoin:miter;"/>
    </g>
    <!-- Charikar -->
    <g transform="translate(976.787731 594.419289)scale(0.16 -0.16)">
     <use xlink:href="#DejaVuSans-67"/>
     <use x="69.824219" xlink:href="#DejaVuSans-104"/>
     <use x="133.203125" xlink:href="#DejaVuSans-97"/>
     <use x="194.482422" xlink:href="#DejaVuSans-114"/>
     <use x="235.595703" xlink:href="#DejaVuSans-105"/>
     <use x="263.378906" xlink:href="#DejaVuSans-107"/>
     <use x="319.539062" xlink:href="#DejaVuSans-97"/>
     <use x="380.818359" xlink:href="#DejaVuSans-114"/>
    </g>
   </g>
   <g id="text_20">
    <g id="patch_26">
     <path d="M 984.739548 746.526831 
L 1044.239548 746.526831 
L 1044.239548 723.041831 
L 984.739548 723.041831 
z
" style="fill:#ffffff;stroke:#ffffff;stroke-linejoin:miter;"/>
    </g>
    <!-- Gardiz -->
    <g transform="translate(988.739548 739.199331)scale(0.16 -0.16)">
     <use xlink:href="#DejaVuSans-71"/>
     <use x="77.490234" xlink:href="#DejaVuSans-97"/>
     <use x="138.769531" xlink:href="#DejaVuSans-114"/>
     <use x="178.132812" xlink:href="#DejaVuSans-100"/>
     <use x="241.609375" xlink:href="#DejaVuSans-105"/>
     <use x="269.392578" xlink:href="#DejaVuSans-122"/>
    </g>
   </g>
   <g id="text_21">
    <g id="patch_27">
     <path d="M 836.980272 621.877989 
L 905.737772 621.877989 
L 905.737772 598.392989 
L 836.980272 598.392989 
z
" style="fill:#ffffff;stroke:#ffffff;stroke-linejoin:miter;"/>
    </g>
    <!-- Bamian -->
    <g transform="translate(840.980272 614.550489)scale(0.16 -0.16)">
     <use xlink:href="#DejaVuSans-66"/>
     <use x="68.603516" xlink:href="#DejaVuSans-97"/>
     <use x="129.882812" xlink:href="#DejaVuSans-109"/>
     <use x="227.294922" xlink:href="#DejaVuSans-105"/>
     <use x="255.078125" xlink:href="#DejaVuSans-97"/>
     <use x="316.357422" xlink:href="#DejaVuSans-110"/>
    </g>
   </g>
   <g id="text_22">
    <g id="patch_28">
     <path d="M 975.38546 502.613699 
L 1048.85546 502.613699 
L 1048.85546 479.128699 
L 975.38546 479.128699 
z
" style="fill:#ffffff;stroke:#ffffff;stroke-linejoin:miter;"/>
    </g>
    <!-- Baghlan -->
    <g transform="translate(979.38546 495.286199)scale(0.16 -0.16)">
     <use xlink:href="#DejaVuSans-66"/>
     <use x="68.603516" xlink:href="#DejaVuSans-97"/>
     <use x="129.882812" xlink:href="#DejaVuSans-103"/>
     <use x="193.359375" xlink:href="#DejaVuSans-104"/>
     <use x="256.738281" xlink:href="#DejaVuSans-108"/>
     <use x="284.521484" xlink:href="#DejaVuSans-97"/>
     <use x="345.800781" xlink:href="#DejaVuSans-110"/>
    </g>
   </g>
   <g id="text_23">
    <g id="patch_29">
     <path d="M 386.907166 869.880545 
L 438.977166 869.880545 
L 438.977166 846.395545 
L 386.907166 846.395545 
z
" style="fill:#ffffff;stroke:#ffffff;stroke-linejoin:miter;"/>
    </g>
    <!-- Farah -->
    <g transform="translate(390.907166 862.553045)scale(0.16 -0.16)">
     <use xlink:href="#DejaVuSans-70"/>
     <use x="48.394531" xlink:href="#DejaVuSans-97"/>
     <use x="109.673828" xlink:href="#DejaVuSans-114"/>
     <use x="150.787109" xlink:href="#DejaVuSans-97"/>
     <use x="212.066406" xlink:href="#DejaVuSans-104"/>
    </g>
   </g>
   <g id="text_24">
    <g id="patch_30">
     <path d="M 423.577607 687.321148 
L 476.110107 687.321148 
L 476.110107 663.836148 
L 423.577607 663.836148 
z
" style="fill:#ffffff;stroke:#ffffff;stroke-linejoin:miter;"/>
    </g>
    <!-- Herat -->
    <g transform="translate(427.577607 679.993648)scale(0.16 -0.16)">
     <defs>
      <path d="M 9.8125 72.90625 
L 19.671875 72.90625 
L 19.671875 43.015625 
L 55.515625 43.015625 
L 55.515625 72.90625 
L 65.375 72.90625 
L 65.375 0 
L 55.515625 0 
L 55.515625 34.71875 
L 19.671875 34.71875 
L 19.671875 0 
L 9.8125 0 
z
" id="DejaVuSans-72"/>
     </defs>
     <use xlink:href="#DejaVuSans-72"/>
     <use x="75.195312" xlink:href="#DejaVuSans-101"/>
     <use x="136.71875" xlink:href="#DejaVuSans-114"/>
     <use x="177.832031" xlink:href="#DejaVuSans-97"/>
     <use x="239.111328" xlink:href="#DejaVuSans-116"/>
    </g>
   </g>
   <g id="text_25">
    <g id="patch_31">
     <path d="M 774.36338 424.960149 
L 897.19338 424.960149 
L 897.19338 401.475149 
L 774.36338 401.475149 
z
" style="fill:#ffffff;stroke:#ffffff;stroke-linejoin:miter;"/>
    </g>
    <!-- Mazar-e Sharif -->
    <g transform="translate(778.36338 417.632649)scale(0.16 -0.16)">
     <defs>
      <path d="M 37.109375 75.984375 
L 37.109375 68.5 
L 28.515625 68.5 
Q 23.6875 68.5 21.796875 66.546875 
Q 19.921875 64.59375 19.921875 59.515625 
L 19.921875 54.6875 
L 34.71875 54.6875 
L 34.71875 47.703125 
L 19.921875 47.703125 
L 19.921875 0 
L 10.890625 0 
L 10.890625 47.703125 
L 2.296875 47.703125 
L 2.296875 54.6875 
L 10.890625 54.6875 
L 10.890625 58.5 
Q 10.890625 67.625 15.140625 71.796875 
Q 19.390625 75.984375 28.609375 75.984375 
z
" id="DejaVuSans-102"/>
     </defs>
     <use xlink:href="#DejaVuSans-77"/>
     <use x="86.279297" xlink:href="#DejaVuSans-97"/>
     <use x="147.558594" xlink:href="#DejaVuSans-122"/>
     <use x="200.048828" xlink:href="#DejaVuSans-97"/>
     <use x="261.328125" xlink:href="#DejaVuSans-114"/>
     <use x="296.066406" xlink:href="#DejaVuSans-45"/>
     <use x="332.150391" xlink:href="#DejaVuSans-101"/>
     <use x="393.673828" xlink:href="#DejaVuSans-32"/>
     <use x="425.460938" xlink:href="#DejaVuSans-83"/>
     <use x="488.9375" xlink:href="#DejaVuSans-104"/>
     <use x="552.316406" xlink:href="#DejaVuSans-97"/>
     <use x="613.595703" xlink:href="#DejaVuSans-114"/>
     <use x="654.708984" xlink:href="#DejaVuSans-105"/>
     <use x="682.492188" xlink:href="#DejaVuSans-102"/>
    </g>
   </g>
   <g id="text_26">
    <g id="patch_32">
     <path d="M 721.481961 964.995595 
L 806.124461 964.995595 
L 806.124461 941.510595 
L 721.481961 941.510595 
z
" style="fill:#ffffff;stroke:#ffffff;stroke-linejoin:miter;"/>
    </g>
    <!-- Kandahar -->
    <g transform="translate(725.481961 957.668095)scale(0.16 -0.16)">
     <use xlink:href="#DejaVuSans-75"/>
     <use x="63.826172" xlink:href="#DejaVuSans-97"/>
     <use x="125.105469" xlink:href="#DejaVuSans-110"/>
     <use x="188.484375" xlink:href="#DejaVuSans-100"/>
     <use x="251.960938" xlink:href="#DejaVuSans-97"/>
     <use x="313.240234" xlink:href="#DejaVuSans-104"/>
     <use x="376.619141" xlink:href="#DejaVuSans-97"/>
     <use x="437.898438" xlink:href="#DejaVuSans-114"/>
    </g>
   </g>
   <g id="text_27">
    <g id="patch_33">
     <path d="M 986.234979 702.743409 
L 1088.149979 702.743409 
L 1088.149979 661.341909 
L 986.234979 661.341909 
z
" style="fill:#ffffff;stroke:#ffffff;stroke-linejoin:miter;"/>
    </g>
    <!-- Kabul -->
    <g transform="translate(1014.812479 677.499409)scale(0.16 -0.16)">
     <defs>
      <path d="M 8.5 21.578125 
L 8.5 54.6875 
L 17.484375 54.6875 
L 17.484375 21.921875 
Q 17.484375 14.15625 20.5 10.265625 
Q 23.53125 6.390625 29.59375 6.390625 
Q 36.859375 6.390625 41.078125 11.03125 
Q 45.3125 15.671875 45.3125 23.6875 
L 45.3125 54.6875 
L 54.296875 54.6875 
L 54.296875 0 
L 45.3125 0 
L 45.3125 8.40625 
Q 42.046875 3.421875 37.71875 1 
Q 33.40625 -1.421875 27.6875 -1.421875 
Q 18.265625 -1.421875 13.375 4.4375 
Q 8.5 10.296875 8.5 21.578125 
z
M 31.109375 56 
z
" id="DejaVuSans-117"/>
     </defs>
     <use xlink:href="#DejaVuSans-75"/>
     <use x="63.826172" xlink:href="#DejaVuSans-97"/>
     <use x="125.105469" xlink:href="#DejaVuSans-98"/>
     <use x="188.582031" xlink:href="#DejaVuSans-117"/>
     <use x="251.960938" xlink:href="#DejaVuSans-108"/>
    </g>
    <!-- (3,160,266) -->
    <g transform="translate(990.234979 695.415909)scale(0.16 -0.16)">
     <defs>
      <path d="M 31 75.875 
Q 24.46875 64.65625 21.28125 53.65625 
Q 18.109375 42.671875 18.109375 31.390625 
Q 18.109375 20.125 21.3125 9.0625 
Q 24.515625 -2 31 -13.1875 
L 23.1875 -13.1875 
Q 15.875 -1.703125 12.234375 9.375 
Q 8.59375 20.453125 8.59375 31.390625 
Q 8.59375 42.28125 12.203125 53.3125 
Q 15.828125 64.359375 23.1875 75.875 
z
" id="DejaVuSans-40"/>
      <path d="M 40.578125 39.3125 
Q 47.65625 37.796875 51.625 33 
Q 55.609375 28.21875 55.609375 21.1875 
Q 55.609375 10.40625 48.1875 4.484375 
Q 40.765625 -1.421875 27.09375 -1.421875 
Q 22.515625 -1.421875 17.65625 -0.515625 
Q 12.796875 0.390625 7.625 2.203125 
L 7.625 11.71875 
Q 11.71875 9.328125 16.59375 8.109375 
Q 21.484375 6.890625 26.8125 6.890625 
Q 36.078125 6.890625 40.9375 10.546875 
Q 45.796875 14.203125 45.796875 21.1875 
Q 45.796875 27.640625 41.28125 31.265625 
Q 36.765625 34.90625 28.71875 34.90625 
L 20.21875 34.90625 
L 20.21875 43.015625 
L 29.109375 43.015625 
Q 36.375 43.015625 40.234375 45.921875 
Q 44.09375 48.828125 44.09375 54.296875 
Q 44.09375 59.90625 40.109375 62.90625 
Q 36.140625 65.921875 28.71875 65.921875 
Q 24.65625 65.921875 20.015625 65.03125 
Q 15.375 64.15625 9.8125 62.3125 
L 9.8125 71.09375 
Q 15.4375 72.65625 20.34375 73.4375 
Q 25.25 74.21875 29.59375 74.21875 
Q 40.828125 74.21875 47.359375 69.109375 
Q 53.90625 64.015625 53.90625 55.328125 
Q 53.90625 49.265625 50.4375 45.09375 
Q 46.96875 40.921875 40.578125 39.3125 
z
" id="DejaVuSans-51"/>
      <path d="M 11.71875 12.40625 
L 22.015625 12.40625 
L 22.015625 4 
L 14.015625 -11.625 
L 7.71875 -11.625 
L 11.71875 4 
z
" id="DejaVuSans-44"/>
      <path d="M 12.40625 8.296875 
L 28.515625 8.296875 
L 28.515625 63.921875 
L 10.984375 60.40625 
L 10.984375 69.390625 
L 28.421875 72.90625 
L 38.28125 72.90625 
L 38.28125 8.296875 
L 54.390625 8.296875 
L 54.390625 0 
L 12.40625 0 
z
" id="DejaVuSans-49"/>
      <path d="M 33.015625 40.375 
Q 26.375 40.375 22.484375 35.828125 
Q 18.609375 31.296875 18.609375 23.390625 
Q 18.609375 15.53125 22.484375 10.953125 
Q 26.375 6.390625 33.015625 6.390625 
Q 39.65625 6.390625 43.53125 10.953125 
Q 47.40625 15.53125 47.40625 23.390625 
Q 47.40625 31.296875 43.53125 35.828125 
Q 39.65625 40.375 33.015625 40.375 
z
M 52.59375 71.296875 
L 52.59375 62.3125 
Q 48.875 64.0625 45.09375 64.984375 
Q 41.3125 65.921875 37.59375 65.921875 
Q 27.828125 65.921875 22.671875 59.328125 
Q 17.53125 52.734375 16.796875 39.40625 
Q 19.671875 43.65625 24.015625 45.921875 
Q 28.375 48.1875 33.59375 48.1875 
Q 44.578125 48.1875 50.953125 41.515625 
Q 57.328125 34.859375 57.328125 23.390625 
Q 57.328125 12.15625 50.6875 5.359375 
Q 44.046875 -1.421875 33.015625 -1.421875 
Q 20.359375 -1.421875 13.671875 8.265625 
Q 6.984375 17.96875 6.984375 36.375 
Q 6.984375 53.65625 15.1875 63.9375 
Q 23.390625 74.21875 37.203125 74.21875 
Q 40.921875 74.21875 44.703125 73.484375 
Q 48.484375 72.75 52.59375 71.296875 
z
" id="DejaVuSans-54"/>
      <path d="M 31.78125 66.40625 
Q 24.171875 66.40625 20.328125 58.90625 
Q 16.5 51.421875 16.5 36.375 
Q 16.5 21.390625 20.328125 13.890625 
Q 24.171875 6.390625 31.78125 6.390625 
Q 39.453125 6.390625 43.28125 13.890625 
Q 47.125 21.390625 47.125 36.375 
Q 47.125 51.421875 43.28125 58.90625 
Q 39.453125 66.40625 31.78125 66.40625 
z
M 31.78125 74.21875 
Q 44.046875 74.21875 50.515625 64.515625 
Q 56.984375 54.828125 56.984375 36.375 
Q 56.984375 17.96875 50.515625 8.265625 
Q 44.046875 -1.421875 31.78125 -1.421875 
Q 19.53125 -1.421875 13.0625 8.265625 
Q 6.59375 17.96875 6.59375 36.375 
Q 6.59375 54.828125 13.0625 64.515625 
Q 19.53125 74.21875 31.78125 74.21875 
z
" id="DejaVuSans-48"/>
      <path d="M 19.1875 8.296875 
L 53.609375 8.296875 
L 53.609375 0 
L 7.328125 0 
L 7.328125 8.296875 
Q 12.9375 14.109375 22.625 23.890625 
Q 32.328125 33.6875 34.8125 36.53125 
Q 39.546875 41.84375 41.421875 45.53125 
Q 43.3125 49.21875 43.3125 52.78125 
Q 43.3125 58.59375 39.234375 62.25 
Q 35.15625 65.921875 28.609375 65.921875 
Q 23.96875 65.921875 18.8125 64.3125 
Q 13.671875 62.703125 7.8125 59.421875 
L 7.8125 69.390625 
Q 13.765625 71.78125 18.9375 73 
Q 24.125 74.21875 28.421875 74.21875 
Q 39.75 74.21875 46.484375 68.546875 
Q 53.21875 62.890625 53.21875 53.421875 
Q 53.21875 48.921875 51.53125 44.890625 
Q 49.859375 40.875 45.40625 35.40625 
Q 44.1875 33.984375 37.640625 27.21875 
Q 31.109375 20.453125 19.1875 8.296875 
z
" id="DejaVuSans-50"/>
      <path d="M 8.015625 75.875 
L 15.828125 75.875 
Q 23.140625 64.359375 26.78125 53.3125 
Q 30.421875 42.28125 30.421875 31.390625 
Q 30.421875 20.453125 26.78125 9.375 
Q 23.140625 -1.703125 15.828125 -13.1875 
L 8.015625 -13.1875 
Q 14.5 -2 17.703125 9.0625 
Q 20.90625 20.125 20.90625 31.390625 
Q 20.90625 42.671875 17.703125 53.65625 
Q 14.5 64.65625 8.015625 75.875 
z
" id="DejaVuSans-41"/>
     </defs>
     <use xlink:href="#DejaVuSans-40"/>
     <use x="39.013672" xlink:href="#DejaVuSans-51"/>
     <use x="102.636719" xlink:href="#DejaVuSans-44"/>
     <use x="134.423828" xlink:href="#DejaVuSans-49"/>
     <use x="198.046875" xlink:href="#DejaVuSans-54"/>
     <use x="261.669922" xlink:href="#DejaVuSans-48"/>
     <use x="325.292969" xlink:href="#DejaVuSans-44"/>
     <use x="357.080078" xlink:href="#DejaVuSans-50"/>
     <use x="420.703125" xlink:href="#DejaVuSans-54"/>
     <use x="484.326172" xlink:href="#DejaVuSans-54"/>
     <use x="547.949219" xlink:href="#DejaVuSans-41"/>
    </g>
   </g>
   <g id="text_28">
    <!-- Cities in Afghanistan -->
    <g transform="translate(700.529063 189.978286)scale(0.36 -0.36)">
     <use xlink:href="#DejaVuSans-67"/>
     <use x="69.824219" xlink:href="#DejaVuSans-105"/>
     <use x="97.607422" xlink:href="#DejaVuSans-116"/>
     <use x="136.816406" xlink:href="#DejaVuSans-105"/>
     <use x="164.599609" xlink:href="#DejaVuSans-101"/>
     <use x="226.123047" xlink:href="#DejaVuSans-115"/>
     <use x="278.222656" xlink:href="#DejaVuSans-32"/>
     <use x="310.009766" xlink:href="#DejaVuSans-105"/>
     <use x="337.792969" xlink:href="#DejaVuSans-110"/>
     <use x="401.171875" xlink:href="#DejaVuSans-32"/>
     <use x="432.958984" xlink:href="#DejaVuSans-65"/>
     <use x="497.742188" xlink:href="#DejaVuSans-102"/>
     <use x="532.947266" xlink:href="#DejaVuSans-103"/>
     <use x="596.423828" xlink:href="#DejaVuSans-104"/>
     <use x="659.802734" xlink:href="#DejaVuSans-97"/>
     <use x="721.082031" xlink:href="#DejaVuSans-110"/>
     <use x="784.460938" xlink:href="#DejaVuSans-105"/>
     <use x="812.244141" xlink:href="#DejaVuSans-115"/>
     <use x="864.34375" xlink:href="#DejaVuSans-116"/>
     <use x="903.552734" xlink:href="#DejaVuSans-97"/>
     <use x="964.832031" xlink:href="#DejaVuSans-110"/>
    </g>
   </g>
  </g>
 </g>
 <defs>
  <clipPath id="p6264abff46">
   <rect height="1020.434733" width="1339.2" x="216" y="206.182634"/>
  </clipPath>
 </defs>
</svg>
