<?xml version="1.0" encoding="utf-8"?>
<!-- Generator: Adobe Illustrator 16.0.0, SVG Export Plug-In . SVG Version: 6.00 Build 0)  -->
<!DOCTYPE svg PUBLIC "-//W3C//DTD SVG 1.1//EN" "http://www.w3.org/Graphics/SVG/1.1/DTD/svg11.dtd">
<svg version="1.1"
	 id="svg9419" xmlns:svg="http://www.w3.org/2000/svg" xmlns:sodipodi="http://sodipodi.sourceforge.net/DTD/sodipodi-0.dtd" xmlns:dc="http://purl.org/dc/elements/1.1/" xmlns:cc="http://creativecommons.org/ns#" xmlns:rdf="http://www.w3.org/1999/02/22-rdf-syntax-ns#" xmlns:inkscape="http://www.inkscape.org/namespaces/inkscape" inkscape:version="0.48.4 r9939" sodipodi:docname="Rensselaer County New York incorporated and unincorporated areas.svg"
	 xmlns="http://www.w3.org/2000/svg" xmlns:xlink="http://www.w3.org/1999/xlink" x="0px" y="0px" width="664.476px"
	 height="862.878px" viewBox="-106.347 13.611 664.476 862.878" enable-background="new -106.347 13.611 664.476 862.878"
	 xml:space="preserve">
<defs>
	
	<inkscape:path-effect  id="path-effect12771" effect="spiro" is_visible="true"></inkscape:path-effect>
	<inkscape:path-effect  id="path-effect12766" effect="spiro" is_visible="true"></inkscape:path-effect>
	<inkscape:path-effect  id="path-effect12761" effect="spiro" is_visible="true"></inkscape:path-effect>
	<inkscape:path-effect  id="path-effect12756" effect="spiro" is_visible="true"></inkscape:path-effect>
	<inkscape:path-effect  id="path-effect12751" effect="spiro" is_visible="true"></inkscape:path-effect>
	<inkscape:path-effect  id="path-effect12745" effect="spiro" is_visible="true"></inkscape:path-effect>
	
		<inkscape:perspective  id="perspective95" inkscape:vp_y="0 : 1000 : 0" inkscape:vp_x="0 : 352.89932 : 1" sodipodi:type="inkscape:persp3d" inkscape:vp_z="614.10468 : 352.89932 : 1" inkscape:persp3d-origin="307.05234 : 235.26622 : 1">
		</inkscape:perspective>
</defs>
<sodipodi:namedview  inkscape:window-height="837" inkscape:window-x="-8" inkscape:current-layer="layer7" inkscape:pageshadow="2" inkscape:window-maximized="1" inkscape:pageopacity="0.0" inkscape:window-width="1600" inkscape:window-y="-8" inkscape:cx="527.71993" showgrid="false" inkscape:zoom="0.7" borderopacity="1.0" pagecolor="#ffffff" inkscape:cy="252.57855" bordercolor="#666666" id="base" borderlayer="true" inkscape:document-units="px">
	</sodipodi:namedview>
<g id="layer32" inkscape:label="Bitmap base" inkscape:groupmode="layer" display="none">
	<g id="g12738" transform="matrix(0.99998346,0,0,0.99998346,1.0140631,-9.0793272)" display="inline">
		<g>
			<defs>
				<rect id="SVGID_1_" x="-12.853" y="375.289" width="517.849" height="320.709"/>
			</defs>
			<clipPath id="SVGID_2_">
				<use xlink:href="#SVGID_1_"  overflow="visible"/>
			</clipPath>
			<g transform="matrix(1 0 0 1 -7.629395e-06 0)" clip-path="url(#SVGID_2_)" enable-background="new    ">
				
					<image overflow="visible" width="1600" height="900" id="image12712" xlink:href="D3EF388E0EE3FDB4.png"  transform="matrix(0.4153 0 0 0.4153 -107.3628 348.6653)">
				</image>
			</g>
		</g>
		<g>
			<defs>
				<rect id="SVGID_3_" x="-29.989" y="691.06" width="231.425" height="40.714"/>
			</defs>
			<clipPath id="SVGID_4_">
				<use xlink:href="#SVGID_3_"  overflow="visible"/>
			</clipPath>
			<g transform="matrix(1 0 0 1 7.629395e-06 -3.051758e-05)" clip-path="url(#SVGID_4_)" enable-background="new    ">
				
					<image overflow="visible" width="1600" height="900" id="image12723" xlink:href="D3EF388E0EE3FDB4.png"  transform="matrix(0.4153 0 0 0.4153 -107.354 511.8282)">
				</image>
			</g>
		</g>
	</g>
</g>
<g id="Outline" inkscape:label="County outline" sodipodi:insensitive="true" inkscape:groupmode="layer">
	
		<path id="path3400" sodipodi:nodetypes="cccccccccccccccccccccccccccccccccccccsccccccz" inkscape:connector-curvature="0" fill="none" stroke="#000000" stroke-width="3" d="
		M9.164,718.88l417.844-63.008l85.57-339.411h-12.421l-13.802-78.792c2.401-5.379,9.866-14.971,5.348-21.213
		c-2.578-5.195-1.271-10.523-0.689-16.163c0.161-2.707,0.606-5.269,1.207-7.829c1.795-3.346,4.025,0.96,6.211,0.252l4.354-157.009
		l-101.983,0.357c-1.713-2.55-2.619-5.314-5.673-6.071c-3.934-1.302-5.378-3.088-8.967-6.696c-3.394-1.856-6.425,2.23-9.332-1.786
		c-3.483-5.798-9.133-5.219-13.416-3.306c-9.851,6.951-5.796-10.566-19.646,0.927c-6.877,7.008-14.226,2.654-11.423,15.503
		l-181.745,5c-2.862,4.186-11.358,1.698-13.944,4.379c-4.387,4.124-10.644,6.262-12.594,14.099
		c-0.872,3.625-6.503,10.217-12.236,18.943c-5.826,7.504-7.913,17.4-8.293,28.282c1.083,22.335,14.663,20.228,9.574,41.037
		c-1.766,13.286-1.745,13.396,1.294,21.592c1.418,3.656,0.495,10.32,2.07,14.647c1.563,5.456,4.229,6.785,5.952,14.773
		c2.93,10.232,4.457,13.02,5.176,20.077c1.755,12.827,0.056,20.786-9.402,24.749c-2.246,1.567-3.107,3.289-3.532,6.028
		c-2.134,13.176-5.149,22.437-10.27,37.661c-1.944,5.952-0.708,13.656-2.455,18.882c-3.663,10.761,0.413,26.493-8.068,32.131
		c-4.727,5.847-6.166,23.018-8.626,34.851c-0.238,4.106-0.09,6.894,0.518,11.111c0.361,1.654-2.175,5.656-3.451,8.46
		c-3.654,6.178-6.132,10.576-9.315,16.036c-4.774,9.768-9.461,19.998-15.548,28.67c-2.575,3.479-6.725,7.107-9.094,11.318
		c-3.048,5.417-6.159,15.407-7.953,21.575c-3.076,9.401-3.565,19.04-7.606,28.491c-5.687,14.494-5.357,30.562-0.514,45.306
		c8.222,17.594,4.637,34.298,2.031,52.707c-0.934,7.521-1.654,14.781-2.516,22.224c-2.503,19.792-13.844,33.165-20.219,50.329
		C2.405,684.92,1.214,720.079,9.164,718.88L9.164,718.88z"/>
</g>
<g id="Towns" inkscape:label="Towns" sodipodi:insensitive="true" inkscape:groupmode="layer">
	<path id="Stephentown" inkscape:connector-curvature="0" fill="#FFFFFF" stroke="#000000" d="M466.175,500.584l-147.375,16
		c-0.016,0.04-0.049,0.085-0.062,0.125c0,0-3.414,0.364-4.125,0.438l-40.126,161.719l152.532-23L466.175,500.584z M275.705,521.428
		c-2.961,0.346-5.881,0.675-8.812,1.031C269.819,522.104,272.767,521.771,275.705,521.428z"/>
	<path id="Nassau_1_" inkscape:connector-curvature="0" fill="#FFFFFF" stroke="#000000" d="M314.612,517.146
		c-9.73,1.009-45.074,4.721-67.657,7.906c-10.164,1.434-27.891,4.319-45.781,7.312c-3.276,20.727-5.081,42.071-9.594,62.562
		c-3.402,1.517,1.085,10.197-5.125,14.5c-2.299,0.836-4.029,1.5-4.188,3.938c-0.177,4.649,0.588,9.277,0.938,13.906
		c-0.87,6.562-5.73,10.834-8.656,16.875c-6.268,0.198-6.705,6.676-5.812,12.188c0.847,4.406-0.636,6.487-3.594,8.938
		c-2.85,3.391-6.83,5.797-7.844,10.375c-1.558,3.709,1.203,6.968,0.344,10.688c-1.223,3.08-2.374,5.598-2.5,8.938
		c0.02,0.274-0.021,0.9-0.062,1.594l119.406-18L314.612,517.146z"/>
	<path id="Schodack" inkscape:connector-curvature="0" fill="#FFFFFF" stroke="#000000" d="M28.642,517.771
		c-0.016,0.437,0.008,0.875,0,1.312c0.009-0.434,0.016-0.879,0.031-1.312H28.642z M29.174,529.053
		c0.082,0.639,0.151,1.27,0.25,1.906C29.326,530.324,29.255,529.688,29.174,529.053z M219.08,529.396
		c-5.184,0.846-10.588,1.742-16.062,2.656c5.506-0.915,10.805-1.767,16.062-2.625V529.396L219.08,529.396z M201.174,532.365
		c-28.163,4.711-56.719,9.688-56.719,9.688l0.031-0.156L36.955,559.428c-0.014-0.126-0.047-0.249-0.062-0.375
		c1.438,11.882-0.803,23.719-2.594,36.375c-0.934,7.521-1.639,14.808-2.5,22.25c-2.503,19.792-13.844,33.148-20.219,50.312
		c-9.174,16.926-10.356,52.073-2.406,50.875l145.906-22c0.042-0.693,0.082-1.319,0.062-1.594c0.126-3.34,1.276-5.857,2.5-8.938
		c0.859-3.72-1.901-6.979-0.344-10.688c1.014-4.578,4.994-6.984,7.844-10.375c2.958-2.45,4.44-4.531,3.594-8.938
		c-0.893-5.512-0.455-11.989,5.812-12.188c2.926-6.041,7.786-10.312,8.656-16.875c-0.35-4.629-1.114-9.257-0.938-13.906
		c0.158-2.438,1.889-3.102,4.188-3.938c6.21-4.303,1.723-12.983,5.125-14.5C196.093,574.437,197.897,553.092,201.174,532.365
		L201.174,532.365z M31.049,538.615c0.168,0.629,0.348,1.25,0.531,1.875C31.395,539.863,31.217,539.246,31.049,538.615z"/>
	<path id="East_Greenbush" inkscape:connector-curvature="0" fill="#FFFFFF" stroke="#000000" d="M60.205,455.271l-0.219,0.062
		c-1.154,4.712-1.866,9.214-4.125,14.219c-0.734,1.58-2.318,3.225-1.781,5.375c1.437,3.07,1.333,5.779-2.125,6.406
		c-7.121-0.8-4.685,1.221-6.344,10.812c-0.112,10.108-4.15,14.587-15.406,13.781c-2.777,12.118-1.853,24.895,2.062,36.812
		c2.629,5.624,4.055,11.16,4.688,16.688l107.531-17.531l13.125-65.75l-52.812-11.219c-1.635-1.892-3.457-1.994-5-2.875
		c-0.952-0.545-2.146,0.48-3.219,0.719c-1.124,0.25-2.542-1.675-3.219-2.125c-1.469-0.979-2.18-1.121-3.562-1.812
		c-1.004-0.502-1.891,1.217-2.844,1.812L60.205,455.271z M34.736,492.084c-0.365,1.188-0.766,2.378-1.219,3.562
		C33.97,494.462,34.371,493.272,34.736,492.084z"/>
	<path id="North_Greenbush" inkscape:connector-curvature="0" fill="#FFFFFF" stroke="#000000" d="M132.285,361.058
		c0.337,3.35,0.66,6.687,0.969,10.031C132.951,367.746,132.621,364.409,132.285,361.058z M85.191,377.276
		c0.079,1.733,0.259,3.485,0.562,5.594c0.067,0.311,0.046,0.707-0.062,1.156c0.116-0.443,0.161-0.815,0.094-1.125
		C85.481,380.793,85.278,379.018,85.191,377.276L85.191,377.276z M177.472,378.308l-43.75,7.688
		c-0.049-0.089-0.077-0.162-0.125-0.25c-18.558,3.362-34.096,4.311-51.125,5.281c-0.047,0.099-0.112,0.217-0.156,0.312
		c-3.654,6.179-6.129,10.571-9.312,16.031c-3.059,6.257-6.087,12.702-9.469,18.812c2.741,2.007,5.661,3.74,8.75,5.156
		c2.593,1.962,4.053-1.485,4.094-1.5c0.976-5.199,6.038-0.056,9.469,2.938c-0.504,5.573-0.078,11.569-1.406,16.781
		c-5.85-2.085-10.786-4.57-16.344-5.875c-0.538,0.377-5.316,2.988-6,4.812c-0.937,2.388-1.583,4.633-2.125,6.844l0.219-0.062
		l26.75,5.375c0.952-0.595,1.839-2.314,2.844-1.812c1.382,0.691,2.094,0.833,3.562,1.812c0.676,0.451,2.094,2.375,3.219,2.125
		c1.071-0.237,2.266-1.263,3.219-0.719c1.542,0.882,3.365,0.984,5,2.875l52.812,11.219l7.219-36.125L177.472,378.308z
		 M59.597,432.87c-0.696,1.089-1.422,2.142-2.156,3.188C58.173,435.016,58.903,433.956,59.597,432.87z M48.347,447.37
		c-0.37,0.659-0.758,1.404-1.125,2.188C47.599,448.765,47.97,448.04,48.347,447.37z M58.504,461.62
		c-0.195,0.783-0.395,1.582-0.625,2.375C58.11,463.195,58.307,462.411,58.504,461.62z M54.941,471.214
		c-0.521,0.9-0.998,1.846-0.969,2.938C53.944,473.068,54.425,472.108,54.941,471.214z"/>
	<path id="Berlin" inkscape:connector-curvature="0" fill="#FFFFFF" stroke="#000000" d="M376.925,347.084l-0.094,0.438
		c0,0-13.828,1.677-29.781,3.688L314.956,516.99l151.219-16.406l36.969-146.625c-1.538-0.237-3.353,0.354-5.5,2.031
		c-4.57,11.242-2.675-0.893-15.688-1.781c-6.867,5.341-16.163,8.671-23.594-2.156c-1.928-0.847-6.856,0.374-10-0.344
		c-0.717-0.18-5.364-2.382-6.969-0.906c-2.163,3.679-3.142,6.826-7.312,8.406c-9.088,3.702-16.264-5.679-24.094-8.938
		C398.943,348.148,389.342,348.749,376.925,347.084z"/>
	<path id="Sand_Lake" sodipodi:nodetypes="ccccscccc" inkscape:connector-curvature="0" fill="#FFFFFF" stroke="#000000" d="
		M331.518,431.365l-116.063,18.938l-50.625-10.281l-20.375,102.031c0,0,76.334-13.31,102.5-17
		c26.167-3.69,71.782-8.344,71.782-8.344c0.014-0.04,0.047-0.085,0.062-0.125l-3.844,0.406L331.518,431.365z"/>
	<path id="Poestenkill" inkscape:connector-curvature="0" fill="#FFFFFF" stroke="#000000" d="M347.05,351.24
		c-13.78,1.727-28.68,3.615-39.188,5.125c-20.195,2.9-65.583,10.42-66.251,10.531l-0.031,0.156l-64.094,11.25l-12.656,61.719
		l50.625,10.281l116.095-18.938L347.05,351.24z"/>
	<path id="Grafton" inkscape:connector-curvature="0" fill="#FFFFFF" stroke="#000000" d="M407.3,202.521l-42.531,7.125
		c0.001,0.006,0.03,0.281,0.03,0.281l-88.031,14.781l-35.156,142.188c0.668-0.111,46.056-7.631,66.25-10.531
		c20.344-2.922,68.969-8.844,68.969-8.844L407.3,202.521L407.3,202.521z"/>
	<path id="Petersburgh" inkscape:connector-curvature="0" fill="#FFFFFF" stroke="#000000" d="M498.581,187.271l-91.281,15.25
		l-30.375,144.562c12.417,1.665,22.019,1.064,33.062,3.188c7.83,3.259,15.005,12.639,24.094,8.938
		c4.171-1.58,5.149-4.728,7.312-8.406c1.604-1.476,6.252,0.727,6.969,0.906c3.144,0.718,8.071-0.503,10,0.344
		c7.431,10.828,16.727,7.498,23.594,2.156c13.013,0.888,11.117,13.023,15.688,1.781c1.42-1.397,2.223-3.031,5-1.781
		c0.122-0.056,0.271-0.079,0.438-0.094l9.5-37.656h-12.438l-13.781-78.781c2.401-5.379,9.862-14.976,5.344-21.219
		c-2.578-5.195-1.27-10.517-0.688-16.156c0.161-2.708,0.586-5.285,1.188-7.844c1.795-3.346,4.032,0.958,6.219,0.25L498.581,187.271z
		"/>
	<path id="Brunswick" inkscape:connector-curvature="0" fill="#FFFFFF" stroke="#000000" d="M276.767,224.709l-102.594,17.219
		l-0.125,0.406c-5.448,2.26-9.147,3.383-13.875,4.062c-9.748,1.634-19.712,2.308-27.781,8.812c-0.021-0.002-0.041-0.001-0.062,0
		c0.457,0.418,0.829,0.878,1.125,1.375c7.297,10.997,2.938,11.882-4.125,14.75c-3.002,11.652-8.161,26.356-6.406,34.312
		c6.991,24.971,9.276,53.122,11.594,79.938c-0.309,0.057-0.599,0.101-0.906,0.156c0.049,0.087,0.076,0.161,0.125,0.25
		l107.844-18.938L276.767,224.709z M174.174,241.928l4.469-16.812c-0.01,0.003-0.021-0.003-0.031,0L174.174,241.928z"/>
	
		<path id="Pittstown" sodipodi:nodetypes="cccccccccccccccsccc" inkscape:connector-curvature="0" fill="#FFFFFF" stroke="#000000" d="
		M315.862,35.084c-0.655,3.054,0.315,6.608-1.781,9.312c-4.915,6.697-11.459,3.395-17.313,6.25
		c-9.892,0.645-6.761,10.378-15.188,13.188c-5.109,0.327-4.536,3.446-7.312,6.969c-3.06,2.843-8.673,1.324-11.812-0.688
		c-2.014-1.266-5.077-1.658-4.875,1.625c0.973,2.254,0.273,5.702-3.969,1.906c-6.316-0.508-5.187,4.242-3.281,8.594
		c1.217,5.146-6.149,5.005-10.375,4.906c-7.405-0.026-7,3.811-12.125,6.156c-4.083,0.417-6.6-3.135-10.438-2.5
		c-4.517,1.042-2.625,5.736-5.969,11l-37.25,140.125l190.626-32c0,0-9.321-60.552-12.219-86.812
		c-2.898-26.262-7.126-87.809-7.126-87.809c-3.948-0.355-7.841-0.282-11.79-0.187L315.862,35.084z"/>
	<path id="Hoosick" inkscape:connector-curvature="0" fill="#FFFFFF" stroke="#000000" d="M351.3,15.115
		c-1.722,0.082-4.069,1.158-7.531,4.031c-6.877,7.008-14.24,2.65-11.438,15.5l-15.938,0.438l17.281,0.031
		c3.948-0.095,7.832-0.167,11.781,0.188c0,0,4.227,61.551,7.125,87.812c2.877,26.076,12.057,85.685,12.188,86.532l133.812-22.375
		L502.8,35.709l-102,0.344c-1.713-2.551-2.603-5.306-5.656-6.062c-3.934-1.302-5.38-3.08-8.969-6.688
		c-3.394-1.856-6.437,2.234-9.344-1.781c-3.483-5.799-9.124-5.227-13.406-3.312C356.036,23.422,356.464,14.867,351.3,15.115z
		 M315.237,35.115c0.122,0.742,0.243,1.48,0.375,2.219c0.034-0.752,0.099-1.503,0.25-2.219H315.237z"/>
	<path id="Schaghticoke" inkscape:connector-curvature="0" fill="#FFFFFF" stroke="#000000" stroke-width="0.6" d="M315.862,35.084
		l-165.251,4.562c-2.861,4.186-11.383,1.693-13.969,4.375c-4.387,4.123-10.644,6.257-12.594,14.094
		c-0.871,3.625-6.485,10.211-12.219,18.938c-5.826,7.504-7.932,17.399-8.312,28.281c1.084,22.335,14.683,20.222,9.594,41.031
		c-1.765,13.286-1.758,13.398,1.281,21.594c1.418,3.656,0.519,10.329,2.094,14.656c1.563,5.455,4.215,6.792,5.938,14.781
		c2.931,10.231,4.469,13.004,5.188,20.062c1.755,12.827,0.052,20.787-9.406,24.75c-1.791,1.25-2.708,2.614-3.219,4.5
		c0.036,0.018,0.09,0.045,0.125,0.062c5.181,3.915,13.502,5.069,17.188,8.438c0.031,0.003,0.063-0.003,0.094,0
		c8.069-6.505,18.033-7.179,27.781-8.812c4.728-0.68,8.427-1.802,13.875-4.062l37.375-140.531c3.344-5.264,1.452-9.958,5.969-11
		c3.838-0.635,6.354,2.917,10.438,2.5c5.125-2.345,4.72-6.182,12.125-6.156c4.226,0.099,11.592,0.24,10.375-4.906
		c-1.905-4.352-3.035-9.102,3.281-8.594c4.242,3.796,4.941,0.348,3.969-1.906c-0.202-3.284,2.861-2.892,4.875-1.625
		c3.14,2.012,8.753,3.531,11.812,0.688c2.776-3.522,2.203-6.642,7.312-6.969c8.427-2.809,5.296-12.543,15.188-13.188
		c5.854-2.855,12.398,0.447,17.313-6.25C316.177,41.692,315.207,38.138,315.862,35.084L315.862,35.084z"/>
	<g id="Mystery_places" inkscape:label="CDPs" inkscape:groupmode="layer">
		<g id="layer35" inkscape:label="West Sand Lake" inkscape:groupmode="layer">
			
				<path id="path12749" inkscape:connector-curvature="0" inkscape:original-d="m 165.52582,440.33153 -8.1973,38.37823 3.72604,-0.93151 2.60823,4.09865 1.11781,3.53973 0.18631,4.84386 -0.37261,1.67672 3.72605,3.53974 4.09864,-1.11782 2.60823,-4.84384 4.65756,-7.07949 2.04932,-2.60823 -2.23564,-6.89316 5.58908,0.55889 3.16713,6.14797 4.65755,3.72604 1.86301,3.72605 0.74522,2.98083 0.37261,3.72604 4.65755,1.30412 3.91234,-2.23563 4.47125,-2.04932 5.58906,-2.04933 3.16715,-4.09864 -2.79454,-14.34526 -6.70689,-8.011 -1.863,-1.49041 -6.14798,0.74521 -3.91235,-8.38358 2.98084,-1.49043 2.98084,-5.03016 z" inkscape:path-effect="#path-effect12751" fill="#FFFFFF" stroke="#000000" stroke-width="1.008" d="
				M165.526,440.332l-8.197,38.378l3.726-0.932l2.608,4.099l1.118,3.54l0.186,4.844l-0.372,1.677l3.726,3.539l4.099-1.117
				l2.608-4.844l4.658-7.08l2.049-2.607l-2.235-6.894l5.589,0.559l3.167,6.148l4.657,3.726l1.863,3.727l0.745,2.98l0.373,3.727
				l4.657,1.304l3.912-2.235l4.472-2.05l5.589-2.049l3.167-4.099l-2.794-14.346l-6.707-8.011l-1.863-1.49l-6.147,0.745l-3.913-8.384
				l2.981-1.49l2.98-5.03L165.526,440.332"/>
		</g>
		<g id="layer37" inkscape:label="Hampton Manor" inkscape:groupmode="layer">
			
				<path id="path12754" inkscape:connector-curvature="0" inkscape:original-d="m 44.056859,493.80023 1.863021,-2.79453 7.638386,-1.1178 2.235625,-1.11783 7.824688,4.47125 0.93151,3.53974 2.421929,6.70688 -2.049325,0 -0.745208,2.42193 -10.060313,0.55891 -9.128803,-10.61923 z" inkscape:path-effect="#path-effect12756" fill="#FFFFFF" stroke="#000000" stroke-width="1.008" d="
				M44.057,493.8l1.862-2.794l7.639-1.118l2.235-1.117l7.825,4.471l0.932,3.54l2.422,6.707h-2.05l-0.745,2.422l-10.061,0.559
				l-9.129-10.619L44.057,493.8"/>
		</g>
		<g id="layer38" inkscape:label="East Greenbush (CDP)" inkscape:groupmode="layer">
			
				<path id="path12759" inkscape:connector-curvature="0" inkscape:original-d="m 67.158318,553.97581 36.515212,-5.96168 -0.37262,-20.30692 -11.178111,1.30411 -3.726042,-1.1178 0.745208,-2.98084 1.117813,-9.50141 0,-6.14797 -7.452085,3.16714 0,3.35344 0,3.16713 -3.539738,3.35344 -0.93151,-2.04933 -3.353439,-0.5589 -1.67672,3.72605 -1.304113,-0.18631 -3.539739,-0.93151 -1.67672,-0.1863 -0.558906,2.42193 2.60823,0.7452 1.676718,1.67671 0,1.67674 -0.93151,0.9315 -1.304115,1.49041 -1.490417,0.18632 -1.117812,-0.93152 -0.558906,9.50141 z" inkscape:path-effect="#path-effect12761" fill="#FFFFFF" stroke="#000000" stroke-width="1.008" d="
				M67.158,553.976l36.516-5.962l-0.373-20.307l-11.178,1.305l-3.726-1.118l0.745-2.98l1.117-9.502v-6.147l-7.452,3.167v3.354v3.167
				l-3.539,3.354l-0.932-2.05l-3.354-0.559l-1.677,3.726l-1.304-0.186l-3.54-0.932l-1.677-0.187l-0.559,2.422l2.607,0.745
				l1.677,1.677v1.677l-0.932,0.932l-1.304,1.49l-1.49,0.187l-1.118-0.932l-0.559,9.502L67.158,553.976"/>
		</g>
		<g id="layer39" inkscape:label="Poestenkill (CDP)" inkscape:groupmode="layer">
			
				<path id="path12764" inkscape:connector-curvature="0" inkscape:original-d="m 204.46295,374.38059 -1.49042,3.16714 2.04933,4.09865 0.93151,4.84384 -0.74521,3.53974 -1.30412,1.67673 2.04933,5.77536 1.11782,3.35344 0.37259,3.35344 -0.37259,2.23562 3.53973,3.53975 1.86302,3.35342 0.7452,2.60824 0.55891,3.53974 1.49042,3.72605 1.67672,-0.55893 0.1863,-3.16712 3.53975,-0.55891 3.91233,-2.04932 1.86302,1.11781 0,2.42193 5.21647,-1.49042 7.07948,-4.84385 2.23563,-0.93151 4.09865,1.30411 3.53973,-1.49041 -1.86303,-4.47126 0.1863,-2.98083 9.50141,-0.7452 2.79454,-0.93152 1.86301,-10.43291 0,-6.52058 0,-3.35343 0.18631,-3.16714 0.5589,-11.55073 -6.14796,-3.91234 z" inkscape:path-effect="#path-effect12766" fill="#FFFFFF" stroke="#000000" stroke-width="1.008" d="
				M204.463,374.381l-1.49,3.167l2.05,4.099l0.932,4.844l-0.746,3.54l-1.304,1.677c0.707,1.916,1.39,3.842,2.05,5.775
				c0.38,1.115,0.753,2.232,1.117,3.354l0.373,3.354l-0.373,2.235l3.54,3.54l1.863,3.353l0.745,2.608l0.559,3.54l1.49,3.726
				l1.677-0.559l0.187-3.167l3.54-0.559l3.912-2.05l1.863,1.118v2.422l5.216-1.49l7.08-4.845l2.235-0.931l4.099,1.304l3.54-1.49
				l-1.863-4.472l0.187-2.98l9.501-0.745l2.795-0.932l1.862-10.434c0.026-2.173,0.026-4.347,0-6.52
				c-0.013-1.118-0.033-2.236,0-3.354c0.032-1.058,0.112-2.112,0.187-3.168c0.271-3.846,0.456-7.696,0.56-11.55l-6.148-3.912
				L204.463,374.381"/>
		</g>
		<g id="layer40" inkscape:label="Wynantskill" inkscape:groupmode="layer">
			
				<path id="path12769" inkscape:connector-curvature="0" inkscape:original-d="m 109.44889,407.54237 4.84385,-8.19731 1.86301,-5.77535 2.79454,-3.16715 10.80552,-2.23561 13.97267,-2.23563 0.37259,4.09864 5.96168,-1.67672 3.16712,-0.3726 -2.04932,6.89319 11.73704,13.60004 -1.67673,6.14798 -2.79452,0.93151 -0.18631,-4.09865 -2.60822,-5.40276 -1.67673,2.04931 -3.16714,-0.55889 0,5.58906 -0.93151,4.65755 -4.65755,5.77536 -2.04932,0 -2.60823,-4.47124 -1.86301,-0.74522 -2.04932,0 -3.72605,-1.30411 -1.11782,-2.04933 -0.7452,-4.28495 0.18629,-4.65754 1.49043,-5.03016 1.49041,-4.28496 -3.53974,-1.67671 -0.37259,2.79453 -0.93152,1.49041 -1.67671,0 -3.35345,-0.37258 -2.60823,-0.55891 -2.79453,0.93149 0.93151,1.30412 3.35344,6.14798 0,2.79453 -1.67672,3.16713 z" inkscape:path-effect="#path-effect12771" fill="#FFFFFF" stroke="#000000" stroke-width="1.008" d="
				M109.449,407.542l4.844-8.197l1.863-5.774l2.794-3.168c3.587-0.816,7.189-1.562,10.806-2.235
				c4.638-0.864,9.298-1.609,13.973-2.235l0.373,4.099l5.962-1.677l3.167-0.373l-2.05,6.894l11.737,13.6l-1.677,6.148l-2.795,0.932
				l-0.186-4.099l-2.608-5.403l-1.677,2.05l-3.167-0.56v5.589l-0.932,4.658l-4.658,5.775h-2.049l-2.608-4.472l-1.863-0.745h-2.049
				l-3.727-1.304l-1.117-2.05l-0.745-4.285l0.186-4.657c0.455-1.688,0.952-3.366,1.491-5.03c0.466-1.438,0.963-2.867,1.49-4.285
				l-3.54-1.676l-0.372,2.794l-0.932,1.49h-1.677l-3.354-0.372l-2.608-0.559l-2.795,0.931l0.932,1.305l3.354,6.147v2.795
				l-1.677,3.167L109.449,407.542"/>
		</g>
		<g id="layer33" inkscape:label="Averill Park" inkscape:groupmode="layer">
			
				<path id="path12743" inkscape:connector-curvature="0" inkscape:original-d="m 207.63008,463.06039 7.26579,0.5589 1.30412,-1.1178 11.55071,1.67671 2.42193,-2.79454 3.91234,-1.67671 2.23564,-4.47125 1.86301,-0.18631 2.42193,3.72604 1.11782,0 1.49041,-1.67671 5.77537,-1.86302 3.16713,-1.49042 0.55892,6.52058 -0.74522,2.04931 0.37261,6.14797 2.23562,-0.5589 4.28494,-4.47125 1.49042,-1.67672 1.86303,-1.49041 5.21645,0 -2.04932,3.72603 0.1863,3.35345 0.18631,2.79453 -2.04932,2.98083 -1.49042,3.35345 -2.04933,3.16712 -1.11781,1.30411 -3.53974,0.93152 -2.42193,2.98083 -2.04932,3.35344 -3.16713,0.93151 -3.72605,-4.09865 -3.53974,-3.53974 -2.98083,0 -1.11782,-4.47125 -1.3041,0 -0.93152,4.65756 -2.42192,2.23562 -6.14797,1.30412 -2.04933,2.98083 -7.63839,3.53973 -2.23562,0 0,-1.49041 1.49042,-4.47124 -0.93151,-4.84387 -1.86302,-4.84385 -1.67673,-3.72604 -2.79452,-5.96167 z" inkscape:path-effect="#path-effect12745" fill="#FFFFFF" stroke="#000000" stroke-width="1.008" d="
				M207.63,463.061l7.267,0.559l1.304-1.117l11.551,1.676l2.422-2.794l3.912-1.677l2.236-4.472l1.862-0.186l2.422,3.726h1.118
				l1.49-1.677l5.775-1.863l3.167-1.49l0.56,6.521l-0.745,2.05l0.372,6.147l2.235-0.559c1.47-1.451,2.898-2.941,4.285-4.471
				c0.503-0.555,0.999-1.113,1.49-1.678l1.863-1.49h5.217l-2.05,3.727c0.056,1.118,0.118,2.236,0.187,3.354
				c0.058,0.932,0.119,1.863,0.187,2.794l-2.05,2.981l-1.49,3.354l-2.049,3.167l-1.118,1.304l-3.54,0.932l-2.422,2.98l-2.049,3.354
				l-3.167,0.932c-1.208-1.396-2.45-2.764-3.727-4.099c-1.153-1.206-2.333-2.387-3.54-3.54h-2.98l-1.118-4.471h-1.304l-0.932,4.657
				l-2.422,2.235l-6.147,1.305l-2.05,2.98l-7.639,3.54h-2.235v-1.49l1.49-4.472l-0.932-4.844c-0.562-1.636-1.184-3.252-1.862-4.844
				c-0.534-1.253-1.104-2.49-1.677-3.726c-0.923-1.991-1.854-3.979-2.795-5.962L207.63,463.061"/>
		</g>
	</g>
</g>
<g id="Cities" inkscape:label="Villages" inkscape:groupmode="layer">
	<path id="Castleton" sodipodi:nodetypes="cccccccccc" inkscape:connector-curvature="0" fill="#CCCCCC" stroke="#000000" d="
		M30.611,623.042c1.531-3.741,5.375-5.499,7.098-9.153c1.159-3.141,2.518-7.271,2.471-7.007c2.511,1.904,7.887,10.252,11.357,10.418
		c5.32-0.836,7.116-3.284,5.595-0.322c-3.358,5.67-6.525,3.552-7.788,0.388c-4.51-0.83-2.393,7.582-3.611,9.753
		c-1.107,3.985-3.141,7.543-7.521,6.694c-2.947-0.484-8.325,0.231-8.88-3.658C28.872,627.694,30.135,625.396,30.611,623.042z"/>
	<path id="Nassau" inkscape:connector-curvature="0" fill="#CCCCCC" stroke="#000000" d="M167.656,662.062
		c1.601,1.622,3.939-0.211,5.345-1.244c1.21-1.766,2.352-4.045,4.869-3.908c2.521-0.044,2.751-2.667,3.139-4.554
		c1.148-3.051,2.48-6.074,3.049-9.313c-0.281-2.415-1.767-4.467-2.382-6.781c-2.293-3.158-3.092,2.255-4.446,3.579
		c-1.176,2.212-3.244,4.284-5.934,4.164c-2.156-0.786-3.977,0.776-5.057,2.454c-1.951,1.714-0.837,4.62,0.711,6.192
		c1.931,1.685,1.532,4.298,1.349,6.564C168.186,660.184,167.983,661.144,167.656,662.062L167.656,662.062z"/>
	<path id="East_Nassau" inkscape:connector-curvature="0" fill="#CCCCCC" stroke="#000000" d="M275.705,521.428
		c-2.938,0.343-5.886,0.676-8.812,1.031C269.824,522.103,272.744,521.773,275.705,521.428z M264.799,574.553l2.156,62.156
		l-3.219,0.344l0.344,9.656l3.562,0.344v22.5l-14.281,0.375l0.719,5.344l3.562,0.375l0.594,5.656l16.25-2.438l9-36.25l5.969-68.062
		H264.799z"/>
	<path id="Hoosick_1_" sodipodi:nodetypes="ccccccccccc" inkscape:connector-curvature="0" fill="#CCCCCC" stroke="#000000" d="
		M423.56,114.43c1.28-2.766-1.197-3.303-2.176-4.631c-2.206-2.025-2.441-5.229-2.814-8.023c-0.427-4.938-1.747-9.797-1.592-14.777
		c-0.565-1.892,0.984-3.436,2.824-3.479c2.031-0.146,4.178,0.481,6.051-0.636c2.265-1.024,4.865,0.367,7.122-0.757
		c1.564-0.115,3.041-1.36,4.629-0.755c1.398,1.254,1.84,3.396,1.862,5.231c0.202,8.52,1.484,17.995,1.743,27.032
		C434.25,114.627,429.229,114.852,423.56,114.43L423.56,114.43z"/>
	<path id="Valley_Falls" sodipodi:nodetypes="cccccccccccs" inkscape:connector-curvature="0" fill="#CCCCCC" stroke="#000000" d="
		M217.299,98.669c0.088,1.248-2.048,2.69-2.36,4.362c0.521,2.418,3.307,3.967,5.65,3.203c1.056-0.264,1.904-1,2.99-1.178
		c1.432-0.368,2.826-0.908,4.026-1.782c1.374-0.521,2.688-1.866,1.946-3.431c-1.303-3.545-3.074-6.905-5.088-10.099
		c-1.176-0.923-2.692-0.037-3.671,0.76c-0.912,0.722-2.053,0.274-3.088,0.382c-1.09,0.137-1.564,1.282-2.101,2.099
		c-0.522,1.023-0.792,2.146-1.106,3.244C214.998,97.449,217.233,97.738,217.299,98.669z"/>
	
		<path id="Schaghticoke_1_" sodipodi:nodetypes="cccccccccccc" inkscape:connector-curvature="0" fill="#CCCCCC" stroke="#000000" d="
		M187.942,111.147c0.945-1.7,0.477-3.723,0.897-5.551c0.177-3.14,0.083-6.318,0.656-9.419c0.39-1.56,0.58-3.366,1.904-4.459
		c0.932-1.455,2.329-2.551,3.832-3.371c2.012-0.399,3.968-1.211,6.035-1.246c1.467,0.172,3.172,1.033,3.326,2.672
		c0.388,1.093,0.739,2.231,0.859,3.402c0.284,3.005,1.649,5.758,2.359,8.667c-0.063,1.951-1.827,3.172-3.333,4.091
		c-3.614,2.252-5.633,4.562-9.583,4.941C192.584,111.06,190.263,111.256,187.942,111.147z"/>
	<path id="Troy" inkscape:connector-curvature="0" fill="#CCCCCC" stroke="#000000" stroke-width="1.2" d="M114.997,246.703
		c-0.13,0.479-0.255,0.976-0.342,1.531c-2.133,13.176-5.148,22.431-10.268,37.656c-1.944,5.952-0.708,13.68-2.455,18.906
		c-3.663,10.76,0.411,26.487-8.07,32.125c-4.727,5.847-6.164,23.011-8.624,34.844c-0.238,4.106-0.074,6.906,0.533,11.125
		c0.349,1.595-1.997,5.342-3.309,8.125c17.32-0.988,33.087-1.934,52.068-5.438c-2.318-26.816-4.623-54.967-11.613-79.938
		c-1.756-7.956,3.423-22.66,6.426-34.312c7.062-2.868,11.417-3.753,4.12-14.75c-2.693-4.51-12.528-5.406-18.359-9.812
		C115.068,246.748,115.033,246.721,114.997,246.703z"/>
	<path id="Rensselaer" inkscape:connector-curvature="0" fill="#CCCCCC" stroke="#000000" stroke-width="1.2" d="M63.549,426.178
		c-1.896,3.427-3.904,6.757-6.094,9.875c-2.575,3.479-6.725,7.102-9.094,11.312c-3.048,5.418-6.175,15.394-7.969,21.562
		c-3.075,9.4-3.553,19.049-7.594,28.5c-1.089,2.777-1.935,5.627-2.594,8.5c11.256,0.806,15.294-3.673,15.406-13.781
		c1.659-9.592-0.777-11.612,6.344-10.812c3.458-0.627,3.562-3.336,2.125-6.406c-0.537-2.15,1.047-3.795,1.781-5.375
		c3.318-7.354,3.316-13.589,6.25-21.062c0.684-1.825,5.463-4.437,6-4.812c5.559,1.304,10.494,3.789,16.344,5.875
		c1.328-5.213,0.902-11.208,1.406-16.781c-3.43-2.994-8.493-8.138-9.469-2.938c-0.04,0.015-1.501,3.462-4.094,1.5
		C69.21,429.918,66.29,428.184,63.549,426.178z"/>
</g>
</svg>
