<?xml version="1.0" encoding="utf-8"?>
<!-- Generator: Adobe Illustrator 16.0.0, SVG Export Plug-In . SVG Version: 6.00 Build 0)  -->
<!DOCTYPE svg PUBLIC "-//W3C//DTD SVG 1.1//EN" "http://www.w3.org/Graphics/SVG/1.1/DTD/svg11.dtd">
<svg version="1.1"
	 id="svg19965" xmlns:sodipodi="http://sodipodi.sourceforge.net/DTD/sodipodi-0.dtd" xmlns:cc="http://web.resource.org/cc/" xmlns:rdf="http://www.w3.org/1999/02/22-rdf-syntax-ns#" xmlns:dc="http://purl.org/dc/elements/1.1/" xmlns:svg="http://www.w3.org/2000/svg" xmlns:inkscape="http://www.inkscape.org/namespaces/inkscape" sodipodi:docname="outputmap.svg" inkscape:version="0.45" inkscape:output_extension="org.inkscape.output.svg.inkscape" sodipodi:version="0.32" sodipodi:docbase="C:\Files\wikibot"
	 xmlns="http://www.w3.org/2000/svg" xmlns:xlink="http://www.w3.org/1999/xlink" x="0px" y="0px" width="2333.289px"
	 height="587.652px" viewBox="0 0 2333.289 587.652" enable-background="new 0 0 2333.289 587.652" xml:space="preserve">
<g id="Expanded_Riverside">
	
		<sodipodi:namedview  width="2400px" height="1700px" id="base" guidetolerance="10.0" inkscape:zoom="0.22235294" pagecolor="#ffffff" inkscape:cx="1200" bordercolor="#666666" borderopacity="1.0" objecttolerance="10.0" gridtolerance="10.0" inkscape:cy="850" inkscape:window-height="579" inkscape:window-width="748" inkscape:pageshadow="2" inkscape:current-layer="svg19965" inkscape:window-y="44" inkscape:window-x="44" inkscape:pageopacity="0.0">
		</sodipodi:namedview>
	<polygon fill="#8CCBEF" stroke="#000000" stroke-width="3" points="1347.73,603.896 1193.239,326.41 1152.741,290.412 
		1073.245,246.914 975.75,206.416 900.755,176.417 846.757,158.418 774.76,131.419 764.26,113.42 752.261,81.922 751.156,77.533 
		724.104,77.197 721.702,77.097 721.702,77.097 694.903,76.797 694.903,76.797 635.702,76.497 608.903,76.097 596.202,75.997 
		587.903,75.797 571.104,75.697 571.104,75.697 570.803,101.297 570.403,101.297 568.004,101.297 564.903,101.297 564.903,101.297 
		558.803,101.297 547.502,101.197 546.604,101.197 539.202,101.097 525.104,101.197 524.202,101.197 519.304,101.397 
		510.405,100.797 510.405,100.797 505.006,100.697 505.006,100.697 501.807,100.497 492.406,100.397 492.406,100.397 
		486.206,100.697 481.406,100.697 481.406,100.697 477.706,100.797 477.706,100.797 473.607,101.097 473.607,101.097 
		472.706,101.197 445.009,100.897 432.509,100.797 430.609,100.797 418.109,100.397 418.109,100.397 404.408,100.097 
		404.408,100.097 399.408,100.197 367.809,99.797 367.809,99.797 358.408,99.597 358.609,86.897 358.609,86.897 345.408,86.797 
		345.408,86.797 326.209,86.497 326.209,86.497 326.109,86.497 326.109,86.497 326.008,86.497 326.008,86.497 324.109,86.497 
		324.109,86.497 323.008,86.397 323.008,86.397 322.808,86.397 322.808,86.397 318.609,86.197 318.609,86.197 316.209,86.097 
		314.811,85.997 314.811,85.997 307.709,85.697 300.908,85.497 300.908,85.497 298.809,85.497 295.207,85.497 295.207,85.497 
		294.107,85.597 294.107,85.597 289.906,85.397 289.906,85.397 289.007,85.497 283.109,85.297 283.109,85.297 282.709,85.297 
		282.709,85.297 281.908,85.297 281.908,85.297 281.109,85.297 281.109,85.297 278.908,85.297 277.309,85.297 277.309,85.297 
		276.908,85.197 276.609,85.197 276.609,85.197 276.507,85.197 276.507,85.197 271.109,85.197 271.109,85.197 270.809,85.197 
		270.809,85.197 270.309,86.097 270.309,86.097 269.609,85.597 269.609,85.597 269.507,85.097 269.507,85.097 262.609,84.997 
		260.309,84.897 260.309,84.897 260.207,84.897 260.207,84.897 258.207,84.997 258.207,84.997 257.406,84.997 257.406,84.997 
		256.607,84.997 256.607,84.997 256.505,84.997 256.005,84.897 256.005,84.897 250.905,84.897 250.905,84.897 251.205,72.097 
		251.205,72.097 245.405,71.897 243.905,71.897 243.905,71.897 240.105,71.897 240.105,71.897 238.105,71.897 238.105,71.897 
		232.705,71.797 232.705,71.797 232.505,71.797 232.505,71.797 225.705,71.497 225.705,71.497 223.105,71.397 223.105,71.397 
		221.705,71.397 210.205,71.497 210.205,71.497 186.405,71.397 182.305,71.397 182.305,71.397 175.105,71.297 170.105,71.197 
		170.105,71.197 167.503,71.197 162.503,71.097 162.503,71.097 156.702,71.197 144.403,70.797 144.403,70.797 144.103,70.897 
		144.103,70.897 131.702,70.497 131.702,70.497 125.403,70.397 125.403,70.397 124.903,70.397 124.903,70.397 119.803,70.397 
		119.803,70.397 119.7,78.997 119.7,80.797 119.7,80.797 119.601,83.297 119.601,83.297 119.401,102.697 119.401,110.097 
		119.401,110.097 106.601,114.697 106.601,114.697 93.999,119.597 93.999,119.597 89.399,121.197 88.698,121.497 88.698,121.497 
		87.802,121.897 87.802,121.897 84.499,123.197 84.499,123.197 84.399,123.297 84.399,123.297 81.599,124.397 81.599,124.397 
		81.299,134.497 81.299,134.497 81.197,139.797 81.197,139.797 81.197,139.897 81.197,139.897 81.097,141.297 81.097,141.297 
		81.097,143.797 81.097,143.797 81.097,144.497 81.097,144.497 80.495,165.197 80.495,165.197 69.797,165.097 69.797,165.097 
		48.597,164.697 48.495,181.697 48.495,181.697 48.395,196.597 32.995,196.397 36.395,200.197 37.395,201.397 38.095,203.397 
		35.095,207.997 35.992,208.697 35.992,208.697 34.492,212.197 34.492,212.197 34.992,212.697 35.095,212.797 35.395,213.397 
		35.395,213.397 33.595,214.597 33.795,219.197 33.992,223.497 42.693,224.097 42.693,224.097 48.393,231.797 48.393,231.797 
		48.893,232.597 48.893,232.597 60.094,247.897 80.99,277.197 97.99,299.896 100.391,303.699 108.291,306.796 131.689,313.296 
		132.291,332.296 132.791,353.199 132.791,354.896 159.391,359.597 175.591,361.296 186.091,372.097 211.489,394.199 
		219.389,401.296 186.089,451 157.589,493.896 154.289,499.794 147.589,510.095 147.689,521.998 147.989,521.998 147.989,521.998 
		147.989,521.895 147.989,521.895 152.489,522.197 152.291,526.294 152.291,526.294 152.291,526.294 152.291,526.294 
		151.891,532.197 147.591,531.998 147.591,535.595 147.591,535.595 151.989,535.699 151.989,535.699 167.091,535.896 
		167.091,535.896 170.391,535.896 170.391,535.896 252.691,537.095 247.793,549.595 253.094,551.794 310.094,575.095 
		310.991,575.498 310.991,575.498 319.891,579.095 319.891,579.095 334.191,584.998 340.591,587.595 340.691,591.095 
		340.691,591.095 340.591,602.498 342.289,602.498 342.289,602.498 350.49,602.498 350.49,602.498 351.289,602.595 351.289,602.595 
		352.49,602.595 352.49,602.595 370.591,602.699 370.591,602.699 373.99,602.699 373.99,602.699 376.49,602.796 376.49,602.796 
		379.189,602.796 410.889,602.699 410.889,602.699 411.389,602.699 411.389,602.699 411.49,602.699 411.789,602.699 
		411.789,602.699 412.091,602.796 412.091,602.796 412.191,602.796 412.191,602.796 412.391,602.796 412.391,602.796 415.191,602.9 
		415.191,602.9 417.491,603.097 417.491,603.097 430.191,604.201 430.191,604.201 430.591,604.201 430.591,604.201 443.891,604.9 
		443.891,604.9 450.891,605.201 450.891,605.201 455.289,605.298 457.591,605.298 457.591,605.298 462.99,605.402 462.99,605.402 
		477.389,605.599 477.389,605.599 492.49,605.798 492.889,605.798 492.889,608.599 513.889,608.798 528.189,608.298 
		528.189,608.298 560.289,608.902 560.289,608.902 590.891,609.501 590.891,609.501 599.289,609.602 599.289,609.602 
		616.689,610.102 633.289,610.001 633.59,610.001 633.59,610.001 644.391,610.102 644.391,610.102 745.09,610.501 787.99,610.703 
		791.689,610.703 853.59,611.402 1021.09,611.298 1095.59,610.5 1144.59,613 1157.09,613.099 1176.889,613.099 1176.889,613.099 
		1181.689,613.099 1189.59,613.099 1194.287,613.099 1195.488,613.099 1195.488,613.099 1202.188,613 1203.586,612.9 
		1203.586,612.9 1206.688,612.9 1208.586,612.9 1208.586,612.9 1212.887,612.796 1212.887,612.796 1214.988,612.796 
		1219.387,612.796 1227.188,612.699 1239.688,612.595 1254.887,612.595 1309.387,612.595 1355.086,611.998 	"/>
	<polygon id="Sun_Valley_part" fill="#8CCBEF" stroke="#000000" stroke-width="3" points="752.261,81.922 764.26,113.42 
		774.76,131.419 846.757,158.418 900.755,176.417 975.75,206.416 1073.245,246.914 1152.741,290.412 1193.239,326.41 
		1347.73,603.896 1355.086,611.998 1455.688,611.697 1455.688,611.697 1458.086,611.593 1458.086,611.593 1461.086,611.593 
		1461.086,611.593 1465.688,611.496 1465.688,611.496 1467.887,611.292 1467.887,611.292 1471.887,611.292 1471.887,611.292 
		1580.387,611.195 1580.387,611.195 1623.688,610.893 1625.787,609.591 1776.388,608.695 1776.388,608.695 1787.287,608.292 
		1787.287,608.292 1800.09,608.195 1800.09,608.195 1800.389,608.292 1800.389,608.292 1839.99,607.593 1839.99,607.593 
		1856.291,607.395 1856.291,607.395 1870.791,607.093 1889.49,607.593 1916.09,607.496 1921.59,607.093 1921.59,607.093 
		1928.09,606.996 1928.09,606.996 1961.191,605.792 1997.491,605.093 1997.491,605.093 1997.991,605.093 1997.991,605.093 
		2008.094,604.895 2008.094,604.895 2012.594,604.792 2012.594,604.792 2031.893,604.395 2084.193,603.792 2084.094,600.593 
		2130.693,599.895 2153.094,599.697 2153.094,599.697 2153.991,599.697 2154.594,599.697 2154.594,599.697 2165.893,599.593 
		2170.693,599.496 2170.693,599.496 2171.795,599.496 2171.795,599.496 2184.795,599.195 2184.795,599.195 2185.193,599.195 
		2185.193,599.195 2202.493,598.996 2202.493,598.996 2210.393,598.893 2210.393,598.893 2229.393,598.695 2229.393,598.695 
		2230.291,598.695 2230.291,598.695 2231.491,598.695 2231.491,598.695 2234.791,586.292 2233.893,580.195 2234.193,578.393 
		2241.594,565.792 2244.791,562.193 2249.191,556.39 2250.59,553.791 2251.289,551.589 2252.289,548.193 2256.289,540.39 
		2258.39,537.89 2258.59,537.693 2264.191,534.089 2268.991,533.089 2272.094,531.589 2278.193,524.791 2278.393,523.492 
		2278.094,518.191 2278.991,512.492 2279.39,511.589 2291.491,501.992 2303.89,493.191 2304.09,491.992 2302.191,488.691 
		2295.691,478.791 2295.691,478.791 2295.491,478.492 2295.491,478.492 2292.191,468.492 2291.991,464.291 2291.791,458.992 
		2298.691,447.291 2299.09,446.689 2299.789,445.492 2301.49,443.492 2302.887,441.291 2302.99,438.689 2302.189,436.689 
		2300.588,434.791 2299.287,431.291 2299.088,427.189 2299.787,425.388 2299.986,424.789 2301.088,422.186 2300.986,418.289 
		2300.787,417.186 2300.287,414.884 2299.686,413.384 2299.686,413.287 2299.385,412.488 2298.586,409.488 2298.484,407.287 
		2299.784,404.686 2300.684,402.583 2300.784,402.486 2301.586,401.083 2301.984,400.186 2302.086,398.882 2301.885,397.186 
		2301.486,396.287 2301.385,395.988 2300.686,394.787 2300.586,394.787 2299.586,393.287 2298.586,391.488 2297.586,388.884 
		2297.284,385.988 2297.184,385.287 2297.484,383.787 2297.484,383.787 2297.984,381.686 2299.784,378.583 2302.484,375.787 
		2305.884,373.484 2310.684,370.884 2312.582,370.384 2316.082,369.285 2322.082,365.785 2322.684,364.384 2323.582,356.083 
		2322.982,350.384 2321.781,346.186 2318.681,343.583 2317.281,341.484 2316.082,338.484 2314.184,336.382 2311.684,334.984 
		2310.184,333.184 2310.484,332.484 2312.984,326.583 2314.586,322.382 2315.586,318.285 2315.586,313.583 2315.186,309.984 
		2313.486,303.684 2313.486,303.484 2306.186,285.584 2303.686,275.884 2297.686,262.384 2298.287,261.284 2301.486,258.784 
		2302.885,256.084 2303.385,253.084 2302.986,250.984 2300.787,244.384 2299.186,241.584 2296.086,233.284 2296.186,230.084 
		2296.885,227.284 2296.986,226.984 2297.986,225.084 2299.588,224.084 2305.189,224.284 2305.689,224.184 2306.289,223.984 
		2306.689,223.784 2309.689,221.484 2312.99,218.884 2313.09,218.784 2314.39,217.484 2314.89,215.684 2314.991,215.484 
		2314.594,209.284 2313.893,207.684 2307.993,202.484 2304.993,199.884 2304.595,199.084 2303.993,197.884 2303.493,196.484 
		2303.193,194.784 2303.295,193.484 2303.993,191.984 2304.993,190.784 2306.893,189.284 2308.791,188.184 2309.191,187.884 
		2309.991,187.184 2310.39,186.784 2310.89,185.784 2310.89,184.384 2310.89,184.084 2310.789,183.584 2310.59,182.684 
		2310.39,181.984 2309.789,180.784 2308.189,177.684 2304.289,173.284 2303.189,172.084 2301.689,170.884 2298.387,168.284 
		2298.088,167.984 2295.887,166.784 2292.088,164.784 2291.088,162.684 2290.689,157.684 2290.689,157.284 2291.189,156.084 
		2295.387,145.584 2299.787,138.984 2300.088,138.684 2304.486,136.384 2307.787,137.284 2308.986,137.084 2309.186,136.884 
		2315.885,132.984 2319.284,128.484 2326.484,120.684 2327.684,118.784 2328.184,116.584 2328.784,115.684 2332.784,112.784 
		2336.086,109.584 2338.385,105.284 2339.586,104.684 2342.284,104.384 2343.184,103.584 2343.784,101.884 2343.684,99.584 
		2342.884,97.584 2341.884,94.984 2341.582,93.084 2341.781,91.584 2342.982,90.084 2344.582,89.384 2347.482,89.184 
		2350.781,87.784 2355.281,84.484 2357.582,81.684 2359.184,78.784 2360.582,73.884 2361.384,65.384 2360.884,61.184 
		2358.582,54.484 2357.884,51.384 2357.884,47.784 2358.884,35.384 2360.384,28.484 2360.384,28.484 2349.781,28.684 
		2345.982,28.684 2345.982,28.684 2327.482,28.984 2145.302,32.297 2145.302,32.297 2144.903,32.297 2144.903,32.297 
		2103.702,32.497 2103.702,32.497 2075.104,32.897 2075.104,32.897 2061.604,32.997 2054.002,33.097 2054.002,33.097 1970.7,34.097 
		1970.7,34.097 1865.2,35.097 1817.502,35.897 1817.502,37.397 1728.802,37.997 1728.802,42.597 1729.002,76.497 1596.502,76.397 
		1477.7,76.897 1477.7,76.897 1456.7,76.997 1456.7,76.997 1445.502,76.997 1445.502,76.997 1422.4,77.097 1422.4,77.097 
		1266.002,77.597 1249.802,78.297 1237.604,78.197 1237.604,78.197 1237.502,78.297 1237.502,78.297 1222.7,78.297 1205.102,78.397 
		1097.602,78.897 1074.9,78.197 1022.502,78.097 1022.4,79.697 909.502,78.997 870.604,78.797 814.403,78.797 805.202,78.797 
		798.104,78.497 796.403,78.097 787.949,77.991 783.816,77.654 751.148,76.987 	"/>
	<path id="_x33_6203" fill="#8CCBEF" stroke="#000000" stroke-width="3" d="M719.883,299.186l0.699-0.304l0,0l0.102,7.804l0,0
		l2.101,2.799h0.2v2.803l2.898,0.1v3.101h-2.801v3.2l6-0.102l0.102-3.102h2.898v-9.197l0,0l0.602-1.201l11.5,0.201h0.398v25.6l0,0
		l-1.102,2.5l-2.2,1.9l-2.5,1.299l-1.397-0.199l-0.302,3.4l0,0l-2.397-0.701l0,0l-1,3.398l-0.801,1l-1.398,1.201l-3,1.602
		l-1.102,1.299l-0.802,0.602l0,0l-7,6.8l0,0l-1.101-1l-2.802-0.101l0.602-3.899l2-4.101l1.103-0.1l0,0l-2.103-0.701l0,0l-1.5,2.801
		l-2.5,3.101l-2.5,1.301l-1.397,1.801l-0.302,2l-1.101,1.8l-7.5,7.899l-3.302-1.399l0,0l-3.602-0.101l0,0l-0.5-0.5l-6.398-2.199
		l-2.102,0.398l-0.699-1.5l0,0l4.5-5.5l2.199-7.398l3.899-1.801l2.197-0.603l1.303,0.603l3.197-1.301l1.303-2.199l1.799-0.103l0,0
		l-3.198,0.201l0,0l-0.802-0.1l0,0l-2.102-2l-0.8,0.1l0,0l-0.897,0.101l0,0l-1.399-3.302l-2.199,0.302l-1.897-1.101l0,0l-1.103-4.6
		l2-7.701l2.199-2.799l2-0.701l1.399-1.299l0,0v-0.701l0.697-0.699l3.398-0.801l0.602-1.299l0,0l2-1.604l0,0l2.5-0.601l0,0
		l-1.602-1.201l-0.398-2v-2.198l1.102-2.898l2.302-1.801l0,0l3.399,0.397l5-2.397L719.883,299.186z"/>
	<path id="_x38_6244" fill="#8CCBEF" stroke="#000000" stroke-width="3" d="M281.082,176.284l0.198,0.5l0,0l-0.198,10.9l0,0
		l-1.103-0.1l0,0l0.2-3.6l-1.897-1.8l-3.302,0.1l0,0l-0.101,6.4l0,0l6.2,0.2l0,0l-0.103,12.8l-0.101,0.9l0,0l-3.102-0.8l0,0l-3-0.1
		l0,0l-0.102,1.3h1.602l1.302,1.1v2.2l3.198,0.1l0,0l-0.102,1.6l0,0l0.102,3.1l0,0l-5.198,0.1l0,0l-1.104,1.2l0,0l-0.101,14.8l0,0
		l-27.5-0.2l0,0l-1.8-4.1l-0.7-1.9l-2-2.7l-3.899-4.1l-6.601-4.5l-3.602-5.5l0,0l-1.698-1.9l-2-0.5l-0.7-0.9l0,0l17.601,0.5l0,0
		h1.199l0,0v-0.9l0,0l0.9-12.2l0,0h1.3l0,0l5.101,0.1l0,0h6l12.5,0.2l0,0l0.199-12.4L281.082,176.284z"/>
	<path id="_x34_5680" fill="#8CCBEF" stroke="#000000" stroke-width="3" d="M311.581,163.084h0.199l0,0l0.898,2.6l0,0l1.2,3.8
		l2.197,6.6l0.7,2l0,0l1,3.7l0,0h1.3l0,0l-0.197,0.4l0,0l12.5,0.1l6.5,0.2l0,0l6.397,0.1l0,0v3.1v3.1v3.7l-0.2,9l-0.101,4.899l0,0
		l-0.101,0.601l0,0v0.399l0,0l-0.2,13.2l0.102,6v0.3l0,0v0.2l0,0l-0.602,0.2l0,0h-3.103l0,0l-2.801-5.4l0,0l-0.101-1.2l0,0
		l-1.399-3.1l-5.396-0.1l0,0l0.5,2.3l0,0v0.7l0,0l0.101,0.3l0,0h-0.399l0,0l-6.601-19.4l0,0l-6.199,0.101l-8,2.6l0,0l2.398-3.6
		l-0.398-10.9l-1.7-3.8v-3.6l0,0h4.399l0,0l0.3-0.7l0,0l2.301,0.399l0,0h0.103l0,0l-0.198-0.6l0,0l-5-5.3l0,0l3.198,0.1l0,0
		l-3.603-11.2l-0.101-0.3l0,0l-0.602-1.5l0,0H311.581z"/>
	<path id="_x38_5894" fill="#8CCBEF" stroke="#000000" stroke-width="3" d="M481.781,329.882l7.898,0.103l0,0l-4.103,13l0,0
		l-3.897-0.103l0,0l-0.199,25.5l0,0l-18.801-0.1l-26.898-0.101h-4.397l0,0v-6.5l0.102-6.102l0,0l18.103-0.102l0,0l3.5,1.5l0,0v-1.5
		l0,0h3.3l0,0l0.102,1.602l0,0h0.602l0,0l2.601-1.102l2.899-2.398l0.198-4.5l0,0h1.604l0,0l0.101-6.5l0,0h0.603l0,0l-0.399-6l0,0
		l1.301-0.299l0,0l-0.101-1.4l0,0l3.3-0.699l0,0v-1.201l0,0l3-1.897l0,0l1.899-1.103L481.781,329.882z"/>
	<path id="_x35_2624" fill="#8CCBEF" stroke="#000000" stroke-width="3" d="M448.581,260.984l2,1.7l0,0l1.399,0.8l0,0l-3.7,6.5
		l-1.397,2.5l0,0l-6.603-0.3l0,0l-0.102,1.1l0,0h-2l0,0l-0.103,0.9l0,0l-1.5,0.5l0,0l-2.1,1.4l0,0v3.6v1.1l0,0h-0.201l-5.5-0.8
		l-3.5-1.101l-6.699-0.1l0,0l-0.2,2.9l0,0l-0.601,0.5l0,0l-2.399-0.3l0,0l-0.101,3.101l0,0l2.5,0.1l0,0v1.5l0,0l-2.3,4.7l0,0h-3.602
		l-12.302-0.1l0,0l0.103-12.6l0,0l-1.5-0.1l0,0l13.397-19.9l0,0l14.802,7l2.801,1.3l0,0l1.301-2.6l0,0h0.398l0,0h2.198l0,0l7,0.1h2
		l0,0h4.103l0,0L448.581,260.984z"/>
	<path id="_x33_9598" fill="#8CCBEF" stroke="#000000" stroke-width="3" d="M249.981,405.285l-1.698-1.299l0,0l2-2.605l2.801,4.105
		l2.301,1.895l19.3,13.801l2.2-3.1l2.3,1.699l-3.8,5.201l0,0l0.6,0.5l0,0l3.802-5.201l2.301,1.701l7,5.396l0,0l0.301,0.201l0,0
		l-1.301,1.897l0,0l-2.5,3.396l-1,1.301l0,0l-6.603-5l0,0l-2.8-2l0,0l-0.601,0.104l0,0l0,0l0,0l-0.103,0.396l0,0l-2-0.1l0,0
		l-0.198-0.301l0,0l-1.302-1.4l0,0l-0.198,0.301l0,0l-0.802-0.6l-0.3-0.301l0,0l-1.801-1.4l0,0h-4.602l0,0l-0.801,2.701l0,0v0.397
		l0,0l-0.8,0.398l0,0l-0.5,0.701l0,0l-2-1l0,0l-1,0.1l0,0l-2.5-2.6l0,0l2.199-1.701l0,0l-0.102-0.299l0,0l2.102-1.304l-0.102-1.799
		l0,0l0.199-1.803l0,0v-0.1l0,0h-0.601l0,0l-3.199-4.9l0,0l-0.7,0.803l0,0l-0.897-0.201l0,0l-0.802,0.5l0,0l-0.698-0.299l0,0h-0.302
		l0,0l-2-0.201l0,0l-0.301-0.799l-5.397-1.201l-1.7-4.5l0,0v-0.196l0,0l1.7-2.5l0,0l1.8,5.799l0,0l0.801-1l0,0L249.981,405.285z"/>
	<path id="_x35_6350" fill="#8CCBEF" stroke="#000000" stroke-width="3" d="M191.382,97.784v3.6l0,0l0.398,2.1l0,0l2.302,12.8l0,0
		h0.5l0,0l1.198,3.8l0,0l0.398,1.4l0,0l0.3,1.1l0,0l-0.101,0.2l0,0l1.601,6l0,0l-4,1.3l0,0v-1.1l-4.8,2.4l-0.898,1.7l-3,0.8l0,0
		l-0.301-1.9l0,0l-3.397,1l-1.7-1.4l-2.899,0.4h-0.3l-1.801-1.6l-3.101-1.9l-5.699-1l-0.5,0.9l-0.2,0.7l-3.699,0.2l-0.398-0.8
		l-2.102-2.5l-0.398-0.2l-1.398-0.2l-0.602-0.6l0,0l-0.102-2.8l0,0l8-0.1l0,0l0.102-4.7l0,0h1.5l5-2.8l1-1.8l2.698-2.2l0,0
		l-3.397-7.3l0,0l7.301-2L191.382,97.784z"/>
	<path id="_x30_9360" fill="#8CCBEF" stroke="#000000" stroke-width="3" d="M658.682,175.484l2.699,1.5l2.102,0.6l7.398,0.2h12.397
		l12.5-1.8l0,0v1.3l0,0l-0.102,1.4v4.1v0.3l-0.103,7.8v0.2v0.4l0,0h0.699l0,0h1.5l0,0h0.701l0,0l0.897,0.1l0,0l8.699,0.1l0,0v2.2
		l0,0l-0.302,0.2l0,0h-3.101l0,0l-3.5,2.8l0,0v0.8l0,0l-5.603-0.2l0,0l0.103,0.7l0,0l-6.302,0.2l0,0l-0.102-2.5l0,0v-2l0,0
		l-4.398-1.3l-1.5-1.2H666.07l0,0l-0.101,0.4l0,0l-1.2-0.4l-7-6.8l-2-2.8l-1.199-2.7l0,0l0.399-0.4l0,0l3.101-1.8l0,0l0.102-0.4
		L658.682,175.484z"/>
	<path id="_x37_8596" fill="#8CCBEF" stroke="#000000" stroke-width="3" d="M946.082,248.484l12.898,4.1l9.102,3.1l3.198,1.6l0,0
		l-1.602-0.1l0,0l-0.198,12.3l0,0h1.8l0,0l-0.198,3.7l0.102,5.9v1.8l0,0v1.5l0,0l0.101,3.3l0,0v1.9l0,0v0.4l0,0l0.103,0.4l0,0
		l-13.603-9.9l0,0l-5-3.7l0,0l-6.5-4.7l0,0l-0.601-0.5l0,0h0.601l3.399,0.1l0,0l-3.699-5.5l0,0l0.101-7.399L946.082,248.484
		L946.082,248.484z"/>
	<path id="path20012" fill="#8CCBEF" stroke="#000000" stroke-width="3" d="M221.681,71.384l-2.301,2.5l0,0l0.2,0.7l0,0l-5.302,2.7
		l0,0l-2-0.3l0,0l-0.5,0.5l0,0l0.699,0.8l0.5,1.4l-0.3,1.9l-2.601,0.3l-0.603,0.9l0,0l-2.199,1.8l-4.398,2.4l0,0l0.7,2.6l0,0
		l5.198,1.3l4.5,2l0.5,0.2l0,0l-1.602,0.4l0,0l-1.3,3.8l0,0l-0.2-0.1l-0.699-0.1l0,0h-1.699l0,0l-0.301-0.3l0,0l-0.301-0.5l-1-2.6
		l0,0l-1,0.2l-1,0.2l0,0l0.2-0.3l0,0l-0.8-0.8l-2.802,0.8h-2.102l-1.699-1.1l-0.101-1.2l-1-0.8l0,0h-8.102l0,0v-4.3l0,0l-0.301-0.1
		l0,0v-2l-1.801-3.3l-0.199-1.2l0.399-8.4l0,0l23.8,0.1l0,0L221.681,71.384z"/>
	<path id="_x38_1708" fill="#8CCBEF" stroke="#000000" stroke-width="3" d="M594.982,313.186l1.1,1l0,0l2.5,0.102l0,0l11.803,9.898
		l0,0l0.5,0.602l0,0l-0.103,0.5l0,0l-0.102,2.197l0,0h-3.198l0,0l-0.102,3.303v1.6l0,0l-0.898,0.199l-3.2-1.299l-3.7-0.201l-0.6,1
		l0.1,1.801l0,0h-5.6h-0.4l-17.1-0.1l0,0l0.1-3.102v-3.304l0,0h7.7l0,0l-0.102-1.397l0,0v-0.103v-1.196l0,0v-0.398l0,0h-1l0,0
		v-3.102l0,0l-3.398-0.103l0,0l-0.102-3.201v-1.6v-1.802l0,0h1.397h0.9l0,0l2.5,0.103l0,0l-2.4-3.397l1.5,0.397l2.699-0.5l2.5,0.103
		l2.301,0.397l3.303,1.603H594.982z"/>
	<path id="_x33_9836" fill="#8CCBEF" stroke="#000000" stroke-width="3" d="M421.281,244.284l5.699,2.2l2.801,0.4l3.801-0.9
		l4.602-0.9h7.898l0,0v3.5l-4.198,7l0,0l2.602,1.9l0,0l-1.602,1.4l0,0v2.1l0,0h-0.898l0,0v1.9l0.103,1.5l0,0h-2l-7-0.1l0,0h-2.2l0,0
		h-0.398l0,0l-1.302,2.6l0,0l-2.8-1.3l-14.8-7l0,0l9.197-13.1L421.281,244.284z"/>
	<path id="_x32_1810" fill="#8CCBEF" stroke="#000000" stroke-width="3" d="M142.582,224.784l0.698,0.9l0,0l0.802,1l0.101,1.4
		l0.602,0.9l3.5,1l1.898-0.5l1.102,0.9l0.301,2.7v1.1l1.897,2.2l-0.897,5l1.699,4.3l-1.302,5.4l3.5,3l0,0l-3.8,0.8l-3.801,2.3l0,0
		l-5.5-4l0,0l-0.699-0.1l0,0l-0.398,1.3l0,0l-2.699-0.1l0,0h-0.899l0,0h-2.5l0,0h-1.5l0,0h-1.5l0,0v-1.101l0.103-3.7l0,0v-0.9l0,0
		l0.8-5.8l0,0l0.301-0.4l0,0l0.5-0.9l0,0l0.5-0.9l0.3-0.6l0,0l0.8-1.5l0,0l-2.897-2.9l0,0l-0.103-7.2l0,0h0.4l0.899-0.5l0,0l0.3-0.2
		l0,0l1.397-0.2v1.6h3.803l0.197-4.3H142.582z"/>
	<path id="_x33_4316" fill="#8CCBEF" stroke="#000000" stroke-width="3" d="M435.383,320.882l2.602-5.196l0,0l-0.397,3l0.197,2
		l1.7-3.201l1.603-0.898l8.897,2.301l2.603,2.101l0.601,1.2l0,0h0.199l0,0l0.397,2.898l1.5,1.898l-0.197,3.102l0,0v3.898l0,0
		l-5.399-0.103l0,0l-0.301,2.603l-2.199,0.303l-1.801,1.299l0,0l-2.898,1.398l-9.2,0.897l-4.3-2.799l-0.5-1.201l0,0l-2.801-0.196
		l0,0l0.199-6.201l0.2-9.697l0,0l1.697,0.6h7.601L435.383,320.882L435.383,320.882z"/>
	<path id="_x30_6028" fill="#8CCBEF" stroke="#000000" stroke-width="3" d="M1020.383,321.285l5.397,0.6l0,0l6.399,2.5l11.5,5.602
		l2.897,2l0.899,1.5l0,0l-2.899,0.302l0,0l0.302,4.899l0,0h1.396l0,0l-1.696,7.697l0,0l-12.5,0.201l0,0l-0.103-3.201l-9.201-0.197
		l0.104-3.201h-3.398l0,0v-6.198l0.102-10.201L1020.383,321.285z"/>
	<path id="_x36_2756" fill="#8CCBEF" stroke="#000000" stroke-width="3" d="M407.081,316.982v12.899l-0.198,8.802l0,0l-11.603-8.802
		l0,0h-0.7l0,0l-0.3-0.198l0,0l0.103,0.198l-0.103,3.4l0,0l-0.2,2.898l0,0v6.198l0,0l-12.1-0.1l0,0l-0.602-0.103l0,0l0.102-6.301
		l0,0h3.398l0,0v-6.199l0,0l3.197,0.103l0,0v-3.103l0,0l-1.5-0.102l0,0l0,0l0,0l-1.6,0.7l0,0v-4.2l0,0h-3.4l0,0l0.199-3.398l0,0
		l1.701,1.199l0,0l0.898,0.801l0,0l0.697-2.801v-2.101l0,0h3.103l0,0L407.081,316.982z"/>
	<path id="_x32_0697" fill="#8CCBEF" stroke="#000000" stroke-width="3" d="M557.182,327.285l3.199,0.1h6.301h3.101h6.3l0,0v3.303
		l-0.1,3.101l0,0v9.299l0,0l-3.102,0.399l0,0v3l0,0l-6.3,0.101h-7.303l0,0l-2.102-0.5l-3.198-0.199l0,0v0.603l0,0h-3.102l0,0h-3.104
		h-1.5l0,0l-1.601-0.5l0,0v-0.398l0,0v-0.602l0,0v-1.603l0,0h1.398l0,0l1.698-1.698l0,0v-3.302l0,0l2.103,0.103l0,0v-1.603l0,0
		h-2.103l0,0l0.103-3.198v-1.699v-0.301v-0.603l0,0l0.699-0.601v-2l0,0h1.102l0,0l1.302,0.398l0,0v-0.1l0,0h1.6l0.103,0.697
		l1.5,0.303l0,0v-0.102l0,0l0.897,0.897l0,0h0.199h2l0,0v-0.699l-0.101-2.399l0,0v-0.197H557.182z"/>
	<path id="path20028" fill="#8CCBEF" stroke="#000000" stroke-width="3" d="M238.181,110.684l-0.301,0.6l0,0l-4.399,5.8l-1.698,4.1
		l-3.898,1.7l-5.801,1.9l-5.603,2.9l-3.199,1l0,0l1.5-1.2l3.399-1.2l2.8-2.9l0.603-0.1l0,0l2.199-0.4l0,0h0.5l0,0l1.801-0.4l0,0
		l2.301-0.6l0,0h0.5l1.398-1.2l1.602-2.1l0.6-1.8l0,0l5.302-6.4l0,0L238.181,110.684z"/>
	<path id="_x37_0784" fill="#8CCBEF" stroke="#000000" stroke-width="3" d="M305.781,407.083l0.5-0.301l0.301-0.199l0,0l4,7.1l0,0
		l2.102-1.5l0,0l3.602-2.694l0,0l2.103,2.799l0,0l0.8-0.4l1,0.604l0.5,3.6l-0.198,1.299l-0.898,1.4l-1.602,1.5l-1.102,0.4l-1-0.103
		l-0.603,0.5v1.4l0,0l1.2,1.895l0,0l3.898,0.105l0,0v1.1l0,0l1.198,1.699l0,0l-0.102,3.6l0,0l-1-0.1h-5.199l-7.801-0.104l0,0
		l-0.199-5.5l0,0v-1l-0.102-6.396l-3.801-9.699l0,0L305.781,407.083z"/>
	<path id="_x33_4302" fill="#8CCBEF" stroke="#000000" stroke-width="3" d="M159.582,197.284l0.198,0.3l0,0l-1.102,0.5l0,0l3.3,4.9
		l0,0l-3.199,2.2l0,0l-2.102,2.1l-2.2-0.2l-1.101,1.1l0,0l-0.199,0.2l0,0l-4.801,3.5l0,0h-0.5l-0.399-0.2l0,0l-2.397-1l0,0
		l-0.301-0.2l0,0l-2.302,2l0,0l-1.8-2.6l0,0l-1.397,0.9l-2.103,0.3l0,0l-0.897-1.4l1.397-1l-1.601-2.3l0,0h0.198l6.602-2l5.398-2.2
		l0,0l1.102,1.8l0,0l2.601-1.6l0,0l-0.601-1.4l0,0l3.801-1.5l3-1.2l0,0L159.582,197.284z"/>
	<path id="_x35_0090" fill="#8CCBEF" stroke="#000000" stroke-width="3" d="M399.482,482.785l0.198,0.201l0,0h1.897l0,0h0.9l0,0h3
		h0.6l0,0l11.9-0.105l0,0l-3.302,15.605l0,0l-3.198-2.806l-5.302-1.801l-3.198-0.299l-2.302-0.301l-2.698,1.7l-1.5,0.5l0,0
		l0.3-0.801l0.3-0.303l2.2-2.396l0.7-2.104l0.398-2.6l-0.803-2.5l-1.5-1.302l0.603-1.803l0,0L399.482,482.785z"/>
	<path id="_x35_8982" fill="#8CCBEF" stroke="#000000" stroke-width="3" d="M331.781,354.285h5.103l0,0v0.197h7.198l0,0h0.102l0,0
		l1.398-0.101l0,0l2.102,4.9l0.102,2.1l-0.602,1.802l-0.898,1.5l-1.8,0.897l0,0h-0.302l0,0v0.5l0,0v1.103l0,0h-1.3l0,0l-1.5,0.5
		l-0.7-0.103v-0.699l-1.3-0.6l-1.7-0.102l-0.898,0.399l-4.602,4.5l-0.698,1.601l0,0L331.781,354.285z"/>
	<path id="_x34_6660" fill="#8CCBEF" stroke="#000000" stroke-width="3" d="M1181.383,474.382h3.102l9.5-0.1l0,0l-0.102,12.801l0,0
		h-9.398h-0.9l0,0l-1.5-2.101l0,0l-1.1,0.601l0,0l-8.2-11.301l0,0L1181.383,474.382z"/>
	<path id="_x33_3574" fill="#8CCBEF" stroke="#000000" stroke-width="3" d="M276.481,85.184h0.103l0,0h0.3l0.398,0.1l0,0h1.602l0,0
		h2.2l0,0h0.8l0,0h0.801l0,0h0.399l0,0l5.897,0.2l0.899-0.1l0,0l4.2,0.2l0,0l1.101-0.1l0,0v6.5v2.7l0,0l-0.101,0.9l0,0l-5.399,0.3
		l0,0l-0.7-0.1l0,0v-0.5l-2.897-1.9l-1.603,0.5v0.7v0.2l-1.699-0.1l0,0h-0.398l-1.899-0.5l0,0l0.103-3.6l0,0h-1l0,0l-1,1l0,0h-2.301
		l0,0l-3-0.3l0,0l-0.199,0.3l0,0l-0.199-0.1l0,0l1.5-2.5L276.481,85.184z"/>
	<path id="path20042" fill="#8CCBEF" stroke="#000000" stroke-width="3" d="M1010.982,346.583h2.198h6.302l0,0l0.698,2.5
		l4.602,4.799l1,2.4v0.801l0,0l-3.3-0.201l0,0l-4.2-0.696l-8.5-3.701l0,0l0.2-0.398l1.1-0.699l0,0v-3.6l0,0L1010.982,346.583z"/>
	<path id="path20044" fill="#8CCBEF" stroke="#000000" stroke-width="3" d="M319.081,181.784l12.302-0.1l6.5,0.2l6.397,0.2l0,0v0.5
		l0,0l-6.397-0.1l0,0l-6.5-0.2l-12.5-0.1l0,0L319.081,181.784z"/>
	<path id="path20046" fill="#8CCBEF" stroke="#000000" stroke-width="3" d="M958.781,307.982h7.398l0,0v6.303h3l0,0v6.6l0,0h-9.8h-3
		l0,0l-0.103-3.5l0,0v-0.1l0,0l0.103-9.199l0,0L958.781,307.982z"/>
	<path id="path20052" fill="#8CCBEF" stroke="#000000" stroke-width="3" d="M271.082,85.184h5.397l0,0l-2.101,3.8l-1.5,2.5l0,0h-0.3
		l0,0l0.198-0.2l0,0l-4.398,3l0,0l1.898,1.4l0,0l-1.398,2.4l0,0l-3.899-2.2l1.603-2.4l0,0l0.699-1.6l0,0l0.601-1.5l0,0v-0.1l0,0
		l0.101-0.3l0,0l0.103-0.4l0,0l3.397-2.7l0,0l-1.197-0.8l0,0l0.5-0.9l0,0H271.082z"/>
	<path id="path20054" fill="#8CCBEF" stroke="#000000" stroke-width="3" d="M204.681,94.084l0.102,0.3l-3.102,2.5l-2.601,1.8
		l-1.2,0.2l-3.102,2.9l-3,1.7l0,0l-0.398-2.1l0,0v-3.6l0,0L204.681,94.084z"/>
	<path id="path20056" fill="#8CCBEF" stroke="#000000" stroke-width="3" d="M1063.482,343.785l2.1,2.5l0,0l-2.1,0.1l0,0v6.303
		l0.1,2.799l0,0h-3.1l0,0l-0.102-2.698l0,0h-3.103l0,0l0.103-2l-1.103-1.302l0,0l0,0l0,0l-1.697-3.102l0,0h2.5l0,0h1.197l0,0h1.103
		l0,0l3.301-1.299l0,0l0.801-0.104l0,0V343.785L1063.482,343.785z"/>
	<path id="_x32_0536" fill="#8CCBEF" stroke="#000000" stroke-width="3" d="M2257.582,454.382v-2.199l0,0l5.698-0.194l0.103,3.1
		l3.897-0.1l0.2,6.6l0,0l-9.7,0.299l0,0L2257.582,454.382z"/>
	<path id="path20061" fill="#8CCBEF" stroke="#000000" stroke-width="3" d="M1097.281,365.285l0.801-3.199h3.602l4.2,4.896
		l1.3,1.701h-2.8l-0.2,3.198l0,0h-3l0,0v-0.198v-5.5h-3.3l0,0L1097.281,365.285z"/>
	<path id="path20063" fill="#8CCBEF" stroke="#000000" stroke-width="3" d="M339.982,462.583l3,3.699l2.898,0.201l0,0l2,3.696l0,0
		l-4.603,4.103l0,0l-1.102-1.4l0.2-1.299l-0.303-0.898l-1.801-1.696l0,0l1.2-2.201l0,0l-1.602-1.604l0,0L339.982,462.583z"/>
	<path id="path20067" fill="#8CCBEF" stroke="#000000" stroke-width="3" d="M335.482,468.382l3.698,5.9l0,0l2.2,1.7l0,0l-0.7,0.601
		l-8.698-6.701l0,0l0.6-0.799l0,0l1.4-1.9l0,0L335.482,468.382z"/>
	<path id="path20071" fill="#8CCBEF" stroke="#000000" stroke-width="3" d="M1100.982,352.785l6.5,0.1l0,0v6l0,0l-2.5-0.197
		l-2.602-0.803l-2-1.197l-2.398-2.399v-1.5h1.699l0,0h1.301V352.785z"/>
	<path id="path20075" fill="#8CCBEF" stroke="#000000" stroke-width="3" d="M312.681,377.186v4.102h2.2l2.197,3.1l0.4,2.5l0,0
		l-5.102-0.1L312.681,377.186z"/>
	<path id="path20083" fill="#8CCBEF" stroke="#000000" stroke-width="3" d="M260.281,84.884l2.302,0.1l0,0l-0.103,0.1l0,0l-1.699,4
		l0,0h1.898l0,0l0.102,0.6l0,0l-1.602,2.3l0,0l-0.7,1.1l0,0l-0.897-0.4l0,0l0.397-5.7l0.2-2.1l0,0H260.281z"/>
	<path id="path20085" fill="#8CCBEF" stroke="#000000" stroke-width="3" d="M1107.482,363.785v0.5l0,0l-5.2-5.102h2h3.2l0,0V363.785
		z"/>
	<path id="path20089" fill="#8CCBEF" stroke="#000000" stroke-width="3" d="M870.182,128.784l-0.101,1.7l0,0h0.697l0,0v1.5l0,0
		h0.803l0,0v3.3l0,0l0,0l-3.103-0.1l0,0v-6.4l0,0H870.182z"/>
	<path id="path20093" fill="#8CCBEF" stroke="#000000" stroke-width="3" d="M344.081,354.482h-7.198v-0.197l0,0L344.081,354.482z"/>
	<path id="path20097" fill="#8CCBEF" stroke="#000000" stroke-width="3" d="M197.981,128.784l0.302,1.3l0,0h-1.398l-0.102,0.8
		l-0.199,0.1l-2.603-0.1v-0.8l0,0L197.981,128.784z"/>
	<path id="path20099" fill="#8CCBEF" stroke="#000000" stroke-width="3" d="M1094.883,368.686l2,0.102l0,0l1.102,1.1l0,0l0.1,2l0,0
		h-3.197l0,0L1094.883,368.686L1094.883,368.686z"/>
	<path id="path20105" fill="#8CCBEF" stroke="#000000" stroke-width="3" d="M282.781,94.684v0.6l0,0v1l0,0l-2.398-0.1l0,0l0.101-2
		l0,0l1.899,0.5H282.781z"/>
	<path id="path20113" fill="#8CCBEF" stroke="#000000" stroke-width="3" d="M888.781,292.084h0.801l0,0l0.102,0.6l0,0
		L888.781,292.084z"/>
	<path id="Wildomar" fill="#8CCBEF" stroke="#000000" stroke-width="3" d="M307.482,430.683l7.8,0.104h5.2l1,0.1l0,0h3.6
		l5.604-0.396l4.601,1.396l1.7-0.299l5.699-7.1l2.801-1.605l2-3.395l1.103-1h7.3l0,0l-0.103,3.5v9.694l0,0l1.803,5.104l0,0
		l4.5-0.104l0,0l-0.303,1.5l1.399,3.306l0.301,0.6l1.5,0.602l0.603,0.697l-0.2,3.701l-0.8,1.299l0,0l-2.803,6.303l-0.101,2.398l0,0
		l-0.604,1.799l0,0l-11.397,9.701l-1.8,1.602l0,0l-2-3.698l0,0l-2.898-0.201l-3-3.699l0,0l-0.102,2.601l0,0l1.602,1.604l0,0
		l-1.2,2.201l0,0l1.803,1.699l0.3,0.896l-0.199,1.299l1.101,1.4l0,0l-1.897,1.701l0,0l-2.199-1.701l0,0l-3.699-5.9l0,0l-1.5-1.198
		l0,0l-1.397,1.899l0,0l-1.302-0.899l-0.698-0.601l-1.399-1.1l0,0l-2.898-2.201l-9.5-7.299l-0.699-0.701l-1.301-0.9l0,0l-0.5,0.701
		l0,0l-1.199-0.899l0,0l-0.602,0.698l0,0l-2.199-1.799l0,0l-0.398-0.301l0,0l1.102-1.299l0,0l-2.602-2l0,0l-1,1.299l0,0l-4.601-3.4
		l0,0l-0.103,0.105l0,0l-3.101-2.5l-4.603-3.4l0,0l-0.5-0.397l0,0l1.2-1.603l1.899-2.6l0,0l3.801-5.105l5.897-7.698l0,0
		L307.482,430.683z"/>
	<path id="Temecula" fill="#8CCBEF" stroke="#000000" stroke-width="3" d="M414.581,498.882l-0.897,2.4l-0.899,2.7l0,0l0.5,1.8l0,0
		l-0.397,0.6l0,0l2.301,1.701l2.5,1l0,0l0.601,0.199l5.399-4.3l2.601,2.601l0.5,0.602l0,0l0.399-0.196l0,0v-0.9l0,0l0.101-0.1l0,0
		v-1.5l-0.698-3.5l1.602-2.304h2.898v-4.102l12.898,0.199l-0.2,12.397l0,0v0.4l0,0l-0.198,8.299l0,0v2.604l0.5,1.896l0.898,1.9
		l3.199,3.701l1.801,3.395l0.699,2.201l-0.103,3.4l0,0l7.603-3l0,0l0.301,1l0,0l-0.7,2.799l1.103,1.301l0.602,1.9l0,0l2.3,4.1l0,0
		l1.2,4l0,0l-2.7,1.799l0,0l0.303,0.9l1.397,4.1l-0.397,0.4l0,0l-2.103,0.6l0,0l-0.102-0.197l0,0l-17.301,5.303l0,0v0.197l0,0
		l1.398,1.303l0,0l-1.801,1.601l0.699,2.699l2.602,0.5l3.602-0.199l0,0l-0.102,0.899l0,0v1l-3,0.697h-2.801l-0.399-0.5l-1.5,0.103
		l-1.3,0.6l0,0l-0.2,0.201l0,0l-0.5,1.5l0,0l3.103,2l0,0l0.699,0.799l0,0l0.898,1.301l0,0l3.102,3l2.398,4l0,0h0.102l0,0l-3,4.9l0,0
		l-1.898-1.9l0,0l-3.5,1.199l2.699-2.1l0,0l-5.801-5.4l0,0l-3.5,3.701l0,0l-2.199,2.299l-6.801-5.799l-3.398,6l-5.301-7.701
		l-7.103-8.699l0,0l2.2-1.696l0,0l-0.7-0.804l-2.601-3.696l0.301-0.201l-0.2-1.9l-10.5-10.6l-1.601-3.799l0.699-0.604l0,0
		l-6.699-0.396l0,0l-11.699-13.804l0.3-0.301l0,0l1.5-1.299l0,0l5.7-5.5l0,0l2.898-2.601l0,0l2.897-2.803l0,0l2.899-2.397
		l0.301-0.199l-2.801-5.103l4.5-4.301l0,0l2.5-2.397l2.301,2.1l2.601-3.299l0,0l0.5-0.603l0,0l3.399,2.603l0,0l1.5-1.801l1.601-1.9
		l0,0L414.581,498.882z"/>
	<path id="Riverside" fill="#8CCBEF" stroke="#000000" stroke-width="3" d="M269.481,85.084l0.103,0.5l0,0l0.698,0.5l0,0l1.199,0.8
		l0,0l-3.397,2.7l0,0l-0.103,0.4l0,0l-0.101,0.3l0,0v0.1l0,0l-0.602,1.5l0,0l-0.698,1.6l0,0l-1.603,2.4l3.899,2.2l0,0l1.398-2.4l0,0
		l-1.898-1.4l0,0l4.398-3l0,0l-0.198,0.2l0,0h0.3l0,0l0.2,0.1l0,0l0.198-0.3l0,0l3,0.3l0,0h2.302l0,0l1-1l0,0h1l0,0l-0.103,3.6l0,0
		l-0.101,2l0,0l2.398,0.1l0,0v-1l0,0v-0.6l0,0l1.699,0.1v-0.2v-0.7l1.604-0.5l2.896,1.9v0.5l0,0l0.699,0.1l0,0l5.398,0.6l0,0v1.7
		l0,0h0.102l0,0l-3.602,4.4l0,0l-0.198,0.2l0,0l-2.102,0.2l0,0l-0.102,1.7l0,0l-2.199-0.1l0,0l-3.801,1.2l0,0l-0.602-0.1l0,0
		l0.102,1.5l15.102,0.2l1.3,2.7l0.102,2.9l-1.398,4.4v2.1l0,0v0.3l0,0v0.4l0,0l0.199,4l-1,5.8l-0.5,1.2l-0.199,4.4l0.8,1.6l0,0
		h-0.101l0,0h-1.601l0,0h-0.102l0,0l-0.2,3.3l1,3l0,0v1l0,0l1.602,0.4l0,0l0.398-0.4l0,0l0.7,0.3l0,0l0.102-0.1l0,0l2.5,0.2l0,0
		l0.198,0.6l0,0l0.2,0.2l0,0l1.102,2.4l3.698,2l0,0v-0.1l0,0l1.899,0.2l7.601,2.3l3,0.1l0.103-1.2l0.101,0.6l0,0l2.7,1.9l0,0
		l-1.399-0.1l0,0l-0.601,0.1l0,0l-0.899,0.8l0,0l-0.198,8.5l0,0h-1.398l0,0v-1.8h-1.602l-0.103,1.2l-1.897,0.3l0,0v0.1l0,0
		l-0.898,0.1l0,0h-1.2l0,0h-0.199l0,0h-0.697l0,0l0.602,1.5l0,0l0.1,0.3l3.603,11.2l0,0l-3.198-0.1l0,0l-5.802-0.2l-5.898,0.2l0,0
		v0.5l0,0l-0.602,2.6l0,0v0.1h-1.301l0,0v-2.9l-4.5,0.1l0,0l-0.102,2.9l0,0l0.102,0.9h-2.199l-2.301,1.6l-0.199,7.2l1.899-0.1
		l2.397,0.2v3l0,0l5,0.1l0,0l0.103-0.9l1.8-0.1h0.7v-0.7l0.101-1.2l0.8,0.1h4.2v-0.5v-1.5l3.102-0.2v14.4h-6.897l-8.801-0.1l0,0
		l-0.103-0.6l0,0l-3.601-0.9l0,0v7.8l0,0h-2.8l-6.399,0.2l0,0l0.102-1.6l0,0l-3.199-0.1v-2.2l-1.301-1.1h-1.602l0.102-1.3l0,0l3,0.1
		l0,0l3.102,0.8l0,0l0.1-0.9l0.103-12.8l0,0l-6.199-0.2l0,0l0.101-6.4l0,0l3.303-0.1l1.897,1.8l-0.2,3.6l0,0l1.103,0.1l0,0l0.2-10.9
		l0,0l-0.2-0.5l0,0l-12.399-0.1l-0.2,12.4l0,0l-12.5-0.2h-6l0,0l-5.1-0.1l0,0h-1.301l0,0l-0.899,12.2l0,0v0.9l0,0h-1.2l0,0
		l-17.6-0.5l0,0l-15.602-0.2h-4.699l-5.399-0.1l-5.397-0.2v-0.9l0,0l-4.803,3.4l0,0l-0.5-0.8l0,0l-0.1-0.2l0,0l-1.301-2l-1-1.6l0,0
		l-5.699,3.3l0,0l0.8,1.2l0,0l0.3-0.2l0,0l-0.3,2.2l0,0l-0.397-0.2l0,0l-1.303-0.4l-1.3,1l-0.897-0.5l0.197-1.5l-0.3-0.7l-2.7-1.9
		l-3.197-1l1-2.3l-5.103,1.3l-2.2,2.5l0,0l-2,1.9l0,0l-3.3-4.9l0,0l1.103-0.5l0,0l-0.199-0.3l0,0l-1.604-2.6l0,0l1.4-0.8l0,0
		l-3.602-5.2l-2-2.3h-0.302l0,0l-2.397,0.8l0.101-7.6h-1.3l0,0l0.3-21.3v-10.3h-1.397l0,0l-5.399-0.1v-4.7l0,0l0.101-2l0,0
		l0.802-0.2l0,0v-1.2l0,0l2.601-2l0,0l3.399,0.1l0,0h1.397l1.801-0.9l0.103-1.6l15.1,0.7l2-0.6l-0.1-1.2l1.897-0.8l4.5-0.7h3.399
		l1.3,1l3.2,0.1h0.399l0,0l3-0.8l0.897-1.7l4.8-2.4v1.1l0,0v0.8l2.604,0.1l0.199-0.1l0.101-0.8h1.399l0,0l0.601-0.4l7.8,0.1
		l0.103-0.8l0.101-0.4l0,0l0.5,0.4l0,0l4.3,0.3l0,0l1.603-0.6l0,0l3.198-1l5.603-2.9l5.8-1.9l3.899-1.7l1.698-4.1l4.399-5.8l0,0
		l0.3-0.6l0,0l-0.397-0.3l0,0l-0.399-0.2l0,0h0.101l0,0l1.5-3.4l0,0l0.303-1.3l0,0l-0.104,0.4l0,0l3.301-5.4l0,0l0.199-0.2l0,0
		l1.301-2.1l0,0l0.199-0.3l0,0l1.7-1.8l0,0l0.101-0.1l0,0l0.899-1.1l0,0l0.5,0.6l0.5,0.8l0,0l1.2-0.3l4-4.5l2.8-5.4l0,0l0.601-1.1
		l0,0h0.103l0,0h0.8l0,0h0.8l0,0l2-0.1l0,0l-0.199,2.1l-0.397,5.7l0,0l0.897,0.4l0,0l0.699-1.1l0,0l1.604-2.3l0,0l-0.104-0.6l0,0
		h-1.896l0,0l1.697-4l0,0l0.103-0.1l0,0L269.481,85.084z"/>
	<path id="Rancho_Mirage" fill="#8CCBEF" stroke="#000000" stroke-width="3" d="M921.082,260.884h3.398v2.5h2.698v6.3l0,0h6.602l0,0
		l-0.3,12.7l0,0l12.698,0.1l0,0l-0.103-3.5l0,0l0.199-6.7v-2.2l0,0l6.5,4.7l0,0l-0.199,7.8l0,0l6.302,0.1l0,0l-0.103,12.698v9.804
		l0,0v2.799l0,0l-2.397,0.102l0,0l-0.103,9.201l0,0v0.1l0,0l0.103,3.5l0,0v14.4v5.898l0,0l-3.103,2l0,0l-2.897,0.196h-2.802l0,0
		l-1.5,0.103l0,0l-0.5-1l0,0l-1,0.803l-0.198,15.697l0,0l-37.603,0.701l0,0v-5.5l-0.101-20.201l-12.3-0.103l-0.2-13.397l0,0
		l1.101,1.803l0.399-0.102l1.397-2l0.899-2.5l0.199-1.898l4.601-5.303l4.104-2.603h1.396h3.2v-3.397l4.699,0.102l3.101,2.5
		l-0.101-5.5h1.601l0,0v-0.299v-6.102l0,0h-6.3l0,0v-6.302v-6.399l0,0h5.8h0.7l0,0l0.199-12.8v-0.1l0,0l-0.103-3.9l0,0v-4.8
		L921.082,260.884L921.082,260.884z"/>
	<path id="Perris" fill="#8CCBEF" stroke="#000000" stroke-width="3" d="M330.383,217.484l5.397,0.1l1.398,3.1l0,0l0.102,1.2l0,0
		l2.8,5.4l0,0h3.103l0,0l0.602-0.2l0,0l12.603,0.1l0,0l9.801,0.2l0,0h0.397h6l0,0l-0.101,6.2l0,0l-0.102,6.3l0,0l5.3,0.1l0,0l3.5,2
		l0,0l8.2,10.5l0,0l-0.5,0.5l0,0v3.1h-7.803l0,0h-1.6l-1-0.1l0,0l0.1-3.2l0,0h-3.8l0,0v6.4l0,0l-4.897,0.2l0,0l0.5,2.5v3.601l0,0
		l9.897,0.1l0,0l0.7,0.5l0,0l-0.103,12.3l-0.199,12.7l0,0l-0.103,8.898l0,0l0.603-0.396l0,0l-0.103,1l0,0v3.299l0,0l7.5,0.103l0,0
		l-0.397,12.801l0,0h-3.103l0,0v2.101l-0.698,2.801l0,0l-0.897-0.801l0,0l-1.7-1.199l0,0l-0.2,3.397l0,0h3.4l0,0v4.201l0,0
		l1.6-0.701l0,0l0,0l0,0l1.5,0.103l0,0v3.102l0,0l-3.197-0.102l0,0v6.199l0,0h-3.398l0,0l-3.102-0.101l0,0l0.102-6.301l0,0
		l-21.5-0.199l0,0v5.601l0.8,2.801l-0.3,3.5l-0.602,1.102l0,0l-0.103,10.301l0,0v1.699l0,0v0.301h-0.2l0,0l-9.897-0.102l0.5-0.801
		l3.5-0.5l0.7-1.699v-2.398h-2.398l0,0l0.198-1.301l0,0l-5.198,0.6l0,0l0.101,6.103l0,0l-7.198-0.199l0,0h-5.103l0,0v-0.399v-11.898
		l0,0v-2.398l0,0l0.103-1.397l-2.898-2.701l0,0l0.102-6.399l0,0h5.898l3.102,0.104l0,0l1.301-2.604l0,0l0.102-21.601l0,0v-1.601l0,0
		l3.103,0.101l0,0l0.197-2.5l0,0V299.8l0,0v-0.5v-2.1l0,0h-0.601l0,0h-3l0,0l-2.399,3l-4,2l-1.197,1.1l0,0l0.3-9.398h-1.898l0,0
		l0.199-3.3l0,0l1.602,0.1l0,0l0.102-3.3l0,0h1.199l0,0v-3.2l0,0h-2.801l0,0l0.102-5.9l0.102-4.6l0,0v-2.1l6.199,0.2l-0.199,3.101
		h3.398l-0.102,3.101h3.398l0,0l3,0.1h3.199h1.301h0.301l0,0l-12.801-37.7l0,0l2-0.7l0,0l-2.398-0.4l-6.898-19.5l0,0
		L330.383,217.484z"/>
	<path id="Palm_Springs" fill="#8CCBEF" stroke="#000000" stroke-width="3" d="M827.781,173.684h12.301l0,0l-0.198,5.8l0,0h6.397
		l0,0l-0.102,12l0,0l3.301,0.8l9,4.4l0,0l3.899,3.1l12,12.3l0,0l1.601,1.6l7.301,7.5l0,0v0.9l0,0l0.103,2.2v7.1v12.9l0.102,12.6l0,0
		v9.3l0,0l3.102,0.1l0,0v3.4l0,0h7.802h1.601l0,0v2.3l0,0v0.6l0,0l-0.101,9.9l0.101,4.8l2.899,3.1l0,0l3.198,2.9l0,0v0.4v1.399l0,0
		h-1.5l-4.602,0.199v-0.302h-0.2l0,0h-1.102l0,0l-0.698,0.103l0,0l-1.2-0.103l-0.102-6.198h-2.102v1.6l0,0h-0.801l0,0h-0.102
		l-0.103,1.7l0,0h-0.8l0,0l-0.102,3.102h1.102h0.699v1.299l1.601,0.101l-0.101,1h1.199l0.102,1.899h2.5l-0.102,8.201l-0.199,0.101
		h-0.899v1.1l-1.601,2.9l-1.602,5.698l0.102,0.601l3.301,1.399l-0.602,1l0,0l0.199,13.398l12.301,0.102l0.102,20.201v5.5l0,0v13.299
		l0,0l0.103,0.201h-0.103l0,0l-0.7,37.197l12.7-0.1v12.5l-12.301-0.104l-0.301,12.9l-0.199,14.199l-12.102-0.4l-0.199-13.799
		h-12.199l-0.399-22h-12.3l0.103-28.9H855.98l0.199-13v-12.698h12.602l-0.102-12.802l0.2-12.896l0.101-12.9l0.102-12.7h-5.801
		l-0.199,9.7h-6.398v-3.898l0,0v-5.7l0,0h-11.398h-1.3h-11.2l0.104-12.8l0.101-12.801l-0.101-0.2l0.396-12.5l-0.102-6.2l-6.3-0.3
		l0.198-6.5l-6.301-0.101l-12.602,0.101l-12.603-0.3l0.103-12.6l0.2-12.8l-12.399,0.1l-0.101-12.399l-24.899-0.101l-0.301,12.5
		h-12.3l-0.103-25.399h0.699l12.101,0.2l0.103-23l-3.5-1.899l-4.3-5.601l0,0l15.897,0.7l9.898-1.6l4.801,1l1.699,0.7l0,0l0.397,16.3
		v3.1v0.3l-0.101,10l12.5-0.1v12.1l21.601,0.2l0.802-0.5l0,0l0.602,0.4l0,0l-4.301-4l-19.103-14.101l0.103-6.399l8.602,1.8l0,0
		h5.103l0,0l11.897-0.1v-0.7v-0.5l0,0v-6.2l0,0v-0.5v-0.4l0,0v-7.3l0,0l-2.5-0.1l0.199-5.601l0,0h2.398l0,0v-6.399l0,0l6.198-0.101
		L827.781,173.684z"/>
	<path id="Palm_Desert" fill="#8CCBEF" stroke="#000000" stroke-width="3" d="M952.781,274.784l5,3.7l0,0v0.1l0,0l13.603,10.4
		l25,18.102l0,0l1.3,0.799l0,0l4.602,3.603l0,0l3.5,2.397l3.802,2l11.198,4.201l0,0l-0.396,1.199l0,0l-0.802,2.301l-0.102,10.199
		v6.197l0,0v6.604l0,0h-6.302h-2.198l0,0h-10.102l0,0h-0.2l0,0l-0.602-12.898l0,0l-5.398,0.101l0,0l-5.698-0.101l0,0l-0.2,11.101
		l-0.102,1.601l0,0l-7.102,0.104h-2.398l0,0v6.5l0.2,4.799l0,0l0.102,0.102l0,0h1.602l0,0l0.101-0.102l0,0h0.302l0,0l0.102,1.102
		l0,0l-3.398,0.101l0,0v0.301l-0.102,0.399l0,0h-2.898l0,0v1l-0.102,0.101l-0.802-0.301l0,0l-3.3-0.101l0,0v0.101l0,0v0.5
		l0.198,0.399l0,0l-2.101,0.199l0,0v0.301v0.699l-0.102,5.9l0,0l0.198,2.197l0.102,2.897l0,0v0.103l0,0v11.602l0,0l-15.8-0.299
		l-0.2,3.197l-7.5,0.199l0,0l-1.698,5.104l-0.802,4.1l0,0h-0.602l0,0l-11.198-0.1v-12.5l11.3-0.104l0,0l1.302,0.104l0,0h0.101l0,0
		l-1.601-4.803l0,0v-0.801l0,0l1.601,0.104l0.201-20.5l0,0l0.198-15.701l1-0.799l0,0l0.5,1l0,0l1.5-0.104l0,0h2.802l2.896-0.199l0,0
		l3.104-2l0,0v-5.898v-14.398l0,0h3h9.799l0,0v-6.602l0,0h-3v-6.299l0,0h-7.398l0,0v-2.803l0,0v-9.801l0.104-12.7l0,0l-6.303-0.1
		l0,0L952.781,274.784z"/>
	<path id="Norco" fill="#8CCBEF" stroke="#000000" stroke-width="3" d="M143.882,136.584h1.101v1.2h-0.601l-0.102,2l0,0v1.2l0,0
		l-0.801,0.2l0,0l-0.101,2l0,0v4.7l5.398,0.1l0,0h1.399v10.3l-0.301,21.3l0,0l-0.102,4.9h-6.602l-0.6-0.6l0.1-1.7l-0.8-1.3l0,0
		l-3.2,2.5l-4.5,1.5l-2.5,1.5l-0.5,0.8l-0.199,1.5l0.604,1.5l0,0l-1.104,0.4l0,0l-1.896-0.8l-1.2-0.7l-1.199,0.1l-1.5,2.3
		l-1.399,0.1l-2.398-3.4l0,0v-0.9v-1.1v-0.1l0,0h-1.699l0,0v0.1l-0.7,2l0,0l-1.897,0.6l0,0l1.397,3.9l0,0l-0.601,0.4l0,0l-0.699-1.4
		l0,0l-2.301-0.3l0,0l0,0l0,0l-1.399,1l0,0l-1.101,0.7l0,0l-0.199-2.6l0,0l-0.397-0.5l0,0l-2.103-2.8l0,0l-0.5-0.9l-3.801-5.5l0,0
		l-2.602,1.9l0,0l-1.601-2.1l-4.601-6.3l0,0l-0.604,0.8l0,0l-0.301,0.4l0,0l-2.1-2l-7.302,8l-0.5-0.3l0,0l-2.102-1.3l0,0l-0.3-0.1
		l0,0l0.2-0.3l0,0l0.8-0.8l0,0l4.398-5.3l0,0l-1-0.9l0.198-0.8l1.604-2.2l1.396,2l0,0l1.802-1.4l0,0l-2.198-3.4l0,0l1.1-2.9l4-2.6
		l1.9-3l3.698-0.1l0,0l0.398-3.2l0,0l0.102-0.8l0.198-0.1l0,0l0.802-0.2l0,0l2.898-0.8l-0.3-1.3l-0.103-0.6l0.898-1.2l2.2-0.1
		l2.398-2.3l0,0l3.698-1.5l3.9,1.8l0.5-0.2l0.198-0.5l0,0l0.103-1.5l0,0l1.8,0.1v-1.7l4.7-0.3l0.2,0.4l0,0l-0.302,0.1l0,0l3.603-1.7
		l0.102-1.5v-1.2l1.698-1.7l1.102-0.5l4.398-0.5v-1.1l0.4-0.6h1.5v1.7l0,0h0.897l0,0l1.899-0.3l0,0l0.2,0.1l0,0l3-2.8l0,0v2.5
		H143.882z"/>
	<path id="Murrieta" fill="#8CCBEF" stroke="#000000" stroke-width="3" d="M393.781,418.882h0.898l0,0l2.602,0.105l0,0l-0.102,3.895
		l0.801,2.701l10.899,0.1l0,0l0.101,6.306l0,0l-2.601-0.105l0,0l-0.399,15.201l0,0v4l0,0v6.199l0,0l0.102,25.701l0,0h-0.602h-3l0,0
		h-0.898l0,0h-1.898l0,0l-0.199-0.201l0,0l-0.801-1.103l0,0l-0.602,1.804l1.5,1.299l0.802,2.5l-0.398,2.6l-0.7,2.105l-2.198,2.395
		l-0.302,0.303l-0.3,0.804l0,0l-1.302-0.105l0,0l4.102,5l-4.897,4l2.3,2.804l0,0l-4.5,4.303l2.802,5.1l-0.302,0.199l-2.898,2.396
		l0,0l-2.896,2.805l0,0l-2.899,2.6l0,0l-5.699,5.5l0,0l-1.5,1.299l0,0l-11.198-11l-1.5,0.201l-1-1.5l-0.103-1.201l-1-1.1l-7.199-7.4
		l-0.698,0.701l-2.399-2.801l0,0l0.5-0.5l0,0l-6.3-5.699l-5.399,4.9l-0.897-1.9l0,0l0.301-0.397l0,0l0.397-0.4l-1.801-5.9
		l-1.801-1.694l-0.898-2.699l1.103-2.5l-1-1.701l-4.103,0.301l0,0v0.699l0,0l-0.698,5.5h-1.603l0.199-11.699l-3.199-0.1
		l-2.101,1.895l-0.899,6.105l-1.397-0.105v-3.194l-4.5-4.699l-2.802,2.699l-1.5-0.306l1.199-9.1l8-5.699l1.899-1.5l-0.801-0.1l0,0
		l3.397-2.701l0,0l0,0l0,0l0.199-0.299l0,0l1.398,1.1l0.698,0.601l1.302,0.899l0,0l-0.602,0.799l0,0l8.699,6.701l0.699-0.6l0,0
		l1.897-1.701l0,0l4.603-4.1l0,0l1.801-1.603l11.399-9.701l0,0l2.1-1.799l5.102-4.201l0.2-8.6l24.899,0.396l0,0L393.781,418.882z"/>
	<path id="Moreno_Valley" fill="#8CCBEF" stroke="#000000" stroke-width="3" d="M321.883,116.584h8.397l0,0l1.5,1.8l0,0l0.103-1.1
		l21.102,0.2h4.398l-0.302,19.2l11.603,0.3l16.101,0.4l21,0.5l7.899,0.1v6.9h2.897v3.3l3,0.1v4.1l0,0h-0.101l0,0v5.101l0,0l6,1.3h3
		l0,0l2.398,5.3l0,0h2.3v3.7l0,0l3.7,2.4l0,0l0.102,4.9l0,0l8.101,0.1l0,0l2.899,2.4l8.101,11.3l0,0h-5l-5.198,4.7l0.102-4.6
		l-12.2-0.1l-1.101,0.8l-0.104,6.3h-6.8l0,0l0.103,6.2l0,0l-3.802-1l-6-8.3l-2.5-5.3l-2.601,4.4l-4.5,2.4l-1,2.8l-6.399,0.2
		l-5.601,1.9l-0.899,1.1l-6.5,8l-3.301-0.7l-1.699,1.9l-0.698,1.7l-2.603,3.3l-4.602,5.3l-1.603,0.3l-2.1-1.6l-0.201,0.7l2.104,4.4
		l0,0l0.396,0.9l0,0l0.701,1.7l0,0l0.299,0.4l0,0l-0.199,0.7l0,0h-6h-0.397l0,0l-9.8-0.2l0,0l-12.603-0.1l0,0v-0.2l0,0v-0.3
		l-0.102-6l0.2-13.2l0,0v-0.4l0,0l0.101-0.6l0,0l0.101-4.9l0.2-9v-3.7v-3.1v-3.1l0,0v-0.5l0,0l-6.397-0.2l-6.5-0.2l-12.303,0.1l0,0
		h-1.3l0,0l-1-3.7l0,0l-0.7-2l-2.197-6.6l-1.2-3.8l0,0l-0.898-2.6l0,0h1.2l0,0l0.898-0.1l0,0v-0.1l0,0l1.897-0.3l0.103-1.2h1.602
		v1.8l0,0h1.398l0,0l0.197-8.5l0,0l0.899-0.8l0,0l0.601-0.1l0,0l1.399,0.1l0,0l-2.699-1.9l0,0l-0.102-0.6l-0.103,1.2l-3-0.1
		l-7.601-2.3l-1.899-0.2l0,0l-0.101-0.4l0,0l0.3-8.2v-1l0,0l0.801-3.6l0,0h3.603l0.101,2.7h4.801v3.4h3.3l0.104,3.3l0,0l6.3,0.101
		l6.103-2.9l0,0l-7.398-0.2l0.1-6.2l5.4,0.1l0,0h2l0,0v-1.6v-4.6l0,0h-8.2l0.103-5.9l0,0l-0.103-2.8l0,0l-0.897-0.8l0,0l-1.803-0.6
		l-2.1-2.8v-1.4H321.883z"/>
	<path id="Menifee" fill="#8CCBEF" stroke="#000000" stroke-width="3" d="M378.482,329.482l-0.102,6.303l0,0l3.102,0.1l0,0
		l-0.102,6.303l0,0v6.197l0.102,5.803l0.898,4.398l6.397,11.699l2.7,4.898l2.5,5.397l0,0h-17l-8-0.199l0,0v-7.899l0.1-5l0,0
		l-10.5-0.299l-1.897-1.701l0,0l-2.8-1.601l1.5-7.399l1.197-1.896l0,0h0.2v-0.301l0,0v-1.699l0,0l0.103-10.301l0,0l0.602-1.102
		l0.3-3.5l-0.8-2.802v-5.6l0,0L378.482,329.482z"/>
	<path id="La_Quinta" fill="#8CCBEF" stroke="#000000" stroke-width="3" d="M1032.082,346.583l12.5-0.201l0,0v6.4l0,0h-6.199l0,0
		v6.399l0,0l6.199,0.101h2.301l0,0l-0.199,2.6l0,0l0.199-0.196l0,0l-2.301,2.299l0,0v1.602l0,0h-1.199l0,0l-0.103,3.201l-0.397,0.1
		l-0.301,0.801h2l0,0v2.5l0.102,12.699l0,0h12.601l0,0l-0.101,2.4l0,0v0.1l0,0v10.199l0,0h2.699l0,0v6.4l0,0h9.801l0,0l0.398,18.896
		l0,0h-6.398l0,0l0.199,9.801l2.801-0.196l0.199,3.396l0,0h-14.398l0,0l-0.102,2.9l-4.303-0.104l0,0v2.201v1.299l0,0l1.303,3.4l0,0
		l1.396-0.102l0,0l0.104,2.196l0,0l0.102,0.105l0,0l1.898,0.6l0,0l2.896,0.4h1.802l0,0v25.5l0,0l-25.302-0.304l-0.101-12.897
		l12.5-0.103l0,0l0.199-12.803l0,0l-40.199-0.395l0.397-22.804l0.4-2l0.1-26.102l0,0l0.199-25.301l7.701-0.199l9.5-5.601
		l-0.201-8.102l0,0l-0.601-0.1l0,0l-0.103,0.197l0,0h-0.197v-0.197l0.601-0.701l0,0l3.3,0.201l0,0v-0.803l-1-2.398l-4.601-4.799
		l-0.699-2.5l0,0v-6.603l0,0h3.399l-0.104,3.197l9.2,0.201L1032.082,346.583z"/>
	<path id="Lake_Elsinore" fill="#8CCBEF" stroke="#000000" stroke-width="3" d="M233.981,338.882l-3-0.1l0,0l0.399-9.601
		l12.398,0.299l-0.301,11.603l0,0l2.301,0.699l0,0l10.302,0.198l-0.103,7.9l0,0l1.7,5.1l0,0l10.602,0.302l-0.102,4.301l-0.601,2
		h-5.5l7.601,6.799l0,0l-0.101,0.201l0,0l5.101-0.801l0,0l1.102-1.101l0,0l2.199,2.299l0,0l-1.101,1.201l0,0l1.7,1.699l0,0
		l-2.7,1.699l0,0l3.2,3.102l0,0l0.601-0.899l-0.398-0.9l1-1.1l1,0.899l0.102,0.699l-3.199,3.301l1.102,1.5l5.801,0.101
		l-0.103-12.699l-3.198-0.103l-1-1.698l0.5-0.699l1.801-1.103l0.801-2.698l2.699-2.4v-4.299l-4.103-0.103l0,0l-0.3-0.198l0.3-2
		l-0.397-1l-2-1.699l-2.699-1l0,0l-0.301-1.397l0.301-3.304l2.1-4l-0.198-1.397l-1.102-3.103l0,0h3.899l0.301-17.6l-5.103-0.101
		l-0.101-3l18.399,0.199l-0.7,40.1h-3.399l-0.699,2.302l0,0l-2.898,0.899l0,0v3l0,0h7l0.101-3.201l0,0h4.5l0,0l1-3.299l0,0l1-0.102
		l0,0h2.899l0,0l0.101,3.301l0,0l-2.601,0.1l0,0v1.302l0,0v0.801l0,0h-0.199l0,0l-1.301,0.299l0,0v2.5l0,0h8.198l0,0l2.5,4.5l0,0
		l8.103,0.302l0,0v0.604v2.396h-3l-0.103,5.899h-3.3l-0.102,0.601l0,0l-0.3,9.604l5.102,0.1l0,0v3.301l1.198,0.799h3.802v-0.397
		l1.698-0.5h2.302l-0.102,2.699h1.697h5l0,0l3.303,0.1l0,0l7.602-0.1l0,0l13.5,0.1l0,0h1.5l0,0l-1.4,3.4l0,0l-0.1,1l0,0v1.897h-1.4
		l-0.197,6.4l0,0l0.102,0.299l0,0l-13.801-0.299l-10.801-0.201l-22.303-0.199l-0.396,0.699l0,0l-2.104,0.701l0,0l-0.299,0.199
		l-0.5,0.301l0,0l-2.398,1l0,0l3.801,9.699l0.101,6.396v1l0,0l-5.897,7.699l-3.801,5.103l0,0l-5.199-3.896l0,0l-1.7,2.5l0,0
		l-1.2-0.9l0,0l1.7-2.5l0,0l-1.3-0.897l0,0l0.398-0.603l0,0h0.102l0,0l-2.301-2.196l0,0l1.301-1.9l0,0l-0.301-0.201l0,0l-7-5.396
		l-2.3-1.699l-3.803,5.199l0,0l-0.6-0.5l0,0l3.8-5.199l-2.3-1.699l-2.2,3.101l-19.3-13.802l-2.301-1.896l-2.801-4.104l-2,2.604l0,0
		l1.698,1.299l0,0l-2.3,3.601l0,0l-0.801,1l0,0l-1.8-5.8l0,0l-1.7,2.5l0,0v0.199l0,0l-0.199,4.101l-2.898,0.104l0.102-6.803l0,0
		l2.898-4l0,0l-2.802-2.103l0,0l-0.897-0.801l0,0l-4.5-3.398l0,0l3.301-5.602l0.3-0.6l0,0l-1.897-1.4l1.601-2.699l-6.801,0.103
		l-0.3-0.103v-2.301l0,0l0.197-1.5l0,0l-13.8-0.199l0.103-12.897l9.601,0.198v-3.198l1.399,0.102l0,0l1.101-1.2l0,0l0.699,1.2l0,0
		h1.801l0,0h1.5l0,0l2.699,0.199l0,0l1.2-4.199l3.397-5.7l0.3-0.898l-0.5-0.602l-2.1-2.5l-2.4-2l-1.897-4.898L233.981,338.882z"/>
	<g id="Jurupa_Valley">
		<path id="_x36_3260" fill="#8CCBEF" stroke="#000000" stroke-width="3" d="M240.981,84.384l0.103,0.4l0,0l1.101,0.2l1.5,1.8
			l1.899,5.8l1.301,2.3l0,0l-0.9,1.1l0,0l-0.1,0.1l0,0l-1.7,1.8l0,0l-0.2,0.3l0,0l-1.3,2.1l0,0l-0.2,0.2l0,0l-3.3,5.4l0,0l0.102-0.4
			l0,0l-0.302,1.3l0,0l-1.5,3.4l0,0h-0.1l0,0l0.398,0.2l0,0l-5.302,6.4l0,0l-0.601,1.8l-1.602,2.1l-1.398,1.2h-0.5l0,0l-2.3,0.6l0,0
			l-1.802,0.4l0,0h-0.5l0,0l-2.198,0.4l0,0l-0.603,0.1l-2.8,2.9l-3.399,1.2l-1.5,1.2l0,0l-1.601,0.6l0,0l-4.301-0.3l0,0l-0.5-0.4
			l0,0l-0.102,0.4l-0.102,0.8l-7.8-0.1l-0.602,0.4l0,0l-0.301-1.3l0,0l-1.601-6l0,0l0.101-0.2l0,0l-0.301-1.1l0,0l-0.398-1.4l0,0
			l-1.198-3.8l0,0h-0.5l0,0l-2.302-12.8l0,0l3-1.7l3.102-2.9l1.2-0.2l2.6-1.8l3.102-2.5l-0.102-0.3l0,0l1-0.2l1-0.2l0,0l1,2.6
			l0.301,0.5l0,0l0.301,0.3l0,0h1.699l0,0l0.699,0.1l0.2,0.1l0,0l1.3-3.8l0,0l1.602-0.4l0,0l5.699-0.7l0,0l0.103-0.1l0,0l1.8,1.9
			l0,0l0.898-1.4l0,0l1.699,0.9l0,0l1-1.2l0,0l1,1.5l0,0l-0.801,2.1l0,0l-0.8-0.4l0,0l-0.2,0.3v0.2l0,0l1.602,0.9l2,0.4l1.602-1.4
			l0,0v-0.1l0,0l-1-0.7l2-3l0.7-4.1l2-3.6l0,0l1.8,1l0,0l1.398-2.1l0,0l3.102,0.9H240.981z"/>
		<path id="_x32_9644" fill="#8CCBEF" stroke="#000000" stroke-width="3" d="M186.382,71.384l-0.399,8.4l0.2,1.2l1.8,3.3v2l0,0
			l0.302,0.1l0,0v4.3l0,0h8.102l0,0l1,0.8l0.101,1.2l1.7,1.1h2.103l2.8-0.8l0.801,0.8l0,0l-0.2,0.3l0,0l-13.3,3.7l0,0l-12.5,3.5
			l-7.301,2l0,0l-3.603-2.9l-5.101-3.2l-3.5-2l0,0l-15.5-9.1l0,0l0.199-15.2l0,0l0.301-0.1l0,0l12.3,0.4l5.8-0.1l0,0l5,0.1h2.603
			l0,0l5,0.1l7.2,0.1l0,0H186.382z"/>
		<path id="path20014" fill="#8CCBEF" stroke="#000000" stroke-width="3" d="M156.781,125.684v-0.7l0,0l0.602,0.6l1.398,0.2
			l0.399,0.2l2.101,2.5l0.399,0.8l3.699-0.2l0.2-0.7l0.5-0.9l5.698,1l3.102,1.9l1.801,1.6h0.3l2.899-0.4l1.7,1.4l3.397-1l0,0
			l0.301,1.9l0,0h-0.398l-3.199-0.1l-1.301-1h-3.399l-4.5,0.7l-1.897,0.8l0.101,1.2l-2,0.6l-15.101-0.7l-0.103,1.6l-1.8,0.9h-1.399
			l0,0l-3.398-0.1l0,0l-2.602,2l0,0l0.102-2h0.601v-1.2h-1.101l0,0v-2.5l0,0l-3,2.8l0,0l1.301-5.3l1.602-1.5l0,0l0.398-0.3l0,0
			l4.699-3.5l3.101-1.3L156.781,125.684z"/>
		<path id="_x37_6022" fill="#8CCBEF" stroke="#000000" stroke-width="3" d="M223.082,71.384l-0.802,1.2l0,0l0.602,0.5l0,0
			l0.801-1.2l0,0l1.3,1l0,0l-4.897,13.4l0,0l-0.199,3.3l0,0l0.398,0.2l0,0l-0.699,2.5l0,0l-0.103,0.1l0,0l-5.698,0.7l0,0l-0.5-0.2
			l-4.5-2l-5.199-1.3l0,0l-0.699-2.6l0,0l4.398-2.4l2.198-1.8l0,0l0.603-0.9l2.601-0.3l0.3-1.9l-0.5-1.4l-0.697-0.8l0,0l0.5-0.5l0,0
			l2,0.3l0,0l5.3-2.7l0,0l-0.199-0.7l0,0l2.3-2.5l0,0H223.082z"/>
	</g>
	<path id="Indio" fill="#8CCBEF" stroke="#000000" stroke-width="3" d="M1040.682,300.982h2.301l0,0l3.898,2.604l5.301-0.104
		l1.199,0.604v3.799l0,0h4.2l0,0v0.102l0,0l0.601,0.5l0,0l6.301,6.5l5.1,3.201l0,0h4.104l-0.104,2.601l12.303-0.101l3,2.398
		l2.897,3.699l3.103,0.5l3.301,2.6l4.601-0.398l1.399,0.398l1.399,0.803l1.697,2.697l5.899,7.102l2.699,1.398l2.2,0.303l2,1.697l0,0
		v4.803l0,0v0.398l0,0l-6-2.898h-6.603l0,0v6.5v0.197l0,0l-6.5-0.1l0,0l0,0h-1.302l0,0h-1.698v1.5l2.398,2.398l2,1.198l2.602,0.802
		l2.5,0.198l0,0v0.101l0,0v0.201l0,0h-3.2h-2l5.2,5.102l0,0v1.1v2.103v1.2v3.197l0,0h-3.302l0,0l0.2-3.197h2.8l-1.3-1.7l-4.2-4.9
		h-3.603l-0.801,3.201l0,0l0.604,0.899l0,0h3.3v5.5v0.197l0,0h-0.198h-0.5h-2.397l0,0l-0.103-2l0,0l-1.102-1.1l0,0l-2-0.102l0,0
		v3.198l0,0l-12.398,0.103l0,0l-0.102,5.602l0,0l3,0.102v7.299l0,0l-3,0.101l0,0l-0.104,12.603l0,0h-12.601l-9.801-0.103l0,0h-2.699
		l0,0v-10.199l0,0v-0.1l0,0l0.101-2.4l0,0h-12.601l0,0l-0.101-12.698v-2.5l0,0h-2l0.301-0.802l0.398-0.1l0.102-3.201l0,0h1.199l0,0
		v-1.601l0,0l2.301-2.299l0,0l-0.199,0.197l0,0l0.199-2.6l0,0h-2.301l-6.199-0.102l0,0v-6.398l0,0h6.199l0,0v-6.4l0,0l1.697-7.697
		l0,0h-1.396l0,0l-0.301-4.899l0,0l2.898-0.301l0,0l-0.898-1.5l-2.899-2l-11.5-5.603l-6.399-2.5l0,0l1-1.197h5.399l0,0v-6.399l0,0
		h3.199l0,0h2.603l0,0v6.399l0,0h-2.7l0,0v2.898l0,0v0.5l0,0h6.2l0,0h3.1l0,0v-9.898l0,0h0.803l0,0l1.801,0.101l0,0h0.896l0,0
		l0.199-6.399l0,0h-7.699l0,0L1040.682,300.982z"/>
	<path id="Indian_Wells" fill="#8CCBEF" stroke="#000000" stroke-width="3" d="M1000.082,333.686l0.602,12.897l0,0h0.199l0,0h10.102
		l0,0l0.101,1.199l0,0v3.6l0,0l-1.101,0.701l-0.2,0.397l0,0l8.5,3.701l4.2,0.699l0,0l-0.602,0.699v0.201h0.199l0,0l0.102-0.201l0,0
		l0.601,0.102l0,0l0.2,8.101l-9.5,5.6l-7.7,0.201l-0.199,25.299l0,0l-36,0.201v-10.101l-0.301-1.7l0,0v-11.601l0,0v-0.102l0,0
		l-0.101-2.898l-0.199-2.201l0,0l0.101-5.897v-0.701v-0.299l0,0l2.103-0.201l0,0l-0.199-0.397v-0.5l0,0v-0.103l0,0l3.301,0.103l0,0
		l0.801,0.303l0.102-0.102v-1l0,0h2.898l0,0l0.102-0.398v-0.303l0,0l3.398-0.103l0,0l-0.102-1.1l0,0h-0.301l0,0l-0.103,0.1l0,0
		h-1.601l0,0l-0.102-0.1l0,0l-0.199-4.802v-6.5l0,0h2.398l7.102-0.1l0,0l0.101-1.6l0.2-11.103l0,0l5.699,0.103l0,0L1000.082,333.686
		z"/>
	<path id="Desert_Hot_Springs" fill="#8CCBEF" stroke="#000000" stroke-width="3" d="M842.281,115.584l3.301,2.8l1,2.9l0,0
		l0.102,7.3l0,0l10.5,0.1l0,0v0.1l0,0h2.102l0,0v-0.1l-0.102-8.8l0,0v-0.5l0,0l0.2-3.7h5.698v6.8h2.398l0,0h3.102l0,0h3.699v1.4
		l1.301,1.1h1v-2.5l0.898,0.1l0,0h1.5v0.2l0,0l2.102,2.3l0,0l0.5-0.5l0,0l-0.301-0.5l0,0l2-1.2l0,0l-1.102,1.2l0,0l1.602,2l0,0
		l0.398,0.4v2.3v0.1l0,0h0.897l12.2,0.101l-0.2,12.8h2.399l0,0l2.898,0.1l0,0l7.102,0.101l-0.102,11.899l0,0l0.102,0.8l0,0
		l-12.801-0.2l0,0l-0.103,6.7l0,0l-7.397-0.1l0,0l-5.301-0.1h-2.802l0,0l-0.397,6.399l0,0l-3.103,0.101l0,0l0.2-7.601l0,0l-1.602,1
		l0,0h-10.8l0,0l0.101,6.601l0,0h-3.101l0,0v-1.5l0,0v-0.9l0,0h-3.103l0,0l-0.102-10.7l-0.104-12.8l0,0h-3l-9.6-0.1l-31.5-0.101
		l-6.2,0.4l0,0l0.103,6.2l0,0v6.6l0,0h-3.303l0,0l-7.3-0.3l-2.3-0.5l-12.604-0.2l0.303-37.9l12.5,0.5l27-1l9.101,0.2l0,0
		L842.281,115.584z"/>
	<path id="Cathedral_City" fill="#8CCBEF" stroke="#000000" stroke-width="3" d="M896.082,208.184l1-2.2l0,0l2.398,3.2l0,0
		l3.897,5.6l0,0h4.897v-9.2l12.899-0.1v26.1l-0.103,12.8l0.103,7.4v4.9l0,0v0.2l-0.103,4l0,0v4.8l0,0l0.103,3.9l0,0v0.1l-0.198,12.8
		l0,0h-0.701h-5.799l0,0v6.4v6.302l0,0h6.299l0,0v6.102v0.299l0,0h-1.601l0.101,5.5l-3.101-2.5l-4.698-0.102v3.397h-3.201h-1.397
		l-4.103,2.603l-4.601,5.303l-0.198,1.898l-0.9,2.5l-1.397,2l-0.398,0.102l-1.102-1.803l0,0l0.602-1l-3.3-1.398l-0.103-0.602
		l1.603-5.697l1.602-2.9v-1.1h0.898l0.198-0.102l0.102-8.201h-2.5l-0.102-1.898h-1.198l0.102-1l-1.602-0.102v-1.299h-0.7h-1.102
		l0.102-3.102l0,0l0.898,0.6l0,0l-0.103-0.6l0,0l0.103-1.7h0.102l0,0h0.802l0,0v-1.6h2.102l0.101,6.198l1.2,0.104l0,0l0.699-0.104
		l0,0h1.101l0,0h0.2v0.303l4.601-0.199h1.5l0,0v-1.4v-0.4l0,0l-3.198-2.9l0,0l-2.898-3.1l-0.102-4.8l0.102-9.9l0,0v-0.6l0,0v-2.3
		l0,0h-1.602h-7.802l0,0v-3.4l0,0l-3.101-0.1l0,0v-9.3l0,0l-0.102-12.6v-12.9v-7.1l-0.103-2.2l0,0l3.2,2.9l9.398,6.7l0.396-0.2l0,0
		h-0.101l0,0v-12.9h-9.399l0.104-6.4h4.5l-0.104-5.2l0,0L896.082,208.184z"/>
	<path id="Canyon_Lake" fill="#8CCBEF" stroke="#000000" stroke-width="3" d="M327.681,353.686l0.602,0.196l0,0l2,0.4l0,0h1h0.5l0,0
		l-0.3,18.399l0,0l0.5,7.299l2.5-3.198l0,0h9l0,0h0.6l0,0v3.198l3.5,0.103l0,0l0.5,3.603v2.102l0,0l0.104,0.898l0,0l-0.399-0.201
		l0,0h-3.697l0,0l-0.103,6.303l0,0l-7.602,0.1l0,0l-3.303-0.1l0,0h-5h-1.697l0.102-2.701h-2.301l-1.699,0.5v0.398h-3.801
		l-1.199-0.799v-3.304l0,0l-0.397-2.5l-2.2-3.1h-2.199v-4.101l0,0l0.101-0.602h3.302l0.102-5.898h3v-2.399v-0.601l0,0l0.103-13.602
		l8.397,0.201l0,0v-0.603h-0.006v0.005h-0.007V353.686z"/>
	<path id="Corona" fill="#8CCBEF" stroke="#000000" stroke-width="3" d="M95.481,175.084l0.603-0.8l0,0l4.601,6.3l1.602,2.1l0,0
		l2.602-1.9l0,0l3.8,5.5l0.5,0.9l0,0l2.102,2.8l0,0l0.398,0.5l0,0l0.2,2.6l0,0l1.1-0.7l0,0l1.4-1l0,0l0,0l0,0l2.3,0.3l0,0l0.7,1.4
		l0,0l0.6-0.4l0,0l-1.397-3.9l0,0l1.897-0.6l0,0l0.7-2v-0.1l0,0h1.7l0,0v0.1v1.1v0.9l0,0l2.398,3.4l1.398-0.1l1.5-2.3l1.199-0.1
		l1.2,0.7l1.897,0.8l0,0l1.103-0.4l0,0l-0.603-1.5l0.2-1.5l0.5-0.8l2.5-1.5l4.5-1.5l3.199-2.5l0,0l0.801,1.3l-0.101,1.7l0.601,0.6
		h6.601l0.102-4.9l0,0h1.301l-0.101,7.6l2.397-0.8l0,0h0.301l2,2.3l3.602,5.2l0,0l-1.399,0.8l0,0l1.603,2.6l0,0l-1.399,1l0,0l-3,1.2
		l-3.8,1.5l0,0l0.601,1.399l0,0l-2.601,1.601l0,0l-1.102-1.8l0,0l-5.398,2.2l-6.602,2h-0.199l0,0l1.601,2.3l-1.398,1l0.898,1.4l0,0
		l2.102-0.3l1.398-0.9l0,0l1.8,2.601l0,0l2.302-2l0,0l0.301,0.2l0,0l2.397,1l0,0l0.399,0.2h0.5l0,0l0.398,0.2l0.602,2.3l4.3,1.7
		l1.5-0.2l3.3-2.7h5.802l-0.102,4.6l5.399,0.3l-0.699,1.1l-1.301,0.3l-0.699,5.5l-0.801,1.8l2.601,2l1.602,3.6l-0.302,12.8l-5.5-0.1
		l-6.3,3.9l0.602-4l3.398,0.1l0.2-8.5l-4.2-0.1l0.102-4.5l-3.102-3.2l-6.2-0.1v-2.7l-5.3-0.101l-0.398-0.5l0,0v0.3l0,0l-0.699-0.9
		l0,0h-2.103l-0.198,4.3h-3.802v-1.6l-1.397,0.2l0,0l-0.301,0.2l0,0l-0.898,0.5h-0.4l0,0l0.104,7.2l0,0l2.896,2.9l0,0l-0.8,1.5l0,0
		l-0.3,0.6l-0.5,0.9l0,0l-0.5,0.899l0,0l-0.301,0.4l0,0l-0.801,5.8l0,0v0.9l0,0l-0.102,3.7v1.1l0,0h1.5l0,0h1.5l0,0h2.5l0,0h0.899
		l0,0l2.699,0.1l0,0l1.198-0.7l2.5,3l-1.397,1.5l-0.301,5l-3.802,4.2l-0.101,5.7l-20,0.4l0.2-8.101l-16.5-10l-1.302-1.6l-10.601-12
		l-3.101-3.3l-0.103,1v4.1l-4.601-0.2l-0.8-2.2l0.198-2.5l2.102-1.6l-1.102-2.7l-3.301-3l-4.301-4.399l0.801-4.4l-15.897-6.1
		l-0.2,6.1l-6.102-0.1l0.102-8.3l-4-0.9l0,0l-0.102-7.5l0,0l-0.801-0.3v-0.8l3-0.1l6.801-2.1l7.302,0.3l-1.103,1.8l0,0l6.699,6.9
		l0,0l-0.1,0.399l-0.5,0.5l0,0l4.896,5l-0.5,2l2-2l-0.601-1.2l-0.7-1.4l-2.1-1.4l2.5-2.8l3.8,1.6l0,0l-2.102,2.3l0,0l0.802,1.1l0,0
		l6.3-6.4l-0.5-0.4l0,0l0.8-0.7l0.301-0.5l0,0l-1.5-0.6l0,0l0.104-0.4l0,0l-2.5-0.7l0,0l0.198-0.6l0,0l-0.198-0.1l0,0l-6.7-1
		l-11-2.4l0,0l10.398-1.8l0,0l-2-1.7l0,0l1.398,0.1l1.801-0.7l1.301-2.9l-2.698-2.7l-5.5-0.1l-0.802-5.5l2.302-0.604l0.896,1.8
		l2.104-0.8l-1.5-3.896l0,0l-0.5-1.104l2.5-1.1l0.601,2l0.899-1.1l0.101-0.1l0,0l4,1.8l0,0l1.5-3.5l0,0l2.101,1.3l0,0l0.5,0.3
		l7.302-8l2.101,2l0,0L95.481,175.084z"/>
	<path id="Coachella" fill="#8CCBEF" stroke="#000000" stroke-width="3" d="M1120.082,348.686l2.198,1.897l2.399,2.799l2.5,5.603
		l0,0h-1.103l0,0v3.201l0.103,3.299l0,0h-3.801l0,0l-2.303,3.102l0,0v3.301l0,0l6.199,0.101l0,0l0.101,6.5l18.604,0.102v-9.602l0,0
		l2.698,1.102l14.697,3.398l3.803,0.301l3.697-0.5l0,0v24l-9.5,0.1l-0.896,0.105l0,0l-0.5-0.105l0,0l-19.5,0.201l0,0l-7-0.1v1.396
		l0,0l1,2l0,0h5.3l0.102,3h2.698l0,0h0.5l0,0l3,3.301l0,0v3.103l0,0l9.102,0.1l0,0l0.103,3.105l-3,2.895l-3.103,0.105l-1.397,3v1
		l0,0v2.694l0,0l-7.3-0.1h-0.5l0,0l-2-2.4l-1-3.6l-3.104,0.1l0,0l-4.896-6.896l0,0h-0.5l-4.9,0.1h-2.6l-12.7-0.1l0,0l0.301,12.801
		l0,0h-12.601h-3.303l0,0l0.103-6.301l0,0h3.103l0,0l-0.301-6.5l0.301-12.5v-6.399v-4.601l0,0h-1.5l0,0l-1.699-1.799l0,0h-3.102l0,0
		v3.299l0,0h-3.102v-0.899l0.698-0.101l0.399-0.603v-1.698l0,0h-1.199l0,0v-7.302l-3-0.102l0,0l0.102-5.6l0,0l12.398-0.103l0,0
		h3.199l0,0h2.398h0.5h0.199l0,0h3l0,0h3.301l0,0v-3.198v-1.199v-2.103v-1.1l0,0v-0.5l0,0v-4.603l0,0v-0.199l0,0v-0.102l0,0v-6l0,0
		v-0.199v-6.5l0,0h6.602l6,2.898l0,0V348.686L1120.082,348.686z"/>
	<path id="Blythe" fill="#8CCBEF" stroke="#000000" stroke-width="3" d="M2034.082,481.683h3.602l0.398,12.699l0,0l-16.302,0.5
		l0.302,6.5l-2.898,0.201l-0.199-6.6l-13.102,0.196l-0.103-10l-2.8,0.103v-3.199L2034.082,481.683z M2217.281,373.982v-0.101l0,0
		l4.103,1.699l0,0l3,1.201l11.602-0.102v1.198l0.398,20.9l0,0l-2.603,0.1l0,0v0.104l0,0l0.199,6.197l0,0l3.301-0.1l0,0l0.199,6l0,0
		v0.398l0,0l6.199-0.304l6.397-0.1l0,0l0.301,7.899l-1.397,4.799l0,0l1.301-0.102l18.898-0.6l12.5-0.4l0,0l-0.398-12.697l0,0h0.103
		l0,0l-0.103-0.104l0,0l-0.102-12.896l0,0l20.301-0.701l0,0l0.397,0.898l0.199,1.699l-0.101,1.301l-0.399,0.9l-0.8,1.397
		l-0.104,0.103l-0.896,2.1l-1.301,2.602l0.101,2.201l0.801,3l0.302,0.799v0.101l0,0l-0.398,0.201l0,0l-6.102,2.299l-4.699-1
		l-1.603,0.801l0,0l-0.301,0.304l0,0l0.103,1.301l14.102-0.104l0,0l0.199,1.104l0.102,3.896l-1.102,2.604l-0.199,0.6l-0.699,1.801
		l0.199,4.103l1.301,3.5l1.602,1.897l0.802,2l-0.102,2.603l-1.398,2.2l-1.699,2l-0.698,1.197l-0.399,0.603l-6.896,11.7l0.198,5.3
		l0.198,4.2l3.302,10l0,0l0.198,0.3l0,0l-7.396,0.301l0.198-2.5l-1.5-2l-0.102-0.9l0.199-1.1l1.301-1.9l0.199-1.194l-0.899-4.201
		l0.104-2l1.101-2.4l-2.101,0.104l0,0h-0.302l0,0l-16,0.5l-3,0.1l0,0l-0.198-6.6l-3.899,0.1l-0.101-3.1l-5.7,0.196l0,0l-0.102-1.301
		l0,0l-11,0.301l0,0l-1.198,0.603l0,0h-0.2l0,0v1.201l0,0l-1.5-0.804l0,0l-0.199-5.301l0,0h-1.801l0,0l-9.3,0.104l0,0v-0.304l0,0
		l-17.104,0.103l0,0l1.604-3l0,0l15.396-0.103l6.302-0.196l0,0l-0.102-3l0,0l-0.2-3.4l0,0l4.899-0.201l0,0l-0.103-0.194l0,0
		l-1.5-1.5l0,0h-0.102l0,0l-0.103-4.5l0,0v-0.5l0,0l-0.199-6.199l0,0l-9.698,0.299h-2.103l0,0l-1.102-6l0,0h-0.199l0,0
		l-0.301-19.199l0,0l-3.5,0.101l0,0h-0.103l0,0l-6.101,0.198l0,0l-12.399,0.302l0,0l-0.199-5.398l6.103-0.101l-0.199-7.602l0,0h4
		l0,0l-0.102-6.5h2.301l0,0L2217.281,373.982z"/>
	<g>
		<path id="path20010" fill="#8CCBEF" stroke="#000000" stroke-width="3" d="M527.281,113.484l-0.897,2.1l-4.302,4.7l-0.898,1.7l0,0
			l-0.102,0.1l0,0l1.602,4.1l0,0l-1.698,0.1l0,0l-0.102,3.1l0,0h-1.5l0,0l-0.2,10.1l0,0l-1.198,2.7l0,0l-2.2-0.9l0,0l0.104-1.4l0,0
			l-1-0.9l0,0l-11-0.1l-1,0.4l0,0l-3.701-2.5l-0.799-0.5l0,0l-1.399-1.1l0,0l-0.7-1l0,0l-0.896-0.4l0,0l-1.7-0.5l0,0l0.5-0.3l5-0.3
			l0,0l0.801-6.5l0,0h2.102l0.102-6.1l12.5-0.1h0.602l5.699,0.1v-6.4L527.281,113.484z"/>
		<path id="path20050" fill="#8CCBEF" stroke="#000000" stroke-width="3" d="M528.182,139.084h7h0.899l0,0v11.2l0,0l-3.2,1.5
			l-0.103,2.4l0,0l-1.697,1.2l0,0l0.197-1.1l-0.5-2.5l0,0h-3.602l0,0l2.397-5.2l0,0h-0.697L528.182,139.084z"/>
		<path id="Calimesa" fill="#8CCBEF" stroke="#000000" stroke-width="3" d="M492.383,100.384l9.397,0.1l3.2,0.2l0,0l5.398,0.1l0,0
			l8.896,0.6l4.899-0.2l0,0l0.101,3.2h3.201v1.3l0,0v1l0,0l-0.201,6.8l0,0l-6.299,0.2v6.4l-5.701-0.1h-0.601l-12.5,0.1l-0.103,6.1
			h-2.101l0,0l-0.801,6.5l0,0l-5,0.3l-0.5,0.3l0,0l1.699,0.5l0,0l0.897,0.4l0,0l0.7,1l0,0l1.398,1.1l0,0l0.801,0.5l3.699,2.5l0,0
			l6,5.3l0,0v0.3l-0.103,0.4l0,0l-6.699,0.5l0,0l-11.5-0.1l0.103-7.6l-21.899-1.8l0,0l-3.5-3.7l-3.397-2.5l-2.802-1.7l0,0l-1.5-0.9
			l0,0l0.103-0.3l0,0l-6.603-0.5l0,0v-1.6l6.5-5.7l0.103-5.9l-17.603-0.3v3.6l-8-0.1l0.103-3.6l-6.801-0.1l0.102-6.4l6.8,0.1
			l0.2-5.9l0,0l12.5,0.1l0,0l27.699,0.3l0.897-0.1l0,0l4.103-0.3l0,0l3.699-0.1l0,0h4.801L492.383,100.384z"/>
		<path id="_x31_2916" fill="#8CCBEF" stroke="#000000" stroke-width="3" d="M539.182,101.084l7.399,0.1h0.897l0,0l11.3,0.1l0,0
			l-0.5,2l-0.697,1.1l-4.2,5.5l-0.604,2.1l-0.196,6l0,0h0.3l0,0l0.3-0.5l0.4,1.1l0,0l1.6-0.2l0,0l3.5-2.4l0,0h3.4l-0.2,1.3
			l0.896,1.2l0,0l-1.396,1.6l0,0l-2.3,2l0,0l-1.9,3.4l0,0l3.102,2.1l0.603,1.2l1.397,4.6l0,0l2.103-0.5l0,0l-0.103,6.4l-3-0.1v1.6
			h-3.2l0,0v1.7l0,0l-3.396-0.1l0,0l0.101-1.6l0,0l-1-0.1l0,0l0.103-1.3l0,0v-0.2l0,0l-8.398-0.1l0,0l-0.102,6.4l0,0h-1l0,0
			l-0.603-0.8l0,0l0.103-1.5l0,0l-1.8-4.1l0,0h-6l0,0h-0.899h-7l0,0l-8.398-0.1l0,0l-0.602,0.5l0,0l0.199-10.1l0,0h1.5l0,0
			l0.102-3.1l0,0l1.699-0.101l0,0l-1.601-4.1l0,0l0.101-0.1l0,0l0.899-1.7l4.3-4.7l0.897-2.1l0,0l0.2-6.8l0,0l5.103-0.899l1.5-0.5
			l0.897-1.2l0,0L539.182,101.084z"/>
		<path id="San_Jacinto" fill="#8CCBEF" stroke="#000000" stroke-width="3" d="M502.081,260.084l-0.101-7.8l9-4.2l2,1.3l2.698,1.2
			l0,0l-0.103,9.7l0,0l13.603,0.2l0.102,6.2l0,0l-0.102,0.1l0,0h9.302l0,0l0.1,3.4l0,0h1.604l0,0h2.5l0,0l3.699,0.1l0,0v-0.6l0,0
			v-2.7l-3.303-3.3l0,0l0,0l0,0l0.803-2.8h-0.303l-0.197-0.8l6.801-0.2v7.3l6.5,0.3v1.899l-3.899-0.1l-2.897-1.1l0,0l-0.103,0.3l0,0
			v0.8l-2.699,6l1.899,1.9l0,0l2.101,2.3l0,0h-3l0,0l-0.101,0.3v10.5l0,0l0.601,0.4h1l0,0h1.5l0,0v-0.6l0,0l3.199-1.1v-7.9l0,0
			l1,0.5l0,0l3.5-3.7l4.7,3.9l0.5,0.3l0,0l-0.399-2.1l0,0l0.5-0.7l0,0l4.802,3.5l0,0l0.897-0.104l0,0l3.399-0.2l0.301-1l-0.301-0.5
			l0.5-0.7l4,0.1l-0.104,2h-1.8l-0.3,6.9h1.898v3.3l-3.104-0.1l-4.601,6.5l-0.103,0.103l0,0l-0.197,0.397l-0.303-0.5l0,0l-2-0.1l0,0
			l3.103,4.699l4.897,5.5l0,0l0.899-0.9l1.199,3.9h-3.399l0,0l-0.8-0.801l0,0l-0.102,0.801l0,0l-3.103-0.103l0,0v2.603l0,0
			l-3.699,0.199l0,0l-0.5-0.302l0,0v1.802l0,0l4.399,3.602l0,0l-3.399,1.5l-4.397,0.1l-1.301,0.801l-0.103,1.898l0,0l-0.397-0.398
			l-3.398-2.801l-3.102-3.199l-0.398-3.899l0,0l0.101-0.897l0,0l-2.601,0.303l0,0v0.799l0,0l-0.801,1.898l-1.5,1.602h-3.899l0,0
			l0.104-9.299l0,0h-4.104l0,0l-0.699,0.799l0,0v0.201l0,0h-1.5l0,0v-4.4l0,0h-6.197l-3.2-0.1h-16l-9.3-0.104l-9.803-0.302l0,0l0,0
			l0,0v-1.198l0,0v-5.199l0,0h-3.197l0,0v-6.101l-1.604-2.7l-1.601-0.398l-1.699,1l-5-0.102l0.3-8l-5.199-13.2l-0.5-2.3
			l-0.301-17.898l1.104-1.102l0,0l16.601,12.7l1.399,0.2H502.081L502.081,260.084z"/>
		<path id="Hemet" fill="#8CCBEF" stroke="#000000" stroke-width="3" d="M490.883,297.982h3.198l0,0v5.201l0,0l-6.198-0.103v-2
			l2.897,0.103L490.883,297.982z M494.081,304.382L494.081,304.382L494.081,304.382l9.802,0.304l9.301,0.102h16l3.199,0.1h6.199l0,0
			v4.4l0,0h1.5l0,0v-0.201l0,0l0.698-0.799l0,0h4.103l0,0l-0.103,9.299l0,0h3.898l1.5-1.602l0.802-1.898l0,0v-0.799l0,0l2.602-0.303
			l0,0l-0.102,0.897l0,0l0.397,3.9l3.103,3.198l3.397,2.802l0.397,0.399l0,0l0.103-1.899l1.301-0.802l4.398-0.1l3.399-1.5l0,0
			l-4.399-3.6l0,0v-1.803l0,0l0.5,0.303l0,0l3.698-0.201l0,0v-2.602l0,0l3.103,0.102l0,0v3.898l0,0h3.103l0,0v-1.398l0,0
			l0.698-0.102l0,0h2.5l0,0v1.803v1.6l0.102,3.199l0,0l3.398,0.102l0,0v3.101l0,0h1l0,0v0.399l0,0v1.199v0.1l0,0l0.102,1.4l0,0
			h-7.699l0,0h-6.301h-3.102h-6.301l-3.199-0.1l0,0v0.197l0,0l0.102,2.397v0.701l0,0h-2h-0.199l0,0l-0.897-0.898l0,0v0.103l0,0
			l-1.5-0.303l-0.103-0.697h-1.601l0,0v0.1l0,0l-1.302-0.4l0,0h-1.102l0,0v2l-0.699,0.603l0,0v0.603v0.299v1.701l-0.103,3.196l0,0
			h2.103l0,0v1.603l0,0l-2.103-0.103l0,0v3.304l0,0l-1.698,1.696l0,0h-1.398l0,0v1.603l0,0v0.602l0,0v0.398l0,0l1.602,0.5l0,0v0.303
			l0,0v1l0,0l-1.602,0.6l0,0l-3.198,0.4l0,0v7.398l2.397,1.397h2.5l-0.102,3.199h-2.398v5.5h-1.397l-0.302-0.8l-0.602-0.399v1.299
			l0,0h-3.302l0,0l-0.198,15.201v0.199l0,0h-6.101h-5.899l0,0l0.198-11.601l0,0l-7-0.102v-7.898H506.38l-0.103,2.898l-3.699-0.102
			v-2.898l0,0h-1.102l0,0l1.102-0.898v-3.5h-2.102l0,0h-6.301l0,0l0.102-1.801l0,0l-9.801-0.301l0,0l0.199-9.199l0.897-3.398l0,0
			l4.103-13l0,0l-7.898-0.102l0,0l-7.699,0.102l-1.898,1.101l0,0l-3.3-1.201l0,0h-1.801l0,0l-0.699-2l0.101-0.897h2.301l0.199-9.799
			h9.699l0,0h3.102v6.397l0,0h10.103l0,0v-6.301l2.102-8.3L494.081,304.382z"/>
		<rect x="547.49" y="101.19" fill="#8CCBEF" stroke="#000000" stroke-width="3" width="42.994" height="61.894"/>
		<path id="Beaumont" fill="#8CCBEF" stroke="#000000" stroke-width="3" d="M545.482,139.084l8.398,0.1l0,0v0.2l0,0l-0.104,1.3l0,0
			l1,0.1l0,0l-0.101,1.6l0,0l3.397,0.101l0,0l-0.301,9.399v0.2l-0.101,17.6v0.9l0,0v3.7l0,0v10.2l0.101,3.9l0,0l4.399,1.7l0,0
			l-0.103,9.4l8.103,0.2l-0.103,6l12.699,0.1h0.399v3.9l-4.199,2.7l-5.603,0.2l-0.198,12.4l3.698-0.1l-0.198,7.9l-3.399,2.6l-4,1h-9
			l-0.101,7.6l-3.302-0.1l-0.397,13.1h-1.7l0,0l0.103,0.1l0,0l-10.199-0.2l0.397-6.8l0.399-6.5l-9.7-0.2h-2.101l0,0h-0.302l0,0
			l-9-0.2l-0.102-2.9l0,0l0.102-0.7l0,0l-6.397-0.1l0.199-8.6v-2.1l-2.103-0.1v-7.9l0,0l2.301-0.1l3.802-2.2l1.897-2.5l0,0l3,0.2
			l0.301-5.1l4.103-0.1l0.5-7.5l17.601-0.1l0.103-13.8l-4.5-0.1v-4.5l-3.103,0.1l0,0l-0.101-2.1v-0.6l0,0v-5.6l-12.603-0.2
			l-0.102,2.6l-2.699,0.101v-5.8h-3.101l-0.103,3.1h-3.198l0.198-4.1l0,0l-1.5-2.7l0,0l-5.102-0.101v-6.2l0,0l-7.8-0.1l-4.7,0.8
			l0.301,5.7l-6.897-0.2l-0.302-7.399l0,0l-0.301-10.5l22.301,0.2l0.103-0.7l0,0l-6-5.3l0,0l-1.603-1.4l0,0l-6-5.3l0,0l1-0.4l11,0.1
			l0,0l1,0.9l0,0l-0.102,1.4l0,0l2.2,0.899l0,0l1.198-2.7l0,0l0.602-0.5l0,0l8.398,0.1l0,0l0.699,7.5h0.698l0,0l-2.397,5.2l0,0
			h3.602l0,0l0.5,2.5l-0.199,1.1l0,0l1.699-1.2l0,0l0.102-2.399l3.199-1.5l0,0v-11.2l0,0h6l0,0l1.801,4.1l0,0l-0.102,1.5l0,0
			l0.602,0.8l0,0h1l0,0L545.482,139.084z"/>
		<path id="Banning" fill="#8CCBEF" stroke="#000000" stroke-width="3" d="M596.182,75.984l12.699,0.1l0,0l-0.103,12.2l-10.102-0.2
			h-2.603v2.3l-3.301,0.1v2.2l-3.101-0.1l-0.102,13.9h1.898v6.6h-2.2l-0.101,6.7l6.198,0.2l-0.102,0.8l0.399,0.7l0,0l-0.103,13
			l2.801,0.1v5.4l7.699,5.3l0,0l2.199,0.1l-0.102,7.2l12.897,0.1v0.4l-0.198,5.2l0,0v5.4l-0.102,1.8l0,0l12.3,0.1l0.302-6.8
			l12.301,0.1l0,0v0.3v6.1v0.3l0.102,0.3l0,0l-0.102,0.4l-2.5,0.7l-10.198,2.7v3.4l0,0v1.6l0,0l-0.103,3.7l-0.102,9.7l-6.2-0.1v-2.9
			l0,0v-0.7l-6.198,0.1l0,0l-8.397-0.1l0,0h-3.603l-0.397-0.1l0,0l0.101,3.2l0,0l-0.101,3.4l-6.7-0.1l0,0h-0.5l0,0h-5l0,0h-0.3v-6.4
			l-6.5-0.1l0,0l-6-0.1l0,0v-6.4l0,0l0,0l-12.802-0.2l0,0l-0.102,6.2l0,0l-0.199,6.4l-7.699-0.1l0,0l-4.398-1.7l0,0l-0.102-3.9
			v-10.2l0,0v-3.7l0,0v-0.9l0.102-17.6v-0.2l0.301-9.4l0,0v-1.7l0,0h3.199v-1.6l3,0.1l0.102-6.4l0,0h6.302l0,0l-0.103,6.5l0,0
			l-0.101,4.2h3.101l2.5,7.1v1.3l0.399,0.2l-0.103,8.4l6.103,0.1l0,0l0.3-0.4l1-1.8l0.398-4l-0.198-2.4l0,0l-0.103-0.1l-0.199-2.7
			l0.102-3.4l0.301-1.1l1.603,0.3l0,0l0.397-2.4l0,0l4.802-2.3l1.602,1.101l0,0l0.898,0.3l0,0l0.397-1.4l0,0l-0.897-1l0,0l-1-1.5
			l0,0l-1-3.1l0,0l-0.103-2.6l0,0l-0.897-0.9l0,0l-3.699,0.1l0,0l-2.301-7.5l0.198-1.7l0,0l-0.301-0.6l0,0l-3.102,0.1l0,0l0.102,1.2
			l0,0l-3.897,0.3l0,0l-3.103,3.5l0,0h-2.699l-0.301-3.4l0,0v-0.2l0,0h-0.699v-9.1l-0.5-1.7l-0.301-4.5l-1.3-0.1v-6.4l0,0h2.397
			h0.398l0,0v0.8v2.2h6.399l0.101-3h2.7l0.601,1.4h1l0,0l-1.398,12.3l0.199,1.399l0,0l0.301,0.3l0,0l1.802-0.3l0,0v-0.899l0,0
			l1.198-4.601l0,0l0.699-0.6l0.5-3.1l-0.897-4.4l0.397-3.7l0,0l-1-0.6l0.103-5.9l3-0.1l0.101-2.2h3.199v-2.2h3.102l0.103-2.4h3.101
			L596.182,75.984z"/>
		<path id="path20058" fill="#8CCBEF" stroke="#000000" stroke-width="3" d="M524.182,101.184h0.899l14.101-0.1l0,0l-4.199,3l0,0
			l-0.9,1.2l-1.5,0.5l-5.1,0.9l0,0v-1l0,0v-1.3h-3.2L524.182,101.184z"/>
	</g>
	<g>
		<path id="Eastvale" fill="#8CCBEF" stroke="#000000" stroke-width="3" d="M171.582,103.284l3.397,7.3l0,0l-2.699,2.2l-1,1.8
			l-5,2.8h-1.5l0,0l-0.102,4.7l0,0l-8,0.1l0,0l0.102,2.8l0,0v0.7l0,0l-4.801-0.7l-3.101,1.3l-4.699,3.5l0,0l-0.398,0.3l0,0
			l-1.602,1.5l-1.301,5.3l0,0l-0.199-0.1l0,0l-1.898,0.3l0,0l0.102-5.7l0,0l-1-0.1l0,0l-6.199-0.1l0,0l0.3-9.5l0,0v-8l-0.101-8.3
			l0,0l8-2.9l4.101-1.6l7.603-2.6l5.5-2.4l2.301-0.7l0,0l3.5,2l5.101,3.2L171.582,103.284z"/>
		<path id="Near_Eastvale" fill="#8CCBEF" stroke="#000000" stroke-width="3" d="M159.383,95.184L119.792,70.39l-0.103,8.601v1.8
			l0,0l-0.101,2.5l0,0l-0.199,19.4v7.4l0,0l12.291,21.094"/>
	</g>
</g>
</svg>
