<?xml version="1.0" encoding="utf-8"?>
<!-- Generator: Adobe Illustrator 16.0.0, SVG Export Plug-In . SVG Version: 6.00 Build 0)  -->
<!DOCTYPE svg PUBLIC "-//W3C//DTD SVG 1.1//EN" "http://www.w3.org/Graphics/SVG/1.1/DTD/svg11.dtd">
<svg version="1.1"
	 id="svg2313" sodipodi:docname="outputmap.svg" inkscape:version="0.45" xmlns:rdf="http://www.w3.org/1999/02/22-rdf-syntax-ns#" xmlns:cc="http://web.resource.org/cc/" xmlns:sodipodi="http://sodipodi.sourceforge.net/DTD/sodipodi-0.dtd" xmlns:inkscape="http://www.inkscape.org/namespaces/inkscape" xmlns:dc="http://purl.org/dc/elements/1.1/" xmlns:svg="http://www.w3.org/2000/svg" sodipodi:docbase="C:\files\wikibot" sodipodi:version="0.32" sodipodi:modified="true" inkscape:output_extension="org.inkscape.output.svg.inkscape"
	 xmlns="http://www.w3.org/2000/svg" xmlns:xlink="http://www.w3.org/1999/xlink" x="0px" y="0px" width="600px" height="600px"
	 viewBox="0 0 600 600" enable-background="new 0 0 600 600" xml:space="preserve">
<g id="Burlington_County_x2C__New_Jersey">
	<path id="Outline" fill="#999999" stroke="#000000" stroke-width="3" d="M254.76,18.573l2.398-1l0.7-0.2l1,0.6h1.4l0.698-0.2
		l0.5,0.6l-1.198,2.7l2.1-0.2l2.9,1.8l4,0.5l2.1,2.6h3.3l0.102,3.5l-2,2.1v1l1.1,0.4l4.4-1l4.5,1.4l0.8,2.7l3.898,1.8l5,4l6.802,3.4
		l9.398,2.5v5.8l1.199,0.9l2.201,0.5l1.197-0.8l0,0h0.102l0.398-0.1l9.199,4.3l3.5-0.7l0.604-0.5l0.396,0.3l0,0l4.5-0.3l0,0l0,0
		l1.398,3.6l3.602,7.8l16.104,36.2l1.896,4.3l0,0l3,6.8l0,0l3.104,6.9l0.5,1l1.896,4.9l0.801,1.9l0,0l0.803,1.7l0,0l2,4.6l0.897,2
		l1.603,3.5l0,0l0.397,0.9l0,0l1.397,3.2l0.699,2l0.301,0.7l8.199,22.9l0,0l2.602,6.9l0,0l2.602,6.7l0.303,0.7l0,0l5.299,13.2
		l2.398,6l6.698,17.4l9.5,24l7.604,19v0.1l8.896,22.5l0,0h0.2l0.602,1.4l6.803,16.4l11.697,27.9l2.398,5.8l0.398,1.3l8.602,20.2l0,0
		l0.898,2.2l0,0l6,14.3l0.199,127.6v1.4v27.3l0,0l-1.301,1.7l-2.301,6.8l-1.301,4.7l0.102,2.5l-0.398,1.5l0,0l-1.898,3.8l-3.102,2.4
		l-1,0.2l-5.198-0.9l-0.802,0.1l-1.698,1.9l1.198,3.2l2,1.396l-0.198,1.5l-1.2,1.2l-1.898,1.9l0,0l-1.602,0.6l-2.602,2.9
		l-1.102,0.396l-0.898-0.1l-3.198-2.2l-2.103,0.603l-1,0.897l-0.699,1.603l3.199,5.197l0.5,2.104l-0.199,0.896l-0.801,1.2
		l-2.301,0.604l-1.102-0.5l-1.5-1.7l-2.301-2.8l-0.5-1.2v-1.3l1.801-4.5v-1.805l-2.199-2.3h-1.5l-2.301,1.8l-0.398,1.7l0.199,3.8
		l-0.699,2.305l-1.398,1l-1.102-0.2l-1.102-1.2l-0.699-4.8l-0.398-1l-1.397-1l-1.103-0.2l-2.199,1l-3.102,3.2l-1.199,0.396
		l-1.199-0.5l-1.199-1.396l-1.199-2.5l-0.398-1l-2.602-1.104l-1,0.104l-3.5,2.1l-0.898,0.104l-1.398-0.9l-1-4.7l-4.799-5.6l-0.9-0.3
		l-2.898,0.6l-1.5-0.5l-1.102-1.2l-0.697-2.3l-1.104-0.3l-0.896,0.1l-2.5,2.8l-1.4,0.805l-0.699,0.3l-2.602-0.3l-1.398-1.104
		l-1.396-2l-1.398-0.5l0,0l-2.899-0.6l-1.801-1.9l-1-3.3l0.2-1.7l1-2.8l0,0l-1-0.9l-4-2.195l-1.898-4.2l-1.5-3.3l-1.102-0.4
		l-6.102,0.8l-2.103-0.5l-1.699-1.3l-1.899-0.3l-2.299,0.7l-1.302-1.604l-1.5-2.5l-3.399-1.6l-0.5-1l-0.397-2.604l-0.5-1.5
		l-1.103-0.6l0,0l-6-2.9l-2.397-2.3l0,0l-7-5.2l-2.897-0.396l-1.103-0.7l-0.8-0.601l0,0l-3.102-0.699l0,0l-0.301,0.1l0,0l-0.302,0.7
		l0,0l-1,3.3l-1.302,1h-1.102l-1.199-1.5l0.301-2.896l0,0h-3.102l0,0h-2.398l0,0h-3.9l0,0l-1.1,0.396l-0.3-0.396l0,0h-0.102
		l-0.3-1.804l-1.602-1.196h-2.7l-2.602-5.304l-0.5-5.196l0,0l1.102-4.699l-0.602-2.301l-0.3-6.104l0.2-6.1l-0.7-4.9l-3.8-10.6
		l-1.601-3.3l-1.5-1.604l-1.899-0.8l-0.7-0.8l-1-3.604h-0.1l0,0l-32.3-27.199l-5.399-4.5l-2.5-2.196l0,0l-1.5-1.2l0,0l-11.601-9.604
		l-0.802-0.801l0,0l-2.3-0.8l0,0l-3.6-2.2l-7.4-9.699l0,0l-0.2-0.301l0,0l-4.1-5.3l0,0l-2.9-3.2l-2.198-4.1l-5.802-5.2l-4.1-4.399
		l-4.101-2.101l0,0l-3.5-0.399l-6.302-2.5l-0.8-0.396l0,0l-1.2-0.8l0,0l-1.898-1.4l-2-0.5l-7.2,2.4l-2.3,0.196l-6.602,2.804
		l-1.6,0.6l0,0l-2.5,0.4l-6.601,3l-1.699-0.104l-2.602-0.1h-4.6l-4.101-2.104l-1.399-2.801l-0.4-1.699l-2.5-1.301l0,0l-0.6-0.396
		l-0.101-0.399l0,0l-0.199-1.2l0,0l-3.102-14.3l-4.1-19.2l0,0l-0.5-2.699l0,0l-0.7-3.396l0,0l-0.399-1.8l0,0l-0.399-1.7l0,0l-2.5-12
		l0,0l-0.2-0.303l-0.1-0.301l0,0l-0.301-2l0,0l-1.5-7.2l0,0l-0.601-2.9l0,0l-0.8-3.3l-1.601-5.7l0,0l-0.199-0.8l0,0l-1.4-5.4
		l-3.7-2.6l-3.898-2.5l0,0l-1.301-2l0,0v-0.4l0,0l-0.899-1.3l-2-1l-1.4-2.8l-0.398-3.9l0,0l-2.2-6.5l-1.101-1l0,0l-0.199-0.3l0,0
		l-0.7-1.5l-2-2.4l-1.5-1.3l-1.2-0.1l-2.5-0.9l0,0l-4.5-0.899l0,0l-0.7-0.601l-1.698-1.1l-0.802-1.4l-1.698-0.7l-1-2.7v-0.2l0,0
		l0.398-0.5l0,0l2.602-0.3l0,0l-0.4-2.2l1.6-0.4l1.7-1.2l0.3-0.8l0.7-1.7l-1.1-1.3l-3.2-0.5l-2,0.5l-1.6-0.1l-1.4-1l-2,0.4l0,0
		l-2.3,0.7l-0.8-0.5l-1.2,0.3l-1.3-1.2l0,0l-0.4-0.5l-4.9-2.4l0,0l-0.5-0.5l0,0l-4.1-0.8l0.2-5.2l0,0l1.3-2l0,0v-2l-2.8-2.5
		l0.398-1.6l0,0l-0.398-2l0,0l-1.2-3.601l-0.4-0.399l0.2-1.101h1.2l1-0.7l-0.1-1.3l0,0l-0.602-1.6l0,0v-0.6l0,0l0.7,0.1l1-0.9
		l1.3-2.7l1.9-1.7l-2.9-2.3l-1-0.6l-0.398-0.6l1-0.3l0.1-1l-0.5-0.5l-1.1,1l-0.602-0.7l0.2-2.1l-0.601-1.3l-0.301-0.6l-0.1,0.2
		l-3.7-1l-0.7-1.5l-1-0.9l-0.398,1.4l0,0l-1.5-0.9l-0.7-0.1l-0.601,1.5l-0.399-0.4l0.6-1.5l-0.398-0.7l0,0l-1.5-1.3l-1.2-0.3
		l-1.4,1.3l-2.6,1.1l-1.4-1.1l-1.8,0.6l-0.6,2.1l-2.9-0.1l-5.2,0.7l0,0l1.102-1.3l5.2-10.6l2.8-3.9l3.1-2.1l2-1.5l6.2-2.2l6.6-2.4
		l3-1l0.4-0.3l0.5-0.2l0.8-0.5l1.2-0.6l2.1-1.6l12-12.5l4-4.7l6.102-5.3l0,0l8.3-5.3l11.7-7.4l8.1-4.5l2.9-1.3l1.7-0.8l3-0.3
		l5.898,1.1l1.9-0.3l3.898-1.4l3-1l7.102-2.5l5.1-2.6l7.2-2l3.6-1l1.9-1.3l0.8-1.1l1-3.4l1.2-2.2l1.399-1.6l2.101-1.6l5.1-2.4
		l3.602-2.9l1.898-2.6l1.602-6.9l2.898-7.5l1.602-3.2l2.398-2.5l2.2-0.7l1.8-0.1l2.302,0.7l1.898,0.8l6.2,2.8l6.3,1.7l1.5,0.4
		l1.602,0.1h0.8l2-0.4l4.398-3.9l4-3.5l4.2-2.9l0.102-0.1l2.698-1.3l0,0l1.102-0.3l1.2-0.3l0.5,0.1l5.698,0.4l2-0.2l1.5-0.7l9.9-9.1
		l0.899-1.3l0,0l3.601-0.7l7-10.7l2.5-6.4l0.2-1l-1.602-0.1l-1.198,1.9l-1.102-0.1l-0.5-1.5l1.3-1.7l0.302-1.4l-1.899-1l-1.2-1.9
		l0.102-0.7l2.198-2.2l-0.3-0.7l-0.7-0.4v-0.8l2-1L254.76,18.573z"/>
	<path id="Washington_Twp" fill="#F06BA8" stroke="#000000" d="M438.061,381.773l-1.601,3.5l-0.602,3.3l-1.5,2.896l-3.2,1.805
		l-0.5,1l-0.3,3.695l-0.5,0.4l0,0l-5.898,4.5l-1.2,1.7l-0.199,1.5l-3.398,4.8l-1.102,0.396l-1.801-0.101l-3.199,2.2l-2.5-1.104
		l-3.801-0.101l-2.199,1.601l-0.5-0.697l-3.398,0.197l-1.102,0.399l-1,1.101l-1.198,2.699l-0.898,0.4l-6.897,8.1l1.299,4.5
		l-0.198,1.4l-0.302,1l-1.602,2.199l-0.602,1.801l0.199,0.6l1.699,1.104v3.396l-2.199,7.104l-0.896,1.601l-1.898,4.7l-1.602,1.2
		l-1.303,1.6l-0.898,3.603l0.303,1.102l-0.201,2l-1.198,0.6l-2,0.9l-1.399,2.2l-1.299,4.6l0.1,1.5l-0.1,0.3l-2.302,4.104
		l-0.899,2.896l1.301,4.4l1.104,0.8l1.6,0.104l2.201-0.604l1,0.104l0.299,1.8l-0.197,1.3l-0.102,0.3l-0.301,0.4l0.1,1.2l0.701,2.1
		l4.397,5.8l3.103,0.8l2.602,1.604l0.602,1.1v0.9l-2.102,2.896l0.3,2.104l2.397,2.5l2.701,4.7l1,5.896l2.602,5.104l0.102,3.1
		l0.698,1.9l1.2,1.396l2.897,1.3l0.5,0.805l0.103,0.695l-1.898,3.604l-0.7,5.396l1.102,5.305l3.603,9.5l2.699,2.195l0.301,1.305
		l-0.603,1.8l-2.397,2.5l-0.5,1l0,0l-0.4-1l-2.6-1.104l-1,0.104l-3.5,2.1l-0.9,0.104l-1.396-0.9l0,0l-1-4.7l-4.801-5.6l-0.899-0.3
		l-2.9,0.6l-1.5-0.5l-1.1-1.2l-0.699-2.3l-1.101-0.3l-0.899,0.1l-2.5,2.8l-1.398,0.805l-0.698,0.3l-2.604-0.3l-1.396-1.104l-1.399-2
		l-1.396-0.5l0,0l-2.9-0.6l-1.8-1.9l-1-3.3l0.2-1.7l1-2.8l0,0l-1-0.9l-4-2.195l-1.9-4.2l-1.5-3.3l-1.1-0.4l-6.104,0.8l-2.101-0.5
		l-1.7-1.3l-1.897-0.3l-2.302,0.7l-1.301-1.604l0,0l-1.5-2.5l-3.397-1.6l-0.5-1l-0.398-2.604l-0.5-1.5l-1.102-0.6l0,0l-6-2.9
		l-2.398-2.3l0,0l-7-5.2l-2.899-0.396l-1.101-0.7l-0.8-0.602l0,0l-3.104-0.698l0,0l-0.301,0.1l0,0l-0.3,0.7l0,0l-1,3.3l-1.302,1
		h-1.102l-1.2-1.5l0.302-2.896l0,0h-3.101l0,0h-2.399l0,0h-3.898l0,0l-1.102,0.396l-0.3-0.396l0,0h-0.1l-0.3-1.804l-1.602-1.196
		h-2.7l-2.601-5.304l-0.5-5.196l0,0l1.101-4.699l-0.601-2.301l-0.3-6.104l0.2-6.1l-0.7-4.9l-3.8-10.6l-1.602-3.302l-1.5-1.603
		l-1.898-0.8l-0.7-0.8l-1-3.604h-0.102l0,0l-32.3-27.199l0,0l24.7-8l40.201-13.101l0,0l43.898-14.899l0.5-0.196l4.602-1.5l5.301,3.6
		l0,0l0.199,0.104l1.199-0.4l1.801-0.6l27,0.1l46.898-6.8v0.196L438.061,381.773L438.061,381.773z"/>
	<path id="Woodland_Twp" fill="#F06BA8" stroke="#000000" d="M376.66,247.673l1.199-0.4l1.604,0.2l0.5,0.7l0.1,1.2l1.602,1.1
		l2.7,0.1l4.603-2.2l9.697-2.4h9.802l1.5,0.8l0,0l7.603,19v0.1l8.897,22.5l0,0h0.198l0.602,1.4l6.803,16.4l0,0l11.697,27.9l0,0
		l2.398,5.8l0.398,1.3l8.602,20.2l0,0l0.898,2.2l0,0l6,14.3l0,0l-26,3.9l0,0v-0.2l-46.898,6.8l-27-0.1l-1.8,0.6l-1.2,0.4
		l-0.197-0.104l0,0l-1.398-6.601l-34.801-48.199l-16.801-22.104l-10.4-16.101l-5.5-7.7l-5-5.1l0,0l8.5-3.601l7.8-3.399l8.103-2.8
		l11.397-4.4l0,0l3.699-1.5l0,0l18-7.4l2.101-0.8l8.103-3.3l0,0l21.7-8.7L376.66,247.673z"/>
	<path id="Bass_River_Twp" fill="#F06BA8" stroke="#000000" d="M464.061,377.873l0.199,127.6v1.4v27.3l0,0l-1.3,1.7l-2.302,6.8
		l-1.3,4.7l0.102,2.5l-0.399,1.5l0,0l-1.897,3.8l-3.103,2.4l-1,0.2l-5.198-0.9l-0.802,0.1l-1.698,1.9l1.198,3.2l2,1.396l-0.198,1.5
		l-1.199,1.2l-1.899,1.9l0,0l-1.601,0.6l-2.603,2.9l-1.101,0.396l-0.899-0.1l-3.198-2.2l-2.103,0.603l-1,0.897l-0.699,1.603
		l3.199,5.197l0.5,2.104l-0.199,0.896l-0.801,1.2l-2.3,0.604l-1.102-0.5l-1.5-1.7l0,0l-2.3-2.8l-0.5-1.2v-1.3l1.8-4.5v-1.805
		l-2.2-2.3h-1.5l-2.3,1.8l-0.398,1.7l0.198,3.8l-0.698,2.305l-1.399,1l-1.101-0.2l-1.102-1.2l-0.7-4.8l-0.398-1l-1.397-1l-1.103-0.2
		l-2.199,1l-3.101,3.2l-1.2,0.396l-1.199-0.5l-1.198-1.396l-1.2-2.5l0,0l0.5-1l2.398-2.5l0.602-1.8l-0.3-1.305l-2.7-2.195
		l-3.602-9.5l-1.101-5.305l0.698-5.396l1.898-3.604l-0.103-0.695l-0.5-0.805l-2.897-1.3l-1.199-1.396l-0.699-1.9l-0.102-3.1
		l-2.601-5.104l-1-5.896l-2.7-4.7l-2.398-2.5l-0.299-2.104l2.1-2.896v-0.9l-0.6-1.1l-2.603-1.604l-3.103-0.8l-4.397-5.8l-0.7-2.1
		l-0.102-1.2l0.302-0.4l0.103-0.3l0.197-1.3l-0.3-1.8l-1-0.104l-2.2,0.604l-1.602-0.104l-1.102-0.8l-1.301-4.4l0.898-2.896
		l2.301-4.104l0.102-0.3l-0.102-1.5l1.3-4.6l1.399-2.2l2-0.9l1.199-0.6l0.2-2l-0.303-1.102l0.899-3.603l1.301-1.601l1.603-1.199
		l1.897-4.7l0.898-1.601l2.199-7.104v-3.396l-1.699-1.104l-0.199-0.6l0.601-1.801l1.603-2.199l0.301-1l0.199-1.4l-1.3-4.5l6.896-8.1
		l0.899-0.4l1.199-2.699l1-1.101l1.102-0.399l3.398-0.197l0.5,0.697l2.197-1.601l3.803,0.101l2.5,1.104l3.197-2.2l1.803,0.101
		l1.102-0.396l3.398-4.801l0.197-1.5l1.2-1.699l5.898-4.5l0,0l0.5-0.4l0.302-3.695l0.5-1l3.198-1.805l1.5-2.896l0.602-3.299
		l1.603-3.5l0,0L464.061,377.873z"/>
	<path id="Pemberton_Twp" fill="#F06BA8" stroke="#000000" d="M291.76,173.273l0.198,0.1l0,0l6.4,4.7l7.601,5.6l0,0l2.199,1.6l0,0
		l4.2,3l9.5-0.4l0.7,0.1h5.697l7.803-0.3l7.6-0.2l1.303-0.1h1.897l0,0l4.8-0.2l5.2-0.1l0,0l28.7-0.9l0,0h0.197h0.303l0,0l5.3,13.2
		l2.397,6l0,0l6.698,17.4l9.5,24l0,0l-1.5-0.8h-9.8l-9.697,2.4l-4.604,2.2l-2.699-0.1l-1.602-1.1l-0.102-1.2l-0.5-0.7l-1.602-0.2
		l-1.199,0.4l0,0l-0.199-0.2l-21.699,8.7l0,0l-8.102,3.3l-2.1,0.8l-18,7.4l0,0l-0.304-0.3l0,0l-0.397-0.3l-0.103-0.1l-15.196-10l0,0
		l-7.201-4.9l-3.399-0.3l-2.398-0.2l-8.2-7.1l-9.3-2.2l-1.4-0.7l-0.1-0.5l-1.9-1.3l-8-2.7l-7.2-3.8l0.102-4.6h-2.801l0.301-2.5
		l0.8-7.2l-3.8-2.2l-3.7-3.3l-0.3-3.6l-4.2,1.7l-0.3-5.5l0.198-2l-0.398-3.8l-1.602-1.1l0,0l-3.698-2.7l-4.302-1.6l-2.6,1.5
		l-0.6-0.1l-0.5-1.9l0,0l0.8-5.6l0.7-7.7l0.3-10.3l0,0l20,14.5l10.3-4.3l4.1-1.7l2.302-1.1l3.5-2.4l2-1.1l2.6-1.9l3.8-2.5l0.2-0.1
		l1.5-1l0,0l4.5,3.3v0.102L291.76,173.273z"/>
	<path id="Tabernacle_Twp" fill="#F06BA8" stroke="#000000" d="M213.061,299.373l10.1-2l12.8-2.7l1.2-0.2l14.3-3.1l26.2-5.9l9.4-2.1
		l0,0l5,5.1l5.5,7.7l10.4,16.103l16.799,22.102l34.801,48.2l1.4,6.6l0,0l-5.303-3.6l-4.6,1.5l-0.5,0.198l-43.9,14.897l0,0l-1.6-3.5
		l-7.4-12.8l-6.398-10.1l-4-7l-2.5-3.9l-8.5-10.9l-2.302-2.396l-7.6-2.302l0,0l-31.8-10l-2.3-0.603l0,0l-6.4-13.2l-1.1-2.1l-0.4-0.8
		l-3.1-6.4l0,0l-4.2-8.6L213.061,299.373z"/>
	<path id="Southampton_Twp" fill="#F06BA8" stroke="#000000" d="M234.561,198.773v-0.1l-0.5-4.3l0,0l0.5,1.9l0.6,0.1l2.602-1.5
		l4.3,1.6l3.7,2.7l0,0l1.602,1.1l0.398,3.8l-0.2,2l0.3,5.5l4.2-1.7l0.3,3.6l3.7,3.3l3.8,2.2l-0.8,7.2l-0.3,2.5h2.8l-0.102,4.6
		l7.2,3.8l8,2.7l1.9,1.3l0.1,0.5l1.4,0.7l9.3,2.2l8.2,7.1l2.398,0.2l3.4,0.3l7.199,4.9l0,0l15.198,10l0.103,0.1l0.397,0.3l0,0
		l0.302,0.3l0,0l-3.699,1.5l0,0l-11.397,4.4l-8.103,2.8l-7.8,3.4l-8.5,3.6l0,0l-9.4,2.1l-26.2,5.9l-14.3,3.1l-1.2,0.2l-12.8,2.7
		l-10.1,2l0,0l-10-17.9l0,0l-1.602-3.8l-2.3-3l-0.398-1.1l-0.102-2.1l0.7-3.4l2.1-3.4l-0.5-0.3l-2.3-3.5l-0.898-2.8l-0.398-3
		l3.2-9.4l2-1.9l0.5-1.2l-1.8-4.1l-1.2-0.6l0,0l3.7-3.6l0,0l-0.5-1.1l2.698-1.7l-2.1-3.3l0.5-1l-0.603-0.5l-1.101,0.7l0,0v-0.1
		l1.601-4.6l10.399-4.4l0,0l7.3-3.1l1.301-4l0.5-10.9l1-2.6l0,0h5.199L234.561,198.773z"/>
	<path id="Shamong_Twp" fill="#F06BA8" stroke="#000000" d="M221.26,316.173l3.1,6.4l0.4,0.8l1.1,2.1l6.4,13.2l0,0l2.3,0.603
		l31.8,10l0,0l7.6,2.302l2.302,2.396l8.5,10.9l2.5,3.9l4,7l6.398,10.1l7.4,12.8l1.6,3.5l0,0l-40.2,13.104l-24.7,8l0,0l-5.398-4.5
		l-2.5-2.2l0,0l-1.5-1.2l0,0l-11.602-9.602l-0.8-0.803l0,0l-2.3-0.8l0,0l-3.6-2.2l-7.4-9.697l0,0l-0.2-0.303l0,0l-4.1-5.3l0,0
		l-2.9-3.2l-2.2-4.1l-5.8-5.2l-4.1-4.397l-4.102-2.103l0,0l6.302-24l0.198-1l2.7-10.2v-0.199l0,0l6.9-3.801l3.1-1.8l0.4-0.2
		l0.3-0.199L221.26,316.173z"/>
	<path id="Medford_Twp" fill="#F06BA8" stroke="#000000" d="M150.061,239.273l26.5-2.6l8.5-0.8l3.6-0.3h0.2l7.3-0.6h0.8l3.102,2.9
		l0,0l1.2,0.6l1.8,4.1l-0.5,1.2l-2,1.9l-3.2,9.4l0.398,3l0.898,2.8l2.3,3.5l0.5,0.3l-2.1,3.4l-0.7,3.398l0.102,2.102l0.398,1.1
		l2.3,3l1.602,3.8l0,0l10,17.9l0,0l4,8.2l4.2,8.6l0,0l-18.102,10.103l-0.3,0.197l-0.4,0.2l-3.1,1.8l-6.9,3.803l0,0v0.197
		l-2.698,10.2l-0.2,1l-6.3,24l0,0l-3.5-0.397l-6.302-2.5l-0.8-0.398l0,0l-1.2-0.8l0,0l-1.898-1.4l-2-0.5l-7.2,2.4l-2.3,0.198
		l-6.602,2.802l-1.6,0.6l0,0l0.1-27.6v-0.4l0.102-6.396v-16.2v-4.103v-7.302l-0.102-20.7v-8.3v-7.6v-2.3v-17.6l0,0L150.061,239.273z
		"/>
	<path id="Springfield_Twp" fill="#F06BA8" stroke="#000000" d="M183.46,113.373l0.4-1.7l1.5-0.4l1.1,3.2l0.2,1.5l2.602-0.8
		l0.698-0.6l0,0l1.802-0.5l1,1.1l0.1,0.8l-1.3,3l1.398,4.4l0.7,0.7h0.8l2.4-3.2l5.1,1.5l1.102-1.8l1.8-0.5l0.8,0.6l0.9,1.4l1.3,0.5
		l1.4-0.4h0.198l0.602-1.2l0.3-1.1l0,0l1-1.9l1.3-0.4l1.2,0.3l0.8,1.9l2.102,2.3l3.698-0.4l0,0l0.4-0.1l1.7,3.4l-0.3,1.8l-0.9,2.2
		l1.9,2.1l5.5,1.4l1.198-1l0,0l1.4,0.1h7.3l0.4-0.6l1.398-2l1.802-0.5l0,0l11,1.1l3.398-0.3l0,0l21.8-4.8v-0.1l2.102-3.5l0.7-0.5
		l5.5-1.1l3.698-0.1l0.602,0.8l0.7,2.4l2,0.7h1.198l0,0l4.4,0.3l1.5,0.2l10.5,5.5l0,0l-1,4.2l-0.8,4.6l-4.2,5.9l0,0l-3.7,5.7
		l-14.7,17.4l-0.8,2.3l0,0l-1.5,1l-0.2,0.1l-3.8,2.5l-2.6,1.9l-2,1.1l-3.5,2.4l-2.3,1.1l-4.102,1.7l-10.3,4.3l-20-14.5l0,0l-6-4.5
		l-19.101-13.8l0,0l-17.301-12.6l0,0l-7.699-5.8l-1.699-7.2l-0.801-8.4v-2.2l0,0L183.46,113.373z"/>
	<path id="Evesham_Twp" fill="#F06BA8" stroke="#000000" d="M138.76,250.173l11.198-1l0,0v17.6v2.3v7.6v8.3l0.102,20.7v7.3v4.104
		v16.198l-0.102,6.397v0.4l-0.1,27.6l0,0l-2.5,0.4l-6.601,3l-1.699-0.104l-2.602-0.1h-4.6l-4.102-2.104l-1.398-2.801l-0.4-1.699
		l-2.5-1.301l0,0l-0.6-0.396l-0.102-0.399l0,0l-0.198-1.2l0,0l-3.102-14.3l0,0l-4.1-19.2l0,0l-0.5-2.695l0,0l-0.7-3.4l0,0
		l-0.399-1.8l0,0l-0.399-1.7l0,0l-2.5-12l0,0l-0.2-0.3l-0.1-0.3l0,0l-0.301-2l0,0l-1.5-7.2l0,0l-0.601-2.9l0,0l-0.8-3.3l0,0
		l-1.601-5.7l0,0l-0.199-0.8l0,0l-1.4-5.4l-3.7-2.6l-3.898-2.5l0,0l-1.301-2l0,0v-0.4l0,0l-0.899-1.3l-2-1l-1.4-2.8l-0.398-3.9l0,0
		l-2.2-6.5l-1.101-1l0,0l9.199-0.6l12.102-0.9l3.8-0.3l1.899-0.2l12.699-0.9l0,0L138.76,250.173z"/>
	<path id="Chesterfield_Twp" fill="#F06BA8" stroke="#000000" d="M272.76,31.373v1l1.1,0.4l4.4-1l4.5,1.4l0.8,2.7l3.898,1.8l5,4
		l6.802,3.4l9.398,2.5v5.8l1.199,0.9l2.201,0.5l1.197-0.8l0,0h0.102l0.398-0.1l9.199,4.3l3.5-0.7l0.604-0.5l0.396,0.3l0,0
		l-2.896,4.9l-5.5,10.9l-2.201,3.1l-0.897,17.3l-2.302,28.6l-2.301,7l0,0l-10.5-5.5l-1.5-0.2l-4.4-0.3l0,0l-1.7-4.7l4.302-5.7
		l0.8-4.4l-0.102-0.1l-3.5-2.7l-1-0.2l-1.8-0.1l-6.6,1.4l-2-0.3l-1.9-2.8l0.8-1.3v-1.6l-4.1-4.2l-4.7-5.8l-0.3-1l-2.7-2.3
		l-2.398-1.2l-0.4-0.5l0.2-1.6l-1.4-1.9l-2.398-1.9l-3.602-1.4l-0.898-1.6l-0.602-1.8l-0.3-0.6l0,0l2.7-3.9l2.8-1.8l6.5-0.8l0,0
		l-0.2-10.6l-0.7-1.2l0.102-2.8l0,0l0.398-2.3l-0.698-7.3l0.3-9.8l1.3-3.7L272.76,31.373z"/>
	<path id="Mt._Laurel_Twp" fill="#F06BA8" stroke="#000000" d="M143.76,180.773l4.898,1.5l3.602-0.5l0,0l0.5,1.4l0.5,0.4l2.5-0.2
		l0.6,1.9l3,0.5l-0.1,1.2l-2,1.5l0.198,1.3l0,0v0.3v0.3l-0.3,3.2l-3.3,2.7l0,0l-0.101,0.2l-1.899,4l2.2,1.8l-0.301,0.8l0,0
		l-0.601,3.1l-2,3.2l-1.399,2.4l0.199,0.5v0.4v2.1l0.102,14l0,0l-0.102,8.6l0.102,1.9l0,0l-0.102,9.9l0,0l-11.199,1l0,0l-11.801,0.9
		l0,0l-12.699,0.898l-1.899,0.2l-3.8,0.3l-12.102,0.9l-9.199,0.6l0,0l-0.199-0.3l0,0l-0.7-1.5l-2-2.4l-1.5-1.3l-1.2-0.1l-2.5-0.9
		l0,0l-4.5-0.898l0,0l-0.7-0.602l-1.698-1.1l-0.802-1.4l-1.698-0.7l0,0l3.698-3.1l4.602-4.1l1.8-1.3l1.3-1l0,0l6.8-5.8l4-3.3
		l4.102-3.5l9.3-7.6l3.4-2.9l3.898-3.2l2.4-2l4.6-3.898l0.3-0.2l0,0l0.102-0.2l6.1-5l0,0l7.9-6.1l-0.5-2.102l0,0l-0.2-1.398l2.2-3.5
		l1.5-4.102l0.3-0.7l0,0l3.3,2.3h2.102L143.76,180.773z"/>
	<path id="New_Hanover_Twp" fill="#F06BA8" stroke="#000000" d="M364.26,130.373l0.801,1.7l0,0l2,4.6l0.9,2l1.6,3.5l0,0l0.4,0.9l0,0
		l1.396,3.2l0.701,2l0.299,0.7l8.201,22.9l0,0l2.6,6.9l0,0l2.602,6.7l0.301,0.7l0,0h-0.301h-0.199l0,0l-28.698,0.9l0,0l-5.2,0.1
		l-4.8,0.2l0,0h-1.897l-1.303,0.1l-7.602,0.2l-7.801,0.3h-5.699l-0.698-0.1l-9.5,0.4l-4.2-3l0,0l3.102-1.2l0,0l-2.697-2.3
		l-0.803-0.1l-0.697,0.2l-1.104,1.8l0,0l-7.601-5.6l-6.4-4.7l0,0l-0.198-0.1l0,0l2.898-7.5l4.3-5.8l4-3.5l6.502-5.898l0,0l1.601-1.4
		l0.899,0.2l1.799-1.1l0.603-0.8l0,0l2.897,2.2l0,0l5.603,4.3l-0.397-7.8l-0.103-2.2l0,0l3.802,0.4l0,0l0.5-0.1l2.397,0.4l1.698-0.4
		l1-0.5l1.701-2l2.101-0.3l0,0l0.801-1.6l4-4.9l3.199-0.3l1.603,0.9l3.6-0.601l2-0.2l3.102-1.5l4.2,0.3l2.698-0.7l2.701-4.4l0,0
		L364.26,130.373z"/>
	<path id="Mansfield_Twp" fill="#F06BA8" stroke="#000000" d="M212.061,79.673l-0.102-0.4v-0.6v-0.2l3.802-4.9l0,0l0,0l0.698-1.3
		l0.102-0.4l0,0l5.2-0.2l3-0.6l1.5-1.1l1.3-1.7l3-1.6l3.1,3.8l2.2,1.1l0.4,0.3l3.698,4.3l1.4,0.2l1.4,2.6l6.6-1.2l4.2-1.7l0.3-0.1
		l0,0l4.4-0.7l0.398-0.5l0,0l0.3,0.6l0.602,1.8l0.898,1.6l3.602,1.4l2.398,1.9l1.4,1.9l-0.2,1.6l0.4,0.5l2.398,1.2l2.7,2.3l0.3,1
		l4.7,5.8l4.101,4.2v1.6l-0.801,1.3l1.9,2.8l2,0.3l6.6-1.4l1.801,0.1l1,0.2l3.5,2.7l0.101,0.1l-0.8,4.4l-4.3,5.7l1.698,4.7l0,0
		h-1.198l-2-0.7l-0.7-2.4l-0.602-0.8l-3.699,0.1l-5.5,1.1l-0.699,0.5l-2.102,3.5v0.1l-21.8,4.8l0,0l-3.399,0.3l-11-1.1l0,0
		l-1.801,0.5l-1.398,2l-0.4,0.6h-7.3l-1.4-0.1l0,0l-1.199,1l-5.5-1.4l-1.899-2.1l0.899-2.2l0.301-1.8l-1.7-3.4l-0.4,0.1l0,0
		l-3.698,0.4l-2.102-2.3l-0.8-1.9l-1.2-0.3l-1.3,0.4l-1,1.9l0,0l5.8-16.7l4.5-12.6l-1.6-0.4l-2.7-3.1l-0.2-3.5l0.3-2.1l-0.3-1.1
		l-1.398-0.6l-1.102,0.4L212.061,79.673z"/>
	<path id="Burlington_Twp" fill="#F06BA8" stroke="#000000" d="M172.96,72.673l1.102,1l0.898,0.7l1.4,1l0.7-0.8l2.398,2.3l0.602,1.8
		l4.6,16.8l3.7,12.8l1.6,6.3l0,0l-0.698,0.6l-2.602,0.8l-0.2-1.5l-1.1-3.2l-1.5,0.4l-0.4,1.7l0,0l-0.198,2.9l0,0v2.2l0.8,8.4
		l1.7,7.2l7.698,5.8l0,0l-0.898,2.9l-3.7,3.1l-4.3,0.1l-1.7,0.1l0,0h-5.3l-0.5,3.4l-0.2,0.5l-1.4,6.8l0,0l-2.5-0.7l-2.698-2
		l-7.4-2.8l-6.4-0.4l-1.698-0.3l0,0l1.898-0.6l0,0v-0.4l0.7-2.1l0,0l-1.6-0.6l-0.5-0.8l-2.302-0.6h-3.3l-1.398-2.9l-1.602-3
		l-6.398,0.8l0,0l-0.102,1.3l0,0l-0.5-2.3l0,0l-1.1-3.5l0,0l-1-3.3l-2.102-0.4v-0.7l-0.698-3.4l0,0l-1.802,1.4l0,0l-1.3-0.4
		l-2.7-8.6l0,0l-0.198-0.5l0,0l-1.7-4.3l-0.602-1.4l0,0l7.102-2.5l5.1-2.6l0,0l3.9,5.9l3,4.1l2.398,3.9l0,0l2.102,0.3l3.2,0.2l0,0
		h0.6l3.7-0.3l0,0l14.1-7.3l0,0l-0.398-0.5l0,0l0.1-0.3l-0.1-0.4l-1-2.6l-1.302-3.3l-0.5-1.2l-0.898-2.5l-0.4-0.9l-1.5-4.1l2.4-3.8
		l0.398-1.7l-0.198-2.2l-1.7-2.8l0,0l1.898-2.6l1.602-6.9L172.96,72.673z"/>
	<path id="Moorestown_Twp" fill="#F06BA8" stroke="#000000" d="M137.36,177.773l-0.3,0.7l-1.5,4.1l-2.2,3.5l0.2,1.4l0,0l0.5,2.1
		l-7.9,6.1l0,0l-6.1,5l-0.102,0.2l0,0l-0.3,0.2l-4.6,3.9l-2.4,2l-3.898,3.2l-3.4,2.9l-9.3,7.6l-4.102,3.5l-4,3.3l-6.8,5.8l0,0
		l-1-5.7l-2.3-4.4l-1.3-2.2l-0.801-1.2l0,0l-4.199-0.1l-3.4-3.3l-0.8-2.6l-4.7-3.7l0.2-1.2l-0.4-1l-2.1-0.5l-2.2-1.7l-2.6-3.6l0,0
		l5.1-2.6l4.8-2.5l4.2-2.1l6.6-3.7l4.9-2.4l6-3.1l0,0l4-2.3l3.2-1.5l4.3-2.5l9.7-5l9.7-4.8l3.898-2.6l0.3-0.8l0,0l4.302,1.6l2.1,2.3
		l4.2,1.4l0.6,0.4l0.602,4.3L137.36,177.773z"/>
	<path id="North_Hanover_Twp" fill="#F06BA8" stroke="#000000" d="M327.463,57.273l4.5-0.3l0,0l0,0l1.396,3.6l3.604,7.8l16.1,36.2
		l1.9,4.3l0,0l3,6.8l0,0l3.1,6.9l0.5,1l1.9,4.9l0,0l-2.701,4.4l-2.699,0.7l-4.198-0.3l-3.103,1.5l-2,0.2l-3.602,0.6l-1.6-0.9
		l-3.201,0.3l-4,4.9l-0.799,1.6l0,0l-2.102,0.3l-1.701,2l-1,0.5l-1.697,0.4l-2.4-0.4l-0.5,0.1l0,0l-3.801-0.4l0,0l-2.396-0.5l0,0
		l-2.604,0.2l-9.602,0.6l-2.398-0.5l0,0l4.201-5.9l0.799-4.6l1-4.2l0,0l2.301-7l2.303-28.6l0.896-17.3l2.201-3.1l5.5-10.9
		L327.463,57.273z"/>
	<path id="Bordentown_Twp" fill="#F06BA8" stroke="#000000" d="M254.76,18.573l2.398-1l0.7-0.2l1,0.6h1.4l0.698-0.2l0.5,0.6
		l-1.198,2.7l2.1-0.2l2.9,1.8l4,0.5l2.1,2.6h3.3l0.102,3.5l-2,2.1l0,0l-1.602-0.8l-1.3,3.7l-0.3,9.8l0.7,7.3l-0.398,2.3l0,0
		l-0.102,2.8l0.698,1.2l0.2,10.6l0,0l-6.5,0.8l-2.8,1.8l-2.7,3.9l0,0l-0.398,0.5l-4.398,0.7l0,0l-0.3,0.1l-4.2,1.7l-6.602,1.2
		l-1.398-2.6l-1.4-0.2l-3.698-4.3l-0.4-0.3l-2.2-1.1l-3.1-3.8l-3,1.6l-1.3,1.7l-1.5,1.1l-3,0.6l-5.2,0.2l0,0l-3.2-2.4l-5.4-1.1l0,0
		l4-3.5l4.2-2.9l0.102-0.1l2.698-1.3l0,0l1.102-0.3l1.2-0.3l0.5,0.1l5.698,0.4l2-0.2l1.5-0.7l9.9-9.1l0.9-1.3l0,0l3.6-0.7l0,0
		l1.3,1.4l0.3,3.7l3.2,3.2l2.9-1.8l4.5-4.2l0,0l0.1-0.3v-3.4v-0.7v-0.2l-0.2-6.8l0,0l-4.898-1.5l-0.2-0.1l0,0l2.5-6.4l0.2-1
		l-1.602-0.1l-1.198,1.9l-1.102-0.1l-0.5-1.5l1.3-1.7l0.302-1.4l-1.9-1l-1.2-1.9l0.102-0.7l2.198-2.2l-0.3-0.7l-0.7-0.4v-0.8l2-1
		L254.76,18.573z"/>
	<path id="Lumberton_Twp" fill="#F06BA8" stroke="#000000" d="M202.561,194.173l0.2,0.1l0,0l5.898,1.5l4.3,1l0,0l3-0.9l8.802,1.8
		l0,0l-1,2.6l-0.5,10.9l-1.302,4l-7.3,3.1l0,0l-10.398,4.4l-1.602,4.6v0.1l0,0l1.102-0.7l0.6,0.5l-0.5,1l2.1,3.3l-2.698,1.7l0.5,1.1
		l0,0l-3.7,3.6l0,0l-3.102-2.9h-0.8l-7.3,0.6h-0.2l-3.6,0.3l-8.5,0.8l-26.5,2.6l0,0l-0.102-1.9l0.102-8.6l0,0l3.8-1.3l5.1-2.1
		l2.2-2.6l2.102-7.5l4.698-2.7l11.4-9.3l6.7-6.1l3.1-7.4l2-0.8l0,0l0.3,0.3l1.2,1.3l0.2,0.1l1.3,1.4l1.602,0.3l0,0l1.398,0.5
		L202.561,194.173z"/>
	<path id="Westampton_Twp" fill="#F06BA8" stroke="#000000" d="M182.86,146.073l1.7-0.1l4.3-0.1l3.7-3.1l0.898-2.9l0,0l17.302,12.6
		l0,0l-4.5,16.7l-0.802,3l0,0l-1.8-0.3l-2.7-0.9l-6.698-2.4l0,0l-1.102,3l0,0l-0.5,1.3l-2,5l0,0l-0.5,1.4l-0.6,1.4l0,0l-0.301,0.6
		l0,0l-1.5,0.1l0,0l-1.301,0.7l-1.8-1.3l-1.6,0.4l-1,0.3l-1.7-1.2l-2.602,1.1l-0.898,2.1h-1.7l-3.2-0.9l-0.3,0.4l0,0l-0.8-0.2l-1-2
		l-2.5,0.3l-0.4-1.5l0,0l-2.1,1.4l-1.2,0.2l-1.6-1.1l-2.9-0.5l-0.899,1.6h-5.399l-0.601,0.6l0,0l-3.601,0.5l-4.899-1.5l0,0
		l0.199-0.5l0,0l1-3.1l0.9-2.8l0,0l0.898-2.9l-1.698-0.6l-0.4-3l0,0l1-0.2l0.4-0.8l3.3,0.8l1.398-4.5l-1.198-0.5l0.898-2.6
		l1.102-3.7l2.1-6.1l0,0l1.101,0.3l0,0l1.699,0.3l6.4,0.4l7.398,2.8l2.7,2l2.5,0.7l0,0l1.4-6.8l0.2-0.5l0.5-3.4H182.86z"/>
	<path id="Cinnaminison_Twp" fill="#F06BA8" stroke="#000000" d="M79.061,170.873l0.398,0.7l0.802,1.5l0,0l0.5,0.9l1.8,3.6l0,0
		l2,3.5l2.398,4.2l0.2,0.4l0,0l-6,3.1l-4.898,2.4l-6.602,3.7l-4.2,2.1l-4.8,2.5l-5.1,2.6l0,0l-1.5,0.9l-3.102,1.7l0,0l-2.698,1.3
		l-0.802,0.7l-1.1,0.3l0,0l-0.4-0.4l0.2-1.1h1.2l1-0.7l-0.1-1.3l0,0l-0.602-1.6l0,0v-0.6l0,0l0.7,0.1l1-0.9l1.3-2.7l1.9-1.7
		l-2.9-2.3l-1-0.6l-0.398-0.6l1-0.3l0.1-1l-0.5-0.5l-1.1,1l-0.602-0.7l0.2-2.1l-0.601-1.3l-0.301-0.6l-0.1,0.2l-3.7-1l-0.7-1.5
		l-1-0.9l-0.398,1.4l0,0l-1.5-0.9l0,0l1.1-0.9l1-0.4l4.102-0.6l1.5-0.8l2.1-1.2l0,0l1.9-1l0,0l-1.2-0.7l1-0.7l0,0l0.6-0.6l0,0
		l1.3-1.9l0,0l4.802-2.7l0.198-0.3l3.602-2.8l0,0l-5.5-0.8l-0.9-0.9l-2.1-3.2l-2.7-4.2l0,0l0.8-0.5l1.2-0.6l2.1-1.6l12-12.5l0,0
		l4.9,9.4L79.061,170.873z"/>
	<path id="Florence_Twp" fill="#F06BA8" stroke="#000000" d="M216.561,71.873l-0.102,0.4l-0.698,1.3l0,0l0,0l-3.802,4.9v0.2v0.6
		l0.102,0.4l0,0l1.6,0.5l1.102-0.4l1.398,0.6l0.3,1.1l-0.3,2.1l0.2,3.5l2.7,3.1l1.6,0.4l-4.5,12.6l-5.8,16.7l0,0l-0.3,1.1
		l-0.602,1.2h-0.198l-1.4,0.4l-1.3-0.5l-0.9-1.4l-0.8-0.6l-1.8,0.5l-1.102,1.8l-5.1-1.5l-2.4,3.2h-0.8l-0.7-0.7l-1.398-4.4l1.3-3
		l-0.1-0.8l-1-1.1l-1.802,0.5l0,0l-1.6-6.3l-3.7-12.8l-4.6-16.8l-0.602-1.8l-2.398-2.3l-0.7,0.8l-1.4-1l-0.898-0.7l-1.102-1l0,0
		l1.602-3.2l2.398-2.5l2.2-0.7l1.8-0.1l2.302,0.7l1.898,0.8l6.2,2.8l6.3,1.7l1.5,0.4l1.602,0.1h0.8l2-0.4l4.398-3.9l0,0l5.4,1.1
		L216.561,71.873z"/>
	<path id="Willingboro_Twp" fill="#F06BA8" stroke="#000000" d="M132.96,129.473l1.802-1.4l0,0l0.698,3.4v0.7l2.102,0.4l1,3.3l0,0
		l1.1,3.5l0,0l0.5,2.3l0,0l0.102-1.3l0,0l6.398-0.8l1.602,3l1.398,2.9h3.3l2.302,0.6l0.5,0.8l1.6,0.6l0,0l-0.7,2.1v0.4l0,0
		l-1.898,0.6l0,0l-1.102-0.3l0,0l-2.1,6.1l-1.102,3.7l-0.898,2.6l1.2,0.5l-1.4,4.5l-3.3-0.8l-0.4,0.8l-1,0.2l0,0l0.4,3l1.7,0.6
		l-0.9,2.9l0,0l-0.9,2.8l-1,3.1l0,0l-0.198,0.5l0,0l-1-0.7h-2.102l-3.3-2.3l0,0l-3.3-1.6l-0.602-4.3l-0.6-0.4l-4.2-1.4l-2.1-2.3
		l-4.3-1.6l0,0l-1.102-0.7l-5-5.7l-4.2-2.1l-1-4.6l-1.698-0.7l-2.602,1.3l-2-0.2l0,0l4-3.9l0,0l6.7-5.1l5.2-4.5l0.6-0.5l2.4-2
		l5.6-4.8l0.602-0.5l2.3-2L132.96,129.473z"/>
	<path id="Delran_Twp" fill="#F06BA8" stroke="#000000" d="M69.96,140.773l3.9,1.2l3.5-0.8l0,0l0.4,1.5l2.1,5.4v0.2l1.9,3.6l1.198,2
		l1.4,2.6l0.4,0.7l0,0l4.398-2.1l0.9-0.5l1.5-0.7l5.898-3.1l3.801-1.9l0,0l3.399,4.6l0,0l2,0.2l2.601-1.3l1.699,0.7l1,4.6l4.2,2.1
		l5,5.7l1.101,0.7l0,0l-0.301,0.8l-3.898,2.6l-9.7,4.8l-9.7,5l-4.3,2.5l-3.2,1.5l-4,2.3l0,0l-0.2-0.4l-2.398-4.2l-2-3.5l0,0
		l-1.8-3.6l-0.5-0.9l0,0l-0.802-1.5l-0.398-0.7l0,0l-8.2-16l-4.9-9.4l0,0L69.96,140.773z"/>
	<path id="Hainesport_Twp" fill="#F06BA8" stroke="#000000" d="M166.96,179.573l0.4,1.5l2.5-0.3l1,2l0.8,0.2l0,0l0.3-0.4l3.2,0.9
		h1.7l0.9-2.1l2.6-1.1l1.7,1.2l1-0.3l1.6-0.4l1.8,1.3l1.302-0.7l0,0l1.398,4l0.602,2.5l1.398,1.1l0,0l-2,0.8l-3.1,7.4l-6.7,6.1
		l-11.4,9.3l-4.698,2.7l-2.102,7.5l-2.2,2.6l-5.1,2.1l-3.8,1.3l0,0l-0.102-14v-2.1v-0.4l-0.198-0.5l1.398-2.4l2-3.2l0.602-3.1l0,0
		l0.3-0.8l-2.2-1.8l1.9-4l0.1-0.2l0,0l3.3-2.7l0.3-3.2v-0.3v-0.3l0,0l-0.198-1.3l2-1.5l0.1-1.2l-3-0.5l-0.6-1.9l-2.5,0.2l-0.5-0.4
		l-0.5-1.4l0,0l0.6-0.6h5.4l0.898-1.6l2.9,0.5l1.6,1.1l1.2-0.2L166.96,179.573z"/>
	<path id="Wrightstown" fill="#F06BA8" stroke="#000000" d="M319.963,143.473l2.396,0.5l0,0l0.104,2.2l0.396,7.8l-5.602-4.3l0,0
		l-2.898-2.2l0,0l-0.602,0.8l-1.799,1.1l-0.898-0.2l-1.602,1.4l0,0l-6.502,5.9l-4,3.5l-4.3,5.8l-2.898,7.5l0,0l-1.102-0.7v-0.1
		l-4.5-3.3l0,0l0.8-2.3l14.7-17.4l3.698-5.7l0,0l2.399,0.5l9.601-0.6L319.963,143.473z M305.961,183.673l1.102-1.8l0.699-0.2
		l0.801,0.1l2.699,2.3l0,0l-3.102,1.2l0,0L305.961,183.673z"/>
	<path id="Eastampton_Twp" fill="#F06BA8" stroke="#000000" d="M210.76,152.473l19.1,13.8l6,4.5l0,0l-0.3,10.3l-0.7,7.7l-0.8,5.6
		l0,0l0.5,4.3v0.1l0,0l-4.602-1.1h-5.198l0,0l-8.802-1.8l-3,0.9l0,0l-0.398-2.6l-0.8-4.6l-0.9-5l-1.1-6.1l-0.4-1.8l-0.7-4.2l0,0
		l-3.2-0.3l0,0l0.802-3L210.76,152.473z"/>
	<path id="Maple_Shade_Twp" fill="#F06BA8" stroke="#000000" d="M50.96,204.673l3.102-1.7l1.5-0.9l0,0l2.6,3.6l2.2,1.7l2.1,0.5
		l0.4,1l-0.2,1.2l4.7,3.7l0.8,2.6l3.4,3.3l4.2,0.1l0,0l0.8,1.2l1.3,2.2l2.3,4.4l1,5.7l0,0l-1.3,1l-1.8,1.3l-4.602,4.1l-3.698,3.1
		l0,0l-1-2.7v-0.2l0,0l0.398-0.5l0,0l2.602-0.3l0,0l-0.4-2.2l1.6-0.4l1.7-1.2l0.3-0.8l0.7-1.7l-1.1-1.3l-3.2-0.5l-2,0.5l-1.6-0.1
		l-1.4-1l-2,0.4l0,0l-2.3,0.7l-0.8-0.5l-1.2,0.3l-1.3-1.2l0,0l-0.4-0.5l-4.9-2.4l0,0l-0.5-0.5l0,0l-4.1-0.8l0.2-5.2l0,0l1.3-2l0,0
		v-2l-2.8-2.5l0.398-1.6l0,0l-0.398-2l0,0l-1.2-3.6l0,0l1.1-0.3l0.802-0.7L50.96,204.673z"/>
	<path id="Delanco_Twp" fill="#F06BA8" stroke="#000000" d="M107.26,128.373l-2.7,0.8l-1.102,0.3l0,0l3.9,11.5l1.8,3.1v2.6l-0.5,2.9
		l0,0l-4,3.9l0,0l-3.398-4.6l0,0l-6.4-7.3l-2.2-1.7l-2.3-0.5l-1.8-0.1h-1.4l-4.898,0.5l-4.9,1.4l0,0l-3.5,0.8l-3.9-1.2l0,0
		l6.102-5.3l0,0l8.3-5.3l11.7-7.4l8.1-4.5l0,0l0.7,1.9l0.4,2.2l0.898,2.5L107.26,128.373z"/>
	<path id="Burlington" fill="#F06BA8" stroke="#000000" d="M166.561,89.673l1.7,2.8l0.198,2.2l-0.398,1.7l-2.4,3.8l1.5,4.1l0.4,0.9
		l0.898,2.5l0.5,1.2l1.302,3.3l1,2.6l0.1,0.4l-0.1,0.3l0,0l0.398,0.5l0,0l-14.1,7.3l0,0l-3.7,0.3h-0.6l0,0l-3.2-0.2l-2.102-0.3l0,0
		l-2.398-3.9l-3-4.1l-3.9-5.9l0,0l7.2-2l3.6-1l1.9-1.3l0.8-1.1l1-3.4l1.2-2.2l1.4-1.6l2.1-1.6l5.1-2.4L166.561,89.673z"/>
	<path id="Edgewater_Park_Twp" fill="#F06BA8" stroke="#000000" d="M126.46,114.273l0.602,1.4l1.7,4.3l0,0l0.198,0.5l0,0l2.7,8.6
		l1.3,0.4l0,0l-0.898,0.7l-2.3,2l-0.602,0.5l-5.6,4.8l-2.4,2l-0.6,0.5l-5.2,4.5l-6.7,5.1l0,0l0.5-2.9v-2.6l-1.8-3.1l-3.9-11.5l0,0
		l1.102-0.3l2.7-0.8l0,0l2.898-1.1l0,0l2.102-1l2.6-1.1l0.6-0.1l0,0l3-1.2l-0.398-2.7l-0.4-4.2l0,0l1.9-0.3l3.898-1.4
		L126.46,114.273z"/>
	<path id="Palmyra" fill="#6ABD45" stroke="#000000" d="M39.36,164.573l2.7,3.6l0.398,0.4l0,0l1,1.4l2,1.3l0,0l2.2,1.3l0.2,0.1l0,0
		l1.7,1.1l2.898,1.8l0,0l-1.3,1.9l0,0l-0.6,0.6l0,0l-1,0.7l1.199,0.7l0,0l-1.899,1l0,0l-2.101,1.2l-1.5,0.8l-4.101,0.6l-1,0.4
		l-1.1,0.9l0,0l-0.7-0.1l-0.601,1.5l-0.399-0.4l0.6-1.5l-0.398-0.7l0,0l-1.5-1.3l-1.2-0.3l-1.4,1.3l-2.6,1.1l-1.4-1.1l-1.8,0.6
		l-0.6,2.1l-2.9-0.1l-5.2,0.7l0,0l1.102-1.3l5.2-10.6l2.8-3.9l3.1-2.1l2-1.5L39.36,164.573z"/>
	<path id="Mt._Holly_Twp" fill="#F06BA8" stroke="#000000" d="M205.46,172.173l3.2,0.3l0,0l0.7,4.2l0.4,1.8l1.1,6.1l0.9,5l0.8,4.6
		l0.398,2.6l0,0l-4.3-1l-5.898-1.5l0,0l-0.2-0.1l0,0l-5.4-1.3l-1.398-0.5l0,0l-1.602-0.3l-1.3-1.4l-0.2-0.1l-1.2-1.3l-0.3-0.3l0,0
		l-1.398-1.1l-0.602-2.5l-1.398-4l0,0l1.5-0.1l0,0l0.3-0.6l0,0l0.6-1.4l0.5-1.4l0,0l2-5l0.5-1.3l0,0l1.102-3l0,0l6.698,2.4l2.7,0.9
		L205.46,172.173z"/>
	<path id="Riverside_Twp" fill="#F06BA8" stroke="#000000" d="M77.36,141.173l4.9-1.4l4.898-0.5h1.4l1.8,0.1l2.3,0.5l2.2,1.7
		l6.4,7.3l0,0l-3.802,1.9l-5.898,3.1l-1.5,0.7l-0.9,0.5l-4.398,2.1l0,0l-0.4-0.7l-1.4-2.6l-1.198-2l-1.9-3.6v-0.2l-2.1-5.4
		L77.36,141.173z"/>
	<path id="Medford_Lakes" fill="#F06BA8" stroke="#000000" d="M186.561,298.273l1.3,0.2l0,0l-0.7-0.6l-0.5-2.3l1.7-1.6l0.9,0.4
		l0.1,0.6l5,3.8l-0.4,0.8l-0.3,0.7l1.5,0.3l1.8,0.6l-0.5-0.2l1.302-1.6l2.5,2.2l0.398,0.397l-0.2,0.303l-2.3,3.5l-2.7-2l-0.8,1.197
		l1.602,1.698v0.899l-0.102,0.199l-0.398,0.602l-1.5,2.1l0,0l-2.802-5.3l-0.398-0.696l-1-1.804l0,0l-2.7-0.3l-1,1.5l2.398,3.3l0,0
		l0.3,0.2l-2.9,5.7l0,0l-2.398-1.9l0,0l-2.802,1.604l0,0l-1.6-2.9l0.6-0.6l0.302-0.2l0.198-0.2l0,0l-1.8-1.4l-0.1-0.1l0,0l1-0.9
		l1.2-9l3,0.2l2.102-0.9l0,0L186.561,298.273z"/>
	<path id="Riverton" fill="#6ABD45" stroke="#000000" d="M39.36,164.573l6.6-2.4l3-1l0.4-0.3l0.5-0.2l0,0l2.7,4.2l2.1,3.2l0.9,0.9
		l5.5,0.8l0,0l-3.602,2.8l-0.198,0.3l-4.802,2.7l0,0l-2.898-1.8l-1.7-1.1l0,0l-0.2-0.1l-2.2-1.3l0,0l-2-1.3l-1-1.4l0,0l-0.398-0.4
		L39.36,164.573z"/>
	<path id="Bordentown" fill="#F06BA8" stroke="#000000" d="M252.36,37.773l0.2,0.1l4.898,1.5l0,0l0.2,6.8v0.2v0.7v3.4l-0.1,0.3l0,0
		l-4.5,4.2l-2.9,1.8l-3.2-3.2l-0.3-3.7l-1.3-1.4l0,0L252.36,37.773z"/>
	<path id="Beverly" fill="#F06BA8" stroke="#000000" d="M117.66,116.973l0.4,4.2l0.398,2.7l-3,1.2l0,0l-0.6,0.1l-2.6,1.1l-2.102,1
		l0,0l-2.898,1.1l0,0l-1.102-3.5l-0.898-2.5l-0.4-2.2l-0.7-1.9l0,0l2.9-1.3l1.7-0.8l3-0.3L117.66,116.973z"/>
	<path id="Pemberton" fill="#F06BA8" stroke="#000000" d="M262.86,200.373l1.5-1.1l2.2-0.4l5.5,1l0.898,4.5l0.4,0.2l0,0l-0.601,2.8
		l-0.101,0.1l0,0l-1.1-0.6l-0.801-1.6l-0.899,0.1v0.8l0.2,1.6l0,0l-0.301,0.5l-0.399,0.1l-1.8-0.1l0,0l-2.2-0.1l-6.101-0.3
		l0.801-1.2l2.6-4.1L262.86,200.373z"/>
	<path id="Fieldsboro" fill="#F06BA8" stroke="#000000" d="M237.96,54.473l1.7,1.3l0.5,0.4h0.102l2.198,5l-2.198-1l-1,2.4l-1.2-0.1
		l-4.5-1.8l1-2.4L237.96,54.473z"/>
</g>
</svg>
