<?xml version="1.0" encoding="UTF-8" standalone="no"?>
<!-- Created with Arkyan's SVGCensus script -->
<svg
   xmlns:dc="http://purl.org/dc/elements/1.1/"
   xmlns:cc="http://web.resource.org/cc/"
   xmlns:rdf="http://www.w3.org/1999/02/22-rdf-syntax-ns#"
   xmlns:svg="http://www.w3.org/2000/svg"
   xmlns="http://www.w3.org/2000/svg"
   xmlns:sodipodi="http://sodipodi.sourceforge.net/DTD/sodipodi-0.dtd"
   xmlns:inkscape="http://www.inkscape.org/namespaces/inkscape"
   version="1.0"
   width="350"
   height="200"
   id="svg3321"
   sodipodi:version="0.32"
   inkscape:version="0.45"
   sodipodi:docname="outputmap.svg"
   inkscape:output_extension="org.inkscape.output.svg.inkscape"
   sodipodi:docbase="C:\files\wikibot"
   sodipodi:modified="true">
  <metadata
     id="metadata3374">
    <rdf:RDF>
      <cc:Work
         rdf:about="">
        <dc:format>image/svg+xml</dc:format>
        <dc:type
           rdf:resource="http://purl.org/dc/dcmitype/StillImage" />
      </cc:Work>
    </rdf:RDF>
  </metadata>
  <defs
     id="defs3372" />
  <sodipodi:namedview
     inkscape:window-height="579"
     inkscape:window-width="748"
     inkscape:pageshadow="2"
     inkscape:pageopacity="0.0"
     guidetolerance="10.0"
     gridtolerance="10.0"
     objecttolerance="10.0"
     borderopacity="1.0"
     bordercolor="#666666"
     pagecolor="#ffffff"
     id="base"
     width="350px"
     height="200px"
     inkscape:zoom="1.89"
     inkscape:cx="175"
     inkscape:cy="100"
     inkscape:window-x="176"
     inkscape:window-y="162"
     inkscape:current-layer="svg3321" />
  <path
     id="039"
     style="fill:#ffffff;fill-opacity:1;fill-rule:evenodd;stroke:#000000;stroke-width:3px;stroke-linecap:butt;stroke-linejoin:miter;stroke-opacity:1"
     d="M 84.251323,12.711111 L 84.551323,12.611111 L 85.551323,13.011111 L 85.251323,12.611111 L 86.951323,13.411111 L 87.351323,13.511111 L 88.451323,14.111111 L 88.451323,14.111111 L 89.751323,14.411111 L 89.751323,14.411111 L 89.751323,14.211111 L 89.751323,14.211111 L 94.351323,16.511111 L 94.351323,16.511111 L 94.551323,16.811111 L 94.551323,16.811111 L 95.251323,17.411111 L 96.651323,18.211111 L 96.751323,18.711111 L 96.751323,18.711111 L 97.751323,19.711111 L 99.351323,20.811111 L 104.35132,25.911111 L 105.15132,26.211111 L 105.95132,26.711111 L 105.95132,26.711111 L 110.35132,29.511111 L 114.45132,32.111111 L 114.45132,32.111111 L 116.45132,31.111111 L 117.55132,30.511111 L 117.55132,30.511111 L 118.85132,30.411111 L 120.85132,30.411111 L 125.55132,34.511111 L 126.75132,34.911111 L 128.45132,35.411111 L 128.45132,35.411111 L 128.95132,35.611111 L 129.95132,35.611111 L 129.95132,35.611111 L 130.85132,35.011111 L 130.85132,35.011111 L 131.45132,34.711111 L 132.25132,34.211111 L 132.25132,34.211111 L 132.85132,33.711111 L 132.85132,33.711111 L 132.95132,33.111111 L 134.55132,32.711111 L 134.85132,31.911111 L 134.85132,31.311111 L 135.15132,30.311111 L 136.45132,28.611111 L 137.35132,28.511111 L 137.35132,28.511111 L 140.85132,27.811111 L 140.85132,27.811111 L 141.35132,28.011111 L 142.05132,28.311111 L 144.95132,29.411111 L 145.55132,29.611111 L 146.25132,29.911111 L 146.45132,29.911111 L 146.95132,30.211111 L 148.35132,30.711111 L 149.65132,31.311111 L 151.05132,31.911111 L 151.45132,32.011111 L 152.75132,32.611111 L 153.25132,32.811111 L 153.25132,32.811111 L 155.45132,33.611111 L 155.45132,33.611111 L 155.85132,33.911111 L 157.35132,34.411111 L 160.05132,35.611111 L 160.35132,35.611111 L 162.75132,36.211111 L 164.85132,36.711111 L 166.85132,37.211111 L 166.85132,37.211111 L 166.95132,37.211111 L 167.65132,37.411111 L 167.95132,37.511111 L 168.45132,37.511111 L 168.45132,37.511111 L 171.75132,38.511111 L 171.75132,38.511111 L 172.85132,38.811111 L 175.25132,39.311111 L 175.95132,39.411111 L 177.75132,39.911111 L 178.45132,40.011111 L 179.25132,40.211111 L 179.25132,40.211111 L 179.85132,40.411111 L 181.65132,40.711111 L 181.65132,40.711111 L 182.45132,41.111111 L 183.25132,42.011111 L 183.55132,42.211111 L 183.55132,42.211111 L 184.35132,43.011111 L 188.15132,46.511111 L 188.85132,48.011111 L 191.05132,55.711111 L 191.35132,55.911111 L 191.95132,56.311111 L 194.25132,57.811111 L 195.75132,58.911111 L 197.95132,58.811111 L 198.65132,58.711111 L 198.65132,58.711111 L 201.35132,58.511111 L 201.65132,58.411111 L 210.55132,57.511111 L 216.85132,57.211111 L 217.85132,56.111111 L 219.75132,55.811111 L 221.15132,56.311111 L 222.05132,56.411111 L 223.75132,59.311111 L 226.95132,59.611111 L 231.25132,63.611111 L 238.75132,69.411111 L 238.75132,69.411111 L 237.55132,71.211111 L 236.25132,73.211111 L 228.25132,86.311111 L 223.05132,94.811111 L 222.55132,96.411111 L 222.55132,96.411111 L 209.45132,94.311111 L 206.15132,94.711111 L 204.95132,95.911111 L 204.85132,95.911111 L 204.15132,96.711111 L 202.65132,98.611111 L 199.35132,102.91111 L 196.65132,106.41111 L 195.55132,107.91111 L 194.85132,115.81111 L 194.35132,120.61111 L 193.55132,129.71111 L 192.65132,139.91111 L 192.65132,139.91111 L 191.75132,139.31111 L 188.65132,136.21111 L 188.15132,133.11111 L 186.85132,131.31111 L 185.95132,131.11111 L 184.65132,133.31111 L 181.35132,134.91111 L 178.05132,135.21111 L 176.15132,136.31111 L 175.75132,136.01111 L 174.65132,135.01111 L 174.15132,133.61111 L 173.45132,133.11111 L 173.45132,133.11111 L 172.95132,132.71111 L 172.95132,132.71111 L 171.85132,132.81111 L 170.75132,134.31111 L 169.05132,135.11111 L 165.65132,135.21111 L 161.65132,134.41111 L 160.35132,133.41111 L 158.65132,133.41111 L 157.55132,137.41111 L 153.45132,138.41111 L 153.45132,138.41111 L 148.75132,139.51111 L 144.45132,140.61111 L 144.45132,140.61111 L 144.05132,140.71111 L 138.95132,141.91111 L 138.95132,141.91111 L 137.05132,142.41111 L 137.05132,142.41111 L 136.75132,142.21111 L 136.25132,141.71111 L 136.05132,141.41111 L 134.55132,140.11111 L 134.55132,140.11111 L 134.45132,140.01111 L 133.25132,138.91111 L 132.65132,138.41111 L 130.85132,136.91111 L 127.65132,134.81111 L 127.65132,134.81111 L 128.25132,132.91111 L 128.35132,132.61111 L 128.95132,130.41111 L 128.95132,130.41111 L 128.05132,129.61111 L 129.05132,128.91111 L 129.15132,127.51111 L 129.15132,127.51111 L 124.15132,128.21111 L 122.65132,128.21111 L 117.75132,128.91111 L 116.95132,129.11111 L 116.95132,129.11111 L 116.25132,129.61111 L 112.85132,130.91111 L 112.85132,130.91111 L 112.75132,130.21111 L 111.55132,130.21111 L 111.05132,130.21111 L 110.55132,129.81111 L 110.55132,129.81111 L 106.05132,130.41111 L 100.55132,131.11111 L 94.351323,131.91111 L 92.951323,132.11111 L 83.551323,133.21111 L 80.151323,133.61111 L 69.251323,134.51111 L 64.251323,135.01111 L 60.851323,135.41111 L 55.151323,136.01111 L 55.151323,136.01111 L 51.951323,136.51111 L 49.451323,136.71111 L 48.251323,136.91111 L 48.251323,136.91111 L 41.251323,137.71111 L 40.551323,137.81111 L 36.451323,138.31111 L 35.551323,138.41111 L 29.351323,139.21111 L 28.351323,139.21111 L 27.451323,140.01111 L 24.251323,136.21111 L 24.251323,136.21111 L 25.151323,135.91111 L 25.151323,135.91111 L 26.551323,135.61111 L 26.751323,134.41111 L 27.751323,133.31111 L 27.751323,133.31111 L 29.251323,133.11111 L 29.551323,131.71111 L 31.751323,132.01111 L 31.751323,132.01111 L 32.851323,130.51111 L 32.851323,130.51111 L 33.851323,128.41111 L 35.851323,127.21111 L 36.751323,127.41111 L 41.051323,126.41111 L 43.551323,123.41111 L 43.651323,123.31111 L 43.651323,123.31111 L 43.751323,123.11111 L 43.751323,123.11111 L 46.351323,121.11111 L 47.651323,120.11111 L 48.051323,119.51111 L 49.151323,118.51111 L 50.151323,117.01111 L 50.151323,117.01111 L 49.951323,116.81111 L 50.251323,113.81111 L 51.151323,112.61111 L 51.151323,112.61111 L 51.451323,112.61111 L 51.451323,112.61111 L 51.751323,112.21111 L 51.751323,112.21111 L 53.551323,111.21111 L 54.451323,109.41111 L 54.451323,109.41111 L 54.451323,109.41111 L 54.451323,109.41111 L 54.451323,109.11111 L 54.451323,109.11111 L 54.751323,108.01111 L 54.751323,108.01111 L 55.451323,107.11111 L 55.451323,107.11111 L 55.651323,105.91111 L 55.651323,105.91111 L 55.751323,102.11111 L 55.851323,101.31111 L 55.851323,101.31111 L 56.651323,99.311111 L 56.651323,99.311111 L 57.051323,98.211111 L 57.651323,97.911111 L 57.651323,97.911111 L 58.651323,97.711111 L 58.651323,97.711111 L 60.151323,96.111111 L 60.951323,94.211111 L 60.951323,94.211111 L 61.351323,92.711111 L 61.351323,92.711111 L 61.151323,91.911111 L 63.151323,87.011111 L 63.751323,85.611111 L 63.451323,82.411111 L 64.351323,79.511111 L 64.151323,78.411111 L 63.251323,76.711111 L 62.151323,75.711111 L 59.951323,77.311111 L 59.951323,77.311111 L 57.251323,80.111111 L 57.251323,80.111111 L 55.651323,80.411111 L 54.251323,81.511111 L 54.051323,82.511111 L 52.251323,84.411111 L 51.651323,84.411111 L 49.851323,81.511111 L 47.851323,79.711111 L 46.951323,79.611111 L 43.251323,78.611111 L 43.151323,78.711111 L 43.151323,78.711111 L 41.451323,79.411111 L 41.451323,79.411111 L 38.451323,82.811111 L 38.451323,82.811111 L 37.451323,83.711111 L 37.451323,83.711111 L 33.351323,86.711111 L 33.351323,86.711111 L 33.151323,86.911111 L 33.151323,86.911111 L 31.751323,87.511111 L 31.751323,87.511111 L 31.151323,85.611111 L 31.151323,85.611111 L 30.051323,82.411111 L 30.051323,82.411111 L 28.051323,76.611111 L 28.051323,76.611111 L 25.851323,69.911111 L 25.851323,69.911111 L 27.151323,69.111111 L 29.851323,69.811111 L 30.851323,67.911111 L 30.551323,67.211111 L 31.451323,65.111111 L 30.851323,61.711111 L 31.751323,59.711111 L 33.651323,59.811111 L 35.251323,58.911111 L 35.851323,57.811111 L 36.651323,57.811111 L 39.551323,56.311111 L 40.851323,55.711111 L 40.651323,54.411111 L 42.651323,53.011111 L 44.951323,53.311111 L 44.951323,53.311111 L 45.751323,50.211111 L 45.751323,50.211111 L 46.751323,48.111111 L 47.951323,45.611111 L 49.251323,45.511111 L 54.851323,42.611111 L 56.251323,41.411111 L 56.751323,40.211111 L 57.551323,38.211111 L 58.551323,38.911111 L 59.751323,38.411111 L 61.051323,35.311111 L 64.151323,31.411111 L 66.451323,31.511111 L 66.451323,31.511111 L 68.351323,32.011111 L 68.351323,32.011111 L 70.551323,31.411111 L 71.851323,31.011111 L 72.051323,24.811111 L 74.251323,24.511111 L 75.451323,25.911111 L 79.351323,21.711111 L 78.751323,17.911111 L 80.451323,17.111111 L 82.851323,17.611111 L 84.651323,16.411111 L 84.251323,12.711111 z " />
  <path
     id="21000"
     style="fill:#cccccc;fill-opacity:1;fill-rule:evenodd;stroke:#000000;stroke-width:1px;stroke-linecap:butt;stroke-linejoin:miter;stroke-opacity:1"
     d="M 198.65132,58.711111 L 201.35132,58.511111 L 201.65132,58.411111 L 210.55132,57.511111 L 216.85132,57.211111 L 217.85132,56.111111 L 219.75132,55.811111 L 221.15132,56.311111 L 222.05132,56.411111 L 223.75132,59.311111 L 226.95132,59.611111 L 231.25132,63.611111 L 238.75132,69.411111 L 238.75132,69.411111 L 237.55132,71.211111 L 236.25132,73.211111 L 228.25132,86.311111 L 223.05132,94.811111 L 222.55132,96.411111 L 222.55132,96.411111 L 209.45132,94.311111 L 206.15132,94.711111 L 204.95132,95.911111 L 204.85132,95.911111 L 204.15132,96.711111 L 202.65132,98.611111 L 199.35132,102.91111 L 196.65132,106.41111 L 196.65132,106.41111 L 195.35132,104.71111 L 192.05132,101.71111 L 190.35132,100.21111 L 190.35132,100.21111 L 187.25132,97.611111 L 185.95132,96.411111 L 184.85132,95.611111 L 184.35132,94.911111 L 181.55132,92.411111 L 181.35132,92.311111 L 179.95132,90.811111 L 179.95132,90.811111 L 178.45132,89.611111 L 178.05132,89.111111 L 178.05132,89.111111 L 175.45132,86.911111 L 174.85132,87.311111 L 174.85132,87.311111 L 174.35132,86.211111 L 173.65132,85.311111 L 172.85132,84.111111 L 171.15132,82.511111 L 171.15132,82.511111 L 170.45132,81.811111 L 169.35132,80.911111 L 168.45132,80.011111 L 167.75132,79.211111 L 166.25132,79.611111 L 166.25132,79.611111 L 166.05132,78.911111 L 166.05132,78.911111 L 165.25132,76.511111 L 164.55132,75.811111 L 162.75132,74.511111 L 162.05132,74.211111 L 161.25132,73.611111 L 161.25132,73.611111 L 164.05132,72.011111 L 166.65132,70.811111 L 167.75132,70.911111 L 169.65132,71.511111 L 170.25132,70.811111 L 170.25132,70.811111 L 170.95132,71.311111 L 170.95132,71.311111 L 170.95132,71.311111 L 171.15132,70.811111 L 171.15132,70.811111 L 171.85132,70.211111 L 173.45132,67.611111 L 173.85132,68.111111 L 174.55132,69.811111 L 174.45132,70.011111 L 174.75132,70.411111 L 175.75132,71.511111 L 176.55132,72.211111 L 176.55132,72.211111 L 177.25132,70.311111 L 179.95132,69.411111 L 179.95132,69.411111 L 179.35132,68.711111 L 180.35132,69.111111 L 182.05132,69.111111 L 182.05132,69.111111 L 183.95132,66.011111 L 184.55132,64.711111 L 185.25132,63.211111 L 187.25132,59.011111 L 187.25132,59.011111 L 187.05132,58.311111 L 186.95132,57.011111 L 186.95132,57.011111 L 191.05132,55.711111 L 191.05132,55.711111 L 191.35132,55.911111 L 191.95132,56.311111 L 194.25132,57.811111 L 195.75132,58.911111 L 197.95132,58.811111 L 198.65132,58.711111 z " />
  <path
     id="66060"
     style="fill:#cccccc;fill-opacity:1;fill-rule:evenodd;stroke:#000000;stroke-width:1px;stroke-linecap:butt;stroke-linejoin:miter;stroke-opacity:1"
     d="M 73.851323,66.411111 L 75.751323,69.411111 L 76.251323,70.511111 L 76.651323,71.211111 L 79.251323,75.811111 L 79.251323,75.811111 L 79.551323,75.911111 L 82.051323,81.011111 L 85.451323,86.711111 L 86.551323,89.711111 L 88.151323,93.211111 L 88.451323,94.011111 L 88.551323,94.511111 L 89.551323,96.811111 L 90.251323,98.311111 L 91.451323,100.71111 L 91.451323,100.71111 L 93.751323,102.41111 L 94.751323,103.11111 L 95.651323,103.71111 L 96.251323,104.11111 L 96.851323,104.41111 L 96.851323,104.41111 L 97.451323,105.91111 L 99.651323,108.01111 L 99.651323,108.01111 L 101.25132,109.81111 L 102.25132,110.61111 L 102.65132,110.91111 L 104.65132,112.11111 L 108.65132,111.31111 L 112.95132,113.21111 L 114.55132,113.21111 L 114.55132,113.21111 L 114.15132,113.81111 L 114.15132,113.81111 L 113.85132,114.41111 L 110.45132,119.31111 L 105.35132,120.81111 L 105.35132,120.81111 L 102.95132,124.51111 L 98.651323,125.51111 L 96.751323,125.51111 L 95.951323,126.31111 L 92.951323,132.11111 L 92.951323,132.11111 L 83.551323,133.21111 L 80.151323,133.61111 L 69.251323,134.51111 L 69.251323,134.51111 L 68.751323,132.41111 L 67.451323,128.21111 L 67.451323,128.21111 L 70.251323,121.21111 L 71.551323,117.81111 L 72.251323,116.01111 L 72.751323,114.51111 L 72.751323,114.51111 L 76.951323,109.31111 L 76.951323,109.31111 L 75.851323,108.41111 L 75.851323,108.41111 L 76.951323,106.81111 L 79.451323,105.61111 L 81.351323,103.21111 L 81.351323,103.21111 L 83.251323,98.411111 L 83.251323,98.411111 L 82.751323,97.911111 L 83.251323,96.911111 L 84.151323,95.711111 L 83.851323,95.311111 L 83.951323,94.811111 L 83.951323,94.811111 L 83.651323,94.111111 L 82.151323,94.311111 L 82.151323,94.311111 L 81.451323,93.711111 L 78.151323,91.311111 L 77.751323,90.811111 L 77.551323,90.711111 L 74.451323,88.311111 L 74.451323,88.311111 L 69.951323,93.711111 L 69.951323,93.711111 L 69.351323,93.911111 L 68.651323,94.711111 L 68.951323,94.911111 L 67.351323,96.611111 L 64.251323,99.511111 L 64.251323,99.511111 L 63.651323,99.011111 L 61.751323,97.411111 L 60.151323,96.111111 L 60.151323,96.111111 L 60.951323,94.211111 L 60.951323,94.211111 L 61.351323,92.711111 L 61.351323,92.711111 L 61.151323,91.911111 L 63.151323,87.011111 L 63.751323,85.611111 L 63.451323,82.411111 L 64.351323,79.511111 L 64.151323,78.411111 L 63.251323,76.711111 L 63.251323,76.711111 L 63.351323,76.311111 L 64.451323,74.411111 L 64.551323,73.411111 L 66.751323,69.911111 L 73.851323,66.411111 z " />
  <path
     id="40350"
     style="fill:#cccccc;fill-opacity:1;fill-rule:evenodd;stroke:#000000;stroke-width:1px;stroke-linecap:butt;stroke-linejoin:miter;stroke-opacity:1"
     d="M 154.75132,102.41111 L 156.85132,99.311111 L 157.25132,98.811111 L 157.75132,97.911111 L 158.25132,97.411111 L 158.95132,96.711111 L 161.65132,95.911111 L 162.25132,95.811111 L 162.45132,95.711111 L 164.35132,94.311111 L 164.85132,93.611111 L 166.75132,92.811111 L 168.35132,92.211111 L 170.35132,91.111111 L 173.15132,88.911111 L 174.85132,87.311111 L 174.85132,87.311111 L 175.45132,86.911111 L 178.05132,89.111111 L 178.05132,89.111111 L 178.45132,89.611111 L 179.95132,90.811111 L 179.95132,90.811111 L 181.35132,92.311111 L 181.55132,92.411111 L 184.35132,94.911111 L 184.85132,95.611111 L 185.95132,96.411111 L 187.25132,97.611111 L 190.35132,100.21111 L 190.35132,100.21111 L 192.05132,101.71111 L 195.35132,104.71111 L 196.65132,106.41111 L 196.65132,106.41111 L 195.55132,107.91111 L 194.85132,115.81111 L 194.35132,120.61111 L 193.55132,129.71111 L 192.65132,139.91111 L 192.65132,139.91111 L 191.75132,139.31111 L 188.65132,136.21111 L 188.15132,133.11111 L 186.85132,131.31111 L 185.95132,131.11111 L 184.65132,133.31111 L 181.35132,134.91111 L 178.05132,135.21111 L 176.15132,136.31111 L 175.75132,136.01111 L 174.65132,135.01111 L 174.15132,133.61111 L 173.45132,133.11111 L 173.45132,133.11111 L 172.95132,132.71111 L 172.95132,132.71111 L 171.85132,132.81111 L 170.75132,134.31111 L 169.05132,135.11111 L 165.65132,135.21111 L 165.65132,135.21111 L 161.65132,134.41111 L 160.35132,133.41111 L 158.65132,133.41111 L 158.65132,133.41111 L 158.85132,133.21111 L 159.05132,133.01111 L 159.95132,130.61111 L 158.75132,126.31111 L 154.05132,120.51111 L 153.35132,119.61111 L 152.85132,119.11111 L 152.85132,119.11111 L 151.75132,117.71111 L 151.75132,117.71111 L 147.95132,112.81111 L 146.55132,111.11111 L 146.55132,111.11111 L 145.25132,109.41111 L 142.95132,106.81111 L 140.85132,104.41111 L 140.85132,104.41111 L 141.85132,103.61111 L 141.85132,103.61111 L 141.75132,103.21111 L 141.75132,103.21111 L 139.65132,100.51111 L 137.55132,101.31111 L 137.55132,101.31111 L 137.75132,100.01111 L 137.75132,100.01111 L 141.65132,98.311111 L 143.35132,97.011111 L 143.35132,97.011111 L 143.65132,93.911111 L 143.35132,93.511111 L 143.45132,91.111111 L 143.45132,91.111111 L 143.65132,91.311111 L 143.65132,91.311111 L 145.05132,92.611111 L 145.75132,93.411111 L 148.25132,96.111111 L 148.65132,96.411111 L 149.05132,96.811111 L 151.45132,99.311111 L 151.85132,99.611111 L 152.05132,99.911111 L 152.45132,100.21111 L 153.65132,101.51111 L 154.75132,102.41111 z " />
  <path
     id="74480"
     style="fill:#cccccc;fill-opacity:1;fill-rule:evenodd;stroke:#000000;stroke-width:1px;stroke-linecap:butt;stroke-linejoin:miter;stroke-opacity:1"
     d="M 140.85132,27.811111 L 141.35132,28.011111 L 142.05132,28.311111 L 144.95132,29.411111 L 145.55132,29.611111 L 146.25132,29.911111 L 146.45132,29.911111 L 146.95132,30.211111 L 148.35132,30.711111 L 149.65132,31.311111 L 151.05132,31.911111 L 151.45132,32.011111 L 152.75132,32.611111 L 153.25132,32.811111 L 153.25132,32.811111 L 155.45132,33.611111 L 155.45132,33.611111 L 155.85132,33.911111 L 157.35132,34.411111 L 160.05132,35.611111 L 160.05132,35.611111 L 160.35132,35.611111 L 162.75132,36.211111 L 164.85132,36.711111 L 166.85132,37.211111 L 166.85132,37.211111 L 166.95132,37.211111 L 167.65132,37.411111 L 167.65132,37.411111 L 167.55132,37.711111 L 165.95132,40.911111 L 165.75132,42.411111 L 165.75132,43.611111 L 164.25132,46.511111 L 166.05132,49.311111 L 168.65132,50.911111 L 169.95132,50.811111 L 170.75132,51.811111 L 171.85132,54.211111 L 171.45132,54.611111 L 172.05132,56.211111 L 172.25132,59.111111 L 173.55132,59.011111 L 174.35132,59.511111 L 176.75132,60.411111 L 179.95132,64.911111 L 179.45132,67.511111 L 182.05132,69.111111 L 182.05132,69.111111 L 180.35132,69.111111 L 179.35132,68.711111 L 179.95132,69.411111 L 179.95132,69.411111 L 177.25132,70.311111 L 176.55132,72.211111 L 176.55132,72.211111 L 175.75132,71.511111 L 174.75132,70.411111 L 174.45132,70.011111 L 174.55132,69.811111 L 173.85132,68.111111 L 173.45132,67.611111 L 171.85132,70.211111 L 171.15132,70.811111 L 171.15132,70.811111 L 170.95132,71.311111 L 170.95132,71.311111 L 170.95132,71.311111 L 170.25132,70.811111 L 170.25132,70.811111 L 169.65132,71.511111 L 167.75132,70.911111 L 166.65132,70.811111 L 164.05132,72.011111 L 161.25132,73.611111 L 161.25132,73.611111 L 159.15132,72.111111 L 158.75132,71.811111 L 158.35132,71.611111 L 158.35132,71.611111 L 156.35132,71.911111 L 155.15132,72.211111 L 155.15132,72.211111 L 153.55132,72.611111 L 153.55132,72.611111 L 152.05132,72.611111 L 150.85132,72.911111 L 150.15132,73.111111 L 149.95132,73.111111 L 149.95132,73.111111 L 148.15132,70.911111 L 151.35132,66.611111 L 151.35132,66.611111 L 150.15132,65.811111 L 149.55132,65.611111 L 149.55132,65.611111 L 150.05132,64.611111 L 146.95132,61.411111 L 147.05132,57.011111 L 148.45132,56.111111 L 148.35132,55.411111 L 146.15132,55.111111 L 144.65132,56.211111 L 145.75132,57.011111 L 145.15132,58.411111 L 142.55132,60.011111 L 141.75132,59.711111 L 140.85132,57.811111 L 140.85132,57.811111 L 136.65132,59.811111 L 135.85132,55.911111 L 135.85132,55.911111 L 135.65132,56.011111 L 134.85132,56.111111 L 134.35132,56.111111 L 132.25132,58.411111 L 132.25132,60.811111 L 132.25132,60.811111 L 130.95132,60.511111 L 129.25132,60.611111 L 127.65132,61.311111 L 127.05132,63.711111 L 126.55132,64.311111 L 126.55132,64.311111 L 125.75132,64.111111 L 123.65132,59.911111 L 123.45132,58.011111 L 123.45132,57.411111 L 123.45132,56.211111 L 125.75132,55.011111 L 126.75132,53.311111 L 127.05132,52.311111 L 126.45132,48.311111 L 124.55132,47.611111 L 124.25132,46.911111 L 124.65132,45.911111 L 125.15132,45.111111 L 126.95132,43.911111 L 130.45132,43.111111 L 130.65132,42.111111 L 130.25132,40.711111 L 131.95132,39.311111 L 130.95132,35.911111 L 130.85132,35.011111 L 130.85132,35.011111 L 131.45132,34.711111 L 132.25132,34.211111 L 132.25132,34.211111 L 132.85132,33.711111 L 132.85132,33.711111 L 132.95132,33.111111 L 134.55132,32.711111 L 134.85132,31.911111 L 134.85132,31.311111 L 135.15132,30.311111 L 136.45132,28.611111 L 137.35132,28.511111 L 137.35132,28.511111 L 140.85132,27.811111 z " />
  <path
     id="59190"
     style="fill:#cccccc;fill-opacity:1;fill-rule:evenodd;stroke:#000000;stroke-width:1px;stroke-linecap:butt;stroke-linejoin:miter;stroke-opacity:1"
     d="M 64.251323,99.511111 L 64.751323,99.911111 L 67.851323,102.41111 L 69.451323,103.61111 L 69.851323,103.81111 L 71.451323,105.11111 L 72.351323,105.71111 L 73.751323,106.81111 L 74.351323,107.21111 L 75.851323,108.41111 L 75.851323,108.41111 L 76.951323,109.31111 L 76.951323,109.31111 L 72.751323,114.51111 L 72.751323,114.51111 L 72.251323,116.01111 L 71.551323,117.81111 L 70.251323,121.21111 L 67.451323,128.21111 L 67.451323,128.21111 L 68.751323,132.41111 L 69.251323,134.51111 L 69.251323,134.51111 L 64.251323,135.01111 L 60.851323,135.41111 L 55.151323,136.01111 L 55.151323,136.01111 L 51.951323,136.51111 L 49.451323,136.71111 L 48.251323,136.91111 L 48.251323,136.91111 L 41.251323,137.71111 L 41.251323,137.71111 L 40.551323,137.81111 L 36.451323,138.31111 L 35.551323,138.41111 L 29.351323,139.21111 L 29.351323,139.21111 L 28.351323,139.21111 L 27.451323,140.01111 L 24.251323,136.21111 L 24.251323,136.21111 L 25.151323,135.91111 L 25.151323,135.91111 L 26.551323,135.61111 L 26.751323,134.41111 L 27.751323,133.31111 L 27.751323,133.31111 L 29.251323,133.11111 L 29.551323,131.71111 L 31.751323,132.01111 L 31.751323,132.01111 L 32.851323,130.51111 L 32.851323,130.51111 L 33.851323,128.41111 L 35.851323,127.21111 L 36.751323,127.41111 L 41.051323,126.41111 L 43.551323,123.41111 L 43.651323,123.31111 L 43.651323,123.31111 L 43.751323,123.11111 L 43.751323,123.11111 L 46.351323,121.11111 L 47.651323,120.11111 L 48.051323,119.51111 L 49.151323,118.51111 L 50.151323,117.01111 L 50.151323,117.01111 L 49.951323,116.81111 L 50.251323,113.81111 L 51.151323,112.61111 L 51.151323,112.61111 L 51.451323,112.61111 L 51.451323,112.61111 L 51.751323,112.21111 L 51.751323,112.21111 L 53.551323,111.21111 L 54.451323,109.41111 L 54.451323,109.41111 L 54.451323,109.41111 L 54.451323,109.41111 L 54.451323,109.11111 L 54.451323,109.11111 L 54.751323,108.01111 L 54.751323,108.01111 L 55.451323,107.11111 L 55.451323,107.11111 L 55.651323,105.91111 L 55.651323,105.91111 L 55.751323,102.11111 L 55.851323,101.31111 L 55.851323,101.31111 L 56.651323,99.311111 L 56.651323,99.311111 L 57.051323,98.211111 L 57.651323,97.911111 L 57.651323,97.911111 L 58.651323,97.711111 L 58.651323,97.711111 L 60.151323,96.111111 L 60.151323,96.111111 L 61.751323,97.411111 L 63.651323,99.011111 L 64.251323,99.511111 z " />
  <path
     id="79040"
     style="fill:#cccccc;fill-opacity:1;fill-rule:evenodd;stroke:#000000;stroke-width:1px;stroke-linecap:butt;stroke-linejoin:miter;stroke-opacity:1"
     d="M 110.65132,66.411111 L 110.55132,62.811111 L 110.55132,62.811111 L 116.95132,67.411111 L 116.95132,67.411111 L 116.25132,69.211111 L 115.85132,73.111111 L 115.45132,73.811111 L 114.65132,76.111111 L 113.15132,79.911111 L 113.35132,80.511111 L 113.85132,84.511111 L 113.85132,84.511111 L 111.65132,86.211111 L 110.75132,88.311111 L 110.25132,89.211111 L 109.85132,89.811111 L 110.25132,90.711111 L 109.55132,91.511111 L 110.65132,92.611111 L 113.95132,94.511111 L 114.25132,94.711111 L 116.95132,97.111111 L 118.45132,98.111111 L 118.45132,98.111111 L 119.75132,99.311111 L 120.65132,99.811111 L 122.65132,101.71111 L 122.65132,101.71111 L 121.15132,103.91111 L 120.55132,104.71111 L 120.55132,104.71111 L 120.35132,105.01111 L 119.45132,106.91111 L 119.45132,106.91111 L 116.35132,110.91111 L 114.55132,113.21111 L 114.55132,113.21111 L 112.95132,113.21111 L 108.65132,111.31111 L 104.65132,112.11111 L 102.65132,110.91111 L 102.25132,110.61111 L 101.25132,109.81111 L 99.651323,108.01111 L 99.651323,108.01111 L 97.451323,105.91111 L 96.851323,104.41111 L 96.851323,104.41111 L 96.251323,104.11111 L 95.651323,103.71111 L 94.751323,103.11111 L 93.751323,102.41111 L 91.451323,100.71111 L 91.451323,100.71111 L 90.251323,98.311111 L 89.551323,96.811111 L 88.551323,94.511111 L 88.451323,94.011111 L 88.151323,93.211111 L 86.551323,89.711111 L 85.451323,86.711111 L 82.051323,81.011111 L 79.551323,75.911111 L 79.251323,75.811111 L 79.251323,75.811111 L 79.751323,75.511111 L 79.751323,75.511111 L 82.351323,74.811111 L 83.051323,76.511111 L 84.251323,77.211111 L 86.551323,75.011111 L 91.351323,74.111111 L 93.251323,75.611111 L 91.851323,77.011111 L 93.551323,78.611111 L 95.351323,76.711111 L 95.351323,76.711111 L 96.351323,75.911111 L 97.851323,76.911111 L 97.851323,76.911111 L 99.251323,76.911111 L 101.15132,75.111111 L 101.15132,75.111111 L 99.551323,71.311111 L 99.951323,71.111111 L 101.05132,70.611111 L 101.35132,70.311111 L 102.15132,69.811111 L 102.35132,69.511111 L 103.95132,68.611111 L 104.35132,68.611111 L 106.85132,67.111111 L 108.65132,66.511111 L 110.65132,66.411111 z " />
  <path
     id="05320"
     style="fill:#cccccc;fill-opacity:1;fill-rule:evenodd;stroke:#000000;stroke-width:1px;stroke-linecap:butt;stroke-linejoin:miter;stroke-opacity:1"
     d="M 46.751323,48.111111 L 49.351323,51.711111 L 52.351323,53.711111 L 52.051323,56.711111 L 53.651323,58.711111 L 56.651323,64.211111 L 56.751323,64.211111 L 57.251323,65.411111 L 57.251323,65.411111 L 57.851323,64.711111 L 58.751323,65.511111 L 58.751323,65.511111 L 62.351323,62.211111 L 67.951323,59.011111 L 68.351323,57.311111 L 68.651323,55.611111 L 70.951323,54.411111 L 74.651323,51.611111 L 76.551323,50.711111 L 76.551323,50.711111 L 77.251323,52.311111 L 77.851323,57.411111 L 79.051323,60.211111 L 79.051323,60.211111 L 78.451323,61.111111 L 73.851323,66.411111 L 73.851323,66.411111 L 66.751323,69.911111 L 64.551323,73.411111 L 64.451323,74.411111 L 63.351323,76.311111 L 63.251323,76.711111 L 63.251323,76.711111 L 62.151323,75.711111 L 59.951323,77.311111 L 59.951323,77.311111 L 57.251323,80.111111 L 57.251323,80.111111 L 55.651323,80.411111 L 54.251323,81.511111 L 54.051323,82.511111 L 52.251323,84.411111 L 51.651323,84.411111 L 49.851323,81.511111 L 47.851323,79.711111 L 46.951323,79.611111 L 43.251323,78.611111 L 43.151323,78.711111 L 43.151323,78.711111 L 41.451323,79.411111 L 41.451323,79.411111 L 38.451323,82.811111 L 38.451323,82.811111 L 37.451323,83.711111 L 37.451323,83.711111 L 33.351323,86.711111 L 33.351323,86.711111 L 33.151323,86.911111 L 33.151323,86.911111 L 31.751323,87.511111 L 31.751323,87.511111 L 31.151323,85.611111 L 31.151323,85.611111 L 30.051323,82.411111 L 30.051323,82.411111 L 28.051323,76.611111 L 28.051323,76.611111 L 25.851323,69.911111 L 25.851323,69.911111 L 27.151323,69.111111 L 29.851323,69.811111 L 30.851323,67.911111 L 30.551323,67.211111 L 31.451323,65.111111 L 30.851323,61.711111 L 31.751323,59.711111 L 33.651323,59.811111 L 35.251323,58.911111 L 35.851323,57.811111 L 36.651323,57.811111 L 36.651323,57.811111 L 39.551323,56.311111 L 40.851323,55.711111 L 40.651323,54.411111 L 42.651323,53.011111 L 44.951323,53.311111 L 44.951323,53.311111 L 45.751323,50.211111 L 45.751323,50.211111 L 46.751323,48.111111 z " />
  <path
     id="71430"
     style="fill:#cccccc;fill-opacity:1;fill-rule:evenodd;stroke:#000000;stroke-width:1px;stroke-linecap:butt;stroke-linejoin:miter;stroke-opacity:1"
     d="M 84.251323,12.711111 L 84.551323,12.611111 L 85.551323,13.011111 L 85.251323,12.611111 L 86.951323,13.411111 L 87.351323,13.511111 L 88.451323,14.111111 L 88.451323,14.111111 L 89.751323,14.411111 L 89.751323,14.411111 L 89.751323,14.211111 L 89.751323,14.211111 L 94.351323,16.511111 L 94.351323,16.511111 L 94.551323,16.811111 L 94.551323,16.811111 L 95.251323,17.411111 L 96.651323,18.211111 L 96.751323,18.711111 L 96.751323,18.711111 L 97.751323,19.711111 L 99.351323,20.811111 L 104.35132,25.911111 L 105.15132,26.211111 L 105.95132,26.711111 L 105.95132,26.711111 L 110.35132,29.511111 L 110.35132,29.511111 L 110.35132,29.811111 L 110.35132,29.811111 L 111.25132,33.211111 L 109.75132,32.611111 L 107.65132,34.511111 L 106.25132,36.611111 L 106.25132,36.611111 L 105.35132,37.811111 L 103.95132,40.011111 L 101.75132,41.811111 L 96.851323,45.711111 L 96.851323,45.711111 L 91.851323,47.511111 L 91.851323,47.511111 L 90.451323,47.811111 L 88.851323,49.311111 L 88.151323,50.211111 L 85.851323,52.211111 L 85.451323,53.011111 L 85.251323,53.111111 L 85.251323,53.111111 L 84.951323,53.311111 L 84.451323,53.411111 L 82.151323,55.811111 L 79.051323,60.211111 L 79.051323,60.211111 L 77.851323,57.411111 L 77.251323,52.311111 L 76.551323,50.711111 L 76.551323,50.711111 L 76.151323,49.211111 L 77.651323,47.611111 L 77.651323,47.611111 L 75.951323,41.211111 L 74.751323,36.711111 L 74.751323,36.711111 L 74.451323,36.611111 L 74.151323,36.411111 L 70.551323,31.411111 L 70.551323,31.411111 L 71.851323,31.011111 L 72.051323,24.811111 L 72.051323,24.811111 L 74.251323,24.511111 L 75.451323,25.911111 L 79.351323,21.711111 L 78.751323,17.911111 L 80.451323,17.111111 L 82.851323,17.611111 L 84.651323,16.411111 L 84.251323,12.711111 z " />
  <path
     id="13150"
     style="fill:#cccccc;fill-opacity:1;fill-rule:evenodd;stroke:#000000;stroke-width:1px;stroke-linecap:butt;stroke-linejoin:miter;stroke-opacity:1"
     d="M 123.65132,102.31111 L 128.25132,106.01111 L 128.95132,104.91111 L 131.45132,103.31111 L 134.15132,101.01111 L 137.55132,100.11111 L 137.75132,100.01111 L 137.75132,100.01111 L 137.55132,101.31111 L 137.55132,101.31111 L 136.45132,105.01111 L 135.95132,105.51111 L 134.55132,106.91111 L 133.15132,109.51111 L 133.75132,110.01111 L 136.25132,108.21111 L 137.55132,106.31111 L 140.85132,104.41111 L 140.85132,104.41111 L 142.95132,106.81111 L 145.25132,109.41111 L 146.55132,111.11111 L 146.55132,111.11111 L 145.25132,112.01111 L 144.05132,113.01111 L 144.05132,113.01111 L 143.65132,113.11111 L 142.75132,113.81111 L 142.75132,113.81111 L 137.35132,117.51111 L 134.25132,120.01111 L 134.25132,120.01111 L 131.85132,122.91111 L 130.35132,124.51111 L 129.65132,124.51111 L 129.65132,124.51111 L 129.25132,124.71111 L 129.15132,125.61111 L 129.15132,125.61111 L 129.15132,127.51111 L 129.15132,127.51111 L 124.15132,128.21111 L 122.65132,128.21111 L 117.75132,128.91111 L 116.95132,129.11111 L 116.95132,129.11111 L 116.25132,129.61111 L 112.85132,130.91111 L 112.85132,130.91111 L 112.75132,130.21111 L 111.55132,130.21111 L 111.05132,130.21111 L 110.55132,129.81111 L 110.55132,129.81111 L 106.05132,130.41111 L 106.05132,130.41111 L 100.55132,131.11111 L 94.351323,131.91111 L 92.951323,132.11111 L 92.951323,132.11111 L 95.951323,126.31111 L 96.751323,125.51111 L 98.651323,125.51111 L 102.95132,124.51111 L 105.35132,120.81111 L 105.35132,120.81111 L 110.45132,119.31111 L 113.85132,114.41111 L 114.15132,113.81111 L 114.15132,113.81111 L 114.55132,113.21111 L 114.55132,113.21111 L 116.35132,110.91111 L 119.45132,106.91111 L 119.45132,106.91111 L 120.35132,105.01111 L 120.55132,104.71111 L 120.55132,104.71111 L 121.15132,103.91111 L 122.65132,101.71111 L 122.65132,101.71111 L 123.65132,102.31111 z " />
  <path
     id="70020"
     style="fill:#cccccc;fill-opacity:1;fill-rule:evenodd;stroke:#000000;stroke-width:1px;stroke-linecap:butt;stroke-linejoin:miter;stroke-opacity:1"
     d="M 110.35132,29.511111 L 114.45132,32.111111 L 114.45132,32.111111 L 116.45132,31.111111 L 117.55132,30.511111 L 117.55132,30.511111 L 118.85132,30.411111 L 120.85132,30.411111 L 125.55132,34.511111 L 126.75132,34.911111 L 128.45132,35.411111 L 128.45132,35.411111 L 128.95132,35.611111 L 129.95132,35.611111 L 129.95132,35.611111 L 130.85132,35.011111 L 130.85132,35.011111 L 130.95132,35.911111 L 131.95132,39.311111 L 130.25132,40.711111 L 130.65132,42.111111 L 130.45132,43.111111 L 126.95132,43.911111 L 125.15132,45.111111 L 124.65132,45.911111 L 124.25132,46.911111 L 124.55132,47.611111 L 126.45132,48.311111 L 127.05132,52.311111 L 126.75132,53.311111 L 125.75132,55.011111 L 123.45132,56.211111 L 123.45132,57.411111 L 123.45132,58.011111 L 123.65132,59.911111 L 125.75132,64.111111 L 126.55132,64.311111 L 126.55132,64.311111 L 124.55132,66.311111 L 124.55132,66.311111 L 116.95132,67.411111 L 116.95132,67.411111 L 110.55132,62.811111 L 110.55132,62.811111 L 107.05132,60.011111 L 104.05132,57.411111 L 103.45132,57.011111 L 99.951323,54.111111 L 97.151323,51.711111 L 96.451323,51.111111 L 95.251323,50.311111 L 92.151323,47.811111 L 91.851323,47.511111 L 91.851323,47.511111 L 96.851323,45.711111 L 96.851323,45.711111 L 101.75132,41.811111 L 103.95132,40.011111 L 105.35132,37.811111 L 106.25132,36.611111 L 106.25132,36.611111 L 107.65132,34.511111 L 109.75132,32.611111 L 111.25132,33.211111 L 110.35132,29.811111 L 110.35132,29.811111 L 110.35132,29.511111 z " />
  <path
     id="15640"
     style="fill:#cccccc;fill-opacity:1;fill-rule:evenodd;stroke:#000000;stroke-width:1px;stroke-linecap:butt;stroke-linejoin:miter;stroke-opacity:1"
     d="M 116.95132,67.411111 L 124.55132,66.311111 L 124.55132,66.311111 L 122.75132,70.811111 L 122.75132,70.811111 L 124.05132,70.211111 L 126.15132,69.811111 L 126.15132,69.811111 L 129.55132,71.611111 L 134.95132,70.911111 L 137.15132,70.811111 L 137.15132,70.811111 L 136.75132,71.811111 L 136.55132,72.011111 L 136.55132,72.011111 L 136.85132,72.511111 L 137.45132,73.211111 L 138.65132,73.111111 L 140.55132,76.311111 L 140.85132,77.311111 L 140.85132,77.311111 L 141.75132,83.311111 L 141.75132,83.911111 L 141.75132,83.911111 L 141.75132,84.111111 L 142.25132,84.111111 L 142.25132,84.111111 L 142.35132,84.611111 L 142.15132,85.311111 L 140.35132,87.011111 L 140.35132,87.011111 L 142.55132,87.811111 L 143.45132,91.111111 L 143.45132,91.111111 L 143.35132,93.511111 L 143.65132,93.911111 L 143.35132,97.011111 L 143.35132,97.011111 L 141.65132,98.311111 L 137.75132,100.01111 L 137.75132,100.01111 L 137.55132,100.11111 L 134.15132,101.01111 L 131.45132,103.31111 L 128.95132,104.91111 L 128.25132,106.01111 L 123.65132,102.31111 L 123.65132,102.31111 L 122.65132,101.71111 L 122.65132,101.71111 L 120.65132,99.811111 L 119.75132,99.311111 L 118.45132,98.111111 L 118.45132,98.111111 L 120.35132,95.411111 L 120.35132,95.411111 L 117.65132,93.511111 L 118.95132,92.211111 L 120.05132,91.111111 L 120.05132,91.111111 L 120.35132,90.911111 L 123.05132,87.811111 L 123.05132,87.811111 L 122.95132,87.511111 L 122.15132,87.011111 L 122.15132,87.011111 L 121.25132,86.211111 L 121.25132,86.211111 L 120.05132,85.311111 L 120.05132,85.311111 L 118.25132,84.111111 L 117.55132,84.111111 L 117.55132,84.111111 L 116.85132,84.311111 L 116.05132,85.211111 L 115.75132,85.311111 L 115.75132,85.311111 L 114.45132,85.611111 L 114.15132,85.711111 L 113.85132,84.511111 L 113.85132,84.511111 L 113.35132,80.511111 L 113.15132,79.911111 L 114.65132,76.111111 L 115.45132,73.811111 L 115.85132,73.111111 L 116.25132,69.211111 L 116.95132,67.411111 z " />
  <path
     id="48510"
     style="fill:#cccccc;fill-opacity:1;fill-rule:evenodd;stroke:#000000;stroke-width:1px;stroke-linecap:butt;stroke-linejoin:miter;stroke-opacity:1"
     d="M 91.851323,47.511111 L 92.151323,47.811111 L 95.251323,50.311111 L 96.451323,51.111111 L 97.151323,51.711111 L 99.951323,54.111111 L 103.45132,57.011111 L 104.05132,57.411111 L 107.05132,60.011111 L 110.55132,62.811111 L 110.55132,62.811111 L 110.65132,66.411111 L 110.65132,66.411111 L 108.65132,66.511111 L 106.85132,67.111111 L 104.35132,68.611111 L 103.95132,68.611111 L 102.35132,69.511111 L 102.15132,69.811111 L 101.35132,70.311111 L 101.05132,70.611111 L 99.951323,71.111111 L 99.551323,71.311111 L 101.15132,75.111111 L 101.15132,75.111111 L 99.251323,76.911111 L 97.851323,76.911111 L 97.851323,76.911111 L 96.351323,75.911111 L 95.351323,76.711111 L 95.351323,76.711111 L 93.551323,78.611111 L 91.851323,77.011111 L 93.251323,75.611111 L 91.351323,74.111111 L 86.551323,75.011111 L 84.251323,77.211111 L 83.051323,76.511111 L 82.351323,74.811111 L 79.751323,75.511111 L 79.751323,75.511111 L 79.251323,75.811111 L 79.251323,75.811111 L 76.651323,71.211111 L 76.251323,70.511111 L 75.751323,69.411111 L 73.851323,66.411111 L 73.851323,66.411111 L 78.451323,61.111111 L 79.051323,60.211111 L 79.051323,60.211111 L 82.151323,55.811111 L 84.451323,53.411111 L 84.951323,53.311111 L 85.251323,53.111111 L 85.251323,53.111111 L 85.451323,53.011111 L 85.851323,52.211111 L 88.151323,50.211111 L 88.851323,49.311111 L 90.451323,47.811111 L 91.851323,47.511111 z " />
  <path
     id="51810"
     style="fill:#cccccc;fill-opacity:1;fill-rule:evenodd;stroke:#000000;stroke-width:1px;stroke-linecap:butt;stroke-linejoin:miter;stroke-opacity:1"
     d="M 70.551323,31.411111 L 74.151323,36.411111 L 74.451323,36.611111 L 74.751323,36.711111 L 74.751323,36.711111 L 75.951323,41.211111 L 77.651323,47.611111 L 77.651323,47.611111 L 76.151323,49.211111 L 76.551323,50.711111 L 76.551323,50.711111 L 74.651323,51.611111 L 70.951323,54.411111 L 68.651323,55.611111 L 68.351323,57.311111 L 67.951323,59.011111 L 62.351323,62.211111 L 58.751323,65.511111 L 58.751323,65.511111 L 57.851323,64.711111 L 57.251323,65.411111 L 57.251323,65.411111 L 56.751323,64.211111 L 56.651323,64.211111 L 53.651323,58.711111 L 52.051323,56.711111 L 52.351323,53.711111 L 49.351323,51.711111 L 46.751323,48.111111 L 46.751323,48.111111 L 47.951323,45.611111 L 49.251323,45.511111 L 54.851323,42.611111 L 56.251323,41.411111 L 56.751323,40.211111 L 57.551323,38.211111 L 58.551323,38.911111 L 59.751323,38.411111 L 61.051323,35.311111 L 64.151323,31.411111 L 66.451323,31.511111 L 66.451323,31.511111 L 68.351323,32.011111 L 68.351323,32.011111 L 70.551323,31.411111 z " />
  <path
     id="61530"
     style="fill:#cccccc;fill-opacity:1;fill-rule:evenodd;stroke:#000000;stroke-width:1px;stroke-linecap:butt;stroke-linejoin:miter;stroke-opacity:1"
     d="M 146.55132,111.11111 L 147.95132,112.81111 L 151.75132,117.71111 L 151.75132,117.71111 L 152.85132,119.11111 L 152.85132,119.11111 L 153.35132,119.61111 L 154.05132,120.51111 L 158.75132,126.31111 L 159.95132,130.61111 L 159.05132,133.01111 L 158.85132,133.21111 L 158.65132,133.41111 L 158.65132,133.41111 L 157.55132,137.41111 L 153.45132,138.41111 L 153.45132,138.41111 L 148.75132,139.51111 L 144.45132,140.61111 L 144.45132,140.61111 L 144.05132,140.71111 L 138.95132,141.91111 L 138.95132,141.91111 L 137.05132,142.41111 L 137.05132,142.41111 L 136.75132,142.21111 L 136.25132,141.71111 L 136.05132,141.41111 L 134.55132,140.11111 L 134.55132,140.11111 L 134.45132,140.01111 L 133.25132,138.91111 L 132.65132,138.41111 L 130.85132,136.91111 L 127.65132,134.81111 L 127.65132,134.81111 L 128.25132,132.91111 L 128.35132,132.61111 L 128.95132,130.41111 L 128.95132,130.41111 L 128.05132,129.61111 L 129.05132,128.91111 L 129.15132,127.51111 L 129.15132,127.51111 L 129.15132,125.61111 L 129.15132,125.61111 L 129.25132,124.71111 L 129.65132,124.51111 L 129.65132,124.51111 L 130.35132,124.51111 L 131.85132,122.91111 L 134.25132,120.01111 L 134.25132,120.01111 L 137.35132,117.51111 L 142.75132,113.81111 L 142.75132,113.81111 L 143.65132,113.11111 L 144.05132,113.01111 L 144.05132,113.01111 L 145.25132,112.01111 L 146.55132,111.11111 z " />
  <path
     id="31980"
     style="fill:#cccccc;fill-opacity:1;fill-rule:evenodd;stroke:#000000;stroke-width:1px;stroke-linecap:butt;stroke-linejoin:miter;stroke-opacity:1"
     d="M 167.65132,37.411111 L 167.95132,37.511111 L 168.45132,37.511111 L 168.45132,37.511111 L 171.75132,38.511111 L 171.75132,38.511111 L 172.85132,38.811111 L 175.25132,39.311111 L 175.95132,39.411111 L 177.75132,39.911111 L 177.75132,39.911111 L 178.45132,40.011111 L 179.25132,40.211111 L 179.25132,40.211111 L 179.85132,40.411111 L 181.65132,40.711111 L 181.65132,40.711111 L 182.45132,41.111111 L 183.25132,42.011111 L 183.55132,42.211111 L 183.55132,42.211111 L 184.35132,43.011111 L 188.15132,46.511111 L 188.85132,48.011111 L 191.05132,55.711111 L 191.05132,55.711111 L 186.95132,57.011111 L 186.95132,57.011111 L 187.05132,58.311111 L 187.25132,59.011111 L 187.25132,59.011111 L 185.25132,63.211111 L 184.55132,64.711111 L 183.95132,66.011111 L 182.05132,69.111111 L 182.05132,69.111111 L 179.45132,67.511111 L 179.95132,64.911111 L 176.75132,60.411111 L 174.35132,59.511111 L 173.55132,59.011111 L 172.25132,59.111111 L 172.05132,56.211111 L 171.45132,54.611111 L 171.85132,54.211111 L 170.75132,51.811111 L 169.95132,50.811111 L 168.65132,50.911111 L 166.05132,49.311111 L 164.25132,46.511111 L 165.75132,43.611111 L 165.75132,42.411111 L 165.95132,40.911111 L 167.55132,37.711111 L 167.65132,37.411111 z " />
  <path
     id="64620"
     style="fill:#cccccc;fill-opacity:1;fill-rule:evenodd;stroke:#000000;stroke-width:1px;stroke-linecap:butt;stroke-linejoin:miter;stroke-opacity:1"
     d="M 166.25132,79.611111 L 167.75132,79.211111 L 168.45132,80.011111 L 169.35132,80.911111 L 170.45132,81.811111 L 171.15132,82.511111 L 171.15132,82.511111 L 172.85132,84.111111 L 173.65132,85.311111 L 174.35132,86.211111 L 174.85132,87.311111 L 174.85132,87.311111 L 173.15132,88.911111 L 170.35132,91.111111 L 168.35132,92.211111 L 166.75132,92.811111 L 164.85132,93.611111 L 164.35132,94.311111 L 162.45132,95.711111 L 162.25132,95.811111 L 161.65132,95.911111 L 158.95132,96.711111 L 158.25132,97.411111 L 157.75132,97.911111 L 157.25132,98.811111 L 156.85132,99.311111 L 154.75132,102.41111 L 154.75132,102.41111 L 153.65132,101.51111 L 152.45132,100.21111 L 152.05132,99.911111 L 151.85132,99.611111 L 151.45132,99.311111 L 149.05132,96.811111 L 148.65132,96.411111 L 148.25132,96.111111 L 145.75132,93.411111 L 145.05132,92.611111 L 143.65132,91.311111 L 143.65132,91.311111 L 143.45132,91.111111 L 143.45132,91.111111 L 142.55132,87.811111 L 140.35132,87.011111 L 140.35132,87.011111 L 142.15132,85.311111 L 142.35132,84.611111 L 142.25132,84.111111 L 142.25132,84.111111 L 143.85132,83.911111 L 146.25132,83.411111 L 148.85132,82.911111 L 153.05132,82.111111 L 157.05132,81.511111 L 159.25132,81.011111 L 163.75132,80.111111 L 164.55132,79.911111 L 166.25132,79.611111 z " />
  <path
     id="36690"
     style="fill:#cccccc;fill-opacity:1;fill-rule:evenodd;stroke:#000000;stroke-width:1px;stroke-linecap:butt;stroke-linejoin:miter;stroke-opacity:1"
     d="M 135.85132,55.911111 L 136.65132,59.811111 L 140.85132,57.811111 L 140.85132,57.811111 L 141.75132,59.711111 L 142.55132,60.011111 L 145.15132,58.411111 L 145.75132,57.011111 L 144.65132,56.211111 L 146.15132,55.111111 L 148.35132,55.411111 L 148.45132,56.111111 L 147.05132,57.011111 L 146.95132,61.411111 L 150.05132,64.611111 L 149.55132,65.611111 L 149.55132,65.611111 L 150.15132,65.811111 L 151.35132,66.611111 L 151.35132,66.611111 L 148.15132,70.911111 L 149.95132,73.111111 L 149.95132,73.111111 L 146.95132,73.511111 L 147.35132,73.911111 L 147.15132,75.811111 L 147.15132,75.811111 L 145.85132,76.111111 L 144.25132,76.811111 L 142.25132,77.911111 L 141.95132,78.111111 L 141.55132,77.111111 L 140.85132,77.211111 L 140.85132,77.311111 L 140.85132,77.311111 L 140.55132,76.311111 L 138.65132,73.111111 L 137.45132,73.211111 L 136.85132,72.511111 L 136.55132,72.011111 L 136.55132,72.011111 L 136.75132,71.811111 L 137.15132,70.811111 L 137.15132,70.811111 L 134.95132,70.911111 L 129.55132,71.611111 L 126.15132,69.811111 L 126.15132,69.811111 L 124.05132,70.211111 L 122.75132,70.811111 L 122.75132,70.811111 L 124.55132,66.311111 L 124.55132,66.311111 L 126.55132,64.311111 L 126.55132,64.311111 L 127.05132,63.711111 L 127.65132,61.311111 L 129.25132,60.611111 L 130.95132,60.511111 L 132.25132,60.811111 L 132.25132,60.811111 L 132.25132,58.411111 L 134.35132,56.111111 L 134.85132,56.111111 L 135.65132,56.011111 L 135.85132,55.911111 z " />
  <path
     id="22860"
     style="fill:#cccccc;fill-opacity:1;fill-rule:evenodd;stroke:#000000;stroke-width:1px;stroke-linecap:butt;stroke-linejoin:miter;stroke-opacity:1"
     d="M 82.151323,94.311111 L 83.651323,94.111111 L 83.951323,94.811111 L 83.951323,94.811111 L 83.851323,95.311111 L 84.151323,95.711111 L 83.251323,96.911111 L 82.751323,97.911111 L 83.251323,98.411111 L 83.251323,98.411111 L 81.351323,103.21111 L 81.351323,103.21111 L 79.451323,105.61111 L 76.951323,106.81111 L 75.851323,108.41111 L 75.851323,108.41111 L 74.351323,107.21111 L 73.751323,106.81111 L 72.351323,105.71111 L 71.451323,105.11111 L 69.851323,103.81111 L 69.451323,103.61111 L 67.851323,102.41111 L 64.751323,99.911111 L 64.251323,99.511111 L 64.251323,99.511111 L 67.351323,96.611111 L 68.951323,94.911111 L 68.651323,94.711111 L 69.351323,93.911111 L 69.951323,93.711111 L 69.951323,93.711111 L 74.451323,88.311111 L 74.451323,88.311111 L 77.551323,90.711111 L 77.751323,90.811111 L 78.151323,91.311111 L 81.451323,93.711111 L 82.151323,94.311111 z " />
  <path
     id="64650"
     style="fill:#cccccc;fill-opacity:1;fill-rule:evenodd;stroke:#000000;stroke-width:1px;stroke-linecap:butt;stroke-linejoin:miter;stroke-opacity:1"
     d="M 161.25132,73.611111 L 162.05132,74.211111 L 162.75132,74.511111 L 164.55132,75.811111 L 165.25132,76.511111 L 166.05132,78.911111 L 166.05132,78.911111 L 166.25132,79.611111 L 166.25132,79.611111 L 164.55132,79.911111 L 163.75132,80.111111 L 159.25132,81.011111 L 157.05132,81.511111 L 153.05132,82.111111 L 148.85132,82.911111 L 146.25132,83.411111 L 143.85132,83.911111 L 142.25132,84.111111 L 142.25132,84.111111 L 141.75132,84.111111 L 141.75132,83.911111 L 141.75132,83.911111 L 141.75132,83.311111 L 140.85132,77.311111 L 140.85132,77.311111 L 140.85132,77.211111 L 141.55132,77.111111 L 141.95132,78.111111 L 142.25132,77.911111 L 144.25132,76.811111 L 145.85132,76.111111 L 147.15132,75.811111 L 147.15132,75.811111 L 147.35132,73.911111 L 146.95132,73.511111 L 149.95132,73.111111 L 149.95132,73.111111 L 150.15132,73.111111 L 150.85132,72.911111 L 152.05132,72.611111 L 153.55132,72.611111 L 153.55132,72.611111 L 155.15132,72.211111 L 155.15132,72.211111 L 156.35132,71.911111 L 158.35132,71.611111 L 158.35132,71.611111 L 158.75132,71.811111 L 159.15132,72.111111 L 161.25132,73.611111 z " />
  <path
     id="25800"
     style="fill:#cccccc;fill-opacity:1;fill-rule:evenodd;stroke:#000000;stroke-width:1px;stroke-linecap:butt;stroke-linejoin:miter;stroke-opacity:1"
     d="M 117.55132,84.111111 L 118.25132,84.111111 L 120.05132,85.311111 L 120.05132,85.311111 L 121.25132,86.211111 L 121.25132,86.211111 L 122.15132,87.011111 L 122.15132,87.011111 L 122.95132,87.511111 L 123.05132,87.811111 L 123.05132,87.811111 L 120.35132,90.911111 L 120.05132,91.111111 L 120.05132,91.111111 L 118.95132,92.211111 L 117.65132,93.511111 L 120.35132,95.411111 L 120.35132,95.411111 L 118.45132,98.111111 L 118.45132,98.111111 L 116.95132,97.111111 L 114.25132,94.711111 L 113.95132,94.511111 L 110.65132,92.611111 L 109.55132,91.511111 L 110.25132,90.711111 L 109.85132,89.811111 L 110.25132,89.211111 L 110.75132,88.311111 L 111.65132,86.211111 L 113.85132,84.511111 L 113.85132,84.511111 L 114.15132,85.711111 L 114.45132,85.611111 L 115.75132,85.311111 L 115.75132,85.311111 L 116.05132,85.211111 L 116.85132,84.311111 L 117.55132,84.111111 z " />
  <path
     id="81650"
     style="fill:#cccccc;fill-opacity:1;fill-rule:evenodd;stroke:#000000;stroke-width:1px;stroke-linecap:butt;stroke-linejoin:miter;stroke-opacity:1"
     d="M 137.55132,101.31111 L 139.65132,100.51111 L 141.75132,103.21111 L 141.75132,103.21111 L 141.85132,103.61111 L 141.85132,103.61111 L 140.85132,104.41111 L 140.85132,104.41111 L 137.55132,106.31111 L 136.25132,108.21111 L 133.75132,110.01111 L 133.15132,109.51111 L 134.55132,106.91111 L 135.95132,105.51111 L 136.45132,105.01111 L 137.55132,101.31111 z " />
  <path
     id="path3345"
     style="fill:none;fill-opacity:1;fill-rule:evenodd;stroke:#000000;stroke-width:3px;stroke-linecap:butt;stroke-linejoin:miter;stroke-opacity:1"
     d="M 84.251323,12.711111 L 84.551323,12.611111 L 85.551323,13.011111 L 85.251323,12.611111 L 86.951323,13.411111 L 87.351323,13.511111 L 88.451323,14.111111 L 88.451323,14.111111 L 89.751323,14.411111 L 89.751323,14.411111 L 89.751323,14.211111 L 89.751323,14.211111 L 94.351323,16.511111 L 94.351323,16.511111 L 94.551323,16.811111 L 94.551323,16.811111 L 95.251323,17.411111 L 96.651323,18.211111 L 96.751323,18.711111 L 96.751323,18.711111 L 97.751323,19.711111 L 99.351323,20.811111 L 104.35132,25.911111 L 105.15132,26.211111 L 105.95132,26.711111 L 105.95132,26.711111 L 110.35132,29.511111 L 114.45132,32.111111 L 114.45132,32.111111 L 116.45132,31.111111 L 117.55132,30.511111 L 117.55132,30.511111 L 118.85132,30.411111 L 120.85132,30.411111 L 125.55132,34.511111 L 126.75132,34.911111 L 128.45132,35.411111 L 128.45132,35.411111 L 128.95132,35.611111 L 129.95132,35.611111 L 129.95132,35.611111 L 130.85132,35.011111 L 130.85132,35.011111 L 131.45132,34.711111 L 132.25132,34.211111 L 132.25132,34.211111 L 132.85132,33.711111 L 132.85132,33.711111 L 132.95132,33.111111 L 134.55132,32.711111 L 134.85132,31.911111 L 134.85132,31.311111 L 135.15132,30.311111 L 136.45132,28.611111 L 137.35132,28.511111 L 137.35132,28.511111 L 140.85132,27.811111 L 140.85132,27.811111 L 141.35132,28.011111 L 142.05132,28.311111 L 144.95132,29.411111 L 145.55132,29.611111 L 146.25132,29.911111 L 146.45132,29.911111 L 146.95132,30.211111 L 148.35132,30.711111 L 149.65132,31.311111 L 151.05132,31.911111 L 151.45132,32.011111 L 152.75132,32.611111 L 153.25132,32.811111 L 153.25132,32.811111 L 155.45132,33.611111 L 155.45132,33.611111 L 155.85132,33.911111 L 157.35132,34.411111 L 160.05132,35.611111 L 160.35132,35.611111 L 162.75132,36.211111 L 164.85132,36.711111 L 166.85132,37.211111 L 166.85132,37.211111 L 166.95132,37.211111 L 167.65132,37.411111 L 167.95132,37.511111 L 168.45132,37.511111 L 168.45132,37.511111 L 171.75132,38.511111 L 171.75132,38.511111 L 172.85132,38.811111 L 175.25132,39.311111 L 175.95132,39.411111 L 177.75132,39.911111 L 178.45132,40.011111 L 179.25132,40.211111 L 179.25132,40.211111 L 179.85132,40.411111 L 181.65132,40.711111 L 181.65132,40.711111 L 182.45132,41.111111 L 183.25132,42.011111 L 183.55132,42.211111 L 183.55132,42.211111 L 184.35132,43.011111 L 188.15132,46.511111 L 188.85132,48.011111 L 191.05132,55.711111 L 191.35132,55.911111 L 191.95132,56.311111 L 194.25132,57.811111 L 195.75132,58.911111 L 197.95132,58.811111 L 198.65132,58.711111 L 198.65132,58.711111 L 201.35132,58.511111 L 201.65132,58.411111 L 210.55132,57.511111 L 216.85132,57.211111 L 217.85132,56.111111 L 219.75132,55.811111 L 221.15132,56.311111 L 222.05132,56.411111 L 223.75132,59.311111 L 226.95132,59.611111 L 231.25132,63.611111 L 238.75132,69.411111 L 238.75132,69.411111 L 237.55132,71.211111 L 236.25132,73.211111 L 228.25132,86.311111 L 223.05132,94.811111 L 222.55132,96.411111 L 222.55132,96.411111 L 209.45132,94.311111 L 206.15132,94.711111 L 204.95132,95.911111 L 204.85132,95.911111 L 204.15132,96.711111 L 202.65132,98.611111 L 199.35132,102.91111 L 196.65132,106.41111 L 195.55132,107.91111 L 194.85132,115.81111 L 194.35132,120.61111 L 193.55132,129.71111 L 192.65132,139.91111 L 192.65132,139.91111 L 191.75132,139.31111 L 188.65132,136.21111 L 188.15132,133.11111 L 186.85132,131.31111 L 185.95132,131.11111 L 184.65132,133.31111 L 181.35132,134.91111 L 178.05132,135.21111 L 176.15132,136.31111 L 175.75132,136.01111 L 174.65132,135.01111 L 174.15132,133.61111 L 173.45132,133.11111 L 173.45132,133.11111 L 172.95132,132.71111 L 172.95132,132.71111 L 171.85132,132.81111 L 170.75132,134.31111 L 169.05132,135.11111 L 165.65132,135.21111 L 161.65132,134.41111 L 160.35132,133.41111 L 158.65132,133.41111 L 157.55132,137.41111 L 153.45132,138.41111 L 153.45132,138.41111 L 148.75132,139.51111 L 144.45132,140.61111 L 144.45132,140.61111 L 144.05132,140.71111 L 138.95132,141.91111 L 138.95132,141.91111 L 137.05132,142.41111 L 137.05132,142.41111 L 136.75132,142.21111 L 136.25132,141.71111 L 136.05132,141.41111 L 134.55132,140.11111 L 134.55132,140.11111 L 134.45132,140.01111 L 133.25132,138.91111 L 132.65132,138.41111 L 130.85132,136.91111 L 127.65132,134.81111 L 127.65132,134.81111 L 128.25132,132.91111 L 128.35132,132.61111 L 128.95132,130.41111 L 128.95132,130.41111 L 128.05132,129.61111 L 129.05132,128.91111 L 129.15132,127.51111 L 129.15132,127.51111 L 124.15132,128.21111 L 122.65132,128.21111 L 117.75132,128.91111 L 116.95132,129.11111 L 116.95132,129.11111 L 116.25132,129.61111 L 112.85132,130.91111 L 112.85132,130.91111 L 112.75132,130.21111 L 111.55132,130.21111 L 111.05132,130.21111 L 110.55132,129.81111 L 110.55132,129.81111 L 106.05132,130.41111 L 100.55132,131.11111 L 94.351323,131.91111 L 92.951323,132.11111 L 83.551323,133.21111 L 80.151323,133.61111 L 69.251323,134.51111 L 64.251323,135.01111 L 60.851323,135.41111 L 55.151323,136.01111 L 55.151323,136.01111 L 51.951323,136.51111 L 49.451323,136.71111 L 48.251323,136.91111 L 48.251323,136.91111 L 41.251323,137.71111 L 40.551323,137.81111 L 36.451323,138.31111 L 35.551323,138.41111 L 29.351323,139.21111 L 28.351323,139.21111 L 27.451323,140.01111 L 24.251323,136.21111 L 24.251323,136.21111 L 25.151323,135.91111 L 25.151323,135.91111 L 26.551323,135.61111 L 26.751323,134.41111 L 27.751323,133.31111 L 27.751323,133.31111 L 29.251323,133.11111 L 29.551323,131.71111 L 31.751323,132.01111 L 31.751323,132.01111 L 32.851323,130.51111 L 32.851323,130.51111 L 33.851323,128.41111 L 35.851323,127.21111 L 36.751323,127.41111 L 41.051323,126.41111 L 43.551323,123.41111 L 43.651323,123.31111 L 43.651323,123.31111 L 43.751323,123.11111 L 43.751323,123.11111 L 46.351323,121.11111 L 47.651323,120.11111 L 48.051323,119.51111 L 49.151323,118.51111 L 50.151323,117.01111 L 50.151323,117.01111 L 49.951323,116.81111 L 50.251323,113.81111 L 51.151323,112.61111 L 51.151323,112.61111 L 51.451323,112.61111 L 51.451323,112.61111 L 51.751323,112.21111 L 51.751323,112.21111 L 53.551323,111.21111 L 54.451323,109.41111 L 54.451323,109.41111 L 54.451323,109.41111 L 54.451323,109.41111 L 54.451323,109.11111 L 54.451323,109.11111 L 54.751323,108.01111 L 54.751323,108.01111 L 55.451323,107.11111 L 55.451323,107.11111 L 55.651323,105.91111 L 55.651323,105.91111 L 55.751323,102.11111 L 55.851323,101.31111 L 55.851323,101.31111 L 56.651323,99.311111 L 56.651323,99.311111 L 57.051323,98.211111 L 57.651323,97.911111 L 57.651323,97.911111 L 58.651323,97.711111 L 58.651323,97.711111 L 60.151323,96.111111 L 60.951323,94.211111 L 60.951323,94.211111 L 61.351323,92.711111 L 61.351323,92.711111 L 61.151323,91.911111 L 63.151323,87.011111 L 63.751323,85.611111 L 63.451323,82.411111 L 64.351323,79.511111 L 64.151323,78.411111 L 63.251323,76.711111 L 62.151323,75.711111 L 59.951323,77.311111 L 59.951323,77.311111 L 57.251323,80.111111 L 57.251323,80.111111 L 55.651323,80.411111 L 54.251323,81.511111 L 54.051323,82.511111 L 52.251323,84.411111 L 51.651323,84.411111 L 49.851323,81.511111 L 47.851323,79.711111 L 46.951323,79.611111 L 43.251323,78.611111 L 43.151323,78.711111 L 43.151323,78.711111 L 41.451323,79.411111 L 41.451323,79.411111 L 38.451323,82.811111 L 38.451323,82.811111 L 37.451323,83.711111 L 37.451323,83.711111 L 33.351323,86.711111 L 33.351323,86.711111 L 33.151323,86.911111 L 33.151323,86.911111 L 31.751323,87.511111 L 31.751323,87.511111 L 31.151323,85.611111 L 31.151323,85.611111 L 30.051323,82.411111 L 30.051323,82.411111 L 28.051323,76.611111 L 28.051323,76.611111 L 25.851323,69.911111 L 25.851323,69.911111 L 27.151323,69.111111 L 29.851323,69.811111 L 30.851323,67.911111 L 30.551323,67.211111 L 31.451323,65.111111 L 30.851323,61.711111 L 31.751323,59.711111 L 33.651323,59.811111 L 35.251323,58.911111 L 35.851323,57.811111 L 36.651323,57.811111 L 39.551323,56.311111 L 40.851323,55.711111 L 40.651323,54.411111 L 42.651323,53.011111 L 44.951323,53.311111 L 44.951323,53.311111 L 45.751323,50.211111 L 45.751323,50.211111 L 46.751323,48.111111 L 47.951323,45.611111 L 49.251323,45.511111 L 54.851323,42.611111 L 56.251323,41.411111 L 56.751323,40.211111 L 57.551323,38.211111 L 58.551323,38.911111 L 59.751323,38.411111 L 61.051323,35.311111 L 64.151323,31.411111 L 66.451323,31.511111 L 66.451323,31.511111 L 68.351323,32.011111 L 68.351323,32.011111 L 70.551323,31.411111 L 71.851323,31.011111 L 72.051323,24.811111 L 74.251323,24.511111 L 75.451323,25.911111 L 79.351323,21.711111 L 78.751323,17.911111 L 80.451323,17.111111 L 82.851323,17.611111 L 84.651323,16.411111 L 84.251323,12.711111 z " />
  <g
     id="g3347"
     transform="matrix(0.5999972,0,0,0.5999972,236.1647,34.648701)">
    <path
       id="037"       style="opacity:1;color:#000000;fill:#e8e2b7;fill-opacity:1;fill-rule:evenodd;stroke:#000000;stroke-width:0.49983701;stroke-linecap:butt;stroke-linejoin:miter;marker:none;marker-start:none;marker-mid:none;marker-end:none;stroke-miterlimit:4;stroke-dasharray:none;stroke-dashoffset:0;stroke-opacity:1;visibility:visible;display:inline;overflow:visible;enable-background:accumulate"
       d="M 92.338737,15.884 C 85.407162,24.2247 77.719653,32.047323 71.387581,40.784698 C 72.571412,42.514057 70.738588,44.441599 69.599777,45.306702 C 68.155053,46.273309 67.334423,46.704182 65.8489,47.059502 C 65.987441,45.235269 63.557632,44.377784 62.308361,45.774101 C 59.796525,44.532208 58.153127,40.976992 55.975101,38.833302 C 52.645391,34.984074 49.661912,30.370796 46.17141,26.9613 C 44.019352,29.376714 44.684724,24.831224 46.61544,25.103399 C 48.730761,23.521956 50.925756,21.887122 52.101911,19.325143 C 52.916549,17.757217 55.204933,15.164647 54.273916,13.541768 C 54.355337,11.377869 56.182403,10.604379 56.348608,8.4087902 C 56.737337,6.3580112 60.367276,5.8567885 59.70261,3.8485 C 61.432386,3.7876837 62.183792,2.6146161 62.857552,1.2309999 C 65.935126,1.0805465 68.230773,-0.68245919 70.762952,2.225244 C 78.032601,6.6527908 85.245296,11.18266 92.338737,15.884 z "
 />    <path
       id="031"       style="opacity:1;color:#000000;fill:#e8e2b7;fill-opacity:1;fill-rule:evenodd;stroke:#000000;stroke-width:0.49983701;stroke-linecap:butt;stroke-linejoin:miter;marker:none;marker-start:none;marker-mid:none;marker-end:none;stroke-miterlimit:4;stroke-dasharray:none;stroke-dashoffset:0;stroke-opacity:1;visibility:visible;display:inline;overflow:visible;enable-background:accumulate"
       d="M 92.338737,15.884 C 96.201352,18.261286 99.969845,20.788105 103.98866,22.906601 C 102.78003,26.997904 100.47322,30.98861 99.793747,35.094101 C 100.99829,38.299432 104.21107,39.052386 107.30719,39.055302 C 107.11444,37.813119 110.42199,40.104701 109.36374,41.205299 C 108.9926,42.579253 109.43738,43.95808 110.31023,44.664101 C 110.29812,46.403647 109.9659,48.403674 111.654,49.5951 C 112.8908,51.731473 111.1416,50.463343 111.17491,52.364498 C 111.80714,55.513384 109.81579,55.182697 108.0784,53.3927 C 105.73158,51.60536 104.45149,50.680637 102.0139,49.022598 C 100.44219,49.139747 99.153385,47.332199 99.71196,45.984501 C 100.84111,46.075454 97.294222,44.685694 98.648621,43.764301 C 99.465625,42.161251 99.001447,40.19138 98.917381,39.1721 C 97.195922,39.591314 98.376748,36.163502 96.989357,36.835098 C 95.210022,36.597166 93.768562,36.085162 92.642548,35.409599 C 90.957295,35.988602 89.847938,34.879554 88.447639,33.8321 C 86.49794,35.810512 88.202415,32.886879 86.589729,31.8106 C 85.429807,29.90785 83.037791,33.665667 82.032593,32.792099 C 81.901251,30.852866 84.285258,29.462441 82.231239,28.1415 C 83.286724,25.665433 86.49482,22.905359 88.471008,20.359301 C 89.765177,18.871723 91.053582,17.379385 92.338737,15.884 z "
 />    <path
       id="003"       style="opacity:1;color:#000000;fill:#e8e2b7;fill-opacity:1;fill-rule:evenodd;stroke:#000000;stroke-width:0.49983701;stroke-linecap:butt;stroke-linejoin:miter;marker:none;marker-start:none;marker-mid:none;marker-end:none;stroke-miterlimit:4;stroke-dasharray:none;stroke-dashoffset:0;stroke-opacity:1;visibility:visible;display:inline;overflow:visible;enable-background:accumulate"
       d="M 103.98866,22.906601 C 112.00789,27.366817 119.85472,32.224432 127.76758,36.811798 C 129.34659,38.282851 126.65808,42.51428 126.68087,45.026299 C 125.37642,49.238141 123.72863,53.477329 121.65634,57.412399 C 121.2045,56.497074 119.45382,55.910129 119.43619,54.841702 C 118.36989,55.841152 117.29707,56.332248 115.4603,57.012361 C 113.76234,57.717085 113.92684,60.395351 113.2081,61.093102 C 113.09136,58.227464 111.3082,61.105558 110.59067,59.679298 C 109.26322,58.906549 109.4243,58.209118 109.7844,56.839802 C 110.00884,55.094981 111.73791,54.361791 111.19828,52.294399 C 111.23162,50.463313 113.01508,51.493888 111.43198,49.326401 C 109.6514,48.270219 110.76756,45.760052 109.99473,44.605598 C 109.56006,43.530118 108.88847,42.444506 109.41048,41.018398 C 109.90571,39.524367 107.20535,38.061396 106.74787,38.998553 C 103.59484,39.260214 100.23539,37.53313 99.72364,34.334599 C 101.15319,30.528211 102.61865,26.735146 103.98866,22.906601 z "
 />    <path
       id="041"       style="opacity:1;color:#000000;fill:#e8e2b7;fill-opacity:1;fill-rule:evenodd;stroke:#000000;stroke-width:0.49983701;stroke-linecap:butt;stroke-linejoin:miter;marker:none;marker-start:none;marker-mid:none;marker-end:none;stroke-miterlimit:4;stroke-dasharray:none;stroke-dashoffset:0;stroke-opacity:1;visibility:visible;display:inline;overflow:visible;enable-background:accumulate"
       d="M 46.638809,27.16 C 51.621305,33.433161 56.631478,39.682561 61.72411,45.867599 C 60.703275,47.109891 58.903572,48.059613 58.849602,49.665199 C 59.252834,51.476654 57.51297,52.674453 57.131908,54.0588 C 56.693351,55.206925 55.572797,57.346074 54.30415,57.213699 C 53.200567,58.581346 51.202879,58.910524 50.681808,60.754299 C 49.12135,62.63774 47.439984,64.737906 46.07793,66.620102 C 44.51912,67.586866 42.274011,68.431692 40.60936,69.786797 C 37.999914,70.53255 36.68916,73.699061 34.019039,74.378998 C 32.280044,75.284814 31.357806,76.112667 30.408381,78.001297 C 29.210217,80.166183 27.60032,75.437667 29.39179,75.570801 C 29.63428,73.803253 27.547261,72.161262 29.894239,71.083801 C 31.682153,69.052458 27.691814,70.183832 28.375191,68.139198 C 28.495839,66.163476 31.214676,64.364652 28.90102,62.729 C 30.052192,61.42789 30.511302,58.358167 33.06772,59.984256 C 34.174594,59.329748 36.171733,58.165964 36.285919,56.535999 C 37.854709,55.390452 37.644056,54.088905 36.507938,52.890301 C 37.548444,51.89614 40.089303,52.808247 40.083542,50.331299 C 38.111448,48.68751 38.794648,45.948429 36.694901,44.558899 C 35.243513,43.347712 35.5468,40.042601 33.972301,39.908298 C 32.786259,37.319005 36.257642,36.256895 37.828339,35.023998 C 40.608417,34.315561 42.479421,32.472334 43.191738,29.8358 C 44.043659,28.956527 46.760572,28.326674 46.638809,27.16 z "
 />    <path
       id="027"       style="opacity:1;color:#000000;fill:#e8e2b7;fill-opacity:1;fill-rule:evenodd;stroke:#000000;stroke-width:0.49983701;stroke-linecap:butt;stroke-linejoin:miter;marker:none;marker-start:none;marker-mid:none;marker-end:none;stroke-miterlimit:4;stroke-dasharray:none;stroke-dashoffset:0;stroke-opacity:1;visibility:visible;display:inline;overflow:visible;enable-background:accumulate"
       d="M 81.93911,27.954599 C 84.154871,29.00743 82.370164,30.38651 82.266289,32.0443 C 81.747942,34.559893 84.717889,30.826236 86.192436,31.214701 C 87.783939,32.046599 86.90649,35.663254 87.956871,34.077499 C 89.46873,33.784135 90.394896,35.863676 92.023239,35.6082 C 93.73585,35.207278 94.571035,36.803065 96.673026,36.877185 C 98.663634,35.458506 96.897379,39.371105 98.531769,38.856602 C 99.478258,39.318246 98.913091,41.087453 99.069283,42.549099 C 97.836727,44.064153 98.723768,45.235984 100.00408,45.972801 C 99.774993,46.010565 99.054158,48.619608 98.882317,46.989399 C 97.816827,46.66086 96.543989,46.440857 95.119759,46.194801 C 94.316992,47.651376 94.639517,48.536555 94.582253,50.109299 C 96.165372,50.598914 96.112492,50.921298 95.318413,52.7267 C 95.437021,53.928228 94.828051,55.867972 93.612396,56.617802 C 91.808693,57.512664 92.598797,60.396492 91.766167,61.3736 C 93.325657,61.324349 92.85251,62.678556 91.98819,63.3951 C 91.706111,64.964843 90.389292,65.336138 89.207161,66.596802 C 87.913596,67.253907 87.162921,68.70278 85.841888,69.331001 C 85.837399,71.474116 82.132128,70.718822 81.448341,72.743103 C 79.364314,73.316396 80.146834,70.422462 80.127937,69.237602 C 82.347108,68.223351 79.750077,66.517735 79.91761,64.9842 C 78.125581,64.732652 79.081687,61.220314 76.882702,61.989501 C 72.705864,63.137814 68.552726,64.769121 64.353233,65.6035 C 62.471803,63.756745 59.466619,63.50816 57.155281,63.103001 C 56.167045,61.289686 52.809027,59.823867 52.76173,58.2887 C 54.227901,57.497348 55.188073,57.213922 56.243858,55.671299 C 57.41667,54.519712 57.280693,52.945837 58.312099,51.978901 C 59.598142,50.488683 58.170452,48.620009 60.029789,47.480099 C 61.187844,46.057206 62.837557,45.262876 64.505127,44.9562 C 65.87624,45.626867 65.621494,48.117137 67.216049,46.428501 C 68.085349,46.659889 69.474592,45.261049 70.593002,44.6991 C 72.375835,43.049513 70.631706,40.487342 72.711263,38.79372 C 75.742911,35.150179 78.728719,31.415507 81.93911,27.954599 z "
 />    <path
       id="013"       style="opacity:1;color:#000000;fill:#e8e2b7;fill-opacity:1;fill-rule:evenodd;stroke:#000000;stroke-width:0.49983701;stroke-linecap:butt;stroke-linejoin:miter;marker:none;marker-start:none;marker-mid:none;marker-end:none;stroke-miterlimit:4;stroke-dasharray:none;stroke-dashoffset:0;stroke-opacity:1;visibility:visible;display:inline;overflow:visible;enable-background:accumulate"
       d="M 98.730423,47.538601 C 100.18843,46.840933 100.66274,49.338903 102.46961,49.326401 C 104.9314,50.986952 106.24022,52.04995 108.80183,53.910357 C 111.13098,54.772496 109.68017,55.620024 109.87788,57.412399 C 109.37356,59.523325 107.1147,61.555943 108.16019,63.8508 C 110.08329,63.798255 112.4014,62.191611 111.3385,65.872299 C 112.73055,67.940704 109.72591,71.638015 108.18356,68.606598 C 106.89555,68.548109 104.32069,69.776132 104.22236,67.473099 C 102.73265,66.128645 100.41856,66.349114 98.683678,65.311401 C 97.81814,65.752658 97.186327,66.815892 96.112984,65.615196 C 94.576691,65.88638 93.244476,63.650636 91.98819,63.3951 C 92.85251,62.678556 93.325657,61.324349 91.766167,61.3736 C 92.599294,60.417242 91.786009,57.474552 93.612396,56.617802 C 94.775246,55.857493 95.390203,53.920512 95.318413,52.7267 C 96.134888,50.868311 96.147134,50.587492 94.582253,50.109299 C 94.644982,48.513179 94.313219,47.667513 95.119759,46.194801 C 96.553276,46.42397 97.812765,46.667905 98.882317,46.989399 L 98.5084,47.129601 L 98.730423,47.538601 z "
 />    <path
       id="017"       style="opacity:1;color:#000000;fill:#e8e2b7;fill-opacity:1;fill-rule:evenodd;stroke:#000000;stroke-width:0.49983701;stroke-linecap:butt;stroke-linejoin:miter;marker:none;marker-start:none;marker-mid:none;marker-end:none;stroke-miterlimit:4;stroke-dasharray:none;stroke-dashoffset:0;stroke-opacity:1;visibility:visible;display:inline;overflow:visible;enable-background:accumulate"
       d="M 119.43619,54.841702 C 119.40747,56.262907 122.80644,56.796445 121.04872,58.569199 C 119.41616,60.919747 118.99715,63.71505 118.68835,66.4916 C 116.77464,66.255805 115.90282,69.109748 114.28312,70.160698 C 114.27123,72.86513 112.15549,73.088421 109.78479,73.46094 C 106.48439,73.638657 110.72989,70.091554 111.10213,68.520701 C 111.75026,67.238374 112.30365,62.778091 110.01839,63.265634 C 108.37672,65.645864 106.87874,61.95596 108.464,60.6842 C 109.02962,59.227129 109.23678,58.261309 110.53224,59.539001 C 111.10546,61.342657 113.15915,58.147406 113.18646,61.048873 C 113.97719,60.582826 113.68368,57.783292 115.33476,57.1436 C 116.95062,56.111512 118.42881,56.281212 119.20249,54.748199 L 119.43619,54.841702 z "
 />    <path
       id="019"       style="opacity:1;color:#000000;fill:#e8e2b7;fill-opacity:1;fill-rule:evenodd;stroke:#000000;stroke-width:0.49983701;stroke-linecap:butt;stroke-linejoin:miter;marker:none;marker-start:none;marker-mid:none;marker-end:none;stroke-miterlimit:4;stroke-dasharray:none;stroke-dashoffset:0;stroke-opacity:1;visibility:visible;display:inline;overflow:visible;enable-background:accumulate"
       d="M 52.38781,58.627602 C 54.310742,59.966575 55.804649,61.890467 57.54089,63.301601 C 60.137615,62.975139 62.72598,64.707232 64.925789,65.615196 C 66.11654,67.007186 65.079262,68.718676 65.252968,69.938698 C 63.84638,71.533286 66.136782,72.672707 64.773888,74.203697 C 66.906682,74.989301 66.232328,76.543887 65.416557,78.0364 C 65.866357,79.859257 65.270925,81.511994 63.313259,83.329597 C 62.883933,86.888144 59.645988,87.505207 59.852916,87.668176 C 60.972818,90.451285 62.076682,93.241528 63.208099,96.019501 C 60.343031,96.353916 57.601454,96.683513 59.09499,100.0742 C 56.449425,100.51535 52.20467,100.06997 54.861348,103.76068 C 53.413996,104.36485 50.119289,104.95282 48.157848,104.4093 C 47.823523,101.66604 47.087854,97.943518 43.939579,97.445099 C 42.173174,99.027498 40.186125,97.344358 39.113689,96.124702 C 37.874227,93.216285 39.312557,90.636389 38.864187,87.746614 C 39.261039,85.04076 38.276715,82.86242 36.12233,81.179604 C 33.775073,78.970662 32.044904,82.22735 29.824129,81.214699 C 28.209277,80.358206 29.194865,78.347056 30.408381,78.001297 C 31.39216,76.104445 32.29797,75.310806 34.019039,74.378998 C 36.915973,73.499317 38.512332,70.117596 41.380569,69.260902 C 43.024239,68.16234 44.894593,67.255046 46.370049,66.444901 C 47.724561,64.200244 49.549198,62.060817 51.359539,60.146702 C 50.934087,59.216013 51.796107,59.050286 52.38781,58.627602 z "
 />    <path
       id="035"       style="opacity:1;color:#000000;fill:#e8e2b7;fill-opacity:1;fill-rule:evenodd;stroke:#000000;stroke-width:0.49983701;stroke-linecap:butt;stroke-linejoin:miter;marker:none;marker-start:none;marker-mid:none;marker-end:none;stroke-miterlimit:4;stroke-dasharray:none;stroke-dashoffset:0;stroke-opacity:1;visibility:visible;display:inline;overflow:visible;enable-background:accumulate"
       d="M 65.474983,65.451599 C 69.677587,64.346702 74.089713,62.49232 78.164871,61.8643 C 77.909701,64.135521 79.889428,64.056999 79.987717,65.662003 C 81.747323,67.537174 80.272755,68.538783 80.291527,70.628098 C 78.959697,71.761877 81.442128,74.319469 82.289658,71.6213 C 84.051977,71.004405 85.784674,69.703186 86.12233,72.264 C 87.389065,70.51612 88.489173,72.531809 89.639511,71.060402 C 89.725873,72.94739 88.637166,74.569282 87.840019,76.143402 C 85.943912,77.509414 84.355295,78.537847 82.137756,79.6138 C 80.380655,79.703022 79.750164,82.396549 81.057806,83.401543 C 82.160844,84.888047 83.512205,86.736968 84.848671,87.664803 C 86.760173,89.555088 83.135842,89.652789 82.733688,91.357201 C 80.640207,93.484313 78.555601,95.52167 75.72271,96.662201 C 76.329005,98.279656 74.326983,101.43828 73.257179,100.822 C 71.426953,98.034342 68.034045,100.66447 65.463303,100.9155 C 63.566199,97.906926 62.282939,93.215661 60.618968,89.576391 C 57.996341,84.838939 61.671123,89.565145 62.440006,85.127307 C 62.728026,82.86286 66.351321,81.146233 65.411535,79.313757 C 64.050569,77.739743 67.827502,76.268377 65.860588,74.752899 C 63.670987,74.775989 66.307444,72.265741 64.551872,71.212303 C 65.826487,69.712695 65.423644,68.087465 65.276337,66.328003 C 65.590977,65.90574 64.262837,65.408149 65.474983,65.451599 z "
 />    <path
       id="path3358"       style="opacity:1;color:#000000;fill:#e4744f;fill-opacity:1;fill-rule:evenodd;stroke:#000000;stroke-width:0.49983701;stroke-linecap:butt;stroke-linejoin:miter;marker:none;marker-start:none;marker-mid:none;marker-end:none;stroke-miterlimit:4;stroke-dasharray:none;stroke-dashoffset:0;stroke-opacity:1;visibility:visible;display:inline;overflow:visible;enable-background:accumulate"
       d="M 92.058296,63.5704 C 93.570808,63.536549 94.615555,66.259682 96.34668,65.615196 C 97.638859,67.234827 98.422204,64.334433 99.922287,65.8022 C 101.56301,66.712551 104.35262,66.1733 104.66638,68.606598 C 106.36779,69.428064 108.48088,67.669412 109.71566,69.790952 C 110.31281,71.892662 107.70406,73.502902 105.94005,73.549301 C 104.15764,74.723086 105.7111,79.643643 103.86012,77.6157 C 102.35094,78.023676 101.0821,77.271394 99.665222,78.351799 C 98.544626,79.248409 96.821277,78.037623 97.363281,76.961304 C 93.579594,77.63179 89.39089,77.739896 85.491341,78.4804 C 84.70716,77.109234 88.162215,77.019338 88.307419,75.208603 C 88.824363,73.944085 90.081119,72.411104 89.510971,70.943604 C 88.365638,72.762667 87.263127,70.351385 85.970428,72.345802 C 85.07149,70.617201 85.410643,69.389525 87.010391,68.629898 C 87.834052,67.750461 89.032139,66.24596 90.212067,65.837196 C 90.84507,64.887549 91.708166,64.576442 92.058296,63.5704 z "
 />    <path
       id="023"       style="opacity:1;color:#000000;fill:#e8e2b7;fill-opacity:1;fill-rule:evenodd;stroke:#000000;stroke-width:0.49983701;stroke-linecap:butt;stroke-linejoin:miter;marker:none;marker-start:none;marker-mid:none;marker-end:none;stroke-miterlimit:4;stroke-dasharray:none;stroke-dashoffset:0;stroke-opacity:1;visibility:visible;display:inline;overflow:visible;enable-background:accumulate"
       d="M 97.363281,76.961304 C 96.690259,79.081214 100.27425,78.893784 101.02067,77.627403 C 102.45528,78.384432 103.94977,76.659666 104.68975,78.316803 C 105.09762,80.765425 104.07091,82.124616 101.99755,82.727895 C 100.96771,84.42051 102.31224,86.784779 100.10924,88.225601 C 98.872523,90.865754 101.429,92.522699 103.62642,93.051498 C 103.16477,94.17856 101.03217,94.699497 101.6984,96.7323 C 101.38551,99.384339 97.909958,101.11422 96.357154,103.41506 C 94.160999,105.84975 91.192205,108.3434 90.052036,111.1049 C 88.190641,111.79338 84.766861,115.23218 83.63343,112.9627 C 84.314994,110.27483 80.825236,111.17958 80.174683,109.4105 C 78.644261,110.7153 76.534171,108.57069 75.442268,107.3423 C 73.89221,106.73996 72.674123,106.07499 72.32238,104.3392 C 72.106256,101.69752 73.932758,101.13311 75.220253,99.361397 C 75.949853,97.834998 75.468902,95.977765 77.662407,95.610603 C 80.918061,94.274203 82.317235,90.557306 85.432922,89.1371 C 85.130878,87.079371 82.957049,86.382023 81.833946,84.4981 C 80.869594,82.995949 79.419553,81.728084 81.121162,80.0812 C 82.460557,79.537958 84.331642,77.94852 85.596512,78.375198 C 89.552358,77.847099 93.594562,77.575208 97.363281,76.961304 z "
 />    <path
       id="025"       style="opacity:1;color:#000000;fill:#e8e2b7;fill-opacity:1;fill-rule:evenodd;stroke:#000000;stroke-width:0.49983701;stroke-linecap:butt;stroke-linejoin:miter;marker:none;marker-start:none;marker-mid:none;marker-end:none;stroke-miterlimit:4;stroke-dasharray:none;stroke-dashoffset:0;stroke-opacity:1;visibility:visible;display:inline;overflow:visible;enable-background:accumulate"
       d="M 103.62642,93.016502 C 105.24066,93.769233 104.70461,95.721787 106.32565,93.518898 C 107.67738,92.149815 107.09047,94.091107 109.0833,93.437103 C 110.57699,91.593147 111.92927,94.413444 113.73392,94.313499 C 115.88669,95.769582 118.16528,97.183165 120.92018,97.1763 C 122.32309,94.719552 120.26854,91.98375 119.66989,90.445801 C 123.69409,92.462078 122.17632,98.027364 123.04141,101.75816 C 123.22934,111.02548 119.89713,119.83105 118.40791,128.866 C 117.46669,127.75015 115.14094,132.00156 114.03773,128.84261 C 113.71519,127.11379 113.19141,124.14969 111.56052,126.7744 C 110.14306,129.17333 109.20085,129.6055 107.07349,128.17661 C 105.40001,127.69937 101.40893,129.39569 102.32939,126.2719 C 100.79005,124.73469 101.73645,121.70473 98.894012,122.1705 C 95.688143,122.35252 92.121732,121.60072 89.165091,122.27988 C 85.590239,125.40016 82.425564,129.15716 78.281708,131.51849 C 76.697217,127.98569 75.127215,124.4507 73.619408,120.8851 C 75.036752,120.49867 77.105201,121.49063 77.977913,119.0857 C 78.8825,116.52334 82.400049,116.24238 83.79702,114.3182 C 83.316012,113.27956 88.104326,113.34118 89.382439,111.4904 C 91.171263,110.13216 91.877855,107.33695 94.092387,105.81224 C 96.48048,102.88656 100.0287,100.30168 101.71009,97.164703 C 101.15439,95.521415 102.41335,93.924179 103.50957,93.448799 C 103.76472,93.279117 103.53321,93.151186 103.62642,93.016502 z "
 />    <path
       id="021"       style="opacity:1;color:#000000;fill:#e8e2b7;fill-opacity:1;fill-rule:evenodd;stroke:#000000;stroke-width:0.49983701;stroke-linecap:butt;stroke-linejoin:miter;marker:none;marker-start:none;marker-mid:none;marker-end:none;stroke-miterlimit:4;stroke-dasharray:none;stroke-dashoffset:0;stroke-opacity:1;visibility:visible;display:inline;overflow:visible;enable-background:accumulate"
       d="M 59.09499,96.814102 C 62.62726,95.06358 64.182696,96.709808 64.862763,100.15615 C 65.603709,101.9319 68.813416,99.769931 70.441101,99.454903 C 73.335112,99.260253 73.498604,101.45542 72.469742,103.49763 C 71.995455,105.6716 73.575852,106.12591 74.764542,107.2722 C 76.426839,107.34598 77.16727,110.19449 79.099663,109.6909 C 80.318267,108.88435 80.917504,110.77648 82.359772,110.8361 C 84.612542,111.05037 82.997667,113.58874 83.785339,114.6454 C 81.218274,116.18543 78.338586,117.29725 77.358597,120.2892 C 75.529888,121.59472 72.514726,119.44504 74.511953,122.94916 C 77.146245,125.54904 73.647172,126.32914 72.873562,124.47119 C 70.578991,123.6173 68.972289,122.42441 67.811981,121.446 C 67.50955,120.39887 65.224705,121.00842 66.246193,122.1822 C 66.690428,123.58692 64.929106,125.57573 64.33136,121.71723 C 61.827173,120.87293 62.468437,117.48208 60.064838,116.4215 C 57.324911,115.23174 55.069824,113.50807 54.561218,110.3804 C 53.538799,107.28971 49.592309,107.00864 48.286388,104.5028 C 49.967957,104.30831 55.78806,105.34735 54.49729,102.69687 C 51.917931,98.95626 59.699807,101.8477 58.924015,98.962892 C 59.026391,98.303243 58.0556,96.783937 59.09499,96.814102 z "
 />    <path
       id="005"       style="opacity:1;color:#000000;fill:#e8e2b7;fill-opacity:1;fill-rule:evenodd;stroke:#000000;stroke-width:0.49983701;stroke-linecap:butt;stroke-linejoin:miter;marker:none;marker-start:none;marker-mid:none;marker-end:none;stroke-miterlimit:4;stroke-dasharray:none;stroke-dashoffset:0;stroke-opacity:1;visibility:visible;display:inline;overflow:visible;enable-background:accumulate"
       d="M 66.573372,120.9786 C 68.311337,120.72452 68.462172,122.72271 69.938637,122.9884 C 72.183079,123.81176 72.737101,125.40523 74.9515,125.5124 C 76.941935,126.62118 77.464648,130.57469 78.874359,132.8259 C 82.906493,142.87651 86.7151,153.01413 91.030022,162.9511 C 90.69705,169.68812 91.774647,176.68944 90.457458,183.23621 C 88.516428,183.63704 89.629872,185.77066 87.384308,185.5381 C 87.898227,188.7814 86.716863,184.38567 86.169067,185.43291 C 86.040434,186.73081 84.471584,184.8094 83.224457,185.3044 C 82.481887,183.34307 81.110061,184.13838 79.870872,183.5517 C 79.178287,181.74442 77.683659,181.09456 75.86293,180.3383 C 75.340274,179.06208 72.992264,177.74876 72.240578,178.5972 C 70.66813,178.57274 69.60991,176.7208 70.152774,174.58867 C 69.583499,170.4876 65.006466,168.64873 62.249931,166.0242 C 60.199969,163.83854 57.797028,159.70244 54.315842,161.7709 C 50.896035,163.54974 50.641281,159.05472 50.226089,156.74631 C 49.613311,154.25595 49.612421,151.34881 47.433392,149.8055 C 48.114372,147.66965 43.767328,147.65574 45.33009,146.4285 C 46.060088,145.22784 42.312506,146.33224 42.53521,144.63981 C 42.110025,143.41349 42.50059,142.32872 42.619179,141.439 C 42.689191,140.83909 41.337039,140.37474 41.205299,140.2121 C 38.654053,141.27377 38.840274,139.09053 41.415619,138.0387 C 44.761301,136.89166 46.53298,132.37888 50.416521,132.43949 C 52.618745,132.09208 54.425011,131.08949 55.85825,129.6138 C 56.782262,127.43064 57.771836,125.6805 60.356972,127.2885 C 61.600096,125.52411 63.932574,126.32959 65.054329,124.5425 C 67.237882,123.1072 66.056699,122.46481 66.070923,121.2006 C 65.993989,120.94995 66.474502,121.01286 66.573372,120.9786 z "
 />    <path
       id="029"       style="opacity:1;color:#000000;fill:#e8e2b7;fill-opacity:1;fill-rule:evenodd;stroke:#000000;stroke-width:0.49983701;stroke-linecap:butt;stroke-linejoin:miter;marker:none;marker-start:none;marker-mid:none;marker-end:none;stroke-miterlimit:4;stroke-dasharray:none;stroke-dashoffset:0;stroke-opacity:1;visibility:visible;display:inline;overflow:visible;enable-background:accumulate"
       d="M 89.581078,121.9017 C 93.303286,122.32802 97.273863,121.79198 100.85708,122.4509 C 100.9308,124.47093 102.39371,125.85732 102.54693,128.00267 C 104.70571,128.49608 107.90784,127.38981 109.44554,129.3801 C 110.78932,128.26944 112.30643,124.43799 113.47685,126.2485 C 113.07663,127.78963 115.20799,131.93786 116.69022,129.14639 C 119.8487,127.44939 117.56173,131.76144 117.61602,133.35526 C 115.42158,143.53554 114.93479,153.99502 113.62876,164.2598 C 111.21209,168.84895 109.5049,173.80093 106.55935,178.14149 C 104.20117,182.31594 102.37435,187.16828 98.742104,190.27049 C 96.713013,191.79838 95.811003,189.53444 92.828269,190.9925 C 90.637879,191.03178 90.493423,186.69923 89.078629,185.4446 C 88.269016,183.72137 91.021549,184.03198 90.901489,181.425 C 91.122354,175.20721 91.21925,168.65965 90.814316,162.43193 C 86.321135,152.25411 82.61425,141.75969 78.281708,131.51849 C 82.564797,129.04959 85.862418,125.12925 89.581078,121.9017 z "
 />    <path
       id="007"       style="opacity:1;color:#000000;fill:#e8e2b7;fill-opacity:1;fill-rule:evenodd;stroke:#000000;stroke-width:0.49983701;stroke-linecap:butt;stroke-linejoin:miter;marker:none;marker-start:none;marker-mid:none;marker-end:none;stroke-miterlimit:4;stroke-dasharray:none;stroke-dashoffset:0;stroke-opacity:1;visibility:visible;display:inline;overflow:visible;enable-background:accumulate"
       d="M 41.205299,140.2121 C 41.214022,140.38973 42.796604,140.76484 42.502331,141.3806 C 42.746088,142.21464 41.943372,143.36639 42.53738,144.58231 C 42.382751,146.32573 45.424768,145.25745 45.540421,146.3 C 43.457005,147.49619 47.615562,147.5308 47.38665,149.3614 C 48.2083,151.02698 49.848179,152.28607 49.770378,154.5379 C 50.684972,156.98778 50.046907,160.57364 52.22422,162.1331 C 54.610427,161.95756 57.067258,160.17086 59.09266,162.42759 C 60.679348,164.26677 62.065212,166.14092 64.13121,167.4731 C 60.398621,171.56289 56.824206,176.03382 53.030491,179.92931 C 51.622179,178.4813 50.398085,176.45064 50.681808,174.1102 C 49.743737,171.61907 47.566215,170.09613 45.049648,169.9971 C 43.883185,168.43859 41.314784,167.96152 41.92976,165.7438 C 40.247668,164.8512 40.102523,163.04944 39.312328,161.9695 C 38.321718,161.99914 36.725319,163.70228 37.271839,161.17451 C 38.965791,160.90338 36.960902,159.15334 36.846802,158.40559 C 37.565286,156.90624 36.935553,154.80079 35.78347,154.608 C 35.454673,153.38484 34.558467,154.03791 34.579922,153.5914 C 33.912522,152.69403 34.073057,152.19843 33.015531,151.23835 C 34.307563,149.5607 33.032514,147.18839 33.1894,145.0497 C 33.892879,142.11441 37.965127,142.36266 39.627819,140.46919 C 40.103942,140.47125 40.660601,139.8124 41.205299,140.2121 z "
 />    <path
       id="015"       style="opacity:1;color:#000000;fill:#e8e2b7;fill-opacity:1;fill-rule:evenodd;stroke:#000000;stroke-width:0.49983701;stroke-linecap:butt;stroke-linejoin:miter;marker:none;marker-start:none;marker-mid:none;marker-end:none;stroke-miterlimit:4;stroke-dasharray:none;stroke-dashoffset:0;stroke-opacity:1;visibility:visible;display:inline;overflow:visible;enable-background:accumulate"
       d="M 27.358601,153.3811 C 28.727721,151.38404 32.342324,150.95488 33.785339,151.9321 C 33.960893,152.29986 34.240458,153.62988 34.661709,153.4745 C 34.942715,154.2778 35.571708,153.6412 36.385013,154.9605 C 37.678201,155.77916 36.84404,157.54008 36.870171,158.83791 C 38.629884,159.91142 37.676914,161.1104 36.916109,162.23622 C 38.179829,163.77519 38.222723,161.11192 39.487598,162.17979 C 40.03668,163.45085 40.452991,164.81387 41.92976,165.7438 C 41.328293,168.00137 43.903557,168.39663 45.049648,169.9971 C 47.916672,170.06301 50.865906,172.3953 50.693489,175.5358 C 50.367346,177.6587 53.167389,179.06732 52.788818,180.3758 C 50.126095,183.46017 47.377369,186.47043 44.745838,189.5811 C 39.121525,184.39996 33.619279,179.09979 28.0597,173.8531 C 26.51514,174.53247 23.970988,174.8781 23.87648,172.6028 C 21.81838,172.6587 20.072506,171.43944 18.232639,171.3759 C 17.796556,168.98031 13.777079,169.23754 14.47008,166.3046 C 13.14573,164.93943 13.685499,164.63813 12.13308,163.8625 C 13.64582,162.91334 12.030724,160.44737 9.8194599,161.9111 C 7.5914963,163.38643 13.010867,159.90935 12.63554,159.06 C 15.171785,156.88438 17.742893,153.95037 21.481982,155.08945 C 23.506169,155.03122 25.633294,154.46419 27.358601,153.3811 z "
 />    <path
       id="033"       style="opacity:1;color:#000000;fill:#e8e2b7;fill-opacity:1;fill-rule:evenodd;stroke:#000000;stroke-width:0.49983701;stroke-linecap:butt;stroke-linejoin:miter;marker:none;marker-start:none;marker-mid:none;marker-end:none;stroke-miterlimit:4;stroke-dasharray:none;stroke-dashoffset:0;stroke-opacity:1;visibility:visible;display:inline;overflow:visible;enable-background:accumulate"
       d="M 8.86129,162.729 C 9.8759484,160.34975 14.273361,162.14712 12.33173,163.2198 C 12.809984,164.29799 13.049223,165.00304 14.13121,165.4283 C 14.464675,167.21324 14.746329,168.90676 16.58506,169.3661 C 17.983432,170.98742 18.589682,171.62167 20.8267,172.0069 C 23.473583,171.56214 23.8441,174.23405 26.023815,174.27037 C 28.235861,173.26617 29.613378,175.35569 31.234385,176.86048 C 33.779131,179.22025 36.242092,181.65086 38.774818,184.0191 C 37.677601,186.32413 37.899543,188.87125 37.574321,191.39173 C 38.336371,195.20606 36.137961,195.90786 33.913872,192.6776 C 30.958221,190.05422 27.910601,187.42845 24.90476,184.9655 C 22.715905,187.43082 20.645687,190.17652 18.115789,192.22189 C 15.959469,191.41958 16.366308,194.80715 14.73883,195.54041 C 13.715256,195.0499 10.310026,194.48024 11.60726,196.7907 C 10.602998,198.39772 11.713964,197.77815 11.46704,199.1394 C 9.8981314,200.0809 13.296961,201.39846 10.92953,201.7218 C 11.517498,203.20838 12.020779,203.26351 9.8311396,202.084 C 8.0182061,200.70122 8.5343065,196.79942 5.8348799,196.9894 C 4.5412967,194.73656 1.444107,196.04627 1.1636379,193.34635 C 0.85402982,190.84015 3.147843,191.43973 2.4545198,188.64709 C 0.85973331,186.41739 5.2581927,184.27301 2.9837501,182.32471 C 0.91966733,181.311 -1.3635824,178.22821 1.04404,176.38879 C 2.8228466,175.14448 4.227548,172.96671 4.21067,170.61639 C 5.4962731,169.10388 6.8264287,169.06725 6.7463102,166.9239 C 7.426846,165.38306 7.5757494,163.69649 8.86129,162.729 z "
 />    <path
       id="001"       style="opacity:1;color:#000000;fill:#e8e2b7;fill-opacity:1;fill-rule:evenodd;stroke:#000000;stroke-width:0.49983701;stroke-linecap:butt;stroke-linejoin:miter;marker:none;marker-start:none;marker-mid:none;marker-end:none;stroke-miterlimit:4;stroke-dasharray:none;stroke-dashoffset:0;stroke-opacity:1;visibility:visible;display:inline;overflow:visible;enable-background:accumulate"
       d="M 64.13121,167.4731 C 67.012866,169.89615 71.146805,172.30159 70.102226,176.6692 C 70.003984,178.20877 72.507752,179.09093 72.824829,178.17661 C 75.318841,178.45338 75.855276,181.58201 78.36351,181.1095 C 79.024508,182.67838 80.046292,184.34487 81.518448,183.8555 C 82.976034,184.29722 83.723897,186.33142 85.269333,185.28101 C 86.238086,187.31465 86.625648,183.59021 87.03376,186.64819 C 87.530677,186.92159 88.071725,184.03599 89.008522,185.8419 C 91.215996,186.91388 90.611373,192.83824 93.892838,190.5159 C 96.848151,189.30585 99.059986,193.44873 96.963663,195.45842 C 95.429988,198.95374 92.328189,201.56644 89.849838,204.0705 C 89.480665,206.70374 85.580883,206.3008 84.019043,208.1953 C 82.090954,209.43644 80.177796,210.71421 78.597214,212.3902 C 77.061941,211.13122 74.950328,209.94385 73.350662,212.3902 C 71.304746,212.05289 70.459317,213.15451 69.307663,212.02789 C 69.273444,212.95545 67.400832,212.52044 66.146897,212.36285 C 64.937287,212.01941 63.107982,212.09398 61.86433,212.0163 C 60.283298,209.97858 57.50168,212.10935 55.98679,210.1467 C 52.572073,209.88127 54.734444,205.47323 55.098728,203.3811 C 54.120545,201.32476 55.995274,198.83249 53.334301,197.5853 C 50.45252,194.95395 47.6159,192.23864 44.745838,189.5811 C 51.174078,182.18405 57.660361,174.83554 64.13121,167.4731 z "
 />    <path
       id="011"       style="opacity:1;color:#000000;fill:#e8e2b7;fill-opacity:1;fill-rule:evenodd;stroke:#000000;stroke-width:0.49983701;stroke-linecap:butt;stroke-linejoin:miter;marker:none;marker-start:none;marker-mid:none;marker-end:none;stroke-miterlimit:4;stroke-dasharray:none;stroke-dashoffset:0;stroke-opacity:1;visibility:visible;display:inline;overflow:visible;enable-background:accumulate"
       d="M 38.87999,184.1125 C 44.191081,189.02728 49.428453,194.05649 54.806599,198.894 C 54.51828,200.88505 55.463644,203.09835 54.561218,205.1221 C 54.072596,207.77139 54.563201,209.63287 52.640889,211.41501 C 51.679455,214.12439 52.953477,218.55819 49.54837,219.4946 C 48.837418,221.2301 49.561534,223.07771 50.377998,223.97 C 48.822332,224.66237 46.480265,222.26492 44.45372,222.8365 C 40.741775,224.04394 42.416884,220.5996 40.00174,220.5697 C 37.927023,221.35473 34.355072,219.62408 33.62549,222.81822 C 31.732881,225.90789 30.043688,220.21144 30.163,218.37289 C 29.238795,215.6614 25.522168,215.6408 24.51915,213.6171 C 24.723134,210.55878 21.322547,211.24385 20.674801,212.4252 C 17.786049,211.36466 19.200583,206.14282 15.75542,206.6412 C 13.521069,208.32471 13.111734,203.9096 11.74748,203.1006 C 10.997113,202.47161 10.858249,201.93855 11.54883,201.3011 C 11.583576,200.16723 10.752818,199.72059 11.54883,198.13451 C 10.630871,198.44671 11.603375,196.39431 11.616439,195.35206 C 13.361191,194.65152 15.0707,196.45783 16.1644,194.0331 C 15.936934,191.22338 18.692167,192.88177 19.646521,190.8665 C 21.452163,188.9363 23.258346,186.97806 24.93981,184.9305 C 29.010744,188.40524 33.042028,191.84581 37.022072,195.4353 C 38.044218,192.66389 37.349538,189.83412 38.03867,186.9637 C 37.615751,186.2306 38.651797,184.54763 38.87999,184.1125 z "
 />    <path
       id="009"       style="opacity:1;color:#000000;fill:#e8e2b7;fill-opacity:1;fill-rule:evenodd;stroke:#000000;stroke-width:0.49983701;stroke-linecap:butt;stroke-linejoin:miter;marker:none;marker-start:none;marker-mid:none;marker-end:none;stroke-miterlimit:4;stroke-dasharray:none;stroke-dashoffset:0;stroke-opacity:1;visibility:visible;display:inline;overflow:visible;enable-background:accumulate"
       d="M 54.362572,209.27029 C 55.395288,210.13167 57.089846,211.01804 58.592541,211.21001 C 60.278932,210.36372 61.931233,212.18997 63.032829,212.22659 C 65.344901,211.27585 66.525141,213.5849 68.621518,212.08419 C 68.863634,213.78161 70.026509,210.67313 70.30088,212.7991 C 72.04079,212.27454 74.085102,212.33202 75.781128,210.69591 C 77.002914,211.76782 79.746242,211.96673 77.802628,213.9209 C 73.308761,216.09124 71.496412,221.1171 68.782427,224.87311 C 68.336067,227.02447 64.626694,229.63311 66.62011,231.50681 C 64.286464,234.97402 60.994014,238.32609 60.158321,242.64259 C 58.157446,244.46222 55.492248,246.50324 54.00034,248.62531 C 51.572484,248.36928 49.270839,251.00741 46.557011,249.7003 C 44.493785,248.30826 46.914613,245.06921 46.825771,242.923 C 48.223704,237.19415 53.168281,232.40294 52.247589,226.17841 C 50.557065,224.63729 50.350183,223.83808 49.388979,222.60477 C 48.235049,219.78173 50.963304,219.26737 51.710091,217.368 C 52.390809,214.5931 51.917601,210.72162 54.362572,209.27029 z "
 />  </g>
</svg>
