<?xml version="1.0" encoding="utf-8"?>
<!-- Generator: Adobe Illustrator 16.0.0, SVG Export Plug-In . SVG Version: 6.00 Build 0)  -->
<!DOCTYPE svg PUBLIC "-//W3C//DTD SVG 1.1//EN" "http://www.w3.org/Graphics/SVG/1.1/DTD/svg11.dtd">
<svg version="1.1"
	 id="svg19965" xmlns:svg="http://www.w3.org/2000/svg" sodipodi:docbase="C:\Files\wikibot" inkscape:output_extension="org.inkscape.output.svg.inkscape" sodipodi:version="0.32" xmlns:rdf="http://www.w3.org/1999/02/22-rdf-syntax-ns#" xmlns:inkscape="http://www.inkscape.org/namespaces/inkscape" xmlns:cc="http://web.resource.org/cc/" xmlns:dc="http://purl.org/dc/elements/1.1/" xmlns:sodipodi="http://sodipodi.sourceforge.net/DTD/sodipodi-0.dtd" sodipodi:docname="outputmap.svg" inkscape:version="0.45"
	 xmlns="http://www.w3.org/2000/svg" xmlns:xlink="http://www.w3.org/1999/xlink" x="0px" y="0px" width="2333.297px"
	 height="587.642px" viewBox="29.593 26.949 2333.297 587.642" enable-background="new 29.593 26.949 2333.297 587.642"
	 xml:space="preserve">
<g id="Expanded_Riverside">
	
		<sodipodi:namedview  height="1700px" width="2400px" gridtolerance="10.0" inkscape:cx="1200" guidetolerance="10.0" inkscape:zoom="0.22235294" inkscape:cy="850" id="base" borderopacity="1.0" pagecolor="#ffffff" objecttolerance="10.0" bordercolor="#666666" inkscape:pageopacity="0.0" inkscape:pageshadow="2" inkscape:window-y="44" inkscape:window-width="748" inkscape:window-height="579" inkscape:window-x="44" inkscape:current-layer="svg19965">
		</sodipodi:namedview>
	<path id="Riverside_County_Boundary" fill="#8CCBEF" stroke="#000000" stroke-width="3" d="M2327.482,28.984l18.5-0.3l0,0h3.8
		l10.601-0.2l0,0l-1.5,6.9l-1,12.4v3.6l0.699,3.1l2.301,6.7l0.5,4.2l-0.801,8.5l-1.399,4.9l-1.601,2.9l-2.3,2.8l-4.5,3.3l-3.3,1.4
		l-2.9,0.2l-1.6,0.7l-1.2,1.5l-0.2,1.5l0.301,1.9l1,2.6l0.8,2l0.101,2.3l-0.601,1.7l-0.899,0.8l-2.699,0.3l-1.2,0.6l-2.3,4.3
		l-3.301,3.2l-4,2.9l-0.601,0.9l-0.5,2.2l-1.199,1.9l-7.2,7.8l-3.399,4.5l-6.7,3.9l-0.199,0.2l-1.199,0.2l-3.301-0.9l-4.399,2.3
		l-0.3,0.3l-4.4,6.6l-4.199,10.5l-0.5,1.2v0.4l0.399,5l1,2.1l3.8,2l2.2,1.2l0.3,0.3l3.301,2.6l1.5,1.2l1.101,1.2l3.899,4.4
		l1.601,3.1l0.601,1.2l0.199,0.7l0.2,0.9l0.101,0.5v0.3v1.4l-0.5,1l-0.399,0.4l-0.801,0.7l-0.399,0.3l-1.899,1.1l-1.899,1.5l-1,1.2
		l-0.699,1.5l-0.102,1.3l0.301,1.7l0.5,1.4l0.601,1.2l0.399,0.8l3,2.6l5.899,5.2l0.7,1.6l0.399,6.2l-0.101,0.2l-0.5,1.8l-1.301,1.3
		l-0.1,0.1l-3.301,2.6l-3,2.3l-0.399,0.2l-0.601,0.2l-0.5,0.1l-5.601-0.2l-1.601,1l-1,1.9l-0.101,0.3l-0.7,2.8l-0.1,3.2l3.1,8.3
		l1.602,2.8l2.199,6.6l0.399,2.1l-0.5,3l-1.399,2.7l-3.199,2.5l-0.602,1.1l6,13.5l2.5,9.7l7.301,17.9v0.2l1.699,6.3l0.4,3.6v4.7
		l-1,4.1l-1.601,4.2l-2.5,5.9l-0.301,0.7l1.5,1.8l2.5,1.399l1.899,2.101l1.2,3l1.399,2.1l3.101,2.601l1.2,4.199l0.6,5.7l-0.899,8.3
		l-0.601,1.4l-6,3.5l-3.5,1.1l-1.899,0.5l-4.8,2.601l-3.399,2.3l-2.7,2.8l-1.8,3.101l-0.5,2.1l0,0l-0.301,1.5l0.101,0.7l0.301,2.899
		l1,2.601l1,1.8l1,1.5h0.1l0.7,1.2l0.101,0.3l0.399,0.899l0.2,1.699l-0.101,1.301l-0.399,0.899l-0.801,1.4l-0.101,0.1l-0.899,2.101
		l-1.3,2.601l0.101,2.2l0.8,3l0.3,0.8v0.1l0.602,1.5l0.5,2.3l0.199,1.102l0.101,3.898l-1.101,2.602l-0.199,0.6l-0.7,1.801l0.2,4.101
		l1.3,3.5l1.601,1.899l0.801,2l-0.102,2.601l-1.398,2.2l-1.7,2l-0.7,1.199l-0.399,0.601l-6.899,11.7l0.2,5.3l0.199,4.2l3.301,10l0,0
		l0.199,0.3l0,0l6.5,9.9l1.899,3.3l-0.199,1.2l-12.399,8.8l-12.101,9.6l-0.399,0.9l-0.899,5.7l0.3,5.3l-0.2,1.3l-6.1,6.8l-3.101,1.5
		l-4.801,1l-5.601,3.602l-0.199,0.198l-2.101,2.5l-4,7.802l-1,3.398l-0.7,2.2l-1.399,2.6l-4.399,5.802l-3.199,3.6l-7.4,12.6
		l-0.3,1.802l0.899,6.1l-3.3,12.4l0,0h-1.2l0,0h-0.899l0,0l-19,0.198l0,0l-7.899,0.102l0,0l-17.301,0.2l0,0h-0.398l0,0l-13,0.3l0,0
		h-1.102l0,0l-4.8,0.1l-11.3,0.102l0,0h-0.601h-0.899l0,0l-22.4,0.198l-46.6,0.7l0.1,3.2l-52.3,0.6l-19.3,0.4l0,0l-4.5,0.1l0,0
		l-10.101,0.2l0,0h-0.5l0,0l-36.301,0.7l-33.101,1.2l0,0l-6.5,0.1l0,0l-5.5,0.4l-26.6,0.1l-18.7-0.5l-14.5,0.3l0,0l-16.3,0.2l0,0
		l-39.601,0.7l0,0l-0.3-0.1l0,0l-12.801,0.1l0,0l-10.9,0.4l0,0l-150.6,0.898l-2.101,1.3l-43.3,0.302l0,0l-108.5,0.1l0,0h-4l0,0
		l-2.2,0.2l0,0l-4.601,0.1l0,0h-3l0,0l-2.399,0.102l0,0l-100.601,0.3l-45.699,0.6h-54.5h-15.2l-12.5,0.102l-7.8,0.1h-4.399h-2.101
		l0,0l-4.301,0.1l0,0h-1.899h-3.101l0,0l-1.399,0.102l-6.699,0.1l0,0h-1.2h-4.699h-7.9h-4.8l0,0h-19.8l-12.5-0.1l-49-2.5l-74.5,0.8
		l-167.5,0.1l-61.9-0.698h-3.699l-42.9-0.2l-100.699-0.4l0,0l-10.801-0.1l0,0h-0.3l-16.601,0.1l-17.399-0.5l0,0l-8.399-0.1l0,0
		l-30.601-0.602l0,0l-32.101-0.6l0,0l-14.3,0.5l-21-0.2v-2.8h-0.399l-15.101-0.2l0,0l-14.399-0.2l0,0l-5.4-0.1l0,0h-2.3l-4.399-0.1
		l0,0l-7-0.302l0,0l-13.301-0.698l0,0h-0.399l0,0l-12.699-1.102l0,0l-2.301-0.2l0,0l-2.8-0.1l0,0h-0.2l0,0h-0.101l0,0l-0.3-0.1l0,0
		h-0.3h-0.101l0,0h-0.5l0,0l-31.7,0.1h-2.699l0,0l-2.5-0.1l0,0h-3.4l0,0l-18.1-0.102l0,0h-1.2l0,0l-0.8-0.1l0,0h-8.2l0,0h-1.7
		l0.101-11.4l0,0l-0.101-3.5l-6.399-2.6l-14.3-5.9l0,0l-8.899-3.6l0,0l-0.899-0.4l-57-23.3l-5.3-2.2l4.898-12.5l-82.3-1.2l0,0h-3.3
		l0,0l-15.102-0.198l0,0l-4.398-0.102l0,0v-3.6l4.3,0.2l0.4-5.9l0,0l0,0l0,0l0.198-4.1l-4.5-0.302l0,0v0.102l0,0h-0.3l-0.1-11.9
		l6.7-10.3l3.3-5.9l28.5-42.898l33.3-49.7l-7.9-7.1l-25.398-22.101l-10.5-10.8l-16.2-1.7l-26.6-4.7v-1.699l-0.5-20.9l-0.602-19
		l-23.398-6.5l-7.9-3.1l-2.4-3.801l-17-22.7l-20.898-29.3l-11.2-15.3l0,0l-0.5-0.8l0,0l-5.7-7.7l0,0l-8.7-0.6l-0.198-4.3l-0.2-4.6
		l1.8-1.2l0,0l-0.3-0.6l-0.102-0.1l-0.5-0.5l0,0l1.5-3.5l0,0l-0.898-0.7l3-4.6l-0.7-2l-1-1.2l-3.4-3.8l15.4,0.2l0.1-14.9l0,0
		l0.102-17l21.2,0.4l0,0l10.698,0.1l0,0l0.602-20.7l0,0v-0.7l0,0v-2.5l0,0l0.1-1.4l0,0v-0.1l0,0l0.102-5.3l0,0l0.3-10.1l0,0l2.8-1.1
		l0,0l0.1-0.1l0,0l3.302-1.3l0,0l0.898-0.4l0,0l0.7-0.3l4.6-1.6l0,0l12.602-4.9l0,0l12.8-4.6l0,0v-7.4l0.2-19.4l0,0l0.1-2.5l0,0
		v-1.8l0.102-8.6l0,0h5.1l0,0h0.5l0,0l6.3,0.1l0,0l12.4,0.4l0,0l0.3-0.1l0,0l12.3,0.4l5.8-0.1l0,0l5,0.1h2.602l0,0l5,0.1l7.2,0.1
		l0,0h4.1l23.8,0.1l0,0l11.5-0.1h1.4l0,0l2.6,0.1l0,0l6.8,0.3l0,0h0.2l0,0l5.4,0.1l0,0h2l0,0h3.8l0,0h1.5l5.8,0.2l0,0l-0.3,12.8l0,0
		h5.1l0,0l0.5,0.1h0.102l0,0h0.8l0,0h0.8l0,0l2-0.1l0,0h0.102l0,0l2.3,0.1l6.898,0.1l0,0l0.102,0.5l0,0l0.7,0.5l0,0l0.5-0.9l0,0h0.3
		l0,0h5.398l0,0h0.102l0,0h0.3l0.4,0.1l0,0h1.6h2.2l0,0h0.8l0,0h0.8l0,0h0.4l0,0l5.898,0.2l0.9-0.1l0,0l4.2,0.2l0,0l1.1-0.1l0,0
		h3.602h2.1l0,0l6.8,0.2l7.102,0.3l0,0l1.398,0.1l2.4,0.1l0,0l4.199,0.2l0,0h0.2l0,0l1.101,0.1l0,0h1.899l0,0h0.101l0,0h0.1l0,0
		l19.2,0.3l0,0l13.2,0.1l0,0l-0.2,12.7l9.399,0.2l0,0l31.601,0.4l5-0.1l0,0l13.7,0.3l0,0l12.5,0.4h1.899l12.5,0.1l27.699,0.3
		l0.9-0.1l0,0l4.1-0.3l0,0l3.7-0.1l0,0h4.8l6.2-0.3l0,0l9.4,0.1l3.199,0.2l0,0l5.399,0.1l0,0l8.899,0.6l4.899-0.2h0.9l14.1-0.1
		l7.4,0.1h0.899l11.301,0.1h6.1l0,0h3.101h2.399h0.4l0.3-25.6l0,0l16.8,0.1l8.3,0.2l12.7,0.1l26.8,0.4l59.2,0.3l0,0l26.8,0.3l0,0
		l2.4,0.1l72.3,0.9l1.7,0.4l7.1,0.3h9.2h56.2l38.899,0.2l112.899,0.7l0.101-1.6l52.399,0.1l22.7,0.7l107.5-0.5l17.6-0.1h14.801l0,0
		l0.101-0.1l0,0l12.2,0.1l16.199-0.7l156.399-0.5l0,0l23.101-0.1l0,0h11.199l0,0l21-0.1l0,0l118.801-0.5l132.5,0.1l-0.199-33.9v-4.6
		l88.699-0.6v-1.5l47.699-0.8l105.5-1l0,0l83.301-1l0,0l7.601-0.1l13.5-0.1l0,0l28.6-0.4l0,0l41.2-0.2l0,0h0.4l0,0L2327.482,28.984z
		"/>
	<path id="_x30_65" fill="#8CCBEF" stroke="#000000" stroke-width="3" d="M2327.482,28.984l18.5-0.3l0,0h3.8l10.601-0.2l0,0
		l-1.5,6.9l-1,12.4v3.6l0.699,3.1l2.301,6.7l0.5,4.2l-0.801,8.5l-1.399,4.9l-1.601,2.9l-2.3,2.8l-4.5,3.3l-3.3,1.4l-2.9,0.2
		l-1.6,0.7l-1.2,1.5l-0.2,1.5l0.301,1.9l1,2.6l0.8,2l0.101,2.3l-0.601,1.7l-0.899,0.8l-2.699,0.3l-1.2,0.6l-2.3,4.3l-3.301,3.2
		l-4,2.9l-0.601,0.9l-0.5,2.2l-1.199,1.9l-7.2,7.8l-3.399,4.5l-6.7,3.9l-0.199,0.2l-1.199,0.2l-3.301-0.9l-4.399,2.3l-0.3,0.3
		l-4.4,6.6l-4.199,10.5l-0.5,1.2v0.4l0.399,5l1,2.1l3.8,2l2.2,1.2l0.3,0.3l3.301,2.6l1.5,1.2l1.101,1.2l3.899,4.4l1.601,3.1
		l0.601,1.2l0.199,0.7l0.2,0.9l0.101,0.5v0.3v1.4l-0.5,1l-0.399,0.4l-0.801,0.7l-0.399,0.3l-1.899,1.1l-1.899,1.5l-1,1.2l-0.699,1.5
		l-0.102,1.3l0.301,1.7l0.5,1.4l0.601,1.2l0.399,0.8l3,2.6l5.899,5.2l0.7,1.6l0.399,6.2l-0.101,0.2l-0.5,1.8l-1.301,1.3l-0.1,0.1
		l-3.301,2.6l-3,2.3l-0.399,0.2l-0.601,0.2l-0.5,0.1l-5.601-0.2l-1.601,1l-1,1.9l-0.101,0.3l-0.7,2.8l-0.1,3.2l3.1,8.3l1.602,2.8
		l2.199,6.6l0.399,2.1l-0.5,3l-1.399,2.7l-3.199,2.5l-0.602,1.1l6,13.5l2.5,9.7l7.301,17.9v0.2l1.699,6.3l0.4,3.6v4.7l-1,4.1
		l-1.601,4.2l-2.5,5.9l-0.301,0.7l1.5,1.8l2.5,1.399l1.899,2.101l1.2,3l1.399,2.1l3.101,2.601l1.2,4.199l0.6,5.7l-0.899,8.3
		l-0.601,1.4l-6,3.5l-3.5,1.1l-1.899,0.5l-4.8,2.601l-3.399,2.3l-2.7,2.8l-1.8,3.101l-0.5,2.1l0,0l-0.301,1.5l0.101,0.7l0.301,2.899
		l1,2.601l1,1.8l1,1.5h0.1l0.7,1.2l0.101,0.3l0.399,0.899l0.2,1.699l-0.101,1.301l-0.399,0.899l-0.801,1.4l-0.101,0.1l-0.899,2.101
		l-1.3,2.601l0.101,2.2l0.8,3l0.3,0.8v0.1l0.602,1.5l0.5,2.3l0.199,1.102l0.101,3.898l-1.101,2.602l-0.199,0.6l-0.7,1.801l0.2,4.101
		l1.3,3.5l1.601,1.899l0.801,2l-0.102,2.601l-1.398,2.2l-1.7,2l-0.7,1.199l-0.399,0.601l-6.899,11.7l0.2,5.3l0.199,4.2l3.301,10l0,0
		l0.199,0.3l0,0l6.5,9.9l1.899,3.3l-0.199,1.2l-12.399,8.8l-12.101,9.6l-0.399,0.9l-0.899,5.7l0.3,5.3l-0.2,1.3l-6.1,6.8l-3.101,1.5
		l-4.801,1l-5.601,3.602l-0.199,0.198l-2.101,2.5l-4,7.802l-1,3.398l-0.7,2.2l-1.399,2.6l-4.399,5.802l-3.199,3.6l-7.4,12.6
		l-0.3,1.802l0.899,6.1l-3.3,12.4l0,0h-1.2l0,0h-0.899l0,0l-19,0.198l0,0l-7.899,0.102l0,0l-17.301,0.2l0,0h-0.398l0,0l-13,0.3l0,0
		h-1.102l0,0l-4.8,0.1l-11.3,0.102l0,0h-0.601h-0.899l0,0l-22.4,0.198l-46.6,0.7l0.1,3.2l-52.3,0.6l-19.3,0.4l0,0l-4.5,0.1l0,0
		l-10.101,0.2l0,0h-0.5l0,0l-36.301,0.7l-33.101,1.2l0,0l-6.5,0.1l0,0l-5.5,0.4l-26.6,0.1l-18.7-0.5l-14.5,0.3l0,0l-16.3,0.2l0,0
		l-39.601,0.7l0,0l-0.3-0.1l0,0l-12.801,0.1l0,0l-10.9,0.4l0,0l-150.6,0.898l-2.101,1.3l-43.3,0.302l0,0l-108.5,0.1l0,0h-4l0,0
		l-2.2,0.2l0,0l-4.601,0.1l0,0h-3l0,0l-2.399,0.102l0,0l-100.601,0.3l-45.699,0.6h-54.5h-15.2l-12.5,0.102l-7.8,0.1h-4.399h-2.101
		l0,0l-4.301,0.1l0,0h-1.899h-3.101l0,0l-1.399,0.102l-6.699,0.1l0,0h-1.2h-4.699h-7.9h-4.8l0,0h-19.8l-12.5-0.1l-49-2.5l-74.5,0.8
		l-167.5,0.1l-61.9-0.698h-3.699l-42.9-0.2l-100.699-0.4l0,0l-10.801-0.1l0,0h-0.3l-16.601,0.1l-17.399-0.5l0,0l-8.399-0.1l0,0
		l-30.601-0.602l0,0l-32.101-0.6l0,0l-14.3,0.5l-21-0.2v-2.8h-0.399l-15.101-0.2l0,0l-14.399-0.2l0,0l-5.4-0.1l0,0h-2.3l-4.399-0.1
		l0,0l-7-0.302l0,0l-13.301-0.698l0,0h-0.399l0,0l-12.699-1.102l0,0l-2.301-0.2l0,0l-2.8-0.1l0,0h-0.2l0,0h-0.101l0,0l-0.3-0.1l0,0
		h-0.3h-0.101l0,0h-0.5l0,0l-31.7,0.1h-2.699l0,0l-2.5-0.1l0,0h-3.4l0,0l-18.1-0.102l0,0h-1.2l0,0l-0.8-0.1l0,0h-8.2l0,0h-1.7
		l0.101-11.4l0,0l-0.101-3.5l-6.399-2.6l-14.3-5.9l0,0l-8.899-3.6l0,0l-0.899-0.4l-57-23.3l-5.3-2.2l4.898-12.5l-82.3-1.2l0,0h-3.3
		l0,0l-15.102-0.198l0,0l-4.398-0.102l0,0v-3.6l4.3,0.2l0.4-5.9l0,0l0,0l0,0l0.198-4.1l-4.5-0.302l0,0v0.102l0,0h-0.3l-0.1-11.9
		l6.7-10.3l3.3-5.9l28.5-42.898l33.3-49.7l-7.9-7.1l-25.398-22.101l-10.5-10.8l-16.2-1.7l-26.6-4.7v-1.699l-0.5-20.9l-0.602-19
		l-23.398-6.5l-7.9-3.1l-2.4-3.801l-17-22.7l-20.898-29.3l-11.2-15.3l0,0l-0.5-0.8l0,0l-5.7-7.7l0,0l-8.7-0.6l-0.198-4.3l-0.2-4.6
		l1.8-1.2l0,0l-0.3-0.6l-0.102-0.1l-0.5-0.5l0,0l1.5-3.5l0,0l-0.898-0.7l3-4.6l-0.7-2l-1-1.2l-3.4-3.8l15.4,0.2l0.1-14.9l0,0
		l0.102-17l21.2,0.4l0,0l10.698,0.1l0,0l0.602-20.7l0,0v-0.7l0,0v-2.5l0,0l0.1-1.4l0,0v-0.1l0,0l0.102-5.3l0,0l0.3-10.1l0,0l2.8-1.1
		l0,0l0.1-0.1l0,0l3.302-1.3l0,0l0.898-0.4l0,0l0.7-0.3l4.6-1.6l0,0l12.602-4.9l0,0l12.8-4.6l0,0v-7.4l0.2-19.4l0,0l0.1-2.5l0,0
		v-1.8l0.102-8.6l0,0h5.1l0,0h0.5l0,0l6.3,0.1l0,0l12.4,0.4l0,0l0.3-0.1l0,0l12.3,0.4l5.8-0.1l0,0l5,0.1h2.602l0,0l5,0.1l7.2,0.1
		l0,0h4.1l23.8,0.1l0,0l11.5-0.1h1.4l0,0l2.6,0.1l0,0l6.8,0.3l0,0h0.2l0,0l5.4,0.1l0,0h2l0,0h3.8l0,0h1.5l5.8,0.2l0,0l-0.3,12.8l0,0
		h5.1l0,0l0.5,0.1h0.102l0,0h0.8l0,0h0.8l0,0l2-0.1l0,0h0.102l0,0l2.3,0.1l6.898,0.1l0,0l0.102,0.5l0,0l0.7,0.5l0,0l0.5-0.9l0,0h0.3
		l0,0h5.398l0,0h0.102l0,0h0.3l0.4,0.1l0,0h1.6h2.2l0,0h0.8l0,0h0.8l0,0h0.4l0,0l5.898,0.2l0.9-0.1l0,0l4.2,0.2l0,0l1.1-0.1l0,0
		h3.602h2.1l0,0l6.8,0.2l7.102,0.3l0,0l1.398,0.1l2.4,0.1l0,0l4.199,0.2l0,0h0.2l0,0l1.101,0.1l0,0h1.899l0,0h0.101l0,0h0.1l0,0
		l19.2,0.3l0,0l13.2,0.1l0,0l-0.2,12.7l9.399,0.2l0,0l31.601,0.4l5-0.1l0,0l13.7,0.3l0,0l12.5,0.4h1.899l12.5,0.1l27.699,0.3
		l0.9-0.1l0,0l4.1-0.3l0,0l3.7-0.1l0,0h4.8l6.2-0.3l0,0l9.4,0.1l3.199,0.2l0,0l5.399,0.1l0,0l8.899,0.6l4.899-0.2h0.9l14.1-0.1
		l7.4,0.1h0.899l11.301,0.1h6.1l0,0h3.101h2.399h0.4l0.3-25.6l0,0l16.8,0.1l8.3,0.2l12.7,0.1l26.8,0.4l59.2,0.3l0,0l26.8,0.3l0,0
		l2.4,0.1l72.3,0.9l1.7,0.4l7.1,0.3h9.2h56.2l38.899,0.2l112.899,0.7l0.101-1.6l52.399,0.1l22.7,0.7l107.5-0.5l17.6-0.1h14.801l0,0
		l0.101-0.1l0,0l12.2,0.1l16.199-0.7l156.399-0.5l0,0l23.101-0.1l0,0h11.199l0,0l21-0.1l0,0l118.801-0.5l132.5,0.1l-0.199-33.9v-4.6
		l88.699-0.6v-1.5l47.699-0.8l105.5-1l0,0l83.301-1l0,0l7.601-0.1l13.5-0.1l0,0l28.6-0.4l0,0l41.2-0.2l0,0h0.4l0,0L2327.482,28.984z
		"/>
	<path id="_x33_6203" fill="#8CCBEF" stroke="#000000" stroke-width="3" d="M719.882,299.185l0.699-0.301l0,0l0.101,7.801l0,0
		l2.101,2.799h0.2v2.801l2.899,0.1v3.1h-2.801v3.201l6-0.101l0.101-3.101h2.899v-9.199l0,0l0.601-1.2l11.5,0.2h0.399v25.6l0,0
		l-1.1,2.5l-2.2,1.9l-2.5,1.3l-1.399-0.2l-0.301,3.4l0,0l-2.399-0.7l0,0l-1,3.399l-0.8,1l-1.399,1.201l-3,1.6l-1.101,1.3
		l-0.801,0.601l0,0l-7,6.799l0,0l-1.1-1l-2.801-0.1l0.601-3.9l2-4.1l1.101-0.1l0,0l-2.101-0.7l0,0l-1.5,2.8l-2.5,3.1l-2.5,1.301
		l-1.399,1.8l-0.301,2l-1.1,1.8l-7.5,7.9l-3.301-1.4l0,0l-3.6-0.1l0,0l-0.5-0.5l-6.4-2.2l-2.1,0.399l-0.7-1.5l0,0l4.5-5.5l2.2-7.399
		l3.899-1.8l2.199-0.601l1.301,0.601l3.199-1.301l1.301-2.199l1.8-0.101l0,0l-3.199,0.2l0,0l-0.801-0.1l0,0l-2.101-2l-0.8,0.1l0,0
		l-0.899,0.1l0,0l-1.399-3.3l-2.2,0.3l-1.899-1.1l0,0l-1.101-4.6l2-7.7l2.2-2.8l2-0.7l1.399-1.3l0,0v-0.7l0.699-0.7l3.399-0.8
		l0.601-1.3l0,0l2-1.601l0,0l2.5-0.6l0,0l-1.601-1.2l-0.399-2v-2.2l1.101-2.899l2.301-1.801l0,0l3.399,0.4l5-2.4L719.882,299.185z"
		/>
	<path id="_x38_6244" fill="#8CCBEF" stroke="#000000" stroke-width="3" d="M281.082,176.284l0.199,0.5l0,0l-0.199,10.9l0,0
		l-1.102-0.1l0,0l0.2-3.6l-1.899-1.8l-3.301,0.1l0,0l-0.1,6.4l0,0l6.2,0.2l0,0l-0.102,12.8l-0.1,0.9l0,0l-3.101-0.8l0,0l-3-0.1l0,0
		l-0.101,1.3h1.601l1.301,1.1v2.2l3.199,0.1l0,0l-0.101,1.6l0,0l0.101,3.1l0,0l-5.199,0.1l0,0l-1.102,1.2l0,0l-0.1,14.8l0,0
		l-27.5-0.2l0,0l-1.8-4.1l-0.7-1.9l-2-2.7l-3.9-4.1l-6.6-4.5l-3.601-5.5l0,0l-1.699-1.9l-2-0.5l-0.7-0.9l0,0l17.6,0.5l0,0h1.2l0,0
		v-0.9l0,0l0.9-12.2l0,0h1.3l0,0l5.1,0.1l0,0h6l12.5,0.2l0,0l0.2-12.4L281.082,176.284z"/>
	<path id="_x34_5680" fill="#8CCBEF" stroke="#000000" stroke-width="3" d="M311.581,163.084h0.2l0,0l0.899,2.6l0,0l1.2,3.8
		l2.199,6.6l0.7,2l0,0l1,3.7l0,0h1.3l0,0l-0.199,0.4l0,0l12.5,0.1l6.5,0.2l0,0l6.399,0.1l0,0v3.1v3.1v3.7l-0.2,9l-0.1,4.9l0,0
		l-0.101,0.6l0,0v0.4l0,0l-0.2,13.2l0.101,6v0.3l0,0v0.2l0,0l-0.601,0.2l0,0h-3.101l0,0l-2.8-5.4l0,0l-0.101-1.2l0,0l-1.399-3.1
		l-5.399-0.1l0,0l0.5,2.3l0,0v0.7l0,0l0.101,0.3l0,0h-0.4l0,0l-6.6-19.4l0,0l-6.2,0.1l-8,2.6l0,0l2.399-3.6l-0.399-10.9l-1.7-3.8
		v-3.6l0,0h4.4l0,0l0.3-0.7l0,0l2.3,0.4l0,0h0.101l0,0l-0.199-0.6l0,0l-5-5.3l0,0l3.199,0.1l0,0l-3.601-11.2l-0.1-0.3l0,0
		l-0.601-1.5l0,0H311.581z"/>
	<path id="_x38_5894" fill="#8CCBEF" stroke="#000000" stroke-width="3" d="M481.781,329.884l7.899,0.1l0,0l-4.101,13l0,0
		l-3.899-0.1l0,0l-0.199,25.5l0,0l-18.801-0.1l-26.899-0.1h-4.399l0,0v-6.5l0.101-6.101l0,0l18.101-0.101l0,0l3.5,1.5l0,0v-1.5l0,0
		h3.3l0,0l0.101,1.601l0,0h0.6l0,0l2.601-1.101l2.899-2.399l0.2-4.5l0,0h1.601l0,0l0.101-6.5l0,0h0.601l0,0l-0.4-6l0,0l1.301-0.3
		l0,0l-0.101-1.4l0,0l3.3-0.699l0,0v-1.201l0,0l3-1.899l0,0l1.9-1.101L481.781,329.884z"/>
	<path id="_x35_2624" fill="#8CCBEF" stroke="#000000" stroke-width="3" d="M448.581,260.984l2,1.7l0,0l1.4,0.8l0,0l-3.7,6.5
		l-1.399,2.5l0,0l-6.601-0.3l0,0l-0.101,1.1l0,0h-2l0,0l-0.101,0.9l0,0l-1.5,0.5l0,0l-2.1,1.4l0,0v3.6v1.1l0,0h-0.2l-5.5-0.8
		l-3.5-1.1l-6.7-0.1l0,0l-0.2,2.9l0,0l-0.6,0.5l0,0l-2.4-0.3l0,0l-0.1,3.1l0,0l2.5,0.1l0,0v1.5l0,0l-2.3,4.7l0,0h-3.601l-12.301-0.1
		l0,0l0.101-12.6l0,0l-1.5-0.1l0,0l13.399-19.9l0,0l14.801,7l2.8,1.3l0,0l1.301-2.6l0,0h0.399l0,0h2.199l0,0l7,0.1h2l0,0h4.101l0,0
		L448.581,260.984z"/>
	<path id="_x33_9598" fill="#8CCBEF" stroke="#000000" stroke-width="3" d="M249.981,405.284l-1.699-1.3l0,0l2-2.602l2.801,4.102
		l2.3,1.898l19.3,13.8l2.2-3.1l2.3,1.7l-3.8,5.2l0,0l0.6,0.5l0,0l3.801-5.2l2.301,1.7l7,5.398l0,0l0.3,0.2l0,0l-1.3,1.9l0,0
		l-2.5,3.398l-1,1.3l0,0l-6.602-5l0,0l-2.8-2l0,0l-0.6,0.102l0,0l0,0l0,0l-0.102,0.398l0,0l-2-0.1l0,0l-0.199-0.3l0,0l-1.301-1.4
		l0,0l-0.199,0.3l0,0l-0.801-0.6l-0.3-0.3l0,0l-1.8-1.4l0,0h-4.601l0,0l-0.801,2.7l0,0v0.399l0,0l-0.8,0.399l0,0l-0.5,0.7l0,0l-2-1
		l0,0l-1,0.1l0,0l-2.5-2.6l0,0l2.2-1.7l0,0l-0.101-0.3l0,0l2.101-1.3l-0.101-1.8l0,0l0.199-1.802l0,0v-0.1l0,0h-0.6l0,0l-3.2-4.9
		l0,0l-0.7,0.802l0,0l-0.898-0.2l0,0l-0.801,0.5l0,0l-0.699-0.3l0,0h-0.301l0,0l-2-0.2l0,0l-0.301-0.8l-5.398-1.2l-1.7-4.5l0,0v-0.2
		l0,0l1.7-2.5l0,0l1.8,5.8l0,0l0.8-1l0,0L249.981,405.284z"/>
	<path id="_x35_6350" fill="#8CCBEF" stroke="#000000" stroke-width="3" d="M191.382,97.784v3.6l0,0l0.399,2.1l0,0l2.301,12.8l0,0
		h0.5l0,0l1.199,3.8l0,0l0.399,1.4l0,0l0.3,1.1l0,0l-0.1,0.2l0,0l1.6,6l0,0l-4,1.3l0,0v-1.1l-4.8,2.4l-0.899,1.7l-3,0.8l0,0
		l-0.301-1.9l0,0l-3.398,1l-1.7-1.4l-2.9,0.4h-0.3l-1.8-1.6l-3.101-1.9l-5.699-1l-0.5,0.9l-0.2,0.7l-3.7,0.2l-0.399-0.8l-2.101-2.5
		l-0.399-0.2l-1.399-0.2l-0.601-0.6l0,0l-0.101-2.8l0,0l8-0.1l0,0l0.101-4.7l0,0h1.5l5-2.8l1-1.8l2.699-2.2l0,0l-3.398-7.3l0,0
		l7.3-2L191.382,97.784z"/>
	<path id="_x30_9360" fill="#8CCBEF" stroke="#000000" stroke-width="3" d="M658.681,175.484l2.7,1.5l2.101,0.6l7.399,0.2h12.399
		l12.5-1.8l0,0v1.3l0,0l-0.101,1.4v4.1v0.3l-0.101,7.8v0.2v0.4l0,0h0.7l0,0h1.5l0,0h0.7l0,0l0.899,0.1l0,0l8.7,0.1l0,0v2.2l0,0
		l-0.301,0.2l0,0h-3.101l0,0l-3.5,2.8l0,0v0.8l0,0l-5.601-0.2l0,0l0.101,0.7l0,0l-6.3,0.2l0,0l-0.101-2.5l0,0v-2l0,0l-4.399-1.3
		l-1.5-1.2h-17.301l0,0l-0.1,0.4l0,0l-1.2-0.4l-7-6.8l-2-2.8l-1.2-2.7l0,0l0.4-0.4l0,0l3.1-1.8l0,0l0.101-0.4L658.681,175.484z"/>
	<path id="_x37_8596" fill="#8CCBEF" stroke="#000000" stroke-width="3" d="M946.081,248.484l12.9,4.1l9.1,3.1l3.2,1.6l0,0
		l-1.601-0.1l0,0l-0.199,12.3l0,0h1.8l0,0l-0.2,3.7l0.101,5.9v1.8l0,0v1.5l0,0l0.101,3.3l0,0v1.9l0,0v0.4l0,0l0.101,0.4l0,0
		l-13.601-9.9l0,0l-5-3.7l0,0l-6.5-4.7l0,0l-0.601-0.5l0,0h0.601l3.399,0.1l0,0l-3.699-5.5l0,0l0.1-7.4L946.081,248.484
		L946.081,248.484z"/>
	<path id="path20012" fill="#8CCBEF" stroke="#000000" stroke-width="3" d="M221.681,71.384l-2.3,2.5l0,0l0.2,0.7l0,0l-5.301,2.7
		l0,0l-2-0.3l0,0l-0.5,0.5l0,0l0.699,0.8l0.5,1.4l-0.3,1.9l-2.6,0.3l-0.602,0.9l0,0l-2.199,1.8l-4.399,2.4l0,0l0.7,2.6l0,0
		l5.199,1.3l4.5,2l0.5,0.2l0,0l-1.601,0.4l0,0l-1.3,3.8l0,0l-0.2-0.1l-0.7-0.1l0,0h-1.699l0,0l-0.301-0.3l0,0l-0.3-0.5l-1-2.6l0,0
		l-1,0.2l-1,0.2l0,0l0.2-0.3l0,0l-0.8-0.8l-2.801,0.8h-2.101l-1.7-1.1l-0.1-1.2l-1-0.8l0,0h-8.101l0,0v-4.3l0,0l-0.301-0.1l0,0v-2
		l-1.8-3.3l-0.2-1.2l0.4-8.4l0,0l23.8,0.1l0,0L221.681,71.384z"/>
	<path id="_x38_1708" fill="#8CCBEF" stroke="#000000" stroke-width="3" d="M594.982,313.185l1.1,1l0,0l2.5,0.1l0,0l11.801,9.9l0,0
		l0.5,0.6l0,0l-0.101,0.5l0,0l-0.101,2.199l0,0h-3.199l0,0l-0.101,3.301v1.6l0,0l-0.899,0.2l-3.2-1.3l-3.7-0.2l-0.6,1l0.1,1.8l0,0
		h-5.6h-0.4l-17.1-0.1l0,0l0.1-3.1v-3.301l0,0h7.7l0,0l-0.101-1.4l0,0v-0.1v-1.199l0,0v-0.4l0,0h-1l0,0v-3.1l0,0l-3.399-0.101l0,0
		l-0.101-3.2v-1.6v-1.801l0,0h1.399h0.9l0,0l2.5,0.101l0,0l-2.4-3.399l1.5,0.399l2.7-0.5l2.5,0.101l2.3,0.399l3.301,1.601H594.982z"
		/>
	<path id="_x33_9836" fill="#8CCBEF" stroke="#000000" stroke-width="3" d="M421.281,244.284l5.7,2.2l2.8,0.4l3.8-0.9l4.601-0.9
		h7.899l0,0v3.5l-4.199,7l0,0l2.601,1.9l0,0l-1.601,1.4l0,0v2.1l0,0h-0.899l0,0v1.9l0.101,1.5l0,0h-2l-7-0.1l0,0h-2.2l0,0h-0.399
		l0,0l-1.301,2.6l0,0l-2.8-1.3l-14.8-7l0,0l9.199-13.1L421.281,244.284z"/>
	<path id="_x32_1810" fill="#8CCBEF" stroke="#000000" stroke-width="3" d="M142.582,224.784l0.699,0.9l0,0l0.801,1l0.1,1.4
		l0.601,0.9l3.5,1l1.899-0.5l1.101,0.9l0.301,2.7v1.1l1.898,2.2l-0.898,5l1.699,4.3l-1.301,5.4l3.5,3l0,0l-3.8,0.8l-3.8,2.3l0,0
		l-5.5-4l0,0l-0.7-0.1l0,0l-0.399,1.3l0,0l-2.699-0.1l0,0h-0.9l0,0h-2.5l0,0h-1.5l0,0h-1.5l0,0v-1.1l0.102-3.7l0,0v-0.9l0,0l0.8-5.8
		l0,0l0.3-0.4l0,0l0.5-0.9l0,0l0.5-0.9l0.3-0.6l0,0l0.8-1.5l0,0l-2.898-2.9l0,0l-0.102-7.2l0,0h0.4l0.9-0.5l0,0l0.3-0.2l0,0
		l1.398-0.2v1.6h3.802l0.198-4.3H142.582z"/>
	<path id="_x33_4316" fill="#8CCBEF" stroke="#000000" stroke-width="3" d="M435.382,320.884l2.601-5.199l0,0l-0.399,3l0.199,2
		l1.7-3.201l1.601-0.899l8.899,2.3l2.601,2.1l0.6,1.201l0,0h0.2l0,0l0.399,2.899l1.5,1.899l-0.199,3.101l0,0v3.899l0,0l-5.4-0.1l0,0
		l-0.3,2.6l-2.2,0.301l-1.8,1.3l0,0l-2.899,1.399l-9.2,0.9l-4.3-2.8l-0.5-1.2l0,0l-2.801-0.199l0,0l0.2-6.201l0.2-9.699l0,0
		l1.699,0.6H435.382L435.382,320.884z"/>
	<path id="_x30_6028" fill="#8CCBEF" stroke="#000000" stroke-width="3" d="M1020.382,321.284l5.399,0.6l0,0l6.399,2.5l11.5,5.6
		l2.9,2l0.899,1.5l0,0l-2.899,0.301l0,0l0.3,4.9l0,0h1.399l0,0l-1.699,7.699l0,0l-12.5,0.2l0,0l-0.101-3.2l-9.2-0.199l0.101-3.201
		h-3.399l0,0v-6.199l0.101-10.2L1020.382,321.284z"/>
	<path id="_x36_2756" fill="#8CCBEF" stroke="#000000" stroke-width="3" d="M407.081,316.983v12.9l-0.199,8.801l0,0l-11.601-8.801
		l0,0h-0.7l0,0l-0.3-0.199l0,0l0.101,0.199l-0.101,3.4l0,0l-0.2,2.9l0,0v6.199l0,0l-12.1-0.1l0,0l-0.601-0.1l0,0l0.101-6.301l0,0
		h3.399l0,0v-6.199l0,0l3.199,0.1l0,0v-3.1l0,0l-1.5-0.101l0,0l0,0l0,0l-1.6,0.7l0,0v-4.2l0,0h-3.4l0,0l0.2-3.399l0,0l1.7,1.199l0,0
		l0.899,0.801l0,0l0.699-2.801v-2.1l0,0h3.101l0,0L407.081,316.983z"/>
	<path id="_x32_0697" fill="#8CCBEF" stroke="#000000" stroke-width="3" d="M557.181,327.284l3.2,0.1h6.3h3.101h6.3l0,0v3.301
		l-0.1,3.1l0,0v9.3l0,0l-3.101,0.399l0,0v3l0,0l-6.3,0.101h-7.301l0,0l-2.101-0.5l-3.199-0.2l0,0v0.6l0,0h-3.101l0,0h-3.101h-1.5
		l0,0l-1.601-0.5l0,0v-0.399l0,0v-0.601l0,0v-1.6l0,0h1.4l0,0l1.699-1.699l0,0v-3.301l0,0l2.101,0.1l0,0v-1.6l0,0h-2.101l0,0
		l0.101-3.199v-1.701v-0.299v-0.601l0,0l0.7-0.601v-2l0,0h1.1l0,0l1.301,0.4l0,0v-0.1l0,0h1.6l0.101,0.699l1.5,0.301l0,0v-0.1l0,0
		l0.899,0.899l0,0h0.2h2l0,0v-0.7l-0.101-2.4l0,0v-0.199H557.181z"/>
	<path id="path20028" fill="#8CCBEF" stroke="#000000" stroke-width="3" d="M238.181,110.684l-0.3,0.6l0,0l-4.4,5.8l-1.699,4.1
		l-3.899,1.7l-5.8,1.9l-5.602,2.9l-3.199,1l0,0l1.5-1.2l3.399-1.2l2.8-2.9l0.602-0.1l0,0l2.199-0.4l0,0h0.5l0,0l1.801-0.4l0,0
		l2.3-0.6l0,0h0.5l1.399-1.2l1.601-2.1l0.6-1.8l0,0l5.301-6.4l0,0L238.181,110.684z"/>
	<path id="_x37_0784" fill="#8CCBEF" stroke="#000000" stroke-width="3" d="M305.781,407.084l0.5-0.3l0.3-0.2l0,0l4,7.1l0,0
		l2.101-1.5l0,0l3.601-2.698l0,0l2.101,2.8l0,0l0.8-0.4l1,0.602l0.5,3.6l-0.199,1.3l-0.9,1.4l-1.6,1.5l-1.101,0.399l-1-0.101
		l-0.601,0.5v1.4l0,0l1.2,1.898l0,0l3.899,0.102l0,0v1.1l0,0l1.199,1.7l0,0l-0.1,3.6l0,0l-1-0.1h-5.2l-7.8-0.102l0,0l-0.2-5.5l0,0
		v-1l-0.101-6.398l-3.8-9.7l0,0L305.781,407.084z"/>
	<path id="_x33_4302" fill="#8CCBEF" stroke="#000000" stroke-width="3" d="M159.582,197.284l0.199,0.3l0,0l-1.101,0.5l0,0l3.3,4.9
		l0,0l-3.199,2.2l0,0l-2.101,2.1l-2.2-0.2l-1.1,1.1l0,0l-0.2,0.2l0,0l-4.8,3.5l0,0h-0.5l-0.4-0.2l0,0l-2.398-1l0,0l-0.301-0.2l0,0
		l-2.301,2l0,0l-1.8-2.6l0,0l-1.399,0.9l-2.101,0.3l0,0l-0.899-1.4l1.399-1l-1.6-2.3l0,0h0.199l6.601-2l5.399-2.2l0,0l1.101,1.8l0,0
		l2.6-1.6l0,0l-0.6-1.4l0,0l3.8-1.5l3-1.2l0,0L159.582,197.284z"/>
	<path id="_x35_0090" fill="#8CCBEF" stroke="#000000" stroke-width="3" d="M399.482,482.784l0.199,0.2l0,0h1.899l0,0h0.9l0,0h3h0.6
		l0,0l11.9-0.102l0,0l-3.301,15.602l0,0l-3.199-2.801l-5.301-1.801l-3.199-0.3l-2.301-0.3l-2.699,1.7l-1.5,0.5l0,0l0.3-0.8
		l0.3-0.302l2.2-2.398l0.7-2.102l0.399-2.6l-0.801-2.5l-1.5-1.3l0.601-1.801l0,0L399.482,482.784z"/>
	<path id="_x35_8982" fill="#8CCBEF" stroke="#000000" stroke-width="3" d="M331.781,354.284h5.101l0,0v0.199h7.199l0,0h0.101l0,0
		l1.399-0.1l0,0l2.101,4.9l0.101,2.1l-0.601,1.801l-0.899,1.5l-1.8,0.899l0,0h-0.301l0,0v0.5l0,0v1.101l0,0h-1.3l0,0l-1.5,0.5
		l-0.7-0.101v-0.7l-1.3-0.6l-1.7-0.1l-0.899,0.399l-4.601,4.5l-0.699,1.601l0,0L331.781,354.284z"/>
	<path id="_x34_6660" fill="#8CCBEF" stroke="#000000" stroke-width="3" d="M1181.382,474.384h3.101l9.5-0.1l0,0l-0.101,12.8l0,0
		h-9.399h-0.9l0,0l-1.5-2.1l0,0l-1.1,0.6l0,0l-8.2-11.3l0,0L1181.382,474.384z"/>
	<path id="_x33_3574" fill="#8CCBEF" stroke="#000000" stroke-width="3" d="M276.481,85.184h0.102l0,0h0.3l0.399,0.1l0,0h1.601l0,0
		h2.2l0,0h0.8l0,0h0.8l0,0h0.4l0,0l5.898,0.2l0.9-0.1l0,0l4.2,0.2l0,0l1.1-0.1l0,0v6.5v2.7l0,0l-0.1,0.9l0,0l-5.4,0.3l0,0l-0.7-0.1
		l0,0v-0.5l-2.898-1.9l-1.602,0.5v0.7v0.2l-1.699-0.1l0,0h-0.399l-1.9-0.5l0,0l0.102-3.6l0,0h-1l0,0l-1,1l0,0h-2.301l0,0l-3-0.3l0,0
		l-0.199,0.3l0,0l-0.2-0.1l0,0l1.5-2.5L276.481,85.184z"/>
	<path id="path20042" fill="#8CCBEF" stroke="#000000" stroke-width="3" d="M1010.982,346.584h2.199h6.301l0,0l0.699,2.5l4.601,4.8
		l1,2.4v0.8l0,0l-3.3-0.2l0,0l-4.2-0.699l-8.5-3.701l0,0l0.2-0.399l1.1-0.7l0,0v-3.6l0,0L1010.982,346.584z"/>
	<path id="path20044" fill="#8CCBEF" stroke="#000000" stroke-width="3" d="M319.081,181.784l12.301-0.1l6.5,0.2l6.399,0.2l0,0v0.5
		l0,0l-6.399-0.1l0,0l-6.5-0.2l-12.5-0.1l0,0L319.081,181.784z"/>
	<path id="path20046" fill="#8CCBEF" stroke="#000000" stroke-width="3" d="M958.781,307.983h7.399l0,0v6.301h3l0,0v6.6l0,0h-9.8h-3
		l0,0l-0.101-3.5l0,0v-0.1l0,0l0.101-9.2l0,0L958.781,307.983z"/>
	<path id="path20052" fill="#8CCBEF" stroke="#000000" stroke-width="3" d="M271.082,85.184h5.398l0,0l-2.1,3.8l-1.5,2.5l0,0h-0.3
		l0,0l0.199-0.2l0,0l-4.399,3l0,0l1.899,1.4l0,0l-1.399,2.4l0,0l-3.9-2.2l1.602-2.4l0,0l0.699-1.6l0,0l0.601-1.5l0,0v-0.1l0,0
		l0.1-0.3l0,0l0.102-0.4l0,0l3.398-2.7l0,0l-1.198-0.8l0,0l0.5-0.9l0,0H271.082z"/>
	<path id="path20054" fill="#8CCBEF" stroke="#000000" stroke-width="3" d="M204.681,94.084l0.101,0.3l-3.101,2.5l-2.6,1.8l-1.2,0.2
		l-3.101,2.9l-3,1.7l0,0l-0.399-2.1l0,0v-3.6l0,0L204.681,94.084z"/>
	<path id="path20056" fill="#8CCBEF" stroke="#000000" stroke-width="3" d="M1063.482,343.784l2.1,2.5l0,0l-2.1,0.1l0,0v6.301
		l0.1,2.799l0,0h-3.1l0,0l-0.101-2.699l0,0h-3.101l0,0l0.101-2l-1.101-1.301l0,0l0,0l0,0l-1.699-3.1l0,0h2.5l0,0h1.199l0,0h1.101
		l0,0l3.3-1.3l0,0l0.801-0.101l0,0V343.784L1063.482,343.784z"/>
	<path id="_x32_0536" fill="#8CCBEF" stroke="#000000" stroke-width="3" d="M2257.581,454.384v-2.2l0,0l5.7-0.198l0.101,3.1
		l3.899-0.1l0.2,6.6l0,0l-9.7,0.3l0,0L2257.581,454.384z"/>
	<path id="path20061" fill="#8CCBEF" stroke="#000000" stroke-width="3" d="M1097.281,365.284l0.8-3.2h3.601l4.2,4.899l1.3,1.701
		h-2.8l-0.2,3.199l0,0h-3l0,0v-0.199v-5.5h-3.3l0,0L1097.281,365.284z"/>
	<path id="path20063" fill="#8CCBEF" stroke="#000000" stroke-width="3" d="M339.982,462.584l3,3.7l2.899,0.2l0,0l2,3.699l0,0
		l-4.601,4.101l0,0l-1.101-1.4l0.2-1.3l-0.301-0.898l-1.8-1.7l0,0l1.2-2.2l0,0l-1.601-1.602l0,0L339.982,462.584z"/>
	<path id="path20067" fill="#8CCBEF" stroke="#000000" stroke-width="3" d="M335.482,468.384l3.699,5.9l0,0l2.2,1.7l0,0l-0.7,0.6
		l-8.699-6.7l0,0l0.6-0.8l0,0l1.4-1.9l0,0L335.482,468.384z"/>
	<path id="path20071" fill="#8CCBEF" stroke="#000000" stroke-width="3" d="M1100.982,352.784l6.5,0.1l0,0v6l0,0l-2.5-0.199
		l-2.601-0.801l-2-1.199l-2.399-2.4v-1.5h1.699l0,0H1100.982L1100.982,352.784z"/>
	<path id="path20075" fill="#8CCBEF" stroke="#000000" stroke-width="3" d="M312.681,377.185v4.1h2.2l2.199,3.1l0.4,2.5l0,0
		l-5.101-0.1L312.681,377.185z"/>
	<path id="path20083" fill="#8CCBEF" stroke="#000000" stroke-width="3" d="M260.281,84.884l2.301,0.1l0,0l-0.102,0.1l0,0l-1.699,4
		l0,0h1.899l0,0l0.101,0.6l0,0l-1.601,2.3l0,0l-0.7,1.1l0,0l-0.898-0.4l0,0l0.398-5.7l0.2-2.1l0,0H260.281z"/>
	<path id="path20085" fill="#8CCBEF" stroke="#000000" stroke-width="3" d="M1107.482,363.784v0.5l0,0l-5.2-5.1h2h3.2l0,0V363.784z"
		/>
	<path id="path20089" fill="#8CCBEF" stroke="#000000" stroke-width="3" d="M870.181,128.784l-0.1,1.7l0,0h0.699l0,0v1.5l0,0h0.801
		l0,0v3.3l0,0l0,0l-3.101-0.1l0,0v-6.4l0,0H870.181z"/>
	<path id="path20093" fill="#8CCBEF" stroke="#000000" stroke-width="3" d="M344.081,354.483h-7.199v-0.199l0,0L344.081,354.483z"/>
	<path id="path20097" fill="#8CCBEF" stroke="#000000" stroke-width="3" d="M197.981,128.784l0.301,1.3l0,0h-1.399l-0.101,0.8
		l-0.199,0.1l-2.602-0.1v-0.8l0,0L197.981,128.784z"/>
	<path id="path20099" fill="#8CCBEF" stroke="#000000" stroke-width="3" d="M1094.882,368.685l2,0.1l0,0l1.101,1.1l0,0l0.1,2l0,0
		h-3.199l0,0L1094.882,368.685L1094.882,368.685z"/>
	<path id="path20105" fill="#8CCBEF" stroke="#000000" stroke-width="3" d="M282.781,94.684v0.6l0,0v1l0,0l-2.399-0.1l0,0l0.1-2l0,0
		l1.9,0.5H282.781z"/>
	<path id="path20113" fill="#8CCBEF" stroke="#000000" stroke-width="3" d="M888.781,292.084h0.8l0,0l0.101,0.6l0,0L888.781,292.084
		z"/>
	<path id="Wildomar" fill="#8CCBEF" stroke="#000000" stroke-width="3" d="M307.482,430.684l7.8,0.102h5.2l1,0.1l0,0h3.6
		l5.601-0.398l4.601,1.398l1.7-0.3l5.699-7.1l2.801-1.602l2-3.398l1.101-1h7.3l0,0l-0.101,3.5v9.698l0,0l1.801,5.102l0,0l4.5-0.102
		l0,0l-0.301,1.5l1.399,3.302l0.301,0.6l1.5,0.601l0.601,0.699l-0.2,3.7l-0.8,1.3l0,0l-2.801,6.301l-0.101,2.399l0,0l-0.601,1.8l0,0
		l-11.399,9.7l-1.8,1.601l0,0l-2-3.699l0,0l-2.899-0.2l-3-3.7l0,0l-0.101,2.6l0,0l1.601,1.602l0,0l-1.2,2.2l0,0l1.801,1.7l0.3,0.898
		l-0.2,1.3l1.101,1.4l0,0l-1.899,1.7l0,0l-2.2-1.7l0,0l-3.699-5.9l0,0l-1.5-1.2l0,0l-1.399,1.9l0,0l-1.301-0.9l-0.699-0.6l-1.4-1.1
		l0,0l-2.899-2.2l-9.5-7.3l-0.7-0.7l-1.3-0.9l0,0l-0.5,0.7l0,0l-1.2-0.9l0,0l-0.6,0.7l0,0l-2.2-1.8l0,0l-0.399-0.3l0,0l1.101-1.3
		l0,0l-2.601-2l0,0l-1,1.3l0,0l-4.6-3.4l0,0l-0.102,0.102l0,0l-3.1-2.5l-4.602-3.4l0,0l-0.5-0.399l0,0l1.2-1.601l1.9-2.6l0,0
		l3.8-5.102l5.899-7.7l0,0L307.482,430.684z"/>
	<path id="Temecula" fill="#8CCBEF" stroke="#000000" stroke-width="3" d="M414.581,498.884l-0.899,2.4l-0.899,2.7l0,0l0.5,1.8l0,0
		l-0.399,0.6l0,0l2.3,1.7l2.5,1l0,0l0.601,0.2l5.399-4.3l2.601,2.6l0.5,0.602l0,0l0.399-0.2l0,0v-0.9l0,0l0.101-0.1l0,0v-1.5
		l-0.7-3.5l1.601-2.3h2.899v-4.102l12.9,0.2l-0.2,12.399l0,0v0.399l0,0l-0.2,8.3l0,0v2.602l0.5,1.898l0.9,1.9l3.199,3.7l1.801,3.398
		l0.699,2.2l-0.101,3.4l0,0l7.601-3l0,0l0.301,1l0,0l-0.7,2.8l1.101,1.3l0.601,1.9l0,0l2.3,4.1l0,0l1.2,4l0,0l-2.7,1.8l0,0
		l0.301,0.9l1.399,4.1l-0.399,0.4l0,0l-2.101,0.6l0,0l-0.101-0.198l0,0l-17.301,5.3l0,0v0.2l0,0l1.4,1.3l0,0l-1.801,1.6l0.7,2.7
		l2.601,0.5l3.6-0.2l0,0l-0.1,0.9l0,0v1l-3,0.7h-2.801l-0.399-0.5l-1.5,0.1l-1.3,0.6l0,0l-0.2,0.2l0,0l-0.5,1.5l0,0l3.101,2l0,0
		l0.699,0.8l0,0l0.9,1.301l0,0l3.1,3l2.4,4l0,0h0.1l0,0l-3,4.899l0,0l-1.899-1.899l0,0l-3.5,1.199l2.7-2.1l0,0l-5.801-5.4l0,0
		l-3.5,3.7l0,0l-2.199,2.3l-6.801-5.8l-3.399,6l-5.3-7.7l-7.101-8.699l0,0l2.2-1.699l0,0l-0.7-0.801l-2.601-3.699l0.301-0.2
		l-0.2-1.9l-10.5-10.6l-1.601-3.8l0.7-0.602l0,0l-6.7-0.398l0,0l-11.699-13.801l0.3-0.301l0,0l1.5-1.3l0,0l5.7-5.5l0,0l2.899-2.6
		l0,0l2.899-2.8l0,0l2.899-2.4l0.301-0.2l-2.801-5.1l4.5-4.3l0,0l2.5-2.4l2.301,2.1l2.6-3.3l0,0l0.5-0.6l0,0l3.4,2.6l0,0l1.5-1.8
		l1.6-1.9l0,0L414.581,498.884z"/>
	<path id="Riverside" fill="#8CCBEF" stroke="#000000" stroke-width="3" d="M269.481,85.084l0.102,0.5l0,0l0.699,0.5l0,0l1.199,0.8
		l0,0l-3.398,2.7l0,0l-0.102,0.4l0,0l-0.1,0.3l0,0v0.1l0,0l-0.601,1.5l0,0l-0.699,1.6l0,0l-1.602,2.4l3.9,2.2l0,0l1.399-2.4l0,0
		l-1.899-1.4l0,0l4.399-3l0,0l-0.199,0.2l0,0h0.3l0,0l0.2,0.1l0,0l0.199-0.3l0,0l3,0.3l0,0h2.301l0,0l1-1l0,0h1l0,0l-0.102,3.6l0,0
		l-0.1,2l0,0l2.399,0.1l0,0v-1l0,0v-0.6l0,0l1.699,0.1v-0.2v-0.7l1.602-0.5l2.898,1.9v0.5l0,0l0.7,0.1l0,0l5.399,0.6l0,0v1.7l0,0
		h0.101l0,0l-3.601,4.4l0,0l-0.199,0.2l0,0l-2.101,0.2l0,0l-0.101,1.7l0,0l-2.2-0.1l0,0l-3.8,1.2l0,0l-0.601-0.1l0,0l0.101,1.5
		l15.101,0.2l1.3,2.7l0.101,2.9l-1.399,4.4v2.1l0,0v0.3l0,0v0.4l0,0l0.199,4l-1,5.8l-0.5,1.2l-0.199,4.4l0.8,1.6l0,0h-0.101l0,0
		h-1.6l0,0h-0.101l0,0l-0.2,3.3l1,3l0,0v1l0,0l1.601,0.4l0,0l0.399-0.4l0,0l0.7,0.3l0,0l0.101-0.1l0,0l2.5,0.2l0,0l0.199,0.6l0,0
		l0.2,0.2l0,0l1.101,2.4l3.699,2l0,0v-0.1l0,0l1.9,0.2l7.6,2.3l3,0.1l0.101-1.2l0.101,0.6l0,0l2.7,1.9l0,0l-1.4-0.1l0,0l-0.6,0.1
		l0,0l-0.9,0.8l0,0l-0.2,8.5l0,0h-1.398l0,0v-1.8h-1.602l-0.1,1.2l-1.9,0.3l0,0v0.1l0,0l-0.898,0.1l0,0h-1.2l0,0h-0.2l0,0h-0.699
		l0,0l0.601,1.5l0,0l0.1,0.3l3.601,11.2l0,0l-3.199-0.1l0,0l-5.801-0.2l-5.899,0.2l0,0v0.5l0,0l-0.601,2.6l0,0v0.1h-1.3l0,0v-2.9
		l-4.5,0.1l0,0l-0.101,2.9l0,0l0.101,0.9h-2.2l-2.3,1.6l-0.2,7.2l1.9-0.1l2.398,0.2v3l0,0l5,0.1l0,0l0.102-0.9l1.8-0.1h0.7v-0.7
		l0.1-1.2l0.8,0.1h4.2v-0.5v-1.5l3.101-0.2v14.4h-6.899l-8.8-0.1l0,0l-0.102-0.6l0,0l-3.6-0.9l0,0v7.8l0,0h-2.8l-6.4,0.2l0,0
		l0.101-1.6l0,0l-3.199-0.1v-2.2l-1.301-1.1h-1.601l0.101-1.3l0,0l3,0.1l0,0l3.101,0.8l0,0l0.1-0.9l0.102-12.8l0,0l-6.2-0.2l0,0
		l0.1-6.4l0,0l3.302-0.1l1.898,1.8l-0.2,3.6l0,0l1.102,0.1l0,0l0.2-10.9l0,0l-0.2-0.5l0,0l-12.4-0.1l-0.2,12.4l0,0l-12.5-0.2h-6l0,0
		l-5.1-0.1l0,0h-1.3l0,0l-0.9,12.2l0,0v0.9l0,0h-1.2l0,0l-17.6-0.5l0,0l-15.601-0.2h-4.699l-5.4-0.1l-5.398-0.2v-0.9l0,0l-4.802,3.4
		l0,0l-0.5-0.8l0,0l-0.1-0.2l0,0l-1.3-2l-1-1.6l0,0l-5.7,3.3l0,0l0.8,1.2l0,0l0.3-0.2l0,0l-0.3,2.2l0,0l-0.398-0.2l0,0l-1.302-0.4
		l-1.3,1l-0.898-0.5l0.198-1.5l-0.3-0.7l-2.7-1.9l-3.198-1l1-2.3l-5.102,1.3l-2.2,2.5l0,0l-2,1.9l0,0l-3.3-4.9l0,0l1.102-0.5l0,0
		l-0.2-0.3l0,0l-1.602-2.6l0,0l1.4-0.8l0,0l-3.601-5.2l-2-2.3h-0.301l0,0l-2.398,0.8l0.1-7.6h-1.3l0,0l0.3-21.3v-10.3h-1.398l0,0
		l-5.4-0.1v-4.7l0,0l0.1-2l0,0l0.802-0.2l0,0v-1.2l0,0l2.6-2l0,0l3.4,0.1l0,0h1.398l1.8-0.9l0.102-1.6l15.1,0.7l2-0.6l-0.1-1.2
		l1.898-0.8l4.5-0.7h3.4l1.3,1l3.2,0.1h0.4l0,0l3-0.8l0.898-1.7l4.8-2.4v1.1l0,0v0.8l2.602,0.1l0.2-0.1l0.1-0.8h1.4l0,0l0.6-0.4
		l7.8,0.1l0.102-0.8l0.1-0.4l0,0l0.5,0.4l0,0l4.3,0.3l0,0l1.602-0.6l0,0l3.198-1l5.602-2.9l5.8-1.9l3.9-1.7l1.698-4.1l4.4-5.8l0,0
		l0.3-0.6l0,0l-0.398-0.3l0,0l-0.4-0.2l0,0h0.1l0,0l1.5-3.4l0,0l0.302-1.3l0,0l-0.102,0.4l0,0l3.3-5.4l0,0l0.2-0.2l0,0l1.3-2.1l0,0
		l0.2-0.3l0,0l1.7-1.8l0,0l0.1-0.1l0,0l0.9-1.1l0,0l0.5,0.6l0.5,0.8l0,0l1.2-0.3l4-4.5l2.8-5.4l0,0l0.6-1.1l0,0h0.102l0,0h0.8l0,0
		h0.8l0,0l2-0.1l0,0l-0.2,2.1l-0.398,5.7l0,0l0.898,0.4l0,0l0.7-1.1l0,0l1.602-2.3l0,0l-0.102-0.6l0,0h-1.898l0,0l1.698-4l0,0
		l0.102-0.1l0,0L269.481,85.084z"/>
	<path id="Rancho_Mirage" fill="#8CCBEF" stroke="#000000" stroke-width="3" d="M921.081,260.884h3.4v2.5h2.699v6.3l0,0h6.601l0,0
		l-0.3,12.7l0,0l12.699,0.1l0,0l-0.101-3.5l0,0l0.2-6.7v-2.2l0,0l6.5,4.7l0,0l-0.2,7.8l0,0l6.301,0.1l0,0l-0.101,12.7v9.801l0,0
		v2.799l0,0l-2.399,0.101l0,0l-0.101,9.2l0,0v0.1l0,0l0.101,3.5l0,0v14.4v5.9l0,0l-3.101,2l0,0l-2.899,0.199h-2.801l0,0l-1.5,0.1
		l0,0l-0.5-1l0,0l-1,0.801l-0.199,15.699l0,0l-37.601,0.701l0,0v-5.5l-0.101-20.201l-12.3-0.1l-0.2-13.4l0,0l1.101,1.801l0.399-0.1
		l1.399-2l0.9-2.5l0.199-1.9l4.601-5.301l4.101-2.6h1.399h3.2v-3.4l4.699,0.101l3.101,2.5l-0.101-5.5h1.601l0,0v-0.3v-6.1l0,0h-6.3
		l0,0v-6.301v-6.4l0,0h5.8h0.7l0,0l0.199-12.8v-0.1l0,0l-0.101-3.9l0,0v-4.8H921.081z"/>
	<path id="Perris" fill="#8CCBEF" stroke="#000000" stroke-width="3" d="M330.382,217.484l5.399,0.1l1.399,3.1l0,0l0.101,1.2l0,0
		l2.8,5.4l0,0h3.101l0,0l0.601-0.2l0,0l12.601,0.1l0,0l9.8,0.2l0,0h0.399h6l0,0l-0.1,6.2l0,0l-0.101,6.3l0,0l5.3,0.1l0,0l3.5,2l0,0
		l8.2,10.5l0,0l-0.5,0.5l0,0v3.1h-7.801l0,0h-1.6l-1-0.1l0,0l0.1-3.2l0,0h-3.8l0,0v6.4l0,0l-4.899,0.2l0,0l0.5,2.5v3.6l0,0
		l9.899,0.1l0,0l0.7,0.5l0,0l-0.101,12.3l-0.2,12.7l0,0l-0.101,8.899l0,0l0.601-0.399l0,0l-0.101,1l0,0v3.3l0,0l7.5,0.1l0,0
		l-0.399,12.801l0,0h-3.101l0,0v2.1l-0.699,2.801l0,0l-0.899-0.801l0,0l-1.7-1.199l0,0l-0.2,3.399l0,0h3.4l0,0v4.2l0,0l1.6-0.7l0,0
		l0,0l0,0l1.5,0.101l0,0v3.1l0,0l-3.199-0.1l0,0v6.199l0,0h-3.399l0,0l-3.101-0.1l0,0l0.101-6.301l0,0l-21.5-0.199l0,0v5.6
		l0.8,2.801l-0.3,3.5l-0.601,1.1l0,0l-0.101,10.3l0,0v1.7l0,0v0.3h-0.2l0,0l-9.899-0.101l0.5-0.799l3.5-0.5l0.7-1.701v-2.399h-2.399
		l0,0l0.199-1.3l0,0l-5.199,0.6l0,0l0.1,6.1l0,0l-7.199-0.199l0,0h-5.101l0,0v-0.4v-11.9l0,0v-2.399l0,0l0.101-1.399l-2.899-2.701
		l0,0l0.1-6.399l0,0h5.9l3.1,0.101l0,0l1.301-2.601l0,0l0.101-21.601l0,0v-1.6l0,0l3.101,0.1l0,0l0.199-2.5l0,0v-1.199l0,0v-0.5
		v-2.1l0,0h-0.601l0,0h-3l0,0l-2.399,3l-4,2l-1.199,1.1l0,0l0.3-9.4h-1.899l0,0l0.199-3.3l0,0l1.601,0.1l0,0l0.101-3.3l0,0h1.199
		l0,0v-3.2l0,0h-2.8l0,0l0.101-5.9l0.101-4.6l0,0v-2.1l6.199,0.2l-0.199,3.1h3.399l-0.101,3.101h3.399l0,0l3,0.1h3.2h1.3h0.301l0,0
		l-12.801-37.7l0,0l2-0.7l0,0l-2.399-0.4l-6.899-19.5l0,0L330.382,217.484z"/>
	<path id="Palm_Springs" fill="#8CCBEF" stroke="#000000" stroke-width="3" d="M827.781,173.684h12.3l0,0l-0.199,5.8l0,0h6.399l0,0
		l-0.101,12l0,0l3.301,0.8l9,4.4l0,0l3.899,3.1l12,12.3l0,0l1.601,1.6l7.3,7.5l0,0v0.9l0,0l0.101,2.2v7.1v12.9l0.101,12.6l0,0v9.3
		l0,0l3.1,0.1l0,0v3.4l0,0h7.801h1.601l0,0v2.3l0,0v0.6l0,0l-0.101,9.9l0.101,4.8l2.899,3.1l0,0l3.199,2.9l0,0v0.4v1.4l0,0h-1.5
		l-4.6,0.2v-0.301h-0.2l0,0h-1.101l0,0l-0.699,0.101l0,0l-1.2-0.101l-0.101-6.199h-2.101v1.6l0,0h-0.8l0,0h-0.101l-0.101,1.7l0,0
		h-0.8l0,0l-0.101,3.101h1.101h0.7v1.299l1.6,0.101l-0.1,1h1.199l0.101,1.899h2.5l-0.101,8.201l-0.199,0.1h-0.9v1.1l-1.6,2.9
		l-1.601,5.699l0.101,0.601l3.3,1.399l-0.601,1l0,0l0.2,13.4l12.3,0.1l0.101,20.201v5.5l0,0v13.299l0,0l0.101,0.201h-0.101l0,0
		l-0.7,37.199l12.7-0.1v12.5l-12.3-0.102l-0.301,12.9l-0.199,14.2l-12.101-0.4l-0.2-13.8h-12.199l-0.4-22h-12.3l0.101-28.9h-12.899
		l0.199-13v-12.699h12.601l-0.101-12.801l0.2-12.899l0.101-12.9l0.1-12.7h-5.8l-0.2,9.7h-6.399v-3.899l0,0v-5.7l0,0h-11.399h-1.3
		h-11.2l0.101-12.8l0.101-12.8l-0.101-0.2l0.399-12.5l-0.101-6.2l-6.3-0.3l0.199-6.5l-6.3-0.1l-12.601,0.1l-12.601-0.3l0.101-12.6
		l0.2-12.8l-12.399,0.1l-0.101-12.4l-24.899-0.1l-0.301,12.5h-12.3l-0.101-25.4h0.7l12.1,0.2l0.101-23l-3.5-1.9l-4.3-5.6l0,0
		l15.899,0.7l9.899-1.6l4.801,1l1.699,0.7l0,0l0.399,16.3v3.1v0.3l-0.1,10l12.5-0.1v12.1l21.6,0.2l0.801-0.5l0,0l0.601,0.4l0,0
		l-4.301-4l-19.101-14.1l0.101-6.4l8.601,1.8l0,0h5.101l0,0l11.899-0.1v-0.7v-0.5l0,0v-6.2l0,0v-0.5v-0.4l0,0v-7.3l0,0l-2.5-0.1
		l0.2-5.6l0,0h2.399l0,0v-6.4l0,0l6.199-0.1L827.781,173.684z"/>
	<path id="Palm_Desert" fill="#8CCBEF" stroke="#000000" stroke-width="3" d="M952.781,274.784l5,3.7l0,0v0.1l0,0l13.601,10.4
		l25,18.1l0,0l1.3,0.8l0,0l4.601,3.6l0,0l3.5,2.4l3.8,2l11.2,4.2l0,0l-0.399,1.2l0,0l-0.801,2.3l-0.1,10.2v6.199l0,0v6.601l0,0
		h-6.301h-2.199l0,0h-10.101l0,0h-0.2l0,0l-0.601-12.899l0,0l-5.399,0.1l0,0l-5.699-0.1l0,0l-0.2,11.1l-0.101,1.6l0,0l-7.101,0.101
		h-2.399l0,0v6.5l0.2,4.8l0,0l0.101,0.1l0,0h1.6l0,0l0.101-0.1l0,0h0.301l0,0l0.1,1.1l0,0l-3.399,0.101l0,0v0.3l-0.101,0.4l0,0
		h-2.899l0,0v1l-0.101,0.1l-0.8-0.3l0,0l-3.3-0.101l0,0v0.101l0,0v0.5l0.199,0.399l0,0l-2.101,0.2l0,0v0.3v0.7l-0.1,5.9l0,0
		l0.199,2.2l0.101,2.899l0,0v0.101l0,0v11.6l0,0l-15.8-0.3l-0.2,3.2l-7.5,0.199l0,0l-1.7,5.101l-0.8,4.1l0,0h-0.601l0,0l-11.199-0.1
		v-12.5l11.3-0.101l0,0l1.3,0.101l0,0h0.101l0,0l-1.601-4.8l0,0v-0.801l0,0l1.601,0.101l0.2-20.5l0,0l0.199-15.7l1-0.8l0,0l0.5,1
		l0,0l1.5-0.101l0,0h2.801l2.899-0.199l0,0l3.101-2l0,0v-5.9v-14.4l0,0h3h9.8l0,0v-6.6l0,0h-3v-6.3l0,0h-7.399l0,0v-2.8l0,0v-9.801
		l0.101-12.7l0,0l-6.301-0.1l0,0L952.781,274.784z"/>
	<path id="Norco" fill="#8CCBEF" stroke="#000000" stroke-width="3" d="M143.882,136.584h1.1v1.2h-0.6l-0.101,2l0,0v1.2l0,0
		l-0.801,0.2l0,0l-0.1,2l0,0v4.7l5.399,0.1l0,0h1.399v10.3l-0.3,21.3l0,0l-0.101,4.9h-6.601l-0.6-0.6l0.1-1.7l-0.8-1.3l0,0l-3.2,2.5
		l-4.5,1.5l-2.5,1.5l-0.5,0.8l-0.2,1.5l0.602,1.5l0,0l-1.102,0.4l0,0l-1.898-0.8l-1.2-0.7l-1.2,0.1l-1.5,2.3l-1.399,0.1l-2.399-3.4
		l0,0v-0.9v-1.1v-0.1l0,0h-1.7l0,0v0.1l-0.7,2l0,0l-1.898,0.6l0,0l1.398,3.9l0,0l-0.6,0.4l0,0l-0.7-1.4l0,0l-2.3-0.3l0,0l0,0l0,0
		l-1.4,1l0,0l-1.1,0.7l0,0l-0.2-2.6l0,0l-0.399-0.5l0,0l-2.101-2.8l0,0l-0.5-0.9l-3.8-5.5l0,0l-2.601,1.9l0,0l-1.601-2.1l-4.6-6.3
		l0,0l-0.602,0.8l0,0l-0.3,0.4l0,0l-2.1-2l-7.301,8l-0.5-0.3l0,0l-2.101-1.3l0,0l-0.3-0.1l0,0l0.2-0.3l0,0l0.8-0.8l0,0l4.399-5.3
		l0,0l-1-0.9l0.199-0.8l1.602-2.2l1.398,2l0,0l1.801-1.4l0,0l-2.199-3.4l0,0l1.1-2.9l4-2.6l1.9-3l3.699-0.1l0,0l0.399-3.2l0,0
		l0.101-0.8l0.199-0.1l0,0l0.801-0.2l0,0l2.899-0.8l-0.3-1.3l-0.101-0.6l0.899-1.2l2.2-0.1l2.399-2.3l0,0l3.699-1.5l3.9,1.8l0.5-0.2
		l0.199-0.5l0,0l0.101-1.5l0,0l1.8,0.1v-1.7l4.7-0.3l0.2,0.4l0,0l-0.301,0.1l0,0l3.601-1.7l0.101-1.5v-1.2l1.699-1.7l1.101-0.5
		l4.399-0.5v-1.1l0.4-0.6h1.5v1.7l0,0h0.899l0,0l1.899-0.3l0,0l0.2,0.1l0,0l3-2.8l0,0v2.5H143.882z"/>
	<path id="Murrieta" fill="#8CCBEF" stroke="#000000" stroke-width="3" d="M393.781,418.884h0.899l0,0l2.601,0.102l0,0l-0.101,3.898
		l0.801,2.7l10.899,0.1l0,0l0.101,6.302l0,0l-2.601-0.102l0,0l-0.399,15.2l0,0v4l0,0v6.2l0,0l0.1,25.7l0,0h-0.6h-3l0,0h-0.9l0,0
		h-1.899l0,0l-0.199-0.2l0,0l-0.801-1.101l0,0l-0.601,1.801l1.5,1.3l0.801,2.5l-0.399,2.6l-0.7,2.102l-2.2,2.398l-0.3,0.301
		l-0.3,0.801l0,0l-1.301-0.102l0,0l4.101,5l-4.899,4l2.3,2.801l0,0l-4.5,4.301l2.801,5.1l-0.301,0.2l-2.899,2.399l0,0l-2.899,2.801
		l0,0l-2.899,2.6l0,0l-5.7,5.5l0,0l-1.5,1.3l0,0l-11.199-11l-1.5,0.2l-1-1.5l-0.101-1.2l-1-1.1l-7.2-7.4l-0.699,0.7l-2.4-2.8l0,0
		l0.5-0.5l0,0l-6.3-5.7l-5.399,4.9l-0.899-1.9l0,0l0.3-0.399l0,0l0.399-0.399l-1.8-5.9l-1.801-1.698l-0.899-2.7l1.101-2.5l-1-1.7
		l-4.101,0.3l0,0v0.7l0,0l-0.699,5.5h-1.601l0.199-11.7l-3.199-0.1l-2.101,1.898l-0.899,6.102l-1.399-0.102v-3.199l-4.5-4.699
		l-2.801,2.699l-1.5-0.301l1.2-9.1l8-5.7l1.899-1.5l-0.8-0.1l0,0l3.399-2.7l0,0l0,0l0,0l0.199-0.3l0,0l1.399,1.1l0.7,0.6l1.3,0.9
		l0,0l-0.6,0.8l0,0l8.699,6.7l0.7-0.6l0,0l1.899-1.7l0,0l4.601-4.101l0,0l1.8-1.601l11.4-9.7l0,0l2.1-1.8l5.101-4.2l0.2-8.6
		l24.899,0.398l0,0L393.781,418.884z"/>
	<path id="Moreno_Valley" fill="#8CCBEF" stroke="#000000" stroke-width="3" d="M321.882,116.584h8.399l0,0l1.5,1.8l0,0l0.101-1.1
		l21.101,0.2h4.399l-0.301,19.2l11.601,0.3l16.101,0.4l21,0.5l7.899,0.1v6.9h2.899v3.3l3,0.1v4.1l0,0h-0.1l0,0v5.1l0,0l6,1.3h3l0,0
		l2.399,5.3l0,0h2.3v3.7l0,0l3.7,2.4l0,0l0.101,4.9l0,0l8.1,0.1l0,0l2.9,2.4l8.1,11.3l0,0h-5l-5.199,4.7l0.101-4.6l-12.2-0.1
		l-1.101,0.8l-0.101,6.3h-6.8l0,0l0.101,6.2l0,0l-3.801-1l-6-8.3l-2.5-5.3l-2.6,4.4l-4.5,2.4l-1,2.8l-6.4,0.2l-5.6,1.9l-0.9,1.1
		l-6.5,8l-3.3-0.7l-1.7,1.9l-0.699,1.7l-2.601,3.3l-4.601,5.3l-1.601,0.3l-2.1-1.6l-0.2,0.7l2.101,4.4l0,0l0.399,0.9l0,0l0.7,1.7
		l0,0l0.3,0.4l0,0l-0.2,0.7l0,0h-6h-0.399l0,0l-9.8-0.2l0,0l-12.601-0.1l0,0v-0.2l0,0v-0.3l-0.101-6l0.2-13.2l0,0v-0.4l0,0
		l0.101-0.6l0,0l0.1-4.9l0.2-9v-3.7v-3.1v-3.1l0,0v-0.5l0,0l-6.399-0.2l-6.5-0.2l-12.301,0.1l0,0h-1.3l0,0l-1-3.7l0,0l-0.7-2
		l-2.199-6.6l-1.2-3.8l0,0l-0.899-2.6l0,0h1.2l0,0l0.899-0.1l0,0v-0.1l0,0l1.899-0.3l0.101-1.2h1.601v1.8l0,0h1.399l0,0l0.199-8.5
		l0,0l0.9-0.8l0,0l0.6-0.1l0,0l1.4,0.1l0,0l-2.7-1.9l0,0l-0.101-0.6l-0.101,1.2l-3-0.1l-7.6-2.3l-1.9-0.2l0,0l-0.1-0.4l0,0l0.3-8.2
		v-1l0,0l0.8-3.6l0,0h3.601l0.101,2.7h4.8v3.4h3.3l0.102,3.3l0,0l6.3,0.1l6.101-2.9l0,0l-7.399-0.2l0.1-6.2l5.4,0.1l0,0h2l0,0v-1.6
		v-4.6l0,0h-8.2l0.101-5.9l0,0l-0.101-2.8l0,0l-0.899-0.8l0,0l-1.801-0.6l-2.1-2.8v-1.4H321.882z"/>
	<path id="Menifee" fill="#8CCBEF" stroke="#000000" stroke-width="3" d="M378.482,329.483l-0.101,6.301l0,0l3.101,0.1l0,0
		l-0.101,6.301l0,0v6.199l0.101,5.801l0.899,4.399l6.399,11.7l2.7,4.9l2.5,5.399l0,0h-17l-8-0.2l0,0v-7.9l0.1-5l0,0l-10.5-0.299
		l-1.899-1.701l0,0l-2.8-1.6l1.5-7.4l1.199-1.899l0,0h0.2v-0.3l0,0v-1.7l0,0l0.101-10.3l0,0l0.601-1.1l0.3-3.5l-0.8-2.801v-5.6l0,0
		L378.482,329.483z"/>
	<path id="La_Quinta" fill="#8CCBEF" stroke="#000000" stroke-width="3" d="M1032.081,346.584l12.5-0.2l0,0v6.4l0,0h-6.199l0,0v6.4
		l0,0l6.199,0.1h2.301l0,0l-0.2,2.6l0,0l0.2-0.199l0,0l-2.301,2.299l0,0v1.601l0,0h-1.199l0,0l-0.101,3.2l-0.399,0.1l-0.301,0.801h2
		l0,0v2.5l0.101,12.699l0,0h12.601l0,0l-0.101,2.4l0,0v0.1l0,0v10.2l0,0h2.7l0,0v6.4l0,0h9.8l0,0l0.399,18.898l0,0h-6.399l0,0
		l0.2,9.8l2.8-0.198l0.2,3.398l0,0h-14.399l0,0l-0.101,2.9l-4.301-0.102l0,0v2.2v1.3l0,0l1.301,3.4l0,0l1.399-0.1l0,0l0.101,2.198
		l0,0l0.101,0.102l0,0l1.899,0.6l0,0l2.899,0.4h1.8l0,0v25.5l0,0l-25.3-0.3l-0.101-12.9l12.5-0.1l0,0l0.2-12.802l0,0l-40.2-0.398
		l0.399-22.8l0.4-2l0.1-26.102l0,0l0.2-25.3l7.7-0.2l9.5-5.6l-0.2-8.101l0,0l-0.601-0.1l0,0l-0.101,0.2l0,0h-0.199v-0.2l0.601-0.7
		l0,0l3.3,0.2l0,0v-0.8l-1-2.4l-4.601-4.8l-0.699-2.5l0,0v-6.6l0,0h3.399l-0.101,3.199l9.2,0.2L1032.081,346.584z"/>
	<path id="Lake_Elsinore" fill="#8CCBEF" stroke="#000000" stroke-width="3" d="M233.981,338.884l-3-0.1l0,0l0.4-9.6l12.399,0.299
		l-0.301,11.601l0,0l2.301,0.7l0,0l10.301,0.199l-0.102,7.9l0,0l1.7,5.1l0,0l10.601,0.301l-0.101,4.3l-0.6,2h-5.5l7.6,6.8l0,0
		l-0.1,0.2l0,0l5.1-0.8l0,0l1.101-1.1l0,0l2.199,2.299l0,0l-1.1,1.201l0,0l1.7,1.699l0,0l-2.7,1.7l0,0l3.2,3.101l0,0l0.6-0.9
		l-0.399-0.9l1-1.1l1,0.9l0.101,0.699l-3.2,3.301l1.101,1.5l5.801,0.1l-0.102-12.7l-3.199-0.101l-1-1.699l0.5-0.7l1.801-1.101
		l0.8-2.699l2.7-2.4v-4.3l-4.102-0.101l0,0l-0.3-0.199l0.3-2l-0.398-1l-2-1.7l-2.7-1l0,0l-0.3-1.399l0.3-3.301l2.1-4l-0.199-1.4
		l-1.101-3.1l0,0h3.9l0.3-17.6l-5.101-0.1l-0.101-3l18.4,0.199l-0.7,40.1h-3.4l-0.699,2.301l0,0l-2.899,0.9l0,0v3l0,0h7l0.1-3.201
		l0,0h4.5l0,0l1-3.299l0,0l1-0.101l0,0h2.9l0,0l0.1,3.3l0,0l-2.6,0.1l0,0v1.301l0,0v0.8l0,0h-0.2l0,0l-1.3,0.3l0,0v2.5l0,0h8.199
		l0,0l2.5,4.5l0,0l8.101,0.3l0,0v0.601v2.399h-3l-0.101,5.9h-3.3l-0.101,0.6l0,0l-0.3,9.601l5.101,0.1l0,0v3.3l1.199,0.8h3.801
		v-0.399l1.699-0.5h2.301l-0.101,2.7h1.699h5l0,0l3.301,0.1l0,0l7.601-0.1l0,0l13.5,0.1l0,0h1.5l0,0l-1.4,3.4l0,0l-0.1,1l0,0v1.898
		h-1.4l-0.199,6.4l0,0l0.101,0.3l0,0l-13.801-0.3l-10.8-0.2l-22.301-0.2l-0.399,0.7l0,0l-2.101,0.7l0,0l-0.3,0.2l-0.5,0.3l0,0
		l-2.399,1l0,0l3.8,9.7l0.101,6.398v1l0,0l-5.899,7.7l-3.8,5.101l0,0l-5.2-3.899l0,0l-1.7,2.5l0,0l-1.2-0.9l0,0l1.7-2.5l0,0
		l-1.3-0.898l0,0l0.399-0.602l0,0h0.101l0,0l-2.3-2.198l0,0l1.3-1.9l0,0l-0.3-0.2l0,0l-7-5.399l-2.3-1.699l-3.802,5.199l0,0
		l-0.6-0.5l0,0l3.8-5.199l-2.3-1.7l-2.2,3.1l-19.3-13.8l-2.3-1.898l-2.801-4.102l-2,2.602l0,0l1.699,1.3l0,0l-2.3,3.6l0,0l-0.8,1
		l0,0l-1.8-5.8l0,0l-1.7,2.5l0,0v0.2l0,0l-0.2,4.1l-2.899,0.102l0.101-6.802l0,0l2.899-4l0,0l-2.801-2.1l0,0l-0.898-0.8l0,0
		l-4.5-3.4l0,0l3.3-5.6l0.3-0.6l0,0l-1.898-1.4l1.6-2.7l-6.8,0.101l-0.3-0.101v-2.3l0,0l0.198-1.5l0,0l-13.8-0.2l0.102-12.899
		l9.6,0.199v-3.199l1.4,0.1l0,0l1.1-1.2l0,0l0.7,1.2l0,0h1.8l0,0h1.5l0,0l2.7,0.199l0,0l1.2-4.199l3.398-5.7l0.3-0.899l-0.5-0.601
		l-2.1-2.5l-2.4-2l-1.898-4.899L233.981,338.884z"/>
	<g id="Jurupa_Valley">
		<path id="_x36_3260" fill="#8CCBEF" stroke="#000000" stroke-width="3" d="M240.981,84.384l0.102,0.4l0,0l1.1,0.2l1.5,1.8l1.9,5.8
			l1.3,2.3l0,0l-0.9,1.1l0,0l-0.1,0.1l0,0l-1.7,1.8l0,0l-0.2,0.3l0,0l-1.3,2.1l0,0l-0.2,0.2l0,0l-3.3,5.4l0,0l0.101-0.4l0,0
			l-0.301,1.3l0,0l-1.5,3.4l0,0h-0.1l0,0l0.399,0.2l0,0l-5.301,6.4l0,0l-0.6,1.8l-1.601,2.1l-1.399,1.2h-0.5l0,0l-2.3,0.6l0,0
			l-1.801,0.4l0,0h-0.5l0,0l-2.199,0.4l0,0l-0.602,0.1l-2.8,2.9l-3.399,1.2l-1.5,1.2l0,0l-1.601,0.6l0,0l-4.3-0.3l0,0l-0.5-0.4l0,0
			l-0.101,0.4l-0.101,0.8l-7.8-0.1l-0.601,0.4l0,0l-0.301-1.3l0,0l-1.6-6l0,0l0.1-0.2l0,0l-0.3-1.1l0,0l-0.399-1.4l0,0l-1.199-3.8
			l0,0h-0.5l0,0l-2.301-12.8l0,0l3-1.7l3.101-2.9l1.2-0.2l2.6-1.8l3.101-2.5l-0.101-0.3l0,0l1-0.2l1-0.2l0,0l1,2.6l0.3,0.5l0,0
			l0.301,0.3l0,0h1.699l0,0l0.7,0.1l0.2,0.1l0,0l1.3-3.8l0,0l1.601-0.4l0,0l5.699-0.7l0,0l0.102-0.1l0,0l1.8,1.9l0,0l0.899-1.4l0,0
			l1.699,0.9l0,0l1-1.2l0,0l1,1.5l0,0l-0.8,2.1l0,0l-0.8-0.4l0,0l-0.2,0.3v0.2l0,0l1.601,0.9l2,0.4l1.601-1.4l0,0v-0.1l0,0l-1-0.7
			l2-3l0.7-4.1l2-3.6l0,0l1.8,1l0,0l1.399-2.1l0,0l3.101,0.9H240.981z"/>
		<path id="_x32_9644" fill="#8CCBEF" stroke="#000000" stroke-width="3" d="M186.382,71.384l-0.4,8.4l0.2,1.2l1.8,3.3v2l0,0
			l0.301,0.1l0,0v4.3l0,0h8.101l0,0l1,0.8l0.1,1.2l1.7,1.1h2.102l2.8-0.8l0.8,0.8l0,0l-0.2,0.3l0,0l-13.3,3.7l0,0l-12.5,3.5l-7.3,2
			l0,0l-3.602-2.9l-5.1-3.2l-3.5-2l0,0l-15.5-9.1l0,0l0.2-15.2l0,0l0.3-0.1l0,0l12.3,0.4l5.8-0.1l0,0l5,0.1h2.602l0,0l5,0.1l7.2,0.1
			l0,0H186.382z"/>
		<path id="path20014" fill="#8CCBEF" stroke="#000000" stroke-width="3" d="M156.781,125.684v-0.7l0,0l0.601,0.6l1.399,0.2
			l0.399,0.2l2.101,2.5l0.399,0.8l3.7-0.2l0.2-0.7l0.5-0.9l5.699,1l3.101,1.9l1.8,1.6h0.3l2.9-0.4l1.7,1.4l3.398-1l0,0l0.301,1.9
			l0,0h-0.399l-3.2-0.1l-1.3-1h-3.4l-4.5,0.7l-1.898,0.8l0.1,1.2l-2,0.6l-15.1-0.7l-0.102,1.6l-1.8,0.9h-1.399l0,0l-3.399-0.1l0,0
			l-2.601,2l0,0l0.101-2h0.6v-1.2h-1.1l0,0v-2.5l0,0l-3,2.8l0,0l1.3-5.3l1.601-1.5l0,0l0.399-0.3l0,0l4.7-3.5l3.1-1.3
			L156.781,125.684z"/>
		<path id="_x37_6022" fill="#8CCBEF" stroke="#000000" stroke-width="3" d="M223.082,71.384l-0.801,1.2l0,0l0.601,0.5l0,0l0.8-1.2
			l0,0l1.3,1l0,0l-4.898,13.4l0,0l-0.2,3.3l0,0l0.399,0.2l0,0l-0.699,2.5l0,0l-0.102,0.1l0,0l-5.699,0.7l0,0l-0.5-0.2l-4.5-2
			l-5.199-1.3l0,0l-0.7-2.6l0,0l4.399-2.4l2.199-1.8l0,0l0.602-0.9l2.6-0.3l0.3-1.9l-0.5-1.4l-0.698-0.8l0,0l0.5-0.5l0,0l2,0.3l0,0
			l5.3-2.7l0,0l-0.2-0.7l0,0l2.3-2.5l0,0H223.082z"/>
	</g>
	<path id="Indio" fill="#8CCBEF" stroke="#000000" stroke-width="3" d="M1040.681,300.983h2.301l0,0l3.899,2.601l5.3-0.101
		l1.2,0.601v3.8l0,0h4.2l0,0v0.1l0,0l0.6,0.5l0,0l6.301,6.5l5.1,3.201l0,0h4.101l-0.101,2.6l12.301-0.1l3,2.399l2.899,3.7l3.101,0.5
		l3.3,2.6l4.601-0.4l1.399,0.4l1.4,0.801l1.699,2.699l5.899,7.1l2.7,1.4l2.2,0.301l2,1.699l0,0v4.801l0,0v0.399l0,0l-6-2.899h-6.601
		l0,0v6.5v0.199l0,0l-6.5-0.1l0,0l0,0h-1.301l0,0h-1.699v1.5l2.399,2.4l2,1.199l2.601,0.801l2.5,0.199l0,0v0.1l0,0v0.201l0,0h-3.2
		h-2l5.2,5.1l0,0v1.1v2.101v1.2v3.199l0,0h-3.301l0,0l0.2-3.199h2.8l-1.3-1.7l-4.2-4.9h-3.601l-0.8,3.2l0,0l0.601,0.9l0,0h3.3v5.5
		v0.199l0,0h-0.199h-0.5h-2.399l0,0l-0.101-2l0,0l-1.101-1.1l0,0l-2-0.1l0,0v3.199l0,0l-12.399,0.101l0,0l-0.101,5.6l0,0l3,0.101
		v7.3l0,0l-3,0.1l0,0l-0.101,12.6l0,0h-12.601l-9.8-0.1l0,0h-2.7l0,0v-10.2l0,0v-0.1l0,0l0.101-2.4l0,0h-12.601l0,0l-0.1-12.699
		v-2.5l0,0h-2l0.3-0.801l0.399-0.1l0.101-3.2l0,0h1.2l0,0v-1.6l0,0l2.3-2.3l0,0l-0.2,0.199l0,0l0.2-2.6l0,0h-2.3l-6.2-0.1l0,0v-6.4
		l0,0h6.2l0,0v-6.4l0,0l1.699-7.699l0,0h-1.399l0,0l-0.3-4.9l0,0l2.899-0.3l0,0l-0.899-1.5l-2.9-2l-11.5-5.601l-6.399-2.5l0,0
		l1-1.199h5.399l0,0v-6.4l0,0h3.2l0,0h2.601l0,0v6.4l0,0h-2.7l0,0v2.899l0,0v0.5l0,0h6.2l0,0h3.1l0,0v-9.899l0,0h0.801l0,0l1.8,0.1
		l0,0h0.899l0,0l0.2-6.4l0,0h-7.7l0,0L1040.681,300.983z"/>
	<path id="Indian_Wells" fill="#8CCBEF" stroke="#000000" stroke-width="3" d="M1000.081,333.685l0.601,12.899l0,0h0.2l0,0h10.101
		l0,0l0.1,1.2l0,0v3.6l0,0l-1.1,0.7l-0.2,0.399l0,0l8.5,3.701l4.2,0.699l0,0l-0.601,0.7v0.2h0.199l0,0l0.101-0.2l0,0l0.601,0.101
		l0,0l0.2,8.1l-9.5,5.6l-7.7,0.2l-0.2,25.3l0,0l-36,0.2v-10.1l-0.3-1.7l0,0v-11.6l0,0v-0.101l0,0l-0.101-2.899l-0.199-2.201l0,0
		l0.1-5.899v-0.7v-0.3l0,0l2.101-0.2l0,0l-0.199-0.4v-0.5l0,0v-0.1l0,0l3.3,0.1l0,0l0.8,0.301l0.101-0.1v-1l0,0h2.899l0,0l0.101-0.4
		v-0.301l0,0l3.399-0.1l0,0l-0.1-1.1l0,0h-0.301l0,0l-0.101,0.1l0,0h-1.6l0,0l-0.101-0.1l0,0l-0.2-4.801v-6.5l0,0h2.399l7.101-0.1
		l0,0l0.101-1.6l0.2-11.1l0,0l5.699,0.1l0,0L1000.081,333.685z"/>
	<path id="Desert_Hot_Springs" fill="#8CCBEF" stroke="#000000" stroke-width="3" d="M842.281,115.584l3.3,2.8l1,2.9l0,0l0.101,7.3
		l0,0l10.5,0.1l0,0v0.1l0,0h2.101l0,0v-0.1l-0.101-8.8l0,0v-0.5l0,0l0.2-3.7h5.699v6.8h2.4l0,0h3.1l0,0h3.7v1.4l1.3,1.1h1v-2.5
		l0.9,0.1l0,0h1.5v0.2l0,0l2.1,2.3l0,0l0.5-0.5l0,0l-0.3-0.5l0,0l2-1.2l0,0l-1.101,1.2l0,0l1.601,2l0,0l0.399,0.4v2.3v0.1l0,0h0.899
		l12.2,0.1l-0.2,12.8h2.4l0,0l2.899,0.1l0,0l7.101,0.1l-0.101,11.9l0,0l0.101,0.8l0,0l-12.801-0.2l0,0l-0.101,6.7l0,0l-7.399-0.1
		l0,0l-5.3-0.1h-2.801l0,0l-0.399,6.4l0,0l-3.101,0.1l0,0l0.2-7.6l0,0l-1.601,1l0,0h-10.8l0,0l0.101,6.6l0,0h-3.101l0,0v-1.5l0,0
		v-0.9l0,0h-3.101l0,0l-0.101-10.7l-0.101-12.8l0,0h-3l-9.6-0.1l-31.5-0.1l-6.2,0.4l0,0l0.101,6.2l0,0v6.6l0,0h-3.301l0,0l-7.3-0.3
		l-2.3-0.5l-12.601-0.2l0.3-37.9l12.5,0.5l27-1l9.101,0.2l0,0L842.281,115.584z"/>
	<path id="Cathedral_City" fill="#8CCBEF" stroke="#000000" stroke-width="3" d="M896.081,208.184l1-2.2l0,0l2.4,3.2l0,0l3.899,5.6
		l0,0h4.899v-9.2l12.899-0.1v26.1l-0.101,12.8l0.101,7.4v4.9l0,0v0.2l-0.101,4l0,0v4.8l0,0l0.101,3.9l0,0v0.1l-0.199,12.8l0,0h-0.7
		h-5.8l0,0v6.4v6.301l0,0h6.3l0,0v6.1v0.3l0,0h-1.601l0.101,5.5l-3.101-2.5l-4.699-0.101v3.4h-3.2h-1.399l-4.101,2.6l-4.601,5.301
		l-0.199,1.9l-0.9,2.5l-1.399,2l-0.399,0.1l-1.101-1.801l0,0l0.601-1l-3.3-1.399l-0.101-0.601l1.601-5.699l1.6-2.9v-1.1h0.9
		l0.199-0.1l0.101-8.201h-2.5l-0.101-1.899h-1.199l0.1-1l-1.6-0.101v-1.299h-0.7h-1.101l0.101-3.101l0,0l0.899,0.6l0,0l-0.101-0.6
		l0,0l0.101-1.7h0.101l0,0h0.8l0,0v-1.6h2.101l0.101,6.199l1.2,0.101l0,0l0.699-0.101l0,0h1.101l0,0h0.2v0.301l4.6-0.2h1.5l0,0v-1.4
		v-0.4l0,0l-3.199-2.9l0,0l-2.899-3.1l-0.101-4.8l0.101-9.9l0,0v-0.6l0,0v-2.3l0,0h-1.601h-7.801l0,0v-3.4l0,0l-3.1-0.1l0,0v-9.3
		l0,0l-0.101-12.6v-12.9v-7.1l-0.101-2.2l0,0l3.2,2.9l9.399,6.7l0.399-0.2l0,0h-0.101l0,0v-12.9h-9.399l0.101-6.4h4.5l-0.101-5.2
		l0,0L896.081,208.184z"/>
	<path id="Canyon_Lake" fill="#8CCBEF" stroke="#000000" stroke-width="3" d="M327.681,353.685l0.601,0.199l0,0l2,0.4l0,0h1h0.5l0,0
		l-0.3,18.4l0,0l0.5,7.299l2.5-3.199l0,0h9l0,0h0.6l0,0v3.199l3.5,0.101l0,0l0.5,3.601v2.1l0,0l0.101,0.9l0,0l-0.399-0.201l0,0
		h-3.699l0,0l-0.101,6.301l0,0l-7.601,0.1l0,0l-3.301-0.1l0,0h-5h-1.699l0.101-2.7h-2.301l-1.699,0.5v0.399h-3.801l-1.199-0.799
		v-3.301l0,0l-0.399-2.5l-2.2-3.1h-2.2v-4.1l0,0l0.101-0.601h3.3l0.101-5.899h3v-2.4v-0.6l0,0l0.101-13.601l8.399,0.2l0,0v-0.6
		H327.681z"/>
	<path id="Corona" fill="#8CCBEF" stroke="#000000" stroke-width="3" d="M95.481,175.084l0.602-0.8l0,0l4.6,6.3l1.601,2.1l0,0
		l2.601-1.9l0,0l3.8,5.5l0.5,0.9l0,0l2.101,2.8l0,0l0.399,0.5l0,0l0.2,2.6l0,0l1.1-0.7l0,0l1.4-1l0,0l0,0l0,0l2.3,0.3l0,0l0.7,1.4
		l0,0l0.6-0.4l0,0l-1.398-3.9l0,0l1.898-0.6l0,0l0.7-2v-0.1l0,0h1.7l0,0v0.1v1.1v0.9l0,0l2.399,3.4l1.399-0.1l1.5-2.3l1.2-0.1
		l1.2,0.7l1.898,0.8l0,0l1.102-0.4l0,0l-0.602-1.5l0.2-1.5l0.5-0.8l2.5-1.5l4.5-1.5l3.2-2.5l0,0l0.8,1.3l-0.1,1.7l0.6,0.6h6.601
		l0.101-4.9l0,0h1.3l-0.1,7.6l2.398-0.8l0,0h0.301l2,2.3l3.601,5.2l0,0l-1.4,0.8l0,0l1.602,2.6l0,0l-1.4,1l0,0l-3,1.2l-3.8,1.5l0,0
		l0.6,1.4l0,0l-2.6,1.6l0,0l-1.101-1.8l0,0l-5.399,2.2l-6.601,2h-0.199l0,0l1.6,2.3l-1.399,1l0.899,1.4l0,0l2.101-0.3l1.399-0.9l0,0
		l1.8,2.6l0,0l2.301-2l0,0l0.301,0.2l0,0l2.398,1l0,0l0.4,0.2h0.5l0,0l0.399,0.2l0.601,2.3l4.3,1.7l1.5-0.2l3.3-2.7h5.801
		l-0.101,4.6l5.4,0.3l-0.7,1.1l-1.3,0.3l-0.7,5.5l-0.8,1.8l2.6,2l1.601,3.6l-0.301,12.8l-5.5-0.1l-6.3,3.9l0.601-4l3.399,0.1
		l0.2-8.5l-4.2-0.1l0.101-4.5l-3.101-3.2l-6.2-0.1v-2.7l-5.3-0.1l-0.399-0.5l0,0v0.3l0,0l-0.699-0.9l0,0h-2.102l-0.199,4.3h-3.801
		v-1.6l-1.398,0.2l0,0l-0.301,0.2l0,0l-0.899,0.5h-0.4l0,0l0.102,7.2l0,0l2.898,2.9l0,0l-0.8,1.5l0,0l-0.3,0.6l-0.5,0.9l0,0
		l-0.5,0.9l0,0l-0.3,0.4l0,0l-0.801,5.8l0,0v0.9l0,0l-0.101,3.7v1.1l0,0h1.5l0,0h1.5l0,0h2.5l0,0h0.9l0,0l2.699,0.1l0,0l1.199-0.7
		l2.5,3l-1.398,1.5l-0.301,5l-3.801,4.2l-0.1,5.7l-20,0.4l0.2-8.1l-16.5-10l-1.301-1.6l-10.601-12l-3.1-3.3l-0.102,1v4.1l-4.6-0.2
		l-0.8-2.2l0.199-2.5l2.101-1.6l-1.101-2.7l-3.301-3l-4.3-4.4l0.8-4.4l-15.898-6.1l-0.2,6.1l-6.101-0.1l0.101-8.3l-4-0.9l0,0
		l-0.101-7.5l0,0l-0.801-0.3v-0.8l3-0.1l6.801-2.1l7.301,0.3l-1.102,1.8l0,0l6.7,6.9l0,0l-0.1,0.4l-0.5,0.5l0,0l4.898,5l-0.5,2l2-2
		l-0.6-1.2l-0.7-1.4l-2.1-1.4l2.5-2.8l3.8,1.6l0,0l-2.101,2.3l0,0l0.801,1.1l0,0l6.3-6.4l-0.5-0.4l0,0l0.8-0.7l0.3-0.5l0,0l-1.5-0.6
		l0,0l0.102-0.4l0,0l-2.5-0.7l0,0l0.199-0.6l0,0l-0.199-0.1l0,0l-6.7-1l-11-2.4l0,0l10.399-1.8l0,0l-2-1.7l0,0l1.399,0.1l1.8-0.7
		l1.301-2.9l-2.699-2.7l-5.5-0.1l-0.801-5.5l2.301-0.601l0.898,1.8l2.102-0.8l-1.5-3.899l0,0l-0.5-1.101l2.5-1.1l0.6,2l0.9-1.1
		l0.1-0.1l0,0l4,1.8l0,0l1.5-3.5l0,0l2.101,1.3l0,0l0.5,0.3l7.301-8l2.1,2l0,0L95.481,175.084z"/>
	<path id="Coachella" fill="#8CCBEF" stroke="#000000" stroke-width="3" d="M1120.081,348.685l2.2,1.899l2.399,2.8l2.5,5.6l0,0h-1.1
		l0,0v3.201l0.1,3.299l0,0h-3.8l0,0l-2.301,3.101l0,0v3.3l0,0l6.2,0.1l0,0l0.1,6.5l18.602,0.101v-9.601l0,0l2.699,1.101
		l14.699,3.399l3.801,0.301l3.699-0.5l0,0v24l-9.5,0.1l-0.898,0.102l0,0l-0.5-0.102l0,0l-19.5,0.2l0,0l-7-0.1v1.398l0,0l1,2l0,0h5.3
		l0.1,3h2.7l0,0h0.5l0,0l3,3.3l0,0v3.102l0,0l9.1,0.1l0,0l0.102,3.102l-3,2.898l-3.102,0.102l-1.398,3v1l0,0v2.698l0,0l-7.3-0.1
		h-0.5l0,0l-2-2.4l-1-3.6l-3.102,0.1l0,0l-4.898-6.898l0,0h-0.5l-4.9,0.1h-2.6l-12.7-0.1l0,0l0.3,12.8l0,0h-12.6h-3.302l0,0
		l0.102-6.3l0,0h3.1l0,0l-0.3-6.5l0.3-12.5v-6.4v-4.6l0,0h-1.5l0,0l-1.699-1.8l0,0h-3.101l0,0v3.3l0,0h-3.1v-0.9l0.698-0.1
		l0.4-0.601v-1.699l0,0h-1.2l0,0v-7.301l-3-0.1l0,0l0.102-5.6l0,0l12.398-0.101l0,0h3.2l0,0h2.4h0.5h0.199l0,0h3l0,0h3.301l0,0v-3.2
		v-1.199v-2.101v-1.1l0,0v-0.5l0,0v-4.601l0,0v-0.199l0,0v-0.101l0,0v-6l0,0v-0.2v-6.5l0,0h6.6l6,2.9l0,0V348.685L1120.081,348.685z
		"/>
	<path id="Blythe" fill="#8CCBEF" stroke="#000000" stroke-width="3" d="M2034.081,481.685h3.601l0.399,12.699l0,0l-16.3,0.5
		l0.3,6.5l-2.899,0.2l-0.199-6.6l-13.101,0.199l-0.101-10l-2.8,0.101v-3.2L2034.081,481.685z M2217.281,373.983v-0.1l0,0l4.101,1.7
		l0,0l3,1.2l11.601-0.1v1.199l0.399,20.9l0,0l-2.601,0.1l0,0v0.102l0,0l0.2,6.198l0,0l3.3-0.1l0,0l0.2,6l0,0v0.4l0,0l6.199-0.301
		l6.399-0.101l0,0l0.3,7.9l-1.398,4.8l0,0l1.3-0.102l18.899-0.6l12.5-0.4l0,0l-0.399-12.698l0,0h0.101l0,0l-0.101-0.102l0,0
		l-0.101-12.898l0,0l20.301-0.7l0,0l0.398,0.898l0.2,1.7l-0.1,1.3l-0.4,0.9l-0.8,1.4l-0.102,0.1l-0.898,2.1l-1.3,2.602l0.1,2.2
		l0.8,3l0.301,0.8v0.1l0,0l-0.399,0.2l0,0l-6.101,2.3l-4.699-1l-1.602,0.8l0,0l-0.3,0.302l0,0l0.101,1.3l14.101-0.102l0,0l0.2,1.102
		l0.1,3.898l-1.1,2.602l-0.2,0.6l-0.7,1.8l0.2,4.102l1.3,3.5l1.601,1.898l0.801,2l-0.101,2.602l-1.399,2.2l-1.7,2l-0.699,1.198
		l-0.4,0.602l-6.898,11.7l0.199,5.3l0.199,4.2l3.301,10l0,0l0.199,0.3l0,0l-7.398,0.3l0.199-2.5l-1.5-2l-0.101-0.899l0.2-1.101
		l1.3-1.899l0.2-1.199l-0.9-4.2l0.102-2l1.1-2.4l-2.1,0.102l0,0h-0.301l0,0l-16,0.5l-3,0.1l0,0l-0.199-6.6l-3.9,0.1l-0.1-3.1
		l-5.7,0.198l0,0l-0.101-1.3l0,0l-11,0.3l0,0l-1.199,0.602l0,0h-0.2l0,0v1.2l0,0l-1.5-0.802l0,0l-0.2-5.3l0,0h-1.8l0,0l-9.3,0.102
		l0,0v-0.302l0,0l-17.102,0.102l0,0l1.602-3l0,0l15.398-0.102l6.301-0.198l0,0l-0.101-3l0,0l-0.2-3.4l0,0l4.9-0.2l0,0l-0.101-0.199
		l0,0l-1.5-1.5l0,0h-0.101l0,0l-0.101-4.5l0,0v-0.5l0,0l-0.2-6.199l0,0l-9.699,0.3h-2.101l0,0l-1.101-6l0,0h-0.199l0,0l-0.301-19.2
		l0,0l-3.5,0.1l0,0h-0.101l0,0l-6.1,0.2l0,0l-12.4,0.3l0,0l-0.2-5.398l6.102-0.101l-0.2-7.6l0,0h4l0,0l-0.101-6.5h2.301l0,0
		L2217.281,373.983z"/>
	<g>
		<path id="path20010" fill="#8CCBEF" stroke="#000000" stroke-width="3" d="M527.281,113.484l-0.899,2.1l-4.301,4.7l-0.899,1.7l0,0
			l-0.101,0.1l0,0l1.601,4.1l0,0l-1.699,0.1l0,0l-0.101,3.1l0,0h-1.5l0,0l-0.2,10.1l0,0l-1.199,2.7l0,0l-2.2-0.9l0,0l0.101-1.4l0,0
			l-1-0.9l0,0l-11-0.1l-1,0.4l0,0l-3.7-2.5l-0.8-0.5l0,0l-1.399-1.1l0,0l-0.7-1l0,0l-0.899-0.4l0,0l-1.7-0.5l0,0l0.5-0.3l5-0.3l0,0
			l0.801-6.5l0,0h2.1l0.101-6.1l12.5-0.1h0.601l5.7,0.1v-6.4L527.281,113.484z"/>
		<path id="path20050" fill="#8CCBEF" stroke="#000000" stroke-width="3" d="M528.181,139.084h7h0.9l0,0v11.2l0,0l-3.2,1.5
			l-0.101,2.4l0,0l-1.699,1.2l0,0l0.199-1.1l-0.5-2.5l0,0h-3.601l0,0l2.399-5.2l0,0h-0.699L528.181,139.084z"/>
		<path id="Calimesa" fill="#8CCBEF" stroke="#000000" stroke-width="3" d="M492.382,100.384l9.399,0.1l3.2,0.2l0,0l5.399,0.1l0,0
			l8.899,0.6l4.899-0.2l0,0l0.101,3.2h3.2v1.3l0,0v1l0,0l-0.2,6.8l0,0l-6.3,0.2v6.4l-5.7-0.1h-0.601l-12.5,0.1l-0.101,6.1h-2.1l0,0
			l-0.801,6.5l0,0l-5,0.3l-0.5,0.3l0,0l1.7,0.5l0,0l0.899,0.4l0,0l0.7,1l0,0l1.399,1.1l0,0l0.8,0.5l3.7,2.5l0,0l6,5.3l0,0v0.3
			l-0.101,0.4l0,0l-6.7,0.5l0,0l-11.5-0.1l0.101-7.6l-21.899-1.8l0,0l-3.5-3.7l-3.399-2.5l-2.801-1.7l0,0l-1.5-0.9l0,0l0.101-0.3
			l0,0l-6.601-0.5l0,0v-1.6l6.5-5.7l0.101-5.9l-17.601-0.3v3.6l-8-0.1l0.101-3.6l-6.8-0.1l0.101-6.4l6.8,0.1l0.2-5.9l0,0l12.5,0.1
			l0,0l27.699,0.3l0.899-0.1l0,0l4.101-0.3l0,0l3.7-0.1l0,0h4.8L492.382,100.384z"/>
		<path id="_x31_2916" fill="#8CCBEF" stroke="#000000" stroke-width="3" d="M539.181,101.084l7.4,0.1h0.899l0,0l11.3,0.1l0,0
			l-0.5,2l-0.699,1.1l-4.2,5.5l-0.601,2.1l-0.199,6l0,0h0.3l0,0l0.3-0.5l0.4,1.1l0,0l1.6-0.2l0,0l3.5-2.4l0,0h3.4l-0.2,1.3
			l0.899,1.2l0,0l-1.399,1.6l0,0l-2.3,2l0,0l-1.9,3.4l0,0l3.101,2.1l0.601,1.2l1.399,4.6l0,0l2.101-0.5l0,0l-0.101,6.4l-3-0.1v1.6
			h-3.2l0,0v1.7l0,0l-3.399-0.1l0,0l0.101-1.6l0,0l-1-0.1l0,0l0.101-1.3l0,0v-0.2l0,0l-8.399-0.1l0,0l-0.101,6.4l0,0h-1l0,0
			l-0.601-0.8l0,0l0.101-1.5l0,0l-1.8-4.1l0,0h-6l0,0h-0.9h-7l0,0l-8.399-0.1l0,0l-0.601,0.5l0,0l0.2-10.1l0,0h1.5l0,0l0.101-3.1
			l0,0l1.699-0.1l0,0l-1.6-4.1l0,0l0.1-0.1l0,0l0.9-1.7l4.3-4.7l0.899-2.1l0,0l0.2-6.8l0,0l5.101-0.9l1.5-0.5l0.899-1.2l0,0
			L539.181,101.084z"/>
		<path id="San_Jacinto" fill="#8CCBEF" stroke="#000000" stroke-width="3" d="M502.081,260.084l-0.1-7.8l9-4.2l2,1.3l2.699,1.2l0,0
			l-0.101,9.7l0,0l13.601,0.2l0.101,6.2l0,0l-0.101,0.1l0,0h9.301l0,0l0.1,3.4l0,0h1.601l0,0h2.5l0,0l3.7,0.1l0,0v-0.6l0,0v-2.7
			l-3.301-3.3l0,0l0,0l0,0l0.801-2.8h-0.301l-0.199-0.8l6.8-0.2v7.3l6.5,0.3v1.9l-3.899-0.1l-2.899-1.1l0,0l-0.101,0.3l0,0v0.8
			l-2.7,6l1.9,1.9l0,0l2.1,2.3l0,0h-3l0,0l-0.1,0.3v10.5l0,0l0.6,0.4h1l0,0h1.5l0,0v-0.6l0,0l3.2-1.1v-7.9l0,0l1,0.5l0,0l3.5-3.7
			l4.7,3.9l0.5,0.3l0,0l-0.4-2.1l0,0l0.5-0.7l0,0l4.801,3.5l0,0l0.899-0.101l0,0l3.399-0.2l0.301-1l-0.301-0.5l0.5-0.7l4,0.1
			l-0.101,2h-1.8l-0.3,6.9h1.899v3.3l-3.101-0.1l-4.601,6.5l-0.101,0.101l0,0l-0.199,0.399l-0.301-0.5l0,0l-2-0.1l0,0l3.101,4.7
			l4.899,5.5l0,0l0.9-0.9l1.199,3.9h-3.399l0,0l-0.8-0.8l0,0l-0.101,0.8l0,0l-3.101-0.101l0,0v2.601l0,0l-3.7,0.2l0,0l-0.5-0.301
			l0,0v1.801l0,0l4.4,3.6l0,0l-3.4,1.5l-4.399,0.1l-1.3,0.801l-0.101,1.899l0,0l-0.399-0.399l-3.399-2.801l-3.101-3.199l-0.399-3.9
			l0,0l0.1-0.9l0,0l-2.6,0.301l0,0v0.8l0,0l-0.801,1.899l-1.5,1.601h-3.899l0,0l0.101-9.3l0,0h-4.101l0,0l-0.7,0.8l0,0v0.2l0,0h-1.5
			l0,0v-4.4l0,0h-6.199l-3.2-0.1h-16l-9.3-0.101l-9.801-0.3l0,0l0,0l0,0v-1.2l0,0v-5.2l0,0h-3.199l0,0v-6.1l-1.601-2.7l-1.601-0.4
			l-1.699,1l-5-0.1l0.3-8l-5.2-13.2l-0.5-2.3l-0.3-17.9l1.101-1.1l0,0l16.601,12.7l1.399,0.2H502.081L502.081,260.084z"/>
		<path id="Hemet" fill="#8CCBEF" stroke="#000000" stroke-width="3" d="M490.882,297.983h3.199l0,0v5.201l0,0l-6.199-0.101v-2
			l2.899,0.101L490.882,297.983z M494.081,304.384L494.081,304.384L494.081,304.384l9.801,0.301l9.3,0.1h16l3.2,0.1h6.199l0,0v4.4
			l0,0h1.5l0,0v-0.2l0,0l0.7-0.8l0,0h4.101l0,0l-0.101,9.3l0,0h3.899l1.5-1.601l0.801-1.899l0,0v-0.8l0,0l2.6-0.301l0,0l-0.1,0.9
			l0,0l0.399,3.9l3.101,3.199l3.399,2.801l0.399,0.4l0,0l0.101-1.9l1.3-0.801l4.4-0.1l3.399-1.5l0,0l-4.399-3.6l0,0v-1.801l0,0
			l0.5,0.301l0,0l3.699-0.2l0,0v-2.601l0,0l3.101,0.101l0,0v3.899l0,0h3.101l0,0v-1.399l0,0l0.699-0.101l0,0h2.5l0,0v1.801v1.6
			l0.101,3.2l0,0l3.399,0.101l0,0v3.1l0,0h1l0,0v0.4l0,0v1.199v0.1l0,0l0.101,1.4l0,0h-7.7l0,0h-6.3h-3.101h-6.3l-3.2-0.1l0,0v0.199
			l0,0l0.101,2.4v0.7l0,0h-2h-0.2l0,0l-0.899-0.899l0,0v0.1l0,0l-1.5-0.301l-0.101-0.699h-1.6l0,0v0.1l0,0l-1.301-0.4l0,0h-1.1l0,0
			v2l-0.7,0.601l0,0v0.601v0.299v1.701l-0.101,3.199l0,0h2.101l0,0v1.601l0,0l-2.101-0.101l0,0v3.301l0,0l-1.699,1.699l0,0h-1.4l0,0
			v1.601l0,0v0.6l0,0v0.4l0,0l1.601,0.5l0,0v0.3l0,0v1l0,0l-1.601,0.6l0,0l-3.199,0.4l0,0v7.4l2.399,1.399h2.5l-0.101,3.2h-2.399
			v5.5h-1.399l-0.301-0.8l-0.6-0.4v1.3l0,0h-3.301l0,0l-0.199,15.2v0.2l0,0h-6.101h-5.899l0,0l0.199-11.6l0,0l-7-0.101v-7.899
			h-12.899l-0.101,2.899l-3.699-0.1v-2.9l0,0h-1.101l0,0l1.101-0.899v-3.5h-2.101l0,0h-6.301l0,0l0.101-1.801l0,0l-9.8-0.3l0,0
			l0.199-9.2l0.899-3.399l0,0l4.101-13l0,0l-7.899-0.101l0,0l-7.699,0.101l-1.9,1.1l0,0l-3.3-1.2l0,0h-1.8l0,0l-0.7-2l0.101-0.899
			h2.3l0.2-9.8h9.699l0,0h3.101v6.399l0,0h10.101l0,0v-6.3l2.101-8.3L494.081,304.384z"/>
		<rect x="547.491" y="101.19" fill="#8CCBEF" stroke="#000000" stroke-width="3" width="42.994" height="61.894"/>
		<path id="Beaumont" fill="#8CCBEF" stroke="#000000" stroke-width="3" d="M545.482,139.084l8.399,0.1l0,0v0.2l0,0l-0.101,1.3l0,0
			l1,0.1l0,0l-0.101,1.6l0,0l3.399,0.1l0,0l-0.3,9.4v0.2l-0.101,17.6v0.9l0,0v3.7l0,0v10.2l0.101,3.9l0,0l4.399,1.7l0,0l-0.101,9.4
			l8.101,0.2l-0.101,6l12.7,0.1h0.399v3.9l-4.199,2.7l-5.601,0.2l-0.2,12.4l3.7-0.1l-0.2,7.9l-3.399,2.6l-4,1h-9l-0.101,7.6
			l-3.3-0.1l-0.399,13.1h-1.7l0,0l0.101,0.1l0,0l-10.2-0.2l0.399-6.8l0.4-6.5l-9.7-0.2h-2.101l0,0h-0.3l0,0l-9-0.2l-0.101-2.9l0,0
			l0.101-0.7l0,0l-6.399-0.1l0.199-8.6v-2.1l-2.101-0.1v-7.9l0,0l2.301-0.1l3.8-2.2l1.899-2.5l0,0l3,0.2l0.301-5.1l4.101-0.1
			l0.5-7.5l17.6-0.1l0.101-13.8l-4.5-0.1v-4.5l-3.101,0.1l0,0l-0.1-2.1v-0.6l0,0v-5.6l-12.601-0.2l-0.101,2.6l-2.7,0.1v-5.8h-3.1
			l-0.101,3.1h-3.2l0.2-4.1l0,0l-1.5-2.7l0,0l-5.101-0.1v-6.2l0,0l-7.8-0.1l-4.7,0.8l0.3,5.7l-6.899-0.2l-0.3-7.4l0,0l-0.301-10.5
			l22.301,0.2l0.101-0.7l0,0l-6-5.3l0,0l-1.601-1.4l0,0l-6-5.3l0,0l1-0.4l11,0.1l0,0l1,0.9l0,0l-0.101,1.4l0,0l2.2,0.9l0,0
			l1.199-2.7l0,0l0.601-0.5l0,0l8.399,0.1l0,0l0.7,7.5h0.699l0,0l-2.399,5.2l0,0h3.601l0,0l0.5,2.5l-0.199,1.1l0,0l1.699-1.2l0,0
			l0.101-2.4l3.2-1.5l0,0v-11.2l0,0h6l0,0l1.8,4.1l0,0l-0.101,1.5l0,0l0.601,0.8l0,0h1l0,0L545.482,139.084z"/>
		<path id="Banning" fill="#8CCBEF" stroke="#000000" stroke-width="3" d="M596.181,75.984l12.7,0.1l0,0l-0.101,12.2l-10.101-0.2
			h-2.601v2.3l-3.3,0.1v2.2l-3.101-0.1l-0.1,13.9h1.899v6.6h-2.2l-0.101,6.7l6.2,0.2l-0.101,0.8l0.399,0.7l0,0l-0.1,13l2.8,0.1v5.4
			l7.7,5.3l0,0l2.199,0.1l-0.101,7.2l12.899,0.1v0.4l-0.199,5.2l0,0v5.4l-0.101,1.8l0,0l12.3,0.1l0.301-6.8l12.3,0.1l0,0v0.3v6.1
			v0.3l0.101,0.3l0,0l-0.101,0.4l-2.5,0.7l-10.199,2.7v3.4l0,0v1.6l0,0l-0.101,3.7l-0.101,9.7l-6.2-0.1v-2.9l0,0v-0.7l-6.199,0.1
			l0,0l-8.399-0.1l0,0h-3.601l-0.399-0.1l0,0l0.101,3.2l0,0l-0.101,3.4l-6.7-0.1l0,0h-0.5l0,0h-5l0,0h-0.3v-6.4l-6.5-0.1l0,0l-6-0.1
			l0,0v-6.4l0,0l0,0l-12.801-0.2l0,0l-0.101,6.2l0,0l-0.199,6.4l-7.7-0.1l0,0l-4.399-1.7l0,0l-0.101-3.9v-10.2l0,0v-3.7l0,0v-0.9
			l0.101-17.6v-0.2l0.301-9.4l0,0v-1.7l0,0h3.199v-1.6l3,0.1l0.101-6.4l0,0h6.3l0,0l-0.1,6.5l0,0l-0.101,4.2h3.101l2.5,7.1v1.3
			l0.399,0.2l-0.101,8.4l6.101,0.1l0,0l0.3-0.4l1-1.8l0.399-4l-0.199-2.4l0,0l-0.101-0.1l-0.2-2.7l0.101-3.4l0.301-1.1l1.6,0.3l0,0
			l0.4-2.4l0,0l4.8-2.3l1.601,1.1l0,0l0.899,0.3l0,0l0.399-1.4l0,0l-0.899-1l0,0l-1-1.5l0,0l-1-3.1l0,0l-0.101-2.6l0,0l-0.899-0.9
			l0,0l-3.7,0.1l0,0l-2.3-7.5l0.2-1.7l0,0l-0.301-0.6l0,0l-3.101,0.1l0,0l0.101,1.2l0,0l-3.899,0.3l0,0l-3.101,3.5l0,0h-2.699
			l-0.301-3.4l0,0v-0.2l0,0h-0.699v-9.1l-0.5-1.7l-0.301-4.5l-1.3-0.1v-6.4l0,0h2.399h0.399l0,0v0.8v2.2h6.399l0.101-3h2.7l0.6,1.4
			h1l0,0l-1.399,12.3l0.2,1.4l0,0l0.3,0.3l0,0l1.801-0.3l0,0v-0.9l0,0l1.199-4.6l0,0l0.7-0.6l0.5-3.1l-0.899-4.4l0.399-3.7l0,0
			l-1-0.6l0.101-5.9l3-0.1l0.101-2.2h3.199v-2.2h3.101l0.101-2.4h3.1L596.181,75.984z"/>
		<path id="path20058" fill="#8CCBEF" stroke="#000000" stroke-width="3" d="M524.181,101.184h0.9l14.1-0.1l0,0l-4.199,3l0,0
			l-0.9,1.2l-1.5,0.5l-5.1,0.9l0,0v-1l0,0v-1.3h-3.2L524.181,101.184z"/>
	</g>
	<g>
		<path id="Eastvale" fill="#6ABD45" stroke="#000000" stroke-width="3" d="M171.582,103.284l3.398,7.3l0,0l-2.699,2.2l-1,1.8
			l-5,2.8h-1.5l0,0l-0.101,4.7l0,0l-8,0.1l0,0l0.101,2.8l0,0v0.7l0,0l-4.801-0.7l-3.1,1.3l-4.7,3.5l0,0l-0.399,0.3l0,0l-1.601,1.5
			l-1.3,5.3l0,0l-0.2-0.1l0,0l-1.899,0.3l0,0l0.101-5.7l0,0l-1-0.1l0,0l-6.2-0.1l0,0l0.3-9.5l0,0v-8l-0.1-8.3l0,0l8-2.9l4.1-1.6
			l7.602-2.6l5.5-2.4l2.3-0.7l0,0l3.5,2l5.1,3.2L171.582,103.284z"/>
		<path id="Near_Eastvale" fill="#6ABD45" stroke="#000000" stroke-width="3" d="M159.383,95.184L119.792,70.39l-0.102,8.6v1.8l0,0
			l-0.1,2.5l0,0l-0.2,19.4v7.4l0,0l12.291,21.094"/>
	</g>
</g>
</svg>
