<?xml version="1.0" encoding="utf-8"?>
<!-- Generator: Adobe Illustrator 16.0.4, SVG Export Plug-In . SVG Version: 6.00 Build 0)  -->
<!DOCTYPE svg PUBLIC "-//W3C//DTD SVG 1.1//EN" "http://www.w3.org/Graphics/SVG/1.1/DTD/svg11.dtd">
<svg version="1.1" id="Layer_1" xmlns="http://www.w3.org/2000/svg" xmlns:xlink="http://www.w3.org/1999/xlink" x="0px" y="0px"
	 width="959px" height="593px" viewBox="0 0 959 593" enable-background="new 0 0 959 593" xml:space="preserve">
<title>Blank US states map.svg</title>
<g id="outlines">
	<path id="AK" fill="#D3D3D3" d="M161.1,453.7l-0.3,85.397l1.6,1l3.1,0.2l1.5-1.1h2.6l0.2,2.897l7,6.803l0.5,2.6l3.4-1.9l0.6-0.197
		l0.3-3.103l1.5-1.6l1.1-0.2l1.9-1.5l3.1,2.1l0.6,2.9l1.9,1.1l1.1,2.4l3.9,1.8l3.4,6l2.7,3.9l2.3,2.7l1.5,3.697l5,1.803l5.2,2.1
		l1,4.4l0.5,3.1l-1,3.4l-1.8,2.3l-1.6-0.8l-1.5-3.103l-2.7-1.5l-1.8-1.1l-0.8,0.8l1.5,2.7l0.2,3.7l-1.1,0.5l-1.9-1.9l-2.1-1.3
		l0.5,1.6l1.3,1.8l-0.8,0.803c0,0-0.8-0.303-1.3-1c-0.5-0.603-2.1-3.4-2.1-3.4l-1-2.3c0,0-0.3,1.3-1,1c-0.6-0.3-1.3-1.5-1.3-1.5
		l1.8-1.9l-1.5-1.5v-5h-0.8l-0.8,3.4l-1.1,0.5l-1-3.7l-0.6-3.7l-0.8-0.5l0.3,5.7v1.1l-1.5-1.3l-3.6-6l-2.1-0.5l-0.6-3.7l-1.6-2.897
		l-1.6-1.103v-2.3l2.1-1.3l-0.5-0.3l-2.6,0.6l-3.4-2.397l-2.6-2.9l-4.8-2.6l-4-2.603l1.3-3.2V542l-1.8,1.6l-2.9,1.103l-3.7-1.103
		l-5.7-2.397h-5.5l-0.6,0.5l-6.5-3.9l-2.1-0.3l-2.7-5.8l-3.6,0.3l-3.6,1.5l0.5,4.5l1.1-2.9l1,0.303l-1.5,4.397l3.2-2.7l0.6,1.603
		l-3.9,4.397l-1.3-0.3l-0.5-1.897l-1.3-0.803l-1.3,1.103l-2.7-1.8l-3.1,2.1l-1.8,2.1l-3.4,2.103l-4.7-0.2l-0.5-2.1l3.7-0.603v-1.3
		l-2.3-0.6l1-2.4l2.3-3.9v-1.8l0.2-0.8l4.4-2.3l1,1.3h2.7l-1.3-2.6l-3.7-0.303l-5,2.7l-2.4,3.4l-1.8,2.6l-1.1,2.3l-4.2,1.5
		l-3.1,2.603l-0.3,1.6l2.3,1l0.8,2.103l-2.7,3.197l-6.5,4.2l-7.8,4.2l-2.1,1.1l-5.3,1.103l-5.3,2.3l1.8,1.3l-1.5,1.5l-0.5,1.102
		l-2.7-1l-3.2,0.198l-0.8,2.302h-1L65.6,567l-3.6,1.3l-2.9,1l-3.4-1.3l-2.9,1.899h-3.2l-2.1,1.301l-1.6,0.8l-2.1-0.3l-2.6-1.103
		l-2.3,0.603l-1,1l-1.6-1.103V569.2l3.1-1.301l6.3,0.601l4.4-1.601l2.1-2.102l2.9-0.6l1.8-0.8l2.7,0.197l1.6,1.303l1-0.303
		l2.3-2.697l3.1-1l3.4-0.601l1.3-0.3l0.6,0.5h0.8l1.3-3.7l4-1.5l1.9-3.7l2.3-4.5l1.6-1.5l0.3-2.6l-1.6,1.3l-3.4,0.603l-0.6-2.4
		l-1.3-0.3l-1,1L77,546.1l-1.5-0.197L74,540.1l-1.3,1.303l-1.1-0.5l-0.3-1.9l-4,0.2l-2.1,1.1l-2.6-0.3l1.5-1.5l0.5-2.6L64,534l1.5-1
		l1.3-0.2l-0.6-1.8v-4.4l-1-1l-0.8,1.5h-6.1l-1.5-1.3l-0.6-3.898l-2.1-3.602v-1l2.1-0.8l0.2-2.1l1.1-1.103l-0.8-0.5l-1.3,0.5
		l-1.1-2.7l1-5l4.5-3.197l2.6-1.603l1.9-3.7l2.7-1.3l2.6,1.103l0.3,2.397l2.4-0.3l3.2-2.4l1.6,0.603l1,0.6h1.6l2.3-1.3l0.8-4.4
		c0,0,0.3-2.897,1-3.397c0.6-0.5,1-1,1-1l-1.1-1.9l-2.6,0.8l-3.2,0.803l-1.9-0.5l-3.6-1.803l-5-0.197l-3.6-3.7l0.5-3.9l0.6-2.397
		l-2.1-1.802l-1.9-3.698l0.5-0.802l6.8-0.5h2.1l1,1h0.6l-0.2-1.601l3.9-0.6l2.6,0.3l1.5,1.1l-1.5,2.103l-0.5,1.5l2.7,1.6l5,1.8
		l1.8-1l-2.3-4.397l-1-3.2l1-0.8l-3.4-1.9l-0.5-1.1l0.5-1.603l-0.8-3.897l-2.9-4.7l-2.4-4.2l2.9-1.898h3.2l1.8,0.601l4.2-0.2
		l3.7-3.6l1.1-3.103L96,437.9l1.6,1l2.7-0.603l3.7-2.1l1.1-0.2l1,0.8l4.5-0.2l2.7-3.1h1.1l3.6,2.397l1.9,2.103l-0.5,1.1l0.6,1.103
		l1.6-1.603l3.9,0.301l0.3,3.699l1.9,1.5l7.1,0.603l6.3,4.199l1.5-1l5.2,2.601l2.1-0.601l1.9-0.802l4.8,1.9L161.1,453.7z M46,482.6
		l2.1,5.303l-0.2,1L45,488.6l-1.8-4l-1.8-1.5H39l-0.2-2.6l1.8-2.4l1.1,2.4l1.5,1.5L46,482.6z M43.4,516.1l3.7,0.803l3.7,1l0.8,1
		L50,522.6l-3.1-0.197l-3.4-3.603L43.4,516.1z M22.7,502l1.1,2.6l1.1,1.603l-1.1,0.8l-2.1-3.1V502H22.7z M9,575.1l3.4-2.3l3.4-1
		l2.6,0.3l0.5,1.603l1.9,0.5l1.9-1.9l-0.3-1.6l2.7-0.603L28,572.7l-1.1,1.8l-4.4,1.1l-2.7-0.5l-3.7-1.1l-4.4,1.5l-1.6,0.3L9,575.1z
		 M57.9,570.6l1.6,1.9l2.1-1.6l-1.5-1.303L57.9,570.6z M60.8,573.6l1.1-2.3l2.1,0.3l-0.8,1.9h-2.4V573.6L60.8,573.6z M84.4,571.7
		l1.5,1.8l1-1.1l-0.8-1.9L84.4,571.7z M93.2,559.2l1.1,5.8l2.9,0.8l5-2.897l4.4-2.603L105,557.9l0.5-2.4l-2.1,1.3l-2.9-0.8l1.6-1.1
		l1.9,0.8l3.9-1.8l0.5-1.5L106,551.6l0.8-1.897l-2.7,1.897l-4.7,3.603l-4.8,2.897L93.2,559.2z M135.5,539.4l2.4-1.5l-1-1.803l-1.8,1
		L135.5,539.4z"/>
	<path id="HI" fill="#D3D3D3" d="M233.1,519.3l1.9-3.6l2.3-0.3l0.3,0.8l-2.1,3.1H233.1z M243.3,515.6l6.1,2.603l2.1-0.3l1.6-3.9
		l-0.6-3.4l-4.2-0.5l-4,1.803L243.3,515.6z M274,525.6l3.7,5.5l2.4-0.3l1.1-0.5l1.5,1.3l3.7-0.197l1-1.5l-2.9-1.803l-1.9-3.697
		l-2.1-3.603l-5.8,2.9L274,525.6z M294.2,534.5l1.3-1.9l4.7,1l0.6-0.5l6.103,0.603L306.6,535l-2.6,1.5l-4.4-0.3L294.2,534.5z
		 M299.5,539.7l1.9,3.897l3.1-1.1l0.3-1.6l-1.6-2.103l-3.7-0.3V539.7L299.5,539.7z M306.5,538.5l2.3-2.9l4.7,2.4l4.4,1.1l4.397,2.7
		v1.9l-3.6,1.8l-4.8,1l-2.4-1.5L306.5,538.5z M323.1,554.1l1.603-1.3l3.397,1.603l7.603,3.6l3.397,2.1l1.603,2.4l1.897,4.4l4,2.6
		l-0.3,1.3L342.4,574l-4.2,1.5l-1.5-0.6l-3.103,1.8l-2.397,3.2l-2.3,2.897l-1.803-0.2l-3.6-2.6l-0.3-4.5l0.6-2.4l-1.6-5.697
		l-2.101-1.802L319.9,563l2.3-1l2.1-3.1l0.5-1l-1.6-1.803L323.1,554.1z"/>
	<path id="AL" fill="#D3D3D3" d="M625.6,466.8l-1.6-15.2l-2.7-18.8l0.2-14.1l0.8-31l-0.2-16.7l0.2-6.4l7.8-0.397L657.9,361.6
		l8.897-0.699l-0.1,2.199l0.2,2.103l0.6,3.397l3.4,7.9l2.397,9.9l1.5,6.1l1.603,4.8l1.5,7l2.1,6.3l2.6,3.4l0.5,3.4l1.9,0.8l0.2,2.1
		l-1.8,4.8l-0.5,3.2l-0.2,1.9l1.6,4.397l0.3,5.303l-0.8,2.397l0.603,0.8l1.5,0.801l1,2.5H680.6L673.8,447l-25.5,2.899l-10.397,1.398
		l-0.103,3.8l1.8,1.802l2.603,1.898l0.6,7.9l-5.5,2.6l-2.7-0.3l2.7-1.9v-1l-3.1-6l-2.3-0.6l-1.5,4.398l-1.303,2.699l-0.6-0.199h-2.9
		V466.8z"/>
	<path id="AR" fill="#D3D3D3" d="M591,345l-3.8,0.9l-6.2-0.5l0.7-3l3.2-2.7l0.5-2.3l-1.803-3l-11,0.5l-20.8,0.897l-23.3,0.7L505,337
		l1.6,6.9v8.199l1.4,11l0.2,37.801l2.3,1.897l3-1.397l2.7,1.1l0.397,10.3l22.9-0.1l18.9-0.8l10.1-0.2l1.1-2.103l-0.3-3.5l-1.8-3
		l1.6-1.5l-1.6-2.5l0.7-2.5l1.397-5.6l2.5-2.102L571.4,386.6l3.697-5.397l2.7-1.4l-0.1-1.5l-0.3-1.8l2.897-5.602l2.4-1.301
		l0.398-3.397l1.802-1.2l0.897-4.2l-1.3-4l4-2.397l0.601-2l1.199-4.301L591,345z"/>
	<path id="AZ" fill="#D3D3D3" d="M137.7,387.5l-2.6,2.2l-0.3,1.5l0.5,1l18.9,10.7l12.1,7.6l14.7,8.6l16.8,10l12.3,2.4l25.1,2.7
		l2.5-12.5l3.8-27.2l7-52.9l4.3-31l-24.6-3.699L201,302.3l-33.4-6.3l-2.9,18.1l-0.5,0.5l-1.7,2.603L160,317.1l-1.3-2.699L156,314.1
		l-0.9-1.1h-0.9l-0.9,0.6l-1.9,1l-0.1,7l-0.2,1.7l-0.6,12.601L149,338.1l-0.6,3.301l2.7,4.899l1.3,5.8l0.8,1l1,0.603l-0.1,2.3
		l-1.6,1.398l-3.4,1.699l-1.9,1.9l-1.5,3.7l-0.6,4.899l-2.9,2.698l-2.1,0.7l-0.1,5.8l-0.5,1.7l0.5,0.8l3.7,0.603l-0.6,2.699
		l-1.5,2.199L137.7,387.5z"/>
	<path id="CA" fill="#D3D3D3" d="M136.9,386.8l3.8-0.5l1.5-2l0.7-1.899l-3.2-0.101l-1.1-1.8l0.8-1.7v-6.2l2.2-1.3l2.7-2.6l0.4-4.9
		l1.6-3.5l1.9-2.1l3.3-1.7l1.3-0.7l0.8-1.5l-0.9-0.899l-1-1.5l-0.9-5.301l-2.9-5.199l0.1-2.801l-2.2-3.199l-15-23.198l-19.4-28.7
		l-22.4-33L76.3,231l1.8-7.2l6.8-25.9l8.1-31.4l-12.4-3.3l-13.5-3.4l-12.6-4.1l-7.5-2.1l-11.4-3l-7.1-2.4l-1.6,4.7l-0.2,7.4
		l-5.2,11.8l-3.1,2.6l-0.3,1.1l-1.8,0.8l-1.5,4.2L14,184l2.7,4.2l1.6,4.2l1.1,3.6l-0.3,6.5l-1.8,3.1l-0.6,5.8l-1,3.7l1.8,3.9
		l2.7,4.5l2.3,4.8l1.3,4l-0.3,3.2l-0.3,0.5v2.1l5.7,6.3l-0.5,2.4l-0.6,2.3l-0.6,1.9l0.2,8.2l2.1,3.7l1.9,2.6l2.7,0.5l1,2.7l-1.1,3.6
		l-2.1,1.6h-1.1l-0.8,3.9l0.5,2.9l3.2,4.4l1.6,5.3l1.5,4.7l1.3,3.1l3.4,5.8l1.5,2.6l0.5,2.9l1.6,1v2.4l-0.8,1.897l-1.8,7.103
		L42,323.8l2.4,2.7l4.2,0.5l4.5,1.8L57,330.9h2.9l2.9,3.1l2.6,4.8l1.1,2.3l3.9,2.103l4.8,0.8l1.5,2.102l0.6,3.198l-1.5,0.603l0.3,1
		l3.2,0.8l2.7,0.2l2.9,4.699l3.9,4.198l0.8,2.302l2.6,4.198l0.3,3.2v9.398l0.5,1.802l10,1.5l19.7,2.698L136.9,386.8z M48.8,337
		l1.3,1.5l-0.2,1.3l-3.2-0.1l-0.6-1.2l-0.6-1.5H48.8z M50.7,337l1.2-0.6l3.6,2.1l3.1,1.2l-0.9,0.6l-4.5-0.2l-1.6-1.6L50.7,337z
		 M71.4,356.8l1.8,2.3l0.8,1l1.5,0.603l0.6-1.5l-1-1.802l-2.7-2l-1.1,0.199v1.2H71.4L71.4,356.8z M70,365.5l1.8,3.2L73,370.6
		l-1.5,0.2l-1.3-1.2c0,0-0.7-1.5-0.7-1.897c0-0.4,0-2.2,0-2.2L70,365.5L70,365.5z"/>
	<path id="CO" fill="#D3D3D3" d="M378.6,256.8l1.4-21.3l-32.1-3.1l-24.5-2.7l-37.3-4.1l-20.7-2.5l-2.6,22.2l-3.2,22.4l-3.8,28
		l-1.5,11.1l-0.3,2.8l33.9,3.801l37.7,4.302l32,3.198l16.603,0.802"/>
	<path id="CT" fill="#D3D3D3" d="M873.2,180.1l-0.603-4.2l-0.8-4.4l-1.6-6l-4.2,0.9l-21.8,4.8l0.6,3.3l1.5,7.3v8.1l-1.1,2.3l1.8,2.1
		l5-3.4l3.6-3.2l1.9-2.1l0.8,0.6l2.7-1.5l5.2-1.1L873.2,180.1z"/>
	<path id="DE" fill="#D3D3D3" d="M822.4,230.4l0.6-2.1v-1.2l-1.3-0.1l-2.103,1.6l-1.5,1.5l1.5,4.2l2.303,5.7l2.1,9.7l1.6,6.3l5-0.2
		l6.103-1.2l-2.3-7.4l-1,0.5l-3.603-2.4l-1.8-4.7l-1.9-3.6l-2.3-1l-2.1-3.6L822.4,230.4z"/>
	<path id="FL" fill="#D3D3D3" d="M755.4,445.5l2.3,7.3l3.7,9.7l5.3,9.4l3.7,6.3l4.8,5.5l4,3.7l1.6,2.897l-1.1,1.3L779,493l2.9,7.4
		l2.897,2.897l2.603,5.3l3.6,5.803l4.5,8.197l1.3,7.603l0.5,12l0.603,1.8l-0.303,3.4l-2.397,1.3l0.3,1.897l-0.6,1.9l0.3,2.4
		l0.5,1.897L793,560l-3.1,1.5l-3.9,0.2l-1.5,1.6l-2.4,1l-1.3-0.5l-1.1-1l-0.3-2.897l-0.803-3.4l-3.397-5.2L771.6,549l-3.897-0.3
		l-0.8,1.3l-3.103-4.4l-0.6-3.6l-2.603-4l-1.8-1.1l-1.6,2.1l-1.8-0.3l-2.103-5l-2.897-3.9l-2.9-5.3l-2.6-3.1l-3.603-3.7l2.103-2.4
		l3.197-5.5l-0.197-1.6l-4.5-1l-1.603,0.6l0.3,0.603l2.603,1l-1.5,4.5l-0.8,0.5l-1.803-4l-1.3-4.803l-0.3-2.697l1.5-4.7v-9.5l-3-3.7
		l-1.3-3.1l-5.2-1.303l-1.9-0.6l-1.6-2.6l-3.4-1.603l-1.1-3.397l-2.7-1l-2.397-3.7l-4.2-1.5l-2.9-1.5h-2.6l-4,0.8l-0.2,1.9l0.8,1
		l-0.5,1.1l-3.1-0.2L696,472.9l-3.6,1.897h-3.9l-3.2,1.3L685,473.4l-1.6-1.9l-2.9-1.1l-1.6-1.5L670.8,465l-7.6-1.8l-4.4,0.6l-6,0.5
		l-6,2.103l-3.5,0.6l-0.2-8l-2.6-1.9l-1.8-1.8l0.3-3.1l10.2-1.3l25.5-2.9l6.8-0.6l5.4,0.3l2.6,3.897l1.5,1.5l8.1,0.5L709.9,453
		l21.5-1.3l5.397-0.7h4.603l0.197,2.9l3.803,0.8l0.3-4.8l-1.603-4.5l1-0.7l5.103,0.5L755.4,445.5z M767.9,577.9l2.397-0.603l1.3-0.2
		l1.5-2.3l2.303-1.6l1.3,0.5l1.7,0.3l0.397,1.1l-3.5,1.2l-4.2,1.5l-2.3,1.2L767.9,577.9z M781.4,572.9l1.197,1.1l2.7-2.1l5.3-4.2
		l3.7-3.9l2.5-6.6l1-1.7l0.2-3.4l-0.7,0.5l-1,2.803l-1.5,4.6l-3.2,5.3l-4.397,4.2l-3.4,1.9L781.4,572.9z"/>
	<path id="GA" fill="#D3D3D3" d="M689.6,358l-4.8,0.8L676.4,359.9L667.8,360.8v2.2l0.2,2.1l0.6,3.4l3.4,7.9l2.4,9.897l1.5,6.103
		l1.6,4.8l1.5,7l2.1,6.3l2.603,3.4l0.5,3.397l1.897,0.8l0.2,2.103l-1.8,4.8l-0.5,3.2l-0.2,1.897l1.603,4.4l0.3,5.3l-0.8,2.4l0.6,0.8
		l1.5,0.8l0.6,3.4l2.603,3.897l1.5,1.5l7.897,0.2l10.803-0.6l21.5-1.302l5.397-0.698h4.603l0.197,2.897l2.603,0.8l0.3-4.397
		l-1.6-4.5l1.1-1.603l5.8,0.803l5,0.3l-0.8-6.3l2.3-10l1.5-4.2l-0.5-2.603l3.3-6.197l-0.5-1.4l-1.897,0.7l-2.603-1.3l-0.6-2.103
		l-1.3-3.6l-2.3-2.103l-2.603-0.6l-1.6-4.8l-2.9-6.301l-4.2-1.899l-2.1-1.899l-1.3-2.601L735.1,385.4l-2.3-1.301l-2.3-2.9
		l-3.1-2.299l-4.5-1.801l-0.5-1.5L720,372.7l-0.5-1.5l-3.4-4.9l-3.397,0.2l-4.103-3l-1.3-1.3l-0.3-1.8l0.8-1.9l2.4-1.2l-1.103-1.2
		l0.103-0.3l-5.8,1l-7,0.8L689.6,358z"/>
	<path id="IA" fill="#D3D3D3" d="M566.6,201.6l0.2,1.9l2.3,1.1l1.103,1.3l0.3,1.3l3.9,3.2l0.697,2.2l-0.8,2.9l-1.5,3.5l-0.8,2.7
		l-2.2,1.6l-1.7,0.6l-5.5,1.5l-0.697,2.3L561.1,230l0.603,1.4l1.7,1.7v3.7l-2.2,1.6l-0.5,1.5v2.5l-1.5,0.5l-1.7,1.4l-0.5,1.5
		l0.5,1.7l-1.4,1.2l-2.3-2.9l-1.5-2.6L544,244l-10.2,0.6l-25,0.7l-13,0.2l-9.397,0.2l-1.303,0.1l-1.697-4.5l-0.2-6.6l-1.603-4.1
		l-0.697-5.3l-2.303-3.7l-0.897-4.8l-2.7-7.5l-1.1-5.4l-1.4-2.2l-1.6-2.7l1.8-4.3l1.397-5.7l-2.697-2.1l-0.5-2.7l0.897-2.5h1.7H485
		l49.6-0.7l19.9-0.7l1.9,2.7l1.8,2.6l0.5,0.8l-1.8,2.7l0.5,4.2l2.5,3.9l3,1.8l2.397,0.2L566.6,201.6z"/>
	<path id="ID" fill="#D3D3D3" d="M162.1,181c-22.6-4.3-14.1-2.8-21.1-4.4l4.4-17.5l4.3-17.7l1.4-4.2l2.5-5.9l-1.3-2.3l-2.5,0.1
		l-0.8-1l0.5-1.1l0.3-3.1l4.5-5.5l1.8-0.5l1.1-1.1l0.6-3.2l0.9-0.7l3.9-5.8l3.9-4.3l0.2-3.8l-3.4-2.6L162,92l0.4-9.7l3.7-16.5
		l4.5-20.8l3.8-13.5l0.8-3.8l13,2.5L184,51.7l2.9,7.7l-1.1,4.6l2,4.6l3.2,1.7l4.5,9.8l2.7,3.8l0.6,1.1l3.4,1.1l0.5,2.5l-6.9,16.8
		l0.3,3.3l2.7,2.9l1.9,0.5l4.8-3.6l0.4-0.5l0.2,0.8l0.3,4.1l2.6,12.9l3.5,2.7l0.4,0.8l2.1,2.4l-0.8,2.8l0.7,3.8l1.9,0.9l2.1-1.6
		l2.6-0.5l3.4,1.6l2.5-0.6l3.8-0.2l4,1.6l2.7-0.3l0.9-2.3l2.5-1.6l0.7,1.7l0.6,2.2l2.3,2.5l-3.8,24l-5.1,29l-4.2-0.3l-8.2-1.5
		l-9.8-1.8l-12.2-2.4l-12.5-2.5l-8.5-1.8l-9.3-1.7L162.1,181z"/>
	<path id="IL" fill="#D3D3D3" d="M617.8,301.5v-3.6l0.3-4.9l2.4-3.1l1.8-3.8l2.603-3.9l-0.4-5.3l-2-3.5l-0.1-3.3l0.697-5.3l-0.8-7.2
		l-1.1-15.8l-1.3-15l-0.9-11.6l-0.3-0.9l-0.8-2.6L616.6,208l-1.6-1.8l-1.5-2.6l-0.2-5.5l-9.897,1.3l-27.2,1.7l-8.7-0.4l0.2,2.4
		l2.3,0.7l0.9,1.1l0.5,1.8l3.897,3.4l0.7,2.3l-0.7,3.4l-1.8,3.7l-0.7,2.5l-2.3,1.8l-1.8,0.7l-5.3,1.4l-0.7,1.8L562,230l0.7,1.4
		l1.8,1.6l-0.2,4.1l-1.8,1.6l-0.7,1.6v2.7l-1.8,0.5l-1.6,1.1l-0.2,1.4l0.2,2.1l-1.7,1.3l-1,2.8l0.5,3.7l2.3,7.3l7.3,7.5l5.5,3.7
		l-0.2,4.3l0.9,1.4l6.4,0.5l2.697,1.4l-0.697,3.7l-2.303,5.9l-0.697,3.2l2.3,3.9l6.397,5.3l4.603,0.7l2.1,5l2.103,3.2l-0.9,3
		l1.6,4.1l1.803,2.1l1.897-0.8l0.7-2.2l2-1.397l3.2-1.103l3.1,1.2l2.9,1.101l0.8-0.198l-0.1-1.2l-1.103-2.8l0.4-2.399l2.3-1.601
		l2.4-1l1.197-0.399l-0.6-1.301l-0.8-2.199l1.2-1.301L617.8,301.5z"/>
	<path id="IN" fill="#D3D3D3" d="M618.4,300.9l0.1-2.9l0.5-4.5l2.3-2.9l1.8-3.9l2.603-4.2l-0.5-5.8l-1.8-2.7l-0.303-3.2l0.803-5.5
		l-0.5-7l-1.303-16l-1.3-15.4l-1-11.7l3.103,0.9l1.5,1l1.1-0.3l2.1-1.9l2.803-1.6l5.1-0.2l22-2.3l5.6-0.5l1.5,16l4.302,36.8
		l0.601,5.8L669,271l1.2,1.8l0.1,1.4l-2.5,1.6l-3.5,1.6l-3.2,0.6l-0.6,4.9l-4.6,3.3l-2.803,4l0.303,2.4l-0.603,1.5h-3.3l-1.6-1.6
		l-2.5,1.3l-2.7,1.5l0.2,3.101l-1.2,0.302l-0.5-1l-2.2-1.5l-3.3,1.3l-1.603,3l-1.397-0.8l-1.5-1.603l-4.5,0.5l-5.603,1L618.4,300.9z
		"/>
	<path id="KS" fill="#D3D3D3" d="M503.4,325.1l-12.603,0.2l-46.1-0.5l-44.603-2.1l-24.6-1.3l4.1-64.7l21.801,0.8l40.5,1.4
		l44.102,0.5h5.1l3.2,3.2l2.8,0.2l0.9,1.1v2l-1.8,1.6l-0.5,2.6l2.2,3.6l2.5,3.1l2.5,2L504,290L503.4,325.1z"/>
	<path id="KY" fill="#D3D3D3" d="M721.8,297.8l-2.3,2.7l-4.2,3.6L711,310l-1.8,1.8v2.101l-3.9,2.102l-5.7,3.398l-3.5,0.399
		l-51.897,4.9l-15.8,1.8L623.8,327H619.9l-0.2,4.2l-8.2,0.1l-7,0.601l-10.4,0.199l1.9-0.199l2.2-1.801l2.1-1.1l0.2-3.2l0.9-1.8
		l-1.603-2.5l0.8-1.9l2.303-1.8l2.1-0.6l2.7,1.3l3.6,1.3l1.103-0.3l0.197-2.3l-1.3-2.4l0.3-2.3l1.9-1.5l2.6-0.6l1.603-0.603
		l-0.8-1.8L616.3,306.1l1.103-0.801l1.1-3.3l3-1.7l5.8-1l3.602-0.5l1.5,1.9l1.801,0.8l1.8-3.2l2.899-1.5l1.898,1.602l0.8,1.101
		l2.103-0.5l-0.2-3.4l2.899-1.6l1.101-0.8l1.1,1.6h4.7l0.8-2.1l-0.3-2.3l2.9-3.6l4.699-3.9l0.5-4.5l2.698-0.3l3.9-1.8l2.7-1.9
		l-0.3-1.9l-1.5-1.5l0.6-2.2l4.1-0.2l2.4-0.8l2.9,1.6l1.6,4.4l5.8,0.3l1.8,1.8l2.103,0.2l2.397-1.5l3.103,0.5l1.3,1.5l2.7-2.6
		l1.8-1.3h1.6l0.603,2.7l1.8,1l2.398,2.2l0.199,5.5l0.801,1.6l2.602,1.5l0.6,2.3l2.9,3.7l2.6,2.7L721.8,297.8z"/>
	<path id="LA" fill="#D3D3D3" d="M602.2,473l-1-2.6L600.1,467.3l-3.3-3.5l0.9-6.8l-0.103-1.1l-1.3,0.3l-8.2,0.897l-25,0.5
		L562.4,455.2l0.897-8.5l3.3-5.9l5-8.7L571,429.7l1.3-0.7l0.5-2l-2.3-2.1l-0.1-1.9l-1.802-4.3l-0.5-5.9l-9.698,0.103l-19.2,0.897
		H517v9.603l0.7,9.397l0.7,3.9l2.5,4.1l0.897,5l4.301,5.5l0.199,3.2l0.7,0.7l-0.7,8.5l-3,5l1.603,2.1l-0.7,2.5l-0.7,7.3l-1.4,3.2
		l0.103,3.603l4.7-1.5l8.1-0.303l10.3,3.603l6.5,1.1l3.7-1.5l3.2,1.103l3.2,1l0.8-2.103l-3.2-1.1l-2.6,0.5l-2.7-1.603
		c0,0,0.2-1.3,0.8-1.5c0.6-0.197,3.1-1,3.1-1l1.803,1.5l1.8-1l3.2,0.603l1.5,2.397l0.3,2.303l4.5,0.3l1.8,1.8l-0.8,1.6l-1.3,0.803
		l1.6,1.6l8.4,3.601l3.6-1.301l1-2.397l2.6-0.603l1.803-1.5l1.3,1l0.8,2.9l-2.3,0.8l0.6,0.601l3.4-1.301l2.3-3.397l0.8-0.5
		l-2.1-0.301l0.8-1.602l-0.2-1.5l2.103-0.5l1.1-1.3l0.6,0.8c0,0-0.198,3.102,0.603,3.102c0.8,0,4.199,0.601,4.199,0.601l4,1.899
		l1,1.5h2.898l1.102,1l2.301-3.102V493h-1.301l-3.399-2.7l-5.8-0.8l-3.2-2.3l1.1-2.7l2.302,0.3l0.198-0.6l-1.8-1v-0.5h3.2l1.8-3.103
		L607,477.7l-0.3-2.7l-1.5,0.2l-1.9,2.1l-0.6,2.603L599.6,479.3l-1-1.8l1.802-1.9l2-1.8L602.2,473z"/>
	<path id="MA" fill="#D3D3D3" d="M900,173.9l2.2-0.7l0.5-1.7l1,0.1l1,2.3l-1.3,0.5l-3.9,0.1L900,173.9z M890.6,174.7l2.303-2.6h1.6
		l1.8,1.5l-2.397,1l-2.2,1L890.6,174.7z M855.8,152.7l17.5-4.2l2.3-0.6l2.103-3.2l3.7-1.7l2.897,4.4l-2.397,5.2l-0.303,1.5l1.9,2.6
		l1.1-0.8h1.803l2.3,2.6l3.897,6l3.603,0.5l2.3-1l1.8-1.8l-0.8-2.7l-2.1-1.6l-1.5,0.8l-1-1.3l0.5-0.5l2.1-0.2l1.8,0.8l1.9,2.4l1,2.9
		l0.3,2.4l-4.2,1.5l-3.897,1.9l-3.9,4.5l-1.9,1.5v-1l2.4-1.5l0.5-1.8l-0.8-3.1l-2.9,1.5l-0.8,1.5l0.5,2.3l-2.1,1l-2.7-4.5l-3.4-4.4
		l-2.1-1.8l-6.5,1.9l-5.103,1.1l-21.8,4.8l-0.397-4.9l0.6-10.6l5.2-0.9L855.8,152.7z"/>
	<path id="MD" fill="#D3D3D3" d="M837,255.3l-6.1,1.3l-5.803,0.2l-1.8-7.1l-2.1-9.7l-2.3-5.7l-1.303-4.4l-7.5,1.6l-14.897,2.8
		l-37.5,7.6l1.1,5l1,5.7l0.3-0.3l2.103-2.4l2.3-2.6l2.4-0.6l1.5-1.5l1.8-2.6l1.3,0.6l2.9-0.3l2.6-2.1l2-1.5l1.8-0.5l1.603,1.1
		l2.897,1.5l1.9,1.8l1.2,1.5l4.1,1.7v2.9l5.5,1.3l1.1,0.5l1.4-2l2.9,2l-1.303,2.5l-0.8,4l-1.8,2.6v2.1l0.6,1.8l5.103,1.4l4.3-0.1
		l3.1,1l2.103,0.3l1-2.1l-1.5-2.1v-1.8l-2.4-2.1l-2.1-5.5l1.3-5.3l-0.2-2.1l-1.3-1.3c0,0,1.5-1.6,1.5-2.3c0-0.6,0.5-2.1,0.5-2.1
		l1.9-1.3l1.897-1.6l0.5,1l-1.5,1.6l-1.3,3.7l0.3,1.1l1.8,0.3l0.5,5.5l-2.1,1l0.3,3.6l0.5-0.2l1.103-1.9l1.6,1.8l-1.6,1.3
		l-0.303,3.4l2.603,3.4l3.897,0.5l1.603-0.8l3.2,4.2l1.397,0.5l6.7-2.8l2-4L837,255.3z M820.3,264.3l1.103,2.5l0.197,1.8l1.103,1.9
		c0,0,0.897-0.9,0.897-1.2c0-0.3-0.697-3.1-0.697-3.1l-0.7-2.3L820.3,264.3z"/>
	<path id="ME" fill="#D3D3D3" d="M923.2,77.3l1.897,2.1l2.303,3.7V85l-2.103,4.7l-1.897,0.6l-3.4,3.1l-4.8,5.5c0,0-0.603,0-1.3,0
		c-0.603,0-1-2.1-1-2.1L911.1,97l-1,1.5L907.7,100l-1,1.5l1.6,1.5l-0.5,0.6l-0.5,2.7l-1.897-0.2v-1.6l-0.303-1.3l-1.5,0.3l-1.8-3.2
		l-2.1,1.3l1.3,1.5l0.3,1.1l-0.8,1.3l0.3,3.1l0.2,1.6l-1.6,2.6l-2.9,0.5l-0.3,2.9l-5.3,3.1l-1.303,0.5l-1.6-1.5l-3.1,3.6l1,3.2
		l-1.5,1.3l-0.2,4.4l-1.103,6.3l-2.5-1.2l-0.5-3.1l-3.897-1.1l-0.3-2.7l-7.303-23.4L864.4,92l1.397-0.1l1.5,0.4v-2.6l0.8-5.5
		l2.603-4.7l1.5-4l-1.9-2.4v-6l0.8-1l0.803-2.7l-0.2-1.5l-0.2-4.8l1.8-4.8l2.9-8.9l2.1-4.2h1.3l1.303,0.2v1.1l1.3,2.3l2.7,0.6
		l0.8-0.8v-1l4-2.9l1.8-1.8l1.5,0.2l6,2.4l1.9,1l9.1,29.9h6l0.8,1.9l0.2,4.8l2.9,2.3h0.8l0.2-0.5l-0.5-1.1L923.2,77.3z M902.3,107.5
		l1.5-1.5l1.4,1.1l0.6,2.4l-1.7,0.9L902.3,107.5z M909,101.6l1.8,1.9c0,0,1.3,0.1,1.3-0.2c0-0.3,0.2-2,0.2-2l0.9-0.8l-0.8-1.8
		l-2,0.7L909,101.6z"/>
	<path id="MI" fill="#D3D3D3" d="M581.6,82.1L583.4,80l2.197-0.8l5.4-3.9l2.3-0.6l0.5,0.5l-5.1,5.1l-3.3,1.9l-2.103,0.9L581.6,82.1z
		 M667.8,114.2l0.603,2.5l3.197,0.2l1.303-1.2c0,0-0.103-1.5-0.4-1.6c-0.3-0.2-1.6-1.9-1.6-1.9l-2.2,0.2l-1.603,0.2l-0.3,1.1
		L667.8,114.2z M697.9,177.2l-3.2-8.2l-2.3-9.1l-2.4-3.2l-2.6-1.8L685.8,156l-3.897,1.8l-1.9,5l-2.7,3.7l-1.1,0.6l-1.5-0.6
		c0,0-2.603-1.5-2.4-2.1s0.5-5,0.5-5l3.4-1.3l0.8-3.4l0.6-2.6l2.4-1.6l-0.3-10l-1.603-2.3l-1.3-0.8l-0.8-2.1l0.8-0.8l1.603,0.3
		l0.197-1.6L676,131l-1.3-2.6H672.1l-4.5-1.5l-5.5-3.4H659.4l-0.603,0.6l-1-0.5l-3.1-2.3l-2.9,1.8l-2.897,2.3l0.3,3.6l1,0.3l2.1,0.5
		l0.5,0.8l-2.6,0.8l-2.603,0.3l-1.5,1.8l-0.3,2.1l0.3,1.6l0.303,5.5l-3.603,2.1l-0.6-0.2v-4.2l1.3-2.4l0.6-2.4l-0.8-0.8l-1.897,0.8
		l-1,4.2l-2.7,1.1l-1.8,1.9l-0.2,1l0.6,0.8l-0.6,2.6l-2.3,0.5v1.1l0.8,2.4l-1.103,6.1l-1.6,4l0.6,4.7l0.5,1.1l-0.8,2.4l-0.3,0.8
		l-0.3,2.7l3.6,6l2.9,6.5l1.5,4.8l-0.8,4.7l-1,6l-2.4,5.2l-0.3,2.7l-3.3,3.1l4.397-0.2l21.4-2.3l7.3-1l0.1,1.7l6.9-1.2l10.3-1.5
		l3.9-0.5l0.1-0.6l0.2-1.5l2.1-3.7l2-1.7l-0.197-5.1l1.6-1.6l1.1-0.3l0.2-3.6l1.5-3l1.103,0.6l0.197,0.6l0.803,0.2l1.897-1
		L697.9,177.2z M567.5,111.2l0.7-0.6l2.7-0.8l3.6-2.3v-1l0.6-0.6l6-1l2.4-1.9l4.4-2.1l0.197-1.3l1.9-2.9l1.8-0.8l1.3-1.8l2.303-2.3
		l4.397-2.4l4.7-0.5l1.1,1.1l-0.3,1l-3.7,1l-1.5,3.1l-2.3,0.8l-0.5,2.4l-2.397,3.2l-0.303,2.6l0.803,0.5l1-1.1l3.6-2.9l1.3,1.3h2.3
		l3.2,1l1.5,1.1l1.5,3.1l2.7,2.7l3.9-0.2l1.5-1l1.6,1.3l1.6,0.5l1.303-0.8h1.1l1.6-1l4-3.6l3.4-1.1l6.6-0.3l4.5-1.9l2.603-1.3
		l1.5,0.2v5.7l0.5,0.3l2.897,0.8l1.9-0.5l6.1-1.6l1.103-1.1l1.5,0.5v7l3.2,3.1l1.3,0.6l1.3,1l-1.3,0.3l-0.8-0.3l-3.7-0.5l-2.103,0.6
		l-2.3-0.2l-3.2,1.5h-1.8l-5.8-1.3l-5.2,0.2l-1.897,2.6l-7,0.6l-2.4,0.8l-1.1,3.1l-1.303,1.1l-0.5-0.2l-1.5-1.6l-4.5,2.4h-0.6
		l-1.1-1.6l-0.803,0.2l-1.897,4.4l-1,4l-3.2,7l-1.2-1l-1.397-1l-1.9-10.3l-3.5-1.4l-2.1-2.3l-12.103-2.7l-2.897-1l-8.2-2.2l-7.9-1.1
		L567.5,111.2z"/>
	<path id="MN" fill="#D3D3D3" d="M471.9,128.5l-0.5-8.5l-1.803-7.3l-1.8-13.5l-0.5-9.8l-1.8-3.4l-1.6-5V70.7l0.697-3.9l-1.8-5.5
		H492.9l0.3-8.2l0.6-0.2l2.3,0.5l1.9,0.8l0.8,5.5l1.5,6.1l1.603,1.6h4.8l0.3,1.5l6.3,0.3v2.1h4.8l0.301-1.3l1.1-1.1l2.3-0.6l1.3,1
		h2.9l3.9,2.6l5.3,2.4l2.397,0.5l0.5-1l1.5-0.5l0.5,2.9l2.603,1.3l0.5-0.5l1.3,0.2v2.1l2.6,1h3.103l1.6-0.8l3.2-3.2l2.6-0.5
		l0.802,1.8l0.5,1.3h1l1-0.8l8.898-0.3l1.8,3.1h0.603l0.698-1.1l4.399-0.4l-0.6,2.3l-3.9,1.8l-9.2,4.1l-4.8,2l-3.1,2.6l-2.4,3.6
		l-2.3,3.9l-1.8,0.8l-4.5,5l-1.3,0.2l-3.803,2.9l-2.8,3.2l-0.2,3l0.2,7.8l-1.6,1.6L530,128l-1.8,5.7l2.5,3.6l0.5,2.5l-1.103,3
		l-0.197,3.7l0.5,7.1l3.397,4.1h3l2.5,2.3l3.2,1.4l3.7,5l7.1,5l1.8,2.1l0.2,5.7l-20.6,0.7l-60.2,0.5l-0.3-35.7l-0.5-3l-4.103-3.4
		l-1.1-1.8v-1.6l2.1-1.6l1.4-1.4L471.9,128.5z"/>
	<path id="MO" fill="#D3D3D3" d="M555.8,249.5l-2.5-3.1l-1.1-2.3l-7.8,0.7l-9.803,0.5l-25.397,0.9l-13.5,0.2l-7.9,0.1l-2.3,0.1
		l1.3,2.5l-0.2,2.3l2.5,3.9l3.103,4.1l3.1,2.7l2.3,0.2l1.4,0.9v3l-1.8,1.6l-0.5,2.3l2.1,3.4l2.5,3l2.5,1.8l1.4,11.7l-0.7,35.3
		l0.2,4.7l0.5,5.4L528.6,335.3l23.2-0.7l20.8-0.8l11.7-0.2l2.2,3.4l-0.7,3.3l-3.1,2.4l-0.603,1.8l5.4,0.5l3.9-0.7l1.698-5.5
		l0.699-5.899l2.301-2l1.699-1.5l2.103-1l0.1-2.898l0.6-1.7l-1-1.698L596.9,322.2l-2.2-2.601l-1.4-4.199l0.8-2.5l-1.897-3.4
		l-1.8-4.6L585.6,304.1l-7-5.6l-1.697-4.1l0.8-3.2l2.1-6.1l0.5-2.9l-1.897-1l-6.9-0.8l-1-1.7l-0.1-4.2l-5.5-3.4l-7-7.8L555.6,256
		l-0.197-4.2L555.8,249.5z"/>
	<path id="MS" fill="#D3D3D3" d="M624.6,467l-0.3,1.3h-5.2l-1.5-0.8l-2.1-0.3l-6.8,1.897l-1.8-0.8l-2.603,4.2l-1.1,0.8l-1.103-2.5
		L601,466.9l-3.4-3.2l1.103-7.5l-0.7-0.9l-1.8,0.2l-8.2,0.7l-24.2,0.7l-0.5-1.603l0.7-8l3.4-6.2l5.3-9.1l-0.9-2.1h1.103l0.697-3.2
		l-2.3-1.8l0.2-1.803l-2.1-4.6l-0.303-5.3l1.4-2.7l-0.4-4.3l-1.397-3l1.397-1.4l-1.397-2.1l0.5-1.8l0.897-6.201l3-2.699l-0.697-2.1
		l3.697-5.302l2.7-0.898v-2.5l-0.7-1.4l2.7-5.3l2.7-1.1l0.1-3.4l8.7-0.1L616.4,365l4.6-0.2v6.4l0.2,16.7l-0.8,31l-0.2,14.1l2.7,18.8
		L624.6,467z"/>
	<path id="MT" fill="#D3D3D3" d="M356.7,122.3l0.6-11.2l2.3-24.8c0.5-5,1.103-8.5,1.4-15.4l0.9-14.6l-30.7-2.8L302,50l-29.3-4
		l-32.3-5.3L222,37.3l-32.7-6.9l-4.5,21.3l3.4,7.5l-1.4,4.6l1.8,4.6l3.2,1.4l4.6,10.8l2.7,3.2l0.5,1.1L203,86l0.5,2.1l-7.1,17.6v2.5
		l2.5,3.2h0.9l4.8-3l0.7-1.1l1.6,0.7l-0.2,5.3l2.7,12.6l3,2.5l0.9,0.7l1.8,2.3l-0.5,3.4l0.7,3.4l1.1,0.9l2.3-2.3h2.7l3.2,1.6
		l2.5-0.9h4.1l3.7,1.6l2.7-0.5l0.5-3l3-0.7l1.4,1.4l0.5,3.2l1.8,1.4l1.5-11.6l20.7,3l28.2,4l16.6,1.9l31.4,3.5l11,1.5l1.1-15.4
		L356.7,122.3z"/>
	<path id="NC" fill="#D3D3D3" d="M832.1,298.5l1.7,4.7l3.603,6.5l2.397,2.399l0.603,2.301L838,314.6l0.8,0.603l-0.3,4.198
		l-2.6,1.302l-0.603,2.1l-1.3,2.9l-3.7,1.6L827.9,327l-1.5-0.2l-1.603-1.3l0.3,1.3v1h1.9l0.8,1.3L825.9,335.4h4.197l0.603,1.6
		l2.3-2.3l1.3-0.5l-1.897,3.6l-3.103,4.8H828l-1.1-0.5l-2.7,0.603L819,345.1l-6.5,5.301l-3.4,4.699l-1.897,6.5l-0.5,2.4l-4.7,0.5
		l-5.5,1.3l-9.9-8.2L774,350l-2.9-0.8l-12.6,1.5l-4.3,0.8l-1.603-3.2l-3-2.1l-16.5,0.5l-7.3,0.8l-9.1,4.5l-6.103,2.6L709,354.9
		l-5.8,1l-7,0.8l-6.8,0.5l0.5-4.101l1.8-1.5l2.7-0.602l0.6-3.7l4.2-2.698l3.897-1.5l4.2-3.602l4.4-2.102l0.6-3.101l3.9-3.899
		l0.6-0.201c0,0,0,1.103,0.8,1.103c0.803,0,1.9,0.301,1.9,0.301l2.3-3.601l2.103-0.602l2.3,0.299l1.6-3.6l2.9-2.6l0.5-2.1v-4
		l4.5,0.697l7.1-1.3l15.8-1.897L775.7,310.3l19.897-4l19.7-4.2l11.4-2.8L832.1,298.5z M836,331.5l2.6-2.5l3.2-2.6l1.5-0.603l0.2-2
		l-0.6-6.1l-1.5-2.302l-0.603-1.898l0.7-0.2l2.7,5.5l0.397,4.4l-0.196,3.399l-3.4,1.5l-2.8,2.4l-1.103,1.2L836,331.5z"/>
	<path id="ND" fill="#D3D3D3" d="M471.3,127.7l-0.397-7.5l-2-7.3L467.1,99.3l-0.5-9.8l-2-3.1L463,81V70.7l0.7-3.9l-2.103-5.5
		L433.2,60.7L414.6,60.1l-26.5-1.3L363.2,56.9l-1.3,14.2l-1.4,15.1l-2.3,24.9l-0.5,11l56.8,3.8L471.3,127.7z"/>
	<path id="NE" fill="#D3D3D3" d="M484.2,247l1.397,2.7l0.103,2.1l2.397,3.7l2.7,3.2h-5l-43.5-0.9l-40.8-0.9l-21.2-1l1.103-21.3
		l-33.4-2.7l4.3-44l15.5,1L388,190l17.8,1.1l23.8,1.1l10.7-0.5l2.103,2.3l4.8,3l1.1,0.9l4.3-1.4l3.9-0.5l2.7-0.2l1.8,1.4l5,1.6
		l3,1.6l0.5,1.6l0.9,2.1h1.8h0.8l1,5.2l2.7,8l1.2,4.6l2.1,3.8l0.5,4.9l1.4,4.3l0.5,6.5"/>
	<path id="NH" fill="#D3D3D3" d="M880.8,142.4l0.9-1.1l1.1-3.3l-2.5-0.9l-0.5-3.1l-3.897-1.1l-0.303-2.7l-7.3-23.4l-4.6-14.5h-0.9
		l-0.6,1.6l-0.603-0.5l-1-1l-1.5,1.9v5l0.303,5.7l1.897,2.7v4l-3.7,5.1l-2.6,1.1v1.1l1.1,1.8v8.6l-0.8,9.2l-0.2,4.8l1,1.3
		l-0.197,4.5l-0.5,1.8l1.5,0.9l16.397-4.7l2.3-0.6l1.5-2.6L880.8,142.4z"/>
	<path id="NJ" fill="#D3D3D3" d="M828.2,190.3l-2.103,2.4v3.1l-1.897,3.1l-0.2,1.6l1.3,1.3l-0.2,2.4l-2.3,1.1l0.8,2.7l0.2,1.1
		l2.7,0.3l1,2.6l3.6,2.4l2.4,1.6v0.8l-3.2,3.1l-1.6,2.3l-1.5,2.7l-2.3,1.3l-1.2,0.7l-0.2,1.2l-0.6,2.6l1.1,2.2l3.2,2.9l4.8,2.3
		l4,0.6l0.2,1.5l-0.8,1l0.3,2.7h0.8l2.1-2.4l0.803-4.8l2.697-4l3.103-6.5l1.1-5.5l-0.6-1.1l-0.2-9.4l-1.6-3.4l-1.103,0.8l-2.7,0.3
		l-0.5-0.5l1.103-1l2.1-1.9l0.103-1.1l-0.4-3.4l0.5-2.7l-0.2-2.1l-2.6-1.1l-4.5-1l-3.9-1.1L828.2,190.3z"/>
	<path id="NM" fill="#D3D3D3" d="M282.7,431l-0.7-6.1l8.6,0.5l29.5,3.1l28.4,1.4l2-22.303l3.7-55.897l1.1-19.4l2,0.3v-11.1
		l-32.2-2.4L288.2,314.7l-34.5-4.101l-4.2,30.801l-7,53.199l-3.8,26.898l-2,13.3l15.5,2l1.3-10l16.7,2.603L282.7,431z"/>
	<path id="NV" fill="#D3D3D3" d="M140.7,177.6l21,4.5l9.7,1.9l9.3,1.8l6.6,1.6l-0.6,5.9l-3.5,17.3l-4.1,20l-1.9,9.7l-2.2,13.3
		l-3.2,16.4l-3.5,15.7l-2,10.2l-2.5,16.8l-0.5,1.1l-1.1,2.5l-1.9-0.1l-1.1-2.7l-2.7-0.5l-1.4-1l-2,0.3l-0.9,0.7l-1.3,1.3l-0.4,7
		L150,323l-0.4,12.1l-1.3,1.7l-1.9-2.3l-14.5-22.7l-19.4-29L89.6,249l-12.4-18.6l1.6-6.6l7-25.9l7.9-31.3l33.6,8.1l13.7,3"/>
	<path id="NY" fill="#D3D3D3" d="M828.9,189.3l-1.103-1l-2.6-0.2l-2.3-1.9l-1.603-6.1l-3.5,0.1l-2.397-2.7l-19.4,4.4l-43,8.7
		l-7.5,1.2l-0.7-6.5l1.4-1.1l1.3-1.1l1-1.6l1.8-1.1l1.9-1.8l0.5-1.6l2.1-2.7l1.103-1l-0.2-1l-1.3-3.1L752.6,169l-1.897-6.1
		l2.897-1.8l4.4-1.5l4-1.3l3.2-0.5l6.3-0.2l1.9,1.3l1.6,0.2l2.1-1.3l2.603-1.1l5.2-0.5l2.1-1.8l1.8-3.2l1.603-1.9h2.1l1.9-1.1
		l0.197-2.3l-1.5-2.1l-0.3-1.5l1.103-2.1v-1.5H792.1l-1.8-0.8l-0.8-1.1l-0.2-2.6l5.8-5.5l0.603-0.8l1.5-2.9l2.897-4.5l2.7-3.7
		l2.103-2.4l2.397-1.8l3.103-1.2l5.5-1.3l3.197,0.2l4.5-1.5l7.603-2.1l0.5,5l2.397,6.5l0.803,5.2l-1,3.9l2.6,4.5l0.8,2.1l-0.8,2.9
		l2.9,1.3l0.6,0.3l3.1,11l-0.5,5.1l-0.5,10.8l0.803,5.5l0.8,3.6l1.5,7.3v8.1l-1.103,2.3l1.803,2l0.8,1.7l-1.9,1.8l0.3,1.3l1.303-0.3
		l1.5-1.3l2.3-2.6l1.1-0.6l1.601,0.6l2.301,0.2l7.898-3.9l2.9-2.7l1.3-1.5l4.2,1.6l-3.4,3.6l-3.898,2.9l-7.102,5.3l-2.6,1l-5.8,1.9
		l-4,1.1l-1.2-0.5l-0.2-3.7l0.5-2.7l-0.2-2.1l-2.8-1.7l-4.5-1l-3.899-1.1L828.9,189.3z"/>
	<path id="OH" fill="#D3D3D3" d="M731.4,195l-6.103,4.1l-3.897,2.3l-3.4,3.7l-4,3.9l-3.2,0.8l-2.897,0.5l-5.5,2.6l-2.103,0.2
		L696.9,210l-5.2,0.6l-2.603-1.5l-2.397-1.4l-4.9,0.7l-10.2,1.6l-7.8,1.2l1.3,14.6l1.803,13.7l2.6,23.4l0.6,4.8l4.103-0.1l2.397-0.8
		l3.4,1.5l2.1,4.4h5.103l1.897,2.1l1.802-0.1l2.5-1.3l2.5,0.4l2,1.5l1.698-2.1l2.302-1.3l2.101-0.7l0.6,2.7l1.802,1l3.5,2.3
		l2.198-0.1l1.103-1.1l-0.103-1.4l1.603-1.5l0.199-5l1-3.9l1.5-1.4l1.5,0.9l0.801,1.2l1.199-0.2l-0.399-2.4l-0.601-0.6v-2.4l1-1.3
		l2.301-3.4l1.3-1.5l2.1,0.5l2.302-1.6l3.101-3.4l2.3-3.9l0.2-5.4l0.5-5v-4.7l-1.101-3.1l1-1.5l0.898-1l-1.398-9.8L731.4,195z"/>
	<path id="OK" fill="#D3D3D3" d="M375.3,322.6l-10.7-0.5l-6.397-0.5l0.3,0.2l-0.7,10.4l22,1.399l32.101,1.301L409.6,359.3l-0.5,17.8
		l0.2,1.603l4.3,3.698l2.103,1.102l0.7-0.2l0.697-2.1l1.4,1.8h2.1v-1.398l2.7,1.398l-0.5,3.898l4.103,0.199l2.5,1.103l4.1,0.698
		l2.5,1.802l2.3-2.103l3.4,0.7l2.5,3.4h0.897v2.3l2.303,0.7l2.3-2.3l1.8,0.699h2.5l0.9,2.498l4.8,1.803l1.397-0.7l1.803-4.101h1.1
		l1.1,2.101l4.103,0.7l3.7,1.397l3,0.9l1.8-0.9l0.7-2.5h4.3l2.1,0.9l2.7-2.103h1.1l0.7,1.602h4.103l1.6-2.102l1.8,0.5l2.103,2.5
		l3.199,1.803l3.198,0.897l1.9,1.103l-0.4-37.2l-1.397-11l-0.2-8.9l-1.4-6.5l-0.8-7.198l-0.1-3.802l-12.103,0.302l-46.397-0.5
		l-45-2.102L375.3,322.6z"/>
	<path id="OR" fill="#D3D3D3" d="M140.2,176.8l4.3-17.9l4.7-17.9l1.1-4.2l2.4-5.6l-0.6-1.2h-2.5l-1.3-1.7l0.5-1.5l0.5-3.2l4.5-5.5
		l1.8-1.1l1.1-1.1l1.5-3.6l4-5.7l3.6-3.9l0.2-3.5l-3.3-2.5l-1.2-4.5l-13.2-3.7L133.2,85l-15.4,0.1l-0.5-1.4l-5.5,2.1l-4.5-0.6
		l-2.4-1.6l-1.3,0.7L99,84l-1.7-1.3l-5.3-2h-0.8l-4.3-1.4L85,81.1l-6.2-0.3l-5.9-4.1l0.7-0.8l0.2-7.8l-2.3-3.9l-4.1-0.6l-0.7-2.5
		l-2.4-0.5l-5.8,2.1l-2.3,6.5l-3.2,10l-3.2,6.5l-5,14.1l-6.5,13.6L30.2,126l-1.9,2.9l-0.8,8.6l-1.3,6l2.7,3.5l6.7,2.3l11.6,3.3
		l7.9,2.5l12.4,3.6l13.3,3.6l13.2,3.6"/>
	<path id="PA" fill="#D3D3D3" d="M822.2,226.3l1.1-0.6l2.3-0.6l1.5-2.7l1.603-2.3l3.2-3.1v-0.8l-2.4-1.6l-3.6-2.4l-1-2.6l-2.7-0.3
		l-0.2-1.1l-0.8-2.7l2.3-1.1l0.2-2.4l-1.3-1.3l0.197-1.6l1.9-3.1v-3.1l2.3-2.4l0.2-1.1l-2.6-0.2l-2.303-1.9L819.7,182l-3-0.9
		l-2.3-2.1l-18.603,4l-43,8.7l-8.897,1.5l-0.5-7.1l-5.5,5.6l-1.303,0.5l-4.197,3l2.897,19.1l2.9,9.5l3.6,19.3l3.3-0.6L757,241
		l37.9-7.7l14.897-2.8l8.3-1.6l0.303-0.2l2.1-1.6L822.2,226.3z"/>
	<path id="RI" fill="#D3D3D3" d="M874.1,179.8l-0.5-4.2l-0.8-4.4l-1.7-5.9l5.7-1.5l1.603,1.1l3.397,4.4l2.9,4.4l-2.9,1.5l-1.3-0.2
		l-1.1,1.8l-2.4,1.9L874.1,179.8z"/>
	<path id="SC" fill="#D3D3D3" d="M761.2,412.9l-1.8,1L756.8,412.6l-0.6-2.1l-1.3-3.6L752.6,404.8l-2.6-0.6l-1.6-4.8l-2.7-6l-4.2-1.9
		l-2.1-1.9L738.1,387l-2.1-2l-2.3-1.3l-2.3-2.9l-3.103-2.3l-4.5-1.8l-0.5-1.5l-2.397-2.9l-0.5-1.5l-3.4-5.2l-3.4,0.2l-4-2.399
		l-1.3-1.301l-0.3-1.8l0.8-1.897l2.3-1l-0.3-2.103l6.103-2.6l9.1-4.5l7.3-0.8l16.5-0.5l2.3,1.897l1.603,3.2l4.397-0.5L770.7,350
		l2.897,0.8L786.2,358.4l10.1,8.1L790.9,372l-2.602,6.1l-0.5,6.301l-1.6,0.802l-1.103,2.698l-2.397,0.602l-2.103,3.602l-2.697,2.699
		l-2.3,3.397L774,399l-3.6,3.4l-2.9,0.197l1,3.2l-5,5.5L761.2,412.9z"/>
	<path id="SD" fill="#D3D3D3" d="M472.8,203.2l-1-1.1l-1.5-3.6l1.8-3.7l1.103-5.6l-2.603-2.1l-0.3-2.7l0.603-3l2.197-0.8l0.303-5.7
		l-0.103-30.1l-0.6-3l-4.103-3.6l-1-2v-1.9l1.9-1.3l1.5-1.9l0.2-2.7l-57.4-1.6l-56.2-3.9l-0.8,5.3l-1.6,15.9l-1.3,17.9l-1.603,24.6
		l16,1l19.603,1.1l18,1.3l23.8,1.3l10.7-0.8l2.897,2.3l4.3,3l1,0.8l3.5-0.9l4-0.3l2.7-0.1l3.103,1.2l4.5,1.4l3.1,1.8l0.6,1.9
		l0.9,1.9l0.7-0.5L472.8,203.2z"/>
	<path id="TN" fill="#D3D3D3" d="M697.1,320.6l-51.897,5l-15.8,1.801l-4.603,0.5H620.9v3.899l-8.4,0.5l-7,0.601l-11.1,0.102
		l-0.303,5.8l-2.1,6.302l-1,3l-1.3,4.398l-0.3,2.602l-4,2.301l1.5,3.6l-1,4.4l-1,0.8l7.3-0.2l24.1-1.9l5.3-0.199l8.103-0.5
		l27.8-2.601l10.2-0.8l8.397-1l8.4-1.1l4.8-0.801l-0.1-4.5l1.8-1.5l2.7-0.602l0.6-3.7l4.2-2.698l3.9-1.5l4.197-3.602l4.4-2.102
		l0.9-3.5l4.3-3.898l0.6-0.2c0,0,0,1.103,0.8,1.103c0.803,0,1.9,0.299,1.9,0.299l2.3-3.6l2.103-0.602l2.3,0.3l1.6-3.603L729.9,321
		l0.6-1l0.2-3.9l-1.5-0.3l-2.4,1.899L718.9,317.9l-12,1.897L697.1,320.6z"/>
	<path id="TX" fill="#D3D3D3" d="M357.1,333.4l22.7,1.1l31.103,1.1l-2.303,23.5l-0.3,18.2l0.103,2.101l4.3,3.802l1.7,0.8l1.8,0.3
		l0.7-1.3l0.897,0.898l1.7,0.5l1.6-0.698l1.103,0.397l-0.3,3.4l4.3,1l2.7,0.8l4,0.5l2.197,1.8l3.2-1.6l2.8,0.4l2,2.799l1.103,0.301
		l-0.2,2l3.102,1.2l2.801-1.8l1.5,0.397l2.397,0.2l0.4,1.9l4.6,2l2.7-0.2l2-4.103h0.3l1.103,1.9l4.397,1l3.302,1.2l3.301,0.8
		l2.1-0.8l0.8-2.5h3.7l1.9,0.8l3.1-1.6h0.7l0.399,1.1h4.301l2.397-1.301L497,396l1.4,1.9l2.897,1.697l3.5,1.103l2.7,1.397l2.4,1.603
		l3.3-0.9l1.897,1l0.5,10.103l0.303,9.697l0.697,9.5l0.5,4l2.7,4.603l1.103,4.1l3.897,6.3l0.5,2.9l0.5,1l-0.7,7.5l-2.697,4.4
		l1,2.897l-0.4,2.5l-0.8,7.3l-1.4,2.7l0.603,4.4l-5.7,1.6l-9.9,4.5l-1,1.9l-2.6,1.897l-2.103,1.5l-1.3,0.803l-5.7,5.3l-2.697,2.1
		l-5.303,3.2l-5.697,2.4L473.1,516.3l-1.8,1.5l-5.8,3.603l-3.4,0.6l-3.897,5.5l-4,0.3l-1,1.9l2.3,1.897l-1.5,5.5l-1.3,4.5
		l-1.103,3.9l-0.8,4.5l0.8,2.4l1.803,7l1,6.1l1.8,2.7l-1,1.5L452.1,571.6L446.4,567.7l-5.5-1.103l-1.303,0.5l-3.197-0.6l-4.2-3.1
		l-5.2-1.101l-7.6-3.397L417.3,555l-1.3-6.5l-3.2-1.9l-0.6-2.3l0.6-0.6l0.3-3.4l-1.3-0.6l-0.6-1l1.3-4.4l-1.6-2.3l-3.2-1.3l-3.4-4.4
		l-3.6-6.6l-4.2-2.603l0.2-1.897l-5.3-12.3l-0.803-4.2l-1.8-1.9l-0.2-1.5l-6-5.3l-2.6-3.1V485.8l-2.602-2.1L370.6,482.6L363.2,482
		l-3.103-2.3l-4.5,1.8L352,483l-2.3,3.2l-1,3.7l-4.4,6.1l-2.397,2.4l-2.603-1l-1.8-1.103l-1.9-0.6l-3.897-2.3v-0.601l-1.8-1.897
		l-5.2-2.103l-7.4-7.8l-2.3-4.7v-8.1l-3.2-6.5l-0.5-2.7l-1.6-1l-1.103-2.1l-5-2.103l-1.3-1.6l-7.1-7.9l-1.3-3.2l-4.7-2.3l-1.5-4.397
		l-2.6-2.9l-1.9-0.5l-0.6-4.7l8,0.7l29,2.7l29.303,1.6l2.3-23.8l3.897-55.6l1.603-18.7h1.397 M457.2,567.3l-0.603-7.1L453.9,553
		l-0.603-7l1.5-8.2l3.3-6.897l3.5-5.4l3.2-3.6l0.603,0.197L460.6,528.7l-4.397,6.5l-2,6.6l-0.3,5.2l0.897,6.1l2.603,7.2l0.5,5.2
		l0.197,1.5L457.2,567.3z"/>
	<path id="UT" fill="#D3D3D3" d="M253,309.3l-24.6-3.5l-26.6-4.899l-33.8-6l1.6-9.2l3.2-15.2L176,254l2.2-13.6l1.9-8.9l3.8-20.5
		l3.5-17.5l1.1-5.6l12.7,2.3l12,2.1l10.3,1.8l8.3,1.4l3.7,0.5l-1.5,10.6l-2.3,13.2l7.8,0.9l16.4,1.8l8.2,0.9l-2.1,22l-3.2,22.6
		l-3.8,27.8l-1.7,11.101L253,309.3z"/>
	<path id="VA" fill="#D3D3D3" d="M828.9,269.2l-0.103-1.9l6.5-2.5l-0.8,3.2l-2.9,3.8l-0.397,4.6l0.5,3.4l-1.8,5l-2.2,1.9l-1.5-4.6
		l0.397-5.4l1.603-4.2L828.9,269.2z M831.2,297.5L773,310.1l-37.4,5.301L728.9,315l-2.603,1.9L719,317.1l-8.4,1l-8.897,1l8.5-4.897
		V312.1l1.5-2.1l10.6-11.5l3.9,4.5l3.8,1l2.5-1.1l2.2-1.301l2.5,1.301l3.897-1.4l1.9-4.6l2.6,0.5l2.9-2.103l1.8,0.5l2.8-3.7
		l0.303-2.1l-1-1.3l1-1.9l5.3-12.3l0.6-5.7l1.2-0.5l2.2,2.4l3.897-0.3l1.9-7.6l2.8-0.6l1-2.7l2.603-2.3l1.3-2.3l1.5-3.4l0.1-5.1
		l9.8,3.8c0.7,0.3,0.7-4.8,0.7-4.8l4.103,1.4l-0.5,2.6l8.197,2.9l1.303,1.8l-0.9,3.7l-1.3,1.3l-0.5,1.7l0.5,2.4l2,1.3l3.897,1.4
		l2.9,1l4.9,0.9l2.197,2.1l3.2,0.4l0.9,1.2l-0.4,4.7l1.4,1.1l-0.5,1.9l1.2,0.8l-0.2,1.4l-2.7-0.1l0.1,1.6l2.303,1.5l0.1,1.4l1.8,1.8
		l0.5,2.5l-2.6,1.4l1.6,1.5l5.8-1.7L831.2,297.5z"/>
	<path id="VT" fill="#D3D3D3" d="M844.3,153.7l-0.8-5.7l-2.4-10l-0.6-0.3l-2.9-1.3l0.803-2.9l-0.803-2.1l-2.697-4.6l1-3.9
		l-0.803-5.2l-2.397-6.5l-0.8-4.9l26.197-6.7l0.303,5.8l1.897,2.7v4l-3.7,4l-2.6,1.1v1.1l1.1,1.8v8.6l-0.8,9.2l-0.2,4.8l1,1.3
		l-0.197,4.5l-0.5,1.8l0.697,1.6l-7,1.4L844.3,153.7z"/>
	<path id="WA" fill="#D3D3D3" d="M93.6,6.4L98,7.9l9.7,2.7l8.6,1.9l20,5.7l23,5.7l15.2,3.4l-1,3.9L169.4,45l-4.5,20.8l-3.2,16.1
		l-0.4,9.4l-13.2-3.9L132.5,84l-13.7,0.6l-1.6-1.5l-5.3,1.9l-4-0.3l-2.7-1.8l-1.6,0.5l-4.2-0.2l-1.9-1.4l-4.8-1.7l-1.4-0.2l-5-1.3
		l-1.8,1.5l-5.7-0.3L74,76l0.2-0.8l0.1-7.9l-2.1-3.9l-4.1-0.7l-0.4-2.4l-2.5-0.6l-2.9-0.5l-1.8,1l-2.3-2.9l0.3-2.9l2.7-0.3l1.6-4
		L60.2,49l0.2-3.7l4.4-0.6L62.1,42l-1.5-7.1l0.6-2.9v-7.9l-1.8-3.2l2.3-9.4l2.1,0.5l2.4,2.9l2.7,2.6l3.2,1.9l4.5,2.1l3.1,0.6
		l2.9,1.5l3.4,1l2.3-0.2V22l1.3-1.1l2.1-1.3l0.3,1.1l0.3,1.8L90,23l-0.3,2.1l1.8,1.5l1.1,2.4l0.6,1.9l1.5-0.2l0.2-1.3l-1-1.3
		l-0.5-3.2l0.8-1.8l-0.6-1.5V19l1.8-3.6l-1.1-2.6L91.9,8l0.3-0.8L93.6,6.4z M84.1,12.3l2-0.2l0.5,1.4l1.5-1.6h2.3l0.8,1.5l-1.5,1.7
		l0.6,0.8l-0.7,2l-1.4,0.4c0,0-0.9,0.1-0.9-0.2c0-0.3,1.5-2.6,1.5-2.6l-1.7-0.6l-0.3,1.5L86.1,17l-1.5-2.3L84.1,12.3z"/>
	<path id="WI" fill="#D3D3D3" d="M612.9,197.2l0.397-3l-1.6-4.5l-0.603-6.1l-1.1-2.4l1-3.1l0.8-2.9l1.5-2.6l-0.6-3.4l-0.602-3.6
		l0.5-1.8l1.899-2.4l0.2-2.7l-0.8-1.3l0.6-2.6l0.5-3.2l2.7-5.7l2.898-6.8l0.199-2.3l-0.3-1l-0.8,0.5l-4.2,6.3l-2.7,4l-1.897,1.8
		l-0.802,2.3l-1.5,0.8l-1.101,1.9l-1.5-0.3l-0.2-1.8l1.301-2.4l2.102-4.7l1.8-1.6l1.101-2.3l-1.601-0.9l-1.399-1.4l-1.601-10.3
		l-3.7-1.1l-1.397-2.3l-12.603-2.7l-2.5-1.1l-8.199-2.3l-8.198-1.1l-4.2-5.4l-0.5,1.3l-1.102-0.2l-0.601-1.1l-2.7-0.8l-1.1,0.2
		l-1.8,1l-1-0.6l0.6-1.9l1.9-3.1l1.1-1.1l-1.899-1.5l-2.101,0.8l-2.899,1.9l-7.398,3.2l-2.9,0.6l-2.897-0.5l-1-0.9l-2.103,2.8
		l-0.2,2.7v8.5l-1.1,1.6l-5.3,3.9l-2.3,5.9l0.5,0.2l2.5,2.1l0.698,3.2l-1.801,3.2v3.9l0.5,6.6l3,3h3.4l1.8,3.2l3.4,0.5l3.897,5.7
		l7.103,4.1l2.1,2.7l0.9,7.4l0.698,3.3l2.302,1.6l0.198,1.4l-2.101,3.4l0.2,3.2l2.5,3.9l2.5,1.1l3,0.5l1.3,1.4h9.2l26.1-1.5
		L612.9,197.2z"/>
	<path id="WV" fill="#D3D3D3" d="M756.4,242.2l1.1,4.9l1.1,6.9l3.603-2.7l2.3-3.1l2.5-0.6l1.5-1.5l1.8-2.6l1.2,0.6l2.9-0.3l2.6-2.1
		l2-1.5l1.8-0.5l1.3,1l2.2,1.1l1.9,1.8l1.397,1.3l-0.1,4.7l-5.7-3.1l-4.5-1.8l-0.2,5.3l-0.5,2.1l-1.6,2.7l-0.6,1.6l-3.103,2.4
		l-0.5,2.3l-3.397,0.3l-0.303,3.1L766,270h-2.6l-1.303-0.8l-1.6-2.7l-1.8,0.2l-0.3,4.4l-2.103,6.6l-5,10.8l0.801,1.3l-0.198,2.7
		l-2.103,1.9l-1.5-0.3l-3.198,2.4l-2.602-1l-1.8,4.7c0,0-3.7,0.8-4.4,1c-0.6,0.2-2.397-1.3-2.397-1.3l-2.4,2.3l-2.6,0.6L726,302
		l-1.3-1.3l-2.2-3l-3.1-2L716.8,293l-2.897-3.7L713.3,287l-2.6-1.5l-0.8-1.6l-0.2-5.3l2.2-0.1l1.897-0.8l0.2-2.7l1.601-1.5l0.199-5
		l1-3.9l1.301-0.6l1.302,1.1l0.5,1.8l1.8-1l0.5-1.6l-1.102-1.8v-2.4l1-1.3l2.302-3.4l1.3-1.5l2.1,0.5l2.302-1.6l3.101-3.4l2.3-3.9
		l0.3-5.7l0.5-5v-4.7l-1.1-3.1l1-1.5l1.3-1.3L741,244l4.6-0.8L756.4,242.2z"/>
	<path id="WY" fill="#D3D3D3" d="M354.3,143.8l-10.5-0.8l-32.1-3.3l-16.2-2.1l-28.3-4.1l-19.9-3l-1.4,11.2l-3.8,24.3l-5.3,30.4
		l-1.5,10.5l-1.7,11.9l6.5,0.9l25.9,2.5l20.6,2.3l36.8,4.1l23.8,2.9l4.5-44.2l1.397-25.4L354.3,143.8z"/>
	<circle id="DC" fill="#D3D3D3" stroke="#FFFFFF" stroke-width="1.5" cx="801.3" cy="251.8" r="5"/>
</g>
<path id="frames" fill="none" stroke="#A9A9A9" stroke-width="2" d="M215,493v55l36,45 M0,425h147l68,68h85l54,54v46"/>
<rect x="629" y="399" fill="none" width="51.3" height="23.2"/>
<text transform="matrix(1 0 0 1 629 414.0361)" font-family="'Arial-Black'" font-size="21">274</text>
<rect x="109" y="481" fill="none" width="34" height="27"/>
<text transform="matrix(1 0 0 1 109 496.0361)" font-family="'Arial-Black'" font-size="21">0</text>
<rect x="175" y="351" fill="none" width="48" height="23"/>
<text transform="matrix(1 0 0 1 175 366.0361)" font-family="'Arial-Black'" font-size="21">158</text>
<rect x="521" y="360" fill="none" width="49.4" height="21.6"/>
<text transform="matrix(1 0 0 1 521 375.0361)" font-family="'Arial-Black'" font-size="21">179</text>
<rect x="47" y="267" fill="none" width="45" height="21"/>
<text transform="matrix(1 0 0 1 47 282.0352)" font-family="'Arial-Black'" font-size="21">213</text>
<rect x="293" y="262" fill="none" width="52" height="25"/>
<text transform="matrix(1 0 0 1 293 277.0352)" font-family="'Arial-Black'" font-size="21">239</text>
<line fill="none" stroke="#000000" stroke-width="4" stroke-miterlimit="10" x1="869" y1="182" x2="907" y2="273"/>
<rect x="888" y="275" fill="none" width="49" height="26"/>
<text transform="matrix(1 0 0 1 888 290.0361)" font-family="'Arial-Black'" font-size="21">303</text>
<line fill="none" stroke="#000000" stroke-width="4" stroke-miterlimit="10" x1="832" y1="251" x2="919" y2="335"/>
<rect x="925" y="332" fill="none" width="46" height="36"/>
<text transform="matrix(1 0 0 1 925 347.0361)" font-family="'Arial-Black'" font-size="21">0</text>
<rect x="741" y="499" fill="none" width="43" height="30"/>
<text transform="matrix(1 0 0 1 741 514.0361)" font-family="'Arial-Black'" font-size="21">245</text>
<rect x="690" y="398" fill="none" width="52" height="26"/>
<text transform="matrix(1 0 0 1 690 413.0361)" font-family="'Arial-Black'" font-size="21">205</text>
<rect x="273" y="546" fill="none" width="25" height="24"/>
<text transform="matrix(1 0 0 1 273 561.0361)" font-family="'Arial-Black'" font-size="21">0</text>
<rect x="179" y="139" fill="none" width="27" height="23"/>
<text transform="matrix(1 0 0 1 179 154.0352)" font-family="'Arial-Black'" font-size="21">0</text>
<rect x="569" y="242" fill="none" width="47" height="25"/>
<text transform="matrix(1 0 0 1 569 257.0352)" font-family="'Arial-Black'" font-size="21">244</text>
<rect x="623" y="241" fill="none" width="50" height="24"/>
<text transform="matrix(1 0 0 1 623 256.0352)" font-family="'Arial-Black'" font-size="21">269</text>
<rect x="501" y="204" fill="none" width="51" height="25"/>
<text transform="matrix(1 0 0 1 501 219.0352)" font-family="'Arial-Black'" font-size="21">134</text>
<rect x="415" y="282" fill="none" width="54" height="25"/>
<text transform="matrix(1 0 0 1 415 297.0361)" font-family="'Arial-Black'" font-size="21">223</text>
<rect x="537" y="463" fill="none" width="57" height="27"/>
<text transform="matrix(1 0 0 1 537 478.0361)" font-family="'Arial-Black'" font-size="21">271</text>
<rect x="914" y="355.5" fill="none" width="45" height="23"/>
<text transform="matrix(1 0 0 1 914 370.5352)" font-family="'Arial-Black'" font-size="21">147</text>
<line fill="none" stroke="#000000" stroke-width="4" stroke-miterlimit="10" x1="817" y1="256" x2="915" y2="358"/>
<line fill="none" stroke="#000000" stroke-width="4" stroke-miterlimit="10" x1="801" y1="253" x2="917" y2="407"/>
<rect x="919" y="408" fill="none" width="24" height="27"/>
<text transform="matrix(1 0 0 1 919 423.0361)" font-family="'Arial-Black'" font-size="21">0</text>
<rect x="899" y="146" fill="none" width="52" height="27"/>
<text transform="matrix(1 0 0 1 899 161.0352)" font-family="'Arial-Black'" font-size="21">221</text>
<line fill="none" stroke="#000000" stroke-width="4" stroke-miterlimit="10" x1="881" y1="154" x2="899" y2="154"/>
<rect x="641" y="172" fill="none" width="51" height="22"/>
<text transform="matrix(1 0 0 1 641 187.0352)" font-family="'Arial-Black'" font-size="21">272</text>
<rect x="483" y="114" fill="none" width="50" height="24"/>
<text transform="matrix(1 0 0 1 483 129.0352)" font-family="'Arial-Black'" font-size="21">234</text>
<rect x="575" y="399" fill="none" width="58" height="25"/>
<text transform="matrix(1 0 0 1 575 414.0361)" font-family="'Arial-Black'" font-size="21">204</text>
<rect x="518" y="285" fill="none" width="48" height="26"/>
<text transform="matrix(1 0 0 1 518 300.0361)" font-family="'Arial-Black'" font-size="21">164</text>
<rect x="266" y="79" fill="none" width="24" height="20"/>
<text transform="matrix(1 0 0 1 266 94.0352)" font-family="'Arial-Black'" font-size="21">0</text>
<rect x="405" y="215" fill="none" width="34" height="26"/>
<text transform="matrix(1 0 0 1 405 230.0352)" font-family="'Arial-Black'" font-size="21">91</text>
<rect x="858" y="126" fill="none" width="26" height="29"/>
<text transform="matrix(1 0 0 1 858 141.0352)" font-family="'Arial-Black'" font-size="21">0</text>
<rect x="836" y="108" fill="none" width="32" height="26"/>
<text transform="matrix(1 0 0 1 836 123.0352)" font-family="'Arial-Black'" font-size="21">0</text>
<rect x="849" y="244" fill="none" width="46" height="24"/>
<text transform="matrix(1 0 0 1 849 259.0352)" font-family="'Arial-Black'" font-size="21">227</text>
<line fill="none" stroke="#000000" stroke-width="4" stroke-miterlimit="10" x1="845" y1="221" x2="865" y2="242"/>
<rect x="283" y="360" fill="none" width="38" height="22"/>
<text transform="matrix(1 0 0 1 283 375.0361)" font-family="'Arial-Black'" font-size="21">35</text>
<rect x="791" y="153" fill="none" width="50" height="26"/>
<text transform="matrix(1 0 0 1 791 168.0352)" font-family="'Arial-Black'" font-size="21">221</text>
<rect x="760" y="322" fill="none" width="52" height="28"/>
<text transform="matrix(1 0 0 1 760 337.0361)" font-family="'Arial-Black'" font-size="21">271</text>
<rect x="410" y="87" fill="none" width="28" height="24"/>
<text transform="matrix(1 0 0 1 410 102.0352)" font-family="'Arial-Black'" font-size="21">0</text>
<rect x="679" y="226" fill="none" width="47" height="24"/>
<text transform="matrix(1 0 0 1 679 241.0352)" font-family="'Arial-Black'" font-size="21">214</text>
<rect x="433" y="351" fill="none" width="56" height="24"/>
<text transform="matrix(1 0 0 1 433 366.0361)" font-family="'Arial-Black'" font-size="21">189</text>
<rect x="74" y="115" fill="none" width="51" height="25"/>
<text transform="matrix(1 0 0 1 74 130.0352)" font-family="'Arial-Black'" font-size="21">206</text>
<rect x="760" y="202" fill="none" width="53" height="29"/>
<text transform="matrix(1 0 0 1 760 217.0352)" font-family="'Arial-Black'" font-size="21">220</text>
<rect x="924.5" y="196" fill="none" width="23" height="26"/>
<text transform="matrix(1 0 0 1 924.5 211.0352)" font-family="'Arial-Black'" font-size="21">0</text>
<line fill="none" stroke="#000000" stroke-width="4" stroke-miterlimit="10" x1="881" y1="174" x2="923" y2="200"/>
<rect x="627" y="333" fill="none" width="50" height="22"/>
<text transform="matrix(1 0 0 1 627 348.0352)" font-family="'Arial-Black'" font-size="21">171</text>
<rect x="652" y="295" fill="none" width="58" height="25"/>
<text transform="matrix(1 0 0 1 652 310.0361)" font-family="'Arial-Black'" font-size="21">205</text>
<rect x="396" y="437" fill="none" width="52" height="24"/>
<text transform="matrix(1 0 0 1 396 452.0361)" font-family="'Arial-Black'" font-size="21">269</text>
<rect x="197" y="249" fill="none" width="53" height="28"/>
<text transform="matrix(1 0 0 1 197 264.0352)" font-family="'Arial-Black'" font-size="21">185</text>
<rect x="761" y="279" fill="none" width="52" height="24"/>
<text transform="matrix(1 0 0 1 761 294.0352)" font-family="'Arial-Black'" font-size="21">174</text>
<rect x="96.5" y="44.5" fill="none" width="49" height="23"/>
<text transform="matrix(1 0 0 1 96.5 59.5352)" font-family="'Arial-Black'" font-size="21">111</text>
<rect x="719" y="256" fill="none" width="51" height="26"/>
<text transform="matrix(1 0 0 1 719 271.0352)" font-family="'Arial-Black'" font-size="21">189</text>
<rect x="405" y="149" fill="none" width="23" height="25"/>
<text transform="matrix(1 0 0 1 405 164.0352)" font-family="'Arial-Black'" font-size="21">0</text>
<rect x="551" y="141" fill="none" width="57" height="25"/>
<text transform="matrix(1 0 0 1 551 156.0352)" font-family="'Arial-Black'" font-size="21">210</text>
<rect x="290.27" y="169.772" fill="none" width="21.591" height="19.318"/>
<text transform="matrix(1 0 0 1 290.27 184.8076)" font-family="'Arial-Black'" font-size="21">0</text>
<rect x="117.543" y="220.909" fill="none" width="38.636" height="27.273"/>
<text transform="matrix(1 0 0 1 117.543 235.9443)" font-family="'Arial-Black'" font-size="21">30</text>
<rect x="745.251" y="366.932" fill="none" width="35.227" height="26.137"/>
<text transform="matrix(1 0 0 1 745.251 381.9678)" font-family="'Arial-Black'" font-size="21">23</text>
<text transform="matrix(1 0 0 1 885 88.0352)" font-family="'Arial-Black'" font-size="21">0</text>
</svg>
