<?xml version="1.0" encoding="utf-8"?>
<!-- Generator: Adobe Illustrator 16.0.0, SVG Export Plug-In . SVG Version: 6.00 Build 0)  -->
<!DOCTYPE svg PUBLIC "-//W3C//DTD SVG 1.1//EN" "http://www.w3.org/Graphics/SVG/1.1/DTD/svg11.dtd">
<svg version="1.1" id="svg2" xmlns:svg="http://www.w3.org/2000/svg"
	 xmlns="http://www.w3.org/2000/svg" xmlns:xlink="http://www.w3.org/1999/xlink" x="0px" y="0px" width="950px" height="780px"
	 viewBox="0 0 950 780" enable-background="new 0 0 950 780" xml:space="preserve">
<g id="LA_county_base_map">
	<path id="path4333" opacity="0.98" fill="#00FF00" enable-background="new    " d="M917.629,21.069v170.676h5.055v73.674
		l7.581,101.084l-16.911,79.506l-26.179,83.574l-1.62,9.929l-3.896,1.673l-16.902-3.229v12.209l-9.067,0.27l-9.368,18.739
		l0.105,4.954h4.631l-0.053,8.939l5.601,5.273l-68.439,0.484l-4.739-1.188v0.915l-31.016,0.217v27.946h-4.578v4.415h-4.738v4.954
		h-4.846v4.687h-4.577v4.687h-9.37v4.846h-4.17L707.878,654.2v6.298l-2.046,2.369v7.593l-3.852,2.366l-1.59,0.703l-6.085,7.377
		l-1.728,6.469l-6.242,10.655l3.554,7.539l-0.127,12.679l-4.232,8.461l-5.832,5.637l-16.068,4.066l-55.854,10.318l-15.275-4.846
		l-3.623,2.129l-1.812-1.979l-3.223,1.991l-3.671-0.019l-1.944-2.722l-9.33-2.722l-4.082-2.916l-15.354-5.831l-5.639-6.609
		l-6.414,0.777l-2.916-3.891l-10.107,4.082l-3.5-3.107l-3.888,0.583l-1.943-8.747l-4.666-8.556l1.167-2.525l-2.916-1.749
		l2.142-6.026l9.33-5.638l-0.777-3.305l3.693-3.498l3.498-1.168l1.557-7.389l-0.195-15.552l-13.022-33.824L503.2,596.071
		L489,570.612l-14.773-20.605l-10.688-11.08l-14.969-10.105l-10.108-0.778l-7.773-2.138l-6.414,2.523l-7.973-0.972l-6.606,1.556
		l-13.607,0.194l-14.968-1.556l-6.221,0.774l-2.333,4.083l-8.165-0.584l-5.054,1.559l-17.884-2.142l-6.221,0.976l-3.499,3.69
		l-9.525,0.391l-6.026,2.139l-4.859,8.358l-6.609,4.274l-18.854-16.718L275.56,529.4l-16.523-2.916l-14.968-2.527l-6.221-1.749
		l-3.11,1.36l-4.859-1.558l2.523-18.857l82.28-59.664h65.102l0.27-46.312h19.116l-0.216-20.407l-1.615-12.868L260.585,20.875h8.553
		L267,26.707l4.471,4.859h11.858V21.069H917.629z"/>
	<path id="path4335" fill="#00FF00" d="M308.519,598.284l19.1,3.383l17.188-1.842l11.495,12.396l7.229,3.564l2.136,5.572
		l2.366,1.999l9.311-4.604l20.36,12.688l27.521,6.957l4.095,5.423l5.628-0.515l2.762,2.864l-1.324,10.059l19.437,21.047l3.479,8.288
		l4.399,1.432l5.46,8.137l2.623,6.802l-1.023,7.979l-11.562,6.139l-16.438-10.438l-11.972-2.778l-15.146-0.255l-17.174,0.204
		l-13.856-4.229l-13.71-21.073l3.479-6.957l-2.149-3.377l3.683-1.739l-0.921-2.354l4.195-1.842l-0.819-2.864l-2.046,0.514
		l-3.357-13.765l-1.006-6.136l-3.125-2.836l-6.772-3.127l2.495-6.572l-5.071,3.023l-1.58,5.979l-1.891-1.821l-4.262-4.261
		l-5.614,0.968l-0.205-2.454l-7.859-1.438l-3.771,1.409l-4.227-0.995l-6.019-3.438l1.595-2.689l-0.896-2.364l-2.345-0.445
		l-9.319-12.648l-3.376-1.125L308.519,598.284z"/>
	<path id="path6275" fill="#00FF00" d="M371.753,722.588l-13.183-13.656l-31.625-25.553l-18.841-19.27l-7.074-3.936l-11.973-8.859
		l-9.654-17.633l-5.439-3.82l-7.563-10.639l-2.667-8.104l-6.139-4.092l-4.096-9.893l0.626-1.979l-5.684-5.092l-6.02,2.406
		l-5.18-3.27l-4.792,2.208l-0.298,10.043l4.708,0.51l4.26,1.617l2.983,7.12l2.819,6.539l0.755,7.616l4.146,8.057l2.499,3.036
		l8.157,9.491l1.544,9.1l2.298,3.319l-0.816,4.163l3.091,3.898l0.71,3.1l4.398,2.841l6.514,9.644l-0.004,2.271l7.559,4.904
		l4.417,15.911l13.322,7.375l2.125,3.452l6.479,4.116l5.573,4.828l2.369,0.377l2.479,3.284l4.799,0.032l1.744,7.215l1.756,0.144
		l4.87-5.195l5.188-0.985l5.292-6.241l7.314-1.45l5.209,1.68l5.037-0.582l5.531,3.396l0.814-1.751L371.753,722.588z"/>
</g>
<g id="LA_county_outlines">
	<path id="path2374" fill="none" stroke="#000000" stroke-width="2.5" d="M589.623,742.404l0.431,0.697l-1.185,0.915l-0.162-1.292
		l-2.314-0.97l-1.455,0.916l-0.807,1.347l-3.716,0.106l-0.7-1.669l-1.238-0.97l-1.989-0.057l-6.519-3.177l-1.724,0.593l-2.423-2.208
		h-0.646l-0.054-1.074l-1.831-0.057l-5.762-2.585l-2.369-1.021l-0.811-1.076l-1.938-0.056l-1.188-0.86l-1.236,0.482l-0.861-0.16
		l-0.161-1.614l-0.916-0.593l-0.215-1.238l-3.608-3.555l-1.938-0.646l-1.508,0.539l-0.594,1.186l-0.483,0.056l0.106-1.131
		l-1.021-0.596l-1.188,0.973v0.481l-1.185-1.021l0.271-0.811l-0.754-0.969l-2.479-0.862l-2.1,0.323l-1.938,1.347l-2.047,0.107
		l-0.323,0.539l-1.076,0.215l-1.347,1.454l-1.562-0.7l-0.217-0.808l-0.861-0.161l-0.055-1.131l-0.755-0.646l-3.931,0.323
		l-0.161-1.616l-0.7-0.858l-0.162-0.756l-0.537-0.697l0.646-1.131l0.161-0.756l-0.811-0.698l-1.075-0.271l1.075-0.538l0.538-0.27
		l-0.699-0.915l-0.697-0.162l-0.377-0.592l0.592-0.434l-0.861-0.646l-0.431-0.916l-0.811-1.615l0.593-0.808l-1.613-0.377
		l-0.971-0.755l0.594-0.433l0.054-1.021l-1.131-0.056l-0.484-0.593l1.188-0.916l0.482-1.077l-0.697-1.185l-1.132-0.484l-1.615-0.322
		l-0.161-0.698l1.237-1.188l0.482-1.075l0.216-2.152l2.208-2.264l2.584-2.369l4.578-1.886l0.377-0.538l-0.322-1.669l0.106-2.047
		l2.369-2.313l2.746-0.916l0.482-0.433l1.399-0.322l0.915-3.932l0.646-3.068l0.217-7.809l-0.056-5.385l0.056-1.992l-0.433-1.616
		l-0.483-0.859l-0.433-1.076l-0.915-0.646l-1.185-1.021l-0.861-1.453l0.433-0.055l0.646,1.291l1.348,0.861l-0.055-0.97l-1.238-1.454
		l-0.216-1.021l-0.593-0.107l-1.346,1.022l0.969,3.5l2.424,1.886l-0.216,0.27l-2.315-1.83l-1.185-3.932l1.397-1.077l-0.97-4.954
		l-2.262-7.377l-3.394-8.347l-3.66-8.077l-2.908-6.785l-3.446-8.292l-1.776-2.747l-0.914-2.477l-1.187-4.039l-2.1-4.687
		l-1.454-1.453l-3.717-8.076l-1.022-2.369l-0.915-1.077l-1.562-1.398l-1.236,0.81l-0.055-0.162l1.186-0.754l-0.646-0.861
		l-0.271-0.538l-1.076,0.699l-0.105-0.161l1.185-0.754v-1.4l-2.369-3.769l-1.992-3.179l-3.282-3.983L483,562.766l-0.323-1.562
		l-3.068-4.199l-2.529-3.555l-3.5-4.47l-2.424-1.831l-1.076-0.755l-0.972-2.207l-4.415-4.632l-3.444-2.585l-2.479-2.479
		l-3.178-1.885l-3.661-1.887l-3.555-1.884l-2.046-0.916l-3.934-0.105l-1.562,0.808l-1.562-0.431l-4.687-1.887l-2.423-0.161
		l-1.777,0.538l-1.077,0.915l-1.396-0.377l-1.188,0.323l-1.021,0.861l-2.584-0.162l-2.64-1.022l-2.586,0.162l-3.393,0.215
		l-3.446,1.776l-4.2-0.377l-3.393-0.592l-1.508,0.809l-4.473-0.106l-0.697,0.431l-3.554-0.969l-2.1-0.271l-0.377-0.432l-0.754,0.7
		l-7.539-0.972l-4.038-0.215l-2.747,0.699l-1.884,1.562l-0.323,1.724l-0.323,0.861l-1.346,0.483l-1.777-0.217l-2.746-0.646
		l-3.931-0.105l-2.908,1.348l-2.154,0.433l-1.723-0.754l-2.208-0.539h-4.039l-5.116-0.915l-2.423-0.217l-2.962,0.322l-3.016,0.271
		l-2.1,1.021l-1.616,1.398l-0.969,1.67L327.54,536l-4.469,0.539l-5.062,1.509l-2.369,0.592l-1.454,2.208l-1.4,2.154l-0.916,1.884
		l-0.377,0.377v1.993l-2.315,0.86l-2.423,0.754l-1.131,1.292l-0.054,1.831h-1.238l-1.239-1.562l-2.477-2.53l-1.077-1.775
		l-2.746-2.53l-5.439-5.276l-4.954-3.983l-4.685-2.962l-3.5-1.562l-2.477-0.754l-0.81,0.754l-7.055-2.369l-6.031-0.321l-3.608-0.81
		h-2.531l-2.262-1.236l-2.584-0.162l-1.723-0.538l-3.5,0.105l-2.1-1.346l-2.208-0.7l-2.369-0.482l-2.154,0.482l-1.131,1.077
		l-5.331-1.131l2.046-19.225l48.948-35.485l33.332-24.179h65.102l0.27-46.312h19.116l-0.217-20.408l-1.613-12.868L260.585,20.875
		h8.553l-1.75,3.693L267,26.707l0.972,1.555l2.722,3.305h12.635V21.069h634.3v170.676h5.055v73.674l7.581,101.084l-16.911,79.506
		l-26.241,83.783l-1.558,9.72l-3.499,1.749l-17.301-3.305v12.209l-9.067,0.27l-9.371,18.739l0.108,4.954h4.631l-0.054,9.154
		l5.6,5.062l-68.438,0.484l-4.739-1.188v0.915h-25.577l-5.438,0.219v27.944h-4.577v4.415h-4.738v4.954h-4.846v4.688h-4.577v4.685
		h-9.37v4.846h-4.687v2.531h-2.423v2.154h-2.425l-0.161,3.604h-2.208v2.154h-2.423v2.639h-2.101v7.107l-1.131,0.86l-0.915,1.509
		v7.593l-4.473,2.746l-0.969,0.323l-3.822,4.736l-2.263,2.641l-1.724,6.462l-1.992,2.854l-4.254,7.811l3.554,7.539l0.108,4.308"/>
	<path id="path2376" fill="none" stroke="#444444" stroke-width="2" d="M591.223,742.679l1.271-0.788l15.275,4.847l6.805-1.361
		l48.984-8.941l16.137-4.083l5.832-5.637l4.232-8.461l0.409-6.211l-0.026-2.218"/>
	<path id="path3365" fill="none" stroke="#000000" stroke-width="2.5" d="M489.088,575.421l0.485,2.8l1.396,1.939l0.539,0.484"/>
	<path id="path5305" fill="none" stroke="#000000" stroke-width="2.5" d="M307.976,598.188l19.644,3.479l17.188-1.842l11.254,12.274
		l7.469,3.686l2.353,6.139l2.148,1.436l9.311-4.604l20.36,12.688l19.746,5.729l7.772,1.229l4.095,5.424l5.628-0.515l2.762,2.864
		l-1.841,9.413l8.799,10.947l11.15,10.742l3.479,8.288l4.398,1.432l5.318,7.775l2.766,7.161l-1.023,7.979l-11.562,6.139
		l-15.855-10.229l-7.162-2.561l-15.449-1.228l-14.32,1.534l-10.334-1.022l-11.458-3.989l-6.037-8.082l-7.673-12.993l3.479-6.956
		l-2.149-3.378l3.683-1.738l-0.921-2.354l4.195-1.843l-0.819-2.862l-2.046,0.512l-1.229-7.161l-2.046-4.81l-0.307-6.55l-2.149-3.784
		l-4.604-1.125l-4.297-2.66l2.865-6.344l-5.32,3.172l-1.33,5.832l-1.841-0.409l-0.103-2.968l-4.297-2.764l-5.525,1.021l-0.205-2.455
		l-8.39-1.534l-2.25,1.738l-5.218-1.229l-0.102-1.433l-6.037-2.047l1.944-2.046l-1.125-2.969l-2.251-0.308l-5.627-8.391
		l-1.944-0.309l-1.842-4.093l-3.376-1.125l-0.205-2.764L307.976,598.188z"/>
	<path id="path6276" fill="none" stroke="#000000" stroke-width="2.5" d="M342.298,729.804l1.938-1.885l0.646-1.992l2.962-2.8
		l4.523-1.831l4.092,0.323l4.2,1.615l3.5-1.077l2.639,0.808l4.469,3.069l0.861-1.508l-0.376-1.938l-12.008-12.654l-7.323-6.246
		l-4.9-3.77l-7.485-6.785l-7.592-5.977l-5.385-3.662l-11.147-11.311l-7.808-8.074l-4.038-1.616l-7.054-5.385l-8.131-5.926
		l-2.208-3.393l-7.27-14.108l-5.439-3.82l-1.885-3.396l-5.492-6.677l-2.854-8.67l-2.639-2.8l-3.5-1.292l-0.431-2.154l-3.877-7.323
		l1.023-1.991l-0.969-2.102l-4.9-3.393l-6.731,2.689l-2.585-1.562l-1.884-1.992l-4.792,2.208l-0.377,6.677l-0.539,2.692l1.185,1.293
		l1.508-0.434l4.846,0.595l2.046,1.347l2.639,5.223l0.969,5.331l2.854,4.039l-0.162,6.246l4.146,7.054l0.538,3.019l4.254,2.801
		l2.585,3.5l2.692,2.854l2.046,4.358l-0.27,5.654l2.908,4.2l-0.969,1.562l0.161,2.746l3.069,2.962l0.054,3.285l1.724,1.562
		l2.423,0.81l2.854,3.339l1.4,3.5l3.662,4.469l-0.593,1.616l5.978,3.661l1.562,1.077l1.346,2.478l-0.431,2.584l1.454,4.473
		l1.615,2.15l0.431,2.316l-0.592,1.83l2.477,1.077l3.985,3.282l2.477,1.238l2.639,0.811l2.423,1.235l1.131,1.131l0.646,2.208
		l1.615,0.646l1.993,0.7l1.777,1.938l2.423,1.615l2.584,2.477l2.046,1.727l2.369,0.377l1.777,2.262l0.7,1.022l2.477-0.756
		l2.854,0.972l1.077,3.77l0.054,3.23l1.4,0.539l2.262-1.887l2.908-3.661L342.298,729.804z"/>
</g>
<g id="Large-area_cities">
	<path id="path2258" fill="#00FF00" stroke="#000000" d="M242.093,522.807l0.165-2.228l2.046-5.218v-4.297l1.637-3.069l24.657,9.515
		l0.103,2.046h0.204v4.399h4.707v-1.943l0.512-1.33l1.023,0.921v-1.532l5.013,2.455l7.878,2.047l9.515,1.94l10.231,0.409
		l-0.511,1.023l3.479,1.228l-1.228-2.046l7.264-1.842l7.06-0.512h19.951l1.637-0.409l4.706-0.104l0.818,1.74v2.558l1.433,1.435
		h1.433l-1.626-1.384l0.108-2.369l0.431-0.434l1.831,1.077l1.507,1.777l-0.646,1.185h3.339v-1.938l0.646-1.131l2.154-1.133v-2.69
		h6.623l1.454-1.131h17.285l6.893,1.453h27.517l1.941,5.335l-4.479-1.131l-6.32,0.578l-3.456,1.532l-7.005-0.898l-7.326,0.971
		l-7.25-0.961l-10.753-1.034l-4.329,2.078l-0.832,2.738l-1.507,0.466l-7.85-0.938l-5.506,1.768l-4.038-1.293l-10.641-1.06
		l-6.954,0.59l-2.854,1.733l-1.683,2.288l-9.322,0.836l-7.278,2.205l-3.862,6.273l-0.162,2.152l-4.738,1.615l-1.508,3.123
		l-3.024-2.45l-10.819-11.179l-10.632-7.416l-5.141-1.794l-0.668,0.623l-6.858-2.266l-12.396-1.207l-3.009-1.282l-7.061-0.549
		L242.093,522.807z"/>
	<path id="path4202" fill="#FF0000" stroke="#000000" d="M278.788,470.045l36.1-26.194l0.42,1.839l-2.046,11.767l-8.799,9.104
		l-2.763,1.436l-0.614,0.921l-1.637,0.716l-3.581,2.864l-4.297,2.047l-4.604,3.172l-3.479,2.762l-2.046-0.921l-1.33-0.307
		l0.105-0.674h0.794v-1.672l0.793-0.769l0.057-1.076l-2.012-2.353l-0.879-0.907L278.788,470.045z"/>
	<path id="path4204" fill="#FF0000" stroke="#000000" d="M309.604,461.238l3.658-3.785l2.046-11.77l-0.329-1.893l32.218-0.051
		l-2.423,8.724h-2.315v7.592l4.631,3.181h2.531v0.969h2.747v2.154l-0.593,0.754l0.162,1.021l0.431,0.646v2.208h-2.262v-2.103h0.431
		v-1.508l-2.692-0.27l-0.048-0.58h-3.614l-0.969,0.634l-7.916-5.277l-1.562-0.215l-1.238-1.293l-2.962,2.154l-3.715,2.208
		l-10.931-1.349L309.604,461.238z"/>
	<path id="path5175" fill="#FF0000" stroke="#000000" d="M352.366,466.306v-2.101h2.046v-1.992h-2.154l-0.215-0.754h1.938v-4.038
		h2.315l0.592,1.938v1.938l1.993-0.754v1.185l1.508-0.27l1.669-1.777h-1.562v-0.696l1.669-0.7l1.292-1.562v-2.369h0.7v-0.859h-3.015
		v-0.972h1.507l-1.023-1.293l0.592-0.535l-0.969-1.831v-5.115h4.146v1.131l0.861,0.484v1.075l-0.646,0.483v7.646l2.154,0.916
		l1.292,0.215l2.531-0.434l1.723-0.431l3.338,1.292h4.792l4.416-1.831l2.154-0.215l2.477-1.293l1.885-1.723l2.1-0.7l0.754,0.808
		l1.185-0.861l3.177,4.634h1.131l0.434,0.539l0.377,1.989h7.27v-1.562l2.262,1.292v2.369h-2.423v1.454l1.188,0.104l0.481,0.485
		v0.538l3.285-0.218v7.218h-2.531v2.528h-2.689l-1.938-0.593h-13.625v-1.938h-2.8v2.047h-0.484v4.737h-20.732v2.263h-9.477v4.521
		l-2.262,0.161v2.104h-0.539l0.108-3.718l2.477-8.293l0.431-1.831l-7.271-0.159v-2.154h2.584v-2.584L352.366,466.306z"/>
	<path id="path5177" fill="#FF0000" stroke="#000000" d="M376.598,443.743h3.554l0.032-5.547h5.46v4.47h2.154v2.531h3.446
		l1.347,0.161v2.046h1.615l1.4,2.047l-1.131,0.915l-2.003,0.668l-0.205-1.26l-1.292,1.185l-1.723-1.777v0.539h-2.046V448.7h-0.485
		v1.454h-1.885v2.423h-3.823v1.615h-1.077v-1.726h-3.339L376.598,443.743L376.598,443.743z"/>
	<path id="path5179" fill="#00FF00" stroke="#000000" d="M483.971,316.284v4.739l-7.216-0.757v-1.021h-4.038v-0.969h-3.877
		l-1.238,2.312l1.399,7.434l-1.185,4.308l-2.315-0.107v-2.585h-2.262v-1.396h-2.423v-2.104l-3.123-1.885h-4.2v-1.938h-9.854
		l-1.615-1.888l-0.858,0.596v0.377l0.215,0.161v0.914h-2.746l-0.593-1.075l-1.292,0.32l-0.593,0.057v-1.888l2.047,0.323l1.292,0.484
		l1.562-1.131l0.915-0.377l-6.729-11.954l-1.938-6.3l-1.724-10.07l-5.923-14.539l-6.192-7.215l-6.139-3.985l-2.479-2.8l1.4-1.454
		l0.915,1.562l1.293-0.592l0.969,2.1l1.349-0.108l0.97-0.862l1.67,0.539l0.323,0.7l3.229-1.346l1.348,0.754h3.394l-0.915-2.262
		l-0.107-1.238l-1.562-1.831l-0.377-0.269l3.177-3.231l2.102-0.377l1.186,1.615l-0.861,1.938l1.349,1.508v2.262l-0.861,0.592
		l0.539,2.154l1.077-0.054l2.262-1.292l1.022,1.508l1.075,0.808l1.614-0.269v1.292h1.993v-1.938h0.431v-1.885l0.538-3.177
		l1.508-3.715l0.861-1.4l0.7-0.162l0.915-2.423l2.047-0.7l0.915,1.077l0.97,0.269l0.215-1.454l1.238,1.615l0.216,0.539v-5.062
		l0.646-1.292l1.831-0.162v-0.861h1.396v-0.916h2.642v2.746l0.646,0.485v3.069h-2.69v4.254h3.444l1.399,1.131l0.809-1.131h3.877
		v2.477l0.811,0.539v2.315h1.773v-1.562h1.077l0.7,1.454h0.969v-5.708h2.37v-1.669h2.907v2.208h1.397v2.585l-0.914,1.4v2.692
		l0.86,1.454v1.4l-5.17,0.323v4.792l5.062-0.216v-2.208h4.521v2.531h7.916v-2.369h1.777v7.108h3.715l0.162,2.262h4.576v-1.616
		l0.97-1.023v-2.208h4.685v-2.369h2.962v0.592h1.615v2.046h7.593v-2.531h-2.423v-1.131h2.479v-3.985h4.47v-0.7h1.615v-1.238h2.047
		l0.377,0.054v1.508l2.1,0.215v-2.315h-1.614v-2.262h2.207l0.271-0.969h-0.861l0.216-1.346l0.972-0.215v-2.1h2.689v3.931
		l-1.075,1.185v2.638l-1.187,3.339l-0.161,1.454v3.015h0.538v1.185l-8.131,4.254h-4.847v2.046h5.762v1.723l0.916-0.215v4.2h2.8
		v10.77h-1.077l-0.859-1.454l0.271-1.077l-2.314-2.423l-2.263,1.077v1.346l1.776,1.831h1.077v3.984h3.178v5.816h-4.848v2.583h-1.291
		l-0.862,1.076h-1.185v-1.396h-5.062v-7.324l-0.484-0.915v-10.77h0.97l-1.397-1.723l1.186-1.938h-3.229v-4.685l-5.331,3.016
		l-2.208,1.292l-1.076,1.562h-3.284v1.346h-4.094l-1.453,1.939l0.754,0.215v2.046h-2.262l2.423,1.454l0.7,0.754l-1.077,1.238v4.308
		h12.009v2.369h4.953v3.554h-1.83v7.107h-1.186v-1.83h-1.507l-0.539-0.539h-1.4v1.992h-1.075v-2.854h-0.86l-0.646-0.858h-1.992
		v-2.693h-7.646v-4.685h-4.522l-1.398-1.023l-7.323,6.354l-6.246,6.3l-0.86,1.831h1.886v2.689h3.016v-1.724h1.4v-1.077h2.152v3.123
		L483.971,316.284z"/>
	<path id="path5181" fill="#00FF00" stroke="#000000" d="M446.924,702.968h11.2v-8.131l4.846-6.192v6.192l1.077,2.154l2.639-2.37
		l2.103-0.054l-4.576-7.219l-4.47-1.346l-3.339-8.397l-2.907,0.159l-0.323,0.756l0.646,0.809h1.396l-0.054,0.592l-6.192,8.562
		l-1.885,12.01L446.924,702.968z"/>
	<path id="path2265" fill="#00FF00" stroke="#000000" d="M627.53,144.778V135.3h5.062v-9.747h-2.423v-2.908h2.8v-4.2l-1.723-3.123
		l-2.479-2.477l-1.51,1.454v5.115h-1.884v1.616h-1.992v-4.9h-2.369v9.047h-2.262v4.469h-1.885v2.8h2.689v2.477h-3.177v-2.208
		l-2.639,0.162v2.8h-4.577V133.2l1.022-0.431v-0.431h1.99v-0.862l0.861-0.861h0.915v-2.369h-2.423v2.638h-2.369v2.154h-1.508v-1.292
		h-0.861v1.292h-2.369v2.639l-0.432-1.562l-1.131-1.131l-1.453,1.454v1.292h-25.363l0.162-4.469l-3.5-2.692l-1.4,0.592l-0.699-0.592
		l-0.159-1.077l-1.562-1.077l-0.97-0.27h-1.292v-0.861h1.292v-2.262h-1.186v-6.246h2.424v-2.854h-2.479v-6.677h4.849v-7.162h2.207
		v-2.692h2.368V92.76h-4.625v-4.469h-2.69V86.03h2.585v-2.531h-2.585V81.13h2.69v-1.938h2.207v2.154h2.585l-0.377-9.423h-1.885
		v2.423h-2.208v-0.969h-2.313V75.8h-1.348v-1.454h-1.397l-0.271-1.723h3.339v-2.854h-1.238v-2.262h-2.366v-1.023h2.366v-6.247h4.634
		v-4.792h2.639v4.792h-2.639v6.247h-2.208v3.069h9.312v4.685h3.396v1.4h-3.607v0.969h2.692v1.346h-1.131v0.916h1.074v4.846h2.369
		v-4.846h2.315v2.262h-1.023v2.746h3.501V81.13h2.314v2.638h2.316v-1.292h2.205v2.208h-2.151v5.87h3.769V88.13h5.924v-2.477h-2.746
		v-1.077h0.861v-1.185h1.777V60.075h42.271v18.578h23.804v9.639h38.179v13.947h9.639v4.954h3.823v-2.423h1.021v2.315h6.841v2.262
		h1.397v-2.477h20.624v7.108h4.738v-2.369h2.313v-2.37h1.133v-2.208h1.131v4.631h4.847l0.017,0.895h2.354v3.628h4.738v9.585h-4.688
		v-4.9h-2.312v-4.523h-9.531v9.208h-2.153v0.377h-7.105v-2.477h-5.009v-2.531h2.367v-12.062h-2.312v1.562l-0.538,0.754l0.431,1.023
		v3.931h-2.639v2.046l-2.046,0.646l-0.011-0.593h-1.229v0.539h-1.292v-2.585h-2.369v5.062h4.954v2.423H720.96v-2.747h4.685v-2.046
		h-7.377v7.054h-4.953v-3.877h2.102v-1.131h-3.123v2.692h-1.077v-2.746h-2.369v4.954h-28.971v9.531h-37.747l0.054,9.424H627.53z"/>
	<path id="path2267" fill="#00FF00" stroke="#000000" d="M784.82,125.931H679.816v9.37h-21.701v10.447h0.646v3.931h1.831v3.608
		h0.754v1.239H660.7l-0.754,4.092l-3.607,0.215v3.016h-14.7v-11.793l-11.146,0.215h-2.962v-5.115h-7.055v-4.631h-6.784l0.054-4.847
		l-18.524,0.054v14.916l-0.377,1.131v2.208h6.785l1.131,0.431h15.188l1.021-0.754h1.67l0.7,0.592l0.754,0.646l1.131,0.539v1.239
		l-0.699-0.7l-1.237-0.162l-1.669-1.185l-1.077,0.862v3.446h4.47v4.846h-4.521v4.954h-4.311l-0.646-0.7v-1.023l0.808-0.592
		l-0.106-0.592l-3.877-1.508l-0.971,0.161l-9.746-5.546h-1.67v1.723h1.562v1.562h-4.362v8.292h2.585v2.746h2.423v2.37h-7.054v-2.423
		h-4.738v2.315h-2.212v16.693h17.396v12.547h18.521v-2.316h11.688v-2.315h2.312v-7.054h-3.016v-0.808h18.578v-5.762l1.992,2.315
		l1.83-0.646h1.186l1.669,1.669h0.808v-2.262h4.738v4.792h7.216l-1.723,1.723l0.431,1.616l1.238-0.323l-0.161-1.077l1.292-1.508
		l1.562,0.27v-0.754h5.274v3.608l4.254,6.946l-0.161,0.754l1.83,2.8l1.831-0.646l1.777,1.238l1.774-1.562l3.284,0.485l1.238,0.969
		l1.347-0.969l1.188,1.4v13.678h10.662v2.692h3.393v-2.585h4.415v-5.384l-6.246-3.985h-8.077v-3.877l-1.562-0.916h6.516v1.831
		l0.7,0.162l0.482-0.431h1.237l1.077,0.539h0.969l1.131,0.916l1.293-0.592v-3.123l0.757-0.754l-0.862-0.916v-2.369h8.508v1.185
		h3.662l0.216,3.662h4.361l3.067,2.746l1.938,4.039h4.577v-2.154h2.208v-4.577h1.077v-1.615h1.453l2.101-2.1v-2.1h1.238v-1.616
		h1.077v-0.969h1.453v-4.146h1.186v-2.208h0.538l-0.215-2.1h-4.523V173.32h37.693L784.82,125.931z"/>
	<g id="g2266" transform="translate(40.533333,-10.133333)">
		<path id="path2206" fill="#FF0000" stroke="#000000" d="M565.996,715.794l-0.7-1.021l-3.339,0.107l-2.423,3.77l-0.431-3.178
			l-1.454,0.055l-0.593,0.699l1.293,1.239v2.689l-2.965,3.877h-0.535v-3.82l1.451-1.615v-1.293l-2.528,2.908v3.393l-1.615-0.646
			l-0.97-1.562l1.83-4.793l0.378-1.508l-2.907,0.216l-1.239-1.831l-0.86,1.022l2.103,3.5l-0.485,1.293l0.271,1.186l-1.188,1.021
			l0.161,1.398l2.37,1.292l-0.162,1.615h0.484l-0.432,1.508l-2.368-0.699l1.773,1.669l-1.614,3.019v4.846l1.776,1.885l0.107,1.188
			l-1.42-0.714l0.28,0.681l1.562,1.53l2.152,6.802l-0.879,0.255l-1.982-6.036l-0.481,0.17l1.929,6.634l-0.735,0.793l-1.729-1.699
			l0.992-1.562l-1.134-2.944l-0.538,1.442l-0.907-2.493l-1.048,0.735l1.076,2.466l-0.198,1.162l1.247,3.259l0.51,1.361l-0.425,0.736
			l-0.745,2.604l-0.825-1.569l-1.649-0.689l-1.454,0.916l-0.807,1.346l-3.717,0.107l-0.699-1.669l-1.238-0.97l-1.992-0.057
			l-6.516-3.177l-1.725,0.592l-3.068-2.207l-0.055-1.077l-1.845-0.06l-3.735-1.676l2.617-4.834h3.822v-1.023l1.562-0.377v-2.208
			l-0.916-0.538l0.86-1.077v-1.938l-1.021-0.484v-1.131h1.186v-2.639h3.179v-0.972h0.97v0.699h0.859v-6.784h4.578l-0.646-1.562
			h-3.985v-1.726h-1.614l1.938-5.009v-2.478h1.348l-0.646-1.938l-0.271-0.915h-0.808l-0.483-1.774h1.076l-0.106-4.899v-49.541h5.009
			l0.377-3.067h2.369v2.368h-1.776v1.022h3.123l0.7-0.861v-3.77l-0.538-0.861v-27.57l0.104-28.001h-4.575v5.815h-1.454v3.068h-1.348
			v2.744H533.1v2.05h-2.642v-4.688h-2.262v-16.101h-4.631v2.478h-3.823v-3.984h-0.754v-5.706h-18.954v8.397h-1.076l-0.483,0.812
			l0.755,0.592v1.938l-1.938,1.131l-1.993,2.369v3.5h4.472l0.321,5.062v9.046h0.7v0.862h-5.548v-1.077h-11.959l-0.754-0.377h-12.385
			l-0.377,0.377h-1.349v2.207l0.218,0.16v2.314h0.913v1.186h0.916v1.187h1.398v2.101l-4.146-0.021l-0.68-1.464l-1.33-2.06
			l-2.352-6.901l-2.102-4.688l-1.453-1.454l-4.738-10.443l-2.461-2.463l-1.039-2.275v-0.862l-4.488-7.1l-4.233-4.908l-0.321-1.562
			l-3.646-5.009l16.729-10.984l4.521-3.178l-4.361-6.302l-2.528-1.67v-1.292l-0.916,0.7l-4.415-4.847l-5.438-5.604l-3.717,3.396
			l-5.812-5.653l-4.632,6.03l-2.153,0.431l-0.646,1.454l0.7,1.292l-0.539,1.131l-0.593,1.131l-2.181,2.185l-1.857,2.504
			c-0.377-0.377-2.424-2.425-2.424-2.425l-2.947-1.749l-9.49-4.819l-3.932-0.107l-1.562,0.811l-1.562-0.434l-4.338-1.743
			l-0.95-0.182l-1.551-4.43v-14.271l-15.67-3.66l18.2-35.218l-24.285-11.737l-2.262-1.292v1.562h-7.271l-0.377-1.992l-0.431-0.539
			h-1.132l-3.179-4.631l-1.185,0.861l-0.668-0.876l1.045-0.848l-1.4-2.049h-1.615v-2.046l-1.347-0.161h-3.446v-2.529h-2.154v-4.472
			l-5.46,0.014l0.055-9.429l3.628,1.661h0.916l0.808-0.538l0.7-4.416l-1.13-0.269l-0.485,1.13l-4.422,0.012l0.051-8.831h2.917
			v-2.812h5.277l0.592-2.854h-3.608l0.162-3.932h2.423v-2.639h2.101l1.669-7.107h6.029v0.861h2.479l0.536-1.67l-1.397,0.055
			l-0.153-19.701l2.522-1.515l1.614-1.132l10.502-1.509l5.385,1.938l2.584-3.716v-4.632l2.585-10.23l8.022,3.339l1.398,2.692
			l1.83-0.161l2.37-2.854l1.992-0.215l2.262,2.102l6.946-2.314l-1.615-3.284l0.646-1.397l-2.046-3.984l0.593-2.801l5.387,1.938
			l16.746-14.27l6.945,4.899h38.609v2.367l1.886,1.077l1.938-1.185l-1.022-1.132v-1.133h4.688v4.523l2.367,1.398h2.907v1.725h-2.8
			v4.899h-1.347l-1.75,1.75v4.44h2.826v2.102h-1.776v2.313h-2.691l-1.076,1.454l2.424,3.554h2.801l0.646-1.613v-3.179h2.048v-2.473
			h1.614V370.3h3.068v1.612h3.123v2.587h-2.423l0.215,0.859l1.509,0.538v2.37l-1.021,0.754l6.246,1.021v-1.725h1.723v2.692
			l10.285,2.639v-2.424h13.354v-1.938h14.971v-5.008h6.567v10.18h6.84v-2.479l1.508,0.216h9.264l8.348-0.321v8.775h-9.908v9.962
			h-4.038v1.508h-0.754v6.246l-0.7,0.7v10.985l-13.247,0.215h-15.131l-9.263-0.161l1.347,4.415l-1.886,2.262v0.434h-0.808v1.613
			l-0.538,0.811h-11.793l0.159,3.822h-4.47v3.393l5.17,1.293l1.992,15.023l1.187,3.122l0.16,0.971h-1.293v2.423h2.479l2.585,7.377
			l1.076,3.662l-1.021,0.808l-6.354-1.021l-1.347,0.216l0.432,0.915l-0.971,2.154l2.207-0.539l5.548,5.547l0.054-1.4l1.886-1.723
			v-1.023l0.862-0.646l-0.862-2.907l1.887-1.4l1.614,0.378l3.933-2.151l3.123-3.019l2.152-1.83l1.938-0.16l1.454,1.293l1.021,0.054
			l1.022-1.938l0.808-2.689l1.132-0.054l1.885,1.669l3.229,0.754l0.184-0.683l1.325-0.021l1.938,1.938h3.068l1.725-0.754
			l1.455,0.377l0.592,0.916v1.238h1.83l7.916,18.2l3.661,3.932l1.509-1.397l-1.348-1.349v-0.754l10.229-1.454l-0.754-2.312v-2.746
			h1.398v-0.646h3.123v-1.669h-0.915v-0.916l0.538-0.858v-4.096l1.131-1.612l3.823,1.021v0.434h3.931l0.916,0.915l1.51-1.188
			l1.186,0.054l1.615-1.938l2.045-0.7v1.724h7.539v2.315l2.154,2.8l-1.51,1.4h-1.453l0.699,0.808l-0.861,0.754l0.484,0.972
			l-0.322,0.916l1.562,1.612v1.292h1.076l0.538,1.831h1.938l-0.432,2.315l2.746-1.077v-0.915l1.131-0.7l2.047,0.7l-1.131,1.238
			l0.808,1.831l-1.347,1.131l0.433,1.077l-2.53,3.123h-1.562v0.377h-0.593v1.021h-0.539v8.077h12.387v0.699l-3.068,2.69v10.395
			h0.593v1.292h-1.075v2.423l-1.777,4.2l-0.105,1.831h-0.377l-1.509-0.7l-12.763,0.862l0.107,29.347v1.562l-7.485-1.131v1.023
			h-0.754l-0.97-1.4h-2.047l-0.377,0.646l-1.992-0.973l-0.809,0.7h-3.932l-0.484-0.538l-1.131,0.377h-6.085l0.81,16.963h-9.426
			v24.069l1.239,1.131v5.226h2.423v-3.123h0.271v-3.717h0.81l0.015-0.479h1.654v0.479l5.387-0.056v3.179l2.046,0.16v0.539
			l-2.584,0.434v0.696h2.368l0.322,0.646l0.538,0.808l0.106,4.688l-0.915,2.208l0.271,2.262l-3.716,0.054h-3.445l-5.275-0.16v3.983
			h-15.455v24.286l-0.271,14.754l-4.846,2.531v2.312h2.101v5.226h-5.225v-7.434L538,655.752v25.311l0.216,13.569h5.33l0.916,0.536
			l0.321,0.161h1.67v-0.697l10.394-0.484v-3.555h4.094l-0.971,3.229l11.254-0.216l3.933,4.688l1.455-5.01l1.613-2.801l-0.106-2.854
			l-1.991-10.446l1.021-2.854l0.7,2.908l0.538,0.538v3.177l1.187,4.095v5.813l-1.67,5.277l-1.186,4.039l3.661,4.846l-10.607,9.154
			L565.996,715.794z"/>
		<path id="path2208" fill="#00FF00" stroke="#000000" d="M566.696,717.355l2.312,3.393l-4.686,2.208l1.186,3.342l-0.159,0.269
			l-1.615-0.646l-1.615,3.556l0.861,0.592l-0.377,1.938l1.723,4.093l-6.354,2.801l-1.726-0.055l0.699-1.076l0.106-1.67l-1.237-0.271
			l0.321-0.538l-0.755-1.562l-2.208,1.292l1.239,1.938l-0.271,2.531l0.646,0.055l1.454,3.878l-1.725,1.132l-1.349-3.984
			l-0.698-2.908l-1.132-1.774v-4.472l0.699-1.612l3.124-2.265h-2.101l2.262-1.885l3.339-3.339l1.454-2.102L566.696,717.355z"/>
	</g>
	<path id="path3182" fill="#FF0000" stroke="#000000" d="M493.564,533.181l-0.709,0.543l-4.918-5.36L483,523.278l-3.716,3.393
		l-5.815-5.651l-4.631,6.028l-2.153,0.434l-0.646,1.452l0.7,1.295l-1.132,2.261l-2.183,2.182l-1.854,2.504l3.584,2.729l4.331,4.543
		l0.97,2.207l3.5,2.585l5.513,7.294l3.279-2.269l17.917-11.975l-4.197-6.062l-2.695-1.907L493.564,533.181z"/>
	<path id="path3184" fill="#FF0000" stroke="#000000" d="M498.295,557.686l0.699,1.511l5.547-2.962l3.338,3.555l-0.377-4.47
		l4.632-0.538l1.884-0.162l1.727-1.831l0.7-2.207l2.423,1.992l0.808-0.162l1.4,1.077l1.885-2.642l1.454,0.973l-0.754,1.185
		l0.431,0.646l-1.131,2.15l-1.454,1.023l-0.859,1.398l1.075,1.237l-0.482,0.646l2.262,1.507l1.508-0.592l1.886,2.423l-1.613,0.916
		l6.462,3.821l3.877-7.217l-0.055-2.801l-1.726,1.023v0.858h-3.067l2.152-1.723l-0.97-0.916v-1.938h1.131l0.539-2.584l-4.523-0.859
		l3.396-6.838l3.661,0.537h1.831v-3.068l1.346-1.292l-1.397-0.485l-1.399,0.862l-2.263-2.208h2.152l0.915-3.177l-0.481-0.754
		l1.67-1.938h1.508l0.915-3.339l-2.962,1.508l-5.115,1.669l-0.97,1.131l-0.755-0.537l-5.547,3.822v1.131l-1.562,0.271v0.859
		l-2.691,2.103l-0.699-1.023l-7.594,5.116l0.271,0.969l0.754,0.219l0.808,1.346l-1.99,1.239l1.507,2.207l-0.97,1.613l-2.962,0.377
		l-1.509-2.424l-7.699,4.9l-0.482-0.646L498.295,557.686z"/>
	<path id="path3186" fill="#FF0000" stroke="#000000" d="M555.104,492.26v3.339h-5.008v1.023h-5.547v-1.023h-1.885v1.134h-2.046
		v1.021h-1.238v-3.016l-2.531,1.235v3.557h3.771v1.67h-2.154v-0.811h-0.698v0.7h-1.021v2.692h-1.347l-0.7-0.593l-0.434,0.593h-4.254
		v-7.862l-2.689-1.454h4.897v-1.346l1.238-0.646l1.077,0.323l0.646,0.861l2.53-2.046l1.615-0.323l2.101-1.615l0.434,1.077h0.916
		v-0.485h2.527v1.673h6.569l1.131,0.377L555.104,492.26z"/>
	<path id="path3188" fill="#FF0000" stroke="#000000" d="M533.296,506.691v1.235h4.415l0.593,1.454l1.238,1.885l-0.054,1.188
		l-1.885,2.312h-0.7v-2.262h-3.339l-0.218,0.754l-0.054,2.802h-11.847l-0.646,2.314l-1.938-3.393l-1.615-1.777l-0.161-1.562
		l-2.101-2.905l0.808-0.485l-1.077-1.774l-0.858-0.218l-0.757-1.774l-1.075,0.055l-0.217-1.993l-0.481-1.131h0.858v-1.992h-2.367
		v-4.738h2.64v-2.639h4.737l1.076,1.238l1.453-1.615l0.378-4.416h1.614v3.339l1.886,1.938l1.132-1.292l-0.539-0.646v-7.646h1.562
		l-1.021-1.831l2.1-0.434l0.754-0.431h1.292l0.862,0.809v1.776l-0.862,1.724v4.472l-2.478,2.423l0.809,0.7v2.151l0.266,0.247
		l2.534,1.368v7.862l-0.377,0.592v2.315L533.296,506.691L533.296,506.691z"/>
	<path id="path3190" fill="#FF0000" stroke="#000000" d="M494.688,368.895l6.517,7.646l4.522-4.093l1.075,1.346l8.831-8.238
		l-0.808-0.97l1.453-1.562l-1.453-1.669l-1.238,1.346l-5.924-6.784l-6.73,7.054l-0.482-0.377l-2.8,2.531l0.377,0.754
		L494.688,368.895z"/>
	<path id="path3204" fill="#FF0000" stroke="#000000" d="M554.153,460.478l-1.13-3.795l-2.496-7.124h-2.479v-2.423h1.293
		l-0.162-0.97l-1.202-3.27l-1.975-14.88l-5.17-1.293v-3.392h4.47l-0.159-3.823h11.793l0.537-0.808v-1.616h0.81l0.115-0.568
		l1.77-2.124l-1.346-4.412l8.305,0.145l16.134,0.016l6.312,9.371v11.254l-2.104,2.479l-1.83-0.915l-5.547,6.785l0.811,0.754
		l-1.562,1.723l1.077,1.348l-5.708,6.518l-1.131,0.054l-0.81,2.692l-1.021,1.938l-1.021-0.054l-1.453-1.293l-1.938,0.162
		l-2.825,2.479l-2.45,2.368l-3.933,2.153l-1.616-0.377l-1.797,1.336L554.153,460.478z"/>
	<path id="path3206" fill="#FF0000" stroke="#000000" d="M633.453,457.528v-1.727l-2.046,0.7l-1.615,1.938l-1.185-0.057
		l-1.511,1.188l-0.916-0.915h-3.931v-0.434l-3.823-1.021l-1.131,1.615v4.093l-0.538,0.859v0.916h0.915v1.67h-3.123v0.646h-1.397
		v2.746l0.754,2.314l-10.23,1.452v0.755l1.346,1.348l-1.508,1.397l-3.662-3.932l-7.914-18.2h-1.83v-1.236l-0.594-0.916l-1.453-0.379
		l-1.725,0.757h-3.068l-1.938-1.938l-1.325,0.021l-0.183,0.68l-3.23-0.754l-1.901-1.668l5.728-6.52l-1.077-1.347l1.562-1.723
		l-0.811-0.754l5.548-6.785l1.83,0.915l2.103-2.479v-11.254l-6.257-9.371l13.146-0.214v-10.983l0.7-0.699v-6.246h0.754v-1.508h4.038
		v-9.963h9.908v9.733h-2.57v3.771h-1.357l-1.646,1.644v14.879l2.296,0.709l0.312,2.323l2.296,0.256l2.324,2.521l0.227,2.892
		l3.259,1.53v0.425h1.478v0.538h1.303v-0.481h1.049v-0.879l1.077,0.709l2.606-0.766l0.366,1.645l-1.612,0.736l0.426,3.118
		l2.408,1.842l-0.426,1.247h0.965l1.896,1.729l-0.026,2.068h0.735l5.188,4.847l3.09-0.341l1.273,1.222l-1.246,3.061l0.396,2.692
		l1.219,1.645l-0.538,0.991l1.813,1.812l0.905,1.845l0.938,7.025L633.453,457.528z"/>
	<path id="path3208" fill="#FF0000" stroke="#000000" d="M535.771,599.58v-1.077h-11.953l-0.754-0.377h-12.388l-0.377,0.377h-1.347
		v2.207l0.216,0.162v2.312h0.915v1.188H511v1.185h1.396v2.104l-4.146-0.022l3.322,7.972l1.956-1.162l1.562,2.801h20.896v-8.725h2.1
		v-0.972h-0.808v-1.723h-1.831v-2.424l0.809-0.161v-0.969l-0.593-0.596L535.771,599.58z"/>
	<path id="path3210" fill="#FF0000" stroke="#000000" d="M519.388,633.438l-7.812-17.848l1.961-1.146l1.562,2.801h20.896
		l0.161,4.685l-0.323,9.531h-0.754v4.577h-8.562v-2.747h-3.393l-0.262-0.372l-1.029,0.566l-0.312-0.555l-0.908,0.627l-0.402-0.642
		L519.388,633.438z"/>
	<path id="path3212" fill="#FF0000" stroke="#000000" d="M528.744,636.035h-2.233v-2.747h-3.393l-0.263-0.372l-1.028,0.566
		l-0.313-0.555l-0.908,0.627l-0.401-0.642l-0.813,0.521l4.065,11.978l1.04,4.198l1.021-0.144l6.719-2.749l-0.312-5.187
		L528.744,636.035z"/>
	<path id="path3214" fill="#FF0000" stroke="#000000" d="M535.826,631.458h-0.754v4.577h-6.084l2.93,5.498l0.312,5.187l-6.72,2.749
		l-1.021,0.145l0.025,0.878l-1.527,1.162l1.272,3.77l2.185,1.701l0.171-0.086l-2.126-1.729l-1.247-3.6l1.444-1.161l0.65,0.028
		l0.312,1.104l0.68,0.684l0.48,1.304l-0.767,0.255l-1.077-1.332l-0.227-0.595l-0.198,0.028l0.198,0.68l1.162,1.672l0.766,0.567
		l0.938,0.34l0.025,0.964l0.684,0.453l-0.06,1.049l0.651,1.105l-0.512,3.061l-0.058,12.385h2.438l1.133-1.133v-1.928h1.077
		l0.794,0.652l1.188,1.02h2.553v-7.085h1.273l-2.947-17.854l1.646-0.766v-1.445h11.619v-0.936l-2.607-2.182v-1.899h3.288v-4.874
		h-4.677V622.01h-8.984L535.826,631.458z"/>
	<path id="path3216" fill="#FF0000" stroke="#000000" d="M568.729,573.086h-4.632v2.479h-3.82v-3.985h-0.757v-5.707h-18.955v8.4
		h-1.074l-0.484,0.808l0.754,0.592v1.938l-1.938,1.131l-1.993,2.369v3.5h4.47l0.313,4.918h0.548v1.559l0.564,0.595l0.853-1.812
		l2.721-0.425l2.211,0.935l0.283-0.595h1.134v1.729h1.417v-0.648h4.024v2.806l-0.598,0.821l0.481,0.737v1.697l-0.708,0.709
		l0.906,0.963h4.394v0.967h-0.794v1.729l1.134,0.793h3.826l1.39-1.104v-1.19h1.699v-1.219h2.637L568.729,573.086z"/>
	<path id="path3218" fill="#FF0000" stroke="#000000" d="M549.802,635.865h-4.677v-13.859h-2.238l-1.475-1.502h3.77v-2.806h1.418
		v-0.709h2.664l0.906,0.794l0.312-0.34v-0.482h4.054v4.138l-0.256,0.256v1.247l0.198,0.283v10.854L549.802,635.865z"/>
	<path id="path3220" fill="#FF0000" stroke="#000000" d="M554.47,622.873l-0.188-0.271v-1.244l0.256-0.259v-4.138h-4.056v0.482
		l-0.312,0.34l-0.906-0.794h-2.664v0.709h-1.418v2.806h-3.77l1.444,1.502h-6.719l-0.15-4.9v-8.584h2.101h0.973v-0.57h1.221v8.104
		h0.511v1.104h1.928l0.143-1.189l0.512,1.021h1.843l0.197-1.928l-0.511-2.691l0.565-0.425v-2.016l-0.851-0.365l0.766-0.794v-0.797
		h-3.458l1.021-1.073v-3.373l-1.248-0.821v-2.154l0.479-0.734v-0.312h-0.793v-0.648h3.771l0.48-1.222l0.736,0.198l1.896-0.596
		v-1.048h1.477l1.927,1.16l0.852-0.709l1.021,0.991l0.905,0.963h4.395v0.967h-0.794v1.729l1.134,0.793h3.826l1.389-1.104v-1.19h1.7
		v-1.219h5.045v4.96l-2.211,1.247v2.409l1.332-0.513v1.445h-6.403v2.125h-4.763v1.389h0.963v1.332h3.807v4.79l-2.559,2.466
		l-0.709,0.145v-0.879h-1.273v2.551h-3.798L554.47,622.873z"/>
	<path id="path3222" fill="#FF0000" stroke="#000000" d="M573.412,640.935h5.008l0.377-3.066h2.37v2.37h-1.777v1.021h3.123l0.7-0.86
		v-3.771l-0.538-0.861v-27.729l-18.812,0.086l0.11,21.562l6.963-2.585v9.208h2.531L573.412,640.935z"/>
	<path id="path3224" fill="#FF0000" stroke="#000000" d="M570.936,627.149l-6.963,2.528l-9.494,4.062l-4.677,2.296v4.704h-3.288
		v1.896l2.607,2.185v0.936h-11.619v1.445l-1.645,0.766l2.945,17.854h-1.273v7.085h-2.553l-1.981-1.672h-1.077v1.928l-1.133,1.133
		l-2.438-0.104l-1.244,6.592h17.716l9.803,10.017l5.033,5.034h2.345v-2.504l1.021-0.161v-0.916h-0.646v-1.562h1.453v-1.076h-0.916
		v-6.68h1.186v-1.612h-1.292v-2.208h4.254v-0.538h4.738v3.715h1.614l0.056-45.986h-2.531V627.149L570.936,627.149z"/>
	<path id="path3226" fill="#FF0000" stroke="#000000" d="M563.02,692.252h-0.646v-1.562h1.454v-1.077h-0.916v-6.68h1.185v-1.612
		h-1.292v-2.208h4.254v-0.538h4.738v3.715l1.615-0.001l0.107,13.086h-1.076l0.481,1.777h0.81l0.916,2.854h-1.349l-1.396-1.536
		h-1.077v1.161h-2.724l1.221-1.644v-1.36l-1.332-1.417l0.964-1.104l-2.636-1.222h-2.185v-0.68L563.02,692.252z"/>
	<path id="path3228" fill="#FF0000" stroke="#000000" d="M559.917,734.08l2.618-4.834h3.822v-1.023l1.562-0.377v-2.208l-0.915-0.538
		l0.861-1.074v-1.938l-1.023-0.484v-1.131h1.188v-2.639h3.178v-0.969h0.969l0.131,0.696h0.73v-6.781h4.578l-0.646-1.562h-3.984
		v-1.724h-1.613l1.938-5.008l0.105-2.479l-1.502-1.536h-1.077v1.161h-2.722v6.32h-1.529l-1.221-1.898l-1.672-0.085l-0.453,0.623
		H560.8l0.853-1.049l-0.513-0.708l-1.562,1.91l-1.348,0.104l-0.972-0.161l-0.215,1.399l2.1,2.315l0.916,0.159l2.153,1.238
		l-1.346,0.861v2.152l1.076,1.671l-1.022,0.32h-0.754l-1.615,2.369l-1.185,0.162l0.431,1.131l-1.399,1.615l-2.69-1.4l-0.81,2.047
		l-2.047-0.48l-1.294-1.669l-1.286,1.086l-0.879-0.709l-0.057-1.561l1.672-1.844l-1.445-3.854l-4.393-2.239l0.396-0.853h-1.19
		l0.454-3.062l-0.539-1.162l-1.049-0.057l-0.736-0.566h-0.822l-2.295-2.183l-1.418,1.417l-1.502,0.197l0.766,3.543l0.06,3.031
		h-2.808l-1.475,1.021h-1.219l-0.992-1.475l-1.332-0.853l1.559-1.87l-0.28-0.964l0.905-0.027l1.614-2.041l2.919-0.396l-0.396-2.239
		h-1.19v-1.048h1.19l0.936-0.992l0.341-0.624l2.664-0.396l0.341-1.929l0.82-2.041l1.392,1.247v0.683l-0.652,1.075l-0.879,0.965
		l-0.902,0.241l-0.457,1.74l1.646,1.247h0.82l0.937,0.878h1.53l0.367,1.051l0.82-0.171l0.396-1.39l-0.113-2.126l-0.564-1.842
		l0.143-1.305l-0.596-3.884l-0.853,0.768h-1.587v-0.396h-1.417v-1.645l2.295-2.154v-1.699l-0.595-0.367h-4.194l-0.794-0.428
		l-1.134,1.275h-2.067l-1.529,7.426h-8.785v11.422l-8.475,1.36l0.271,1.978l2.258,5.264l0.308,3.023l1.152,3.401l4.188-0.104
		l2.222,2.792l0.969,0.436l2.547-1.878l4.75-1.871l2.763,0.189l3.031,2.656l2.006,0.657l2.28-1.486l2.691,1.007l3.312,4.103
		l1.492,2.509l3.319,0.479l2.103,0.809L559.917,734.08z"/>
	<path id="path3230" fill="#FF0000" stroke="#000000" d="M542.203,704.389c-0.114-0.006-0.961-0.052-0.961-0.052l-0.736-0.565
		h-0.822l-2.295-2.184l-1.418,1.417l-1.479,0.195l0.744,3.546l0.058,3.032h-2.806l-1.477,1.021h-1.219l-0.992-1.474l-1.332-0.854
		l1.562-1.87l-0.283-0.964l0.907-0.025l1.61-2.038l2.921-0.399l-0.396-2.239h-1.19v-1.048h1.19l0.956-1.027l0.318-0.587l2.515-0.373
		l0.464-1.802l0.849-2.188l1.392,1.247v0.681l-0.652,1.076l-0.879,0.964l-0.896,0.24l-0.464,1.744l1.646,1.247h0.819l0.938,0.878
		h1.53l0.369,1.049l0.818-0.17l0.396-1.392l-0.113-2.125l-0.565-1.843l0.144-1.304l-0.596-3.883l-0.853,0.766h-1.587v-0.396h-1.417
		v-1.646l2.295-2.154v-1.697l0.661-0.531l8.681-0.015l4.143,4.229l-1.2,1.483l-3.416,0.521l2.236,2.062l2.597,0.789l1.188-3.451
		l3.558,3.557h2.343v-2.504l1.021-0.161l0.027-0.917l1.096-0.044v0.68h2.183l2.636,1.222l-0.964,1.104l1.332,1.417v1.36
		l-1.219,1.644v6.32h-1.529l-1.219-1.898l-1.674-0.085l-0.453,0.623h-2.438l0.854-1.049l-0.514-0.708l-1.562,1.91l-1.489,0.084
		l-0.628-0.396l0.498-1.023l1.342-0.626l0.836,0.104v-1.432h-3.014l-5.674-4.802l-2.777-2.808l-1.36,0.769l-0.681,0.733l-1.53,0.085
		L544,696.374l-0.369,0.936l0.369,0.991l0.198,1.275l1.047,0.906l-0.367,0.88l-0.651,0.11l-0.396,1.758l-0.708,0.88L542.203,704.389
		z"/>
	<path id="path3232" fill="#FF0000" stroke="#000000" d="M551.75,696.914l5.369,4.543h3.014v1.432l-0.836-0.104l-1.342,0.626
		l-0.699,1.3l-0.213,1.381l2.1,2.315l0.916,0.162l2.153,1.235l-1.346,0.861v2.154l1.077,1.669l-1.023,0.321h-0.754l-1.615,2.368
		l-1.185,0.162l0.431,1.131l-1.4,1.615l-2.689-1.399l-0.811,2.049l-2.045-0.485l-1.293-1.669l-1.287,1.086l-0.879-0.709
		l-0.057-1.559l1.672-1.846l-1.445-3.854l-4.393-2.239l0.396-0.851h-1.19l0.454-3.062l-0.707-1.171l0.99-0.273l0.746-1.049
		l1.72,0.906l5.017-4.762L551.75,696.914z"/>
	<path id="path3234" fill="#FF0000" stroke="#000000" d="M544.844,680.808l5.604,5.729l-8.573,0.124l-0.637,0.512l-0.619-0.349
		h-4.194l-0.794-0.426l-1.134,1.272h-2.068l-1.53,7.426h-8.783v11.425l-8.602,1.256l-1.971-1.196l-0.656-2.353l1.112-1.63
		l-0.938-1.254l-2.212-0.64l1.164-2.729l0.347-2.438l4.791-4.631l4.78-2.179l-0.081-3.236l2.353-2.983l5.227-1.726L544.844,680.808z
		"/>
	<path id="path2235" fill="#FF0000" stroke="#000000" d="M618.914,667.644l-0.538-0.538l-0.7-2.905l-0.994,3.007l1.963,10.294
		l0.108,2.854l-1.615,2.803l-1.454,5.008l-3.932-4.688l-11.254,0.219l0.97-3.23h-4.093v3.554l-10.393,0.484v0.7h-1.671l-1.237-1.562
		v-4.308l0.86-1.508v-18.255l1.348-5.923v-5.765h0.104l-0.018-4.348l1.472-0.771l0.271-14.916h13.086l0.054,1.238l-2.262,2.047
		l0.377,0.7h4.093l-0.377-1.131l0.593-0.485h2.314v1.077h0.377v1.131h-0.646v6.304h3.396v0.913h3.769l1.077,13.841h14.646
		l-0.434,4.521h-1.991l-1.236,3.23h-1.077l-0.754,1.236v2.642l0.431,1.346h-2.478l-1.509,1.022L618.914,667.644z"/>
	<path id="path2237" fill="#FF0000" stroke="#000000" d="M638.3,618.104v3.557l0.403,0.403h1.266l0.434-0.676h1.451l0.596,2.154
		h1.021l-2.15,2.315l-0.539-2.265l-1.562,0.057l-0.215,4.093h0.215l-0.215,3.229h-11.31v3.771l1.775,0.593v2.907h-0.539
		l-0.646-2.262h-4.31v2.424h-2.208v0.915h-3.716v3.554h-2.208v-1.507h-0.86v-0.97h-1.132v-0.7l-0.97-0.057h-3.769v-0.915h-3.396
		v-6.301h0.646v-1.131h-0.377v-1.077h-2.314l-0.593,0.485l0.377,1.131h-4.093l-0.377-0.7l2.259-2.125l-0.054-1.16h-1.57
		l-0.283-2.755h1.188l-0.681-3.372l4.195-0.681l-0.597-3.771l4.508-0.143v-2.749h-4.961l0.453,2.806h-5.412v-2.235h1.134v-4.509
		h3.911v-2.552h4.9v-0.733h3.117v1.244h0.709v1.785h1.161V615l5.641-2.041l1.646-0.17l-0.794-6.887h-2.21l-0.369-1.898h4.562
		l1.049,0.85l0.795,6.012l1.897-0.482l2.834,1.502h1.36v-1.417l3.744,1.44l-0.754,2.8l1.562,0.054l0.97-3.016l0.971,0.105
		l-1.075,2.961l2.8,0.162l0.646-0.97h1.187v1.454H638.4v1.185h0.646v0.538L638.3,618.104z"/>
	<path id="path2243" fill="#FF0000" stroke="#000000" d="M638.771,438.492l-1.257-1.271l-3.09,0.34l-5.186-4.846h-0.737l0.028-2.066
		l-1.898-1.729h-0.964l0.425-1.247l-2.405-1.842l-0.429-3.118l1.615-0.736l-0.368-1.645l-2.605,0.766l-1.076-0.709v-4.375
		l-2.396-0.916v-1.397l-1.185-0.753l-1.508-0.271l-0.271-0.431l1.187-0.754l0.81-0.216l0.43-1.776v-2.37l-0.592-0.538l1.187-0.915
		l-0.595-2.639l1.562-2.642v-1.938l1.021-1.293h0.756v5.762h2.102v-2.477l11.847,0.431v-9.854h4.415v19.386h1.562v0.915l1.078,0.162
		l0.697,0.915v0.593l-1.453-0.7v1.938l2.153,0.969l0.915,0.377v1.131l1.725,0.754l-0.699,1.727l0.809,1.346l2.531,0.916l1.346,0.104
		v1.992l-2.313,2.801h-0.595v-0.809h-0.969l-1.023,1.454l-0.969,1.293v3.604l-1.347,1.134l1.508,1.131h1.238l0.808,1.615
		l-0.808,0.104l-0.538,0.97l-1.508-0.104l-1.023,1.131l-1.076-0.539L638.771,438.492z"/>
	<path id="path2245" fill="#00FF00" stroke="#000000" d="M649.699,473.756l1.094-1.204l-2.047-0.7l-1.131,0.7v0.915l-2.746,1.077
		l0.431-2.315h-1.938l-0.538-1.828h-1.077v-1.292l-1.562-1.615l0.32-0.916l-0.482-0.969l0.859-0.757l-0.697-0.808h1.451l1.51-1.397
		l-2.153-2.803v-2.131l1.287-0.199l-0.938-7.025l-0.904-1.844l-1.813-1.812l0.538-0.991l-1.219-1.645l-0.396-2.692l1.281-3.03
		l2.812-1.136l1.074,0.539l1.023-1.131l1.508,0.105l0.538-0.971l0.808-0.104l-0.808-1.615h-1.238l-1.508-1.131l1.347-1.131v-3.607
		l1.992-2.747h0.971v0.811h0.594l2.312-2.803v-1.991l-1.346-0.105l-2.531-0.916l-0.808-1.346l0.699-1.727l-1.726-0.754v-1.131
		l-3.067-1.346v-1.938l1.453,0.7v-0.593l-0.699-0.915l-1.076-0.162v-0.915h-1.562v-0.938h4.134v4.96h8.104l-0.312,1.189l-1.305,1.53
		l0.652,0.879v1.672l0.68,1.134l0.539,0.596l0.852,0.197v1.077l1.273,1.53l-0.595,0.879l-1.077-0.767v-0.597l-0.737,0.145
		l-0.563,2.492l-1.36,2.185l-0.255,0.991l-1.049,0.454l-0.453,1.272l1.273,0.793v2.069h-0.623v1.587l0.623,1.049h0.735v-1.021h1.899
		v1.074h11.677l5.555,3.032h1.785v0.992l6.66-0.227v3.712h1.559v-0.598h1.19v1.275h7.026v-0.51h1.589l-0.964-1.392l1.273-2.577
		h-1.757l-1.306-2.894V435.6l-1.021-0.937l-0.227-0.907l-0.652-0.708l-0.113-0.735l-0.396-1.221l-0.907-1.896h0.794v-2.638h2.408
		v3.57l0.145,1.417v2.692l1.188,1.699l0.565,1.135l-0.565,0.709v0.708h4.279l-1.246,2.098v1.104l1.981,2.236v1.247l2.467,2.126
		l-0.027-0.904l-0.624-0.709l0.681-0.736l0.651-0.453l0.086-1.503l0.538-1.927h1.757v0.879l-0.905,2.04l-0.369,2.521l-0.143,2.186
		l1.758-0.369l0.085-1.189h-0.596v-1.758h0.709v-1.559h-0.396l1.188-1.7l-0.682-0.938v-1.896l2.125,0.793v-1.19h1.05v1.417h1.929
		l1.104,0.539v1.93l-1.359-0.708v10.345h0.284v4.421h-2.979v1.644h-2.125l-1.021,0.967v1.304l-1.529-1.134h-1.7l-0.992,0.623v0.196
		h1.813v1.53h2.721v1.983h-1.672v-0.878h-1.274v5.044h-1.246v1.049H693.4v-1.417h-1.222v-1.561h-7.596v-0.937l4.252-0.113
		l-0.171-2.919h-1.758l-0.367,0.793l-1.049-1.048h-1.135l-1.417,0.963l-0.682-0.563h-1.53v2.859h-1.843v2.637h-2.323l-7.026,2.238
		v2.015l1.358,2.381v1.104l0.48,0.566v1.104l-0.65,0.482h-2.382l-3.174-0.822h-1.189l-3.628-4.138l-1.076,0.907L649.699,473.756z"/>
	<g id="g2259" transform="translate(40.533333,-10.133333)">
		<path id="path2242" fill="#00FF00" stroke="#000000" d="M598.666,638.399l-0.199,2.707h-11.309v3.77l1.777,0.596v2.904h-0.539
			l1.442,5.586h1.275l-1.87,4.648l-0.964,4.875l-0.644,4.653h-1.989l-1.238,3.229h-1.077l-0.754,1.239v2.638l0.432,1.35h-2.478
			l-1.508,1.021l-0.437,0.108l-0.213,3.188l1.186,4.133v5.814l-2.854,9.316l3.661,4.846l-10.607,9.154l0.553,0.434l7.11-2.068
			l8.36-4.337l0.539,0.964l-6.207,3.316l0.34,1.218l1.39,0.028l4.934-2.664l0.453,0.737l-1.416,1.672l-1.137-0.51l-3.483,1.672
			l-0.538,0.312l1.955,6.235h0.68v-3.202h0.879v4.308h1.19v-4.336h0.595v3.432h0.652v-3.517h0.936v4.934l-4.336,2.551l0.027,3.43
			l4.562,3.602v-1.53l-3.345-2.692v-0.396l3.741-2.126l-0.06,3.854l1.7,0.652h2.126v-4.563h1.247v3.854h2.494v1.332l-1.672,1.502
			h-3.854l-1.162,1.162l0.145,0.396l1.049,1.275h3.062v2.268h6.18v-2.806l-5.188,0.085l0.257-1.36h4.446l-2.21-6.887l1.36-1.162
			l-1.446-1.021l-1.587-0.396l-1.02-1.247h-1.477l-0.111-1.442l-2.015-0.967l-1.644-1.98l-0.822-2.211h1.36v1.134l1.644,1.417
			v-1.247h1.561v2.013l1.332,0.513l1.248-0.028l0.142-0.425l-0.938-0.513l-0.879-0.026l0.283-1.134l1.247,0.596l1.646,0.142v0.566
			l-0.966,0.228l-0.057,0.428l0.793,0.17l1.562-0.283l2.663-2.211l1.048-0.113l6.404,1.162l0.342-0.511l7.48,1.928l5.018,1.927
			l3.062,1.162l1.559,1.616l3.97,1.7l3.516,1.644l2.296,1.984l0.198,0.227l-2.098,4.251l0.17,0.113l2.977-5.271l-0.426-0.682
			l-0.906-0.255l-0.284-0.623l-2.097-1.445l-1.984-1.021l-1.842-0.34l-0.879-1.247l0.425-1.956l1.333-1.7l1.161-0.48h0.369v0.312
			l-0.737,0.283l-0.708,1.077l-0.426,0.733l1.134,0.938l1.105,0.709l1.104,0.68l1.077,0.682l1.188-0.143l0.905-0.907l0.938,0.511
			l1.304,0.027l0.312-0.595l-2.151-1.417l0.024-0.879l-1.502-1.391l-2.688-0.171l-0.794-0.17v-0.227l1.644-0.028l0.453-0.085
			l-1.927-1.389l-0.368-1.105l-2.041-2.321l0.992,0.025l3.968,3.969l0.854-0.596l-2.724-2.722l-0.282-0.027l1.273-0.171l4.762,5.643
			l-0.365,0.171l-2.438-2.522l-0.567,0.566l1.077,1.527l1.871,1.729l1.104,0.142l2.126,2.383l-1.759,1.021l-0.48-0.595l-0.48,0.479
			l0.597,0.709l-0.964,0.768l-0.566-0.512l-0.312,0.367l1.05,1.562l6.146-4.194l4.648-3.061l1.104-0.992l-0.193-4.211l-3.557-7.539
			l4.602-8.303l1.646-2.359l1.727-6.462l6.084-7.377l0.938-0.312l4.502-2.757v-3.123h-1.398l-0.433,1.238h-0.969v-1.238h-1.938
			v0.969h-2.049l-2.744-1.185l-1.187-3.069l0.646-0.537v-0.922l-23.33-0.99v-8.391h-9.522v9.27h-4.166l-0.736,2.098h-1.389v0.821
			h-0.851v1.7H614.5l-1.417-1.274h-1.842v4.449h-1.616v-5.045h1.417v-12.302h-2.21v-4.9h6.773v-2.016h-0.879v-1.812h5.979v-5.386
			h-2.551v-8.729h-14.229v-2.097L598.666,638.399z"/>
		<path id="path2248" fill="#CCCCCC" stroke="#000000" d="M613.058,725.298h1.076l0.379-0.646l-0.862-0.808l-0.7,1.077
			L613.058,725.298z"/>
		<path id="path2250" fill="#CCCCCC" stroke="#000000" d="M612.197,731.06l0.7,0.699l-0.484,1.454l-1.185-0.218L612.197,731.06z"/>
		<path id="path2252" fill="#CCCCCC" stroke="#000000" d="M623.506,733.321l1.238,1.239l1.023-1.293l-1.077-1.022L623.506,733.321z"
			/>
		<path id="path2257" fill="#00FF00" stroke="#000000" d="M566.764,717.37l2.248,3.378l-4.686,2.208l1.186,3.342l-0.162,0.269
			l3.295,9.758l-9.493,3.458l-1.332,2.862l1.645,4.646l5.643,1.36l1.077-1.104l-1.871-4.079l6.887-2.299l-4.336-11.422l1.928,1.701
			l5.896,1.219l7.085-2.636l-1.048-0.851l-1.931,0.794l-0.057-1.247h-0.595v1.442l-0.599,0.283v-1.389h-0.707l-0.341,1.587
			l-1.896,0.822l-5.979-1.247l-1.645-2.979l-0.481-1.272l11.421-4.054l1.05,3.03l2.153-1.247v-2.944l-1.104-1.729v-1.955
			l-2.101-2.976L566.764,717.37z"/>
	</g>
	<path id="path2270" fill="#00FF00" stroke="#000000" d="M707.143,661.595l-0.938,1.525v4.6l-1.4-0.13l-0.431,1.238h-0.969v-1.238
		h-1.938v0.969h-2.047l-2.746-1.185l-1.185-3.069l0.646-0.538v-0.921v-1.502h1.354v-1.304l0.396-0.511v-1.247h3.231v0.879h2.664
		v1.077l-0.624,1.247L707.143,661.595z"/>
	<path id="path2272" fill="#00FF00" stroke="#000000" d="M708.257,653.644l-0.009,7.107l-1.145,0.903l-3.948-0.169l0.624-1.247
		v-1.077h-2.664v-0.879h-3.231v1.247l-0.396,0.511v1.304h-1.354v1.53l-23.331-1.021v-8.389h-9.521v9.271h-4.166l-0.736,2.097h-1.389
		v0.822h-0.854v1.697h-1.104l-1.417-1.272h-1.844v4.45h-1.615v-5.045h1.417v-12.303h-2.21v-4.9h6.771v-2.016h-0.879v-1.812h5.979
		v-5.385h17.459v2.126h2.834v4.646h3.004l2.408,7.567h6.548v-2.101h2.579v2.101L708.257,653.644z"/>
	<path id="path2274" fill="#00FF00" stroke="#000000" d="M681.531,641.193v4.646h3.004l2.409,7.567h6.547v-2.101h2.579v2.101
		l14.275,0.232V651h2.426v-2.154h2.207l0.159-3.604h2.427v-2.154h2.423v-2.531h4.685l-0.146-10.758l-4.532-2.806h-9.75v0.283h-4.506
		v-0.428h-2.354v1.36h-2.152v3.315l-1.358,0.085v2.406h-2.552v2.324h4.901v1.417l-0.991,1.021h1.247v5.753h-0.427v1.247h1.162v3.174
		h-0.991l-1.021-0.368v-1.644h-2.186l-2.774-2.522v2.979h-2.607v-3.006h-1.896l-0.684-0.565v-9.438h1.672v-2.749h-1.613v0.822
		l-0.512,0.595h-1.928v-5.895h-7.17v6.062l1.134,3.006h-1.021L681.531,641.193z"/>
	<path id="path2276" fill="#00FF00" stroke="#000000" d="M692.727,631.642l7.145-0.025v2.409h-2.551v2.321h4.9v1.417l-0.992,1.021
		h1.248v5.753h-0.427v1.247h1.162v3.174h-0.991l-1.021-0.368v-1.644h-2.186l-2.774-2.522v2.979h-2.607v-3.004h-1.896l-0.683-0.567
		v-9.438h1.672L692.727,631.642L692.727,631.642z"/>
	<path id="path2278" fill="#FF0000" stroke="#000000" d="M658.688,631.942v7.125h20.011v2.126l2.834-0.019l0.085-4.941h1.021
		l-1.134-3.007v-6.062h0.468v-12.13l-1.021-2.585H666.68l-1.236,0.808l-2.153-1.185l-0.054,5.274v8.35h-2.531v6.245L658.688,631.942
		L658.688,631.942z"/>
	<path id="path2280" fill="#FF0000" stroke="#000000" d="M663.232,617.188l-0.002,8.512h-2.53v6.246h-2.013v-1.604h-14.229v-2.097
		l-5.285,0.095l0.039-0.594h-0.215l0.215-4.093l1.562-0.057l0.537,2.264l2.153-2.314h-1.021l-0.595-2.154h-1.452l-0.434,0.675H638.7
		l-0.403-0.402l0.021-3.575l0.733-0.951l0.137-0.538l3.996-4.106l0.853-6.66l1.358,0.396l-0.086,0.992l3.57,2.185l-0.425,0.649
		l-1.644,0.17l-0.088,1.021h2.639l0.17-1.36l4.761,2.466l1.049-2.211l-0.708-0.368l1.219-1.928l3.771,2.239l-2.012,3.854
		L663.232,617.188z"/>
	<path id="path2282" fill="#FF0000" stroke="#000000" d="M644.036,605.823l-0.851,6.66l-4.063,4.376l-0.715-0.211v-1.187h1.021
		v-1.454h-1.185l-0.756,0.963l-5.113-0.262l0.746-2.804l-3.738-1.438v1.417h-1.358l-2.834-1.502l-1.898,0.482l-0.794-6.009
		l-1.048-0.853h-4.563l-0.878-4.161h2.664l-0.624-4.795l-1.403-0.134l-0.092-3.924h0.957l0.283,2.13h2.013v0.822l5.072,0.964
		l-1.559-5.526l1.956,0.283l-0.061,3.146l1.531,0.511l-0.028,1.39l14.992,1.87l0.198,2.354l2.775,0.059L644.036,605.823z"/>
	<path id="path2284" fill="#FF0000" stroke="#000000" d="M617.509,590.996l0.283,2.13h2.013v0.822l5.072,0.964l-1.559-5.526
		l1.955,0.283l-0.06,3.146l1.531,0.51l-0.028,1.39l14.992,1.87l0.198,2.354l2.774,0.057h1.701l-0.992,7.227l-0.085,0.992l3.57,2.186
		l-0.425,0.648l-1.646,0.17l-0.085,1.021h2.638l0.171-1.36l4.761,2.466l1.049-2.211l-0.708-0.367l1.219-1.929l-7.538-4.138
		l1.221-1.389l0.365-1.588l0.709,0.228l0.938,0.879l1.701-1.644l-1.077-2.607l-1.19-0.256l-0.34-0.936v-2.521l3.602-5.158
		l1.559-2.976l-3.117-0.992l-4.676-0.992l-1.134-0.085v-1.389h-2.522v-1.021l-0.906,0.146l-0.256,0.538l0.709,0.733l-0.479,0.907
		c0,0-1.36-0.623-1.502-0.623c-0.145,0-1.502,0.17-1.502,0.17l-4.141-4.223l-10.229-1.36l-6.207-0.822l-0.708-0.734l-0.737,0.681
		v1.219l1.531,2.834l-0.879,0.145l-2.409-1.562l-1.304-0.057L617.509,590.996z"/>
	<path id="path2286" fill="#FF0000" stroke="#000000" d="M611.482,560.701l-0.81-16.962h6.085l1.13-0.377l0.486,0.538h3.931
		l0.811-0.7l1.991,0.97l0.378-0.646h2.047l0.969,1.397h0.754v-1.021l7.485,1.131l-0.751,2.834l8.077,3.713l4.532,2.891l-0.681,1.275
		l-1.812-0.793l-1.699,1.188l0.283,1.562l0.734,0.878l-0.511,1.219l1.418,1.105l0.736,1.527l-0.822,0.369l-5.016-4.986
		l-11.057-1.589v8.445l-4.617-0.312v-3.629h-1.476v-1.273h-4.252v-2.777h-3.372v2.894h-0.396v1.332L611.482,560.701z"/>
	<path id="path2290" fill="#FF0000" stroke="#000000" d="M630.177,561.101v3.571l-4.619-0.312v-3.628h-1.474v-1.275h-4.252v-2.777
		h-3.372v2.894h-0.396v1.332l-4.595-0.201v8.105l0.709,0.368v1.391h2.638l3.345,0.026l4.73,0.709v0.737h4.081l-1.086,5.478
		l10.383,1.384l-4.619-5.441l0.682-0.596v-0.598h-1.105l-0.818-1.245v-1.561l-1.446-0.312v-1.93l2.211-0.17v-1.812l4.903,0.396
		h1.162l0.85-1.104l0.085-1.53l-0.991-0.879L630.177,561.101z"/>
	<path id="path2292" fill="#FF0000" stroke="#000000" d="M647.068,562.433l-0.822,0.369l-5.016-4.985l-11.057-1.59v4.959
		l7.001,0.938l0.991,0.879l-0.085,1.53l-0.853,1.104l11.279,1.445l-0.283-2.466L647.068,562.433z"/>
	<path id="path2294" fill="#FF0000" stroke="#000000" d="M648.599,554.469l-0.68,1.275l-1.813-0.793l-1.698,1.188l0.28,1.562
		l0.737,0.878l-0.511,1.219l1.418,1.105l1.898,3.713l0.28,2.466l-11.027-1.414l-1.411-0.031l-4.903-0.396v1.812l-2.211,0.17v1.93
		l1.446,0.312v1.561l0.818,1.245h1.105v0.598l1.729,0.34h1.562l1.588,1.358l1.021-0.706l0.651-0.06l0.255-0.312h1.105l0.733,1.02
		l3.603,0.284l1.104,0.566l0.854-0.513l0.68,0.426l0.396,0.622h0.904l0.623,0.737l1.984-1.896l-1.077-1.274v-3.6l0.396-2.438
		l-0.989-3.287l-0.795-2.323l4.678,0.452l0.425-2.353h3.771l0.341,0.17l0.312-0.34l-0.026-0.736l-4.023-1.247l-2.125-1.812
		L648.599,554.469z"/>
	<path id="path2296" fill="#FF0000" stroke="#000000" d="M649.115,576.606l-0.604-0.712h-0.903l-0.397-0.623l-0.68-0.428
		l-0.854,0.513l-1.104-0.566l-3.602-0.284l-0.734-1.02h-1.105l-0.255,0.312l-0.65,0.06l-1.021,0.708l-1.588-1.36h-1.562l-1.729-0.51
		l-0.683,0.766l4.449,5.241l4.364,4.416l1.444-0.163l1.503,0.623l0.479-0.907l-0.709-0.733l0.256-0.538l0.906-0.146v1.021h2.522
		v1.389l1.384,0.139v-2.856l0.6-0.768v-3.146L649.115,576.606z"/>
	<path id="path2298" fill="#FF0000" stroke="#000000" d="M654.919,585.446l-2.239-0.709l-4.27-0.905l-0.146-2.907l0.59-0.75v-3.033
		l2.269-2.406l-1.077-1.274v-3.401l0.396-2.636l8.812,1.332v1.842l8.446,1.307l1.303,0.17l0.822-0.623l0.396,1.474h-1.559
		l-1.05,0.597l-2.407,4.225l-7.029,4.986l-1.219,0.229l-1.615,1.955L654.919,585.446z"/>
	<path id="path2244" fill="#00FF00" stroke="#000000" d="M640.238,670.688l7,0.217v2.312h-1.4v0.916h-2.314v1.453h-1.021v4.688
		h2.046v-4.9h7.323v2.046h1.021v-0.754h1.349v5.224l1.885-1.562h2.208v4.521h-4.361v0.596h2.424v2.046h1.399l1.076,1.774h-8.669
		l-8.67-6.729v-2.207h-1.399L640.238,670.688z"/>
	<path id="path4239" fill="#FF0000" stroke="#000000" d="M670.223,572.919h-1.474l-1.139,0.604l-2.403,4.214l-7.029,4.985
		l-1.219,0.229l-2.039,2.498l0.877,0.278l-1.559,2.977l-3.602,5.158v2.521l0.342,0.938l1.188,0.256l1.077,2.604l-1.701,1.646
		l-0.935-0.879l-0.709-0.229l-0.368,1.587l-1.219,1.392l7.539,4.138l3.769,2.239l-2.012,3.854l5.623,3.139l0.051-4.992l2.153,1.185
		l1.236-0.808h14.271l-0.493-2.913v-5.328l2.834-6.688l0.368,0.596h7.539l-3.911-7.198l0.198-1.36l2.098-3.398l-9.354-7.396
		l-5.414-7.143l-2.552,1.304h-2.039v-0.005h0.005V572.919z"/>
	<path id="path4241" fill="#FF0000" stroke="#000000" d="M710.24,627.277h-4.506v-0.428h-2.354v1.36h-2.151v3.315l-1.786,0.087
		l-8.331,0.023v0.822l-0.512,0.595h-1.929v-5.895h-6.688l-0.017-12.13l-1.051-2.746l-0.466-2.752v-5.328l2.834-6.688l0.368,0.598
		h7.539l1.076,0.766l0.084,0.906l2.127-2.553l1.332,0.145v1.271h5.301v1.846h2.295v-0.907h2.408v8.332h1.982l0.538,1.871
		l4.422,2.749v2.183h-0.851v1.587h-0.794v1.049h5.07v2.185h1.646v2.438h-2.607v1.307l-7.991-5.841h-1.33v4.619h4.449L710.24,627.277
		z"/>
	<path id="path4243" fill="#00FF00" stroke="#000000" d="M724.523,629.8l-4.533-2.806l-9.741-0.112l0.104-4.819h-4.449v-4.616h1.332
		l7.989,5.838v-1.306h2.607v-2.438h-1.646v-2.182h-5.071v-1.052h0.794v-1.587h0.851v-2.183l-4.422-2.749l-0.538-1.871h-1.982v-8.332
		h-2.408v0.907h-2.295v-1.843h-5.301v-1.274l-1.332-0.143l-2.125,2.551l-0.115-0.929l-1.174-0.979l-3.689-6.791l0.249-1.769
		l1.952-3.166l3.798-5.498l0.142-1.842l-1.049-2.979l6.352,2.409l1.729,1.615h1.417l1.562-1.36v-0.963l-1.332-0.511h2.066
		l0.567-0.598l-0.086-0.99h-0.767l0.597-0.768l-0.113-0.991l-0.822-0.227l-1.356,0.312l-0.539-0.511l-0.481,0.482l-1.358-0.964
		l0.819-0.769l-1.02-1.729l1.474,0.396l1.076,1.701l3.09,0.765l5.583,1.759l-0.479,1.247v2.577l2.353,1.899l-0.963,1.672
		l3.314,0.596l-3.854,3.911l1.531,1.247l1.245-1.162l1.273,1.19l-0.905,1.474l-0.65-0.511l-0.736,0.936l-0.851,0.171l2.494,1.898
		l1.075-0.454l1.673,1.134l-0.853,0.769l-1.104-0.598l-0.397,0.736l0.113,1.87l-1.305,0.481v1.843l1.247,0.283l0.143,4.106
		l-0.992-0.563l-0.084-3.146h-1.843v1.162l-1.672-0.198l0.057,8.307h1.927l0.567,0.624l0.991-0.652l6.292,0.028v1.357l-0.368,0.06
		v6.122h0.766v0.709h0.853v1.218h2.636L724.523,629.8z"/>
	<path id="path4245" fill="#FF0000" stroke="#000000" d="M674.814,571.615l-2.554,1.304h-2.041l-0.396-1.474l-0.941,0.604
		l-9.63-1.458v-1.842l-8.825-1.371l-1.771-5.572l4.677,0.453l0.425-2.353l3.814,0.021l0.295,0.146l0.312-0.34L658.152,559
		l-4.024-1.247l-2.125-1.812l-3.463-1.357l-4.522-3.029l-8.024-3.688l0.751-2.834v-1.53h2.338v0.651h3.287v2.491h3.005v-4.676
		l9.126,5.045l3.032-5.584l3.909,1.19l-0.623,5.354l10.771,0.794l-0.057,1.504l-1.105,2.152l0.708,0.481l-0.68,5.838l2.409,1.219
		l-1.984,3.458h-1.077l-1.104-1.162l-0.683,1.134L674.814,571.615z"/>
	<path id="path4247" fill="#00FF00" stroke="#000000" d="M674.145,570.805l-6.132-7.408l0.683-1.134l1.104,1.162h1.077l1.984-3.458
		l-2.409-1.219l0.68-5.838l-0.708-0.481l1.106-2.192l0.056-1.461l0.34-3.007l-2.183-0.794l0.198-1.049l-6.915-5.385v-6.263h15.22
		l4.053,4.053l2.21-2.664h2.041l1.275-2.354h2.691l-6.122-1.587l-0.171-1.188l-0.793-0.599l2.69-2.097v-0.766l2.013-0.113
		l0.683,0.511l0.681-1.272l1.134,0.85l-0.964,1.134l2.04,1.615l0.144,0.768l3.854,0.851l0.511,1.983l1.983-0.906l2.323,2.834
		l0.228,2.892l-6.377,5.3l-4.308,3.457l0.649,0.965l-1.785,1.954l-0.623,2.494l-0.256,2.893l-3.005,1.05l-0.708,0.624l-0.538,1.358
		l-2.066,2.099l-0.566-0.113l-2.409,2.892l-0.819,2.068l-0.257,2.466l-1.273,2.664l-0.821,1.587L674.145,570.805z"/>
	<path id="path4249" fill="#00FF00" stroke="#000000" d="M692.477,575.854l1.043,2.964l-0.142,1.842l-3.767,5.454l-9.387-7.354
		l-6.246-8.149l1.602-0.639l2.097-4.249l0.27-2.494l0.811-2.041l2.409-2.891l0.564,0.113l2.068-2.1l0.538-1.357l0.708-0.624
		l3.005-1.051l0.239-2.709l0.639-2.677l1.786-1.955l-0.651-0.964l3.881-3.111l4.451,1.156l1.845-1.7l2.466-0.904l0.794,0.733
		l3.74-0.312l0.479-0.651l2.551-0.086v-1.417l-1.049-0.935l1.135-1.729l-0.453-2.097l1.418,2.182l0.99,0.06l-1.16,0.991
		l-0.258,1.416v1.444l1.222,0.114v-2.324l1.896-2.183l1.049-0.396l3.263,2.494l-2.101,1.646l0.17,1.075l-1.757,0.48l-0.198,1.53
		l-1.304,1.188l-1.162-0.906l-1.021,0.853l-0.736-0.853l-0.709,0.881l0.652,0.766l-0.795,0.906l0.312,0.65l-3.117,0.367
		l-1.134,1.615l1.275,1.304l1.53-0.396l-1.615,1.896l-2.409,2.809l-1.019-0.051l0.105,1.614l-0.646,0.162l-0.16,1.292l-1.67,2.802
		v1.887l-1.562,3.282l-3.393,5.387l-2.854,4.146l-0.432,0.593L692.477,575.854z"/>
	<path id="path4251" fill="#00FF00" stroke="#000000" d="M758.436,588.81l-5.651,0.219v11.953l-2.316-0.322l-4.254-2.369
		l-5.923,1.454v-3.608h-1.669v-1.992l-16.479-9.528l-4.951-1.349l-1.293-0.216l1.236,1.348l-1.346,1.453l-1.951-1.627l1.309-1.326
		l-3.313-0.596l0.963-1.672l-2.353-1.898l0.009-2.601l0.474-1.226l1.417,0.195l0.481-1.357l-1.19-1.332l0.567-0.511l-0.651-1.275
		l0.736-0.793l-0.595-1.275l0.733-0.539l-0.563-0.878l1.16-0.904l-0.852-0.768l-0.851,1.189l-0.821-0.821l0.479-1.162l-3.284-2.494
		l-1.984,2.211l-1.502-1.786l1.757-1.98l-1.502-0.907l-0.229-1.587l-3.006,0.542l1.261-2.11l1.209,0.806l0.28-0.06l-0.025-1.559
		l0.708-0.028l0.026-0.964l-0.479-1.218l2.729-3.186l2.938,2.36l0.454-1.021l4.192,1.39l5.525,0.426v-1.503h4.762v8.673h2.521h2.183
		v2.522h7.255v2.296h7.061v4.506h9.406v6.745h-4.446l1.356,2.689l-1.048,0.938l1.19,1.134l-3.543,3.117l-2.324,2.066h1.729
		l1.105-0.649l0.766,0.425h11.422L758.436,588.81z"/>
	<path id="path4253" fill="#00FF00" stroke="#000000" d="M752.781,607.926v9.047h-4.578v4.415h-4.738v4.954h-4.846v4.688h-4.577
		v4.685l-9.437-0.008l-0.194-18.46h-2.636v-1.218h-0.853v-0.709h-0.766l0.021-6.125l0.351-0.057v-1.357h11.952v-1.037l-4.039-3.557
		l8.938-2.423l0.916,3.18l5.062-0.484v3.338l1.076,0.271v0.808L752.781,607.926z"/>
	<path id="path4255" fill="#00FF00" stroke="#000000" d="M759.352,586.466H748.02l-0.762-0.423l-1.109,0.65h-1.729l5.867-5.188
		l-1.19-1.134l1.048-0.936l-1.356-2.692h4.448v-6.729l3.425,1.993h6.405l4.472-1.397l0.054-1.238l17.557,5.115l-4.414,13.354h-1.511
		l-0.482,0.971h-13.408v-2.048h-3.661L759.352,586.466z"/>
	<path id="path4257" fill="#00FF00" stroke="#000000" d="M686.122,525.079l-0.053,0.807l-2.643,2.059l0.8,0.618l0.166,1.165
		l5.676,1.474l-2.278,0.176l-1.242,2.293h-2.041l-2.21,2.664l-4.053-4.053h-15.221l-2.7-0.87l-2.8-0.485h-2.692v-3.015l0.97-2.639
		h-6.729l0.646-1.239v-1.453h-0.916l0.323-4.688h0.271l-0.019-4.631l1.522,0.699h0.379h6.893l2.369,0.162l1.454,1.238h0.808
		l2.153-1.727h2.262l0.433-1.346l-0.537-3.178h14l0.27-1.349l0.81-0.054l0.378,0.592v9.693l-0.217,0.431v5.277l1.075,0.322
		l1.188-0.646L686.122,525.079z"/>
	<path id="path4259" fill="#00FF00" stroke="#000000" d="M698.22,530.521l-2.008,0.878l-0.511-1.984l-3.854-0.85l-0.143-0.769
		l0.907-1.785L694,526.95l0.396-0.992l1.244,0.425l0.709-0.68l-0.096-0.358h-1.064v-2.221h-1.162v-1.389h-1.391v-0.599h-0.734
		v-0.818h-1.051c0,0,0.652-1.222,0.481-1.19c-0.17,0.028-4.987-0.879-4.987-0.879l-1.812,1.813l-1.077-1.76l-0.946-0.204
		l0.052-9.795l4.271-0.399v-0.566h6.66v-1.445h-0.907v-1.389h0.596v-2.381h2.1l-2.153-3.486v-3.627h0.595v-2.152l6.888,2.492
		l6.436,2.522l-0.198,2.153l-0.312,1.159h1.812l0.198-0.878l1.359-0.564v6.232l0.454,0.821l-9.554,0.256l0.482,2.015l2.664,2.834
		l-1.332,1.672h1.188l-1.273,1.272v2.324h-2.808v2.354h-1.896l-0.623,0.648v1.531h-0.794v3.627l2.268,2.069l-0.564,1.104
		l-1.161-0.227L698.22,530.521z"/>
	<path id="path4261" fill="#00FF00" stroke="#000000" d="M656.716,490.43H644.33v-8.077h0.539v-1.021h0.592v-0.377h1.562
		l2.527-3.123l-0.431-1.077l1.346-1.131l-0.748-1.695l9.562-0.229l1.077-0.907l3.628,4.138l1.827,3.917l-0.595,0.811l2.369,3.282
		v1.83h-3.877l0.431,3.557L656.716,490.43z"/>
	<path id="path4263" fill="#FF0000" stroke="#000000" d="M682.025,507.726l-0.647,0.043l-0.269,1.349h-14.001l0.538,3.178
		l-0.434,1.346h-2.262l-2.153,1.727h-0.808l-1.454-1.238l-2.369-0.162h-6.785v-1.831l1.777-4.2v-2.423h1.076v-1.292h-0.595v-10.393
		l3.069-2.692l0.078-0.7l7.353-0.105l-0.431-3.554h3.877v-1.831l4.093-2.692l3.285,3.933l2.479-1.452l2.208,3.77l0.215,4.954
		l2.101-1.023v14.755L682.025,507.726z"/>
	<path id="path4265" fill="#00FF00" stroke="#000000" d="M675.361,485.946l-0.394,0.229l-3.282-3.932l-4.162,2.597l-2.303-3.188
		l0.596-0.811l-1.616-3.917h0.979l3.175,0.822l2.408-0.021l0.623-0.461v-1.104l-0.479-0.566v-1.104l-1.36-2.381v-2.015l6.924-2.206
		l2.431-0.03v-2.639l5.694,0.062v0.902h4.974l1.774,6.475l1.293-0.915l0.271,1.131l-1.131,0.538v1.239l-0.484,0.481v4.472h-3.771
		l-0.914,0.915l-4.361,0.216l-0.055-0.593l-3.338,0.377l-1.727,1.186l-1.185,2.208l-0.538,1.346L675.361,485.946z"/>
	<path id="path4267" fill="#00FF00" stroke="#000000" d="M693.718,492.855v2.151h-0.595v3.627l2.153,3.486h-2.1v2.381h-0.596v1.389
		h0.907v1.445h-6.66v0.566l-4.215,0.396l-0.646-1.094l-0.003-14.786l-2.101,1.023l-0.216-4.954l-2.207-3.771l-2.027,1.189
		l0.052-0.827l1.652-3.378l1.724-1.188l3.338-0.377l0.058,0.595l4.358-0.218l0.915-0.915l3.771-0.105l0.754,0.754l-0.484,0.539
		v3.392h2.208v0.973h-0.916v0.754l-1.185-0.107l0.054,0.699h1.293v-0.484h1.669v0.484l0.811-0.054v-4.79h0.539v4.308h2.423v2.315
		l-0.108,1.452l-1.185-0.217v1.938h-0.323v-2.102h-0.807v0.86l-1.132-0.323v-0.592l-1.399-0.162l-1.615,0.485l0.646,0.646
		l-0.057,1.4L693.718,492.855z"/>
	<path id="path4271" fill="#00FF00" stroke="#000000" d="M709.847,498.881l-2.809-1.009l-6.406-2.512l-0.084-4.446l-2.119-2.379
		l0.021-2.575h-2.154l-0.269-4.308v-1.4h4.469v-2.585l3.123-0.969v-0.915l2.478,0.322v1.828l3.661-0.808l0.539,3.177l0.538,0.485
		l0.538,1.669l0.7,0.808l-0.433,1.454l1.022,1.992l6.516-1.347l0.7,0.7l1.725-0.811l0.646,0.593l1.776-0.754l0.216,1.669
		l0.754,0.434l-0.593,0.859l0.377,2.103l0.432,1.021l-2.529,0.484v1.615l-0.379,0.754l-0.592-0.592l-0.646,0.969l-3.718,0.431
		l-0.159-0.431l-0.271,0.808l-6.567,0.916L709.847,498.881z"/>
	<path id="path4273" fill="#00FF00" stroke="#000000" d="M703.864,452.521l-0.284-0.107v-10.345l1.361,0.708v-1.929l-0.031-2.488h14
		l5.115-0.219v6.681l0.593,0.646v0.862h-4.954c0,2.028,0,4.057,0,6.085L703.864,452.521z"/>
	<path id="path4275" fill="#00FF00" stroke="#000000" d="M730.703,483.752l-2.531,0.862l-3.284,0.161l-0.859,0.32l-1.776,0.754
		l-0.646-0.593l-1.724,0.811l-0.7-0.7l-6.516,1.347l-1.023-1.992l0.434-1.454l-0.7-0.808l-0.538-1.669l-0.538-0.485l-0.539-3.177
		l-0.698-1.938l-2.586-1.777l-2.208,0.916l-0.646-0.646l0.431-0.697l0.056-2.803l-0.971-0.808l0.7-0.593l0.031-11.948v-4.312
		l15.8-0.107v-6.085h4.954v-0.862l-0.593-0.646v-6.681l2.208-0.158h4.575l0.056,1.074l0.808,0.972l-3.338,0.646l1.131,29.239h7.754
		l-1.613,2.369v4.631l-2.153-1.076v1.669l-1.615,1.831l-0.593,4.415l0.754,2.315l0.054,1.562l4.095-1.562v0.697l6.894,2.746
		l-0.7,2.208l2.047,0.861l-3.555,5.331l-1.398-0.7l2.263-5.6l-0.433-0.216l0.646-1.134l-1.562-0.697l-0.32,1.186l-4.793-1.777
		l-3.18,2.585h-2.312l-0.484-1.397l0.861-2.315l0.916-0.161l0.754-1.397L730.703,483.752z"/>
	<path id="path4277" fill="#00FF00" stroke="#000000" d="M736.143,486.067l-4.094,1.562l-0.053-1.533l1.292-0.352l3.177-2.854
		l1.346-0.215l0.219-3.555l-0.434-0.161l-1.235,1.238l-0.323-1.292l1.131-1.239l1.188,0.27v-8.021h-1.134h-7.754l-1.131-29.239
		l3.338-0.646l-0.808-0.972l-0.057-1.074h-1.938v-9.208l32.9-0.107v9.208h9.586v8.077l-0.861,1.076h-9.962h-3.178l-2.642,0.697
		h-2.584v5.87l-1.99-1.236l-1.51,0.16l-0.697,1.076l0.32,2.53l1.83,0.754v1.454h1.131v0.969h2.479v1.831h-1.292v0.754h-1.023
		l-0.431,2.047h-3.394v4.849l-0.916,1.774h-0.755v-0.97h-2.639l-0.593,2.692l-1.776-0.861l-0.216,1.831h-1.885l-0.161,4.685
		l1.396-0.697l1.077,0.808l0.434-1.131l0.914,0.97l-2.69,0.861l-1.293-0.433l-0.215,4.415l1.346,1.83l-0.106,1.831l-2.367-1.077
		L736.143,486.067z"/>
	<path id="path4279" fill="#00FF00" stroke="#000000" d="M753.696,461.136h-1.292v0.754h-1.023l-0.431,2.047h-3.396v4.849
		l-0.915,1.774l-1.075,4.9l1.67,0.107l1.131-2.803l3.443-0.432l0.811,0.862h1.508l2.585-2.585v-2.208h5.062v-2.315h6.408
		l1.076-1.292l1.725-0.323l6.841-7.377l0.159-0.858l-2.478-1.939l-1.831,0.916v-1.293h-2.369v-6.946h9.479l-0.376-18.197
		l-18.635-0.107v9.208h9.588v8.077l-0.861,1.076h-8.616l0.216,8.562l4.523,1.238l0.054,4.521L753.696,461.136z"/>
	<path id="path4281" fill="#00FF00" stroke="#000000" d="M758.703,461.219l7.971,0.133l-0.054-4.521l-4.523-1.238l-0.216-8.562
		h-4.523l-2.639,0.697h-2.584v5.87l-1.992-1.236l-1.508,0.159l-0.699,1.077l0.322,2.53l1.83,0.754v1.454h1.131v0.969h2.479
		l0.009,1.831l3.223,0.057l0.056-1.726l1.186-1.185L758.703,461.219z"/>
	<path id="path4283" fill="#00FF00" stroke="#000000" d="M703.949,511.9l-2.664-2.834l-0.482-2.015l9.553-0.256l-0.452-0.821v-6.232
		l-1.36,0.564l-0.198,0.878h-1.812l0.335-1.409l0.042-1.956l2.947,1.024l0.494-2.709l6.568-0.916l0.271-0.808l0.158,0.431
		l3.719-0.431l0.646-0.969l0.592,0.592l0.377-0.754v-1.615l2.531-0.484l1.399-0.161v1.022l2.644-1.896l0.479,1.411h2.312
		l3.178-2.585l4.795,1.777l0.32-1.187l1.562,0.698l-0.646,1.132l0.404,0.279l-2.235,5.535l1.399,0.7l-1.022,3.822l-0.216,2.64
		l-1.938,6.946l-0.161,1.185l-1.562,0.862l-0.646,0.915l-0.646-1.4l-1.131,1.616l2.585,1.992l0.107,1.077l-1.992,4.735l-1.562,2.208
		l-4.309,2.369l-1.077-1.347l-0.7,0.593l-0.969-1.237l0.861-0.698l-1.454-0.7l-3.284-2.692v-3.123h-1.831v-1.454h-3.339v-0.27
		h-5.062v0.916h-0.594v0.754h-1.021v-1.293h-0.755v-1.776l1.237-0.97l-1.021-1.131l-3.555,0.539l-0.699-0.057L703.949,511.9z"/>
	<path id="path4285" fill="#00FF00" stroke="#000000" d="M725.651,524.974l0.798-0.778l-1.271-0.612l-3.467-2.78v-3.123h-1.831
		v-1.454h-3.339v-0.27h-5.062v0.916h-0.593v0.754h-1.021v-1.293h-0.754v-1.776l1.236-0.97l-1.021-1.131l-3.556,0.539l-0.698-0.055
		l-1.038-0.959l-1.236,1.495l1.132-0.009l-1.396,1.38v2.324l0.17,2.336l1.396,1.399l1.35,0.216v0.161l1.774,0.054v1.726l0.915,1.613
		l1.188,0.161l0.97,1.239l1.562-0.054l1.453,2.312l-2.746,1.399l0.378,1.131l1.348-0.107l1.397-1.562l0.107,1.185h0.86l0.859-0.593
		l0.484,0.7l-1.562,2.047l1.613-0.216l0.699-1.077l3.016,0.104l5.227-2.638l-1.454-2.101l0.916-0.594l-0.594-0.698l1.021-0.811
		L725.651,524.974z"/>
	<path id="path4287" fill="#00FF00" stroke="#000000" d="M718.318,537.72l-2.101,1.646l0.17,1.077l-1.757,0.479l-0.205,1.537
		l-1.297,1.184l-1.162-0.904l-1.021,0.851l-0.736-0.851l-0.709,0.879l0.652,0.766l-0.796,0.906l1.096,1.576l12.708-10.231
		l1.454-0.323l1.021-0.592l1.454,0.915l2.961-0.915l1.938,0.754l2.689-1.074h2.479l0.592-1.511l1.993,0.484l4.359,2.585l1.725,0.107
		l0.216,1.236l4.038,1.776l0.7-0.646l0.646,0.538l-0.216,0.811l1.938,1.077l0.539-0.861l-0.646-0.539l1.077-1.185l1.508,1.347
		l-1.776,3.229l0.107,0.646l4.846,1.885l0.972-2.154l3.123,1.511l-0.699,1.989l6.139,2.209l0.161,2.691l9.209,3.229v4.094
		l9.908,0.754l0.377-2.639l2.907,0.216v0.538h1.938v-1.238h4.47l0.323-1.885l4.576,0.859l0.106-1.132l-1.725-0.104l0.216-1.454
		l1.509,0.106l1.725,1.886v1.397l4.093,1.077v-1.185h0.915v1.346l1.239,0.216l1.992-1.67l-0.811-2.046l2.638,2.046l1.993-1.938
		l-0.97-1.615l1.077-0.484l0.7,0.861l0.592-1.131l8.078-4.954l1.938,1.508l-1.669,1.188l1.023,2.905l2.69-0.431l5.653-5.602
		l-0.484-0.755l0.484-0.593l0.861,0.811l1.131-2.048l0.271-10.068l-2.53-2.585l-2.691,2.208l-3.716,1.562l-1.292,3.935l-0.862,0.915
		l-0.43,2.151l-1.777-0.055l-1.615,1.022l-1.67,1.725l-0.054,0.861l-0.915,0.054l0.055-1.347l-6.19,4.359l-4.631,3.069l1.076,2.369
		l-3.445,0.377l-1.188-0.97l2.315-1.67l-4.2,0.105l-9.154-1.723l-4.573-0.646l-1.077-1.346l-0.434,0.915l-2.478-0.216V548.2h-0.809
		l-0.056-1.293l-3.177-0.7l1.346-3.393l1.348-4.47l-2.69-0.218l-2.314-1.185l-2.64-1.131h-1.831l0.271-4.954h-2.854l-0.377,1.185
		h1.669v1.077h-0.646v2.746H770.6l-0.162,3.285l4.311-0.107l-0.811,3.5l3.019,0.971l-0.055-1.237l6.028,0.97l-1.131,3.069
		l-1.397,2.1l-3.018-0.808l-3.982-0.7l-3.607-1.4l-2.531-1.99l-1.991-2.529l0.483-1.509L745.4,521.604l2.047-2.315l-1.293-1.131
		l0.754-0.754l1.021,0.97l1.562-1.562l-1.4-1.238l2.047-2.046l-1.774-0.107l-0.972,0.271l-1.774,1.348l-0.81-0.538l-2.53,1.185
		l-1.668,0.107l-0.484,2.153l-0.916,0.432l-1.723-0.7l-0.972-1.131l-0.055-1.885l0.754-0.971l0.271-1.187l-1.562,0.862l-0.646,0.915
		l-0.646-1.4l-1.131,1.616l2.585,1.992l0.106,1.076l-1.977,4.694l-1.578,2.25l-4.309,2.369l1.076,1.347l-1.992,0.861l2.154,1.992
		l1.562-1.293l1.615,0.432v-1.775l3.444-1.349l-0.105-1.562l-1.022-2.801l1.293-2.368l0.646-2.264l1.831,1.453l1.293,0.056
		l4.631,4.198l-0.7,0.323l-0.431,0.97l0.754,1.614l0.646-0.646l-0.433-0.861l0.81-0.754l3.716,3.069l-1.454,1.885l0.484,0.482
		l1.347-1.562l1.077,0.322l9.313,7.754l-0.97,1.076l-1.725-1.725l-0.81,0.915l-3.983-3.068l0.646-0.755v-1.508l-1.186-1.021
		l-1.076,1.562l-1.292-1.021l-1.724,1.775l1.131,1.292l-1.562,1.726l-1.724-1.349l-0.646,0.433l0.699,1.021l-3.229-0.27
		l-3.017-1.615l-1.022-0.915l-12.062,1.724l-0.055-1.67l-1.187-0.216l-2.639,2.103l-1.021-1.614h-0.972v2.8L718.318,537.72z"/>
	<path id="path4289" fill="#00FF00" stroke="#000000" d="M772.705,530.869l-0.485,1.185h1.669v1.077h-0.646v2.746h-2.64l-0.16,3.285
		l4.308-0.107l-0.808,3.5l3.016,0.972l-0.055-1.238l5.957,0.998l-1.09,3.09l-1.366,2.051l-2.812-0.752l-4.189-0.756l-3.607-1.399
		l-2.566-2.037l-1.955-2.483l0.482-1.508l-17.725-15.568l1.894-2.256l0.216-1.021l0.811-0.271l2.746-3.177l2.423,1.991l-0.754,1.236
		l1.938,2.047h0.646l2.423,2.368l-2.692,2.962l4.849,4.311l2.908-2.854l-0.595-1.131l2.746-1.562l-1.131-1.188l0.862-1.508
		l-0.7-0.809l1.185-1.614l0.646,0.592l2.312-2.53l0.646,0.971l-3.396,3.717l0.81,0.592v2.208l1.562-0.271l2.104,0.812
		L772.705,530.869z"/>
	<path id="path4291" fill="#00FF00" stroke="#000000" d="M738.479,518.079l-1.052-0.474l-0.916-1.327l0.001-1.68l0.707-0.907
		l0.387-2.04l1.982-7.275l10.178-3.016v-6.73h-1.131v-4.686h3.446v-4.792h18.954v4.254h-6.085v2.689h0.431v2.104l-0.377,0.592v1.238
		l2.639-1.726l0.435,0.057l0.053,1.831l1.885-0.539l0.108,1.074l-0.377,0.107v1.077h0.646v2.746h-1.021v1.774h-0.811l-3.5,4.146
		l-1.453-0.971l-0.594,0.971l1.077,1.185l-2.153,1.992l-0.916-0.482l-1.131,0.755l1.293,0.969l-0.539,0.97l-1.076-0.216
		l-1.132,1.293l0.378,0.431l-0.755,0.646l-1.508-1.239l0.593-0.915l-0.808-0.97l-0.97,1.398l-1.615,0.271l-0.592-0.7l-0.971,1.131
		l-1.453,0.217l-4.256,0.106l-6.14,0.538L738.479,518.079z"/>
	<path id="path4293" fill="#00FF00" stroke="#000000" d="M768.074,494.36l-0.435-0.057l-2.639,1.726v-1.238l0.377-0.592v-2.104
		h-0.431v-2.689h6.085v-4.254h-18.954v4.792h-3.446v4.686h1.131v6.73l-10.231,3.22l0.262-2.722l1.24-4.258l3.348-5.021l-2.023-0.926
		l0.68-2.146l-6.895-2.746l0.159-0.821l0.813-0.628l2.365,1.072l0.104-1.831l-1.333-2.104l0.192-3.93l1.303,0.221l2.688-0.861
		l0.219,0.538l2.101-0.377v-1.346l1.022,0.215l0.08-1.438l1.371,0.092l1.134-2.803l3.444-0.432l0.81,0.862h1.508l2.585-2.585v-2.208
		h5.062v-2.315h6.405l1.076-1.292l1.724-0.323l1.777,2.369l0.432-1.131l2.906-3.016l2.208,0.539v12.17h-4.735v4.685h5.385v3.823
		h0.538v-1.188h0.86v6.73l-2.263,1.238v1.075h-3.823v1.726h1.776v1.396h-1.83l-1.077-0.592L768.074,494.36z"/>
	<path id="path4295" fill="#00FF00" stroke="#000000" d="M814.195,556.96l1.91-1.859l-0.972-1.612l1.077-0.484l0.7,0.861
		l0.604-1.142l8.064-4.943l1.938,1.508l-1.669,1.185l1.022,2.908l2.691-0.431l5.652-5.604l-0.482-0.754l0.482-0.592l0.861,0.808
		l1.131-2.047l0.271-10.066l-0.936-0.952l1.955-1.901l4.094,3.069l4.687-8.562l2.368,1.616l0.861,1.399l5.602,3.555l0.377,3.5
		l8.638,5.115v8.885l-9.067,0.271l-9.369,18.738l-7.483,0.107l-7.433,8.021l-4.146-0.27v1.724h-8.776v-0.97h1.021l0.216-1.346
		l0.915-1.562v-3.178l-1.346-1.508h-1.077v-9.854L814.195,556.96z"/>
	<path id="path4297" fill="#00FF00" stroke="#000000" d="M780.352,484.938v-2.205h-1.397v-2.642h-5.386v-4.685h4.736v-12.17
		l-2.208-0.539l-2.907,3.016l-0.431,1.131l-1.67-2.482l6.743-7.326l0.148-0.796l-2.479-1.939l-1.831,0.916v-1.293h-2.369
		l0.056-6.946h9.424l0.322,0.271h8.829v-2.046h4.85v1.938h4.737v20.731h1.938l0.539,1.938h2.423v1.726h-2.745v1.562h-1.938v2.531
		h2.8v4.738l-1.507,1.236h-1.455l-0.323-1.453l0.483-0.646v-2.53l-1.131-0.7l-4.039-0.216v7.594l0.646,0.483l4.093-1.723v1.562
		h1.776v0.97h-8.669l0.054-0.377l1.886-1.074v-3.231h-0.646v2.531l-1.021-0.377v-1.777l-0.433-0.482h-0.86v4.686h-2.264v-2.53h-1.13
		v-1.293h2.207v-1.292h-2.369l-1.346,1.562v2.854h-1.023l-0.216,0.811h-0.7v-1.776l1.077-1.077v-1.885h-2.691v2.208l-1.886,0.215
		v1.293h0.7l0.271-0.431l1.021,0.269l-0.538,1.132L780.352,484.938z"/>
	<path id="path4301" fill="#00FF00" stroke="#000000" d="M774.266,494.898l-1.285-0.593l-4.979,0.043l0.126,1.843l1.885-0.539
		l0.108,1.074l-0.377,0.107v1.077h0.646v2.746h-1.021v1.774l-0.819,0.016l-3.426,4.06l-1.519-0.896l-0.594,0.97l1.077,1.185
		l-2.151,1.992l-0.916-0.481l-1.133,0.754l1.293,0.969l-0.537,0.97l-1.078-0.216l-1.112,1.273l0.358,0.447l1.293,1.134l-0.646,0.808
		l0.915,0.7l0.646-0.646l1.724,1.727l-2.64,2.854l3.717,3.396l2.639-2.908l1.493,1.05l0.499,0.458l2.312-2.53l0.646,0.97
		l1.992-0.105l0.432,1.077l2.584-0.539l1.938-0.107l-0.056,0.755l-1.992,0.16l0.161,1.239l3.985-0.216l-0.107-2.208l2.103-0.161
		l0.699,0.754h4.952l-1.829,0.538l0.432,2.047l-1.938,0.055l-3.5,1.775l-0.217,1.188l-0.696-1.076l-0.916-0.057l0.27,5.492
		l3.446,0.271l2.046,2.747l-0.754,2.8l1.076,0.482l1.562-0.432l1.292,8.239h10.771l0.432,0.697l0.215-0.754h1.508l-0.054,2.208
		l1.399,0.056l2.151-1.022v4.632h-1.236l-0.271-1.671l-1.831-0.377l-0.699,0.916l-1.452,0.377l0.191,1.736l4.223,0.794l4.199-0.106
		l0.754-0.055l-0.431-6.246l2.585-0.054l0.538-2.479l-1.188-1.075l-2.262,2.208l-3.177,1.185v-1.077h-1.562l-0.377-1.885
		l-1.294,0.862l-4.631-7.001l-0.216-0.861l3.339-1.615l0.215-8.67l2.692-0.269l5.438-3.124l3.607,1.293l2.208-2.962l-1.347-2.369
		l-1.832-0.056l-0.27-0.916l-1.021-0.377l-1.726-1.774l2.692,0.271l0.592-2.747l-1.614-3.017l2.53,0.108l0.81-0.595l0.699,1.349
		l1.131-0.323l0.539,1.021l1.938,0.322l-0.809-1.773l-4.199-2.369l0.215-0.916l-1.131-0.215l-1.131-1.4l-1.776,1.454h-4.308v-1.776
		h-4.523v-0.859h-1.186v2.477h-3.607v-1.237h-2.1v-6.839h-2.64v1.022h-4.737v-2.046l-2.64-0.595l-1.132,1.292h-1.398v1.399
		l-4.255,0.271v-2.367l-0.916-0.108l-0.271,0.862h-1.077l-0.538,1.13l-1.67-0.054l0.754-3.123h2.104L774.266,494.898z"/>
	<path id="path4303" fill="#00FF00" stroke="#000000" d="M816.521,510.062l-4.238-2.454l0.215-0.916l-1.131-0.218l-1.131-1.397
		l-1.776,1.454h-4.308v-1.777h-4.523v-0.861h-1.185v2.479h-3.608v-1.238h-2.1v-6.839h-2.639v1.023h-4.738v-2.046l-2.639-0.596
		l-1.134,1.292h-1.397l-0.754-0.377l0.481-1.346h0.812v-2.103h1.076l0.593,0.595l2.639-0.434l1.669,0.107v-4.415h-1.185v-0.862
		l2.905-1.773h-1.724l0.106-2.427h16.587l0.808,1.077h4.469v1.35h-2.477v2.423h2.639v2.477h-1.885l-0.161,1.508h2.479v-0.858h1.235
		v-3.019h0.861v-1.45h0.916v-0.916h2.477v2.366h2.692v1.188h1.021v-3.554h3.341l-0.108-1.4h1.023l0.27,0.593l-0.808,0.7l1.453,1.023
		l-1.615,1.507h1.992l0.159,1.885l-0.808,0.162l-1.293,1.238h-0.915l0.055,2.151l-0.859,0.107l0.104,2.639l-1.292-0.054v2.423h2.103
		l1.021-0.27l3.446,1.347l-1.185,1.992l-0.646-0.323l-0.861,2.154l-3.82-2.746l1.235-0.862l-2.907-0.646l-0.27,0.754l-0.73,0.192
		v0.989h-0.99l-0.538-0.485l-0.056-0.914h-1.075l-0.218-0.755l-2.313-0.054l-0.754-1.021h-1.615v0.754l-1.238,0.27v1.615
		l-0.858,0.808l-0.058,1.132h1.4v-0.97l0.97-0.323v-1.347l3.069,0.162l-1.077,1.669l0.377,0.646h1.292l1.992-1.615l0.916,0.699
		v1.724l0.808,0.754l-0.646,0.484l0.159,1.021l0.539-0.054v1.397l1.349,0.861L816.521,510.062z"/>
	<path id="path4313" fill="#00FF00" stroke="#000000" d="M804.367,469.806h-2.369l-0.539-1.938h-1.938v-17.07h2.423v-3.554h2.312
		v-4.631h9.208l-0.054-4.361h6.838l0.485,6.677v2.854h2.15v4.521h2.801v-2.584l1.134-0.055l0.377,1.239l1.235,1.723l5.765-2.746
		v-1.131l-1.888,0.216h-4.358l-0.177,0.656h-0.577l0.512-0.888v-5.746h-4.604l-0.321-3.716h1.397v-1.292h26.709v9.101l-4.576-0.108
		v4.85h-4.521v21.27l-4.847-1.396v6.566h-1.292v1.023h-1.4v1.346h-6.516v4.523h-16.479v0.915l-2.585-0.057l-4.415-1.453v-9.313
		h0.592v-1.292h1.939v-0.916h-1.023v-1.346h-1.397v-0.916h2.154v-1.188l-1.478-0.395L804.367,469.806z"/>
	<path id="path4319" fill="#00FF00" stroke="#000000" d="M814.168,520.854l-2.208,2.965l-3.608-1.293l-5.438,3.121l-2.692,0.271
		l-0.215,8.67l-3.339,1.615l0.229,0.881l4.618,6.979l1.292-0.859l0.377,1.885h1.562v1.077l3.236-1.243l2.201-2.146l1.186,1.074
		l-0.538,2.479l-2.585,0.054l0.431,6.246l0.696-0.193l10.612-7.291l2.854-2.639l3.554-1.831l0.862-0.86l1.292-3.933l3.716-1.562
		l2.692-2.208l-0.054-2.315h-2.208l1.346-2.854l-0.807-1.187l-2.693,0.915l-1.885-7.271l3.982-1.562l-0.481-1.185l2.638-1.349
		l-0.646-1.508l-3.982,1.187l-2.102,1.347l-4.521,0.216v-1.615l-0.915-1.236l-2.047,0.916l0.808,0.858l-0.808,0.484l-0.861-0.592
		l-1.021,0.697l1.346,3.284l-5.008,0.377L814.168,520.854z"/>
	<path id="path4321" fill="#00FF00" stroke="#000000" d="M834.036,526.941l-1.345,2.851h2.208l-0.044,2.396l1.774,1.639l1.874-1.984
		l4.096,3.069l4.685-8.562l2.369,1.616l0.862,1.399l5.6,3.555l0.377,3.5l8.638,5.115v-3.324l17.302,3.305l3.498-1.749l1.576-9.788
		l8.658-27.641l-9.355,0.104v-7.271h-2.045v-5.546h-2.424v-2.962h-1.508v-1.349h1.562v-3.555h-1.454v2.154h-1.238v-0.646h-0.754
		v-1.074h-1.562v1.508h-0.432v-1.188h-0.97v-1.992h-1.238v2.854l-0.7,0.054l-2.477-1.13l-0.108,13.3l-0.858,0.323l-1.831-1.885
		l-1.349,1.938l-1.612-3.229l-1.454-0.862l-3.556,6.141l-4.146-1.452l-1.239-0.162l0.809,2.746h1.455l0.809,0.697l-1.453,1.562
		l1.938,1.454v0.97l-2.367,1.022l-3.822,2.585h-1.4l-3.932,3.177l-2.153,0.27l-3.284,1.992l1.562,0.485l0.97,0.481l0.646,1.615
		l-1.077,0.861l-2.531-1.776l-4.2,3.771l2.641,1.562l-0.971,1.562l-2.101-0.862L834.036,526.941z"/>
	<path id="path4323" fill="#00FF00" stroke="#000000" d="M855.417,496.412l0.806,2.74h1.454l0.811,0.697l-1.453,1.562l1.938,1.454
		v0.97l-2.368,1.022l-3.82,2.585h-1.4l-3.932,3.177l-2.153,0.27l-3.285,1.992l-6.462-0.054l-2.477-0.434l-3.019-2.1l-0.538-1.67
		l-1.293-0.054l-0.808-1.132l-1.885-0.056l-1.134-0.646l-1.562,0.482l-0.484-1.021l0.7-0.811l0.861-2.151l0.646,0.32l1.188-1.989
		l-1.872-0.731l0.418-1.1h2.908l1.185-1.454l8.938-3.069v-0.969H830l-0.323,1.346l-2.262,0.973l-0.322,0.969l-2.153,0.377
		l-0.594-0.861l-2.8,1.885l-0.121,1.522l-2.248,0.039v-2.423l1.292,0.054l3.019-2.047v-1.669l2.101-1.992v-3.716h1.076v2.962
		l0.941-0.942l0.136-10.097h6.516v-1.346h1.4v-1.023h1.292v-6.568l4.847,1.398v-21.27h4.521v-4.85l4.577,0.108l7.377,0.054v11.146
		l2.691,0.32l-0.216,1.562l0.754,0.808l0.646-0.646l0.914,1.614l-1.396,1.187h-1.188l-2.151,3.822l-1.454,0.539l-0.055,2.151
		l-1.133,0.861h-1.235l-2.046,1.615l-1.35,0.215v1.508h1.131v0.811l-0.97,0.482v1.831l1.131-0.055v2.151h-1.021l-0.216,3.557v2.312
		h1.612v2.321h-1.235v0.7h-1.238l-0.144,0.527h-2.929v1.031h3.23v2.692h4.631l-1.992,1.185l-1.131,0.162l-0.646,0.915l-0.271,0.97
		h4.361l0.808,0.595L855.417,496.412z"/>
	<path id="path4325" fill="#00FF00" stroke="#000000" d="M860.961,458.608l-0.215,1.559l0.754,0.808l0.646-0.646l0.914,1.615
		l-1.398,1.186h-1.186l-2.153,3.822l-1.454,0.539l-0.055,2.151l-1.131,0.861h-1.237l-2.046,1.615l-1.35,0.215v1.508h1.131v0.812
		l1.976,0.745l1.417,0.142l-2.637,0.17l-0.595,1.204v1.092h1.56l0.085,2.153l1.272,0.426l1.104-0.341l0.596,0.851l-0.766,1.392
		l-2.068,0.596l-0.426-0.454h-2.597v2.312h1.613v2.312h-1.236v0.7h-1.237l-0.146,0.529h-2.925v1.029l3.202,0.057l0.028,2.639h4.631
		l-1.992,1.185l-1.131,0.162l-0.646,0.915l-0.271,0.973h4.361l1.393,1.166l4.046,1.419l3.556-6.143l1.455,0.862l1.613,3.229
		l1.348-1.938l1.83,1.885l0.86-0.323l0.108-13.3l2.477,1.13l0.7-0.054v-2.854l-0.326-4.672h-4.393v-5.755h4.361l0.198-2.126h0.854
		l0.648-4.393l-1.021-0.538l-0.027-1.219l-1.219-0.06l-0.029-0.537l-1.104-0.172v-1.049h-0.965l0.086-0.963l1.528-2.75h1.445v-5.129
		h-2.295v-4.76l-2.607-0.113v4.79h-4.364v4.789h-3.654v1.444L860.961,458.608z"/>
	<path id="path4327" fill="#00FF00" stroke="#000000" d="M874.421,475.851l0.326,4.733l1.238-0.062v1.989h1.397v-0.32h1.562v1.074
		h0.754v0.646h1.236v-2.154h1.453l-0.037,7.862h2.406v5.546h2.047v7.27l9.327-0.016l17.569-56.093h-10.575v3.845h-0.567v1.445h7.881
		v0.708l-0.965,1.304h-9.211v-2.664h-6.856v-4.619h-4.763v4.765h-2.407v4.814l-0.794,0.198h-1.391v2.069h-4.533v15.503l0.965,1.161
		l-6.01,0.085L874.421,475.851z"/>
</g>
<g id="Small-area_cities">
	<path id="path2269" fill="#00FF00" stroke="#000000" d="M598.831,92.511v7.323h2.692v7.162h2.746V92.457L598.831,92.511z"/>
	<path id="path2271" fill="#00FF00" stroke="#000000" d="M600.607,106.942v1.885h-5.979v0.861h-1.885l-0.433-0.431h-3.394v0.808
		l1.131,0.592v2.854h-2.639v1.023l2.423,0.27v1.454h-4.9v-8.239h-1.346v-1.185h-10.123v-4.9h4.523v-1.131l-0.485-0.323v-3.23h0.593
		v-9.262h5.008v2.154h0.916v1.346h-1.293v1.021h2.531v9.37h2.639v2.585h1.938v-7.162h-2.639V90.41h5.008v11.685h4.686v4.847H600.607
		L600.607,106.942z"/>
	<path id="path2273" fill="#00FF00" stroke="#000000" d="M660.58,167.674l0.17,4.081l0.312,1.559h-1.36v1.275l-1.53,1.048
		l-1.162-0.907l-0.964-0.028v-1.445h-2.976v-0.907l2.636-1.984v-0.793l1.021-0.907l-0.396-0.114l-1.021,0.794l-0.623-0.142
		l-0.793,0.396l-0.113-0.198l2.151-1.814l0.173-0.454h1.159l1.87-1.19l0.737,0.397l-1.87,1.332l0.938,1.304L660.58,167.674z"/>
	<path id="path2275" fill="none" stroke="#000000" d="M673.249,171.982l0.228,1.275l0.197-0.028l-0.197-1.275L673.249,171.982z"/>
	<path id="path2277" fill="#00FF00" stroke="#000000" d="M676.083,168.439l0.652,4.591h3.229v-4.875L676.083,168.439z"/>
	<path id="path2279" fill="#00FF00" stroke="#000000" d="M684.841,163.508v7.114h33.046l0.396,2.267h9.268l0.198,5.016h14.312
		v-9.354h23.522v-28.738h-9.381v-4.79h-42.938V146.9h-4.646v2.551h-5.812l-0.595,0.68v3.911h-0.851v6.49l-0.938-0.227v-0.652h-1.188
		l-1.871-1.36h-1.134l0.936,1.19v3.968L684.841,163.508z"/>
	<path id="path2281" fill="#00FF00" stroke="#000000" d="M696.432,154.297v2.466l1.105,0.482l0.312-0.596v-0.878h0.938v-1.19
		l-0.538-0.822L696.432,154.297z"/>
	<path id="path3192" fill="#FF0000" stroke="#000000" d="M572.383,720.496v2.521h7.086v-3.738h-0.936v-0.598h-1.021v0.513h-1.021
		v2.892l-1.36-0.114v-1.442L572.383,720.496z"/>
	<path id="path3194" fill="#FF0000" stroke="#000000" d="M515.785,563.401l1.531,2.353l1.587-0.992l-2.126-2.15L515.785,563.401z"/>
	<path id="path3196" fill="#FF0000" stroke="#000000" d="M489.854,565.301l6.267,10.603l10.515-6.944l-4.9-5.328l-8.137-2.097
		L489.854,565.301z"/>
	<path id="path3198" fill="#FF0000" stroke="#000000" d="M534.803,568.305l1.417-0.734l2.777-0.113v-1.646l-1.445,0.028l-1.502-2.04
		l2.976,0.793v-0.851l0.683,0.341h4.705l5.158-0.17v-3.798h5.045l0.479,0.563h2.749v-5.24h2.894l0.196-1.137v-2.437l-2.381-4.082
		l-3.26,2.126h-2.607l-1.357-0.368l-1.615,0.255v0.822l-2.066,2.153v1.843l-0.768,0.51l-0.936-2.381l-0.113-1.644v-0.737
		l1.247-1.161v-2.069h-0.769l-1.697,0.737v0.963l-1.417,0.567l-1.332-1.134v-5.498h-3.032v2.21h-0.681l-0.541,0.502h-1.831
		l-3.661-0.538l-3.396,6.838l4.523,0.862l-0.539,2.584h-1.131v1.938l0.97,0.916l-2.153,1.726h3.068v-0.861l1.725-1.023l0.056,2.804
		l-3.851,7.045l1.118,0.312L534.803,568.305z"/>
	<path id="path3200" fill="#FF0000" stroke="#000000" d="M487.365,513.604l6.189,8.35l1.238-0.811l1.131,1.133l2.315-1.453
		l-0.699-1.777h0.431l-0.32-0.808l1.989-1.4l-5.112-7.104l-2.104,0.646l-0.377,0.271l2.315,2.963l-2.046,1.508l-1.35-1.562
		l-0.754-2.854l-1.885-1.776l-1.346,1.188L487.365,513.604z"/>
	<path id="path3202" fill="#FF0000" stroke="#000000" d="M514.567,480.107v4.646h4.446v-2.126h-1.304v-1.445h-0.822v-0.623h-1.219
		v-0.709L514.567,480.107z"/>
	<path id="path2239" fill="#FF0000" stroke="#000000" d="M633.486,625.837l4.021-0.51l-0.085-7.284l-1.729,0.057v1.36h-0.454v-1.502
		l1.049-0.028l-0.028-2.097l1.077-0.028v-0.511l-2.066-0.17v1.757h-0.539l-0.027-1.87l-2.692-0.227l0.028,1.049l0.936,0.028v0.708
		l-0.964,0.454l0.283,3.907l0.567,0.539l-0.029,1.7l0.511,0.17L633.486,625.837z"/>
	<path id="path2241" fill="#FF0000" stroke="#000000" d="M629.717,630.372l-0.963-2.579v-1.814h1.812v1.275h0.879l-0.084-1.474
		h1.218v2.438h0.964v2.069L629.717,630.372z"/>
	<path id="path2246" fill="#00FF00" stroke="#000000" d="M681.596,663.032l-3.393,0.215v1.077h-1.562v2.312h3.284v-1.723h1.131
		v1.615h0.593L681.596,663.032z"/>
	<path id="path2288" fill="#FF0000" stroke="#000000" d="M627.762,547.448h1.715v1.179l-0.116,0.521l-1.536-0.238L627.762,547.448z"
		/>
	<path id="path4269" fill="#FFFFFF" stroke="#000000" d="M693.442,487.11l-1.454,0.104l0.161,0.811l1.508-0.107L693.442,487.11z"/>
	<path id="path4299" fill="#00FF00" stroke="#000000" d="M789.184,451.14v4.738h5.011v-4.361l-1.076-0.431L789.184,451.14z"/>
	<path id="path4306" fill="#00FF00" stroke="#000000" d="M798.984,489.103v2.265h-2.531v-2.479h-0.969v2.37h-0.646v2.153h-2.423
		v-2.262h-1.724v-1.992h1.236l0.646-0.915l4.359-0.216v1.185L798.984,489.103z"/>
	<path id="path4315" fill="#FFFFFF" stroke="#000000" d="M834.793,451.247l-0.161,2.639l0.915-0.054l0.323-2.531L834.793,451.247z"
		/>
	<path id="path4317" fill="#00FF00" stroke="#000000" d="M800.707,464.171l2.479-0.7v-2.208H802v-1.131h-0.754v-1.615h2.477v1.562
		h-1.396v0.861h1.077l0.319-0.218v-0.431h0.377v0.215h1.077v-2.262l0.377-0.431l-0.104-0.915h-1.077v-1.35l-2.585,0.058
		l-0.215,1.346l1.185,0.161v1.021h-1.508l-0.539-0.592l-0.699,1.723l0.107,0.915h1.077l0.054,0.973h-1.131l0.7,1.131
		L800.707,464.171z"/>
	<path id="path4329" fill="#00FF00" stroke="#000000" d="M897.654,461.146l1.559,1.357l1.646-3.429l0.17-1.758l-0.793-0.538
		l-0.967,1.077l0.256,0.989h-0.734v1.477l-1.021,0.227L897.654,461.146z"/>
	<path id="path4331" fill="#00FF00" stroke="#000000" d="M885.354,474.978h1.531l0.113-4.9h-5.839l-0.058,2.689h0.767v1.417
		l-0.567,0.396v0.369h2.721l0.029-1.786l-0.794-0.145v-1.159h1.162l0.964-0.651L885.354,474.978z"/>
</g>
</svg>
