<?xml version="1.0" encoding="utf-8"?>
<!-- Generator: Adobe Illustrator 16.0.0, SVG Export Plug-In . SVG Version: 6.00 Build 0)  -->
<!DOCTYPE svg PUBLIC "-//W3C//DTD SVG 1.1//EN" "http://www.w3.org/Graphics/SVG/1.1/DTD/svg11.dtd">
<svg version="1.1" id="Layer_1" xmlns="http://www.w3.org/2000/svg" xmlns:xlink="http://www.w3.org/1999/xlink" x="0px" y="0px"
	 width="289.951px" height="447.948px" viewBox="9 29.645 289.951 447.948" enable-background="new 9 29.645 289.951 447.948"
	 xml:space="preserve">
<g id="countylayer">
	<path fill="#FEFEFE" stroke="#000000" stroke-width="2" stroke-linejoin="round" d="M10,197.399l0.666,0.52l0.729,1.811
		l0.709,0.626l0.774,1.768l2.712,2.969l-0.249,0.426l0.247,1.697l0.912,1.607l1.285,0.916l-0.551,1.758l0.193,0.403l-0.532,2.003
		l0.212,1.896l1.495-0.587l1.326,0.256l0.665,0.914l0.966,0.401l1.159,1.313l-0.14,1.338l-0.375,0.177l0.287,1.895l2.855,1.132
		l1.943,0.078L29,222.024l2.122,0.472l0.304,0.811l1.191,1.16l2.047,0.242l3.258,2.009l1.521,0.331l0.612,1.541l1.44-0.164
		l-0.069,0.552l1.265,1.27l1.228,2.644l1.568,1.23l0.157,1.028l1.887,3.539l0.164,2.166l1.397,0.654l-0.013,1.938l1.493,0.114
		l0.843-0.889l2.342,0.824l2.141-0.123l1.057,2.239l1.695,0.176l0.384,0.41l1.228,0.783l0.163,1.229l-0.859,0.977l1.193,0.449
		L61,251.236l-1.945,0.369l-1.225,0.61l0.779,0.812l0.828,2.228l1.166-0.434l0.096,0.776l0.845,1.312l1.199,0.934l1.625,0.612
		l-1.339,2.401l-1.5-0.642l-1.315,0.519l-0.402,1.516l1.842,2.519l0.212,2.115L63,268l0.104,0.749l0.945,1.896l1.251,1.015
		l1.048,1.379l0.027,1.382l0.837,2.021l0.012,2.213l2.357-0.404l1.067,0.05l1.143-0.692l1.545,0.66l0.459-0.393l2.519,2.346
		l1.142,0.094l1.461,1.581l-1.167,0.113l-0.917,1.349l0.592,0.855l0.133,1.018l-0.571,0.584l1.2,0.631l1.585,0.074l1.238,0.771
		l2.316,0.184l1.554-0.548l0.785,1.259l1.822,0.129l1.475,0.883l1.182,0.128l1.491,2.507l-0.03,3.581l-1.5,1.657l-0.57,1.498
		l-0.646,0.331l-0.794,3.619l-2.107-1.695l-1.383,2.072l0.342,1.195l-1.968,3.079l0.14,0.312l1.375,0.689l9.25,8.57l0.096,1.635
		l1.472,0.63l0.891,0.38l-0.101,1.32l1.327,1.763l-1.037,1.57l2.112,4.467l3.128,1.838l2.73,2.257l0.229,0.955l2.773,1.94
		l-1.039,2.765l-1.767,0.454l-1.749,2.285l-0.312,1.938l1.601,1.163l0.706,1.767l1.657,1.134l1.228,1.244l1.519,0.208l0.903-0.205
		l1.368,0.582l1.022,0.913l0.367,0.959l1.85,1.076l1.773,1.528l0.104,0.974l0.88,0.197l0.058,1.947l1.092,0.586l0.296,0.44
		l1.415,3.082l0.684,0.735l0.678-0.781l0.737,0.168l-0.151,0.825l1.557,1.095l1.188,1.422l-0.746,1.207l-0.113,0.878l0.803,1.776
		l1.173,1.199l0.125,3.037l0.436,0.643l0.844-1.064l0.723-0.195l0.819,1.507l0.877,3.478l1.49,1.508l1.279,1.646l0.698,2.956
		l-1.325,0.594l-1.349,0.181l-0.693,0.498l-0.509,1.194l-0.405,0.902l0.476,0.709l0.458,1.752l-0.354,0.771l0.781,2.782
		l-0.347,0.772l0.143,0.901l-0.393,1.54l-1.349,1.644l0.805,1.085l1.542,3.747l1.483,1.286l1.408-0.037l0.136-0.613l1.981-0.714
		l0.821,0.034l0.466,0.604l-0.565,1.127l0.496,0.792l-0.935,1.467l0.097,2.188l-0.408,2.321l0.858,1.478l1.268,1.026l0.614,1.393
		l0.916,0.243l0.847,0.804l0.88,1.335l0.839,0.503l0.049,0.943l1.64,0.615l-0.357,1.837l2.028-0.504l0.047-1.004l1.777-0.062
		l3.385,10.384l0.816,7.529l0.113,2.401l-0.152,1.894l-0.443,1.071l0.843,0.706l0.571,1.302l1.14,0.865l0.882,1.731l0.792,0.525
		l0.143,0.805l-0.229,2.279l0.637,1.857l-0.464,0.855l-1.337-1.805l-0.947-0.868l-1.31-0.511l-1.225,0.351l-0.143,1.292l1.17,1.46
		l0.555,1.323l0.07,1.228l-0.229,2.97l-0.591,1.247l-0.748,0.028l-1.356-0.945l-1.959-0.248l-1.106,1.211l-0.359,3.786l0.494,1.84
		l1.114,2.212l0.45,2.14l-0.314,3.253l-0.666,1.296l-1.758,0.674l-1.603-0.184l-0.354-0.404l-3.278-1.154l-1.517-0.302l-5.956-0.311
		l-2.245,0.274l-1.305,0.378l-1.38,1.062l-0.356,0.569l0.357,1.372l1.637,0.106l11.473-0.218l42.211,0.386h0.594l0.85,0.053
		l0.783-0.053l10.298,0.013l2.377,0.04l0.189,0.004l1.234-0.004l0.358,0.025l1.126,0.021l2.518,0.067l0.48-0.066l0.31-0.048
		l5.031,0.042l1.798,0.016l3.841,0.036l4.676,0.007l3.196,0.005l0.591,0.016l8.322-0.089h0.619l-1.236-1.317l-0.548-1.384
		l1.485-2.312l0.733-1.085l-1.78-2.324l-0.487-0.194l-0.32,0.212l-1.078,0.059l-0.31-0.013l-0.524-0.249l0.195-1.761l-0.693-0.816
		l-2.125,0.066l-1.139-1.256l-0.1-0.566l-1.832-2.575l0.691-0.818l0.343-2.075l-1.289-2.576l3.014-0.946l-0.99-1.382l2.764-2.581
		l-0.051-1.068l0.494-0.378l-0.351-3.206l0.542-0.755l-0.546-2.137l2.073-2.143l0.942,0.626l0.987-0.752l1.28-0.317l0.493-0.816
		l-0.348-1.005l-0.791-0.566l0.049-1.763l1.383-1.444l-0.105-1.452l-0.692-1.066l-0.498-3.261l-0.593-0.63l-0.005-0.883
		l-2.271-4.716l-1.288-0.436l-0.502-2.264l-1.429,0.256l-0.642-0.376l-0.298-1.634l-1.137-0.816l0.688-2.201l0.988,0.69l1.279,0.113
		l1.05,1.023l1.761-0.07l0.65-0.947l2.124,0.123l0.541-1.384l-0.199-0.757l0.591-1.444l-1.729-1.255L228.17,411l-1.526,0.266
		l-1.188,0.24l-2.223-0.438l-1.928-2.01l0.195-2.326l2.068-4.276l0.643,0.564l1.233-0.19l1.037,0.376l2.913-0.255l1.529-0.442
		l0.84,0.753l3.604-0.067l-1.337-2.702l0.196-1.006l-1.829-2.072l-0.988-0.689l-0.15-1.572l-0.79-0.25l-0.1-0.629l-1.483-2.198
		l-0.102-1.948l-0.889-0.313l0.737-2.39l1.428-2.14l-0.149-0.929l-1.581-1.584l0.048-1.006l0.534-1.446l-1.326-1.317l-1.038-2.453
		l0.096-1.067l4.244,0.026l3.05,0.025l5.549-0.196l8.632,0.058l14.11,0.09l34.067-0.272l-0.15-0.754l-1.531-0.813l0.933-1.637
		l0.493-1.38l0.931-1.013l0.641-0.19l0.341-1.447l-0.004-1.383l-0.796-2.45l-0.888,0.065l-1.786-3.956l-0.696-1.946l0.146-0.881
		l-0.595-1.382l0.484-2.768l-1.838-4.773l-0.004-1.571l-1.336-1.757l-0.789,0.002l-4.067-9.858l-0.096-0.685l-1.531-2.613
		l-0.58-0.492l-1.208-1.926l-2.813-2.817l-0.197-0.557l-4.193-5.33l-1.101-1.395l-0.065-1.78l-1.222-1.297l-0.939-1.688
		l-0.443-0.068l0.141-1.006l-1.622-0.123l-0.862-2.462l-1.848-3.168l-0.736-0.531l-0.715-3.14l-0.127-4.107l0.374-0.773l1.109-6.873
		l1.495-3.976l3.588-13.142l0.545-0.835l0.435-0.671l1.463-5.599l1.617-2.959l-0.052-1.257l-1.086-1.066l0.422-8.677l1.394-2.442
		l0.075-0.73l-0.812-2.321l-2.305-2.74l0.1-1.087l-1.072-0.571l-0.578-1.618l-0.113-1.488l0.643-1.038l-0.781-1.285l-0.852-0.652
		l-0.168-0.925l0.618-1.691l-0.484-1.95l-1.125-3.418l-0.415-2.745l-0.92-3.026l-0.383-2.665l-0.783-1.618l-1.92-7.982l-0.773-1.135
		l-0.065-1.126l-0.474-0.914l-0.066-1.73l0.415-0.473l-0.429-2.071l-0.736-2.041l-0.953-0.883l-0.861-2.151l0.162-1.59l-1.422-3.156
		l-0.098-1.287l-1.231-2.824l-0.48-0.441l-0.794,0.122l-1.197-1.587l-0.438-2.082l-1.198-2.07l-1.131-1.381l-0.658-1.131
		l0.258-1.016l-0.315-0.512l-0.855,0.323l-0.863,0.938l-1.272,0.354l-1.646,2.136l-0.778-0.059l-1.696,1.079l-1.173-1.014
		l-0.061-3.36l-0.473-0.733l-0.034-1.227l-0.466-1.156l1.052-0.484l0.8-0.806l0.747-0.042l1.272-0.616l0.648-1.933l-1.198-1.758
		l-1.133-1.064l0.006-1.046l0.485-0.341l1.281-1.03l-0.412-1.8l-0.606-1.015l-1.026-2.573l-0.898-1.648l-1.706-0.762l-1.903-1.294
		l-0.887,0.434l-2.263,0.054l-0.581,0.424l-1.864-1.516l-0.205-0.483l-2.202-1.877l-0.804-1.568l-2.194-2.039l-0.954-2.594
		l-1.7-2.513l0.25-0.916l1.192-1.027l0.367-1.912l-1.149-1.939l0.03-1.218l-1.251-1.97l-1.305-1.175l-0.497-1.378l-1.365,0.414
		l-0.543-0.653l-0.124,1.077l-0.722,0.504L221,137.206l-1.076-0.13l-1.281-0.683l-1.259-2.493l0.57-2.847l-0.993-3.137l-1.656-6.99
		l1.345-0.22l0.311-0.858l-0.937-1.97l0.235-0.765l-0.911-0.502l-0.661-1.599l-0.565-0.472l0.305-0.886l-0.865-1.739l-1.092-1.206
		l0.329-0.594l-0.652-0.452l-0.15-1.056l-2.144-1.728l-0.973-0.11l-0.551-2.021l-0.888-1.528l-1.24-0.663l-0.457-1.548l-1.1-1.85
		l0.022-1.931l-0.259-0.322l-0.687-5.582l-0.417-1.418l-0.111-1.7l-0.613-1.599l-0.686-3.711l-0.573-1.589l-0.722-1.175
		l-0.707-0.453l0.061-2.303l-0.925-0.684l-0.135-1.358l-1.859-2.282l-0.699-2.454l-1.106-0.733l-0.714-1.82l-1.593-2.937
		l-0.314-2.142l-0.974-2.815l0-0.815l-1.067-2.162l-1.404-1.609l-0.667-2.424l-1.146-3.158l-0.777-2.836l-0.525-1.206l-0.862,0.402
		l-3.071,0.384l-3.143-0.733l-0.079-1.278l-0.642-0.282l-1.512,0.795l-4.09,1.006l-1.121-0.835l-1.136-1.921l-1.998-1.509
		l-1.058,0.201l-1.74,2.243h-1.426l-1.355-0.694l-1.418,0.814l-1.833,0.061l-0.721,0.492l-2.484,3.289l-0.658,0.191l-2.123-0.876
		l-3.792-2.234l-2.256-1.58l-2.397-0.906l-0.721-0.685l-0.273-0.905l-1.652-1.278l-1.261-0.021l-2.764-2.034l-0.031-0.825
		l-1.472-1.51l-0.775-0.393l-1.009-1.761l-0.758-2.093l-0.783-0.822l-4.034,5.118l-0.293,0.313L140.02,49.79l4.157,10.564
		l-2.896,9.365l-9.113-1.201l-7.017,11.436l1.078,0.19l0.534,5.785l2.988,2.14l-6.326,3.075l-5.647,9.433l-17.991,30.02
		l-10.128,2.921l-52.875,15.423l-17.294,5.164l1.766,1.969l-0.232,9.164l-1.379,1.504l-0.399,1.948l-3.109,4.641l0.521,5.849
		l1.423,0.507l0.878,2.373l-2.608,1.987l0.15,2.035l-0.723,1.292l-1.286,1.113l-0.886,0.458l-0.416,1.006l0.41,0.749l-1.312,2.375
		l-1.429,1.415l-0.002,0.451L10,197.399z"/>
</g>
<g id="placelayer">
	<path fill="#D0D0D0" stroke="#000000" stroke-linejoin="round" d="M138.102,328.54l-0.034,3.148l2.287,0.183l0.231,4.631
		l0.025,0.548l1.523-0.826l0.348-1.753l0.637-1.005l-0.553-1.015l0.605-1.155l-0.018-2.251l0.75-0.579l1.896,3.531l2.728-1.464
		l0.125-0.869l4.653-2.771l0.27-0.185l-0.329-0.495l-0.57-0.707l3.105-3.089l-3.357-3.494l-2.351-3.287l-1.918-1.875l-1.137,1.577
		l0.326,0.603l-1.728,1.368l1.034,1.19l-0.315,0.477l4.246,5.208l-0.703,0.324l-1.431,1.255l-1.458-2.117l-5.055,3.568l-0.679,1.236
		L138.102,328.54z"/>
	<path fill="#D0D0D0" stroke="#000000" stroke-linejoin="round" d="M216.708,432.108l0.032,2.556l1.021,0.289l0.915-0.373
		l-0.002-2.499L216.708,432.108z M196.458,440.938l0.921,1.848l1.021,0.019l-0.046-0.239l0.01-1.581L196.458,440.938z
		 M191.18,368.12l0.434,1.035l0.035,0.452l0.327-0.025l0.489-0.135l-0.059-0.57L191.18,368.12z M187.301,367.33l-0.312,0.545
		l0.607,1.014l-0.111,0.457l0.547,0.114l-0.16-0.297l0.576-0.468l0.165-0.49l-0.146-0.796l-0.238-0.273l0.745-0.796l0.038-0.801
		l-1.908,1.309L187.301,367.33z M175.088,402.467l-0.011,0.992l0.088,1.491l1.706-0.233l0.534-0.863l0.016-1.414l-0.55,0.014
		l-0.007,1.038l-0.961-0.985L175.088,402.467z M151.968,380.693l-0.706,5.11l7.867,3.015l4.866,1.85l-1.673-7.877l0.352,0.409
		l1.204-0.249l1.163,0.383l0.004,0.702l3.244,0.175l0.354,1.59l-0.247,1.479l1.854,1.543l-0.271,0.648l0.944,0.401l0.287-0.676
		l0.918,0.631l1.768-0.202l0.367,0.639l-0.783,0.644l1.079,0.011l-0.374,2.172l-1.431,0.014l-0.545,0.215l-1.68,3.421l5.91,0.029
		l0.388,2.612l-1.756-0.067l-0.004,2.005l2.358-0.059l-0.055-1.841l2.253,0.068l0.161,1.846l0.985,0.003l7.878,0.003l-1.708,1.575
		l-0.237,0.962l1.221,3.476l-1.137,1.949l-0.079,0.823l1.553,1.666l0.795,0.002l0.648-1.012l1.093-0.83l0.46-1.595l2.195,0.371
		l1.167-0.406l-4.012,2.429l0.094,1.428l0.866-0.051l-0.034,6.142l-2.736,0.329l-0.688,1.204l-0.261-0.228l-1.697-0.518
		l-0.528-1.341l-2.698-1.707l-3.413-5.116l-0.268-0.358l-0.434-0.071l-0.207,0.153l-0.46,0.024l-0.054-0.2l-1,0.214l0.034,0.922
		l0.339,5.903l1.173,0.426l-2.078,1.519l1.947,2.557l-2.403,1.837l1.199,1.526l-0.575,0.467l1.867,2.392l-0.625,0.987l-0.123,1.007
		l0.453,0.802l0.141-0.09l2.13-1.827l1.258-0.763l1.652-0.474l1.733-0.029l0.543-0.396l0.288-2.325l1.071-4.531l0.432-0.046
		l1.13-0.249l1.56,0.57l1.254-0.018l0.073-0.829l2.452,0.71l0.556-0.419l0.134-3.641l-0.368-1.788l0.159-2.906l0.105-0.012
		l0.102-3.887l-0.179-0.723l-1.538-9.68l0.612,0.092l1.918,0.102l0.015-0.728l-0.66-0.024l-0.027-0.361l-0.383,0.034l-0.019-0.217
		l0.387-0.03l-0.012-0.201l0.473-0.039l-0.005-1.067l0.241-0.005l0.249,1.474l1.301,0.482l-0.357-1.38l-0.633-0.004l0-1.305
		l0.741,0.604l1.375,0.026l0.009,0.688l-0.226-0.164l-0.461,2.306l0.684,0.023l0.526,0.03l0.002-0.28l0.548-0.06l-0.101-0.273
		l0.81-0.104l0.053,0.784l2.02,0.016l0.005-1.466l0.404-0.004l0.004-0.66l-0.397-0.525l0.007-1.119l0.423-0.764h-0.283l-0.884-0.776
		l-3.347-0.71l0.356-2.839l2.589,0.88l0.573-1.714l-2.114-0.706l0.114-2.127l0.539-1.305l-0.267-0.415l1.105-0.107l0.046-1.04
		l-0.492,0.051l-0.263-1.961l-1.356-0.437l-0.946,1.083l-1.067-0.822l-0.496-2.049l0.556-0.529l-2.25,0.375l0.666-0.701
		l-0.461-1.993l-1.977,0.304l0.541-2.348l1.239-0.074l0.128,1.057l0.351-1.037l2.417-0.191l-0.071-2.299l-1.697,0.023l-0.797,0.48
		l-0.701-0.615l-0.076,0.135l-0.097,1.362l-1.697,0.632l-0.054,1.625l-0.798,0.124l-0.25,0.153l-0.67-0.603l-0.172-0.108
		l-0.201-0.239l-0.288-0.093l-0.638-0.342l-0.779-3.031l-0.378-0.867l-0.569,0.024l-1.833,0.08l-0.472-2.181l-0.139-0.521
		l-2.112-4.613l-1.334,0.908l-0.387,1.008l-1.238,0.029l-1.129-1.83l-0.654,0.472l-0.896-1.472l-1.768-2.912l-0.635,0.393
		l-0.897-1.464l0.533-0.375l-1.083-0.366l-1.26-2.113l-3.192,1.176l0.803,1.945l-2.192,0.903l-0.551-0.824l-0.148-0.372
		l-0.969-1.906l-0.933-2.261l-2.089,0.81l0.687,0.953l1.067,0.665l0.15,0.296l-1.577,0.658l0.608,0.957l-0.614,0.275l3.245,4.6
		l-1.748,1.239l-3.715,2.728l0.437,0.561l-5.475,2.218l0.583,0.961l-0.303,0.653l1.849-1.333l0.651,1.077l2.059-1.484l1.072,1.83
		l-1.122,0.832l1.274,1.739l2.745-2.05l1.977,2.518l-0.219,0.091l-0.671,0.105l-0.651,0.29l0.338,1.01l-0.158,0.178l-0.293-0.235
		l-0.17,0.208l-0.577-0.512l0.121,0.543l-0.602,0.464l0.015,0.485l-0.403-0.14l-0.814,0.355l-0.797-0.077l0.04-0.265l-0.469-0.048
		l0.098-0.729l-0.608-0.063l-0.327-0.767l-1.489,0.48l-0.627-0.788l0.178,0.247l-0.01,0.572l-0.622,0.017l-0.265-0.217l-0.251-0.38
		l0.241-0.281l-0.547,0.29l-1.16-0.094l-0.461,0.184l-0.324,1.15l0.3,1.935l-0.206,0.207l0.634,0.36l-0.682,0.81L151.968,380.693z
		 M169.806,379.73l-0.448-1.02l0.808-0.597l0.865,1.044l-0.297,0.369L169.806,379.73z M169.853,382.693l-0.229,0.02l0.391-0.987
		l0.529-0.287l0.391,0.823l0.406-0.036l-0.502,1.298l-0.839-0.37l-0.291-0.081L169.853,382.693z M171.264,373.271l-0.074-0.182
		l2.239-0.496l0.037,0.201l0.426,0.932l2.085-0.134l-0.3,0.843l0.602,1.057l-0.826,0.948l0.21,0.437l-1.261,0.293l-0.132,1.051
		l-1.238-1.279l-0.617,0.147l-0.297-1.365l0.611-1.293l-1.148,0.259L171.264,373.271z M176.671,383.926l0.016-0.736l0.161,0.051
		l0.076,0.332l0.301-0.066l-0.074-0.34l0.166-0.044l0.076,0.316l0.206-0.049l0.166,0.733l-0.145,0.072l-0.023,0.059l-0.18,0.143
		l-0.184,0.07l-0.051,0.002l-0.12-0.299L176.671,383.926z M192.558,390.566l-0.106-0.593l0.669-0.054l1.118,0.287l-0.006,0.323
		L192.558,390.566z"/>
	<path fill="#D0D0D0" stroke="#000000" stroke-linejoin="round" d="M84.271,257.106l0.141,6.336l6.644,0.093l0.098,3.49
		l-0.022,0.408l1.179,0.001l1.161,0.634l2.678,0.025l0.658-0.305l2.103,0.023l1.837-1.724l0.967,1.06l2.785-2.627l7.291-6.844
		l1.19,0.887l0.234-0.303l-1.179-0.672l-1.368-1.335l-1.379-0.205l-1.436-1.449l-0.773-0.139l-1.742-1.317l0.876-0.39l1.884,1.367
		l2.57,0.109l-1.398-0.769l0.078-1.584l2.172-0.382l0.286-0.812l0.08-3.385l-1.76-0.182l-3.303-0.131l-0.499,2.245l-0.729-0.002
		l-0.135,1.869l-0.912,0.063l-0.981,1.041l-1.156,0.213l-0.198-1.727l-1.53-0.237l-2.694-2.704l-2.039-0.106l-0.684-1.033
		l-3.304-1.413l-1.604-0.049l-0.704,1.169l-2.026,2.095l1.354,1.02l-2.272,2.105l0.881,0.83l0.066,0.933l-1.728-0.467l0.363,2.521
		l1.452-0.168l0.657,0.419l-0.103,0.097l-0.327,1.303L84.271,257.106z"/>
	<path fill="#FEFEFE" stroke="#000000" stroke-linejoin="round" d="M196.378,354.047l-0.02,3.164l2.27,3.211l0.88,1.242l0.518-0.584
		l2.772-3.244l1.229-0.706l3.402-0.371l0.059-0.161l0.279-0.605l-0.15-8.019l2.23-0.026l-0.035-1.05l-0.555-0.667l-1.394-0.55
		l1.078-2.324l-3.655,0.013l0.026,2.156l-5.941,0.083l-1.679-0.269l-0.478,0.237l-0.169,0.028l-0.599,0.394L196.378,354.047z"/>
	<path fill="#FF0000" stroke="#000000" stroke-linejoin="round" d="M215.972,431.88l0.007,2.777l0.76,0.007l-0.032-2.556
		l-0.119-0.235L215.972,431.88z M191.38,458.46l0.036,1.718l2.705-0.003l-0.215-1.672L191.38,458.46z M188.313,446.985l-0.044,3.134
		l2.302,0.019l0.172,4.541l-0.66,0.05l-0.549,1.673l-0.67,1.038l-0.166,1.002l2.612-0.163l2.727,0.044l0.226,1.771l-0.142,0.171
		l0.579,4.179l0.582,3.358l-1.149-0.094l-0.642-0.597l-3.468-0.182l0.028,0.751l5.25,0.243l1.216,4.101l0.648,0.499l0.528,0.081
		l0.011,1.193l0.021,2.676l0.189,0.004l1.234-0.004l0.358,0.025l1.126,0.021l2.518,0.067l0.48-0.066l0.31-0.048l5.031,0.042
		l1.798,0.016l3.841,0.036l0.281-0.709l-0.114-3.106l-1.807-0.029l0.736-1.564l0.341-1.925l-1.776,0.035l-0.786-1.348L210.102,468
		l-0.872-1.062l-0.255-0.743l-0.329-1.524l-0.262-1.676l0.963-1.047l0.093-4.551l-0.331-1.871l-0.306-0.673l-0.56-0.878
		l-1.083-1.066l-0.618-0.305l-0.978,0.092l-0.514,1.396l-0.259,1.101l-0.126,1.396l-0.103-0.559l-0.423-0.52l-0.477-0.129
		l-0.65-0.043l-0.819-0.428l0.279,0.044l0.113-0.877l0.716,0.004l-0.827-1.406l0.083-1.276l-0.681-0.111l0.007-7.837l-3.226,1.754
		l-1.215-2.292l-6.616,1.565l-1.336,0.432l0.108,2.096L188.313,446.985z"/>
	<path fill="#FEFEFE" stroke="#000000" stroke-linejoin="round" d="M221.797,288.586l0.067,1.178l1.038,1.783l-0.662,1.023
		l0.3,0.828l0.782,0.379l-0.229,0.95l0.527,0.621l-1.004,2.261l0.358,0.379l1.695-0.113l0.935,1.436l-0.13,0.729l1.02,0.786
		l0.248-0.342l1.761,0.514l2.778-1l1.98,0.497l-0.238-0.913l1.797-0.64l0.531-1.866l0.752,0.573l2.081,0.643l1.935,0.845
		l1.904-0.354l0.722-1.229l0.106-2.445l-1.088-5.217l-0.734-1.006l-1.397-0.011l-0.016-1.979l-0.695-0.168l-2.572,0.505
		l-1.483-0.468l-0.876,0.612l-1.264-0.854l-0.047,0.798l-1.938,0.97l0.026-0.646l-1.155-0.914l-1.13,0.217l-1.413,0.689
		l-1.463-0.514l-2.237-0.073l-0.917,0.427L221.797,288.586z"/>
	<path fill="#D0D0D0" stroke="#000000" stroke-linejoin="round" d="M30.802,207.202l0.12,1.784l1.594,1.163l5.058,3.057l2.508,1.184
		l6.834,2.407l1.117-1.962l0.645-1.387l0.38-0.903l1.306,0.625l0.341,0.783l1.519,0.254l0.803,0.61l0.448,0.993l1.186,0.483
		l0.296-0.792l-0.684-0.51l-4.935-2.749l1.648-4.364l0.916-2.036l-1.249-0.464l-3.344,0.549l-2.306-1.916l-1.111-0.495l-1.104-2.452
		l-1.812-3.238l-5.419,4.347l-1.599-2.022l-0.383,0.443l0.267,1.12l1.077,0.977l-0.989,0.789l-0.673,0.649l-1.596,1.989
		L30.802,207.202z"/>
	<path fill="#FEFEFE" stroke="#000000" stroke-linejoin="round" d="M119.901,297.613l1.353,3.111l-0.588,2.456l0.459,0.038
		l1.137-0.93l1.123-0.176l1.142,0.861l1.378-0.964l2.261-0.264l1.508,0.337l1.989,0.372l0.113-0.042l0.601,0.574l0.575-0.469
		l1.5-0.281l1.469-0.609l0.561,0.148l-0.14-1.401l-1.316-1.28l-0.346-1.43l-2.058-1.551l-0.45-0.791l-1.444-0.627l-1.326-1.659
		l-0.816,0.741l-1.072-0.931l-1.982,0.791l-0.924-0.622L119.901,297.613z"/>
	<path fill="#FEFEFE" stroke="#000000" stroke-linejoin="round" d="M88.826,199.04l-0.045,0.172l0.048,0.242l0.045,0.072
		l0.301,0.108l0.507,0.452l0.386,2.035l0.738,1.797l1.126,1.445l0.369,1.648l1.11,1.179l1.445,2.274l1.216,1.097l0.02,0.925
		l0.958,0.899l1.016,1.597l2.604-0.125l1.526,1.145l0.86,1.191l-0.76,0.056l-0.617,1.291l0.928,3.537l-0.878,0.426l-0.741,0.419
		l2.197,3.3l0.791-1.207l0.935-0.54l-0.012-0.611l0.346-0.461l3.151-0.97l2.18-2.547l0.019-1.341l1.813,0.565l2.658-0.196
		l4.136-2.744l1.695-0.942l0.314-1.387l-0.182-0.934l-1.094-1.933l-0.127-0.283l-0.34-0.459l-0.526-0.471l-0.779-0.854l-0.624-0.339
		l-0.271-1.04l-2.235-2.046l-1.899-2.811l-2.362-1.869l-0.688-0.485l-0.541,0.447l-0.917,0.092l-1.391,3.207l-3.293-0.571
		l-0.978-0.379l0.453,0.996l0.924,0.826l0.993,1.417l0.189,1.138l-2.709,0.302l-0.107-0.767l-0.92-0.532l-0.347-0.714l-1.848-0.468
		l-1.671-1.364l-1.648-0.794l-0.473-0.511l-1.199-0.171l-0.028-0.883l-0.747-1.898l-0.62-2.228l-1.709-1.794l-0.386-0.999
		l-0.374-0.246l0.259,0.328l-0.923,0.838l-0.181,1.972l-0.706,1.121l-0.163,0.114L88.826,199.04z"/>
	<path fill="#FEFEFE" stroke="#000000" stroke-linejoin="round" d="M82.659,226.238l0.155,0.432l0.606,1.217l2.166,1.123
		l0.773,0.733l0.253,0.796l0.155,3.47l0.298,1.091l-0.668,3.502l0.257,0.921l-0.143,1.255l1.063,0.969l1.464-0.011l1.996,2.258
		l-0.678,1.154l1.604,0.049l3.304,1.413l0.684,1.033l2.039,0.106l2.694,2.704l1.53,0.237l0.198,1.727l1.156-0.213l0.981-1.041
		l0.912-0.063l0.135-1.869l0.729,0.002l0.499-2.245l3.303,0.131l0.281-1.357l0.041-0.766l-0.55-0.404l0.134-1.89l-0.943-0.792
		l0.125-0.919l-0.348-1.039l-1.299-1.616l-0.458-1.162l-0.159-1.693l-0.936-1.368l-0.143-2.623l-0.312-2.205l-0.731-1.633
		l-0.887-0.292l-0.754-1.138l-0.574,0.025l-3.026-1.981l-1.562-0.057l-1.022,0.526l-0.461-0.901l-1.489-1.425l-0.218,0.262
		l0.277,0.575l-1.488,2.5l-3.181,0.454l-0.322,1.535l-1.02-0.566l-1.691-1.667l-1.952,0.155l-1.496-0.811l-0.475,0.081
		L82.659,226.238z"/>
	<path fill="#FEFEFE" stroke="#000000" stroke-linejoin="round" d="M112.069,290.819l-0.743-0.287l2.108,2.509l2.09-0.542
		l1.798,0.379l1.354,0.727l0.753-0.075l0.899,0.916l3.376-3.423l3.435-3.453l-0.561-0.869l-0.297-1.316l-1.042-0.626l0.362-1.05
		l0.04-1.793l-1.96-0.002l-0.894-0.819l-1.275-0.604l-0.956,0.068l-1.217-0.533l-1.512-1.346l-0.561-0.084l-1.142,0.744l-1.23,3.66
		l0.443,0.909l-0.913,1.235l-0.156,0.76l0.996,1.39l-0.628,1.768l-0.603,0.504l-1.472,0.392L112.069,290.819z"/>
</g>
</svg>
