<?xml version="1.0" encoding="utf-8"?>
<!-- Generator: Adobe Illustrator 16.0.0, SVG Export Plug-In . SVG Version: 6.00 Build 0)  -->
<!DOCTYPE svg PUBLIC "-//W3C//DTD SVG 1.1//EN" "http://www.w3.org/Graphics/SVG/1.1/DTD/svg11.dtd">
<svg version="1.1"
	 id="svg19965" xmlns:svg="http://www.w3.org/2000/svg" xmlns:sodipodi="http://sodipodi.sourceforge.net/DTD/sodipodi-0.dtd" xmlns:dc="http://purl.org/dc/elements/1.1/" xmlns:cc="http://web.resource.org/cc/" xmlns:rdf="http://www.w3.org/1999/02/22-rdf-syntax-ns#" xmlns:inkscape="http://www.inkscape.org/namespaces/inkscape" inkscape:version="0.45" sodipodi:docname="outputmap.svg" sodipodi:docbase="C:\Files\wikibot" inkscape:output_extension="org.inkscape.output.svg.inkscape" sodipodi:version="0.32"
	 xmlns="http://www.w3.org/2000/svg" xmlns:xlink="http://www.w3.org/1999/xlink" x="0px" y="0px" width="2333.289px"
	 height="587.651px" viewBox="29.602 26.949 2333.289 587.651" enable-background="new 29.602 26.949 2333.289 587.651"
	 xml:space="preserve">
<g id="Expanded_Riverside">
	
		<sodipodi:namedview  height="1700px" width="2400px" inkscape:window-height="579" inkscape:window-x="44" inkscape:current-layer="svg19965" inkscape:pageshadow="2" inkscape:pageopacity="0.0" inkscape:window-width="748" inkscape:window-y="44" inkscape:cx="1200" objecttolerance="10.0" inkscape:zoom="0.22235294" borderopacity="1.0" pagecolor="#ffffff" guidetolerance="10.0" inkscape:cy="850" gridtolerance="10.0" bordercolor="#666666" id="base">
		</sodipodi:namedview>
	<polygon fill="#8CCBEF" stroke="#000000" stroke-width="3" points="1347.731,603.896 1193.239,326.41 1152.741,290.412 
		1073.245,246.914 975.75,206.416 900.754,176.417 846.756,158.418 774.76,131.419 764.26,113.42 752.261,81.922 751.156,77.533 
		724.103,77.197 721.702,77.097 721.702,77.097 694.903,76.797 694.903,76.797 635.702,76.497 608.903,76.097 596.202,75.997 
		587.903,75.797 571.103,75.697 571.103,75.697 570.803,101.297 570.403,101.297 568.003,101.297 564.903,101.297 564.903,101.297 
		558.803,101.297 547.501,101.197 546.603,101.197 539.202,101.097 525.103,101.197 524.202,101.197 519.304,101.397 
		510.405,100.797 510.405,100.797 505.005,100.697 505.005,100.697 501.807,100.497 492.406,100.397 492.406,100.397 
		486.206,100.697 481.406,100.697 481.406,100.697 477.706,100.797 477.706,100.797 473.607,101.097 473.607,101.097 
		472.706,101.197 445.008,100.897 432.508,100.797 430.609,100.797 418.109,100.397 418.109,100.397 404.408,100.097 
		404.408,100.097 399.408,100.197 367.808,99.797 367.808,99.797 358.408,99.597 358.609,86.897 358.609,86.897 345.408,86.797 
		345.408,86.797 326.208,86.497 326.208,86.497 326.109,86.497 326.109,86.497 326.007,86.497 326.007,86.497 324.109,86.497 
		324.109,86.497 323.007,86.397 323.007,86.397 322.808,86.397 322.808,86.397 318.609,86.197 318.609,86.197 316.208,86.097 
		314.811,85.997 314.811,85.997 307.708,85.697 300.908,85.497 300.908,85.497 298.809,85.497 295.207,85.497 295.207,85.497 
		294.107,85.597 294.107,85.597 289.906,85.397 289.906,85.397 289.007,85.497 283.109,85.297 283.109,85.297 282.709,85.297 
		282.709,85.297 281.908,85.297 281.908,85.297 281.109,85.297 281.109,85.297 278.908,85.297 277.309,85.297 277.309,85.297 
		276.908,85.197 276.609,85.197 276.609,85.197 276.507,85.197 276.507,85.197 271.109,85.197 271.109,85.197 270.809,85.197 
		270.809,85.197 270.309,86.097 270.309,86.097 269.609,85.597 269.609,85.597 269.507,85.097 269.507,85.097 262.609,84.997 
		260.309,84.897 260.309,84.897 260.207,84.897 260.207,84.897 258.207,84.997 258.207,84.997 257.406,84.997 257.406,84.997 
		256.607,84.997 256.607,84.997 256.505,84.997 256.005,84.897 256.005,84.897 250.905,84.897 250.905,84.897 251.205,72.097 
		251.205,72.097 245.405,71.897 243.905,71.897 243.905,71.897 240.105,71.897 240.105,71.897 238.105,71.897 238.105,71.897 
		232.705,71.797 232.705,71.797 232.505,71.797 232.505,71.797 225.705,71.497 225.705,71.497 223.105,71.397 223.105,71.397 
		221.705,71.397 210.205,71.497 210.205,71.497 186.405,71.397 182.305,71.397 182.305,71.397 175.105,71.297 170.105,71.197 
		170.105,71.197 167.503,71.197 162.503,71.097 162.503,71.097 156.702,71.197 144.403,70.797 144.403,70.797 144.103,70.897 
		144.103,70.897 131.702,70.497 131.702,70.497 125.403,70.397 125.403,70.397 124.903,70.397 124.903,70.397 119.803,70.397 
		119.803,70.397 119.7,78.997 119.7,80.797 119.7,80.797 119.601,83.297 119.601,83.297 119.401,102.697 119.401,110.097 
		119.401,110.097 106.601,114.697 106.601,114.697 93.999,119.597 93.999,119.597 89.399,121.197 88.698,121.497 88.698,121.497 
		87.801,121.897 87.801,121.897 84.499,123.197 84.499,123.197 84.399,123.297 84.399,123.297 81.599,124.397 81.599,124.397 
		81.299,134.497 81.299,134.497 81.197,139.797 81.197,139.797 81.197,139.897 81.197,139.897 81.097,141.297 81.097,141.297 
		81.097,143.797 81.097,143.797 81.097,144.497 81.097,144.497 80.495,165.197 80.495,165.197 69.797,165.097 69.797,165.097 
		48.597,164.697 48.495,181.697 48.495,181.697 48.395,196.597 32.995,196.397 36.395,200.197 37.395,201.397 38.095,203.397 
		35.095,207.997 35.992,208.697 35.992,208.697 34.492,212.197 34.492,212.197 34.992,212.697 35.095,212.797 35.395,213.397 
		35.395,213.397 33.595,214.597 33.795,219.197 33.992,223.497 42.693,224.097 42.693,224.097 48.393,231.797 48.393,231.797 
		48.893,232.597 48.893,232.597 60.093,247.897 80.99,277.197 97.99,299.897 100.391,303.698 108.291,306.797 131.689,313.297 
		132.291,332.297 132.791,353.198 132.791,354.897 159.391,359.597 175.591,361.297 186.091,372.097 211.489,394.198 
		219.389,401.297 186.089,450.999 157.589,493.897 154.289,499.795 147.589,510.096 147.689,521.997 147.989,521.997 
		147.989,521.997 147.989,521.895 147.989,521.895 152.489,522.196 152.291,526.295 152.291,526.295 152.291,526.295 
		152.291,526.295 151.891,532.196 147.591,531.997 147.591,535.596 147.591,535.596 151.989,535.698 151.989,535.698 
		167.091,535.897 167.091,535.897 170.391,535.897 170.391,535.897 252.691,537.096 247.793,549.596 253.093,551.795 
		310.093,575.096 310.991,575.497 310.991,575.497 319.891,579.096 319.891,579.096 334.191,584.997 340.59,587.596 
		340.691,591.096 340.691,591.096 340.59,602.497 342.289,602.497 342.289,602.497 350.49,602.497 350.49,602.497 351.289,602.596 
		351.289,602.596 352.49,602.596 352.49,602.596 370.59,602.698 370.59,602.698 373.99,602.698 373.99,602.698 376.49,602.797 
		376.49,602.797 379.189,602.797 410.889,602.698 410.889,602.698 411.389,602.698 411.389,602.698 411.49,602.698 411.789,602.698 
		411.789,602.698 412.09,602.797 412.09,602.797 412.191,602.797 412.191,602.797 412.391,602.797 412.391,602.797 415.191,602.899 
		415.191,602.899 417.491,603.098 417.491,603.098 430.191,604.2 430.191,604.2 430.59,604.2 430.59,604.2 443.891,604.899 
		443.891,604.899 450.891,605.2 450.891,605.2 455.289,605.299 457.59,605.299 457.59,605.299 462.99,605.401 462.99,605.401 
		477.389,605.6 477.389,605.6 492.49,605.799 492.889,605.799 492.889,608.6 513.889,608.799 528.189,608.299 528.189,608.299 
		560.289,608.901 560.289,608.901 590.891,609.502 590.891,609.502 599.289,609.602 599.289,609.602 616.689,610.102 
		633.289,610.002 633.589,610.002 633.589,610.002 644.391,610.102 644.391,610.102 745.089,610.502 787.99,610.702 
		791.689,610.702 853.589,611.401 1021.089,611.299 1095.589,610.5 1144.589,613 1157.089,613.1 1176.889,613.1 1176.889,613.1 
		1181.689,613.1 1189.589,613.1 1194.287,613.1 1195.488,613.1 1195.488,613.1 1202.187,613 1203.585,612.899 1203.585,612.899 
		1206.687,612.899 1208.585,612.899 1208.585,612.899 1212.887,612.797 1212.887,612.797 1214.988,612.797 1219.387,612.797 
		1227.187,612.698 1239.687,612.596 1254.887,612.596 1309.387,612.596 1355.085,611.997 	"/>
	<polygon id="Sun_Valley_part" fill="#F06BA8" stroke="#000000" stroke-width="3" points="752.261,81.922 764.26,113.42 
		774.76,131.419 846.756,158.418 900.754,176.417 975.75,206.416 1073.245,246.914 1152.741,290.412 1193.239,326.41 
		1347.731,603.896 1355.085,611.997 1455.687,611.696 1455.687,611.696 1458.085,611.594 1458.085,611.594 1461.085,611.594 
		1461.085,611.594 1465.687,611.495 1465.687,611.495 1467.887,611.293 1467.887,611.293 1471.887,611.293 1471.887,611.293 
		1580.387,611.194 1580.387,611.194 1623.687,610.893 1625.787,609.592 1776.388,608.694 1776.388,608.694 1787.287,608.293 
		1787.287,608.293 1800.089,608.194 1800.089,608.194 1800.389,608.293 1800.389,608.293 1839.99,607.594 1839.99,607.594 
		1856.29,607.395 1856.29,607.395 1870.79,607.094 1889.49,607.594 1916.089,607.495 1921.589,607.094 1921.589,607.094 
		1928.089,606.995 1928.089,606.995 1961.191,605.793 1997.491,605.094 1997.491,605.094 1997.991,605.094 1997.991,605.094 
		2008.093,604.895 2008.093,604.895 2012.593,604.793 2012.593,604.793 2031.893,604.395 2084.193,603.793 2084.093,600.594 
		2130.693,599.895 2153.093,599.696 2153.093,599.696 2153.991,599.696 2154.593,599.696 2154.593,599.696 2165.893,599.594 
		2170.693,599.495 2170.693,599.495 2171.794,599.495 2171.794,599.495 2184.794,599.194 2184.794,599.194 2185.193,599.194 
		2185.193,599.194 2202.493,598.995 2202.493,598.995 2210.393,598.893 2210.393,598.893 2229.393,598.694 2229.393,598.694 
		2230.291,598.694 2230.291,598.694 2231.491,598.694 2231.491,598.694 2234.791,586.293 2233.893,580.194 2234.193,578.393 
		2241.593,565.792 2244.791,562.192 2249.191,556.391 2250.589,553.79 2251.289,551.59 2252.289,548.192 2256.289,540.391 
		2258.39,537.891 2258.589,537.692 2264.191,534.09 2268.991,533.09 2272.093,531.59 2278.193,524.79 2278.393,523.491 
		2278.093,518.19 2278.991,512.491 2279.39,511.59 2291.491,501.991 2303.89,493.19 2304.089,491.991 2302.191,488.69 
		2295.691,478.79 2295.691,478.79 2295.491,478.491 2295.491,478.491 2292.191,468.491 2291.991,464.29 2291.791,458.991 
		2298.691,447.29 2299.089,446.69 2299.789,445.491 2301.49,443.491 2302.887,441.29 2302.99,438.69 2302.189,436.69 
		2300.587,434.79 2299.287,431.29 2299.087,427.19 2299.787,425.389 2299.986,424.788 2301.087,422.186 2300.986,418.288 
		2300.787,417.186 2300.287,414.885 2299.685,413.385 2299.685,413.286 2299.385,412.487 2298.585,409.487 2298.484,407.286 
		2299.784,404.686 2300.683,402.584 2300.784,402.485 2301.585,401.084 2301.984,400.186 2302.085,398.883 2301.885,397.186 
		2301.486,396.286 2301.385,395.987 2300.685,394.786 2300.585,394.786 2299.585,393.286 2298.585,391.487 2297.585,388.885 
		2297.284,385.987 2297.183,385.286 2297.484,383.786 2297.484,383.786 2297.984,381.686 2299.784,378.584 2302.484,375.786 
		2305.883,373.485 2310.683,370.884 2312.581,370.384 2316.081,369.284 2322.081,365.784 2322.683,364.384 2323.581,356.084 
		2322.982,350.384 2321.781,346.185 2318.681,343.584 2317.281,341.485 2316.081,338.485 2314.183,336.383 2311.683,334.985 
		2310.183,333.184 2310.484,332.485 2312.984,326.584 2314.585,322.383 2315.585,318.284 2315.585,313.584 2315.185,309.985 
		2313.486,303.684 2313.486,303.485 2306.185,285.584 2303.685,275.884 2297.685,262.384 2298.287,261.284 2301.486,258.784 
		2302.885,256.084 2303.385,253.084 2302.986,250.984 2300.787,244.384 2299.185,241.584 2296.085,233.284 2296.185,230.084 
		2296.885,227.284 2296.986,226.984 2297.986,225.084 2299.587,224.084 2305.189,224.284 2305.689,224.184 2306.289,223.984 
		2306.689,223.784 2309.689,221.484 2312.99,218.884 2313.089,218.784 2314.39,217.484 2314.89,215.684 2314.991,215.484 
		2314.593,209.284 2313.893,207.684 2307.993,202.484 2304.993,199.884 2304.595,199.084 2303.993,197.884 2303.493,196.484 
		2303.193,194.784 2303.294,193.484 2303.993,191.984 2304.993,190.784 2306.893,189.284 2308.791,188.184 2309.191,187.884 
		2309.991,187.184 2310.39,186.784 2310.89,185.784 2310.89,184.384 2310.89,184.084 2310.789,183.584 2310.589,182.684 
		2310.39,181.984 2309.789,180.784 2308.189,177.684 2304.289,173.284 2303.189,172.084 2301.689,170.884 2298.387,168.284 
		2298.087,167.984 2295.887,166.784 2292.087,164.784 2291.087,162.684 2290.689,157.684 2290.689,157.284 2291.189,156.084 
		2295.387,145.584 2299.787,138.984 2300.087,138.684 2304.486,136.384 2307.787,137.284 2308.986,137.084 2309.185,136.884 
		2315.885,132.984 2319.284,128.484 2326.484,120.684 2327.683,118.784 2328.183,116.584 2328.784,115.684 2332.784,112.784 
		2336.085,109.584 2338.385,105.284 2339.585,104.684 2342.284,104.384 2343.183,103.584 2343.784,101.884 2343.683,99.584 
		2342.883,97.584 2341.883,94.984 2341.581,93.084 2341.781,91.584 2342.982,90.084 2344.581,89.384 2347.482,89.184 
		2350.781,87.784 2355.281,84.484 2357.581,81.684 2359.183,78.784 2360.581,73.884 2361.383,65.384 2360.883,61.184 
		2358.581,54.484 2357.883,51.384 2357.883,47.784 2358.883,35.384 2360.383,28.484 2360.383,28.484 2349.781,28.684 
		2345.982,28.684 2345.982,28.684 2327.482,28.984 2145.302,32.297 2145.302,32.297 2144.903,32.297 2144.903,32.297 
		2103.702,32.497 2103.702,32.497 2075.103,32.897 2075.103,32.897 2061.603,32.997 2054.001,33.097 2054.001,33.097 1970.7,34.097 
		1970.7,34.097 1865.2,35.097 1817.501,35.897 1817.501,37.397 1728.802,37.997 1728.802,42.597 1729.001,76.497 1596.501,76.397 
		1477.7,76.897 1477.7,76.897 1456.7,76.997 1456.7,76.997 1445.501,76.997 1445.501,76.997 1422.401,77.097 1422.401,77.097 
		1266.001,77.597 1249.802,78.297 1237.603,78.197 1237.603,78.197 1237.501,78.297 1237.501,78.297 1222.7,78.297 1205.101,78.397 
		1097.601,78.897 1074.901,78.197 1022.501,78.097 1022.401,79.697 909.501,78.997 870.603,78.797 814.403,78.797 805.202,78.797 
		798.103,78.497 796.403,78.097 787.949,77.991 783.816,77.654 751.149,76.987 	"/>
	<path id="_x33_6203" fill="#8CCBEF" stroke="#000000" stroke-width="3" d="M719.882,299.185l0.699-0.302l0,0l0.101,7.802l0,0
		l2.101,2.799h0.2v2.802l2.899,0.1v3.1h-2.801v3.201l6-0.102l0.101-3.101h2.899v-9.198l0,0l0.601-1.201l11.5,0.201h0.399v25.6l0,0
		l-1.101,2.5l-2.2,1.9l-2.5,1.299l-1.398-0.199l-0.301,3.4l0,0l-2.399-0.701l0,0l-1,3.399l-0.8,1l-1.399,1.201l-3,1.601
		l-1.101,1.299l-0.801,0.602l0,0l-7,6.799l0,0l-1.101-1l-2.801-0.1l0.601-3.9l2-4.1l1.102-0.1l0,0l-2.102-0.701l0,0l-1.5,2.801
		l-2.5,3.1l-2.5,1.301l-1.398,1.801l-0.301,2l-1.101,1.799l-7.5,7.9l-3.301-1.4l0,0l-3.601-0.1l0,0l-0.5-0.5l-6.399-2.199
		l-2.101,0.398l-0.699-1.5l0,0l4.5-5.5l2.199-7.398l3.899-1.801l2.199-0.602l1.301,0.602l3.199-1.301l1.301-2.199l1.8-0.102l0,0
		l-3.199,0.201l0,0l-0.801-0.1l0,0l-2.101-2l-0.8,0.1l0,0l-0.899,0.1l0,0l-1.399-3.301l-2.199,0.301l-1.899-1.1l0,0l-1.101-4.6
		l2-7.701l2.199-2.799l2-0.701l1.399-1.299l0,0v-0.701l0.699-0.699l3.398-0.801l0.602-1.299l0,0l2-1.602l0,0l2.5-0.6l0,0
		l-1.602-1.201l-0.398-2v-2.199l1.101-2.899l2.301-1.801l0,0l3.399,0.399l5-2.399L719.882,299.185z"/>
	<path id="_x38_6244" fill="#8CCBEF" stroke="#000000" stroke-width="3" d="M281.082,176.284l0.198,0.5l0,0l-0.198,10.9l0,0
		l-1.103-0.1l0,0l0.2-3.6l-1.898-1.8l-3.302,0.1l0,0l-0.1,6.4l0,0l6.2,0.2l0,0l-0.103,12.8l-0.1,0.9l0,0l-3.102-0.8l0,0l-3-0.1l0,0
		l-0.101,1.3h1.601l1.302,1.1v2.2l3.198,0.1l0,0l-0.101,1.6l0,0l0.101,3.1l0,0l-5.198,0.1l0,0l-1.103,1.2l0,0l-0.1,14.8l0,0
		l-27.5-0.2l0,0l-1.8-4.1l-0.7-1.9l-2-2.7l-3.9-4.1l-6.6-4.5l-3.602-5.5l0,0l-1.698-1.9l-2-0.5l-0.7-0.9l0,0l17.6,0.5l0,0h1.2l0,0
		v-0.9l0,0l0.9-12.2l0,0h1.3l0,0l5.1,0.1l0,0h6l12.5,0.2l0,0l0.2-12.4L281.082,176.284z"/>
	<path id="_x34_5680" fill="#8CCBEF" stroke="#000000" stroke-width="3" d="M311.581,163.084h0.199l0,0l0.899,2.6l0,0l1.2,3.8
		l2.198,6.6l0.7,2l0,0l1,3.7l0,0h1.3l0,0l-0.198,0.4l0,0l12.5,0.1l6.5,0.2l0,0l6.398,0.1l0,0v3.1v3.1v3.7l-0.2,9l-0.1,4.9l0,0
		l-0.101,0.6l0,0v0.4l0,0l-0.2,13.2l0.101,6v0.3l0,0v0.2l0,0l-0.601,0.2l0,0h-3.102l0,0l-2.8-5.4l0,0l-0.101-1.2l0,0l-1.399-3.1
		l-5.398-0.1l0,0l0.5,2.3l0,0v0.7l0,0l0.101,0.3l0,0h-0.4l0,0l-6.6-19.4l0,0l-6.2,0.1l-8,2.6l0,0l2.399-3.6l-0.399-10.9l-1.7-3.8
		v-3.6l0,0h4.4l0,0l0.3-0.7l0,0l2.3,0.4l0,0h0.102l0,0l-0.199-0.6l0,0l-5-5.3l0,0l3.199,0.1l0,0l-3.602-11.2l-0.1-0.3l0,0
		l-0.601-1.5l0,0H311.581z"/>
	<path id="_x38_5894" fill="#8CCBEF" stroke="#000000" stroke-width="3" d="M481.781,329.883l7.899,0.101l0,0l-4.102,13l0,0
		l-3.898-0.101l0,0l-0.199,25.5l0,0l-18.801-0.1l-26.899-0.1h-4.398l0,0v-6.5l0.101-6.102l0,0l18.102-0.101l0,0l3.5,1.5l0,0v-1.5
		l0,0h3.3l0,0l0.101,1.601l0,0h0.601l0,0l2.601-1.101l2.899-2.399l0.199-4.5l0,0h1.602l0,0l0.101-6.5l0,0h0.602l0,0l-0.4-6l0,0
		l1.301-0.299l0,0l-0.101-1.4l0,0l3.3-0.699l0,0v-1.201l0,0l3-1.898l0,0l1.9-1.102L481.781,329.883z"/>
	<path id="_x35_2624" fill="#8CCBEF" stroke="#000000" stroke-width="3" d="M448.581,260.984l2,1.7l0,0l1.399,0.8l0,0l-3.7,6.5
		l-1.398,2.5l0,0l-6.602-0.3l0,0l-0.101,1.1l0,0h-2l0,0l-0.102,0.9l0,0l-1.5,0.5l0,0l-2.1,1.4l0,0v3.6v1.1l0,0h-0.2l-5.5-0.8
		l-3.5-1.1l-6.7-0.1l0,0l-0.2,2.9l0,0l-0.6,0.5l0,0l-2.4-0.3l0,0l-0.1,3.1l0,0l2.5,0.1l0,0v1.5l0,0l-2.3,4.7l0,0h-3.601l-12.302-0.1
		l0,0l0.102-12.6l0,0l-1.5-0.1l0,0l13.398-19.9l0,0l14.802,7l2.8,1.3l0,0l1.301-2.6l0,0h0.399l0,0h2.198l0,0l7,0.1h2l0,0h4.102l0,0
		L448.581,260.984z"/>
	<path id="_x33_9598" fill="#8CCBEF" stroke="#000000" stroke-width="3" d="M249.981,405.284l-1.698-1.299l0,0l2-2.604l2.801,4.104
		l2.3,1.896l19.3,13.801l2.2-3.1l2.3,1.699l-3.8,5.201l0,0l0.6,0.5l0,0l3.802-5.201l2.301,1.701l7,5.396l0,0l0.3,0.201l0,0l-1.3,1.9
		l0,0l-2.5,3.396l-1,1.301l0,0l-6.603-5l0,0l-2.8-2l0,0l-0.6,0.102l0,0l0,0l0,0l-0.103,0.398l0,0l-2-0.1l0,0l-0.198-0.301l0,0
		l-1.302-1.4l0,0l-0.198,0.301l0,0l-0.802-0.6l-0.3-0.301l0,0l-1.8-1.4l0,0h-4.602l0,0l-0.801,2.701l0,0v0.398l0,0l-0.8,0.398l0,0
		l-0.5,0.701l0,0l-2-1l0,0l-1,0.1l0,0l-2.5-2.6l0,0l2.2-1.701l0,0l-0.102-0.299l0,0l2.102-1.301l-0.102-1.799l0,0l0.199-1.803l0,0
		v-0.1l0,0h-0.6l0,0l-3.2-4.9l0,0l-0.7,0.803l0,0l-0.897-0.201l0,0l-0.802,0.5l0,0l-0.698-0.299l0,0h-0.302l0,0l-2-0.201l0,0
		l-0.301-0.799l-5.397-1.201l-1.7-4.5l0,0v-0.199l0,0l1.7-2.5l0,0l1.8,5.799l0,0l0.8-1l0,0L249.981,405.284z"/>
	<path id="_x35_6350" fill="#8CCBEF" stroke="#000000" stroke-width="3" d="M191.382,97.784v3.6l0,0l0.398,2.1l0,0l2.302,12.8l0,0
		h0.5l0,0l1.198,3.8l0,0l0.399,1.4l0,0l0.3,1.1l0,0l-0.1,0.2l0,0l1.6,6l0,0l-4,1.3l0,0v-1.1l-4.8,2.4l-0.899,1.7l-3,0.8l0,0
		l-0.301-1.9l0,0l-3.397,1l-1.7-1.4l-2.9,0.4h-0.3l-1.8-1.6l-3.101-1.9l-5.699-1l-0.5,0.9l-0.2,0.7l-3.7,0.2l-0.398-0.8l-2.102-2.5
		l-0.398-0.2l-1.399-0.2l-0.601-0.6l0,0l-0.102-2.8l0,0l8-0.1l0,0l0.102-4.7l0,0h1.5l5-2.8l1-1.8l2.698-2.2l0,0l-3.397-7.3l0,0
		l7.3-2L191.382,97.784z"/>
	<path id="_x30_9360" fill="#8CCBEF" stroke="#000000" stroke-width="3" d="M658.681,175.484l2.7,1.5l2.101,0.6l7.399,0.2h12.398
		l12.5-1.8l0,0v1.3l0,0l-0.101,1.4v4.1v0.3l-0.102,7.8v0.2v0.4l0,0h0.7l0,0h1.5l0,0h0.7l0,0l0.899,0.1l0,0l8.699,0.1l0,0v2.2l0,0
		l-0.301,0.2l0,0h-3.101l0,0l-3.5,2.8l0,0v0.8l0,0l-5.602-0.2l0,0l0.102,0.7l0,0l-6.301,0.2l0,0l-0.101-2.5l0,0v-2l0,0l-4.399-1.3
		l-1.5-1.2h-17.301l0,0l-0.1,0.4l0,0l-1.2-0.4l-7-6.8l-2-2.8l-1.2-2.7l0,0l0.4-0.4l0,0l3.1-1.8l0,0l0.102-0.4L658.681,175.484z"/>
	<path id="_x37_8596" fill="#8CCBEF" stroke="#000000" stroke-width="3" d="M946.081,248.484l12.899,4.1l9.101,3.1l3.199,1.6l0,0
		l-1.601-0.1l0,0l-0.199,12.3l0,0h1.8l0,0l-0.199,3.7l0.101,5.9v1.8l0,0v1.5l0,0l0.101,3.3l0,0v1.9l0,0v0.4l0,0l0.102,0.4l0,0
		l-13.602-9.9l0,0l-5-3.7l0,0l-6.5-4.7l0,0l-0.601-0.5l0,0h0.601l3.399,0.1l0,0l-3.699-5.5l0,0l0.101-7.4L946.081,248.484
		L946.081,248.484z"/>
	<path id="path20012" fill="#8CCBEF" stroke="#000000" stroke-width="3" d="M221.681,71.384l-2.3,2.5l0,0l0.2,0.7l0,0l-5.302,2.7
		l0,0l-2-0.3l0,0l-0.5,0.5l0,0l0.699,0.8l0.5,1.4l-0.3,1.9l-2.6,0.3l-0.603,0.9l0,0l-2.199,1.8l-4.398,2.4l0,0l0.7,2.6l0,0
		l5.198,1.3l4.5,2l0.5,0.2l0,0l-1.601,0.4l0,0l-1.3,3.8l0,0l-0.2-0.1l-0.7-0.1l0,0h-1.699l0,0l-0.301-0.3l0,0l-0.3-0.5l-1-2.6l0,0
		l-1,0.2l-1,0.2l0,0l0.2-0.3l0,0l-0.8-0.8l-2.802,0.8h-2.101l-1.7-1.1l-0.1-1.2l-1-0.8l0,0h-8.102l0,0v-4.3l0,0l-0.301-0.1l0,0v-2
		l-1.8-3.3l-0.2-1.2l0.4-8.4l0,0l23.8,0.1l0,0L221.681,71.384z"/>
	<path id="_x38_1708" fill="#8CCBEF" stroke="#000000" stroke-width="3" d="M594.982,313.185l1.1,1l0,0l2.5,0.101l0,0l11.802,9.899
		l0,0l0.5,0.601l0,0l-0.102,0.5l0,0l-0.101,2.198l0,0h-3.199l0,0l-0.101,3.302v1.6l0,0l-0.899,0.199l-3.2-1.299l-3.7-0.201l-0.6,1
		l0.1,1.801l0,0h-5.6h-0.4l-17.1-0.1l0,0l0.1-3.101v-3.302l0,0h7.7l0,0l-0.101-1.399l0,0v-0.101v-1.198l0,0v-0.399l0,0h-1l0,0
		v-3.101l0,0l-3.399-0.101l0,0l-0.101-3.201v-1.6v-1.801l0,0h1.398h0.9l0,0l2.5,0.102l0,0l-2.4-3.399l1.5,0.399l2.7-0.5l2.5,0.101
		l2.3,0.399l3.302,1.601H594.982z"/>
	<path id="_x33_9836" fill="#8CCBEF" stroke="#000000" stroke-width="3" d="M421.281,244.284l5.7,2.2l2.8,0.4l3.801-0.9l4.601-0.9
		h7.899l0,0v3.5l-4.199,7l0,0l2.601,1.9l0,0l-1.601,1.4l0,0v2.1l0,0h-0.899l0,0v1.9l0.102,1.5l0,0h-2l-7-0.1l0,0h-2.2l0,0h-0.399
		l0,0l-1.301,2.6l0,0l-2.8-1.3l-14.8-7l0,0l9.198-13.1L421.281,244.284z"/>
	<path id="_x32_1810" fill="#8CCBEF" stroke="#000000" stroke-width="3" d="M142.582,224.784l0.698,0.9l0,0l0.802,1l0.1,1.4
		l0.602,0.9l3.5,1l1.898-0.5l1.102,0.9l0.301,2.7v1.1l1.897,2.2l-0.897,5l1.699,4.3l-1.302,5.4l3.5,3l0,0l-3.8,0.8l-3.8,2.3l0,0
		l-5.5-4l0,0l-0.7-0.1l0,0l-0.398,1.3l0,0l-2.699-0.1l0,0h-0.9l0,0h-2.5l0,0h-1.5l0,0h-1.5l0,0v-1.1l0.103-3.7l0,0v-0.9l0,0l0.8-5.8
		l0,0l0.3-0.4l0,0l0.5-0.9l0,0l0.5-0.9l0.3-0.6l0,0l0.8-1.5l0,0l-2.897-2.9l0,0l-0.103-7.2l0,0h0.4l0.9-0.5l0,0l0.3-0.2l0,0
		l1.397-0.2v1.6h3.803l0.197-4.3H142.582z"/>
	<path id="_x33_4316" fill="#8CCBEF" stroke="#000000" stroke-width="3" d="M435.382,320.883l2.601-5.198l0,0l-0.398,3l0.198,2
		l1.7-3.201l1.602-0.899l8.898,2.301l2.602,2.1l0.6,1.201l0,0h0.2l0,0l0.398,2.898l1.5,1.899l-0.198,3.101l0,0v3.899l0,0l-5.4-0.101
		l0,0l-0.3,2.601l-2.2,0.302l-1.8,1.299l0,0l-2.899,1.399l-9.2,0.899l-4.3-2.799l-0.5-1.201l0,0l-2.801-0.198l0,0l0.2-6.201
		l0.2-9.698l0,0l1.698,0.6h7.6V320.883z"/>
	<path id="_x30_6028" fill="#8CCBEF" stroke="#000000" stroke-width="3" d="M1020.382,321.284l5.398,0.6l0,0l6.399,2.5l11.5,5.601
		l2.899,2l0.899,1.5l0,0l-2.899,0.302l0,0l0.301,4.899l0,0h1.398l0,0l-1.698,7.698l0,0l-12.5,0.201l0,0l-0.102-3.201l-9.2-0.198
		l0.102-3.201h-3.399l0,0v-6.198l0.102-10.201L1020.382,321.284z"/>
	<path id="_x36_2756" fill="#8CCBEF" stroke="#000000" stroke-width="3" d="M407.081,316.983v12.9l-0.199,8.801l0,0l-11.602-8.801
		l0,0h-0.7l0,0l-0.3-0.199l0,0l0.102,0.199l-0.102,3.4l0,0l-0.2,2.899l0,0v6.198l0,0l-12.1-0.1l0,0l-0.601-0.1l0,0l0.101-6.301l0,0
		h3.399l0,0v-6.199l0,0l3.198,0.1l0,0v-3.1l0,0l-1.5-0.102l0,0l0,0l0,0l-1.6,0.701l0,0v-4.201l0,0h-3.4l0,0l0.2-3.398l0,0l1.7,1.199
		l0,0l0.899,0.801l0,0l0.698-2.801v-2.1l0,0h3.102l0,0L407.081,316.983z"/>
	<path id="_x32_0697" fill="#8CCBEF" stroke="#000000" stroke-width="3" d="M557.181,327.284l3.2,0.1h6.3h3.101h6.3l0,0v3.302
		l-0.1,3.101l0,0v9.299l0,0l-3.101,0.399l0,0v3l0,0l-6.3,0.101h-7.302l0,0l-2.101-0.5l-3.199-0.199l0,0v0.6l0,0h-3.101l0,0h-3.102
		h-1.5l0,0l-1.601-0.5l0,0v-0.398l0,0v-0.602l0,0v-1.6l0,0h1.399l0,0l1.699-1.699l0,0v-3.301l0,0l2.102,0.1l0,0v-1.6l0,0h-2.102l0,0
		l0.102-3.199v-1.701v-0.299v-0.602l0,0l0.699-0.601v-2l0,0h1.101l0,0l1.301,0.399l0,0v-0.1l0,0h1.6l0.102,0.699l1.5,0.301l0,0v-0.1
		l0,0l0.898,0.898l0,0h0.2h2l0,0v-0.699l-0.101-2.4l0,0v-0.199H557.181z"/>
	<path id="path20028" fill="#8CCBEF" stroke="#000000" stroke-width="3" d="M238.181,110.684l-0.3,0.6l0,0l-4.4,5.8l-1.698,4.1
		l-3.899,1.7l-5.8,1.9l-5.603,2.9l-3.199,1l0,0l1.5-1.2l3.399-1.2l2.8-2.9l0.603-0.1l0,0l2.199-0.4l0,0h0.5l0,0l1.801-0.4l0,0
		l2.3-0.6l0,0h0.5l1.399-1.2l1.601-2.1l0.6-1.8l0,0l5.302-6.4l0,0L238.181,110.684z"/>
	<path id="_x37_0784" fill="#8CCBEF" stroke="#000000" stroke-width="3" d="M305.781,407.084l0.5-0.301l0.301-0.199l0,0l4,7.1l0,0
		l2.101-1.5l0,0l3.601-2.697l0,0l2.102,2.799l0,0l0.8-0.4l1,0.604l0.5,3.6l-0.199,1.299l-0.899,1.4l-1.601,1.5l-1.101,0.4l-1-0.102
		l-0.602,0.5v1.4l0,0l1.2,1.896l0,0l3.899,0.104l0,0v1.1l0,0l1.199,1.699l0,0l-0.101,3.6l0,0l-1-0.1h-5.2l-7.8-0.102l0,0l-0.2-5.5
		l0,0v-1l-0.101-6.398l-3.8-9.699l0,0L305.781,407.084z"/>
	<path id="_x33_4302" fill="#8CCBEF" stroke="#000000" stroke-width="3" d="M159.582,197.284l0.198,0.3l0,0l-1.101,0.5l0,0l3.3,4.9
		l0,0l-3.199,2.2l0,0l-2.101,2.1l-2.2-0.2l-1.1,1.1l0,0l-0.2,0.2l0,0l-4.8,3.5l0,0h-0.5l-0.4-0.2l0,0l-2.397-1l0,0l-0.301-0.2l0,0
		l-2.302,2l0,0l-1.8-2.6l0,0l-1.398,0.9l-2.102,0.3l0,0l-0.898-1.4l1.398-1l-1.6-2.3l0,0h0.198l6.602-2l5.398-2.2l0,0l1.102,1.8l0,0
		l2.6-1.6l0,0l-0.6-1.4l0,0l3.8-1.5l3-1.2l0,0L159.582,197.284z"/>
	<path id="_x35_0090" fill="#8CCBEF" stroke="#000000" stroke-width="3" d="M399.482,482.784l0.199,0.201l0,0h1.898l0,0h0.9l0,0h3
		h0.6l0,0l11.9-0.104l0,0l-3.301,15.604l0,0l-3.199-2.803l-5.301-1.801l-3.199-0.299l-2.301-0.301l-2.699,1.701l-1.5,0.5l0,0
		l0.3-0.801l0.3-0.303l2.2-2.396l0.7-2.104l0.399-2.6l-0.802-2.5l-1.5-1.299l0.602-1.803l0,0L399.482,482.784z"/>
	<path id="_x35_8982" fill="#8CCBEF" stroke="#000000" stroke-width="3" d="M331.781,354.284h5.102l0,0v0.199h7.199l0,0h0.101l0,0
		l1.399-0.1l0,0l2.101,4.9l0.101,2.1l-0.601,1.801l-0.899,1.5l-1.8,0.898l0,0h-0.301l0,0v0.5l0,0v1.102l0,0h-1.3l0,0l-1.5,0.5
		l-0.7-0.102v-0.699l-1.3-0.6l-1.7-0.101l-0.899,0.399l-4.601,4.5l-0.699,1.601l0,0L331.781,354.284z"/>
	<path id="_x34_6660" fill="#8CCBEF" stroke="#000000" stroke-width="3" d="M1181.382,474.383h3.101l9.5-0.1l0,0l-0.101,12.801l0,0
		h-9.399h-0.9l0,0l-1.5-2.1l0,0l-1.1,0.6l0,0l-8.2-11.301l0,0L1181.382,474.383z"/>
	<path id="_x33_3574" fill="#8CCBEF" stroke="#000000" stroke-width="3" d="M276.481,85.184h0.103l0,0h0.3l0.398,0.1l0,0h1.602l0,0
		h2.2l0,0h0.8l0,0h0.8l0,0h0.4l0,0l5.897,0.2l0.9-0.1l0,0l4.2,0.2l0,0l1.1-0.1l0,0v6.5v2.7l0,0l-0.1,0.9l0,0l-5.4,0.3l0,0l-0.7-0.1
		l0,0v-0.5l-2.897-1.9l-1.603,0.5v0.7v0.2l-1.699-0.1l0,0h-0.398l-1.9-0.5l0,0l0.103-3.6l0,0h-1l0,0l-1,1l0,0h-2.301l0,0l-3-0.3l0,0
		l-0.199,0.3l0,0l-0.2-0.1l0,0l1.5-2.5L276.481,85.184z"/>
	<path id="path20042" fill="#8CCBEF" stroke="#000000" stroke-width="3" d="M1010.982,346.584h2.199h6.301l0,0l0.699,2.5
		l4.601,4.799l1,2.4v0.801l0,0l-3.3-0.201l0,0l-4.2-0.698l-8.5-3.701l0,0l0.2-0.399l1.1-0.699l0,0v-3.6l0,0L1010.982,346.584z"/>
	<path id="path20044" fill="#8CCBEF" stroke="#000000" stroke-width="3" d="M319.081,181.784l12.301-0.1l6.5,0.2l6.398,0.2l0,0v0.5
		l0,0l-6.398-0.1l0,0l-6.5-0.2l-12.5-0.1l0,0L319.081,181.784z"/>
	<path id="path20046" fill="#8CCBEF" stroke="#000000" stroke-width="3" d="M958.781,307.983h7.399l0,0v6.301h3l0,0v6.6l0,0h-9.8h-3
		l0,0l-0.102-3.5l0,0v-0.1l0,0l0.102-9.199l0,0L958.781,307.983z"/>
	<path id="path20052" fill="#8CCBEF" stroke="#000000" stroke-width="3" d="M271.082,85.184h5.397l0,0l-2.1,3.8l-1.5,2.5l0,0h-0.3
		l0,0l0.198-0.2l0,0l-4.398,3l0,0l1.898,1.4l0,0l-1.398,2.4l0,0l-3.9-2.2l1.603-2.4l0,0l0.699-1.6l0,0l0.601-1.5l0,0v-0.1l0,0
		l0.1-0.3l0,0l0.103-0.4l0,0l3.397-2.7l0,0l-1.197-0.8l0,0l0.5-0.9l0,0H271.082z"/>
	<path id="path20054" fill="#8CCBEF" stroke="#000000" stroke-width="3" d="M204.681,94.084l0.102,0.3l-3.102,2.5l-2.6,1.8l-1.2,0.2
		l-3.102,2.9l-3,1.7l0,0l-0.398-2.1l0,0v-3.6l0,0L204.681,94.084z"/>
	<path id="path20056" fill="#8CCBEF" stroke="#000000" stroke-width="3" d="M1063.482,343.784l2.1,2.5l0,0l-2.1,0.1l0,0v6.302
		l0.1,2.799l0,0h-3.1l0,0l-0.101-2.698l0,0h-3.102l0,0l0.102-2l-1.102-1.302l0,0l0,0l0,0l-1.698-3.101l0,0h2.5l0,0h1.198l0,0h1.102
		l0,0l3.3-1.299l0,0l0.801-0.102l0,0V343.784L1063.482,343.784z"/>
	<path id="_x32_0536" fill="#8CCBEF" stroke="#000000" stroke-width="3" d="M2257.581,454.383v-2.199l0,0l5.699-0.197l0.102,3.1
		l3.898-0.1l0.2,6.6l0,0l-9.7,0.299l0,0L2257.581,454.383z"/>
	<path id="path20061" fill="#8CCBEF" stroke="#000000" stroke-width="3" d="M1097.281,365.284l0.801-3.199h3.601l4.2,4.898
		l1.3,1.701h-2.8l-0.2,3.199l0,0h-3l0,0v-0.199v-5.5h-3.3l0,0L1097.281,365.284z"/>
	<path id="path20063" fill="#8CCBEF" stroke="#000000" stroke-width="3" d="M339.982,462.584l3,3.699l2.899,0.201l0,0l2,3.697l0,0
		l-4.602,4.102l0,0l-1.101-1.4l0.2-1.299l-0.302-0.898l-1.8-1.699l0,0l1.2-2.201l0,0l-1.601-1.602l0,0L339.982,462.584z"/>
	<path id="path20067" fill="#8CCBEF" stroke="#000000" stroke-width="3" d="M335.482,468.383l3.699,5.9l0,0l2.2,1.701l0,0l-0.7,0.6
		l-8.699-6.701l0,0l0.6-0.799l0,0l1.4-1.9l0,0L335.482,468.383z"/>
	<path id="path20071" fill="#8CCBEF" stroke="#000000" stroke-width="3" d="M1100.982,352.784l6.5,0.1l0,0v6l0,0l-2.5-0.198
		l-2.601-0.802l-2-1.198l-2.399-2.399v-1.5h1.699l0,0h1.301V352.784z"/>
	<path id="path20075" fill="#8CCBEF" stroke="#000000" stroke-width="3" d="M312.681,377.185v4.101h2.2l2.198,3.1l0.4,2.5l0,0
		l-5.101-0.1L312.681,377.185z"/>
	<path id="path20083" fill="#8CCBEF" stroke="#000000" stroke-width="3" d="M260.281,84.884l2.302,0.1l0,0l-0.103,0.1l0,0l-1.699,4
		l0,0h1.899l0,0l0.101,0.6l0,0l-1.601,2.3l0,0l-0.7,1.1l0,0l-0.897-0.4l0,0l0.397-5.7l0.2-2.1l0,0H260.281z"/>
	<path id="path20085" fill="#8CCBEF" stroke="#000000" stroke-width="3" d="M1107.482,363.784v0.5l0,0l-5.2-5.1h2h3.2l0,0V363.784z"
		/>
	<path id="path20089" fill="#8CCBEF" stroke="#000000" stroke-width="3" d="M870.181,128.784l-0.1,1.7l0,0h0.698l0,0v1.5l0,0h0.802
		l0,0v3.3l0,0l0,0l-3.102-0.1l0,0v-6.4l0,0H870.181z"/>
	<path id="path20093" fill="#8CCBEF" stroke="#000000" stroke-width="3" d="M344.081,354.483h-7.199v-0.199l0,0L344.081,354.483z"/>
	<path id="path20097" fill="#8CCBEF" stroke="#000000" stroke-width="3" d="M197.981,128.784l0.302,1.3l0,0h-1.399l-0.101,0.8
		l-0.199,0.1l-2.603-0.1v-0.8l0,0L197.981,128.784z"/>
	<path id="path20099" fill="#8CCBEF" stroke="#000000" stroke-width="3" d="M1094.882,368.685l2,0.101l0,0l1.101,1.1l0,0l0.1,2l0,0
		h-3.198l0,0L1094.882,368.685L1094.882,368.685z"/>
	<path id="path20105" fill="#8CCBEF" stroke="#000000" stroke-width="3" d="M282.781,94.684v0.6l0,0v1l0,0l-2.398-0.1l0,0l0.1-2l0,0
		l1.9,0.5H282.781z"/>
	<path id="path20113" fill="#8CCBEF" stroke="#000000" stroke-width="3" d="M888.781,292.084h0.801l0,0l0.101,0.6l0,0
		L888.781,292.084z"/>
	<path id="Wildomar" fill="#8CCBEF" stroke="#000000" stroke-width="3" d="M307.482,430.684l7.8,0.102h5.2l1,0.1l0,0h3.6
		l5.602-0.396l4.601,1.396l1.7-0.299l5.699-7.1l2.801-1.604l2-3.396l1.102-1h7.3l0,0l-0.102,3.5v9.697l0,0l1.802,5.102l0,0
		l4.5-0.102l0,0l-0.302,1.5l1.399,3.303l0.301,0.6l1.5,0.602l0.602,0.697l-0.2,3.701l-0.8,1.299l0,0l-2.802,6.303l-0.101,2.398l0,0
		l-0.602,1.799l0,0l-11.398,9.701l-1.8,1.602l0,0l-2-3.699l0,0l-2.899-0.201l-3-3.699l0,0l-0.101,2.6l0,0l1.601,1.602l0,0
		l-1.2,2.201l0,0l1.802,1.699l0.3,0.898l-0.2,1.299l1.101,1.4l0,0l-1.898,1.701l0,0l-2.2-1.701l0,0l-3.699-5.9l0,0l-1.5-1.199l0,0
		l-1.398,1.9l0,0l-1.301-0.9l-0.699-0.6l-1.4-1.1l0,0l-2.898-2.201l-9.5-7.299l-0.7-0.701l-1.3-0.9l0,0l-0.5,0.701l0,0l-1.2-0.9l0,0
		l-0.601,0.699l0,0l-2.199-1.799l0,0l-0.399-0.301l0,0l1.101-1.299l0,0l-2.601-2l0,0l-1,1.299l0,0l-4.6-3.4l0,0l-0.103,0.104l0,0
		l-3.1-2.5l-4.603-3.4l0,0l-0.5-0.398l0,0l1.2-1.602l1.9-2.6l0,0l3.8-5.104l5.898-7.699l0,0L307.482,430.684z"/>
	<path id="Temecula" fill="#8CCBEF" stroke="#000000" stroke-width="3" d="M414.581,498.883l-0.899,2.4l-0.899,2.701l0,0l0.5,1.799
		l0,0l-0.398,0.6l0,0l2.3,1.701l2.5,1l0,0l0.601,0.199l5.399-4.299l2.601,2.6l0.5,0.602l0,0l0.399-0.199l0,0v-0.9l0,0l0.101-0.1l0,0
		v-1.5l-0.699-3.5l1.601-2.301h2.899v-4.102l12.899,0.199l-0.2,12.398l0,0v0.4l0,0l-0.199,8.299l0,0v2.604l0.5,1.896l0.899,1.9
		l3.199,3.701l1.801,3.396l0.699,2.201l-0.101,3.4l0,0l7.601-3l0,0l0.301,1l0,0l-0.7,2.799l1.102,1.301l0.601,1.9l0,0l2.3,4.1l0,0
		l1.2,4l0,0l-2.7,1.799l0,0l0.302,0.9l1.398,4.1l-0.398,0.4l0,0l-2.102,0.6l0,0l-0.101-0.197l0,0l-17.301,5.301l0,0v0.199l0,0
		l1.399,1.301l0,0l-1.801,1.6l0.7,2.699l2.601,0.5l3.601-0.199l0,0l-0.101,0.9l0,0v1l-3,0.699h-2.801l-0.399-0.5l-1.5,0.1l-1.3,0.6
		l0,0l-0.2,0.201l0,0l-0.5,1.5l0,0l3.102,2l0,0l0.699,0.799l0,0l0.899,1.301l0,0l3.101,3l2.399,4l0,0h0.101l0,0l-3,4.9l0,0
		l-1.899-1.9l0,0l-3.5,1.199l2.7-2.1l0,0l-5.801-5.4l0,0l-3.5,3.701l0,0l-2.199,2.299l-6.801-5.799l-3.399,6l-5.3-7.701
		l-7.102-8.699l0,0l2.2-1.697l0,0l-0.7-0.803l-2.601-3.697l0.301-0.201l-0.2-1.9l-10.5-10.6l-1.601-3.799l0.7-0.604l0,0l-6.7-0.396
		l0,0l-11.699-13.803l0.3-0.301l0,0l1.5-1.299l0,0l5.7-5.5l0,0l2.899-2.6l0,0l2.898-2.801l0,0l2.899-2.4l0.301-0.199l-2.801-5.1
		l4.5-4.301l0,0l2.5-2.4l2.301,2.1l2.601-3.299l0,0l0.5-0.6l0,0l3.399,2.6l0,0l1.5-1.801l1.601-1.9l0,0L414.581,498.883z"/>
	<path id="Riverside" fill="#8CCBEF" stroke="#000000" stroke-width="3" d="M269.481,85.084l0.103,0.5l0,0l0.698,0.5l0,0l1.199,0.8
		l0,0l-3.397,2.7l0,0l-0.103,0.4l0,0l-0.1,0.3l0,0v0.1l0,0l-0.602,1.5l0,0l-0.698,1.6l0,0l-1.603,2.4l3.9,2.2l0,0l1.398-2.4l0,0
		l-1.898-1.4l0,0l4.398-3l0,0l-0.198,0.2l0,0h0.3l0,0l0.2,0.1l0,0l0.198-0.3l0,0l3,0.3l0,0h2.302l0,0l1-1l0,0h1l0,0l-0.103,3.6l0,0
		l-0.1,2l0,0l2.398,0.1l0,0v-1l0,0v-0.6l0,0l1.699,0.1v-0.2v-0.7l1.603-0.5l2.897,1.9v0.5l0,0l0.7,0.1l0,0l5.398,0.6l0,0v1.7l0,0
		h0.102l0,0l-3.602,4.4l0,0l-0.198,0.2l0,0l-2.102,0.2l0,0l-0.101,1.7l0,0l-2.2-0.1l0,0l-3.8,1.2l0,0l-0.602-0.1l0,0l0.102,1.5
		l15.101,0.2l1.3,2.7l0.102,2.9l-1.399,4.4v2.1l0,0v0.3l0,0v0.4l0,0l0.199,4l-1,5.8l-0.5,1.2l-0.199,4.4l0.8,1.6l0,0h-0.101l0,0
		h-1.6l0,0h-0.102l0,0l-0.2,3.3l1,3l0,0v1l0,0l1.602,0.4l0,0l0.398-0.4l0,0l0.7,0.3l0,0l0.102-0.1l0,0l2.5,0.2l0,0l0.198,0.6l0,0
		l0.2,0.2l0,0l1.102,2.4l3.698,2l0,0v-0.1l0,0l1.9,0.2l7.6,2.3l3,0.1l0.102-1.2l0.101,0.6l0,0l2.7,1.9l0,0l-1.4-0.1l0,0l-0.6,0.1
		l0,0l-0.9,0.8l0,0l-0.199,8.5l0,0h-1.398l0,0v-1.8h-1.602l-0.101,1.2l-1.899,0.3l0,0v0.1l0,0l-0.898,0.1l0,0h-1.2l0,0h-0.2l0,0
		h-0.698l0,0l0.601,1.5l0,0l0.1,0.3l3.602,11.2l0,0l-3.199-0.1l0,0l-5.801-0.2l-5.899,0.2l0,0v0.5l0,0l-0.601,2.6l0,0v0.1h-1.3l0,0
		v-2.9l-4.5,0.1l0,0l-0.102,2.9l0,0l0.102,0.9h-2.2l-2.3,1.6l-0.2,7.2l1.9-0.1l2.397,0.2v3l0,0l5,0.1l0,0l0.103-0.9l1.8-0.1h0.7
		v-0.7l0.1-1.2l0.8,0.1h4.2v-0.5v-1.5l3.101-0.2v14.4h-6.898l-8.8-0.1l0,0l-0.103-0.6l0,0l-3.6-0.9l0,0v7.8l0,0h-2.8l-6.4,0.2l0,0
		l0.102-1.6l0,0l-3.199-0.1v-2.2l-1.301-1.1h-1.602l0.102-1.3l0,0l3,0.1l0,0l3.101,0.8l0,0l0.1-0.9l0.103-12.8l0,0l-6.2-0.2l0,0
		l0.1-6.4l0,0l3.303-0.1l1.897,1.8l-0.2,3.6l0,0l1.103,0.1l0,0l0.2-10.9l0,0l-0.2-0.5l0,0l-12.4-0.1l-0.2,12.4l0,0l-12.5-0.2h-6l0,0
		l-5.1-0.1l0,0h-1.3l0,0l-0.9,12.2l0,0v0.9l0,0h-1.2l0,0l-17.6-0.5l0,0l-15.601-0.2h-4.699l-5.4-0.1l-5.397-0.2v-0.9l0,0l-4.803,3.4
		l0,0l-0.5-0.8l0,0l-0.1-0.2l0,0l-1.3-2l-1-1.6l0,0l-5.7,3.3l0,0l0.8,1.2l0,0l0.3-0.2l0,0l-0.3,2.2l0,0l-0.397-0.2l0,0l-1.303-0.4
		l-1.3,1l-0.897-0.5l0.197-1.5l-0.3-0.7l-2.7-1.9l-3.197-1l1-2.3l-5.103,1.3l-2.2,2.5l0,0l-2,1.9l0,0l-3.3-4.9l0,0l1.103-0.5l0,0
		l-0.2-0.3l0,0l-1.603-2.6l0,0l1.4-0.8l0,0l-3.601-5.2l-2-2.3h-0.302l0,0l-2.397,0.8l0.1-7.6h-1.3l0,0l0.3-21.3v-10.3h-1.397l0,0
		l-5.4-0.1v-4.7l0,0l0.101-2l0,0l0.802-0.2l0,0v-1.2l0,0l2.6-2l0,0l3.4,0.1l0,0h1.397l1.801-0.9l0.102-1.6l15.1,0.7l2-0.6l-0.1-1.2
		l1.898-0.8l4.5-0.7h3.399l1.3,1l3.2,0.1h0.4l0,0l3-0.8l0.897-1.7l4.8-2.4v1.1l0,0v0.8l2.603,0.1l0.2-0.1l0.1-0.8h1.4l0,0l0.6-0.4
		l7.8,0.1l0.103-0.8l0.1-0.4l0,0l0.5,0.4l0,0l4.3,0.3l0,0l1.603-0.6l0,0l3.198-1l5.602-2.9l5.8-1.9l3.9-1.7l1.698-4.1l4.399-5.8l0,0
		l0.3-0.6l0,0l-0.397-0.3l0,0l-0.4-0.2l0,0h0.101l0,0l1.5-3.4l0,0l0.302-1.3l0,0l-0.103,0.4l0,0l3.301-5.4l0,0l0.199-0.2l0,0
		l1.301-2.1l0,0l0.199-0.3l0,0l1.7-1.8l0,0l0.101-0.1l0,0l0.899-1.1l0,0l0.5,0.6l0.5,0.8l0,0l1.2-0.3l4-4.5l2.8-5.4l0,0l0.601-1.1
		l0,0h0.102l0,0h0.8l0,0h0.8l0,0l2-0.1l0,0l-0.199,2.1l-0.398,5.7l0,0l0.898,0.4l0,0l0.699-1.1l0,0l1.603-2.3l0,0l-0.103-0.6l0,0
		h-1.897l0,0l1.698-4l0,0l0.102-0.1l0,0L269.481,85.084z"/>
	<path id="Rancho_Mirage" fill="#8CCBEF" stroke="#000000" stroke-width="3" d="M921.081,260.884h3.399v2.5h2.699v6.3l0,0h6.601l0,0
		l-0.3,12.7l0,0l12.699,0.1l0,0l-0.102-3.5l0,0l0.2-6.7v-2.2l0,0l6.5,4.7l0,0l-0.2,7.8l0,0l6.302,0.1l0,0l-0.102,12.699v9.802l0,0
		v2.799l0,0l-2.398,0.101l0,0l-0.102,9.201l0,0v0.1l0,0l0.102,3.5l0,0v14.4v5.899l0,0l-3.102,2l0,0l-2.898,0.198h-2.802l0,0
		l-1.5,0.101l0,0l-0.5-1l0,0l-1,0.802l-0.198,15.698l0,0l-37.602,0.701l0,0v-5.5l-0.101-20.201l-12.3-0.101l-0.2-13.399l0,0
		l1.101,1.802l0.399-0.101l1.398-2l0.9-2.5l0.199-1.899l4.601-5.302l4.102-2.601h1.398h3.2v-3.399l4.699,0.101l3.101,2.5l-0.101-5.5
		h1.601l0,0v-0.299v-6.101l0,0h-6.3l0,0v-6.301v-6.399l0,0h5.8h0.7l0,0l0.199-12.8v-0.1l0,0l-0.102-3.9l0,0v-4.8H921.081z"/>
	<path id="Perris" fill="#8CCBEF" stroke="#000000" stroke-width="3" d="M330.382,217.484l5.398,0.1l1.399,3.1l0,0l0.101,1.2l0,0
		l2.8,5.4l0,0h3.102l0,0l0.601-0.2l0,0l12.602,0.1l0,0l9.8,0.2l0,0h0.399h6l0,0l-0.101,6.2l0,0l-0.101,6.3l0,0l5.3,0.1l0,0l3.5,2
		l0,0l8.2,10.5l0,0l-0.5,0.5l0,0v3.1h-7.802l0,0h-1.6l-1-0.1l0,0l0.1-3.2l0,0h-3.8l0,0v6.4l0,0l-4.898,0.2l0,0l0.5,2.5v3.6l0,0
		l9.898,0.1l0,0l0.7,0.5l0,0l-0.101,12.3l-0.2,12.7l0,0l-0.102,8.899l0,0l0.602-0.398l0,0l-0.102,1l0,0v3.299l0,0l7.5,0.101l0,0
		l-0.398,12.802l0,0h-3.102l0,0v2.1l-0.698,2.801l0,0l-0.899-0.801l0,0l-1.7-1.199l0,0l-0.2,3.398l0,0h3.4l0,0v4.201l0,0l1.6-0.701
		l0,0l0,0l0,0l1.5,0.102l0,0v3.1l0,0l-3.198-0.1l0,0v6.199l0,0h-3.399l0,0l-3.101-0.1l0,0l0.101-6.302l0,0l-21.5-0.198l0,0v5.6
		l0.8,2.801l-0.3,3.5l-0.601,1.1l0,0l-0.102,10.301l0,0v1.699l0,0v0.301h-0.2l0,0l-9.898-0.102l0.5-0.799l3.5-0.5l0.7-1.701v-2.398
		h-2.399l0,0l0.199-1.301l0,0l-5.199,0.6l0,0l0.101,6.102l0,0l-7.199-0.199l0,0h-5.102l0,0v-0.4v-11.9l0,0v-2.398l0,0l0.102-1.399
		l-2.899-2.7l0,0l0.101-6.4l0,0h5.899l3.101,0.102l0,0l1.301-2.602l0,0l0.101-21.6l0,0v-1.601l0,0l3.102,0.101l0,0l0.198-2.5l0,0
		v-1.199l0,0v-0.5v-2.101l0,0h-0.601l0,0h-3l0,0l-2.399,3l-4,2l-1.198,1.101l0,0l0.3-9.4h-1.899l0,0l0.199-3.3l0,0l1.601,0.1l0,0
		l0.102-3.3l0,0h1.199l0,0v-3.2l0,0h-2.801l0,0l0.102-5.9l0.101-4.6l0,0v-2.1l6.199,0.2l-0.199,3.1h3.399l-0.102,3.101h3.399l0,0
		l3,0.1h3.2h1.3h0.301l0,0l-12.801-37.7l0,0l2-0.7l0,0l-2.399-0.4l-6.898-19.5l0,0L330.382,217.484z"/>
	<path id="Palm_Springs" fill="#8CCBEF" stroke="#000000" stroke-width="3" d="M827.781,173.684h12.301l0,0l-0.199,5.8l0,0h6.398
		l0,0l-0.101,12l0,0l3.301,0.8l9,4.4l0,0l3.899,3.1l12,12.3l0,0l1.601,1.6l7.3,7.5l0,0v0.9l0,0l0.102,2.2v7.1v12.9l0.101,12.6l0,0
		v9.3l0,0l3.101,0.1l0,0v3.4l0,0h7.801h1.601l0,0v2.3l0,0v0.6l0,0l-0.101,9.9l0.101,4.8l2.899,3.1l0,0l3.199,2.9l0,0v0.4v1.4l0,0
		h-1.5l-4.601,0.199v-0.301h-0.2l0,0h-1.101l0,0l-0.699,0.102l0,0l-1.2-0.102l-0.101-6.199h-2.101v1.6l0,0h-0.801l0,0h-0.101
		l-0.102,1.7l0,0h-0.8l0,0l-0.101,3.101h1.101h0.7v1.299l1.6,0.101l-0.1,1h1.199l0.101,1.899h2.5l-0.101,8.201l-0.199,0.101h-0.9
		v1.1l-1.6,2.9l-1.601,5.698l0.101,0.601l3.3,1.399l-0.601,1l0,0l0.2,13.399l12.3,0.101l0.101,20.201v5.5l0,0v13.299l0,0
		l0.102,0.201h-0.102l0,0l-0.7,37.198l12.7-0.1v12.5l-12.3-0.102l-0.301,12.9l-0.199,14.199l-12.101-0.4l-0.2-13.799h-12.199
		l-0.4-22h-12.3l0.102-28.9h-12.899l0.199-13v-12.699h12.601l-0.101-12.801l0.2-12.898l0.101-12.9l0.101-12.7h-5.801l-0.199,9.7
		h-6.399v-3.898l0,0v-5.701l0,0h-11.399h-1.3h-11.2l0.102-12.799l0.101-12.801l-0.101-0.2l0.398-12.5l-0.101-6.2l-6.3-0.3l0.199-6.5
		l-6.301-0.101l-12.601,0.101l-12.602-0.3l0.102-12.6l0.2-12.8l-12.399,0.1l-0.101-12.399l-24.899-0.101l-0.301,12.5h-12.3
		l-0.102-25.399h0.7l12.1,0.2l0.102-23l-3.5-1.9l-4.3-5.6l0,0l15.898,0.7l9.899-1.6l4.801,1l1.699,0.7l0,0l0.398,16.3v3.1v0.3
		l-0.1,10l12.5-0.1v12.1l21.6,0.2l0.802-0.5l0,0l0.601,0.4l0,0l-4.301-4l-19.102-14.1l0.102-6.4l8.601,1.8l0,0h5.102l0,0l11.898-0.1
		v-0.7v-0.5l0,0v-6.2l0,0v-0.5v-0.4l0,0v-7.3l0,0l-2.5-0.1l0.2-5.6l0,0h2.399l0,0v-6.4l0,0l6.198-0.1L827.781,173.684z"/>
	<path id="Palm_Desert" fill="#8CCBEF" stroke="#000000" stroke-width="3" d="M952.781,274.784l5,3.7l0,0v0.1l0,0l13.602,10.4
		l25,18.101l0,0l1.3,0.799l0,0l4.601,3.601l0,0l3.5,2.399l3.801,2l11.199,4.201l0,0l-0.398,1.199l0,0l-0.801,2.301l-0.101,10.199
		v6.199l0,0v6.602l0,0h-6.301h-2.199l0,0h-10.101l0,0h-0.2l0,0l-0.601-12.899l0,0l-5.399,0.101l0,0l-5.699-0.101l0,0l-0.2,11.101
		l-0.101,1.6l0,0l-7.101,0.102h-2.399l0,0v6.5l0.2,4.799l0,0l0.101,0.101l0,0h1.601l0,0l0.101-0.101l0,0h0.301l0,0l0.101,1.101l0,0
		l-3.399,0.101l0,0v0.301l-0.101,0.399l0,0h-2.899l0,0v1l-0.101,0.101l-0.801-0.301l0,0l-3.3-0.101l0,0v0.101l0,0v0.5l0.199,0.399
		l0,0l-2.101,0.2l0,0v0.3v0.7l-0.101,5.9l0,0l0.199,2.199l0.101,2.898l0,0v0.102l0,0v11.6l0,0l-15.8-0.299l-0.2,3.199l-7.5,0.199
		l0,0l-1.699,5.102l-0.801,4.1l0,0h-0.601l0,0l-11.199-0.1v-12.5l11.3-0.102l0,0l1.301,0.102l0,0h0.101l0,0l-1.601-4.801l0,0v-0.801
		l0,0l1.601,0.102l0.2-20.5l0,0l0.199-15.701l1-0.799l0,0l0.5,1l0,0l1.5-0.102l0,0h2.801l2.898-0.199l0,0l3.102-2l0,0v-5.9v-14.399
		l0,0h3h9.8l0,0v-6.601l0,0h-3v-6.299l0,0h-7.399l0,0v-2.801l0,0v-9.801l0.102-12.7l0,0l-6.301-0.1l0,0L952.781,274.784z"/>
	<path id="Norco" fill="#8CCBEF" stroke="#000000" stroke-width="3" d="M143.882,136.584h1.1v1.2h-0.6l-0.102,2l0,0v1.2l0,0
		l-0.801,0.2l0,0l-0.1,2l0,0v4.7l5.398,0.1l0,0h1.399v10.3l-0.3,21.3l0,0l-0.102,4.9h-6.601l-0.6-0.6l0.1-1.7l-0.8-1.3l0,0l-3.2,2.5
		l-4.5,1.5l-2.5,1.5l-0.5,0.8l-0.2,1.5l0.603,1.5l0,0l-1.103,0.4l0,0l-1.897-0.8l-1.2-0.7l-1.2,0.1l-1.5,2.3l-1.399,0.1l-2.398-3.4
		l0,0v-0.9v-1.1v-0.1l0,0h-1.7l0,0v0.1l-0.7,2l0,0l-1.897,0.6l0,0l1.397,3.9l0,0l-0.6,0.4l0,0l-0.7-1.4l0,0l-2.3-0.3l0,0l0,0l0,0
		l-1.4,1l0,0l-1.1,0.7l0,0l-0.2-2.6l0,0l-0.398-0.5l0,0l-2.102-2.8l0,0l-0.5-0.9l-3.8-5.5l0,0l-2.602,1.9l0,0l-1.601-2.1l-4.6-6.3
		l0,0l-0.603,0.8l0,0l-0.3,0.4l0,0l-2.1-2l-7.302,8l-0.5-0.3l0,0l-2.101-1.3l0,0l-0.3-0.1l0,0l0.2-0.3l0,0l0.8-0.8l0,0l4.398-5.3
		l0,0l-1-0.9l0.199-0.8l1.603-2.2l1.397,2l0,0l1.801-1.4l0,0l-2.198-3.4l0,0l1.1-2.9l4-2.6l1.9-3l3.698-0.1l0,0l0.399-3.2l0,0
		l0.101-0.8l0.199-0.1l0,0l0.801-0.2l0,0l2.899-0.8l-0.3-1.3l-0.102-0.6l0.899-1.2l2.2-0.1l2.398-2.3l0,0l3.699-1.5l3.9,1.8l0.5-0.2
		l0.198-0.5l0,0l0.102-1.5l0,0l1.8,0.1v-1.7l4.7-0.3l0.2,0.4l0,0l-0.302,0.1l0,0l3.602-1.7l0.101-1.5v-1.2l1.699-1.7l1.101-0.5
		l4.399-0.5v-1.1l0.4-0.6h1.5v1.7l0,0h0.898l0,0l1.899-0.3l0,0l0.2,0.1l0,0l3-2.8l0,0v2.5H143.882z"/>
	<path id="Murrieta" fill="#8CCBEF" stroke="#000000" stroke-width="3" d="M393.781,418.883h0.899l0,0l2.601,0.104l0,0l-0.101,3.896
		l0.801,2.701l10.899,0.1l0,0l0.101,6.303l0,0l-2.601-0.104l0,0l-0.399,15.201l0,0v4l0,0v6.199l0,0l0.101,25.701l0,0h-0.601h-3l0,0
		h-0.899l0,0h-1.899l0,0l-0.199-0.201l0,0l-0.801-1.102l0,0l-0.601,1.803l1.5,1.299l0.801,2.5l-0.399,2.6l-0.7,2.104l-2.199,2.396
		l-0.301,0.303l-0.3,0.801l0,0l-1.301-0.104l0,0l4.101,5l-4.898,4l2.3,2.803l0,0l-4.5,4.301l2.801,5.1l-0.301,0.199l-2.899,2.398
		l0,0l-2.898,2.803l0,0l-2.899,2.6l0,0l-5.7,5.5l0,0l-1.5,1.299l0,0l-11.198-11l-1.5,0.201l-1-1.5l-0.102-1.201l-1-1.1l-7.2-7.4
		l-0.698,0.701l-2.4-2.801l0,0l0.5-0.5l0,0l-6.3-5.699l-5.399,4.9l-0.898-1.9l0,0l0.3-0.398l0,0l0.398-0.4l-1.8-5.9l-1.801-1.697
		l-0.899-2.699l1.102-2.5l-1-1.701l-4.102,0.301l0,0v0.699l0,0l-0.698,5.5h-1.602l0.199-11.699l-3.199-0.1l-2.101,1.896
		l-0.899,6.104l-1.398-0.104v-3.197l-4.5-4.699l-2.802,2.699l-1.5-0.303l1.2-9.1l8-5.699l1.899-1.5l-0.8-0.1l0,0l3.398-2.701l0,0
		l0,0l0,0l0.199-0.299l0,0l1.399,1.1l0.699,0.6l1.301,0.9l0,0l-0.601,0.799l0,0l8.699,6.701l0.7-0.6l0,0l1.898-1.701l0,0l4.602-4.1
		l0,0l1.8-1.602l11.4-9.701l0,0l2.1-1.799l5.101-4.201l0.2-8.6l24.899,0.398l0,0L393.781,418.883z"/>
	<path id="Moreno_Valley" fill="#8CCBEF" stroke="#000000" stroke-width="3" d="M321.882,116.584h8.398l0,0l1.5,1.8l0,0l0.102-1.1
		l21.101,0.2h4.399l-0.301,19.2l11.601,0.3l16.101,0.4l21,0.5l7.899,0.1v6.9h2.899v3.3l3,0.1v4.1l0,0h-0.101l0,0v5.1l0,0l6,1.3h3
		l0,0l2.399,5.3l0,0h2.3v3.7l0,0l3.7,2.4l0,0l0.101,4.9l0,0l8.101,0.1l0,0l2.899,2.4l8.101,11.3l0,0h-5l-5.199,4.7l0.101-4.6
		l-12.2-0.1l-1.101,0.8l-0.102,6.3h-6.8l0,0l0.102,6.2l0,0l-3.801-1l-6-8.3l-2.5-5.3l-2.601,4.4l-4.5,2.4l-1,2.8l-6.399,0.2
		l-5.601,1.9l-0.899,1.1l-6.5,8l-3.301-0.7l-1.699,1.9l-0.699,1.7l-2.602,3.3l-4.601,5.3l-1.602,0.3l-2.1-1.6l-0.2,0.7l2.102,4.4
		l0,0l0.398,0.9l0,0l0.7,1.7l0,0l0.3,0.4l0,0l-0.2,0.7l0,0h-6h-0.398l0,0l-9.8-0.2l0,0l-12.602-0.1l0,0v-0.2l0,0v-0.3l-0.101-6
		l0.2-13.2l0,0v-0.4l0,0l0.101-0.6l0,0l0.1-4.9l0.2-9v-3.7v-3.1v-3.1l0,0v-0.5l0,0l-6.398-0.2l-6.5-0.2l-12.302,0.1l0,0h-1.3l0,0
		l-1-3.7l0,0l-0.7-2l-2.198-6.6l-1.2-3.8l0,0l-0.899-2.6l0,0h1.2l0,0l0.899-0.1l0,0v-0.1l0,0l1.898-0.3l0.102-1.2h1.601v1.8l0,0
		h1.399l0,0l0.198-8.5l0,0l0.9-0.8l0,0l0.6-0.1l0,0l1.4,0.1l0,0l-2.7-1.9l0,0l-0.101-0.6l-0.102,1.2l-3-0.1l-7.6-2.3l-1.9-0.2l0,0
		l-0.1-0.4l0,0l0.3-8.2v-1l0,0l0.8-3.6l0,0h3.602l0.101,2.7h4.8v3.4h3.3l0.103,3.3l0,0l6.3,0.1l6.102-2.9l0,0l-7.399-0.2l0.1-6.2
		l5.4,0.1l0,0h2l0,0v-1.6v-4.6l0,0h-8.2l0.102-5.9l0,0l-0.102-2.8l0,0l-0.898-0.8l0,0l-1.802-0.6l-2.1-2.8v-1.4H321.882z"/>
	<path id="Menifee" fill="#8CCBEF" stroke="#000000" stroke-width="3" d="M378.482,329.483l-0.101,6.301l0,0l3.101,0.1l0,0
		l-0.101,6.302l0,0v6.198l0.101,5.802l0.899,4.399l6.398,11.699l2.7,4.9l2.5,5.398l0,0h-17l-8-0.199l0,0v-7.9l0.1-5l0,0l-10.5-0.299
		l-1.898-1.701l0,0l-2.8-1.6l1.5-7.4l1.198-1.898l0,0h0.2v-0.301l0,0v-1.699l0,0l0.102-10.301l0,0l0.601-1.1l0.3-3.5l-0.8-2.801
		v-5.6l0,0L378.482,329.483z"/>
	<path id="La_Quinta" fill="#8CCBEF" stroke="#000000" stroke-width="3" d="M1032.081,346.584l12.5-0.201l0,0v6.4l0,0h-6.199l0,0
		v6.4l0,0l6.199,0.1h2.301l0,0l-0.2,2.6l0,0l0.2-0.198l0,0l-2.301,2.299l0,0v1.601l0,0h-1.199l0,0l-0.102,3.201l-0.398,0.1
		l-0.301,0.801h2l0,0v2.5l0.101,12.699l0,0h12.601l0,0l-0.101,2.4l0,0v0.1l0,0v10.199l0,0h2.7l0,0v6.4l0,0h9.8l0,0l0.399,18.898l0,0
		h-6.399l0,0l0.2,9.801l2.8-0.199l0.2,3.398l0,0h-14.399l0,0l-0.101,2.9l-4.302-0.104l0,0v2.201v1.299l0,0l1.302,3.4l0,0l1.398-0.1
		l0,0l0.102,2.197l0,0l0.101,0.104l0,0l1.899,0.6l0,0l2.898,0.4h1.801l0,0v25.5l0,0l-25.301-0.301l-0.101-12.9l12.5-0.1l0,0
		l0.2-12.803l0,0l-40.2-0.396l0.398-22.801l0.4-2l0.1-26.102l0,0l0.2-25.301l7.7-0.199l9.5-5.6l-0.2-8.102l0,0l-0.601-0.1l0,0
		l-0.102,0.199l0,0h-0.198v-0.199l0.601-0.701l0,0l3.3,0.201l0,0v-0.801l-1-2.4l-4.601-4.799l-0.699-2.5l0,0v-6.601l0,0h3.399
		l-0.102,3.198l9.2,0.201L1032.081,346.584z"/>
	<path id="Lake_Elsinore" fill="#8CCBEF" stroke="#000000" stroke-width="3" d="M233.981,338.883l-3-0.1l0,0l0.4-9.6l12.398,0.299
		l-0.301,11.602l0,0l2.301,0.699l0,0l10.302,0.199l-0.103,7.9l0,0l1.7,5.1l0,0l10.601,0.301l-0.101,4.301l-0.6,2h-5.5l7.6,6.799l0,0
		l-0.1,0.201l0,0l5.1-0.801l0,0l1.101-1.1l0,0l2.199,2.299l0,0l-1.1,1.201l0,0l1.7,1.699l0,0l-2.7,1.699l0,0l3.2,3.102l0,0l0.6-0.9
		l-0.399-0.9l1-1.1l1,0.9l0.102,0.699l-3.2,3.301l1.102,1.5l5.801,0.1l-0.103-12.699l-3.198-0.102l-1-1.699l0.5-0.699l1.801-1.102
		l0.8-2.699l2.7-2.4v-4.299l-4.103-0.102l0,0l-0.3-0.199l0.3-2l-0.397-1l-2-1.699l-2.7-1l0,0l-0.3-1.399l0.3-3.302l2.1-4
		l-0.198-1.399l-1.102-3.101l0,0h3.9l0.3-17.6l-5.102-0.1l-0.101-3l18.4,0.199l-0.7,40.1h-3.4l-0.699,2.301l0,0l-2.898,0.9l0,0v3
		l0,0h7l0.1-3.201l0,0h4.5l0,0l1-3.299l0,0l1-0.102l0,0h2.9l0,0l0.1,3.301l0,0l-2.6,0.1l0,0v1.301l0,0v0.801l0,0h-0.2l0,0
		l-1.3,0.299l0,0v2.5l0,0h8.198l0,0l2.5,4.5l0,0l8.102,0.301l0,0v0.602v2.398h-3l-0.102,5.9h-3.3l-0.101,0.6l0,0l-0.3,9.602
		l5.101,0.1l0,0v3.3l1.199,0.8h3.801v-0.398l1.699-0.5h2.301l-0.101,2.699h1.698h5l0,0l3.302,0.1l0,0l7.601-0.1l0,0l13.5,0.1l0,0
		h1.5l0,0l-1.4,3.4l0,0l-0.1,1l0,0v1.898h-1.4l-0.198,6.4l0,0l0.101,0.299l0,0l-13.801-0.299l-10.8-0.201l-22.302-0.199
		l-0.398,0.699l0,0l-2.102,0.701l0,0l-0.299,0.199l-0.5,0.301l0,0l-2.399,1l0,0l3.8,9.699l0.101,6.398v1l0,0l-5.898,7.699
		l-3.8,5.102l0,0l-5.2-3.898l0,0l-1.7,2.5l0,0l-1.2-0.9l0,0l1.7-2.5l0,0l-1.3-0.898l0,0l0.399-0.602l0,0h0.101l0,0l-2.3-2.197l0,0
		l1.3-1.9l0,0l-0.3-0.201l0,0l-7-5.398l-2.3-1.699l-3.803,5.199l0,0l-0.6-0.5l0,0l3.8-5.199l-2.3-1.699l-2.2,3.1l-19.3-13.801
		l-2.3-1.896l-2.801-4.104l-2,2.604l0,0l1.698,1.299l0,0l-2.3,3.6l0,0l-0.8,1l0,0l-1.8-5.799l0,0l-1.7,2.5l0,0v0.199l0,0l-0.2,4.1
		l-2.898,0.104l0.101-6.803l0,0l2.899-4l0,0l-2.802-2.1l0,0l-0.897-0.801l0,0l-4.5-3.399l0,0l3.3-5.601l0.3-0.6l0,0l-1.897-1.4
		l1.6-2.699l-6.8,0.101l-0.3-0.101v-2.301l0,0l0.197-1.5l0,0l-13.8-0.199l0.103-12.899l9.6,0.199v-3.199l1.4,0.101l0,0l1.1-1.201
		l0,0l0.7,1.201l0,0h1.8l0,0h1.5l0,0l2.7,0.199l0,0l1.2-4.199l3.397-5.701l0.3-0.898l-0.5-0.602l-2.1-2.5l-2.4-2l-1.897-4.898
		L233.981,338.883z"/>
	<g id="Jurupa_Valley">
		<path id="_x36_3260" fill="#8CCBEF" stroke="#000000" stroke-width="3" d="M240.981,84.384l0.103,0.4l0,0l1.1,0.2l1.5,1.8l1.9,5.8
			l1.3,2.3l0,0l-0.9,1.1l0,0l-0.1,0.1l0,0l-1.7,1.8l0,0l-0.2,0.3l0,0l-1.3,2.1l0,0l-0.2,0.2l0,0l-3.3,5.4l0,0l0.102-0.4l0,0
			l-0.302,1.3l0,0l-1.5,3.4l0,0h-0.1l0,0l0.399,0.2l0,0l-5.302,6.4l0,0l-0.6,1.8l-1.602,2.1l-1.398,1.2h-0.5l0,0l-2.3,0.6l0,0
			l-1.802,0.4l0,0h-0.5l0,0l-2.198,0.4l0,0l-0.603,0.1l-2.8,2.9l-3.399,1.2l-1.5,1.2l0,0l-1.601,0.6l0,0l-4.3-0.3l0,0l-0.5-0.4l0,0
			l-0.102,0.4l-0.101,0.8l-7.8-0.1l-0.602,0.4l0,0l-0.301-1.3l0,0l-1.6-6l0,0l0.1-0.2l0,0l-0.3-1.1l0,0l-0.399-1.4l0,0l-1.198-3.8
			l0,0h-0.5l0,0l-2.302-12.8l0,0l3-1.7l3.102-2.9l1.2-0.2l2.6-1.8l3.101-2.5l-0.101-0.3l0,0l1-0.2l1-0.2l0,0l1,2.6l0.3,0.5l0,0
			l0.301,0.3l0,0h1.699l0,0l0.7,0.1l0.2,0.1l0,0l1.3-3.8l0,0l1.601-0.4l0,0l5.699-0.7l0,0l0.103-0.1l0,0l1.8,1.9l0,0l0.898-1.4l0,0
			l1.699,0.9l0,0l1-1.2l0,0l1,1.5l0,0l-0.8,2.1l0,0l-0.8-0.4l0,0l-0.2,0.3v0.2l0,0l1.601,0.9l2,0.4l1.602-1.4l0,0v-0.1l0,0l-1-0.7
			l2-3l0.7-4.1l2-3.6l0,0l1.8,1l0,0l1.398-2.1l0,0l3.102,0.9H240.981z"/>
		<path id="_x32_9644" fill="#8CCBEF" stroke="#000000" stroke-width="3" d="M186.382,71.384l-0.4,8.4l0.2,1.2l1.8,3.3v2l0,0
			l0.302,0.1l0,0v4.3l0,0h8.101l0,0l1,0.8l0.1,1.2l1.7,1.1h2.103l2.8-0.8l0.8,0.8l0,0l-0.2,0.3l0,0l-13.3,3.7l0,0l-12.5,3.5l-7.3,2
			l0,0l-3.603-2.9l-5.1-3.2l-3.5-2l0,0l-15.5-9.1l0,0l0.2-15.2l0,0l0.3-0.1l0,0l12.3,0.4l5.8-0.1l0,0l5,0.1h2.603l0,0l5,0.1l7.2,0.1
			l0,0H186.382z"/>
		<path id="path20014" fill="#8CCBEF" stroke="#000000" stroke-width="3" d="M156.781,125.684v-0.7l0,0l0.602,0.6l1.398,0.2
			l0.399,0.2l2.101,2.5l0.399,0.8l3.7-0.2l0.2-0.7l0.5-0.9l5.698,1l3.102,1.9l1.8,1.6h0.3l2.9-0.4l1.7,1.4l3.397-1l0,0l0.301,1.9
			l0,0h-0.398l-3.2-0.1l-1.3-1h-3.4l-4.5,0.7l-1.897,0.8l0.1,1.2l-2,0.6l-15.1-0.7l-0.103,1.6l-1.8,0.9h-1.399l0,0l-3.398-0.1l0,0
			l-2.602,2l0,0l0.102-2h0.6v-1.2h-1.1l0,0v-2.5l0,0l-3,2.8l0,0l1.3-5.3l1.602-1.5l0,0l0.398-0.3l0,0l4.7-3.5l3.1-1.3
			L156.781,125.684z"/>
		<path id="_x37_6022" fill="#8CCBEF" stroke="#000000" stroke-width="3" d="M223.082,71.384l-0.802,1.2l0,0l0.602,0.5l0,0l0.8-1.2
			l0,0l1.3,1l0,0l-4.897,13.4l0,0l-0.2,3.3l0,0l0.399,0.2l0,0l-0.699,2.5l0,0l-0.103,0.1l0,0l-5.698,0.7l0,0l-0.5-0.2l-4.5-2
			l-5.199-1.3l0,0l-0.7-2.6l0,0l4.399-2.4l2.198-1.8l0,0l0.603-0.9l2.6-0.3l0.3-1.9l-0.5-1.4l-0.697-0.8l0,0l0.5-0.5l0,0l2,0.3l0,0
			l5.3-2.7l0,0l-0.2-0.7l0,0l2.3-2.5l0,0H223.082z"/>
	</g>
	<path id="Indio" fill="#8CCBEF" stroke="#000000" stroke-width="3" d="M1040.681,300.983h2.301l0,0l3.899,2.602l5.3-0.102
		l1.2,0.602v3.799l0,0h4.2l0,0v0.101l0,0l0.6,0.5l0,0l6.301,6.5l5.1,3.201l0,0h4.102l-0.102,2.601l12.302-0.101l3,2.399l2.898,3.699
		l3.102,0.5l3.3,2.6l4.601-0.399l1.399,0.399l1.4,0.802l1.698,2.698l5.899,7.101l2.7,1.399l2.2,0.302l2,1.698l0,0v4.802l0,0v0.399
		l0,0l-6-2.899h-6.602l0,0v6.5v0.198l0,0l-6.5-0.1l0,0l0,0h-1.301l0,0h-1.699v1.5l2.399,2.4l2,1.199l2.601,0.801l2.5,0.199l0,0v0.1
		l0,0v0.201l0,0h-3.2h-2l5.2,5.1l0,0v1.1v2.102v1.2v3.198l0,0h-3.301l0,0l0.2-3.198h2.8l-1.3-1.7l-4.2-4.9h-3.602l-0.8,3.201l0,0
		l0.602,0.899l0,0h3.3v5.5v0.198l0,0h-0.199h-0.5h-2.398l0,0l-0.102-2l0,0l-1.101-1.1l0,0l-2-0.1l0,0v3.199l0,0l-12.399,0.101l0,0
		l-0.101,5.601l0,0l3,0.101v7.3l0,0l-3,0.1l0,0l-0.102,12.602l0,0h-12.601l-9.8-0.102l0,0h-2.7l0,0v-10.199l0,0v-0.1l0,0l0.101-2.4
		l0,0h-12.601l0,0l-0.1-12.699v-2.5l0,0h-2l0.3-0.801l0.399-0.1l0.101-3.201l0,0h1.2l0,0v-1.6l0,0l2.3-2.3l0,0l-0.2,0.198l0,0
		l0.2-2.6l0,0h-2.3l-6.2-0.1l0,0v-6.4l0,0h6.2l0,0v-6.4l0,0l1.698-7.698l0,0h-1.398l0,0l-0.3-4.899l0,0l2.898-0.301l0,0l-0.898-1.5
		l-2.9-2l-11.5-5.602l-6.399-2.5l0,0l1-1.198h5.399l0,0v-6.399l0,0h3.2l0,0h2.601l0,0v6.399l0,0h-2.7l0,0v2.899l0,0v0.5l0,0h6.2l0,0
		h3.1l0,0v-9.899l0,0h0.802l0,0l1.8,0.101l0,0h0.898l0,0l0.2-6.4l0,0h-7.7l0,0L1040.681,300.983z"/>
	<path id="Indian_Wells" fill="#8CCBEF" stroke="#000000" stroke-width="3" d="M1000.081,333.685l0.601,12.899l0,0h0.2l0,0h10.101
		l0,0l0.101,1.199l0,0v3.6l0,0l-1.101,0.701l-0.2,0.398l0,0l8.5,3.701l4.2,0.699l0,0l-0.601,0.699v0.201h0.199l0,0l0.101-0.201l0,0
		l0.601,0.102l0,0l0.2,8.1l-9.5,5.6l-7.7,0.201l-0.199,25.299l0,0l-36,0.201v-10.101l-0.301-1.7l0,0v-11.6l0,0v-0.102l0,0
		l-0.101-2.898l-0.199-2.201l0,0l0.101-5.898v-0.701v-0.299l0,0l2.101-0.201l0,0l-0.199-0.399v-0.5l0,0v-0.101l0,0l3.3,0.101l0,0
		l0.801,0.302l0.101-0.101v-1l0,0h2.899l0,0l0.101-0.399v-0.302l0,0l3.399-0.101l0,0l-0.101-1.1l0,0h-0.301l0,0l-0.101,0.1l0,0
		h-1.601l0,0l-0.101-0.1l0,0l-0.2-4.801v-6.5l0,0h2.399l7.101-0.1l0,0l0.101-1.6l0.2-11.101l0,0l5.699,0.101l0,0L1000.081,333.685z"
		/>
	<path id="Desert_Hot_Springs" fill="#F06BA8" stroke="#000000" stroke-width="3" d="M842.281,115.584l3.301,2.8l1,2.9l0,0
		l0.101,7.3l0,0l10.5,0.1l0,0v0.1l0,0h2.101l0,0v-0.1l-0.101-8.8l0,0v-0.5l0,0l0.2-3.7h5.699v6.8h2.399l0,0h3.101l0,0h3.699v1.4
		l1.301,1.1h1v-2.5l0.899,0.1l0,0h1.5v0.2l0,0l2.101,2.3l0,0l0.5-0.5l0,0l-0.301-0.5l0,0l2-1.2l0,0l-1.101,1.2l0,0l1.601,2l0,0
		l0.399,0.4v2.3v0.1l0,0h0.898l12.2,0.1l-0.2,12.8h2.4l0,0l2.899,0.1l0,0l7.101,0.1l-0.101,11.9l0,0l0.101,0.8l0,0l-12.801-0.2l0,0
		l-0.102,6.7l0,0l-7.398-0.1l0,0l-5.3-0.1h-2.802l0,0l-0.398,6.4l0,0l-3.102,0.1l0,0l0.2-7.6l0,0l-1.601,1l0,0h-10.8l0,0l0.101,6.6
		l0,0h-3.101l0,0v-1.5l0,0v-0.9l0,0h-3.102l0,0l-0.101-10.7l-0.102-12.8l0,0h-3l-9.6-0.1l-31.5-0.1l-6.2,0.4l0,0l0.102,6.2l0,0v6.6
		l0,0h-3.302l0,0l-7.3-0.3l-2.3-0.5l-12.602-0.2l0.301-37.9l12.5,0.5l27-1l9.101,0.2l0,0L842.281,115.584z"/>
	<path id="Cathedral_City" fill="#8CCBEF" stroke="#000000" stroke-width="3" d="M896.081,208.184l1-2.2l0,0l2.399,3.2l0,0
		l3.899,5.6l0,0h4.898v-9.2l12.899-0.1v26.1l-0.102,12.8l0.102,7.4v4.9l0,0v0.2l-0.102,4l0,0v4.8l0,0l0.102,3.9l0,0v0.1l-0.199,12.8
		l0,0h-0.7h-5.8l0,0v6.4v6.301l0,0h6.3l0,0v6.101v0.299l0,0h-1.601l0.101,5.5l-3.101-2.5l-4.699-0.101v3.399h-3.2h-1.398
		l-4.102,2.601l-4.601,5.302l-0.199,1.899l-0.9,2.5l-1.398,2l-0.399,0.101l-1.101-1.802l0,0l0.601-1l-3.3-1.399l-0.101-0.601
		l1.601-5.698l1.601-2.9v-1.1h0.899l0.199-0.101l0.101-8.201h-2.5l-0.101-1.899h-1.199l0.101-1l-1.601-0.101v-1.299h-0.7h-1.101
		l0.101-3.101l0,0l0.899,0.6l0,0l-0.102-0.6l0,0l0.102-1.7h0.101l0,0h0.801l0,0v-1.6h2.101l0.101,6.199l1.2,0.102l0,0l0.699-0.102
		l0,0h1.101l0,0h0.2v0.301l4.601-0.199h1.5l0,0v-1.4v-0.4l0,0l-3.199-2.9l0,0l-2.899-3.1l-0.101-4.8l0.101-9.9l0,0v-0.6l0,0v-2.3
		l0,0h-1.601h-7.801l0,0v-3.4l0,0l-3.101-0.1l0,0v-9.3l0,0l-0.101-12.6v-12.9v-7.1l-0.102-2.2l0,0l3.2,2.9l9.399,6.7l0.398-0.2l0,0
		h-0.101l0,0v-12.9h-9.399l0.102-6.4h4.5l-0.102-5.2l0,0L896.081,208.184z"/>
	<path id="Canyon_Lake" fill="#8CCBEF" stroke="#000000" stroke-width="3" d="M327.681,353.685l0.601,0.198l0,0l2,0.4l0,0h1h0.5l0,0
		l-0.3,18.4l0,0l0.5,7.299l2.5-3.199l0,0h9l0,0h0.6l0,0v3.199l3.5,0.102l0,0l0.5,3.601v2.101l0,0l0.102,0.899l0,0l-0.399-0.201l0,0
		h-3.698l0,0l-0.102,6.302l0,0l-7.601,0.1l0,0l-3.302-0.1l0,0h-5h-1.698l0.101-2.701h-2.301l-1.699,0.5v0.399h-3.801l-1.199-0.799
		v-3.302l0,0l-0.398-2.5l-2.2-3.1h-2.2v-4.1l0,0l0.101-0.602h3.301l0.101-5.898h3v-2.4v-0.6l0,0l0.102-13.602l8.398,0.201l0,0
		v-0.601h-0.006V353.685z"/>
	<path id="Corona" fill="#8CCBEF" stroke="#000000" stroke-width="3" d="M95.481,175.084l0.603-0.8l0,0l4.6,6.3l1.602,2.1l0,0
		l2.601-1.9l0,0l3.8,5.5l0.5,0.9l0,0l2.102,2.8l0,0l0.398,0.5l0,0l0.2,2.6l0,0l1.1-0.7l0,0l1.4-1l0,0l0,0l0,0l2.3,0.3l0,0l0.7,1.4
		l0,0l0.6-0.4l0,0l-1.397-3.9l0,0l1.897-0.6l0,0l0.7-2v-0.1l0,0h1.7l0,0v0.1v1.1v0.9l0,0l2.399,3.4l1.398-0.1l1.5-2.3l1.2-0.1
		l1.2,0.7l1.897,0.8l0,0l1.103-0.4l0,0l-0.603-1.5l0.2-1.5l0.5-0.8l2.5-1.5l4.5-1.5l3.2-2.5l0,0l0.8,1.3l-0.1,1.7l0.6,0.6h6.601
		l0.102-4.9l0,0h1.3l-0.1,7.6l2.397-0.8l0,0h0.301l2,2.3l3.602,5.2l0,0l-1.4,0.8l0,0l1.603,2.6l0,0l-1.4,1l0,0l-3,1.2l-3.8,1.5l0,0
		l0.6,1.4l0,0l-2.6,1.6l0,0l-1.101-1.8l0,0l-5.399,2.2l-6.601,2h-0.199l0,0l1.6,2.3l-1.398,1l0.898,1.4l0,0l2.102-0.3l1.398-0.9l0,0
		l1.8,2.6l0,0l2.302-2l0,0l0.301,0.2l0,0l2.397,1l0,0l0.4,0.2h0.5l0,0l0.399,0.2l0.601,2.3l4.3,1.7l1.5-0.2l3.3-2.7h5.802
		l-0.102,4.6l5.4,0.3l-0.7,1.1l-1.3,0.3l-0.7,5.5l-0.8,1.8l2.6,2l1.602,3.6l-0.302,12.8l-5.5-0.1l-6.3,3.9l0.602-4l3.398,0.1
		l0.2-8.5l-4.2-0.1l0.102-4.5l-3.102-3.2l-6.2-0.1v-2.7l-5.3-0.1l-0.398-0.5l0,0v0.3l0,0l-0.699-0.9l0,0h-2.103l-0.198,4.3h-3.802
		v-1.6l-1.397,0.2l0,0l-0.301,0.2l0,0l-0.899,0.5h-0.4l0,0l0.103,7.2l0,0l2.897,2.9l0,0l-0.8,1.5l0,0l-0.3,0.6l-0.5,0.9l0,0
		l-0.5,0.9l0,0l-0.3,0.4l0,0l-0.801,5.8l0,0v0.9l0,0l-0.102,3.7v1.1l0,0h1.5l0,0h1.5l0,0h2.5l0,0h0.9l0,0l2.699,0.1l0,0l1.198-0.7
		l2.5,3l-1.397,1.5l-0.301,5l-3.802,4.2l-0.1,5.7l-20,0.4l0.2-8.1l-16.5-10l-1.302-1.6l-10.601-12l-3.1-3.3l-0.103,1v4.1l-4.6-0.2
		l-0.8-2.2l0.198-2.5l2.102-1.6l-1.102-2.7l-3.301-3l-4.3-4.4l0.8-4.4l-15.897-6.1l-0.2,6.1l-6.102-0.1l0.102-8.3l-4-0.9l0,0
		l-0.102-7.5l0,0l-0.801-0.3v-0.8l3-0.1l6.801-2.1l7.302,0.3l-1.103,1.8l0,0l6.7,6.9l0,0l-0.1,0.4l-0.5,0.5l0,0l4.897,5l-0.5,2l2-2
		l-0.6-1.2l-0.7-1.4l-2.1-1.4l2.5-2.8l3.8,1.6l0,0l-2.102,2.3l0,0l0.802,1.1l0,0l6.3-6.4l-0.5-0.4l0,0l0.8-0.7l0.3-0.5l0,0l-1.5-0.6
		l0,0l0.103-0.4l0,0l-2.5-0.7l0,0l0.198-0.6l0,0l-0.198-0.1l0,0l-6.7-1l-11-2.4l0,0l10.398-1.8l0,0l-2-1.7l0,0l1.399,0.1l1.8-0.7
		l1.301-2.9l-2.698-2.7l-5.5-0.1l-0.802-5.5l2.302-0.602l0.897,1.8l2.103-0.8l-1.5-3.898l0,0l-0.5-1.102l2.5-1.1l0.6,2l0.9-1.1
		l0.1-0.1l0,0l4,1.8l0,0l1.5-3.5l0,0l2.101,1.3l0,0l0.5,0.3l7.302-8l2.1,2l0,0L95.481,175.084z"/>
	<path id="Coachella" fill="#8CCBEF" stroke="#000000" stroke-width="3" d="M1120.081,348.685l2.199,1.899l2.399,2.799l2.5,5.601
		l0,0h-1.101l0,0v3.201l0.101,3.299l0,0h-3.8l0,0l-2.302,3.101l0,0v3.301l0,0l6.2,0.1l0,0l0.1,6.5l18.603,0.102v-9.602l0,0
		l2.699,1.102l14.698,3.398l3.802,0.301l3.698-0.5l0,0v24l-9.5,0.1l-0.897,0.104l0,0l-0.5-0.104l0,0l-19.5,0.201l0,0l-7-0.1v1.396
		l0,0l1,2l0,0h5.3l0.101,3h2.699l0,0h0.5l0,0l3,3.301l0,0v3.102l0,0l9.101,0.1l0,0l0.102,3.104l-3,2.896l-3.102,0.104l-1.398,3v1
		l0,0v2.697l0,0l-7.3-0.1h-0.5l0,0l-2-2.4l-1-3.6l-3.103,0.1l0,0l-4.897-6.898l0,0h-0.5l-4.9,0.1h-2.6l-12.7-0.1l0,0l0.301,12.801
		l0,0h-12.601h-3.302l0,0l0.102-6.301l0,0h3.101l0,0l-0.3-6.5l0.3-12.5v-6.4v-4.6l0,0h-1.5l0,0l-1.699-1.799l0,0h-3.101l0,0v3.299
		l0,0h-3.101v-0.9l0.698-0.1l0.4-0.601v-1.699l0,0h-1.2l0,0v-7.301l-3-0.101l0,0l0.102-5.6l0,0l12.398-0.102l0,0h3.2l0,0h2.399h0.5
		h0.199l0,0h3l0,0h3.301l0,0v-3.199v-1.199v-2.102v-1.1l0,0v-0.5l0,0v-4.602l0,0v-0.198l0,0v-0.101l0,0v-6l0,0v-0.201v-6.5l0,0
		h6.601l6,2.9l0,0V348.685L1120.081,348.685z"/>
	<path id="Blythe" fill="#F06BA8" stroke="#000000" stroke-width="3" d="M2034.081,481.684h3.601l0.399,12.699l0,0l-16.301,0.5
		l0.301,6.5l-2.899,0.201l-0.199-6.6l-13.101,0.197l-0.102-10l-2.8,0.102v-3.199L2034.081,481.684z M2217.281,373.983v-0.1l0,0
		l4.102,1.699l0,0l3,1.201l11.601-0.101v1.198l0.399,20.9l0,0l-2.602,0.1l0,0v0.104l0,0l0.2,6.197l0,0l3.3-0.1l0,0l0.2,6l0,0v0.4
		l0,0l6.199-0.303l6.398-0.1l0,0l0.3,7.9l-1.397,4.799l0,0l1.3-0.102l18.899-0.6l12.5-0.4l0,0l-0.399-12.697l0,0h0.102l0,0
		l-0.102-0.104l0,0l-0.101-12.896l0,0l20.301-0.701l0,0l0.397,0.898l0.2,1.699l-0.1,1.301l-0.4,0.9l-0.8,1.4l-0.102,0.1l-0.898,2.1
		l-1.3,2.602l0.1,2.201l0.8,3l0.302,0.799v0.1l0,0l-0.399,0.201l0,0l-6.101,2.299l-4.699-1l-1.603,0.801l0,0l-0.3,0.303l0,0
		l0.102,1.299l14.101-0.102l0,0l0.2,1.102l0.101,3.898l-1.101,2.602l-0.2,0.6l-0.699,1.801l0.199,4.102l1.301,3.5l1.601,1.898
		l0.801,2l-0.101,2.602l-1.399,2.201l-1.7,2l-0.698,1.197l-0.4,0.602l-6.897,11.701l0.199,5.299l0.198,4.201l3.302,10l0,0
		l0.198,0.299l0,0l-7.397,0.301l0.199-2.5l-1.5-2l-0.102-0.9l0.2-1.1l1.3-1.9l0.2-1.197l-0.9-4.201l0.103-2l1.1-2.4l-2.1,0.104l0,0
		h-0.301l0,0l-16,0.5l-3,0.1l0,0l-0.199-6.6l-3.9,0.1l-0.1-3.1l-5.7,0.197l0,0l-0.101-1.301l0,0l-11,0.301l0,0l-1.199,0.602l0,0
		h-0.2l0,0v1.201l0,0l-1.5-0.803l0,0l-0.2-5.301l0,0h-1.8l0,0l-9.3,0.104l0,0v-0.303l0,0l-17.103,0.102l0,0l1.603-3l0,0
		l15.397-0.102l6.302-0.197l0,0l-0.102-3l0,0l-0.2-3.4l0,0l4.9-0.201l0,0l-0.102-0.197l0,0l-1.5-1.5l0,0h-0.101l0,0l-0.102-4.5l0,0
		v-0.5l0,0l-0.199-6.199l0,0l-9.699,0.299h-2.102l0,0l-1.101-6l0,0h-0.199l0,0l-0.301-19.199l0,0l-3.5,0.1l0,0h-0.102l0,0
		l-6.1,0.199l0,0l-12.4,0.301l0,0l-0.2-5.398l6.103-0.101l-0.2-7.601l0,0h4l0,0l-0.101-6.5h2.301l0,0L2217.281,373.983z"/>
	<g>
		<path id="path20010" fill="#8CCBEF" stroke="#000000" stroke-width="3" d="M527.281,113.484l-0.898,2.1l-4.301,4.7l-0.899,1.7l0,0
			l-0.101,0.1l0,0l1.601,4.1l0,0l-1.699,0.1l0,0l-0.101,3.1l0,0h-1.5l0,0l-0.2,10.1l0,0l-1.199,2.7l0,0l-2.2-0.9l0,0l0.102-1.4l0,0
			l-1-0.9l0,0l-11-0.1l-1,0.4l0,0l-3.7-2.5l-0.8-0.5l0,0l-1.399-1.1l0,0l-0.7-1l0,0l-0.898-0.4l0,0l-1.7-0.5l0,0l0.5-0.3l5-0.3l0,0
			l0.801-6.5l0,0h2.101l0.101-6.1l12.5-0.1h0.601l5.7,0.1v-6.4L527.281,113.484z"/>
		<path id="path20050" fill="#8CCBEF" stroke="#000000" stroke-width="3" d="M528.181,139.084h7h0.9l0,0v11.2l0,0l-3.2,1.5
			l-0.102,2.4l0,0l-1.698,1.2l0,0l0.198-1.1l-0.5-2.5l0,0h-3.601l0,0l2.398-5.2l0,0h-0.698L528.181,139.084z"/>
		<path id="Calimesa" fill="#8CCBEF" stroke="#000000" stroke-width="3" d="M492.382,100.384l9.398,0.1l3.2,0.2l0,0l5.399,0.1l0,0
			l8.898,0.6l4.899-0.2l0,0l0.101,3.2h3.2v1.3l0,0v1l0,0l-0.2,6.8l0,0l-6.3,0.2v6.4l-5.7-0.1h-0.601l-12.5,0.1l-0.102,6.1h-2.1l0,0
			l-0.801,6.5l0,0l-5,0.3l-0.5,0.3l0,0l1.7,0.5l0,0l0.898,0.4l0,0l0.7,1l0,0l1.399,1.1l0,0l0.8,0.5l3.7,2.5l0,0l6,5.3l0,0v0.3
			l-0.102,0.4l0,0l-6.7,0.5l0,0l-11.5-0.1l0.102-7.6l-21.899-1.8l0,0l-3.5-3.7l-3.398-2.5l-2.802-1.7l0,0l-1.5-0.9l0,0l0.102-0.3
			l0,0l-6.602-0.5l0,0v-1.6l6.5-5.7l0.102-5.9l-17.602-0.3v3.6l-8-0.1l0.102-3.6l-6.8-0.1l0.101-6.4l6.8,0.1l0.2-5.9l0,0l12.5,0.1
			l0,0l27.699,0.3l0.898-0.1l0,0l4.102-0.3l0,0l3.7-0.1l0,0h4.8L492.382,100.384z"/>
		<path id="_x31_2916" fill="#8CCBEF" stroke="#000000" stroke-width="3" d="M539.181,101.084l7.4,0.1h0.898l0,0l11.3,0.1l0,0
			l-0.5,2l-0.698,1.1l-4.2,5.5l-0.602,2.1l-0.198,6l0,0h0.3l0,0l0.3-0.5l0.4,1.1l0,0l1.6-0.2l0,0l3.5-2.4l0,0h3.4l-0.2,1.3
			l0.898,1.2l0,0l-1.398,1.6l0,0l-2.3,2l0,0l-1.9,3.4l0,0l3.101,2.1l0.602,1.2l1.398,4.6l0,0l2.102-0.5l0,0l-0.102,6.4l-3-0.1v1.6
			h-3.2l0,0v1.7l0,0l-3.398-0.1l0,0l0.101-1.6l0,0l-1-0.1l0,0l0.102-1.3l0,0v-0.2l0,0l-8.399-0.1l0,0l-0.101,6.4l0,0h-1l0,0
			l-0.602-0.8l0,0l0.102-1.5l0,0l-1.8-4.1l0,0h-6l0,0h-0.9h-7l0,0l-8.398-0.1l0,0l-0.602,0.5l0,0l0.2-10.1l0,0h1.5l0,0l0.101-3.1
			l0,0l1.699-0.1l0,0l-1.6-4.1l0,0l0.1-0.1l0,0l0.9-1.7l4.3-4.7l0.898-2.1l0,0l0.2-6.8l0,0l5.102-0.9l1.5-0.5l0.898-1.2l0,0
			L539.181,101.084z"/>
		<path id="San_Jacinto" fill="#8CCBEF" stroke="#000000" stroke-width="3" d="M502.081,260.084l-0.101-7.8l9-4.2l2,1.3l2.699,1.2
			l0,0l-0.102,9.7l0,0l13.602,0.2l0.101,6.2l0,0l-0.101,0.1l0,0h9.301l0,0l0.1,3.4l0,0h1.602l0,0h2.5l0,0l3.7,0.1l0,0v-0.6l0,0v-2.7
			l-3.302-3.3l0,0l0,0l0,0l0.802-2.8h-0.302l-0.198-0.8l6.8-0.2v7.3l6.5,0.3v1.9l-3.899-0.1l-2.898-1.1l0,0l-0.102,0.3l0,0v0.8
			l-2.699,6l1.899,1.9l0,0l2.101,2.3l0,0h-3l0,0l-0.101,0.3v10.5l0,0l0.601,0.4h1l0,0h1.5l0,0v-0.6l0,0l3.199-1.1v-7.9l0,0l1,0.5
			l0,0l3.5-3.7l4.7,3.9l0.5,0.3l0,0l-0.399-2.1l0,0l0.5-0.7l0,0l4.801,3.5l0,0l0.898-0.102l0,0l3.399-0.2l0.301-1l-0.301-0.5
			l0.5-0.7l4,0.1l-0.102,2h-1.8l-0.3,6.9h1.899v3.3l-3.102-0.1l-4.601,6.5l-0.102,0.102l0,0l-0.198,0.398l-0.302-0.5l0,0l-2-0.1l0,0
			l3.102,4.699l4.898,5.5l0,0l0.9-0.9l1.199,3.9h-3.399l0,0l-0.8-0.8l0,0l-0.101,0.8l0,0l-3.102-0.101l0,0v2.601l0,0l-3.7,0.2l0,0
			l-0.5-0.301l0,0v1.801l0,0l4.4,3.601l0,0l-3.4,1.5l-4.398,0.1l-1.3,0.801l-0.102,1.898l0,0l-0.398-0.398l-3.399-2.801
			l-3.101-3.199l-0.399-3.9l0,0l0.1-0.899l0,0l-2.6,0.302l0,0v0.799l0,0l-0.801,1.899l-1.5,1.601h-3.899l0,0l0.102-9.299l0,0h-4.102
			l0,0l-0.7,0.799l0,0v0.201l0,0h-1.5l0,0v-4.4l0,0h-6.198l-3.2-0.1h-16l-9.3-0.102l-9.802-0.301l0,0l0,0l0,0v-1.199l0,0v-5.2l0,0
			h-3.198l0,0v-6.1l-1.602-2.7l-1.601-0.4l-1.699,1l-5-0.1l0.3-8l-5.2-13.2l-0.5-2.3l-0.3-17.9l1.102-1.1l0,0l16.601,12.7l1.399,0.2
			H502.081L502.081,260.084z"/>
		<path id="Hemet" fill="#8CCBEF" stroke="#000000" stroke-width="3" d="M490.882,297.983h3.199l0,0v5.201l0,0l-6.199-0.102v-2
			l2.898,0.102L490.882,297.983z M494.081,304.383L494.081,304.383L494.081,304.383l9.801,0.302l9.3,0.101h16l3.2,0.1h6.199l0,0v4.4
			l0,0h1.5l0,0v-0.201l0,0l0.699-0.799l0,0h4.102l0,0l-0.102,9.299l0,0h3.899l1.5-1.601l0.801-1.899l0,0v-0.799l0,0l2.601-0.302l0,0
			l-0.101,0.899l0,0l0.399,3.9l3.101,3.199l3.399,2.801l0.398,0.4l0,0l0.102-1.9l1.3-0.801l4.399-0.1l3.399-1.5l0,0l-4.399-3.6l0,0
			v-1.802l0,0l0.5,0.302l0,0l3.699-0.201l0,0v-2.601l0,0l3.102,0.101l0,0v3.899l0,0h3.101l0,0v-1.399l0,0l0.699-0.101l0,0h2.5l0,0
			v1.802v1.6l0.101,3.199l0,0l3.399,0.102l0,0v3.1l0,0h1l0,0v0.4l0,0v1.199v0.1l0,0l0.101,1.4l0,0h-7.699l0,0h-6.301h-3.101h-6.3
			l-3.2-0.1l0,0v0.198l0,0l0.101,2.399v0.701l0,0h-2h-0.199l0,0l-0.899-0.899l0,0v0.101l0,0l-1.5-0.302l-0.101-0.698h-1.601l0,0v0.1
			l0,0l-1.301-0.4l0,0h-1.101l0,0v2l-0.699,0.602l0,0v0.601v0.3v1.7l-0.102,3.198l0,0h2.102l0,0v1.602l0,0l-2.102-0.102l0,0v3.302
			l0,0l-1.699,1.698l0,0h-1.399l0,0v1.602l0,0v0.6l0,0v0.4l0,0l1.601,0.5l0,0v0.301l0,0v1l0,0l-1.601,0.6l0,0l-3.199,0.4l0,0v7.399
			l2.399,1.399h2.5l-0.102,3.199h-2.398v5.5h-1.399l-0.301-0.799l-0.601-0.4v1.299l0,0h-3.301l0,0l-0.199,15.201v0.199l0,0h-6.101
			h-5.899l0,0l0.199-11.6l0,0l-7-0.102v-7.898H506.38l-0.102,2.898l-3.699-0.1v-2.9l0,0h-1.101l0,0l1.101-0.898v-3.5h-2.101l0,0
			h-6.301l0,0l0.101-1.801l0,0l-9.8-0.301l0,0l0.199-9.199l0.898-3.398l0,0l4.102-13l0,0l-7.899-0.102l0,0l-7.699,0.102l-1.899,1.1
			l0,0l-3.3-1.201l0,0h-1.801l0,0l-0.699-2l0.101-0.898h2.3l0.2-9.8h9.699l0,0h3.101v6.399l0,0h10.102l0,0v-6.301l2.101-8.299
			L494.081,304.383z"/>
		<rect x="547.49" y="101.19" fill="#8CCBEF" stroke="#000000" stroke-width="3" width="42.994" height="61.894"/>
		<path id="Beaumont" fill="#8CCBEF" stroke="#000000" stroke-width="3" d="M545.482,139.084l8.399,0.1l0,0v0.2l0,0l-0.102,1.3l0,0
			l1,0.1l0,0l-0.101,1.6l0,0l3.398,0.1l0,0l-0.3,9.4v0.2l-0.101,17.6v0.9l0,0v3.7l0,0v10.2l0.101,3.9l0,0l4.399,1.7l0,0l-0.102,9.4
			l8.102,0.2l-0.102,6l12.7,0.1h0.399v3.9l-4.199,2.7l-5.602,0.2l-0.199,12.4l3.699-0.1l-0.199,7.9l-3.399,2.6l-4,1h-9l-0.101,7.6
			l-3.301-0.1l-0.398,13.1h-1.7l0,0l0.101,0.1l0,0l-10.199-0.2l0.398-6.8l0.4-6.5l-9.7-0.2h-2.101l0,0h-0.301l0,0l-9-0.2l-0.101-2.9
			l0,0l0.101-0.7l0,0l-6.398-0.1l0.199-8.6v-2.1l-2.102-0.1v-7.9l0,0l2.301-0.1l3.801-2.2l1.898-2.5l0,0l3,0.2l0.301-5.1l4.102-0.1
			l0.5-7.5l17.6-0.1l0.102-13.8l-4.5-0.1v-4.5l-3.102,0.1l0,0l-0.1-2.1v-0.6l0,0v-5.6l-12.602-0.2l-0.101,2.6l-2.7,0.1v-5.8h-3.1
			l-0.102,3.1h-3.199l0.199-4.1l0,0l-1.5-2.7l0,0l-5.101-0.1v-6.2l0,0l-7.8-0.1l-4.7,0.8l0.3,5.7l-6.898-0.2l-0.301-7.4l0,0
			l-0.301-10.5l22.301,0.2l0.102-0.7l0,0l-6-5.3l0,0l-1.602-1.4l0,0l-6-5.3l0,0l1-0.4l11,0.1l0,0l1,0.9l0,0l-0.101,1.4l0,0l2.2,0.9
			l0,0l1.199-2.7l0,0l0.601-0.5l0,0l8.399,0.1l0,0l0.699,7.5h0.699l0,0l-2.398,5.2l0,0h3.601l0,0l0.5,2.5l-0.199,1.1l0,0l1.699-1.2
			l0,0l0.101-2.4l3.2-1.5l0,0v-11.2l0,0h6l0,0l1.8,4.1l0,0l-0.101,1.5l0,0l0.601,0.8l0,0h1l0,0L545.482,139.084z"/>
		<path id="Banning" fill="#8CCBEF" stroke="#000000" stroke-width="3" d="M596.181,75.984l12.7,0.1l0,0l-0.102,12.2l-10.101-0.2
			h-2.602v2.3l-3.3,0.1v2.2l-3.101-0.1l-0.101,13.9h1.899v6.6h-2.2l-0.101,6.7l6.199,0.2l-0.101,0.8l0.399,0.7l0,0l-0.101,13
			l2.8,0.1v5.4l7.7,5.3l0,0l2.199,0.1l-0.101,7.2l12.898,0.1v0.4l-0.199,5.2l0,0v5.4l-0.101,1.8l0,0l12.3,0.1l0.301-6.8l12.301,0.1
			l0,0v0.3v6.1v0.3l0.101,0.3l0,0l-0.101,0.4l-2.5,0.7l-10.199,2.7v3.4l0,0v1.6l0,0l-0.102,3.7l-0.101,9.7l-6.2-0.1v-2.9l0,0v-0.7
			l-6.199,0.1l0,0l-8.398-0.1l0,0h-3.602l-0.398-0.1l0,0l0.101,3.2l0,0l-0.101,3.4l-6.7-0.1l0,0h-0.5l0,0h-5l0,0h-0.3v-6.4l-6.5-0.1
			l0,0l-6-0.1l0,0v-6.4l0,0l0,0l-12.801-0.2l0,0l-0.102,6.2l0,0l-0.199,6.4l-7.699-0.1l0,0l-4.399-1.7l0,0l-0.101-3.9v-10.2l0,0
			v-3.7l0,0v-0.9l0.101-17.6v-0.2l0.301-9.4l0,0v-1.7l0,0h3.199v-1.6l3,0.1l0.101-6.4l0,0h6.301l0,0l-0.101,6.5l0,0l-0.101,4.2
			h3.101l2.5,7.1v1.3l0.399,0.2l-0.102,8.4l6.102,0.1l0,0l0.3-0.4l1-1.8l0.399-4l-0.199-2.4l0,0l-0.102-0.1l-0.199-2.7l0.101-3.4
			l0.301-1.1l1.601,0.3l0,0l0.399-2.4l0,0l4.8-2.3l1.602,1.1l0,0l0.898,0.3l0,0l0.399-1.4l0,0l-0.899-1l0,0l-1-1.5l0,0l-1-3.1l0,0
			l-0.101-2.6l0,0l-0.899-0.9l0,0l-3.699,0.1l0,0l-2.301-7.5l0.2-1.7l0,0l-0.301-0.6l0,0l-3.101,0.1l0,0l0.101,1.2l0,0l-3.899,0.3
			l0,0l-3.101,3.5l0,0h-2.699l-0.301-3.4l0,0v-0.2l0,0h-0.699v-9.1l-0.5-1.7l-0.301-4.5l-1.3-0.1v-6.4l0,0h2.398h0.399l0,0v0.8v2.2
			h6.399l0.101-3h2.7l0.6,1.4h1l0,0l-1.398,12.3l0.199,1.4l0,0l0.301,0.3l0,0l1.801-0.3l0,0v-0.9l0,0l1.199-4.6l0,0l0.699-0.6
			l0.5-3.1l-0.898-4.4l0.398-3.7l0,0l-1-0.6l0.102-5.9l3-0.1l0.101-2.2h3.199v-2.2h3.101l0.102-2.4h3.1L596.181,75.984z"/>
		<path id="path20058" fill="#8CCBEF" stroke="#000000" stroke-width="3" d="M524.181,101.184h0.9l14.1-0.1l0,0l-4.199,3l0,0
			l-0.9,1.2l-1.5,0.5l-5.1,0.9l0,0v-1l0,0v-1.3h-3.2L524.181,101.184z"/>
	</g>
	<g>
		<path id="Eastvale" fill="#6ABD45" stroke="#000000" stroke-width="3" d="M171.582,103.284l3.397,7.3l0,0l-2.699,2.2l-1,1.8
			l-5,2.8h-1.5l0,0l-0.101,4.7l0,0l-8,0.1l0,0l0.101,2.8l0,0v0.7l0,0l-4.801-0.7l-3.1,1.3l-4.7,3.5l0,0l-0.399,0.3l0,0l-1.601,1.5
			l-1.3,5.3l0,0l-0.2-0.1l0,0l-1.899,0.3l0,0l0.102-5.7l0,0l-1-0.1l0,0l-6.2-0.1l0,0l0.3-9.5l0,0v-8l-0.1-8.3l0,0l8-2.9l4.1-1.6
			l7.603-2.6l5.5-2.4l2.3-0.7l0,0l3.5,2l5.1,3.2L171.582,103.284z"/>
		<path id="Near_Eastvale" fill="#6ABD45" stroke="#000000" stroke-width="3" d="M159.383,95.184L119.792,70.39l-0.103,8.6v1.8l0,0
			l-0.1,2.5l0,0l-0.2,19.4v7.4l0,0l12.291,21.094"/>
	</g>
</g>
</svg>
